G04 #@! TF.GenerationSoftware,KiCad,Pcbnew,(5.0.0)*
G04 #@! TF.CreationDate,2018-10-16T17:34:37+02:00*
G04 #@! TF.ProjectId,B-timer,422D74696D65722E6B696361645F7063,rev?*
G04 #@! TF.SameCoordinates,Original*
G04 #@! TF.FileFunction,Copper,L1,Top,Signal*
G04 #@! TF.FilePolarity,Positive*
%FSLAX46Y46*%
G04 Gerber Fmt 4.6, Leading zero omitted, Abs format (unit mm)*
G04 Created by KiCad (PCBNEW (5.0.0)) date 10/16/18 17:34:37*
%MOMM*%
%LPD*%
G01*
G04 APERTURE LIST*
G04 #@! TA.AperFunction,SMDPad,CuDef*
%ADD10R,0.600000X0.400000*%
G04 #@! TD*
G04 #@! TA.AperFunction,ComponentPad*
%ADD11O,1.550000X1.000000*%
G04 #@! TD*
G04 #@! TA.AperFunction,ComponentPad*
%ADD12O,0.950000X1.250000*%
G04 #@! TD*
G04 #@! TA.AperFunction,SMDPad,CuDef*
%ADD13R,1.350000X0.400000*%
G04 #@! TD*
G04 #@! TA.AperFunction,SMDPad,CuDef*
%ADD14R,3.400000X1.300000*%
G04 #@! TD*
G04 #@! TA.AperFunction,SMDPad,CuDef*
%ADD15R,0.800000X0.800000*%
G04 #@! TD*
G04 #@! TA.AperFunction,SMDPad,CuDef*
%ADD16R,3.150000X1.000000*%
G04 #@! TD*
G04 #@! TA.AperFunction,SMDPad,CuDef*
%ADD17R,1.550000X1.300000*%
G04 #@! TD*
G04 #@! TA.AperFunction,SMDPad,CuDef*
%ADD18R,0.700000X0.220000*%
G04 #@! TD*
G04 #@! TA.AperFunction,SMDPad,CuDef*
%ADD19R,0.220000X0.700000*%
G04 #@! TD*
G04 #@! TA.AperFunction,SMDPad,CuDef*
%ADD20R,1.650000X1.650000*%
G04 #@! TD*
G04 #@! TA.AperFunction,SMDPad,CuDef*
%ADD21R,0.500000X0.600000*%
G04 #@! TD*
G04 #@! TA.AperFunction,ViaPad*
%ADD22C,0.800000*%
G04 #@! TD*
G04 #@! TA.AperFunction,Conductor*
%ADD23C,0.150000*%
G04 #@! TD*
G04 #@! TA.AperFunction,Conductor*
%ADD24C,0.200000*%
G04 #@! TD*
G04 APERTURE END LIST*
D10*
G04 #@! TO.P,R7,2*
G04 #@! TO.N,D6*
X123750000Y-74450000D03*
G04 #@! TO.P,R7,1*
G04 #@! TO.N,Net-(D15-Pad2)*
X123750000Y-73550000D03*
G04 #@! TD*
D11*
G04 #@! TO.P,J1,6*
G04 #@! TO.N,GND*
X101400000Y-93000000D03*
X101400000Y-86000000D03*
D12*
X104100000Y-92000000D03*
X104100000Y-87000000D03*
D13*
G04 #@! TO.P,J1,5*
X104100000Y-90800000D03*
G04 #@! TO.P,J1,4*
G04 #@! TO.N,N/C*
X104100000Y-90150000D03*
G04 #@! TO.P,J1,3*
X104100000Y-89500000D03*
G04 #@! TO.P,J1,2*
X104100000Y-88850000D03*
G04 #@! TO.P,J1,1*
G04 #@! TO.N,+5V*
X104100000Y-88200000D03*
G04 #@! TD*
D14*
G04 #@! TO.P,BZ1,2*
G04 #@! TO.N,GND*
X132500000Y-89600000D03*
G04 #@! TO.P,BZ1,1*
G04 #@! TO.N,Net-(BZ1-Pad1)*
X132500000Y-80900000D03*
G04 #@! TD*
D15*
G04 #@! TO.P,D1,1*
G04 #@! TO.N,D0*
X111250000Y-58200000D03*
G04 #@! TO.P,D1,2*
G04 #@! TO.N,Net-(D1-Pad2)*
X111250000Y-59800000D03*
G04 #@! TD*
G04 #@! TO.P,D2,1*
G04 #@! TO.N,D0*
X113750000Y-58200000D03*
G04 #@! TO.P,D2,2*
G04 #@! TO.N,Net-(D11-Pad2)*
X113750000Y-59800000D03*
G04 #@! TD*
G04 #@! TO.P,D3,2*
G04 #@! TO.N,Net-(D12-Pad2)*
X116250000Y-59800000D03*
G04 #@! TO.P,D3,1*
G04 #@! TO.N,D0*
X116250000Y-58200000D03*
G04 #@! TD*
G04 #@! TO.P,D4,2*
G04 #@! TO.N,Net-(D13-Pad2)*
X118750000Y-59800000D03*
G04 #@! TO.P,D4,1*
G04 #@! TO.N,D0*
X118750000Y-58200000D03*
G04 #@! TD*
G04 #@! TO.P,D5,1*
G04 #@! TO.N,D0*
X121250000Y-58200000D03*
G04 #@! TO.P,D5,2*
G04 #@! TO.N,Net-(D14-Pad2)*
X121250000Y-59800000D03*
G04 #@! TD*
G04 #@! TO.P,D6,2*
G04 #@! TO.N,Net-(D15-Pad2)*
X123750000Y-59800000D03*
G04 #@! TO.P,D6,1*
G04 #@! TO.N,D0*
X123750000Y-58200000D03*
G04 #@! TD*
G04 #@! TO.P,D7,1*
G04 #@! TO.N,D0*
X126250000Y-58200000D03*
G04 #@! TO.P,D7,2*
G04 #@! TO.N,Net-(D16-Pad2)*
X126250000Y-59800000D03*
G04 #@! TD*
G04 #@! TO.P,D8,2*
G04 #@! TO.N,Net-(D17-Pad2)*
X128750000Y-59800000D03*
G04 #@! TO.P,D8,1*
G04 #@! TO.N,D0*
X128750000Y-58200000D03*
G04 #@! TD*
G04 #@! TO.P,D9,1*
G04 #@! TO.N,D0*
X131250000Y-58200000D03*
G04 #@! TO.P,D9,2*
G04 #@! TO.N,Net-(D18-Pad2)*
X131250000Y-59800000D03*
G04 #@! TD*
G04 #@! TO.P,D10,2*
G04 #@! TO.N,Net-(D10-Pad2)*
X111250000Y-62800000D03*
G04 #@! TO.P,D10,1*
G04 #@! TO.N,D1*
X111250000Y-61200000D03*
G04 #@! TD*
G04 #@! TO.P,D11,1*
G04 #@! TO.N,D1*
X113750000Y-61200000D03*
G04 #@! TO.P,D11,2*
G04 #@! TO.N,Net-(D11-Pad2)*
X113750000Y-62800000D03*
G04 #@! TD*
G04 #@! TO.P,D12,2*
G04 #@! TO.N,Net-(D12-Pad2)*
X116250000Y-62800000D03*
G04 #@! TO.P,D12,1*
G04 #@! TO.N,D1*
X116250000Y-61200000D03*
G04 #@! TD*
G04 #@! TO.P,D13,1*
G04 #@! TO.N,D1*
X118750000Y-61200000D03*
G04 #@! TO.P,D13,2*
G04 #@! TO.N,Net-(D13-Pad2)*
X118750000Y-62800000D03*
G04 #@! TD*
G04 #@! TO.P,D14,2*
G04 #@! TO.N,Net-(D14-Pad2)*
X121250000Y-62800000D03*
G04 #@! TO.P,D14,1*
G04 #@! TO.N,D1*
X121250000Y-61200000D03*
G04 #@! TD*
G04 #@! TO.P,D15,1*
G04 #@! TO.N,D1*
X123750000Y-61200000D03*
G04 #@! TO.P,D15,2*
G04 #@! TO.N,Net-(D15-Pad2)*
X123750000Y-62800000D03*
G04 #@! TD*
G04 #@! TO.P,D16,2*
G04 #@! TO.N,Net-(D16-Pad2)*
X126250000Y-62800000D03*
G04 #@! TO.P,D16,1*
G04 #@! TO.N,D1*
X126250000Y-61200000D03*
G04 #@! TD*
G04 #@! TO.P,D17,2*
G04 #@! TO.N,Net-(D17-Pad2)*
X128750000Y-62800000D03*
G04 #@! TO.P,D17,1*
G04 #@! TO.N,D1*
X128750000Y-61200000D03*
G04 #@! TD*
G04 #@! TO.P,D18,1*
G04 #@! TO.N,D1*
X131250000Y-61200000D03*
G04 #@! TO.P,D18,2*
G04 #@! TO.N,Net-(D18-Pad2)*
X131250000Y-62800000D03*
G04 #@! TD*
G04 #@! TO.P,D19,1*
G04 #@! TO.N,D2*
X111250000Y-64200000D03*
G04 #@! TO.P,D19,2*
G04 #@! TO.N,Net-(D10-Pad2)*
X111250000Y-65800000D03*
G04 #@! TD*
G04 #@! TO.P,D20,2*
G04 #@! TO.N,Net-(D1-Pad2)*
X113750000Y-65800000D03*
G04 #@! TO.P,D20,1*
G04 #@! TO.N,D2*
X113750000Y-64200000D03*
G04 #@! TD*
G04 #@! TO.P,D21,1*
G04 #@! TO.N,D2*
X116250000Y-64200000D03*
G04 #@! TO.P,D21,2*
G04 #@! TO.N,Net-(D12-Pad2)*
X116250000Y-65800000D03*
G04 #@! TD*
G04 #@! TO.P,D22,2*
G04 #@! TO.N,Net-(D13-Pad2)*
X118750000Y-65800000D03*
G04 #@! TO.P,D22,1*
G04 #@! TO.N,D2*
X118750000Y-64200000D03*
G04 #@! TD*
G04 #@! TO.P,D23,1*
G04 #@! TO.N,D2*
X121250000Y-64200000D03*
G04 #@! TO.P,D23,2*
G04 #@! TO.N,Net-(D14-Pad2)*
X121250000Y-65800000D03*
G04 #@! TD*
G04 #@! TO.P,D24,2*
G04 #@! TO.N,Net-(D15-Pad2)*
X123750000Y-65800000D03*
G04 #@! TO.P,D24,1*
G04 #@! TO.N,D2*
X123750000Y-64200000D03*
G04 #@! TD*
G04 #@! TO.P,D25,1*
G04 #@! TO.N,D2*
X126250000Y-64200000D03*
G04 #@! TO.P,D25,2*
G04 #@! TO.N,Net-(D16-Pad2)*
X126250000Y-65800000D03*
G04 #@! TD*
G04 #@! TO.P,D26,2*
G04 #@! TO.N,Net-(D17-Pad2)*
X128750000Y-65800000D03*
G04 #@! TO.P,D26,1*
G04 #@! TO.N,D2*
X128750000Y-64200000D03*
G04 #@! TD*
G04 #@! TO.P,D27,1*
G04 #@! TO.N,D2*
X131250000Y-64200000D03*
G04 #@! TO.P,D27,2*
G04 #@! TO.N,Net-(D18-Pad2)*
X131250000Y-65800000D03*
G04 #@! TD*
G04 #@! TO.P,D28,2*
G04 #@! TO.N,Net-(D10-Pad2)*
X111250000Y-68800000D03*
G04 #@! TO.P,D28,1*
G04 #@! TO.N,D3*
X111250000Y-67200000D03*
G04 #@! TD*
G04 #@! TO.P,D29,1*
G04 #@! TO.N,D3*
X113750000Y-67200000D03*
G04 #@! TO.P,D29,2*
G04 #@! TO.N,Net-(D1-Pad2)*
X113750000Y-68800000D03*
G04 #@! TD*
G04 #@! TO.P,D30,2*
G04 #@! TO.N,Net-(D11-Pad2)*
X116250000Y-68800000D03*
G04 #@! TO.P,D30,1*
G04 #@! TO.N,D3*
X116250000Y-67200000D03*
G04 #@! TD*
G04 #@! TO.P,D31,1*
G04 #@! TO.N,D3*
X118750000Y-67200000D03*
G04 #@! TO.P,D31,2*
G04 #@! TO.N,Net-(D13-Pad2)*
X118750000Y-68800000D03*
G04 #@! TD*
G04 #@! TO.P,D32,2*
G04 #@! TO.N,Net-(D14-Pad2)*
X121250000Y-68800000D03*
G04 #@! TO.P,D32,1*
G04 #@! TO.N,D3*
X121250000Y-67200000D03*
G04 #@! TD*
G04 #@! TO.P,D33,2*
G04 #@! TO.N,Net-(D15-Pad2)*
X123750000Y-68800000D03*
G04 #@! TO.P,D33,1*
G04 #@! TO.N,D3*
X123750000Y-67200000D03*
G04 #@! TD*
G04 #@! TO.P,D34,2*
G04 #@! TO.N,Net-(D16-Pad2)*
X126250000Y-68800000D03*
G04 #@! TO.P,D34,1*
G04 #@! TO.N,D3*
X126250000Y-67200000D03*
G04 #@! TD*
G04 #@! TO.P,D35,2*
G04 #@! TO.N,Net-(D17-Pad2)*
X128750000Y-68800000D03*
G04 #@! TO.P,D35,1*
G04 #@! TO.N,D3*
X128750000Y-67200000D03*
G04 #@! TD*
G04 #@! TO.P,D36,1*
G04 #@! TO.N,D3*
X131250000Y-67200000D03*
G04 #@! TO.P,D36,2*
G04 #@! TO.N,Net-(D18-Pad2)*
X131250000Y-68800000D03*
G04 #@! TD*
G04 #@! TO.P,D37,1*
G04 #@! TO.N,D4*
X111250000Y-70200000D03*
G04 #@! TO.P,D37,2*
G04 #@! TO.N,Net-(D10-Pad2)*
X111250000Y-71800000D03*
G04 #@! TD*
G04 #@! TO.P,D38,2*
G04 #@! TO.N,Net-(D1-Pad2)*
X113750000Y-71800000D03*
G04 #@! TO.P,D38,1*
G04 #@! TO.N,D4*
X113750000Y-70200000D03*
G04 #@! TD*
G04 #@! TO.P,D39,1*
G04 #@! TO.N,D4*
X116250000Y-70200000D03*
G04 #@! TO.P,D39,2*
G04 #@! TO.N,Net-(D11-Pad2)*
X116250000Y-71800000D03*
G04 #@! TD*
G04 #@! TO.P,D40,2*
G04 #@! TO.N,Net-(D12-Pad2)*
X118750000Y-71800000D03*
G04 #@! TO.P,D40,1*
G04 #@! TO.N,D4*
X118750000Y-70200000D03*
G04 #@! TD*
G04 #@! TO.P,D41,1*
G04 #@! TO.N,D4*
X121250000Y-70200000D03*
G04 #@! TO.P,D41,2*
G04 #@! TO.N,Net-(D14-Pad2)*
X121250000Y-71800000D03*
G04 #@! TD*
G04 #@! TO.P,D42,1*
G04 #@! TO.N,D4*
X123750000Y-70200000D03*
G04 #@! TO.P,D42,2*
G04 #@! TO.N,Net-(D15-Pad2)*
X123750000Y-71800000D03*
G04 #@! TD*
G04 #@! TO.P,D43,1*
G04 #@! TO.N,D4*
X126250000Y-70200000D03*
G04 #@! TO.P,D43,2*
G04 #@! TO.N,Net-(D16-Pad2)*
X126250000Y-71800000D03*
G04 #@! TD*
G04 #@! TO.P,D44,2*
G04 #@! TO.N,Net-(D17-Pad2)*
X128750000Y-71800000D03*
G04 #@! TO.P,D44,1*
G04 #@! TO.N,D4*
X128750000Y-70200000D03*
G04 #@! TD*
G04 #@! TO.P,D45,1*
G04 #@! TO.N,D4*
X131250000Y-70200000D03*
G04 #@! TO.P,D45,2*
G04 #@! TO.N,Net-(D18-Pad2)*
X131250000Y-71800000D03*
G04 #@! TD*
G04 #@! TO.P,D46,2*
G04 #@! TO.N,Net-(D10-Pad2)*
X133750000Y-59800000D03*
G04 #@! TO.P,D46,1*
G04 #@! TO.N,D5*
X133750000Y-58200000D03*
G04 #@! TD*
G04 #@! TO.P,D47,1*
G04 #@! TO.N,D5*
X136250000Y-58200000D03*
G04 #@! TO.P,D47,2*
G04 #@! TO.N,Net-(D1-Pad2)*
X136250000Y-59800000D03*
G04 #@! TD*
G04 #@! TO.P,D48,2*
G04 #@! TO.N,Net-(D11-Pad2)*
X138750000Y-59800000D03*
G04 #@! TO.P,D48,1*
G04 #@! TO.N,D5*
X138750000Y-58200000D03*
G04 #@! TD*
G04 #@! TO.P,D49,1*
G04 #@! TO.N,D5*
X141250000Y-58200000D03*
G04 #@! TO.P,D49,2*
G04 #@! TO.N,Net-(D12-Pad2)*
X141250000Y-59800000D03*
G04 #@! TD*
G04 #@! TO.P,D50,2*
G04 #@! TO.N,Net-(D13-Pad2)*
X143750000Y-59800000D03*
G04 #@! TO.P,D50,1*
G04 #@! TO.N,D5*
X143750000Y-58200000D03*
G04 #@! TD*
G04 #@! TO.P,D51,2*
G04 #@! TO.N,Net-(D15-Pad2)*
X146250000Y-59800000D03*
G04 #@! TO.P,D51,1*
G04 #@! TO.N,D5*
X146250000Y-58200000D03*
G04 #@! TD*
G04 #@! TO.P,D52,1*
G04 #@! TO.N,D5*
X148750000Y-58200000D03*
G04 #@! TO.P,D52,2*
G04 #@! TO.N,Net-(D16-Pad2)*
X148750000Y-59800000D03*
G04 #@! TD*
G04 #@! TO.P,D53,2*
G04 #@! TO.N,Net-(D17-Pad2)*
X151250000Y-59800000D03*
G04 #@! TO.P,D53,1*
G04 #@! TO.N,D5*
X151250000Y-58200000D03*
G04 #@! TD*
G04 #@! TO.P,D54,1*
G04 #@! TO.N,D5*
X153750000Y-58200000D03*
G04 #@! TO.P,D54,2*
G04 #@! TO.N,Net-(D18-Pad2)*
X153750000Y-59800000D03*
G04 #@! TD*
G04 #@! TO.P,D55,1*
G04 #@! TO.N,D6*
X133750000Y-61200000D03*
G04 #@! TO.P,D55,2*
G04 #@! TO.N,Net-(D10-Pad2)*
X133750000Y-62800000D03*
G04 #@! TD*
G04 #@! TO.P,D56,2*
G04 #@! TO.N,Net-(D1-Pad2)*
X136250000Y-62800000D03*
G04 #@! TO.P,D56,1*
G04 #@! TO.N,D6*
X136250000Y-61200000D03*
G04 #@! TD*
G04 #@! TO.P,D57,1*
G04 #@! TO.N,D6*
X138750000Y-61200000D03*
G04 #@! TO.P,D57,2*
G04 #@! TO.N,Net-(D11-Pad2)*
X138750000Y-62800000D03*
G04 #@! TD*
G04 #@! TO.P,D58,2*
G04 #@! TO.N,Net-(D12-Pad2)*
X141250000Y-62800000D03*
G04 #@! TO.P,D58,1*
G04 #@! TO.N,D6*
X141250000Y-61200000D03*
G04 #@! TD*
G04 #@! TO.P,D59,1*
G04 #@! TO.N,D6*
X143750000Y-61200000D03*
G04 #@! TO.P,D59,2*
G04 #@! TO.N,Net-(D13-Pad2)*
X143750000Y-62800000D03*
G04 #@! TD*
G04 #@! TO.P,D60,2*
G04 #@! TO.N,Net-(D14-Pad2)*
X146250000Y-62800000D03*
G04 #@! TO.P,D60,1*
G04 #@! TO.N,D6*
X146250000Y-61200000D03*
G04 #@! TD*
G04 #@! TO.P,D61,1*
G04 #@! TO.N,D6*
X148750000Y-61200000D03*
G04 #@! TO.P,D61,2*
G04 #@! TO.N,Net-(D16-Pad2)*
X148750000Y-62800000D03*
G04 #@! TD*
G04 #@! TO.P,D62,2*
G04 #@! TO.N,Net-(D17-Pad2)*
X151250000Y-62800000D03*
G04 #@! TO.P,D62,1*
G04 #@! TO.N,D6*
X151250000Y-61200000D03*
G04 #@! TD*
G04 #@! TO.P,D63,1*
G04 #@! TO.N,D6*
X153750000Y-61200000D03*
G04 #@! TO.P,D63,2*
G04 #@! TO.N,Net-(D18-Pad2)*
X153750000Y-62800000D03*
G04 #@! TD*
G04 #@! TO.P,D64,2*
G04 #@! TO.N,Net-(D10-Pad2)*
X133750000Y-65800000D03*
G04 #@! TO.P,D64,1*
G04 #@! TO.N,D7*
X133750000Y-64200000D03*
G04 #@! TD*
G04 #@! TO.P,D65,1*
G04 #@! TO.N,D7*
X136250000Y-64200000D03*
G04 #@! TO.P,D65,2*
G04 #@! TO.N,Net-(D1-Pad2)*
X136250000Y-65800000D03*
G04 #@! TD*
G04 #@! TO.P,D66,2*
G04 #@! TO.N,Net-(D11-Pad2)*
X138750000Y-65800000D03*
G04 #@! TO.P,D66,1*
G04 #@! TO.N,D7*
X138750000Y-64200000D03*
G04 #@! TD*
G04 #@! TO.P,D67,1*
G04 #@! TO.N,D7*
X141250000Y-64200000D03*
G04 #@! TO.P,D67,2*
G04 #@! TO.N,Net-(D12-Pad2)*
X141250000Y-65800000D03*
G04 #@! TD*
G04 #@! TO.P,D68,2*
G04 #@! TO.N,Net-(D13-Pad2)*
X143750000Y-65800000D03*
G04 #@! TO.P,D68,1*
G04 #@! TO.N,D7*
X143750000Y-64200000D03*
G04 #@! TD*
G04 #@! TO.P,D69,1*
G04 #@! TO.N,D7*
X146250000Y-64200000D03*
G04 #@! TO.P,D69,2*
G04 #@! TO.N,Net-(D14-Pad2)*
X146250000Y-65800000D03*
G04 #@! TD*
G04 #@! TO.P,D70,2*
G04 #@! TO.N,Net-(D15-Pad2)*
X148750000Y-65800000D03*
G04 #@! TO.P,D70,1*
G04 #@! TO.N,D7*
X148750000Y-64200000D03*
G04 #@! TD*
G04 #@! TO.P,D71,2*
G04 #@! TO.N,Net-(D17-Pad2)*
X151250000Y-65800000D03*
G04 #@! TO.P,D71,1*
G04 #@! TO.N,D7*
X151250000Y-64200000D03*
G04 #@! TD*
G04 #@! TO.P,D72,1*
G04 #@! TO.N,D7*
X153750000Y-64200000D03*
G04 #@! TO.P,D72,2*
G04 #@! TO.N,Net-(D18-Pad2)*
X153750000Y-65800000D03*
G04 #@! TD*
G04 #@! TO.P,D73,1*
G04 #@! TO.N,D8*
X133750000Y-67200000D03*
G04 #@! TO.P,D73,2*
G04 #@! TO.N,Net-(D10-Pad2)*
X133750000Y-68800000D03*
G04 #@! TD*
G04 #@! TO.P,D74,2*
G04 #@! TO.N,Net-(D1-Pad2)*
X136250000Y-68800000D03*
G04 #@! TO.P,D74,1*
G04 #@! TO.N,D8*
X136250000Y-67200000D03*
G04 #@! TD*
G04 #@! TO.P,D75,1*
G04 #@! TO.N,D8*
X138750000Y-67200000D03*
G04 #@! TO.P,D75,2*
G04 #@! TO.N,Net-(D11-Pad2)*
X138750000Y-68800000D03*
G04 #@! TD*
G04 #@! TO.P,D76,2*
G04 #@! TO.N,Net-(D12-Pad2)*
X141250000Y-68800000D03*
G04 #@! TO.P,D76,1*
G04 #@! TO.N,D8*
X141250000Y-67200000D03*
G04 #@! TD*
G04 #@! TO.P,D77,1*
G04 #@! TO.N,D8*
X143750000Y-67200000D03*
G04 #@! TO.P,D77,2*
G04 #@! TO.N,Net-(D13-Pad2)*
X143750000Y-68800000D03*
G04 #@! TD*
G04 #@! TO.P,D78,1*
G04 #@! TO.N,D8*
X146250000Y-67200000D03*
G04 #@! TO.P,D78,2*
G04 #@! TO.N,Net-(D14-Pad2)*
X146250000Y-68800000D03*
G04 #@! TD*
G04 #@! TO.P,D79,2*
G04 #@! TO.N,Net-(D15-Pad2)*
X148750000Y-68800000D03*
G04 #@! TO.P,D79,1*
G04 #@! TO.N,D8*
X148750000Y-67200000D03*
G04 #@! TD*
G04 #@! TO.P,D80,2*
G04 #@! TO.N,Net-(D16-Pad2)*
X151250000Y-68800000D03*
G04 #@! TO.P,D80,1*
G04 #@! TO.N,D8*
X151250000Y-67200000D03*
G04 #@! TD*
G04 #@! TO.P,D81,2*
G04 #@! TO.N,Net-(D18-Pad2)*
X153750000Y-68800000D03*
G04 #@! TO.P,D81,1*
G04 #@! TO.N,D8*
X153750000Y-67200000D03*
G04 #@! TD*
G04 #@! TO.P,D82,1*
G04 #@! TO.N,D9*
X133750000Y-70200000D03*
G04 #@! TO.P,D82,2*
G04 #@! TO.N,Net-(D10-Pad2)*
X133750000Y-71800000D03*
G04 #@! TD*
G04 #@! TO.P,D83,2*
G04 #@! TO.N,Net-(D1-Pad2)*
X136250000Y-71800000D03*
G04 #@! TO.P,D83,1*
G04 #@! TO.N,D9*
X136250000Y-70200000D03*
G04 #@! TD*
G04 #@! TO.P,D84,1*
G04 #@! TO.N,D9*
X138750000Y-70200000D03*
G04 #@! TO.P,D84,2*
G04 #@! TO.N,Net-(D11-Pad2)*
X138750000Y-71800000D03*
G04 #@! TD*
G04 #@! TO.P,D85,2*
G04 #@! TO.N,Net-(D12-Pad2)*
X141250000Y-71800000D03*
G04 #@! TO.P,D85,1*
G04 #@! TO.N,D9*
X141250000Y-70200000D03*
G04 #@! TD*
G04 #@! TO.P,D86,1*
G04 #@! TO.N,D9*
X143750000Y-70200000D03*
G04 #@! TO.P,D86,2*
G04 #@! TO.N,Net-(D13-Pad2)*
X143750000Y-71800000D03*
G04 #@! TD*
G04 #@! TO.P,D87,2*
G04 #@! TO.N,Net-(D14-Pad2)*
X146250000Y-71800000D03*
G04 #@! TO.P,D87,1*
G04 #@! TO.N,D9*
X146250000Y-70200000D03*
G04 #@! TD*
G04 #@! TO.P,D88,1*
G04 #@! TO.N,D9*
X148750000Y-70200000D03*
G04 #@! TO.P,D88,2*
G04 #@! TO.N,Net-(D15-Pad2)*
X148750000Y-71800000D03*
G04 #@! TD*
G04 #@! TO.P,D89,2*
G04 #@! TO.N,Net-(D16-Pad2)*
X151250000Y-71800000D03*
G04 #@! TO.P,D89,1*
G04 #@! TO.N,D9*
X151250000Y-70200000D03*
G04 #@! TD*
G04 #@! TO.P,D90,1*
G04 #@! TO.N,D9*
X153750000Y-70200000D03*
G04 #@! TO.P,D90,2*
G04 #@! TO.N,Net-(D17-Pad2)*
X153750000Y-71800000D03*
G04 #@! TD*
D16*
G04 #@! TO.P,J2,6*
G04 #@! TO.N,GND*
X161025000Y-87540000D03*
G04 #@! TO.P,J2,5*
G04 #@! TO.N,RESET*
X155975000Y-87540000D03*
G04 #@! TO.P,J2,4*
G04 #@! TO.N,MOSI*
X161025000Y-85000000D03*
G04 #@! TO.P,J2,3*
G04 #@! TO.N,SCK*
X155975000Y-85000000D03*
G04 #@! TO.P,J2,2*
G04 #@! TO.N,+5V*
X161025000Y-82460000D03*
G04 #@! TO.P,J2,1*
G04 #@! TO.N,MISO*
X155975000Y-82460000D03*
G04 #@! TD*
D10*
G04 #@! TO.P,R1,1*
G04 #@! TO.N,Net-(D10-Pad2)*
X111250000Y-73550000D03*
G04 #@! TO.P,R1,2*
G04 #@! TO.N,D0*
X111250000Y-74450000D03*
G04 #@! TD*
G04 #@! TO.P,R2,2*
G04 #@! TO.N,D1*
X113750000Y-74450000D03*
G04 #@! TO.P,R2,1*
G04 #@! TO.N,Net-(D1-Pad2)*
X113750000Y-73550000D03*
G04 #@! TD*
G04 #@! TO.P,R3,1*
G04 #@! TO.N,Net-(D11-Pad2)*
X116250000Y-73550000D03*
G04 #@! TO.P,R3,2*
G04 #@! TO.N,D2*
X116250000Y-74450000D03*
G04 #@! TD*
G04 #@! TO.P,R4,2*
G04 #@! TO.N,D3*
X118750000Y-74450000D03*
G04 #@! TO.P,R4,1*
G04 #@! TO.N,Net-(D12-Pad2)*
X118750000Y-73550000D03*
G04 #@! TD*
G04 #@! TO.P,R5,1*
G04 #@! TO.N,Net-(D13-Pad2)*
X118750000Y-76550000D03*
G04 #@! TO.P,R5,2*
G04 #@! TO.N,D4*
X118750000Y-77450000D03*
G04 #@! TD*
G04 #@! TO.P,R6,2*
G04 #@! TO.N,D5*
X121250000Y-74450000D03*
G04 #@! TO.P,R6,1*
G04 #@! TO.N,Net-(D14-Pad2)*
X121250000Y-73550000D03*
G04 #@! TD*
G04 #@! TO.P,R8,1*
G04 #@! TO.N,Net-(D16-Pad2)*
X126250000Y-73550000D03*
G04 #@! TO.P,R8,2*
G04 #@! TO.N,D7*
X126250000Y-74450000D03*
G04 #@! TD*
G04 #@! TO.P,R9,2*
G04 #@! TO.N,D8*
X128750000Y-74450000D03*
G04 #@! TO.P,R9,1*
G04 #@! TO.N,Net-(D17-Pad2)*
X128750000Y-73550000D03*
G04 #@! TD*
G04 #@! TO.P,R10,1*
G04 #@! TO.N,Net-(D18-Pad2)*
X131250000Y-73550000D03*
G04 #@! TO.P,R10,2*
G04 #@! TO.N,D9*
X131250000Y-74450000D03*
G04 #@! TD*
D17*
G04 #@! TO.P,SW1,1*
G04 #@! TO.N,GND*
X118975000Y-97250000D03*
X111025000Y-97250000D03*
G04 #@! TO.P,SW1,2*
G04 #@! TO.N,Net-(SW1-Pad2)*
X118975000Y-92750000D03*
X111025000Y-92750000D03*
G04 #@! TD*
G04 #@! TO.P,SW2,2*
G04 #@! TO.N,Net-(SW2-Pad2)*
X128525000Y-92750000D03*
X136475000Y-92750000D03*
G04 #@! TO.P,SW2,1*
G04 #@! TO.N,GND*
X128525000Y-97250000D03*
X136475000Y-97250000D03*
G04 #@! TD*
G04 #@! TO.P,SW3,2*
G04 #@! TO.N,Net-(SW3-Pad2)*
X146025000Y-92750000D03*
X153975000Y-92750000D03*
G04 #@! TO.P,SW3,1*
G04 #@! TO.N,GND*
X146025000Y-97250000D03*
X153975000Y-97250000D03*
G04 #@! TD*
D18*
G04 #@! TO.P,U1,1*
G04 #@! TO.N,D1*
X120275000Y-82350000D03*
G04 #@! TO.P,U1,2*
G04 #@! TO.N,Net-(SW1-Pad2)*
X120275000Y-82800000D03*
G04 #@! TO.P,U1,3*
G04 #@! TO.N,Net-(SW2-Pad2)*
X120275000Y-83250000D03*
G04 #@! TO.P,U1,4*
G04 #@! TO.N,D2*
X120275000Y-83700000D03*
G04 #@! TO.P,U1,5*
G04 #@! TO.N,D3*
X120275000Y-84150000D03*
D19*
G04 #@! TO.P,U1,6*
G04 #@! TO.N,D4*
X120850000Y-84725000D03*
G04 #@! TO.P,U1,7*
G04 #@! TO.N,D5*
X121300000Y-84725000D03*
G04 #@! TO.P,U1,8*
G04 #@! TO.N,GND*
X121750000Y-84725000D03*
G04 #@! TO.P,U1,9*
G04 #@! TO.N,D6*
X122200000Y-84725000D03*
G04 #@! TO.P,U1,10*
G04 #@! TO.N,D7*
X122650000Y-84725000D03*
D18*
G04 #@! TO.P,U1,11*
G04 #@! TO.N,D8*
X123225000Y-84150000D03*
G04 #@! TO.P,U1,12*
G04 #@! TO.N,D9*
X123225000Y-83700000D03*
G04 #@! TO.P,U1,13*
G04 #@! TO.N,Net-(SW3-Pad2)*
X123225000Y-83250000D03*
G04 #@! TO.P,U1,14*
G04 #@! TO.N,Net-(BZ1-Pad1)*
X123225000Y-82800000D03*
G04 #@! TO.P,U1,15*
G04 #@! TO.N,MOSI*
X123225000Y-82350000D03*
D19*
G04 #@! TO.P,U1,16*
G04 #@! TO.N,MISO*
X122650000Y-81775000D03*
G04 #@! TO.P,U1,17*
G04 #@! TO.N,SCK*
X122200000Y-81775000D03*
G04 #@! TO.P,U1,18*
G04 #@! TO.N,+5V*
X121750000Y-81775000D03*
G04 #@! TO.P,U1,19*
G04 #@! TO.N,RESET*
X121300000Y-81775000D03*
G04 #@! TO.P,U1,20*
G04 #@! TO.N,D0*
X120850000Y-81775000D03*
D20*
G04 #@! TO.P,U1,21*
G04 #@! TO.N,GND*
X121750000Y-83250000D03*
G04 #@! TD*
D21*
G04 #@! TO.P,C1,1*
G04 #@! TO.N,+5V*
X121000000Y-80050000D03*
G04 #@! TO.P,C1,2*
G04 #@! TO.N,GND*
X121000000Y-78950000D03*
G04 #@! TD*
G04 #@! TO.P,C2,2*
G04 #@! TO.N,GND*
X122250000Y-78950000D03*
G04 #@! TO.P,C2,1*
G04 #@! TO.N,+5V*
X122250000Y-80050000D03*
G04 #@! TD*
D22*
G04 #@! TO.N,GND*
X122000000Y-86000000D03*
X136000000Y-89750000D03*
X115000000Y-97250000D03*
X150000000Y-97250000D03*
X132500000Y-97250000D03*
X161000000Y-90250000D03*
X121500000Y-78000000D03*
G04 #@! TO.N,Net-(BZ1-Pad1)*
X125749978Y-82500000D03*
X125750000Y-80949987D03*
G04 #@! TO.N,D0*
X108000000Y-58250000D03*
X108000000Y-74500000D03*
X109750000Y-74500000D03*
X109750000Y-80500000D03*
G04 #@! TO.N,Net-(D1-Pad2)*
X112500000Y-65750000D03*
X112500000Y-68750000D03*
X137500000Y-72000000D03*
X137500000Y-68750000D03*
X137500000Y-62750000D03*
X112500000Y-59750000D03*
X137500000Y-59750000D03*
X137500000Y-65750014D03*
X112500000Y-73750000D03*
X112500000Y-71750000D03*
G04 #@! TO.N,Net-(D11-Pad2)*
X115000000Y-59750000D03*
X115000000Y-68750000D03*
X115000000Y-62750000D03*
X140000000Y-72000000D03*
X140000000Y-68750000D03*
X140000000Y-65750000D03*
X140000000Y-62750000D03*
X140000000Y-59750000D03*
X115000000Y-73750000D03*
X115000000Y-71750000D03*
G04 #@! TO.N,Net-(D12-Pad2)*
X117500000Y-65750000D03*
X117500000Y-62750000D03*
X142500000Y-72000000D03*
X142500000Y-68750000D03*
X142500000Y-65750000D03*
X142500000Y-62750000D03*
X117500000Y-59750000D03*
X142500000Y-59750000D03*
X117500000Y-73750000D03*
X117500000Y-71750000D03*
G04 #@! TO.N,Net-(D13-Pad2)*
X120000000Y-75500000D03*
X120000000Y-62750000D03*
X120000000Y-65750000D03*
X120000000Y-68750000D03*
X145000000Y-72000000D03*
X145000000Y-68750000D03*
X145000000Y-62750000D03*
X119999990Y-59750000D03*
X145000000Y-59750000D03*
X145000000Y-65749999D03*
G04 #@! TO.N,Net-(D14-Pad2)*
X122500000Y-68750000D03*
X122500000Y-65750000D03*
X122500000Y-62750000D03*
X122500000Y-59750000D03*
X122500000Y-73750000D03*
X122500000Y-71750000D03*
X156250000Y-62000000D03*
X156250000Y-71000000D03*
X156250000Y-68000000D03*
X156250000Y-65000000D03*
G04 #@! TO.N,Net-(D15-Pad2)*
X125000000Y-62750000D03*
X125000000Y-65750000D03*
X125000000Y-68750000D03*
X147500000Y-72000000D03*
X147500000Y-68750000D03*
X147500000Y-65750000D03*
X125000000Y-59750000D03*
X147500000Y-59750000D03*
X125000000Y-57000000D03*
X147500000Y-57000000D03*
X125000000Y-73750000D03*
X125000000Y-71750000D03*
G04 #@! TO.N,Net-(D16-Pad2)*
X127500000Y-68750000D03*
X127500000Y-65750000D03*
X127500000Y-62750000D03*
X150000000Y-72000000D03*
X150000000Y-68750000D03*
X150000000Y-62750000D03*
X127500000Y-59750000D03*
X150000000Y-59750000D03*
X127500000Y-56375000D03*
X150000000Y-56500000D03*
X127500000Y-73750000D03*
X127500000Y-71750000D03*
G04 #@! TO.N,Net-(D17-Pad2)*
X130000000Y-68750000D03*
X130000000Y-65750000D03*
X130000000Y-62750000D03*
X152500000Y-72000000D03*
X152450000Y-62800000D03*
X152500000Y-65750000D03*
X130000000Y-59750000D03*
X152500000Y-59750000D03*
X130000000Y-55750000D03*
X152500000Y-55750000D03*
X130000000Y-73750000D03*
X130000000Y-71750000D03*
G04 #@! TO.N,Net-(D18-Pad2)*
X132500000Y-68750000D03*
X132500000Y-65750000D03*
X132500000Y-62750000D03*
X155000000Y-68750000D03*
X154999980Y-65750000D03*
X154999980Y-62750000D03*
X132500000Y-59750000D03*
X155000000Y-59750000D03*
X132500000Y-73750000D03*
X132500000Y-71750000D03*
G04 #@! TO.N,Net-(D10-Pad2)*
X109750000Y-62750000D03*
X109750000Y-73500000D03*
X109750000Y-71750000D03*
X109750000Y-68750000D03*
X109750000Y-65750000D03*
X135000000Y-72000000D03*
X135000000Y-68750000D03*
X135000000Y-65750000D03*
X135000000Y-62750000D03*
X135000000Y-59750000D03*
G04 #@! TO.N,D1*
X106750000Y-75500000D03*
X106750000Y-61250000D03*
X112250000Y-75500000D03*
X112250000Y-82250000D03*
G04 #@! TO.N,D2*
X105500000Y-76500000D03*
X105500000Y-64250000D03*
X113750000Y-76500000D03*
X113750000Y-83500000D03*
G04 #@! TO.N,D3*
X104250000Y-77500000D03*
X104250000Y-67250000D03*
X115250000Y-77500000D03*
X115250000Y-84250000D03*
G04 #@! TO.N,D4*
X103000000Y-78750000D03*
X103000000Y-70250000D03*
X117000000Y-78750000D03*
X117000000Y-85250000D03*
G04 #@! TO.N,D5*
X163250000Y-78750000D03*
X163250000Y-58250000D03*
X126000000Y-78750000D03*
X126000000Y-86750000D03*
G04 #@! TO.N,D6*
X161750000Y-77500000D03*
X161750000Y-61250000D03*
X127250000Y-77500000D03*
X127250000Y-86000000D03*
G04 #@! TO.N,D7*
X160250000Y-76500000D03*
X160250000Y-64250000D03*
X127950000Y-76500000D03*
X128000000Y-84750000D03*
G04 #@! TO.N,D8*
X158750000Y-75500000D03*
X158750000Y-67250000D03*
X130250000Y-75500000D03*
X130250000Y-84000000D03*
G04 #@! TO.N,D9*
X157500000Y-74250000D03*
X157500000Y-70250000D03*
X133500000Y-74450000D03*
X133500000Y-84000000D03*
G04 #@! TO.N,RESET*
X119500000Y-79500000D03*
X150500000Y-87500000D03*
X150522642Y-79432065D03*
X124000000Y-79399999D03*
G04 #@! TO.N,SCK*
X152500000Y-80750000D03*
X152500000Y-85000000D03*
G04 #@! TO.N,Net-(SW1-Pad2)*
X118750000Y-91500000D03*
X117750000Y-82750000D03*
G04 #@! TO.N,Net-(SW3-Pad2)*
X146000000Y-83000000D03*
X146000000Y-91000000D03*
G04 #@! TO.N,Net-(SW2-Pad2)*
X119000000Y-83000000D03*
X120750000Y-91500000D03*
G04 #@! TD*
D23*
G04 #@! TO.N,GND*
X121750000Y-84725000D02*
X121750000Y-83250000D01*
X121750000Y-84725000D02*
X121750000Y-85750000D01*
X121750000Y-85750000D02*
X122000000Y-86000000D01*
X132500000Y-89600000D02*
X135850000Y-89600000D01*
X135850000Y-89600000D02*
X136000000Y-89750000D01*
X118975000Y-97250000D02*
X115000000Y-97250000D01*
X111025000Y-97250000D02*
X115000000Y-97250000D01*
X104100000Y-90800000D02*
X104100000Y-92000000D01*
X153975000Y-97250000D02*
X150000000Y-97250000D01*
X146025000Y-97250000D02*
X150000000Y-97250000D01*
X136475000Y-97250000D02*
X132500000Y-97250000D01*
X128525000Y-97250000D02*
X132500000Y-97250000D01*
X161025000Y-87540000D02*
X161025000Y-90225000D01*
X161025000Y-90225000D02*
X161000000Y-90250000D01*
X121000000Y-78950000D02*
X121000000Y-78500000D01*
X121000000Y-78500000D02*
X121500000Y-78000000D01*
X122250000Y-78750000D02*
X121500000Y-78000000D01*
X122250000Y-78950000D02*
X122250000Y-78750000D01*
G04 #@! TO.N,Net-(BZ1-Pad1)*
X123225000Y-82800000D02*
X125449978Y-82800000D01*
X125449978Y-82800000D02*
X125749978Y-82500000D01*
X132450013Y-80949987D02*
X132500000Y-80900000D01*
X125750000Y-80949987D02*
X132450013Y-80949987D01*
G04 #@! TO.N,D0*
X111800000Y-58200000D02*
X131250000Y-58200000D01*
X111250000Y-58200000D02*
X111800000Y-58200000D01*
X111250000Y-58200000D02*
X108050000Y-58200000D01*
X108050000Y-58200000D02*
X108000000Y-58250000D01*
X111200000Y-74500000D02*
X111250000Y-74450000D01*
X109750000Y-74500000D02*
X111200000Y-74500000D01*
X108000000Y-74500000D02*
X109750000Y-74500000D01*
X120850000Y-81535000D02*
X120850000Y-81775000D01*
X119815000Y-80500000D02*
X120850000Y-81535000D01*
X109750000Y-80500000D02*
X119815000Y-80500000D01*
G04 #@! TO.N,Net-(D1-Pad2)*
X112550000Y-65800000D02*
X112500000Y-65750000D01*
X113750000Y-65800000D02*
X112550000Y-65800000D01*
X112550000Y-68800000D02*
X112500000Y-68750000D01*
X113750000Y-68800000D02*
X112550000Y-68800000D01*
X136450000Y-72000000D02*
X136250000Y-71800000D01*
X137500000Y-72000000D02*
X136450000Y-72000000D01*
X137450000Y-68800000D02*
X137500000Y-68750000D01*
X136250000Y-68800000D02*
X137450000Y-68800000D01*
X137450000Y-62800000D02*
X137500000Y-62750000D01*
X136250000Y-62800000D02*
X137450000Y-62800000D01*
X136250000Y-59250000D02*
X136250000Y-59800000D01*
X136000000Y-59000000D02*
X136250000Y-59250000D01*
X111500000Y-59000000D02*
X136000000Y-59000000D01*
X111250000Y-59250000D02*
X111500000Y-59000000D01*
X111250000Y-59800000D02*
X111250000Y-59250000D01*
X111250000Y-59800000D02*
X112450000Y-59800000D01*
X112450000Y-59800000D02*
X112500000Y-59750000D01*
X137450000Y-59800000D02*
X137500000Y-59750000D01*
X136250000Y-59800000D02*
X137450000Y-59800000D01*
X136250000Y-65800000D02*
X137450014Y-65800000D01*
X137450014Y-65800000D02*
X137500000Y-65750014D01*
X113550000Y-73750000D02*
X113750000Y-73550000D01*
X112500000Y-73750000D02*
X113550000Y-73750000D01*
X112550000Y-71800000D02*
X112500000Y-71750000D01*
X113750000Y-71800000D02*
X112550000Y-71800000D01*
G04 #@! TO.N,Net-(D11-Pad2)*
X113750000Y-59800000D02*
X114950000Y-59800000D01*
X114950000Y-59800000D02*
X115000000Y-59750000D01*
X115050000Y-68800000D02*
X115000000Y-68750000D01*
X116250000Y-68800000D02*
X115050000Y-68800000D01*
X114950000Y-62800000D02*
X115000000Y-62750000D01*
X113750000Y-62800000D02*
X114950000Y-62800000D01*
X138950000Y-72000000D02*
X138750000Y-71800000D01*
X140000000Y-72000000D02*
X138950000Y-72000000D01*
X139950000Y-68800000D02*
X140000000Y-68750000D01*
X138750000Y-68800000D02*
X139950000Y-68800000D01*
X139950000Y-65800000D02*
X140000000Y-65750000D01*
X138750000Y-65800000D02*
X139950000Y-65800000D01*
X139950000Y-62800000D02*
X140000000Y-62750000D01*
X138750000Y-62800000D02*
X139950000Y-62800000D01*
X138750000Y-59800000D02*
X139950000Y-59800000D01*
X139950000Y-59800000D02*
X140000000Y-59750000D01*
X138750000Y-69350000D02*
X138750000Y-68800000D01*
X138600000Y-69500000D02*
X138750000Y-69350000D01*
X116400000Y-69500000D02*
X138600000Y-69500000D01*
X116250000Y-68800000D02*
X116250000Y-69350000D01*
X116250000Y-69350000D02*
X116400000Y-69500000D01*
X116050000Y-73750000D02*
X116250000Y-73550000D01*
X115000000Y-73750000D02*
X116050000Y-73750000D01*
X115050000Y-71800000D02*
X115000000Y-71750000D01*
X116250000Y-71800000D02*
X115050000Y-71800000D01*
G04 #@! TO.N,Net-(D12-Pad2)*
X117450000Y-65800000D02*
X117500000Y-65750000D01*
X116250000Y-65800000D02*
X117450000Y-65800000D01*
X117450000Y-62800000D02*
X117500000Y-62750000D01*
X116250000Y-62800000D02*
X117450000Y-62800000D01*
X141450000Y-72000000D02*
X141250000Y-71800000D01*
X142500000Y-72000000D02*
X141450000Y-72000000D01*
X141250000Y-68800000D02*
X142450000Y-68800000D01*
X142450000Y-68800000D02*
X142500000Y-68750000D01*
X142450000Y-65800000D02*
X142500000Y-65750000D01*
X141250000Y-65800000D02*
X142450000Y-65800000D01*
X142450000Y-62800000D02*
X142500000Y-62750000D01*
X141250000Y-62800000D02*
X142450000Y-62800000D01*
X116250000Y-59800000D02*
X117450000Y-59800000D01*
X117450000Y-59800000D02*
X117500000Y-59750000D01*
X142450000Y-59800000D02*
X142500000Y-59750000D01*
X141250000Y-59800000D02*
X142450000Y-59800000D01*
X118550000Y-73750000D02*
X118750000Y-73550000D01*
X117500000Y-73750000D02*
X118550000Y-73750000D01*
X141750000Y-72750000D02*
X142500000Y-72000000D01*
X119150000Y-72750000D02*
X141750000Y-72750000D01*
X118750000Y-71800000D02*
X118750000Y-72350000D01*
X118750000Y-72350000D02*
X119150000Y-72750000D01*
X118750000Y-71800000D02*
X117550000Y-71800000D01*
X117550000Y-71800000D02*
X117500000Y-71750000D01*
G04 #@! TO.N,Net-(D13-Pad2)*
X118950000Y-76550000D02*
X118750000Y-76550000D01*
X120000000Y-75500000D02*
X118950000Y-76550000D01*
X119950000Y-62800000D02*
X120000000Y-62750000D01*
X118750000Y-62800000D02*
X119950000Y-62800000D01*
X119950000Y-65800000D02*
X120000000Y-65750000D01*
X118750000Y-65800000D02*
X119950000Y-65800000D01*
X119950000Y-68800000D02*
X120000000Y-68750000D01*
X118750000Y-68800000D02*
X119950000Y-68800000D01*
X143950000Y-72000000D02*
X143750000Y-71800000D01*
X145000000Y-72000000D02*
X143950000Y-72000000D01*
X144950000Y-68800000D02*
X145000000Y-68750000D01*
X143750000Y-68800000D02*
X144950000Y-68800000D01*
X144950000Y-62800000D02*
X145000000Y-62750000D01*
X143750000Y-62800000D02*
X144950000Y-62800000D01*
X118750000Y-59800000D02*
X119949990Y-59800000D01*
X119949990Y-59800000D02*
X119999990Y-59750000D01*
X144950000Y-59800000D02*
X145000000Y-59750000D01*
X143750000Y-59800000D02*
X144950000Y-59800000D01*
X144949999Y-65800000D02*
X145000000Y-65749999D01*
X143750000Y-65800000D02*
X144949999Y-65800000D01*
X119999990Y-59750000D02*
X120749990Y-60500000D01*
X143750000Y-60350000D02*
X143750000Y-59800000D01*
X143600000Y-60500000D02*
X143750000Y-60350000D01*
X120749990Y-60500000D02*
X143600000Y-60500000D01*
G04 #@! TO.N,Net-(D14-Pad2)*
X122450000Y-68800000D02*
X122500000Y-68750000D01*
X121250000Y-68800000D02*
X122450000Y-68800000D01*
X122450000Y-65800000D02*
X122500000Y-65750000D01*
X121250000Y-65800000D02*
X122450000Y-65800000D01*
X122450000Y-62800000D02*
X122500000Y-62750000D01*
X121250000Y-62800000D02*
X122450000Y-62800000D01*
X121250000Y-59800000D02*
X122450000Y-59800000D01*
X122450000Y-59800000D02*
X122500000Y-59750000D01*
X146250000Y-63350000D02*
X146250000Y-62800000D01*
X146100000Y-63500000D02*
X146250000Y-63350000D01*
X122684315Y-63500000D02*
X146100000Y-63500000D01*
X122500000Y-63315685D02*
X122684315Y-63500000D01*
X122500000Y-62750000D02*
X122500000Y-63315685D01*
X155500000Y-65000000D02*
X146500000Y-65000000D01*
X146250000Y-62800000D02*
X146800000Y-62800000D01*
X147600000Y-62000000D02*
X155174982Y-62000000D01*
X146250000Y-65250000D02*
X146250000Y-65800000D01*
X146500000Y-65000000D02*
X146250000Y-65250000D01*
X146800000Y-62800000D02*
X147600000Y-62000000D01*
X146500000Y-68000000D02*
X155500000Y-68000000D01*
X146250000Y-68800000D02*
X146250000Y-68250000D01*
X146250000Y-68250000D02*
X146500000Y-68000000D01*
X146250000Y-71250000D02*
X146500000Y-71000000D01*
X146250000Y-71800000D02*
X146250000Y-71250000D01*
X146500000Y-71000000D02*
X155500000Y-71000000D01*
X121450000Y-73750000D02*
X121250000Y-73550000D01*
X122500000Y-73750000D02*
X121450000Y-73750000D01*
X122450000Y-71800000D02*
X122500000Y-71750000D01*
X121250000Y-71800000D02*
X122450000Y-71800000D01*
X155174982Y-62000000D02*
X156250000Y-62000000D01*
X156250000Y-71000000D02*
X155500000Y-71000000D01*
X155500000Y-68000000D02*
X156250000Y-68000000D01*
X155500000Y-65000000D02*
X156250000Y-65000000D01*
G04 #@! TO.N,Net-(D15-Pad2)*
X124950000Y-62800000D02*
X125000000Y-62750000D01*
X123750000Y-62800000D02*
X124950000Y-62800000D01*
X124950000Y-65800000D02*
X125000000Y-65750000D01*
X123750000Y-65800000D02*
X124950000Y-65800000D01*
X124950000Y-68800000D02*
X125000000Y-68750000D01*
X123750000Y-68800000D02*
X124950000Y-68800000D01*
X148550000Y-72000000D02*
X148750000Y-71800000D01*
X147500000Y-72000000D02*
X148550000Y-72000000D01*
X147550000Y-68800000D02*
X147500000Y-68750000D01*
X148750000Y-68800000D02*
X147550000Y-68800000D01*
X147550000Y-65800000D02*
X147500000Y-65750000D01*
X148750000Y-65800000D02*
X147550000Y-65800000D01*
X124950000Y-59800000D02*
X125000000Y-59750000D01*
X123750000Y-59800000D02*
X124950000Y-59800000D01*
X146250000Y-59800000D02*
X147450000Y-59800000D01*
X147450000Y-59800000D02*
X147500000Y-59750000D01*
X125000000Y-57000000D02*
X146000000Y-57000000D01*
X146000000Y-57000000D02*
X147500000Y-57000000D01*
X123950000Y-73750000D02*
X123750000Y-73550000D01*
X125000000Y-73750000D02*
X123950000Y-73750000D01*
X124950000Y-71800000D02*
X125000000Y-71750000D01*
X123750000Y-71800000D02*
X124950000Y-71800000D01*
G04 #@! TO.N,Net-(D16-Pad2)*
X127450000Y-68800000D02*
X127500000Y-68750000D01*
X126250000Y-68800000D02*
X127450000Y-68800000D01*
X127450000Y-65800000D02*
X127500000Y-65750000D01*
X126250000Y-65800000D02*
X127450000Y-65800000D01*
X127450000Y-62800000D02*
X127500000Y-62750000D01*
X126250000Y-62800000D02*
X127450000Y-62800000D01*
X151050000Y-72000000D02*
X151250000Y-71800000D01*
X150000000Y-72000000D02*
X151050000Y-72000000D01*
X150050000Y-68800000D02*
X150000000Y-68750000D01*
X151250000Y-68800000D02*
X150050000Y-68800000D01*
X148750000Y-62800000D02*
X149950000Y-62800000D01*
X149950000Y-62800000D02*
X150000000Y-62750000D01*
X127450000Y-59800000D02*
X127500000Y-59750000D01*
X126250000Y-59800000D02*
X127450000Y-59800000D01*
X149950000Y-59800000D02*
X150000000Y-59750000D01*
X148750000Y-59800000D02*
X149950000Y-59800000D01*
X127500000Y-56375000D02*
X149875000Y-56375000D01*
X149875000Y-56375000D02*
X150000000Y-56500000D01*
X126450000Y-73750000D02*
X126250000Y-73550000D01*
X127500000Y-73750000D02*
X126450000Y-73750000D01*
X127450000Y-71800000D02*
X127500000Y-71750000D01*
X126250000Y-71800000D02*
X127450000Y-71800000D01*
G04 #@! TO.N,Net-(D17-Pad2)*
X129950000Y-68800000D02*
X130000000Y-68750000D01*
X128750000Y-68800000D02*
X129950000Y-68800000D01*
X129950000Y-65800000D02*
X130000000Y-65750000D01*
X128750000Y-65800000D02*
X129950000Y-65800000D01*
X128750000Y-62800000D02*
X129950000Y-62800000D01*
X129950000Y-62800000D02*
X130000000Y-62750000D01*
X153550000Y-72000000D02*
X153750000Y-71800000D01*
X152500000Y-72000000D02*
X153550000Y-72000000D01*
X151250000Y-62800000D02*
X152450000Y-62800000D01*
X152450000Y-65800000D02*
X152500000Y-65750000D01*
X151250000Y-65800000D02*
X152450000Y-65800000D01*
X129950000Y-59800000D02*
X130000000Y-59750000D01*
X128750000Y-59800000D02*
X129950000Y-59800000D01*
X152450000Y-59800000D02*
X152500000Y-59750000D01*
X151250000Y-59800000D02*
X152450000Y-59800000D01*
X130000000Y-55750000D02*
X152500000Y-55750000D01*
X128950000Y-73750000D02*
X128750000Y-73550000D01*
X130000000Y-73750000D02*
X128950000Y-73750000D01*
X129950000Y-71800000D02*
X130000000Y-71750000D01*
X128750000Y-71800000D02*
X129950000Y-71800000D01*
G04 #@! TO.N,Net-(D18-Pad2)*
X132450000Y-68800000D02*
X132500000Y-68750000D01*
X131250000Y-68800000D02*
X132450000Y-68800000D01*
X132450000Y-65800000D02*
X132500000Y-65750000D01*
X131250000Y-65800000D02*
X132450000Y-65800000D01*
X131250000Y-62800000D02*
X132450000Y-62800000D01*
X132450000Y-62800000D02*
X132500000Y-62750000D01*
X153800000Y-68750000D02*
X153750000Y-68800000D01*
X155000000Y-68750000D02*
X153800000Y-68750000D01*
X154949980Y-65800000D02*
X154999980Y-65750000D01*
X153750000Y-65800000D02*
X154949980Y-65800000D01*
X154949980Y-62800000D02*
X154999980Y-62750000D01*
X153750000Y-62800000D02*
X154949980Y-62800000D01*
X132450000Y-59800000D02*
X132500000Y-59750000D01*
X131250000Y-59800000D02*
X132450000Y-59800000D01*
X153750000Y-59800000D02*
X154950000Y-59800000D01*
X154950000Y-59800000D02*
X155000000Y-59750000D01*
X153750000Y-66350000D02*
X153750000Y-65800000D01*
X153600000Y-66500000D02*
X153750000Y-66350000D01*
X133244998Y-66500000D02*
X153600000Y-66500000D01*
X132899999Y-66155001D02*
X133244998Y-66500000D01*
X132899999Y-66149999D02*
X132899999Y-66155001D01*
X132500000Y-65750000D02*
X132899999Y-66149999D01*
X131450000Y-73750000D02*
X131250000Y-73550000D01*
X132500000Y-73750000D02*
X131450000Y-73750000D01*
X131250000Y-71800000D02*
X132450000Y-71800000D01*
X132450000Y-71800000D02*
X132500000Y-71750000D01*
G04 #@! TO.N,Net-(D10-Pad2)*
X111250000Y-62800000D02*
X109800000Y-62800000D01*
X109800000Y-62800000D02*
X109750000Y-62750000D01*
X111200000Y-73500000D02*
X111250000Y-73550000D01*
X109750000Y-73500000D02*
X111200000Y-73500000D01*
X109800000Y-71800000D02*
X109750000Y-71750000D01*
X111250000Y-71800000D02*
X109800000Y-71800000D01*
X109800000Y-68800000D02*
X109750000Y-68750000D01*
X111250000Y-68800000D02*
X109800000Y-68800000D01*
X109800000Y-65800000D02*
X109750000Y-65750000D01*
X111250000Y-65800000D02*
X109800000Y-65800000D01*
X133950000Y-72000000D02*
X133750000Y-71800000D01*
X135000000Y-72000000D02*
X133950000Y-72000000D01*
X134950000Y-68800000D02*
X135000000Y-68750000D01*
X133750000Y-68800000D02*
X134950000Y-68800000D01*
X134950000Y-65800000D02*
X135000000Y-65750000D01*
X133750000Y-65800000D02*
X134950000Y-65800000D01*
X134950000Y-62800000D02*
X135000000Y-62750000D01*
X133750000Y-62800000D02*
X134950000Y-62800000D01*
X133750000Y-62250000D02*
X133750000Y-62800000D01*
X133500000Y-62000000D02*
X133750000Y-62250000D01*
X111500000Y-62000000D02*
X133500000Y-62000000D01*
X111250000Y-62250000D02*
X111500000Y-62000000D01*
X111250000Y-62800000D02*
X111250000Y-62250000D01*
X133750000Y-65250000D02*
X133750000Y-65800000D01*
X133500000Y-65000000D02*
X133750000Y-65250000D01*
X111500000Y-65000000D02*
X133500000Y-65000000D01*
X111250000Y-65250000D02*
X111500000Y-65000000D01*
X111250000Y-65800000D02*
X111250000Y-65250000D01*
X133750000Y-68250000D02*
X133750000Y-68800000D01*
X133500000Y-68000000D02*
X133750000Y-68250000D01*
X111500000Y-68000000D02*
X133500000Y-68000000D01*
X111250000Y-68250000D02*
X111500000Y-68000000D01*
X111250000Y-68800000D02*
X111250000Y-68250000D01*
X133750000Y-71250000D02*
X133750000Y-71800000D01*
X133500000Y-71000000D02*
X133750000Y-71250000D01*
X111500000Y-71000000D02*
X133500000Y-71000000D01*
X111250000Y-71250000D02*
X111500000Y-71000000D01*
X111250000Y-71800000D02*
X111250000Y-71250000D01*
X133750000Y-59800000D02*
X134950000Y-59800000D01*
X134950000Y-59800000D02*
X135000000Y-59750000D01*
G04 #@! TO.N,D1*
X111250000Y-61200000D02*
X131250000Y-61200000D01*
X112250000Y-75500000D02*
X106750000Y-75500000D01*
X113750000Y-74450000D02*
X113300000Y-74450000D01*
X113300000Y-74450000D02*
X112250000Y-75500000D01*
X111200000Y-61250000D02*
X111250000Y-61200000D01*
X106750000Y-61250000D02*
X111200000Y-61250000D01*
X120275000Y-82090000D02*
X120275000Y-82350000D01*
X112649999Y-81850001D02*
X120035001Y-81850001D01*
X120035001Y-81850001D02*
X120275000Y-82090000D01*
X112250000Y-82250000D02*
X112649999Y-81850001D01*
G04 #@! TO.N,D2*
X111250000Y-64200000D02*
X131250000Y-64200000D01*
X106065685Y-76500000D02*
X105500000Y-76500000D01*
X113750000Y-76500000D02*
X106065685Y-76500000D01*
X111200000Y-64250000D02*
X111250000Y-64200000D01*
X105500000Y-64250000D02*
X111200000Y-64250000D01*
X119775000Y-83700000D02*
X120275000Y-83700000D01*
X115625002Y-83700000D02*
X119775000Y-83700000D01*
X115425002Y-83500000D02*
X115625002Y-83700000D01*
X113750000Y-83500000D02*
X115425002Y-83500000D01*
X116250000Y-74450000D02*
X115800000Y-74450000D01*
X115800000Y-74450000D02*
X113750000Y-76500000D01*
G04 #@! TO.N,D3*
X111250000Y-67200000D02*
X131250000Y-67200000D01*
X115250000Y-77500000D02*
X104250000Y-77500000D01*
X118750000Y-74450000D02*
X118300000Y-74450000D01*
X111200000Y-67250000D02*
X111250000Y-67200000D01*
X104250000Y-67250000D02*
X111200000Y-67250000D01*
X120175000Y-84250000D02*
X120275000Y-84150000D01*
X115250000Y-84250000D02*
X120175000Y-84250000D01*
X118300000Y-74450000D02*
X115250000Y-77500000D01*
G04 #@! TO.N,D4*
X111250000Y-70200000D02*
X131250000Y-70200000D01*
X117000000Y-78750000D02*
X103565685Y-78750000D01*
X103565685Y-78750000D02*
X103000000Y-78750000D01*
X118750000Y-77450000D02*
X118300000Y-77450000D01*
X111200000Y-70250000D02*
X111250000Y-70200000D01*
X103000000Y-70250000D02*
X111200000Y-70250000D01*
X120850000Y-84965000D02*
X120850000Y-84725000D01*
X120565000Y-85250000D02*
X120850000Y-84965000D01*
X117000000Y-85250000D02*
X120565000Y-85250000D01*
X118300000Y-77450000D02*
X117000000Y-78750000D01*
G04 #@! TO.N,D5*
X133750000Y-58200000D02*
X153750000Y-58200000D01*
X126000000Y-78750000D02*
X163250000Y-78750000D01*
X121250000Y-74450000D02*
X121700000Y-74450000D01*
X121700000Y-74450000D02*
X126000000Y-78750000D01*
X153800000Y-58250000D02*
X153750000Y-58200000D01*
X163250000Y-58250000D02*
X153800000Y-58250000D01*
X126000000Y-86750000D02*
X121750000Y-86750000D01*
X121300000Y-86300000D02*
X121300000Y-84725000D01*
X121750000Y-86750000D02*
X121300000Y-86300000D01*
G04 #@! TO.N,D6*
X133750000Y-61200000D02*
X153750000Y-61200000D01*
X127250000Y-77500000D02*
X161750000Y-77500000D01*
X123750000Y-74450000D02*
X124200000Y-74450000D01*
X124200000Y-74450000D02*
X127250000Y-77500000D01*
X153800000Y-61250000D02*
X153750000Y-61200000D01*
X161750000Y-61250000D02*
X153800000Y-61250000D01*
X122200000Y-85225000D02*
X122200000Y-84725000D01*
X122975000Y-86000000D02*
X122200000Y-85225000D01*
X127250000Y-86000000D02*
X122975000Y-86000000D01*
G04 #@! TO.N,D7*
X133750000Y-64200000D02*
X153750000Y-64200000D01*
X126250000Y-74800000D02*
X127950000Y-76500000D01*
X126250000Y-74450000D02*
X126250000Y-74800000D01*
X127950000Y-76500000D02*
X160250000Y-76500000D01*
X153800000Y-64250000D02*
X153750000Y-64200000D01*
X160250000Y-64250000D02*
X153800000Y-64250000D01*
X122675000Y-84750000D02*
X122650000Y-84725000D01*
X128000000Y-84750000D02*
X122675000Y-84750000D01*
G04 #@! TO.N,D8*
X133750000Y-67200000D02*
X153750000Y-67200000D01*
X130250000Y-75500000D02*
X158750000Y-75500000D01*
X128750000Y-74450000D02*
X129200000Y-74450000D01*
X129200000Y-74450000D02*
X130250000Y-75500000D01*
X153800000Y-67250000D02*
X153750000Y-67200000D01*
X158750000Y-67250000D02*
X153800000Y-67250000D01*
X130250000Y-84000000D02*
X127500000Y-84000000D01*
X127350000Y-84150000D02*
X123225000Y-84150000D01*
X127500000Y-84000000D02*
X127350000Y-84150000D01*
G04 #@! TO.N,D9*
X133750000Y-70200000D02*
X153750000Y-70200000D01*
X157300000Y-74450000D02*
X157500000Y-74250000D01*
X153800000Y-70250000D02*
X153750000Y-70200000D01*
X157500000Y-70250000D02*
X153800000Y-70250000D01*
X133500000Y-74450000D02*
X157300000Y-74450000D01*
X131250000Y-74450000D02*
X133500000Y-74450000D01*
X132850001Y-83350001D02*
X133100001Y-83600001D01*
X127399999Y-83350001D02*
X132850001Y-83350001D01*
X127050000Y-83700000D02*
X127399999Y-83350001D01*
X123225000Y-83700000D02*
X127050000Y-83700000D01*
X133100001Y-83600001D02*
X133500000Y-84000000D01*
G04 #@! TO.N,RESET*
X119525000Y-79500000D02*
X119500000Y-79500000D01*
X121300000Y-81775000D02*
X121300000Y-81275000D01*
X121300000Y-81275000D02*
X119525000Y-79500000D01*
X154250000Y-87540000D02*
X154210000Y-87500000D01*
X155975000Y-87540000D02*
X154250000Y-87540000D01*
X154210000Y-87500000D02*
X150500000Y-87500000D01*
X154823337Y-79500000D02*
X125000000Y-79500000D01*
X149956957Y-79432065D02*
X149889022Y-79500000D01*
X150522642Y-79432065D02*
X149956957Y-79432065D01*
X124000000Y-79399999D02*
X124899999Y-79399999D01*
X124899999Y-79399999D02*
X125000000Y-79500000D01*
G04 #@! TO.N,MOSI*
X159300000Y-85000000D02*
X161025000Y-85000000D01*
X153384998Y-82350000D02*
X154784998Y-83750000D01*
X124224996Y-82350000D02*
X124699998Y-81874998D01*
X124699998Y-81874998D02*
X126300002Y-81874998D01*
X123225000Y-82350000D02*
X124224996Y-82350000D01*
X126775004Y-82350000D02*
X153384998Y-82350000D01*
X154784998Y-83750000D02*
X158050000Y-83750000D01*
X126300002Y-81874998D02*
X126775004Y-82350000D01*
X158050000Y-83750000D02*
X159300000Y-85000000D01*
G04 #@! TO.N,SCK*
X151050020Y-80750000D02*
X152500000Y-80750000D01*
X150325019Y-80024999D02*
X151050020Y-80750000D01*
X123450001Y-80024999D02*
X150325019Y-80024999D01*
X122200000Y-81775000D02*
X122200000Y-81275000D01*
X122200000Y-81275000D02*
X123450001Y-80024999D01*
X152500000Y-85000000D02*
X155975000Y-85000000D01*
G04 #@! TO.N,+5V*
X121750000Y-81275000D02*
X122250000Y-80775000D01*
X121750000Y-81775000D02*
X121750000Y-81275000D01*
X122250000Y-80775000D02*
X122250000Y-80500000D01*
X122250000Y-80500000D02*
X122250000Y-80050000D01*
X121750000Y-80850000D02*
X121750000Y-81275000D01*
X121000000Y-80100000D02*
X121750000Y-80850000D01*
X121000000Y-80050000D02*
X121000000Y-80100000D01*
X120600000Y-80050000D02*
X120250000Y-79700000D01*
X121000000Y-80050000D02*
X120600000Y-80050000D01*
X120250000Y-79700000D02*
X120250000Y-78750000D01*
G04 #@! TO.N,MISO*
X124575730Y-81574987D02*
X124375718Y-81775000D01*
X155975000Y-82460000D02*
X154900000Y-82460000D01*
X126659282Y-81810000D02*
X126600013Y-81750730D01*
X122910000Y-81775000D02*
X122650000Y-81775000D01*
X126424270Y-81574987D02*
X124575730Y-81574987D01*
X154250000Y-81810000D02*
X126659282Y-81810000D01*
X154900000Y-82460000D02*
X154250000Y-81810000D01*
X124375718Y-81775000D02*
X122910000Y-81775000D01*
X126600013Y-81750730D02*
X126424270Y-81574987D01*
G04 #@! TO.N,Net-(SW1-Pad2)*
X118975000Y-92750000D02*
X118975000Y-91725000D01*
X118975000Y-91725000D02*
X118750000Y-91500000D01*
X118250000Y-82250000D02*
X117750000Y-82750000D01*
X119309998Y-82250000D02*
X118250000Y-82250000D01*
X119809998Y-82750000D02*
X119309998Y-82250000D01*
X120275000Y-82800000D02*
X120225000Y-82750000D01*
X120225000Y-82750000D02*
X119809998Y-82750000D01*
X111025000Y-92750000D02*
X118975000Y-92750000D01*
G04 #@! TO.N,Net-(SW3-Pad2)*
X123225000Y-83250000D02*
X126250000Y-83250000D01*
X126450008Y-83049992D02*
X134049992Y-83049992D01*
X126250000Y-83250000D02*
X126450008Y-83049992D01*
X134049992Y-83049992D02*
X145950008Y-83049992D01*
X145950008Y-83049992D02*
X146000000Y-83000000D01*
X146000000Y-92725000D02*
X146025000Y-92750000D01*
X146000000Y-91000000D02*
X146000000Y-92725000D01*
X146025000Y-92750000D02*
X153975000Y-92750000D01*
G04 #@! TO.N,Net-(SW2-Pad2)*
X120275000Y-83250000D02*
X119250000Y-83250000D01*
X119250000Y-83250000D02*
X119000000Y-83000000D01*
X122000000Y-92750000D02*
X128525000Y-92750000D01*
X120750000Y-91500000D02*
X122000000Y-92750000D01*
X128525000Y-92750000D02*
X136475000Y-92750000D01*
G04 #@! TD*
D24*
G04 #@! TO.N,+5V*
G36*
X129406568Y-55353482D02*
X129300000Y-55610761D01*
X129300000Y-55889239D01*
X129345879Y-56000000D01*
X128102345Y-56000000D01*
X128093432Y-55978482D01*
X127896518Y-55781568D01*
X127639239Y-55675000D01*
X127360761Y-55675000D01*
X127103482Y-55781568D01*
X126906568Y-55978482D01*
X126800000Y-56235761D01*
X126800000Y-56514239D01*
X126845879Y-56625000D01*
X125602345Y-56625000D01*
X125593432Y-56603482D01*
X125396518Y-56406568D01*
X125139239Y-56300000D01*
X124860761Y-56300000D01*
X124603482Y-56406568D01*
X124406568Y-56603482D01*
X124300000Y-56860761D01*
X124300000Y-57139239D01*
X124406568Y-57396518D01*
X124603482Y-57593432D01*
X124860761Y-57700000D01*
X125139239Y-57700000D01*
X125396518Y-57593432D01*
X125593432Y-57396518D01*
X125602345Y-57375000D01*
X146897655Y-57375000D01*
X146906568Y-57396518D01*
X147103482Y-57593432D01*
X147360761Y-57700000D01*
X147639239Y-57700000D01*
X147896518Y-57593432D01*
X148093432Y-57396518D01*
X148200000Y-57139239D01*
X148200000Y-56860761D01*
X148154121Y-56750000D01*
X149345879Y-56750000D01*
X149406568Y-56896518D01*
X149603482Y-57093432D01*
X149860761Y-57200000D01*
X150139239Y-57200000D01*
X150396518Y-57093432D01*
X150593432Y-56896518D01*
X150700000Y-56639239D01*
X150700000Y-56360761D01*
X150602345Y-56125000D01*
X151897655Y-56125000D01*
X151906568Y-56146518D01*
X152103482Y-56343432D01*
X152360761Y-56450000D01*
X152639239Y-56450000D01*
X152896518Y-56343432D01*
X153093432Y-56146518D01*
X153200000Y-55889239D01*
X153200000Y-55610761D01*
X153093432Y-55353482D01*
X153089950Y-55350000D01*
X164650000Y-55350000D01*
X164650000Y-99650000D01*
X100350000Y-99650000D01*
X100350000Y-96600000D01*
X109944123Y-96600000D01*
X109944123Y-97900000D01*
X109967407Y-98017054D01*
X110033712Y-98116288D01*
X110132946Y-98182593D01*
X110250000Y-98205877D01*
X111800000Y-98205877D01*
X111917054Y-98182593D01*
X112016288Y-98116288D01*
X112082593Y-98017054D01*
X112105877Y-97900000D01*
X112105877Y-97625000D01*
X114397655Y-97625000D01*
X114406568Y-97646518D01*
X114603482Y-97843432D01*
X114860761Y-97950000D01*
X115139239Y-97950000D01*
X115396518Y-97843432D01*
X115593432Y-97646518D01*
X115602345Y-97625000D01*
X117894123Y-97625000D01*
X117894123Y-97900000D01*
X117917407Y-98017054D01*
X117983712Y-98116288D01*
X118082946Y-98182593D01*
X118200000Y-98205877D01*
X119750000Y-98205877D01*
X119867054Y-98182593D01*
X119966288Y-98116288D01*
X120032593Y-98017054D01*
X120055877Y-97900000D01*
X120055877Y-96600000D01*
X127444123Y-96600000D01*
X127444123Y-97900000D01*
X127467407Y-98017054D01*
X127533712Y-98116288D01*
X127632946Y-98182593D01*
X127750000Y-98205877D01*
X129300000Y-98205877D01*
X129417054Y-98182593D01*
X129516288Y-98116288D01*
X129582593Y-98017054D01*
X129605877Y-97900000D01*
X129605877Y-97625000D01*
X131897655Y-97625000D01*
X131906568Y-97646518D01*
X132103482Y-97843432D01*
X132360761Y-97950000D01*
X132639239Y-97950000D01*
X132896518Y-97843432D01*
X133093432Y-97646518D01*
X133102345Y-97625000D01*
X135394123Y-97625000D01*
X135394123Y-97900000D01*
X135417407Y-98017054D01*
X135483712Y-98116288D01*
X135582946Y-98182593D01*
X135700000Y-98205877D01*
X137250000Y-98205877D01*
X137367054Y-98182593D01*
X137466288Y-98116288D01*
X137532593Y-98017054D01*
X137555877Y-97900000D01*
X137555877Y-96600000D01*
X144944123Y-96600000D01*
X144944123Y-97900000D01*
X144967407Y-98017054D01*
X145033712Y-98116288D01*
X145132946Y-98182593D01*
X145250000Y-98205877D01*
X146800000Y-98205877D01*
X146917054Y-98182593D01*
X147016288Y-98116288D01*
X147082593Y-98017054D01*
X147105877Y-97900000D01*
X147105877Y-97625000D01*
X149397655Y-97625000D01*
X149406568Y-97646518D01*
X149603482Y-97843432D01*
X149860761Y-97950000D01*
X150139239Y-97950000D01*
X150396518Y-97843432D01*
X150593432Y-97646518D01*
X150602345Y-97625000D01*
X152894123Y-97625000D01*
X152894123Y-97900000D01*
X152917407Y-98017054D01*
X152983712Y-98116288D01*
X153082946Y-98182593D01*
X153200000Y-98205877D01*
X154750000Y-98205877D01*
X154867054Y-98182593D01*
X154966288Y-98116288D01*
X155032593Y-98017054D01*
X155055877Y-97900000D01*
X155055877Y-96600000D01*
X155032593Y-96482946D01*
X154966288Y-96383712D01*
X154867054Y-96317407D01*
X154750000Y-96294123D01*
X153200000Y-96294123D01*
X153082946Y-96317407D01*
X152983712Y-96383712D01*
X152917407Y-96482946D01*
X152894123Y-96600000D01*
X152894123Y-96875000D01*
X150602345Y-96875000D01*
X150593432Y-96853482D01*
X150396518Y-96656568D01*
X150139239Y-96550000D01*
X149860761Y-96550000D01*
X149603482Y-96656568D01*
X149406568Y-96853482D01*
X149397655Y-96875000D01*
X147105877Y-96875000D01*
X147105877Y-96600000D01*
X147082593Y-96482946D01*
X147016288Y-96383712D01*
X146917054Y-96317407D01*
X146800000Y-96294123D01*
X145250000Y-96294123D01*
X145132946Y-96317407D01*
X145033712Y-96383712D01*
X144967407Y-96482946D01*
X144944123Y-96600000D01*
X137555877Y-96600000D01*
X137532593Y-96482946D01*
X137466288Y-96383712D01*
X137367054Y-96317407D01*
X137250000Y-96294123D01*
X135700000Y-96294123D01*
X135582946Y-96317407D01*
X135483712Y-96383712D01*
X135417407Y-96482946D01*
X135394123Y-96600000D01*
X135394123Y-96875000D01*
X133102345Y-96875000D01*
X133093432Y-96853482D01*
X132896518Y-96656568D01*
X132639239Y-96550000D01*
X132360761Y-96550000D01*
X132103482Y-96656568D01*
X131906568Y-96853482D01*
X131897655Y-96875000D01*
X129605877Y-96875000D01*
X129605877Y-96600000D01*
X129582593Y-96482946D01*
X129516288Y-96383712D01*
X129417054Y-96317407D01*
X129300000Y-96294123D01*
X127750000Y-96294123D01*
X127632946Y-96317407D01*
X127533712Y-96383712D01*
X127467407Y-96482946D01*
X127444123Y-96600000D01*
X120055877Y-96600000D01*
X120032593Y-96482946D01*
X119966288Y-96383712D01*
X119867054Y-96317407D01*
X119750000Y-96294123D01*
X118200000Y-96294123D01*
X118082946Y-96317407D01*
X117983712Y-96383712D01*
X117917407Y-96482946D01*
X117894123Y-96600000D01*
X117894123Y-96875000D01*
X115602345Y-96875000D01*
X115593432Y-96853482D01*
X115396518Y-96656568D01*
X115139239Y-96550000D01*
X114860761Y-96550000D01*
X114603482Y-96656568D01*
X114406568Y-96853482D01*
X114397655Y-96875000D01*
X112105877Y-96875000D01*
X112105877Y-96600000D01*
X112082593Y-96482946D01*
X112016288Y-96383712D01*
X111917054Y-96317407D01*
X111800000Y-96294123D01*
X110250000Y-96294123D01*
X110132946Y-96317407D01*
X110033712Y-96383712D01*
X109967407Y-96482946D01*
X109944123Y-96600000D01*
X100350000Y-96600000D01*
X100350000Y-93204473D01*
X100371417Y-93312144D01*
X100548233Y-93576767D01*
X100812856Y-93753583D01*
X101046211Y-93800000D01*
X101753789Y-93800000D01*
X101987144Y-93753583D01*
X102251767Y-93576767D01*
X102428583Y-93312144D01*
X102490672Y-93000000D01*
X102428583Y-92687856D01*
X102251767Y-92423233D01*
X101987144Y-92246417D01*
X101753789Y-92200000D01*
X101046211Y-92200000D01*
X100812856Y-92246417D01*
X100548233Y-92423233D01*
X100371417Y-92687856D01*
X100350000Y-92795527D01*
X100350000Y-88452000D01*
X102817000Y-88452000D01*
X102817000Y-88520938D01*
X102909562Y-88744404D01*
X103080595Y-88915437D01*
X103119123Y-88931396D01*
X103119123Y-89050000D01*
X103142407Y-89167054D01*
X103147716Y-89175000D01*
X103142407Y-89182946D01*
X103119123Y-89300000D01*
X103119123Y-89700000D01*
X103142407Y-89817054D01*
X103147716Y-89825000D01*
X103142407Y-89832946D01*
X103119123Y-89950000D01*
X103119123Y-90350000D01*
X103142407Y-90467054D01*
X103147716Y-90475000D01*
X103142407Y-90482946D01*
X103119123Y-90600000D01*
X103119123Y-91000000D01*
X103142407Y-91117054D01*
X103208712Y-91216288D01*
X103307946Y-91282593D01*
X103425000Y-91305877D01*
X103531487Y-91305877D01*
X103369966Y-91547611D01*
X103325000Y-91773671D01*
X103325000Y-92226330D01*
X103369966Y-92452390D01*
X103541256Y-92708744D01*
X103797611Y-92880034D01*
X104100000Y-92940183D01*
X104402390Y-92880034D01*
X104658744Y-92708744D01*
X104830034Y-92452390D01*
X104875000Y-92226329D01*
X104875000Y-92100000D01*
X109944123Y-92100000D01*
X109944123Y-93400000D01*
X109967407Y-93517054D01*
X110033712Y-93616288D01*
X110132946Y-93682593D01*
X110250000Y-93705877D01*
X111800000Y-93705877D01*
X111917054Y-93682593D01*
X112016288Y-93616288D01*
X112082593Y-93517054D01*
X112105877Y-93400000D01*
X112105877Y-93125000D01*
X117894123Y-93125000D01*
X117894123Y-93400000D01*
X117917407Y-93517054D01*
X117983712Y-93616288D01*
X118082946Y-93682593D01*
X118200000Y-93705877D01*
X119750000Y-93705877D01*
X119867054Y-93682593D01*
X119966288Y-93616288D01*
X120032593Y-93517054D01*
X120055877Y-93400000D01*
X120055877Y-92100000D01*
X120032593Y-91982946D01*
X119966288Y-91883712D01*
X119867054Y-91817407D01*
X119750000Y-91794123D01*
X119385845Y-91794123D01*
X119450000Y-91639239D01*
X119450000Y-91360761D01*
X120050000Y-91360761D01*
X120050000Y-91639239D01*
X120156568Y-91896518D01*
X120353482Y-92093432D01*
X120610761Y-92200000D01*
X120889239Y-92200000D01*
X120910757Y-92191087D01*
X121708722Y-92989052D01*
X121729641Y-93020359D01*
X121760948Y-93041278D01*
X121760949Y-93041279D01*
X121853681Y-93103241D01*
X121853682Y-93103241D01*
X121853683Y-93103242D01*
X121963069Y-93125000D01*
X121963073Y-93125000D01*
X122000000Y-93132345D01*
X122036926Y-93125000D01*
X127444123Y-93125000D01*
X127444123Y-93400000D01*
X127467407Y-93517054D01*
X127533712Y-93616288D01*
X127632946Y-93682593D01*
X127750000Y-93705877D01*
X129300000Y-93705877D01*
X129417054Y-93682593D01*
X129516288Y-93616288D01*
X129582593Y-93517054D01*
X129605877Y-93400000D01*
X129605877Y-93125000D01*
X135394123Y-93125000D01*
X135394123Y-93400000D01*
X135417407Y-93517054D01*
X135483712Y-93616288D01*
X135582946Y-93682593D01*
X135700000Y-93705877D01*
X137250000Y-93705877D01*
X137367054Y-93682593D01*
X137466288Y-93616288D01*
X137532593Y-93517054D01*
X137555877Y-93400000D01*
X137555877Y-92100000D01*
X144944123Y-92100000D01*
X144944123Y-93400000D01*
X144967407Y-93517054D01*
X145033712Y-93616288D01*
X145132946Y-93682593D01*
X145250000Y-93705877D01*
X146800000Y-93705877D01*
X146917054Y-93682593D01*
X147016288Y-93616288D01*
X147082593Y-93517054D01*
X147105877Y-93400000D01*
X147105877Y-93125000D01*
X152894123Y-93125000D01*
X152894123Y-93400000D01*
X152917407Y-93517054D01*
X152983712Y-93616288D01*
X153082946Y-93682593D01*
X153200000Y-93705877D01*
X154750000Y-93705877D01*
X154867054Y-93682593D01*
X154966288Y-93616288D01*
X155032593Y-93517054D01*
X155055877Y-93400000D01*
X155055877Y-92100000D01*
X155032593Y-91982946D01*
X154966288Y-91883712D01*
X154867054Y-91817407D01*
X154750000Y-91794123D01*
X153200000Y-91794123D01*
X153082946Y-91817407D01*
X152983712Y-91883712D01*
X152917407Y-91982946D01*
X152894123Y-92100000D01*
X152894123Y-92375000D01*
X147105877Y-92375000D01*
X147105877Y-92100000D01*
X147082593Y-91982946D01*
X147016288Y-91883712D01*
X146917054Y-91817407D01*
X146800000Y-91794123D01*
X146375000Y-91794123D01*
X146375000Y-91602345D01*
X146396518Y-91593432D01*
X146593432Y-91396518D01*
X146700000Y-91139239D01*
X146700000Y-90860761D01*
X146593432Y-90603482D01*
X146396518Y-90406568D01*
X146139239Y-90300000D01*
X145860761Y-90300000D01*
X145603482Y-90406568D01*
X145406568Y-90603482D01*
X145300000Y-90860761D01*
X145300000Y-91139239D01*
X145406568Y-91396518D01*
X145603482Y-91593432D01*
X145625000Y-91602345D01*
X145625000Y-91794123D01*
X145250000Y-91794123D01*
X145132946Y-91817407D01*
X145033712Y-91883712D01*
X144967407Y-91982946D01*
X144944123Y-92100000D01*
X137555877Y-92100000D01*
X137532593Y-91982946D01*
X137466288Y-91883712D01*
X137367054Y-91817407D01*
X137250000Y-91794123D01*
X135700000Y-91794123D01*
X135582946Y-91817407D01*
X135483712Y-91883712D01*
X135417407Y-91982946D01*
X135394123Y-92100000D01*
X135394123Y-92375000D01*
X129605877Y-92375000D01*
X129605877Y-92100000D01*
X129582593Y-91982946D01*
X129516288Y-91883712D01*
X129417054Y-91817407D01*
X129300000Y-91794123D01*
X127750000Y-91794123D01*
X127632946Y-91817407D01*
X127533712Y-91883712D01*
X127467407Y-91982946D01*
X127444123Y-92100000D01*
X127444123Y-92375000D01*
X122155330Y-92375000D01*
X121441087Y-91660757D01*
X121450000Y-91639239D01*
X121450000Y-91360761D01*
X121343432Y-91103482D01*
X121146518Y-90906568D01*
X120889239Y-90800000D01*
X120610761Y-90800000D01*
X120353482Y-90906568D01*
X120156568Y-91103482D01*
X120050000Y-91360761D01*
X119450000Y-91360761D01*
X119343432Y-91103482D01*
X119146518Y-90906568D01*
X118889239Y-90800000D01*
X118610761Y-90800000D01*
X118353482Y-90906568D01*
X118156568Y-91103482D01*
X118050000Y-91360761D01*
X118050000Y-91639239D01*
X118120689Y-91809899D01*
X118082946Y-91817407D01*
X117983712Y-91883712D01*
X117917407Y-91982946D01*
X117894123Y-92100000D01*
X117894123Y-92375000D01*
X112105877Y-92375000D01*
X112105877Y-92100000D01*
X112082593Y-91982946D01*
X112016288Y-91883712D01*
X111917054Y-91817407D01*
X111800000Y-91794123D01*
X110250000Y-91794123D01*
X110132946Y-91817407D01*
X110033712Y-91883712D01*
X109967407Y-91982946D01*
X109944123Y-92100000D01*
X104875000Y-92100000D01*
X104875000Y-91773670D01*
X104830034Y-91547610D01*
X104668513Y-91305877D01*
X104775000Y-91305877D01*
X104892054Y-91282593D01*
X104991288Y-91216288D01*
X105057593Y-91117054D01*
X105080877Y-91000000D01*
X105080877Y-90600000D01*
X105057593Y-90482946D01*
X105052284Y-90475000D01*
X105057593Y-90467054D01*
X105080877Y-90350000D01*
X105080877Y-89950000D01*
X105057593Y-89832946D01*
X105052284Y-89825000D01*
X105057593Y-89817054D01*
X105080877Y-89700000D01*
X105080877Y-89300000D01*
X105057593Y-89182946D01*
X105052284Y-89175000D01*
X105057593Y-89167054D01*
X105080877Y-89050000D01*
X105080877Y-88950000D01*
X130494123Y-88950000D01*
X130494123Y-90250000D01*
X130517407Y-90367054D01*
X130583712Y-90466288D01*
X130682946Y-90532593D01*
X130800000Y-90555877D01*
X134200000Y-90555877D01*
X134317054Y-90532593D01*
X134416288Y-90466288D01*
X134482593Y-90367054D01*
X134505877Y-90250000D01*
X134505877Y-89975000D01*
X135335523Y-89975000D01*
X135406568Y-90146518D01*
X135603482Y-90343432D01*
X135860761Y-90450000D01*
X136139239Y-90450000D01*
X136396518Y-90343432D01*
X136593432Y-90146518D01*
X136700000Y-89889239D01*
X136700000Y-89610761D01*
X136593432Y-89353482D01*
X136396518Y-89156568D01*
X136139239Y-89050000D01*
X135860761Y-89050000D01*
X135603482Y-89156568D01*
X135535050Y-89225000D01*
X134505877Y-89225000D01*
X134505877Y-88950000D01*
X134482593Y-88832946D01*
X134416288Y-88733712D01*
X134317054Y-88667407D01*
X134200000Y-88644123D01*
X130800000Y-88644123D01*
X130682946Y-88667407D01*
X130583712Y-88733712D01*
X130517407Y-88832946D01*
X130494123Y-88950000D01*
X105080877Y-88950000D01*
X105080877Y-88931396D01*
X105119405Y-88915437D01*
X105290438Y-88744404D01*
X105383000Y-88520938D01*
X105383000Y-88452000D01*
X105231000Y-88300000D01*
X104254000Y-88300000D01*
X104254000Y-88344123D01*
X103946000Y-88344123D01*
X103946000Y-88300000D01*
X102969000Y-88300000D01*
X102817000Y-88452000D01*
X100350000Y-88452000D01*
X100350000Y-87879062D01*
X102817000Y-87879062D01*
X102817000Y-87948000D01*
X102969000Y-88100000D01*
X103946000Y-88100000D01*
X103946000Y-88026000D01*
X104254000Y-88026000D01*
X104254000Y-88100000D01*
X105231000Y-88100000D01*
X105383000Y-87948000D01*
X105383000Y-87879062D01*
X105290438Y-87655596D01*
X105119405Y-87484563D01*
X104895939Y-87392000D01*
X104842046Y-87392000D01*
X104875000Y-87226329D01*
X104875000Y-86773670D01*
X104830034Y-86547610D01*
X104658744Y-86291256D01*
X104402389Y-86119966D01*
X104100000Y-86059817D01*
X103797610Y-86119966D01*
X103541256Y-86291256D01*
X103369966Y-86547611D01*
X103325000Y-86773671D01*
X103325000Y-87226330D01*
X103357954Y-87392000D01*
X103304061Y-87392000D01*
X103080595Y-87484563D01*
X102909562Y-87655596D01*
X102817000Y-87879062D01*
X100350000Y-87879062D01*
X100350000Y-86204473D01*
X100371417Y-86312144D01*
X100548233Y-86576767D01*
X100812856Y-86753583D01*
X101046211Y-86800000D01*
X101753789Y-86800000D01*
X101987144Y-86753583D01*
X102251767Y-86576767D01*
X102428583Y-86312144D01*
X102490672Y-86000000D01*
X102428583Y-85687856D01*
X102251767Y-85423233D01*
X101987144Y-85246417D01*
X101753789Y-85200000D01*
X101046211Y-85200000D01*
X100812856Y-85246417D01*
X100548233Y-85423233D01*
X100371417Y-85687856D01*
X100350000Y-85795527D01*
X100350000Y-78610761D01*
X102300000Y-78610761D01*
X102300000Y-78889239D01*
X102406568Y-79146518D01*
X102603482Y-79343432D01*
X102860761Y-79450000D01*
X103139239Y-79450000D01*
X103396518Y-79343432D01*
X103593432Y-79146518D01*
X103602345Y-79125000D01*
X116397655Y-79125000D01*
X116406568Y-79146518D01*
X116603482Y-79343432D01*
X116860761Y-79450000D01*
X117139239Y-79450000D01*
X117396518Y-79343432D01*
X117593432Y-79146518D01*
X117700000Y-78889239D01*
X117700000Y-78610761D01*
X117691087Y-78589243D01*
X118345283Y-77935047D01*
X118450000Y-77955877D01*
X119050000Y-77955877D01*
X119167054Y-77932593D01*
X119266288Y-77866288D01*
X119332593Y-77767054D01*
X119355877Y-77650000D01*
X119355877Y-77250000D01*
X119332593Y-77132946D01*
X119266288Y-77033712D01*
X119215834Y-77000000D01*
X119266288Y-76966288D01*
X119332593Y-76867054D01*
X119355877Y-76750000D01*
X119355877Y-76674452D01*
X119839243Y-76191087D01*
X119860761Y-76200000D01*
X120139239Y-76200000D01*
X120396518Y-76093432D01*
X120593432Y-75896518D01*
X120700000Y-75639239D01*
X120700000Y-75360761D01*
X120593432Y-75103482D01*
X120396518Y-74906568D01*
X120139239Y-74800000D01*
X119860761Y-74800000D01*
X119603482Y-74906568D01*
X119406568Y-75103482D01*
X119300000Y-75360761D01*
X119300000Y-75639239D01*
X119308913Y-75660757D01*
X118925548Y-76044123D01*
X118450000Y-76044123D01*
X118332946Y-76067407D01*
X118233712Y-76133712D01*
X118167407Y-76232946D01*
X118144123Y-76350000D01*
X118144123Y-76750000D01*
X118167407Y-76867054D01*
X118233712Y-76966288D01*
X118284166Y-77000000D01*
X118233712Y-77033712D01*
X118197396Y-77088063D01*
X118153683Y-77096758D01*
X118153681Y-77096759D01*
X118153682Y-77096759D01*
X118060949Y-77158721D01*
X118060948Y-77158722D01*
X118029641Y-77179641D01*
X118008722Y-77210948D01*
X117160757Y-78058913D01*
X117139239Y-78050000D01*
X116860761Y-78050000D01*
X116603482Y-78156568D01*
X116406568Y-78353482D01*
X116397655Y-78375000D01*
X103602345Y-78375000D01*
X103593432Y-78353482D01*
X103396518Y-78156568D01*
X103139239Y-78050000D01*
X102860761Y-78050000D01*
X102603482Y-78156568D01*
X102406568Y-78353482D01*
X102300000Y-78610761D01*
X100350000Y-78610761D01*
X100350000Y-70110761D01*
X102300000Y-70110761D01*
X102300000Y-70389239D01*
X102406568Y-70646518D01*
X102603482Y-70843432D01*
X102860761Y-70950000D01*
X103139239Y-70950000D01*
X103396518Y-70843432D01*
X103593432Y-70646518D01*
X103602345Y-70625000D01*
X110549096Y-70625000D01*
X110567407Y-70717054D01*
X110633712Y-70816288D01*
X110732946Y-70882593D01*
X110850000Y-70905877D01*
X111063794Y-70905877D01*
X111010948Y-70958723D01*
X110979642Y-70979641D01*
X110958723Y-71010948D01*
X110958721Y-71010950D01*
X110903146Y-71094123D01*
X110850000Y-71094123D01*
X110732946Y-71117407D01*
X110633712Y-71183712D01*
X110567407Y-71282946D01*
X110544123Y-71400000D01*
X110544123Y-71425000D01*
X110373056Y-71425000D01*
X110343432Y-71353482D01*
X110146518Y-71156568D01*
X109889239Y-71050000D01*
X109610761Y-71050000D01*
X109353482Y-71156568D01*
X109156568Y-71353482D01*
X109050000Y-71610761D01*
X109050000Y-71889239D01*
X109156568Y-72146518D01*
X109353482Y-72343432D01*
X109610761Y-72450000D01*
X109889239Y-72450000D01*
X110146518Y-72343432D01*
X110314950Y-72175000D01*
X110544123Y-72175000D01*
X110544123Y-72200000D01*
X110567407Y-72317054D01*
X110633712Y-72416288D01*
X110732946Y-72482593D01*
X110850000Y-72505877D01*
X111650000Y-72505877D01*
X111767054Y-72482593D01*
X111866288Y-72416288D01*
X111932593Y-72317054D01*
X111955877Y-72200000D01*
X111955877Y-72195827D01*
X112103482Y-72343432D01*
X112360761Y-72450000D01*
X112639239Y-72450000D01*
X112896518Y-72343432D01*
X113044123Y-72195827D01*
X113044123Y-72200000D01*
X113067407Y-72317054D01*
X113133712Y-72416288D01*
X113232946Y-72482593D01*
X113350000Y-72505877D01*
X114150000Y-72505877D01*
X114267054Y-72482593D01*
X114366288Y-72416288D01*
X114432593Y-72317054D01*
X114455877Y-72200000D01*
X114455877Y-72195827D01*
X114603482Y-72343432D01*
X114860761Y-72450000D01*
X115139239Y-72450000D01*
X115396518Y-72343432D01*
X115544123Y-72195827D01*
X115544123Y-72200000D01*
X115567407Y-72317054D01*
X115633712Y-72416288D01*
X115732946Y-72482593D01*
X115850000Y-72505877D01*
X116650000Y-72505877D01*
X116767054Y-72482593D01*
X116866288Y-72416288D01*
X116932593Y-72317054D01*
X116955877Y-72200000D01*
X116955877Y-72195827D01*
X117103482Y-72343432D01*
X117360761Y-72450000D01*
X117639239Y-72450000D01*
X117896518Y-72343432D01*
X118044123Y-72195827D01*
X118044123Y-72200000D01*
X118067407Y-72317054D01*
X118133712Y-72416288D01*
X118232946Y-72482593D01*
X118350000Y-72505877D01*
X118403146Y-72505877D01*
X118458721Y-72589050D01*
X118458723Y-72589052D01*
X118479642Y-72620359D01*
X118510948Y-72641277D01*
X118858722Y-72989052D01*
X118879641Y-73020359D01*
X118910948Y-73041278D01*
X118915206Y-73044123D01*
X118450000Y-73044123D01*
X118332946Y-73067407D01*
X118233712Y-73133712D01*
X118167407Y-73232946D01*
X118144123Y-73350000D01*
X118144123Y-73375000D01*
X118102345Y-73375000D01*
X118093432Y-73353482D01*
X117896518Y-73156568D01*
X117639239Y-73050000D01*
X117360761Y-73050000D01*
X117103482Y-73156568D01*
X116906568Y-73353482D01*
X116855877Y-73475861D01*
X116855877Y-73350000D01*
X116832593Y-73232946D01*
X116766288Y-73133712D01*
X116667054Y-73067407D01*
X116550000Y-73044123D01*
X115950000Y-73044123D01*
X115832946Y-73067407D01*
X115733712Y-73133712D01*
X115667407Y-73232946D01*
X115644123Y-73350000D01*
X115644123Y-73375000D01*
X115602345Y-73375000D01*
X115593432Y-73353482D01*
X115396518Y-73156568D01*
X115139239Y-73050000D01*
X114860761Y-73050000D01*
X114603482Y-73156568D01*
X114406568Y-73353482D01*
X114355877Y-73475861D01*
X114355877Y-73350000D01*
X114332593Y-73232946D01*
X114266288Y-73133712D01*
X114167054Y-73067407D01*
X114050000Y-73044123D01*
X113450000Y-73044123D01*
X113332946Y-73067407D01*
X113233712Y-73133712D01*
X113167407Y-73232946D01*
X113144123Y-73350000D01*
X113144123Y-73375000D01*
X113102345Y-73375000D01*
X113093432Y-73353482D01*
X112896518Y-73156568D01*
X112639239Y-73050000D01*
X112360761Y-73050000D01*
X112103482Y-73156568D01*
X111906568Y-73353482D01*
X111855877Y-73475861D01*
X111855877Y-73350000D01*
X111832593Y-73232946D01*
X111766288Y-73133712D01*
X111667054Y-73067407D01*
X111550000Y-73044123D01*
X110950000Y-73044123D01*
X110832946Y-73067407D01*
X110746751Y-73125000D01*
X110352345Y-73125000D01*
X110343432Y-73103482D01*
X110146518Y-72906568D01*
X109889239Y-72800000D01*
X109610761Y-72800000D01*
X109353482Y-72906568D01*
X109156568Y-73103482D01*
X109050000Y-73360761D01*
X109050000Y-73639239D01*
X109156568Y-73896518D01*
X109260050Y-74000000D01*
X109156568Y-74103482D01*
X109147655Y-74125000D01*
X108602345Y-74125000D01*
X108593432Y-74103482D01*
X108396518Y-73906568D01*
X108139239Y-73800000D01*
X107860761Y-73800000D01*
X107603482Y-73906568D01*
X107406568Y-74103482D01*
X107300000Y-74360761D01*
X107300000Y-74639239D01*
X107406568Y-74896518D01*
X107603482Y-75093432D01*
X107679694Y-75125000D01*
X107352345Y-75125000D01*
X107343432Y-75103482D01*
X107146518Y-74906568D01*
X106889239Y-74800000D01*
X106610761Y-74800000D01*
X106353482Y-74906568D01*
X106156568Y-75103482D01*
X106050000Y-75360761D01*
X106050000Y-75639239D01*
X106156568Y-75896518D01*
X106353482Y-76093432D01*
X106429694Y-76125000D01*
X106102345Y-76125000D01*
X106093432Y-76103482D01*
X105896518Y-75906568D01*
X105639239Y-75800000D01*
X105360761Y-75800000D01*
X105103482Y-75906568D01*
X104906568Y-76103482D01*
X104800000Y-76360761D01*
X104800000Y-76639239D01*
X104906568Y-76896518D01*
X105103482Y-77093432D01*
X105179694Y-77125000D01*
X104852345Y-77125000D01*
X104843432Y-77103482D01*
X104646518Y-76906568D01*
X104389239Y-76800000D01*
X104110761Y-76800000D01*
X103853482Y-76906568D01*
X103656568Y-77103482D01*
X103550000Y-77360761D01*
X103550000Y-77639239D01*
X103656568Y-77896518D01*
X103853482Y-78093432D01*
X104110761Y-78200000D01*
X104389239Y-78200000D01*
X104646518Y-78093432D01*
X104843432Y-77896518D01*
X104852345Y-77875000D01*
X114647655Y-77875000D01*
X114656568Y-77896518D01*
X114853482Y-78093432D01*
X115110761Y-78200000D01*
X115389239Y-78200000D01*
X115646518Y-78093432D01*
X115843432Y-77896518D01*
X115950000Y-77639239D01*
X115950000Y-77360761D01*
X115941087Y-77339242D01*
X118345283Y-74935047D01*
X118450000Y-74955877D01*
X119050000Y-74955877D01*
X119167054Y-74932593D01*
X119266288Y-74866288D01*
X119332593Y-74767054D01*
X119355877Y-74650000D01*
X119355877Y-74250000D01*
X119332593Y-74132946D01*
X119266288Y-74033712D01*
X119215834Y-74000000D01*
X119266288Y-73966288D01*
X119332593Y-73867054D01*
X119355877Y-73750000D01*
X119355877Y-73350000D01*
X119332593Y-73232946D01*
X119266288Y-73133712D01*
X119253249Y-73125000D01*
X120746751Y-73125000D01*
X120733712Y-73133712D01*
X120667407Y-73232946D01*
X120644123Y-73350000D01*
X120644123Y-73750000D01*
X120667407Y-73867054D01*
X120733712Y-73966288D01*
X120784166Y-74000000D01*
X120733712Y-74033712D01*
X120667407Y-74132946D01*
X120644123Y-74250000D01*
X120644123Y-74650000D01*
X120667407Y-74767054D01*
X120733712Y-74866288D01*
X120832946Y-74932593D01*
X120950000Y-74955877D01*
X121550000Y-74955877D01*
X121654718Y-74935047D01*
X125308913Y-78589243D01*
X125300000Y-78610761D01*
X125300000Y-78889239D01*
X125397655Y-79125000D01*
X125163414Y-79125000D01*
X125046316Y-79046757D01*
X124936930Y-79024999D01*
X124936925Y-79024999D01*
X124899999Y-79017654D01*
X124863073Y-79024999D01*
X124602345Y-79024999D01*
X124593432Y-79003481D01*
X124396518Y-78806567D01*
X124139239Y-78699999D01*
X123860761Y-78699999D01*
X123603482Y-78806567D01*
X123406568Y-79003481D01*
X123300000Y-79260760D01*
X123300000Y-79539238D01*
X123350993Y-79662347D01*
X123303684Y-79671757D01*
X123303683Y-79671758D01*
X123303682Y-79671758D01*
X123210949Y-79733721D01*
X123179642Y-79754640D01*
X123158723Y-79785947D01*
X123048672Y-79895998D01*
X122960002Y-79895998D01*
X123108000Y-79748000D01*
X123108000Y-79629061D01*
X123015437Y-79405595D01*
X122844404Y-79234562D01*
X122805877Y-79218604D01*
X122805877Y-78650000D01*
X122782593Y-78532946D01*
X122716288Y-78433712D01*
X122617054Y-78367407D01*
X122500000Y-78344123D01*
X122374454Y-78344123D01*
X122191087Y-78160757D01*
X122200000Y-78139239D01*
X122200000Y-77860761D01*
X122093432Y-77603482D01*
X121896518Y-77406568D01*
X121639239Y-77300000D01*
X121360761Y-77300000D01*
X121103482Y-77406568D01*
X120906568Y-77603482D01*
X120800000Y-77860761D01*
X120800000Y-78139239D01*
X120808913Y-78160758D01*
X120760948Y-78208723D01*
X120729642Y-78229641D01*
X120708723Y-78260948D01*
X120708721Y-78260950D01*
X120646759Y-78353682D01*
X120644486Y-78365112D01*
X120632946Y-78367407D01*
X120533712Y-78433712D01*
X120467407Y-78532946D01*
X120444123Y-78650000D01*
X120444123Y-79218604D01*
X120405596Y-79234562D01*
X120234563Y-79405595D01*
X120200000Y-79489037D01*
X120200000Y-79360761D01*
X120093432Y-79103482D01*
X119896518Y-78906568D01*
X119639239Y-78800000D01*
X119360761Y-78800000D01*
X119103482Y-78906568D01*
X118906568Y-79103482D01*
X118800000Y-79360761D01*
X118800000Y-79639239D01*
X118906568Y-79896518D01*
X119103482Y-80093432D01*
X119179694Y-80125000D01*
X110352345Y-80125000D01*
X110343432Y-80103482D01*
X110146518Y-79906568D01*
X109889239Y-79800000D01*
X109610761Y-79800000D01*
X109353482Y-79906568D01*
X109156568Y-80103482D01*
X109050000Y-80360761D01*
X109050000Y-80639239D01*
X109156568Y-80896518D01*
X109353482Y-81093432D01*
X109610761Y-81200000D01*
X109889239Y-81200000D01*
X110146518Y-81093432D01*
X110343432Y-80896518D01*
X110352345Y-80875000D01*
X119659671Y-80875000D01*
X120434123Y-81649453D01*
X120434123Y-81718793D01*
X120326280Y-81610951D01*
X120305360Y-81579642D01*
X120181318Y-81496759D01*
X120071932Y-81475001D01*
X120071927Y-81475001D01*
X120035001Y-81467656D01*
X119998075Y-81475001D01*
X112686925Y-81475001D01*
X112649998Y-81467656D01*
X112613072Y-81475001D01*
X112613068Y-81475001D01*
X112503682Y-81496759D01*
X112503681Y-81496760D01*
X112503680Y-81496760D01*
X112410948Y-81558722D01*
X112410947Y-81558723D01*
X112410699Y-81558889D01*
X112389239Y-81550000D01*
X112110761Y-81550000D01*
X111853482Y-81656568D01*
X111656568Y-81853482D01*
X111550000Y-82110761D01*
X111550000Y-82389239D01*
X111656568Y-82646518D01*
X111853482Y-82843432D01*
X112110761Y-82950000D01*
X112389239Y-82950000D01*
X112646518Y-82843432D01*
X112843432Y-82646518D01*
X112950000Y-82389239D01*
X112950000Y-82225001D01*
X117285049Y-82225001D01*
X117156568Y-82353482D01*
X117050000Y-82610761D01*
X117050000Y-82889239D01*
X117156568Y-83146518D01*
X117335050Y-83325000D01*
X115780331Y-83325000D01*
X115716282Y-83260951D01*
X115695361Y-83229641D01*
X115571319Y-83146758D01*
X115461933Y-83125000D01*
X115461928Y-83125000D01*
X115425002Y-83117655D01*
X115388076Y-83125000D01*
X114352345Y-83125000D01*
X114343432Y-83103482D01*
X114146518Y-82906568D01*
X113889239Y-82800000D01*
X113610761Y-82800000D01*
X113353482Y-82906568D01*
X113156568Y-83103482D01*
X113050000Y-83360761D01*
X113050000Y-83639239D01*
X113156568Y-83896518D01*
X113353482Y-84093432D01*
X113610761Y-84200000D01*
X113889239Y-84200000D01*
X114146518Y-84093432D01*
X114343432Y-83896518D01*
X114352345Y-83875000D01*
X114647655Y-83875000D01*
X114550000Y-84110761D01*
X114550000Y-84389239D01*
X114656568Y-84646518D01*
X114853482Y-84843432D01*
X115110761Y-84950000D01*
X115389239Y-84950000D01*
X115646518Y-84843432D01*
X115843432Y-84646518D01*
X115852345Y-84625000D01*
X116679694Y-84625000D01*
X116603482Y-84656568D01*
X116406568Y-84853482D01*
X116300000Y-85110761D01*
X116300000Y-85389239D01*
X116406568Y-85646518D01*
X116603482Y-85843432D01*
X116860761Y-85950000D01*
X117139239Y-85950000D01*
X117396518Y-85843432D01*
X117593432Y-85646518D01*
X117602345Y-85625000D01*
X120528074Y-85625000D01*
X120565000Y-85632345D01*
X120601926Y-85625000D01*
X120601931Y-85625000D01*
X120711317Y-85603242D01*
X120835359Y-85520359D01*
X120856279Y-85489050D01*
X120925001Y-85420329D01*
X120925000Y-86263073D01*
X120917655Y-86300000D01*
X120925000Y-86336926D01*
X120925000Y-86336930D01*
X120946758Y-86446316D01*
X121029641Y-86570359D01*
X121060950Y-86591279D01*
X121458722Y-86989052D01*
X121479641Y-87020359D01*
X121510948Y-87041278D01*
X121510949Y-87041279D01*
X121603681Y-87103241D01*
X121603682Y-87103241D01*
X121603683Y-87103242D01*
X121713069Y-87125000D01*
X121713073Y-87125000D01*
X121749999Y-87132345D01*
X121786925Y-87125000D01*
X125397655Y-87125000D01*
X125406568Y-87146518D01*
X125603482Y-87343432D01*
X125860761Y-87450000D01*
X126139239Y-87450000D01*
X126354681Y-87360761D01*
X149800000Y-87360761D01*
X149800000Y-87639239D01*
X149906568Y-87896518D01*
X150103482Y-88093432D01*
X150360761Y-88200000D01*
X150639239Y-88200000D01*
X150896518Y-88093432D01*
X151093432Y-87896518D01*
X151102345Y-87875000D01*
X154076382Y-87875000D01*
X154094123Y-87886854D01*
X154094123Y-88040000D01*
X154117407Y-88157054D01*
X154183712Y-88256288D01*
X154282946Y-88322593D01*
X154400000Y-88345877D01*
X157550000Y-88345877D01*
X157667054Y-88322593D01*
X157766288Y-88256288D01*
X157832593Y-88157054D01*
X157855877Y-88040000D01*
X157855877Y-87040000D01*
X159144123Y-87040000D01*
X159144123Y-88040000D01*
X159167407Y-88157054D01*
X159233712Y-88256288D01*
X159332946Y-88322593D01*
X159450000Y-88345877D01*
X160650000Y-88345877D01*
X160650001Y-89637299D01*
X160603482Y-89656568D01*
X160406568Y-89853482D01*
X160300000Y-90110761D01*
X160300000Y-90389239D01*
X160406568Y-90646518D01*
X160603482Y-90843432D01*
X160860761Y-90950000D01*
X161139239Y-90950000D01*
X161396518Y-90843432D01*
X161593432Y-90646518D01*
X161700000Y-90389239D01*
X161700000Y-90110761D01*
X161593432Y-89853482D01*
X161400000Y-89660050D01*
X161400000Y-88345877D01*
X162600000Y-88345877D01*
X162717054Y-88322593D01*
X162816288Y-88256288D01*
X162882593Y-88157054D01*
X162905877Y-88040000D01*
X162905877Y-87040000D01*
X162882593Y-86922946D01*
X162816288Y-86823712D01*
X162717054Y-86757407D01*
X162600000Y-86734123D01*
X159450000Y-86734123D01*
X159332946Y-86757407D01*
X159233712Y-86823712D01*
X159167407Y-86922946D01*
X159144123Y-87040000D01*
X157855877Y-87040000D01*
X157832593Y-86922946D01*
X157766288Y-86823712D01*
X157667054Y-86757407D01*
X157550000Y-86734123D01*
X154400000Y-86734123D01*
X154282946Y-86757407D01*
X154183712Y-86823712D01*
X154117407Y-86922946D01*
X154094123Y-87040000D01*
X154094123Y-87125000D01*
X151102345Y-87125000D01*
X151093432Y-87103482D01*
X150896518Y-86906568D01*
X150639239Y-86800000D01*
X150360761Y-86800000D01*
X150103482Y-86906568D01*
X149906568Y-87103482D01*
X149800000Y-87360761D01*
X126354681Y-87360761D01*
X126396518Y-87343432D01*
X126593432Y-87146518D01*
X126700000Y-86889239D01*
X126700000Y-86610761D01*
X126602345Y-86375000D01*
X126647655Y-86375000D01*
X126656568Y-86396518D01*
X126853482Y-86593432D01*
X127110761Y-86700000D01*
X127389239Y-86700000D01*
X127646518Y-86593432D01*
X127843432Y-86396518D01*
X127950000Y-86139239D01*
X127950000Y-85860761D01*
X127843432Y-85603482D01*
X127646518Y-85406568D01*
X127389239Y-85300000D01*
X127110761Y-85300000D01*
X126853482Y-85406568D01*
X126656568Y-85603482D01*
X126647655Y-85625000D01*
X123130330Y-85625000D01*
X122865267Y-85359938D01*
X122877054Y-85357593D01*
X122976288Y-85291288D01*
X123042593Y-85192054D01*
X123055931Y-85125000D01*
X127397655Y-85125000D01*
X127406568Y-85146518D01*
X127603482Y-85343432D01*
X127860761Y-85450000D01*
X128139239Y-85450000D01*
X128396518Y-85343432D01*
X128593432Y-85146518D01*
X128700000Y-84889239D01*
X128700000Y-84860761D01*
X151800000Y-84860761D01*
X151800000Y-85139239D01*
X151906568Y-85396518D01*
X152103482Y-85593432D01*
X152360761Y-85700000D01*
X152639239Y-85700000D01*
X152896518Y-85593432D01*
X153093432Y-85396518D01*
X153102345Y-85375000D01*
X154094123Y-85375000D01*
X154094123Y-85500000D01*
X154117407Y-85617054D01*
X154183712Y-85716288D01*
X154282946Y-85782593D01*
X154400000Y-85805877D01*
X157550000Y-85805877D01*
X157667054Y-85782593D01*
X157766288Y-85716288D01*
X157832593Y-85617054D01*
X157855877Y-85500000D01*
X157855877Y-84500000D01*
X157832593Y-84382946D01*
X157766288Y-84283712D01*
X157667054Y-84217407D01*
X157550000Y-84194123D01*
X154400000Y-84194123D01*
X154282946Y-84217407D01*
X154183712Y-84283712D01*
X154117407Y-84382946D01*
X154094123Y-84500000D01*
X154094123Y-84625000D01*
X153102345Y-84625000D01*
X153093432Y-84603482D01*
X152896518Y-84406568D01*
X152639239Y-84300000D01*
X152360761Y-84300000D01*
X152103482Y-84406568D01*
X151906568Y-84603482D01*
X151800000Y-84860761D01*
X128700000Y-84860761D01*
X128700000Y-84610761D01*
X128602345Y-84375000D01*
X129647655Y-84375000D01*
X129656568Y-84396518D01*
X129853482Y-84593432D01*
X130110761Y-84700000D01*
X130389239Y-84700000D01*
X130646518Y-84593432D01*
X130843432Y-84396518D01*
X130950000Y-84139239D01*
X130950000Y-83860761D01*
X130893767Y-83725001D01*
X132694672Y-83725001D01*
X132808913Y-83839243D01*
X132800000Y-83860761D01*
X132800000Y-84139239D01*
X132906568Y-84396518D01*
X133103482Y-84593432D01*
X133360761Y-84700000D01*
X133639239Y-84700000D01*
X133896518Y-84593432D01*
X134093432Y-84396518D01*
X134200000Y-84139239D01*
X134200000Y-83860761D01*
X134093432Y-83603482D01*
X133914942Y-83424992D01*
X145435042Y-83424992D01*
X145603482Y-83593432D01*
X145860761Y-83700000D01*
X146139239Y-83700000D01*
X146396518Y-83593432D01*
X146593432Y-83396518D01*
X146700000Y-83139239D01*
X146700000Y-82860761D01*
X146643766Y-82725000D01*
X153229669Y-82725000D01*
X154493720Y-83989052D01*
X154514639Y-84020359D01*
X154545946Y-84041278D01*
X154545947Y-84041279D01*
X154638679Y-84103241D01*
X154638680Y-84103241D01*
X154638681Y-84103242D01*
X154748067Y-84125000D01*
X154748071Y-84125000D01*
X154784998Y-84132345D01*
X154821924Y-84125000D01*
X157894671Y-84125000D01*
X159008722Y-85239052D01*
X159029641Y-85270359D01*
X159060948Y-85291278D01*
X159060949Y-85291279D01*
X159144123Y-85346855D01*
X159144123Y-85500000D01*
X159167407Y-85617054D01*
X159233712Y-85716288D01*
X159332946Y-85782593D01*
X159450000Y-85805877D01*
X162600000Y-85805877D01*
X162717054Y-85782593D01*
X162816288Y-85716288D01*
X162882593Y-85617054D01*
X162905877Y-85500000D01*
X162905877Y-84500000D01*
X162882593Y-84382946D01*
X162816288Y-84283712D01*
X162717054Y-84217407D01*
X162600000Y-84194123D01*
X159450000Y-84194123D01*
X159332946Y-84217407D01*
X159233712Y-84283712D01*
X159185779Y-84355450D01*
X158341280Y-83510950D01*
X158320359Y-83479641D01*
X158196317Y-83396758D01*
X158086931Y-83375000D01*
X158086926Y-83375000D01*
X158050000Y-83367655D01*
X158013074Y-83375000D01*
X154940328Y-83375000D01*
X154831205Y-83265877D01*
X157550000Y-83265877D01*
X157667054Y-83242593D01*
X157766288Y-83176288D01*
X157832593Y-83077054D01*
X157855877Y-82960000D01*
X157855877Y-82766000D01*
X158842000Y-82766000D01*
X158842000Y-83080938D01*
X158934562Y-83304404D01*
X159105595Y-83475437D01*
X159329061Y-83568000D01*
X160719000Y-83568000D01*
X160871000Y-83416000D01*
X160871000Y-82614000D01*
X161179000Y-82614000D01*
X161179000Y-83416000D01*
X161331000Y-83568000D01*
X162720939Y-83568000D01*
X162944405Y-83475437D01*
X163115438Y-83304404D01*
X163208000Y-83080938D01*
X163208000Y-82766000D01*
X163056000Y-82614000D01*
X161179000Y-82614000D01*
X160871000Y-82614000D01*
X158994000Y-82614000D01*
X158842000Y-82766000D01*
X157855877Y-82766000D01*
X157855877Y-81960000D01*
X157832593Y-81842946D01*
X157829998Y-81839062D01*
X158842000Y-81839062D01*
X158842000Y-82154000D01*
X158994000Y-82306000D01*
X160871000Y-82306000D01*
X160871000Y-81504000D01*
X161179000Y-81504000D01*
X161179000Y-82306000D01*
X163056000Y-82306000D01*
X163208000Y-82154000D01*
X163208000Y-81839062D01*
X163115438Y-81615596D01*
X162944405Y-81444563D01*
X162720939Y-81352000D01*
X161331000Y-81352000D01*
X161179000Y-81504000D01*
X160871000Y-81504000D01*
X160719000Y-81352000D01*
X159329061Y-81352000D01*
X159105595Y-81444563D01*
X158934562Y-81615596D01*
X158842000Y-81839062D01*
X157829998Y-81839062D01*
X157766288Y-81743712D01*
X157667054Y-81677407D01*
X157550000Y-81654123D01*
X154624452Y-81654123D01*
X154541279Y-81570950D01*
X154520359Y-81539641D01*
X154396317Y-81456758D01*
X154286931Y-81435000D01*
X154286926Y-81435000D01*
X154250000Y-81427655D01*
X154213074Y-81435000D01*
X152675452Y-81435000D01*
X152896518Y-81343432D01*
X153093432Y-81146518D01*
X153200000Y-80889239D01*
X153200000Y-80610761D01*
X153093432Y-80353482D01*
X152896518Y-80156568D01*
X152639239Y-80050000D01*
X152360761Y-80050000D01*
X152103482Y-80156568D01*
X151906568Y-80353482D01*
X151897655Y-80375000D01*
X151205351Y-80375000D01*
X150874391Y-80044041D01*
X150919160Y-80025497D01*
X151069657Y-79875000D01*
X154860268Y-79875000D01*
X154969654Y-79853242D01*
X155093696Y-79770359D01*
X155176579Y-79646317D01*
X155205683Y-79500000D01*
X155176579Y-79353683D01*
X155093696Y-79229641D01*
X154969654Y-79146758D01*
X154860268Y-79125000D01*
X162647655Y-79125000D01*
X162656568Y-79146518D01*
X162853482Y-79343432D01*
X163110761Y-79450000D01*
X163389239Y-79450000D01*
X163646518Y-79343432D01*
X163843432Y-79146518D01*
X163950000Y-78889239D01*
X163950000Y-78610761D01*
X163843432Y-78353482D01*
X163646518Y-78156568D01*
X163389239Y-78050000D01*
X163110761Y-78050000D01*
X162853482Y-78156568D01*
X162656568Y-78353482D01*
X162647655Y-78375000D01*
X126602345Y-78375000D01*
X126593432Y-78353482D01*
X126396518Y-78156568D01*
X126139239Y-78050000D01*
X125860761Y-78050000D01*
X125839243Y-78058913D01*
X122138100Y-74357771D01*
X122360761Y-74450000D01*
X122639239Y-74450000D01*
X122896518Y-74343432D01*
X123093432Y-74146518D01*
X123193200Y-73905656D01*
X123233712Y-73966288D01*
X123284166Y-74000000D01*
X123233712Y-74033712D01*
X123167407Y-74132946D01*
X123144123Y-74250000D01*
X123144123Y-74650000D01*
X123167407Y-74767054D01*
X123233712Y-74866288D01*
X123332946Y-74932593D01*
X123450000Y-74955877D01*
X124050000Y-74955877D01*
X124154718Y-74935047D01*
X126558913Y-77339243D01*
X126550000Y-77360761D01*
X126550000Y-77639239D01*
X126656568Y-77896518D01*
X126853482Y-78093432D01*
X127110761Y-78200000D01*
X127389239Y-78200000D01*
X127646518Y-78093432D01*
X127843432Y-77896518D01*
X127852345Y-77875000D01*
X161147655Y-77875000D01*
X161156568Y-77896518D01*
X161353482Y-78093432D01*
X161610761Y-78200000D01*
X161889239Y-78200000D01*
X162146518Y-78093432D01*
X162343432Y-77896518D01*
X162450000Y-77639239D01*
X162450000Y-77360761D01*
X162343432Y-77103482D01*
X162146518Y-76906568D01*
X161889239Y-76800000D01*
X161610761Y-76800000D01*
X161353482Y-76906568D01*
X161156568Y-77103482D01*
X161147655Y-77125000D01*
X160570306Y-77125000D01*
X160646518Y-77093432D01*
X160843432Y-76896518D01*
X160950000Y-76639239D01*
X160950000Y-76360761D01*
X160843432Y-76103482D01*
X160646518Y-75906568D01*
X160389239Y-75800000D01*
X160110761Y-75800000D01*
X159853482Y-75906568D01*
X159656568Y-76103482D01*
X159647655Y-76125000D01*
X159070306Y-76125000D01*
X159146518Y-76093432D01*
X159343432Y-75896518D01*
X159450000Y-75639239D01*
X159450000Y-75360761D01*
X159343432Y-75103482D01*
X159146518Y-74906568D01*
X158889239Y-74800000D01*
X158610761Y-74800000D01*
X158353482Y-74906568D01*
X158156568Y-75103482D01*
X158147655Y-75125000D01*
X133699595Y-75125000D01*
X133896518Y-75043432D01*
X134093432Y-74846518D01*
X134102345Y-74825000D01*
X157085050Y-74825000D01*
X157103482Y-74843432D01*
X157360761Y-74950000D01*
X157639239Y-74950000D01*
X157896518Y-74843432D01*
X158093432Y-74646518D01*
X158200000Y-74389239D01*
X158200000Y-74110761D01*
X158093432Y-73853482D01*
X157896518Y-73656568D01*
X157639239Y-73550000D01*
X157360761Y-73550000D01*
X157103482Y-73656568D01*
X156906568Y-73853482D01*
X156814813Y-74075000D01*
X134102345Y-74075000D01*
X134093432Y-74053482D01*
X133896518Y-73856568D01*
X133639239Y-73750000D01*
X133360761Y-73750000D01*
X133200000Y-73816589D01*
X133200000Y-73610761D01*
X133093432Y-73353482D01*
X132896518Y-73156568D01*
X132820306Y-73125000D01*
X141713074Y-73125000D01*
X141750000Y-73132345D01*
X141786926Y-73125000D01*
X141786931Y-73125000D01*
X141896317Y-73103242D01*
X142020359Y-73020359D01*
X142041279Y-72989050D01*
X142339243Y-72691087D01*
X142360761Y-72700000D01*
X142639239Y-72700000D01*
X142896518Y-72593432D01*
X143093432Y-72396518D01*
X143103791Y-72371508D01*
X143133712Y-72416288D01*
X143232946Y-72482593D01*
X143350000Y-72505877D01*
X144150000Y-72505877D01*
X144267054Y-72482593D01*
X144366288Y-72416288D01*
X144393875Y-72375000D01*
X144397655Y-72375000D01*
X144406568Y-72396518D01*
X144603482Y-72593432D01*
X144860761Y-72700000D01*
X145139239Y-72700000D01*
X145396518Y-72593432D01*
X145593432Y-72396518D01*
X145603791Y-72371508D01*
X145633712Y-72416288D01*
X145732946Y-72482593D01*
X145850000Y-72505877D01*
X146650000Y-72505877D01*
X146767054Y-72482593D01*
X146866288Y-72416288D01*
X146896209Y-72371508D01*
X146906568Y-72396518D01*
X147103482Y-72593432D01*
X147360761Y-72700000D01*
X147639239Y-72700000D01*
X147896518Y-72593432D01*
X148093432Y-72396518D01*
X148102345Y-72375000D01*
X148106125Y-72375000D01*
X148133712Y-72416288D01*
X148232946Y-72482593D01*
X148350000Y-72505877D01*
X149150000Y-72505877D01*
X149267054Y-72482593D01*
X149366288Y-72416288D01*
X149396209Y-72371508D01*
X149406568Y-72396518D01*
X149603482Y-72593432D01*
X149860761Y-72700000D01*
X150139239Y-72700000D01*
X150396518Y-72593432D01*
X150593432Y-72396518D01*
X150602345Y-72375000D01*
X150606125Y-72375000D01*
X150633712Y-72416288D01*
X150732946Y-72482593D01*
X150850000Y-72505877D01*
X151650000Y-72505877D01*
X151767054Y-72482593D01*
X151866288Y-72416288D01*
X151896209Y-72371508D01*
X151906568Y-72396518D01*
X152103482Y-72593432D01*
X152360761Y-72700000D01*
X152639239Y-72700000D01*
X152896518Y-72593432D01*
X153093432Y-72396518D01*
X153102345Y-72375000D01*
X153106125Y-72375000D01*
X153133712Y-72416288D01*
X153232946Y-72482593D01*
X153350000Y-72505877D01*
X154150000Y-72505877D01*
X154267054Y-72482593D01*
X154366288Y-72416288D01*
X154432593Y-72317054D01*
X154455877Y-72200000D01*
X154455877Y-71400000D01*
X154450904Y-71375000D01*
X155647655Y-71375000D01*
X155656568Y-71396518D01*
X155853482Y-71593432D01*
X156110761Y-71700000D01*
X156389239Y-71700000D01*
X156646518Y-71593432D01*
X156843432Y-71396518D01*
X156950000Y-71139239D01*
X156950000Y-70860761D01*
X156852345Y-70625000D01*
X156897655Y-70625000D01*
X156906568Y-70646518D01*
X157103482Y-70843432D01*
X157360761Y-70950000D01*
X157639239Y-70950000D01*
X157896518Y-70843432D01*
X158093432Y-70646518D01*
X158200000Y-70389239D01*
X158200000Y-70110761D01*
X158093432Y-69853482D01*
X157896518Y-69656568D01*
X157639239Y-69550000D01*
X157360761Y-69550000D01*
X157103482Y-69656568D01*
X156906568Y-69853482D01*
X156897655Y-69875000D01*
X154455877Y-69875000D01*
X154455877Y-69800000D01*
X154432593Y-69682946D01*
X154366288Y-69583712D01*
X154267054Y-69517407D01*
X154179545Y-69500000D01*
X154267054Y-69482593D01*
X154366288Y-69416288D01*
X154432593Y-69317054D01*
X154455877Y-69200000D01*
X154455877Y-69195827D01*
X154603482Y-69343432D01*
X154860761Y-69450000D01*
X155139239Y-69450000D01*
X155396518Y-69343432D01*
X155593432Y-69146518D01*
X155700000Y-68889239D01*
X155700000Y-68610761D01*
X155602345Y-68375000D01*
X155647655Y-68375000D01*
X155656568Y-68396518D01*
X155853482Y-68593432D01*
X156110761Y-68700000D01*
X156389239Y-68700000D01*
X156646518Y-68593432D01*
X156843432Y-68396518D01*
X156950000Y-68139239D01*
X156950000Y-67860761D01*
X156852345Y-67625000D01*
X158147655Y-67625000D01*
X158156568Y-67646518D01*
X158353482Y-67843432D01*
X158610761Y-67950000D01*
X158889239Y-67950000D01*
X159146518Y-67843432D01*
X159343432Y-67646518D01*
X159450000Y-67389239D01*
X159450000Y-67110761D01*
X159343432Y-66853482D01*
X159146518Y-66656568D01*
X158889239Y-66550000D01*
X158610761Y-66550000D01*
X158353482Y-66656568D01*
X158156568Y-66853482D01*
X158147655Y-66875000D01*
X154455877Y-66875000D01*
X154455877Y-66800000D01*
X154432593Y-66682946D01*
X154366288Y-66583712D01*
X154267054Y-66517407D01*
X154179545Y-66500000D01*
X154267054Y-66482593D01*
X154366288Y-66416288D01*
X154432593Y-66317054D01*
X154455877Y-66200000D01*
X154455877Y-66195847D01*
X154603462Y-66343432D01*
X154860741Y-66450000D01*
X155139219Y-66450000D01*
X155396498Y-66343432D01*
X155593412Y-66146518D01*
X155699980Y-65889239D01*
X155699980Y-65610761D01*
X155602325Y-65375000D01*
X155647655Y-65375000D01*
X155656568Y-65396518D01*
X155853482Y-65593432D01*
X156110761Y-65700000D01*
X156389239Y-65700000D01*
X156646518Y-65593432D01*
X156843432Y-65396518D01*
X156950000Y-65139239D01*
X156950000Y-64860761D01*
X156852345Y-64625000D01*
X159647655Y-64625000D01*
X159656568Y-64646518D01*
X159853482Y-64843432D01*
X160110761Y-64950000D01*
X160389239Y-64950000D01*
X160646518Y-64843432D01*
X160843432Y-64646518D01*
X160950000Y-64389239D01*
X160950000Y-64110761D01*
X160843432Y-63853482D01*
X160646518Y-63656568D01*
X160389239Y-63550000D01*
X160110761Y-63550000D01*
X159853482Y-63656568D01*
X159656568Y-63853482D01*
X159647655Y-63875000D01*
X154455877Y-63875000D01*
X154455877Y-63800000D01*
X154432593Y-63682946D01*
X154366288Y-63583712D01*
X154267054Y-63517407D01*
X154179545Y-63500000D01*
X154267054Y-63482593D01*
X154366288Y-63416288D01*
X154432593Y-63317054D01*
X154455877Y-63200000D01*
X154455877Y-63195847D01*
X154603462Y-63343432D01*
X154860741Y-63450000D01*
X155139219Y-63450000D01*
X155396498Y-63343432D01*
X155593412Y-63146518D01*
X155699980Y-62889239D01*
X155699980Y-62610761D01*
X155602325Y-62375000D01*
X155647655Y-62375000D01*
X155656568Y-62396518D01*
X155853482Y-62593432D01*
X156110761Y-62700000D01*
X156389239Y-62700000D01*
X156646518Y-62593432D01*
X156843432Y-62396518D01*
X156950000Y-62139239D01*
X156950000Y-61860761D01*
X156852345Y-61625000D01*
X161147655Y-61625000D01*
X161156568Y-61646518D01*
X161353482Y-61843432D01*
X161610761Y-61950000D01*
X161889239Y-61950000D01*
X162146518Y-61843432D01*
X162343432Y-61646518D01*
X162450000Y-61389239D01*
X162450000Y-61110761D01*
X162343432Y-60853482D01*
X162146518Y-60656568D01*
X161889239Y-60550000D01*
X161610761Y-60550000D01*
X161353482Y-60656568D01*
X161156568Y-60853482D01*
X161147655Y-60875000D01*
X154455877Y-60875000D01*
X154455877Y-60800000D01*
X154432593Y-60682946D01*
X154366288Y-60583712D01*
X154267054Y-60517407D01*
X154179545Y-60500000D01*
X154267054Y-60482593D01*
X154366288Y-60416288D01*
X154432593Y-60317054D01*
X154455877Y-60200000D01*
X154455877Y-60195827D01*
X154603482Y-60343432D01*
X154860761Y-60450000D01*
X155139239Y-60450000D01*
X155396518Y-60343432D01*
X155593432Y-60146518D01*
X155700000Y-59889239D01*
X155700000Y-59610761D01*
X155593432Y-59353482D01*
X155396518Y-59156568D01*
X155139239Y-59050000D01*
X154860761Y-59050000D01*
X154603482Y-59156568D01*
X154439978Y-59320072D01*
X154432593Y-59282946D01*
X154366288Y-59183712D01*
X154267054Y-59117407D01*
X154150000Y-59094123D01*
X153350000Y-59094123D01*
X153232946Y-59117407D01*
X153133712Y-59183712D01*
X153067407Y-59282946D01*
X153060022Y-59320072D01*
X152896518Y-59156568D01*
X152639239Y-59050000D01*
X152360761Y-59050000D01*
X152103482Y-59156568D01*
X151939978Y-59320072D01*
X151932593Y-59282946D01*
X151866288Y-59183712D01*
X151767054Y-59117407D01*
X151650000Y-59094123D01*
X150850000Y-59094123D01*
X150732946Y-59117407D01*
X150633712Y-59183712D01*
X150567407Y-59282946D01*
X150560022Y-59320072D01*
X150396518Y-59156568D01*
X150139239Y-59050000D01*
X149860761Y-59050000D01*
X149603482Y-59156568D01*
X149439978Y-59320072D01*
X149432593Y-59282946D01*
X149366288Y-59183712D01*
X149267054Y-59117407D01*
X149150000Y-59094123D01*
X148350000Y-59094123D01*
X148232946Y-59117407D01*
X148133712Y-59183712D01*
X148067407Y-59282946D01*
X148060022Y-59320072D01*
X147896518Y-59156568D01*
X147639239Y-59050000D01*
X147360761Y-59050000D01*
X147103482Y-59156568D01*
X146939978Y-59320072D01*
X146932593Y-59282946D01*
X146866288Y-59183712D01*
X146767054Y-59117407D01*
X146650000Y-59094123D01*
X145850000Y-59094123D01*
X145732946Y-59117407D01*
X145633712Y-59183712D01*
X145567407Y-59282946D01*
X145560022Y-59320072D01*
X145396518Y-59156568D01*
X145139239Y-59050000D01*
X144860761Y-59050000D01*
X144603482Y-59156568D01*
X144439978Y-59320072D01*
X144432593Y-59282946D01*
X144366288Y-59183712D01*
X144267054Y-59117407D01*
X144150000Y-59094123D01*
X143350000Y-59094123D01*
X143232946Y-59117407D01*
X143133712Y-59183712D01*
X143067407Y-59282946D01*
X143060022Y-59320072D01*
X142896518Y-59156568D01*
X142639239Y-59050000D01*
X142360761Y-59050000D01*
X142103482Y-59156568D01*
X141939978Y-59320072D01*
X141932593Y-59282946D01*
X141866288Y-59183712D01*
X141767054Y-59117407D01*
X141650000Y-59094123D01*
X140850000Y-59094123D01*
X140732946Y-59117407D01*
X140633712Y-59183712D01*
X140567407Y-59282946D01*
X140560022Y-59320072D01*
X140396518Y-59156568D01*
X140139239Y-59050000D01*
X139860761Y-59050000D01*
X139603482Y-59156568D01*
X139439978Y-59320072D01*
X139432593Y-59282946D01*
X139366288Y-59183712D01*
X139267054Y-59117407D01*
X139150000Y-59094123D01*
X138350000Y-59094123D01*
X138232946Y-59117407D01*
X138133712Y-59183712D01*
X138067407Y-59282946D01*
X138060022Y-59320072D01*
X137896518Y-59156568D01*
X137639239Y-59050000D01*
X137360761Y-59050000D01*
X137103482Y-59156568D01*
X136939978Y-59320072D01*
X136932593Y-59282946D01*
X136866288Y-59183712D01*
X136767054Y-59117407D01*
X136650000Y-59094123D01*
X136596854Y-59094123D01*
X136520359Y-58979641D01*
X136489052Y-58958723D01*
X136436207Y-58905877D01*
X136650000Y-58905877D01*
X136767054Y-58882593D01*
X136866288Y-58816288D01*
X136932593Y-58717054D01*
X136955877Y-58600000D01*
X136955877Y-58575000D01*
X138044123Y-58575000D01*
X138044123Y-58600000D01*
X138067407Y-58717054D01*
X138133712Y-58816288D01*
X138232946Y-58882593D01*
X138350000Y-58905877D01*
X139150000Y-58905877D01*
X139267054Y-58882593D01*
X139366288Y-58816288D01*
X139432593Y-58717054D01*
X139455877Y-58600000D01*
X139455877Y-58575000D01*
X140544123Y-58575000D01*
X140544123Y-58600000D01*
X140567407Y-58717054D01*
X140633712Y-58816288D01*
X140732946Y-58882593D01*
X140850000Y-58905877D01*
X141650000Y-58905877D01*
X141767054Y-58882593D01*
X141866288Y-58816288D01*
X141932593Y-58717054D01*
X141955877Y-58600000D01*
X141955877Y-58575000D01*
X143044123Y-58575000D01*
X143044123Y-58600000D01*
X143067407Y-58717054D01*
X143133712Y-58816288D01*
X143232946Y-58882593D01*
X143350000Y-58905877D01*
X144150000Y-58905877D01*
X144267054Y-58882593D01*
X144366288Y-58816288D01*
X144432593Y-58717054D01*
X144455877Y-58600000D01*
X144455877Y-58575000D01*
X145544123Y-58575000D01*
X145544123Y-58600000D01*
X145567407Y-58717054D01*
X145633712Y-58816288D01*
X145732946Y-58882593D01*
X145850000Y-58905877D01*
X146650000Y-58905877D01*
X146767054Y-58882593D01*
X146866288Y-58816288D01*
X146932593Y-58717054D01*
X146955877Y-58600000D01*
X146955877Y-58575000D01*
X148044123Y-58575000D01*
X148044123Y-58600000D01*
X148067407Y-58717054D01*
X148133712Y-58816288D01*
X148232946Y-58882593D01*
X148350000Y-58905877D01*
X149150000Y-58905877D01*
X149267054Y-58882593D01*
X149366288Y-58816288D01*
X149432593Y-58717054D01*
X149455877Y-58600000D01*
X149455877Y-58575000D01*
X150544123Y-58575000D01*
X150544123Y-58600000D01*
X150567407Y-58717054D01*
X150633712Y-58816288D01*
X150732946Y-58882593D01*
X150850000Y-58905877D01*
X151650000Y-58905877D01*
X151767054Y-58882593D01*
X151866288Y-58816288D01*
X151932593Y-58717054D01*
X151955877Y-58600000D01*
X151955877Y-58575000D01*
X153044123Y-58575000D01*
X153044123Y-58600000D01*
X153067407Y-58717054D01*
X153133712Y-58816288D01*
X153232946Y-58882593D01*
X153350000Y-58905877D01*
X154150000Y-58905877D01*
X154267054Y-58882593D01*
X154366288Y-58816288D01*
X154432593Y-58717054D01*
X154450904Y-58625000D01*
X162647655Y-58625000D01*
X162656568Y-58646518D01*
X162853482Y-58843432D01*
X163110761Y-58950000D01*
X163389239Y-58950000D01*
X163646518Y-58843432D01*
X163843432Y-58646518D01*
X163950000Y-58389239D01*
X163950000Y-58110761D01*
X163843432Y-57853482D01*
X163646518Y-57656568D01*
X163389239Y-57550000D01*
X163110761Y-57550000D01*
X162853482Y-57656568D01*
X162656568Y-57853482D01*
X162647655Y-57875000D01*
X154455877Y-57875000D01*
X154455877Y-57800000D01*
X154432593Y-57682946D01*
X154366288Y-57583712D01*
X154267054Y-57517407D01*
X154150000Y-57494123D01*
X153350000Y-57494123D01*
X153232946Y-57517407D01*
X153133712Y-57583712D01*
X153067407Y-57682946D01*
X153044123Y-57800000D01*
X153044123Y-57825000D01*
X151955877Y-57825000D01*
X151955877Y-57800000D01*
X151932593Y-57682946D01*
X151866288Y-57583712D01*
X151767054Y-57517407D01*
X151650000Y-57494123D01*
X150850000Y-57494123D01*
X150732946Y-57517407D01*
X150633712Y-57583712D01*
X150567407Y-57682946D01*
X150544123Y-57800000D01*
X150544123Y-57825000D01*
X149455877Y-57825000D01*
X149455877Y-57800000D01*
X149432593Y-57682946D01*
X149366288Y-57583712D01*
X149267054Y-57517407D01*
X149150000Y-57494123D01*
X148350000Y-57494123D01*
X148232946Y-57517407D01*
X148133712Y-57583712D01*
X148067407Y-57682946D01*
X148044123Y-57800000D01*
X148044123Y-57825000D01*
X146955877Y-57825000D01*
X146955877Y-57800000D01*
X146932593Y-57682946D01*
X146866288Y-57583712D01*
X146767054Y-57517407D01*
X146650000Y-57494123D01*
X145850000Y-57494123D01*
X145732946Y-57517407D01*
X145633712Y-57583712D01*
X145567407Y-57682946D01*
X145544123Y-57800000D01*
X145544123Y-57825000D01*
X144455877Y-57825000D01*
X144455877Y-57800000D01*
X144432593Y-57682946D01*
X144366288Y-57583712D01*
X144267054Y-57517407D01*
X144150000Y-57494123D01*
X143350000Y-57494123D01*
X143232946Y-57517407D01*
X143133712Y-57583712D01*
X143067407Y-57682946D01*
X143044123Y-57800000D01*
X143044123Y-57825000D01*
X141955877Y-57825000D01*
X141955877Y-57800000D01*
X141932593Y-57682946D01*
X141866288Y-57583712D01*
X141767054Y-57517407D01*
X141650000Y-57494123D01*
X140850000Y-57494123D01*
X140732946Y-57517407D01*
X140633712Y-57583712D01*
X140567407Y-57682946D01*
X140544123Y-57800000D01*
X140544123Y-57825000D01*
X139455877Y-57825000D01*
X139455877Y-57800000D01*
X139432593Y-57682946D01*
X139366288Y-57583712D01*
X139267054Y-57517407D01*
X139150000Y-57494123D01*
X138350000Y-57494123D01*
X138232946Y-57517407D01*
X138133712Y-57583712D01*
X138067407Y-57682946D01*
X138044123Y-57800000D01*
X138044123Y-57825000D01*
X136955877Y-57825000D01*
X136955877Y-57800000D01*
X136932593Y-57682946D01*
X136866288Y-57583712D01*
X136767054Y-57517407D01*
X136650000Y-57494123D01*
X135850000Y-57494123D01*
X135732946Y-57517407D01*
X135633712Y-57583712D01*
X135567407Y-57682946D01*
X135544123Y-57800000D01*
X135544123Y-57825000D01*
X134455877Y-57825000D01*
X134455877Y-57800000D01*
X134432593Y-57682946D01*
X134366288Y-57583712D01*
X134267054Y-57517407D01*
X134150000Y-57494123D01*
X133350000Y-57494123D01*
X133232946Y-57517407D01*
X133133712Y-57583712D01*
X133067407Y-57682946D01*
X133044123Y-57800000D01*
X133044123Y-58600000D01*
X133049096Y-58625000D01*
X131950904Y-58625000D01*
X131955877Y-58600000D01*
X131955877Y-57800000D01*
X131932593Y-57682946D01*
X131866288Y-57583712D01*
X131767054Y-57517407D01*
X131650000Y-57494123D01*
X130850000Y-57494123D01*
X130732946Y-57517407D01*
X130633712Y-57583712D01*
X130567407Y-57682946D01*
X130544123Y-57800000D01*
X130544123Y-57825000D01*
X129455877Y-57825000D01*
X129455877Y-57800000D01*
X129432593Y-57682946D01*
X129366288Y-57583712D01*
X129267054Y-57517407D01*
X129150000Y-57494123D01*
X128350000Y-57494123D01*
X128232946Y-57517407D01*
X128133712Y-57583712D01*
X128067407Y-57682946D01*
X128044123Y-57800000D01*
X128044123Y-57825000D01*
X126955877Y-57825000D01*
X126955877Y-57800000D01*
X126932593Y-57682946D01*
X126866288Y-57583712D01*
X126767054Y-57517407D01*
X126650000Y-57494123D01*
X125850000Y-57494123D01*
X125732946Y-57517407D01*
X125633712Y-57583712D01*
X125567407Y-57682946D01*
X125544123Y-57800000D01*
X125544123Y-57825000D01*
X124455877Y-57825000D01*
X124455877Y-57800000D01*
X124432593Y-57682946D01*
X124366288Y-57583712D01*
X124267054Y-57517407D01*
X124150000Y-57494123D01*
X123350000Y-57494123D01*
X123232946Y-57517407D01*
X123133712Y-57583712D01*
X123067407Y-57682946D01*
X123044123Y-57800000D01*
X123044123Y-57825000D01*
X121955877Y-57825000D01*
X121955877Y-57800000D01*
X121932593Y-57682946D01*
X121866288Y-57583712D01*
X121767054Y-57517407D01*
X121650000Y-57494123D01*
X120850000Y-57494123D01*
X120732946Y-57517407D01*
X120633712Y-57583712D01*
X120567407Y-57682946D01*
X120544123Y-57800000D01*
X120544123Y-57825000D01*
X119455877Y-57825000D01*
X119455877Y-57800000D01*
X119432593Y-57682946D01*
X119366288Y-57583712D01*
X119267054Y-57517407D01*
X119150000Y-57494123D01*
X118350000Y-57494123D01*
X118232946Y-57517407D01*
X118133712Y-57583712D01*
X118067407Y-57682946D01*
X118044123Y-57800000D01*
X118044123Y-57825000D01*
X116955877Y-57825000D01*
X116955877Y-57800000D01*
X116932593Y-57682946D01*
X116866288Y-57583712D01*
X116767054Y-57517407D01*
X116650000Y-57494123D01*
X115850000Y-57494123D01*
X115732946Y-57517407D01*
X115633712Y-57583712D01*
X115567407Y-57682946D01*
X115544123Y-57800000D01*
X115544123Y-57825000D01*
X114455877Y-57825000D01*
X114455877Y-57800000D01*
X114432593Y-57682946D01*
X114366288Y-57583712D01*
X114267054Y-57517407D01*
X114150000Y-57494123D01*
X113350000Y-57494123D01*
X113232946Y-57517407D01*
X113133712Y-57583712D01*
X113067407Y-57682946D01*
X113044123Y-57800000D01*
X113044123Y-57825000D01*
X111955877Y-57825000D01*
X111955877Y-57800000D01*
X111932593Y-57682946D01*
X111866288Y-57583712D01*
X111767054Y-57517407D01*
X111650000Y-57494123D01*
X110850000Y-57494123D01*
X110732946Y-57517407D01*
X110633712Y-57583712D01*
X110567407Y-57682946D01*
X110544123Y-57800000D01*
X110544123Y-57825000D01*
X108564950Y-57825000D01*
X108396518Y-57656568D01*
X108139239Y-57550000D01*
X107860761Y-57550000D01*
X107603482Y-57656568D01*
X107406568Y-57853482D01*
X107300000Y-58110761D01*
X107300000Y-58389239D01*
X107406568Y-58646518D01*
X107603482Y-58843432D01*
X107860761Y-58950000D01*
X108139239Y-58950000D01*
X108396518Y-58843432D01*
X108593432Y-58646518D01*
X108623056Y-58575000D01*
X110544123Y-58575000D01*
X110544123Y-58600000D01*
X110567407Y-58717054D01*
X110633712Y-58816288D01*
X110732946Y-58882593D01*
X110850000Y-58905877D01*
X111063794Y-58905877D01*
X111010948Y-58958723D01*
X110979642Y-58979641D01*
X110958723Y-59010948D01*
X110958721Y-59010950D01*
X110903146Y-59094123D01*
X110850000Y-59094123D01*
X110732946Y-59117407D01*
X110633712Y-59183712D01*
X110567407Y-59282946D01*
X110544123Y-59400000D01*
X110544123Y-60200000D01*
X110567407Y-60317054D01*
X110633712Y-60416288D01*
X110732946Y-60482593D01*
X110820455Y-60500000D01*
X110732946Y-60517407D01*
X110633712Y-60583712D01*
X110567407Y-60682946D01*
X110544123Y-60800000D01*
X110544123Y-60875000D01*
X107352345Y-60875000D01*
X107343432Y-60853482D01*
X107146518Y-60656568D01*
X106889239Y-60550000D01*
X106610761Y-60550000D01*
X106353482Y-60656568D01*
X106156568Y-60853482D01*
X106050000Y-61110761D01*
X106050000Y-61389239D01*
X106156568Y-61646518D01*
X106353482Y-61843432D01*
X106610761Y-61950000D01*
X106889239Y-61950000D01*
X107146518Y-61843432D01*
X107343432Y-61646518D01*
X107352345Y-61625000D01*
X110549096Y-61625000D01*
X110567407Y-61717054D01*
X110633712Y-61816288D01*
X110732946Y-61882593D01*
X110850000Y-61905877D01*
X111063794Y-61905877D01*
X111010948Y-61958723D01*
X110979642Y-61979641D01*
X110958723Y-62010948D01*
X110958721Y-62010950D01*
X110903146Y-62094123D01*
X110850000Y-62094123D01*
X110732946Y-62117407D01*
X110633712Y-62183712D01*
X110567407Y-62282946D01*
X110544123Y-62400000D01*
X110544123Y-62425000D01*
X110373056Y-62425000D01*
X110343432Y-62353482D01*
X110146518Y-62156568D01*
X109889239Y-62050000D01*
X109610761Y-62050000D01*
X109353482Y-62156568D01*
X109156568Y-62353482D01*
X109050000Y-62610761D01*
X109050000Y-62889239D01*
X109156568Y-63146518D01*
X109353482Y-63343432D01*
X109610761Y-63450000D01*
X109889239Y-63450000D01*
X110146518Y-63343432D01*
X110314950Y-63175000D01*
X110544123Y-63175000D01*
X110544123Y-63200000D01*
X110567407Y-63317054D01*
X110633712Y-63416288D01*
X110732946Y-63482593D01*
X110820455Y-63500000D01*
X110732946Y-63517407D01*
X110633712Y-63583712D01*
X110567407Y-63682946D01*
X110544123Y-63800000D01*
X110544123Y-63875000D01*
X106102345Y-63875000D01*
X106093432Y-63853482D01*
X105896518Y-63656568D01*
X105639239Y-63550000D01*
X105360761Y-63550000D01*
X105103482Y-63656568D01*
X104906568Y-63853482D01*
X104800000Y-64110761D01*
X104800000Y-64389239D01*
X104906568Y-64646518D01*
X105103482Y-64843432D01*
X105360761Y-64950000D01*
X105639239Y-64950000D01*
X105896518Y-64843432D01*
X106093432Y-64646518D01*
X106102345Y-64625000D01*
X110549096Y-64625000D01*
X110567407Y-64717054D01*
X110633712Y-64816288D01*
X110732946Y-64882593D01*
X110850000Y-64905877D01*
X111063794Y-64905877D01*
X111010948Y-64958723D01*
X110979642Y-64979641D01*
X110958723Y-65010948D01*
X110958721Y-65010950D01*
X110903146Y-65094123D01*
X110850000Y-65094123D01*
X110732946Y-65117407D01*
X110633712Y-65183712D01*
X110567407Y-65282946D01*
X110544123Y-65400000D01*
X110544123Y-65425000D01*
X110373056Y-65425000D01*
X110343432Y-65353482D01*
X110146518Y-65156568D01*
X109889239Y-65050000D01*
X109610761Y-65050000D01*
X109353482Y-65156568D01*
X109156568Y-65353482D01*
X109050000Y-65610761D01*
X109050000Y-65889239D01*
X109156568Y-66146518D01*
X109353482Y-66343432D01*
X109610761Y-66450000D01*
X109889239Y-66450000D01*
X110146518Y-66343432D01*
X110314950Y-66175000D01*
X110544123Y-66175000D01*
X110544123Y-66200000D01*
X110567407Y-66317054D01*
X110633712Y-66416288D01*
X110732946Y-66482593D01*
X110820455Y-66500000D01*
X110732946Y-66517407D01*
X110633712Y-66583712D01*
X110567407Y-66682946D01*
X110544123Y-66800000D01*
X110544123Y-66875000D01*
X104852345Y-66875000D01*
X104843432Y-66853482D01*
X104646518Y-66656568D01*
X104389239Y-66550000D01*
X104110761Y-66550000D01*
X103853482Y-66656568D01*
X103656568Y-66853482D01*
X103550000Y-67110761D01*
X103550000Y-67389239D01*
X103656568Y-67646518D01*
X103853482Y-67843432D01*
X104110761Y-67950000D01*
X104389239Y-67950000D01*
X104646518Y-67843432D01*
X104843432Y-67646518D01*
X104852345Y-67625000D01*
X110549096Y-67625000D01*
X110567407Y-67717054D01*
X110633712Y-67816288D01*
X110732946Y-67882593D01*
X110850000Y-67905877D01*
X111063794Y-67905877D01*
X111010948Y-67958723D01*
X110979642Y-67979641D01*
X110958723Y-68010948D01*
X110958721Y-68010950D01*
X110903146Y-68094123D01*
X110850000Y-68094123D01*
X110732946Y-68117407D01*
X110633712Y-68183712D01*
X110567407Y-68282946D01*
X110544123Y-68400000D01*
X110544123Y-68425000D01*
X110373056Y-68425000D01*
X110343432Y-68353482D01*
X110146518Y-68156568D01*
X109889239Y-68050000D01*
X109610761Y-68050000D01*
X109353482Y-68156568D01*
X109156568Y-68353482D01*
X109050000Y-68610761D01*
X109050000Y-68889239D01*
X109156568Y-69146518D01*
X109353482Y-69343432D01*
X109610761Y-69450000D01*
X109889239Y-69450000D01*
X110146518Y-69343432D01*
X110314950Y-69175000D01*
X110544123Y-69175000D01*
X110544123Y-69200000D01*
X110567407Y-69317054D01*
X110633712Y-69416288D01*
X110732946Y-69482593D01*
X110820455Y-69500000D01*
X110732946Y-69517407D01*
X110633712Y-69583712D01*
X110567407Y-69682946D01*
X110544123Y-69800000D01*
X110544123Y-69875000D01*
X103602345Y-69875000D01*
X103593432Y-69853482D01*
X103396518Y-69656568D01*
X103139239Y-69550000D01*
X102860761Y-69550000D01*
X102603482Y-69656568D01*
X102406568Y-69853482D01*
X102300000Y-70110761D01*
X100350000Y-70110761D01*
X100350000Y-55350000D01*
X129410050Y-55350000D01*
X129406568Y-55353482D01*
X129406568Y-55353482D01*
G37*
X129406568Y-55353482D02*
X129300000Y-55610761D01*
X129300000Y-55889239D01*
X129345879Y-56000000D01*
X128102345Y-56000000D01*
X128093432Y-55978482D01*
X127896518Y-55781568D01*
X127639239Y-55675000D01*
X127360761Y-55675000D01*
X127103482Y-55781568D01*
X126906568Y-55978482D01*
X126800000Y-56235761D01*
X126800000Y-56514239D01*
X126845879Y-56625000D01*
X125602345Y-56625000D01*
X125593432Y-56603482D01*
X125396518Y-56406568D01*
X125139239Y-56300000D01*
X124860761Y-56300000D01*
X124603482Y-56406568D01*
X124406568Y-56603482D01*
X124300000Y-56860761D01*
X124300000Y-57139239D01*
X124406568Y-57396518D01*
X124603482Y-57593432D01*
X124860761Y-57700000D01*
X125139239Y-57700000D01*
X125396518Y-57593432D01*
X125593432Y-57396518D01*
X125602345Y-57375000D01*
X146897655Y-57375000D01*
X146906568Y-57396518D01*
X147103482Y-57593432D01*
X147360761Y-57700000D01*
X147639239Y-57700000D01*
X147896518Y-57593432D01*
X148093432Y-57396518D01*
X148200000Y-57139239D01*
X148200000Y-56860761D01*
X148154121Y-56750000D01*
X149345879Y-56750000D01*
X149406568Y-56896518D01*
X149603482Y-57093432D01*
X149860761Y-57200000D01*
X150139239Y-57200000D01*
X150396518Y-57093432D01*
X150593432Y-56896518D01*
X150700000Y-56639239D01*
X150700000Y-56360761D01*
X150602345Y-56125000D01*
X151897655Y-56125000D01*
X151906568Y-56146518D01*
X152103482Y-56343432D01*
X152360761Y-56450000D01*
X152639239Y-56450000D01*
X152896518Y-56343432D01*
X153093432Y-56146518D01*
X153200000Y-55889239D01*
X153200000Y-55610761D01*
X153093432Y-55353482D01*
X153089950Y-55350000D01*
X164650000Y-55350000D01*
X164650000Y-99650000D01*
X100350000Y-99650000D01*
X100350000Y-96600000D01*
X109944123Y-96600000D01*
X109944123Y-97900000D01*
X109967407Y-98017054D01*
X110033712Y-98116288D01*
X110132946Y-98182593D01*
X110250000Y-98205877D01*
X111800000Y-98205877D01*
X111917054Y-98182593D01*
X112016288Y-98116288D01*
X112082593Y-98017054D01*
X112105877Y-97900000D01*
X112105877Y-97625000D01*
X114397655Y-97625000D01*
X114406568Y-97646518D01*
X114603482Y-97843432D01*
X114860761Y-97950000D01*
X115139239Y-97950000D01*
X115396518Y-97843432D01*
X115593432Y-97646518D01*
X115602345Y-97625000D01*
X117894123Y-97625000D01*
X117894123Y-97900000D01*
X117917407Y-98017054D01*
X117983712Y-98116288D01*
X118082946Y-98182593D01*
X118200000Y-98205877D01*
X119750000Y-98205877D01*
X119867054Y-98182593D01*
X119966288Y-98116288D01*
X120032593Y-98017054D01*
X120055877Y-97900000D01*
X120055877Y-96600000D01*
X127444123Y-96600000D01*
X127444123Y-97900000D01*
X127467407Y-98017054D01*
X127533712Y-98116288D01*
X127632946Y-98182593D01*
X127750000Y-98205877D01*
X129300000Y-98205877D01*
X129417054Y-98182593D01*
X129516288Y-98116288D01*
X129582593Y-98017054D01*
X129605877Y-97900000D01*
X129605877Y-97625000D01*
X131897655Y-97625000D01*
X131906568Y-97646518D01*
X132103482Y-97843432D01*
X132360761Y-97950000D01*
X132639239Y-97950000D01*
X132896518Y-97843432D01*
X133093432Y-97646518D01*
X133102345Y-97625000D01*
X135394123Y-97625000D01*
X135394123Y-97900000D01*
X135417407Y-98017054D01*
X135483712Y-98116288D01*
X135582946Y-98182593D01*
X135700000Y-98205877D01*
X137250000Y-98205877D01*
X137367054Y-98182593D01*
X137466288Y-98116288D01*
X137532593Y-98017054D01*
X137555877Y-97900000D01*
X137555877Y-96600000D01*
X144944123Y-96600000D01*
X144944123Y-97900000D01*
X144967407Y-98017054D01*
X145033712Y-98116288D01*
X145132946Y-98182593D01*
X145250000Y-98205877D01*
X146800000Y-98205877D01*
X146917054Y-98182593D01*
X147016288Y-98116288D01*
X147082593Y-98017054D01*
X147105877Y-97900000D01*
X147105877Y-97625000D01*
X149397655Y-97625000D01*
X149406568Y-97646518D01*
X149603482Y-97843432D01*
X149860761Y-97950000D01*
X150139239Y-97950000D01*
X150396518Y-97843432D01*
X150593432Y-97646518D01*
X150602345Y-97625000D01*
X152894123Y-97625000D01*
X152894123Y-97900000D01*
X152917407Y-98017054D01*
X152983712Y-98116288D01*
X153082946Y-98182593D01*
X153200000Y-98205877D01*
X154750000Y-98205877D01*
X154867054Y-98182593D01*
X154966288Y-98116288D01*
X155032593Y-98017054D01*
X155055877Y-97900000D01*
X155055877Y-96600000D01*
X155032593Y-96482946D01*
X154966288Y-96383712D01*
X154867054Y-96317407D01*
X154750000Y-96294123D01*
X153200000Y-96294123D01*
X153082946Y-96317407D01*
X152983712Y-96383712D01*
X152917407Y-96482946D01*
X152894123Y-96600000D01*
X152894123Y-96875000D01*
X150602345Y-96875000D01*
X150593432Y-96853482D01*
X150396518Y-96656568D01*
X150139239Y-96550000D01*
X149860761Y-96550000D01*
X149603482Y-96656568D01*
X149406568Y-96853482D01*
X149397655Y-96875000D01*
X147105877Y-96875000D01*
X147105877Y-96600000D01*
X147082593Y-96482946D01*
X147016288Y-96383712D01*
X146917054Y-96317407D01*
X146800000Y-96294123D01*
X145250000Y-96294123D01*
X145132946Y-96317407D01*
X145033712Y-96383712D01*
X144967407Y-96482946D01*
X144944123Y-96600000D01*
X137555877Y-96600000D01*
X137532593Y-96482946D01*
X137466288Y-96383712D01*
X137367054Y-96317407D01*
X137250000Y-96294123D01*
X135700000Y-96294123D01*
X135582946Y-96317407D01*
X135483712Y-96383712D01*
X135417407Y-96482946D01*
X135394123Y-96600000D01*
X135394123Y-96875000D01*
X133102345Y-96875000D01*
X133093432Y-96853482D01*
X132896518Y-96656568D01*
X132639239Y-96550000D01*
X132360761Y-96550000D01*
X132103482Y-96656568D01*
X131906568Y-96853482D01*
X131897655Y-96875000D01*
X129605877Y-96875000D01*
X129605877Y-96600000D01*
X129582593Y-96482946D01*
X129516288Y-96383712D01*
X129417054Y-96317407D01*
X129300000Y-96294123D01*
X127750000Y-96294123D01*
X127632946Y-96317407D01*
X127533712Y-96383712D01*
X127467407Y-96482946D01*
X127444123Y-96600000D01*
X120055877Y-96600000D01*
X120032593Y-96482946D01*
X119966288Y-96383712D01*
X119867054Y-96317407D01*
X119750000Y-96294123D01*
X118200000Y-96294123D01*
X118082946Y-96317407D01*
X117983712Y-96383712D01*
X117917407Y-96482946D01*
X117894123Y-96600000D01*
X117894123Y-96875000D01*
X115602345Y-96875000D01*
X115593432Y-96853482D01*
X115396518Y-96656568D01*
X115139239Y-96550000D01*
X114860761Y-96550000D01*
X114603482Y-96656568D01*
X114406568Y-96853482D01*
X114397655Y-96875000D01*
X112105877Y-96875000D01*
X112105877Y-96600000D01*
X112082593Y-96482946D01*
X112016288Y-96383712D01*
X111917054Y-96317407D01*
X111800000Y-96294123D01*
X110250000Y-96294123D01*
X110132946Y-96317407D01*
X110033712Y-96383712D01*
X109967407Y-96482946D01*
X109944123Y-96600000D01*
X100350000Y-96600000D01*
X100350000Y-93204473D01*
X100371417Y-93312144D01*
X100548233Y-93576767D01*
X100812856Y-93753583D01*
X101046211Y-93800000D01*
X101753789Y-93800000D01*
X101987144Y-93753583D01*
X102251767Y-93576767D01*
X102428583Y-93312144D01*
X102490672Y-93000000D01*
X102428583Y-92687856D01*
X102251767Y-92423233D01*
X101987144Y-92246417D01*
X101753789Y-92200000D01*
X101046211Y-92200000D01*
X100812856Y-92246417D01*
X100548233Y-92423233D01*
X100371417Y-92687856D01*
X100350000Y-92795527D01*
X100350000Y-88452000D01*
X102817000Y-88452000D01*
X102817000Y-88520938D01*
X102909562Y-88744404D01*
X103080595Y-88915437D01*
X103119123Y-88931396D01*
X103119123Y-89050000D01*
X103142407Y-89167054D01*
X103147716Y-89175000D01*
X103142407Y-89182946D01*
X103119123Y-89300000D01*
X103119123Y-89700000D01*
X103142407Y-89817054D01*
X103147716Y-89825000D01*
X103142407Y-89832946D01*
X103119123Y-89950000D01*
X103119123Y-90350000D01*
X103142407Y-90467054D01*
X103147716Y-90475000D01*
X103142407Y-90482946D01*
X103119123Y-90600000D01*
X103119123Y-91000000D01*
X103142407Y-91117054D01*
X103208712Y-91216288D01*
X103307946Y-91282593D01*
X103425000Y-91305877D01*
X103531487Y-91305877D01*
X103369966Y-91547611D01*
X103325000Y-91773671D01*
X103325000Y-92226330D01*
X103369966Y-92452390D01*
X103541256Y-92708744D01*
X103797611Y-92880034D01*
X104100000Y-92940183D01*
X104402390Y-92880034D01*
X104658744Y-92708744D01*
X104830034Y-92452390D01*
X104875000Y-92226329D01*
X104875000Y-92100000D01*
X109944123Y-92100000D01*
X109944123Y-93400000D01*
X109967407Y-93517054D01*
X110033712Y-93616288D01*
X110132946Y-93682593D01*
X110250000Y-93705877D01*
X111800000Y-93705877D01*
X111917054Y-93682593D01*
X112016288Y-93616288D01*
X112082593Y-93517054D01*
X112105877Y-93400000D01*
X112105877Y-93125000D01*
X117894123Y-93125000D01*
X117894123Y-93400000D01*
X117917407Y-93517054D01*
X117983712Y-93616288D01*
X118082946Y-93682593D01*
X118200000Y-93705877D01*
X119750000Y-93705877D01*
X119867054Y-93682593D01*
X119966288Y-93616288D01*
X120032593Y-93517054D01*
X120055877Y-93400000D01*
X120055877Y-92100000D01*
X120032593Y-91982946D01*
X119966288Y-91883712D01*
X119867054Y-91817407D01*
X119750000Y-91794123D01*
X119385845Y-91794123D01*
X119450000Y-91639239D01*
X119450000Y-91360761D01*
X120050000Y-91360761D01*
X120050000Y-91639239D01*
X120156568Y-91896518D01*
X120353482Y-92093432D01*
X120610761Y-92200000D01*
X120889239Y-92200000D01*
X120910757Y-92191087D01*
X121708722Y-92989052D01*
X121729641Y-93020359D01*
X121760948Y-93041278D01*
X121760949Y-93041279D01*
X121853681Y-93103241D01*
X121853682Y-93103241D01*
X121853683Y-93103242D01*
X121963069Y-93125000D01*
X121963073Y-93125000D01*
X122000000Y-93132345D01*
X122036926Y-93125000D01*
X127444123Y-93125000D01*
X127444123Y-93400000D01*
X127467407Y-93517054D01*
X127533712Y-93616288D01*
X127632946Y-93682593D01*
X127750000Y-93705877D01*
X129300000Y-93705877D01*
X129417054Y-93682593D01*
X129516288Y-93616288D01*
X129582593Y-93517054D01*
X129605877Y-93400000D01*
X129605877Y-93125000D01*
X135394123Y-93125000D01*
X135394123Y-93400000D01*
X135417407Y-93517054D01*
X135483712Y-93616288D01*
X135582946Y-93682593D01*
X135700000Y-93705877D01*
X137250000Y-93705877D01*
X137367054Y-93682593D01*
X137466288Y-93616288D01*
X137532593Y-93517054D01*
X137555877Y-93400000D01*
X137555877Y-92100000D01*
X144944123Y-92100000D01*
X144944123Y-93400000D01*
X144967407Y-93517054D01*
X145033712Y-93616288D01*
X145132946Y-93682593D01*
X145250000Y-93705877D01*
X146800000Y-93705877D01*
X146917054Y-93682593D01*
X147016288Y-93616288D01*
X147082593Y-93517054D01*
X147105877Y-93400000D01*
X147105877Y-93125000D01*
X152894123Y-93125000D01*
X152894123Y-93400000D01*
X152917407Y-93517054D01*
X152983712Y-93616288D01*
X153082946Y-93682593D01*
X153200000Y-93705877D01*
X154750000Y-93705877D01*
X154867054Y-93682593D01*
X154966288Y-93616288D01*
X155032593Y-93517054D01*
X155055877Y-93400000D01*
X155055877Y-92100000D01*
X155032593Y-91982946D01*
X154966288Y-91883712D01*
X154867054Y-91817407D01*
X154750000Y-91794123D01*
X153200000Y-91794123D01*
X153082946Y-91817407D01*
X152983712Y-91883712D01*
X152917407Y-91982946D01*
X152894123Y-92100000D01*
X152894123Y-92375000D01*
X147105877Y-92375000D01*
X147105877Y-92100000D01*
X147082593Y-91982946D01*
X147016288Y-91883712D01*
X146917054Y-91817407D01*
X146800000Y-91794123D01*
X146375000Y-91794123D01*
X146375000Y-91602345D01*
X146396518Y-91593432D01*
X146593432Y-91396518D01*
X146700000Y-91139239D01*
X146700000Y-90860761D01*
X146593432Y-90603482D01*
X146396518Y-90406568D01*
X146139239Y-90300000D01*
X145860761Y-90300000D01*
X145603482Y-90406568D01*
X145406568Y-90603482D01*
X145300000Y-90860761D01*
X145300000Y-91139239D01*
X145406568Y-91396518D01*
X145603482Y-91593432D01*
X145625000Y-91602345D01*
X145625000Y-91794123D01*
X145250000Y-91794123D01*
X145132946Y-91817407D01*
X145033712Y-91883712D01*
X144967407Y-91982946D01*
X144944123Y-92100000D01*
X137555877Y-92100000D01*
X137532593Y-91982946D01*
X137466288Y-91883712D01*
X137367054Y-91817407D01*
X137250000Y-91794123D01*
X135700000Y-91794123D01*
X135582946Y-91817407D01*
X135483712Y-91883712D01*
X135417407Y-91982946D01*
X135394123Y-92100000D01*
X135394123Y-92375000D01*
X129605877Y-92375000D01*
X129605877Y-92100000D01*
X129582593Y-91982946D01*
X129516288Y-91883712D01*
X129417054Y-91817407D01*
X129300000Y-91794123D01*
X127750000Y-91794123D01*
X127632946Y-91817407D01*
X127533712Y-91883712D01*
X127467407Y-91982946D01*
X127444123Y-92100000D01*
X127444123Y-92375000D01*
X122155330Y-92375000D01*
X121441087Y-91660757D01*
X121450000Y-91639239D01*
X121450000Y-91360761D01*
X121343432Y-91103482D01*
X121146518Y-90906568D01*
X120889239Y-90800000D01*
X120610761Y-90800000D01*
X120353482Y-90906568D01*
X120156568Y-91103482D01*
X120050000Y-91360761D01*
X119450000Y-91360761D01*
X119343432Y-91103482D01*
X119146518Y-90906568D01*
X118889239Y-90800000D01*
X118610761Y-90800000D01*
X118353482Y-90906568D01*
X118156568Y-91103482D01*
X118050000Y-91360761D01*
X118050000Y-91639239D01*
X118120689Y-91809899D01*
X118082946Y-91817407D01*
X117983712Y-91883712D01*
X117917407Y-91982946D01*
X117894123Y-92100000D01*
X117894123Y-92375000D01*
X112105877Y-92375000D01*
X112105877Y-92100000D01*
X112082593Y-91982946D01*
X112016288Y-91883712D01*
X111917054Y-91817407D01*
X111800000Y-91794123D01*
X110250000Y-91794123D01*
X110132946Y-91817407D01*
X110033712Y-91883712D01*
X109967407Y-91982946D01*
X109944123Y-92100000D01*
X104875000Y-92100000D01*
X104875000Y-91773670D01*
X104830034Y-91547610D01*
X104668513Y-91305877D01*
X104775000Y-91305877D01*
X104892054Y-91282593D01*
X104991288Y-91216288D01*
X105057593Y-91117054D01*
X105080877Y-91000000D01*
X105080877Y-90600000D01*
X105057593Y-90482946D01*
X105052284Y-90475000D01*
X105057593Y-90467054D01*
X105080877Y-90350000D01*
X105080877Y-89950000D01*
X105057593Y-89832946D01*
X105052284Y-89825000D01*
X105057593Y-89817054D01*
X105080877Y-89700000D01*
X105080877Y-89300000D01*
X105057593Y-89182946D01*
X105052284Y-89175000D01*
X105057593Y-89167054D01*
X105080877Y-89050000D01*
X105080877Y-88950000D01*
X130494123Y-88950000D01*
X130494123Y-90250000D01*
X130517407Y-90367054D01*
X130583712Y-90466288D01*
X130682946Y-90532593D01*
X130800000Y-90555877D01*
X134200000Y-90555877D01*
X134317054Y-90532593D01*
X134416288Y-90466288D01*
X134482593Y-90367054D01*
X134505877Y-90250000D01*
X134505877Y-89975000D01*
X135335523Y-89975000D01*
X135406568Y-90146518D01*
X135603482Y-90343432D01*
X135860761Y-90450000D01*
X136139239Y-90450000D01*
X136396518Y-90343432D01*
X136593432Y-90146518D01*
X136700000Y-89889239D01*
X136700000Y-89610761D01*
X136593432Y-89353482D01*
X136396518Y-89156568D01*
X136139239Y-89050000D01*
X135860761Y-89050000D01*
X135603482Y-89156568D01*
X135535050Y-89225000D01*
X134505877Y-89225000D01*
X134505877Y-88950000D01*
X134482593Y-88832946D01*
X134416288Y-88733712D01*
X134317054Y-88667407D01*
X134200000Y-88644123D01*
X130800000Y-88644123D01*
X130682946Y-88667407D01*
X130583712Y-88733712D01*
X130517407Y-88832946D01*
X130494123Y-88950000D01*
X105080877Y-88950000D01*
X105080877Y-88931396D01*
X105119405Y-88915437D01*
X105290438Y-88744404D01*
X105383000Y-88520938D01*
X105383000Y-88452000D01*
X105231000Y-88300000D01*
X104254000Y-88300000D01*
X104254000Y-88344123D01*
X103946000Y-88344123D01*
X103946000Y-88300000D01*
X102969000Y-88300000D01*
X102817000Y-88452000D01*
X100350000Y-88452000D01*
X100350000Y-87879062D01*
X102817000Y-87879062D01*
X102817000Y-87948000D01*
X102969000Y-88100000D01*
X103946000Y-88100000D01*
X103946000Y-88026000D01*
X104254000Y-88026000D01*
X104254000Y-88100000D01*
X105231000Y-88100000D01*
X105383000Y-87948000D01*
X105383000Y-87879062D01*
X105290438Y-87655596D01*
X105119405Y-87484563D01*
X104895939Y-87392000D01*
X104842046Y-87392000D01*
X104875000Y-87226329D01*
X104875000Y-86773670D01*
X104830034Y-86547610D01*
X104658744Y-86291256D01*
X104402389Y-86119966D01*
X104100000Y-86059817D01*
X103797610Y-86119966D01*
X103541256Y-86291256D01*
X103369966Y-86547611D01*
X103325000Y-86773671D01*
X103325000Y-87226330D01*
X103357954Y-87392000D01*
X103304061Y-87392000D01*
X103080595Y-87484563D01*
X102909562Y-87655596D01*
X102817000Y-87879062D01*
X100350000Y-87879062D01*
X100350000Y-86204473D01*
X100371417Y-86312144D01*
X100548233Y-86576767D01*
X100812856Y-86753583D01*
X101046211Y-86800000D01*
X101753789Y-86800000D01*
X101987144Y-86753583D01*
X102251767Y-86576767D01*
X102428583Y-86312144D01*
X102490672Y-86000000D01*
X102428583Y-85687856D01*
X102251767Y-85423233D01*
X101987144Y-85246417D01*
X101753789Y-85200000D01*
X101046211Y-85200000D01*
X100812856Y-85246417D01*
X100548233Y-85423233D01*
X100371417Y-85687856D01*
X100350000Y-85795527D01*
X100350000Y-78610761D01*
X102300000Y-78610761D01*
X102300000Y-78889239D01*
X102406568Y-79146518D01*
X102603482Y-79343432D01*
X102860761Y-79450000D01*
X103139239Y-79450000D01*
X103396518Y-79343432D01*
X103593432Y-79146518D01*
X103602345Y-79125000D01*
X116397655Y-79125000D01*
X116406568Y-79146518D01*
X116603482Y-79343432D01*
X116860761Y-79450000D01*
X117139239Y-79450000D01*
X117396518Y-79343432D01*
X117593432Y-79146518D01*
X117700000Y-78889239D01*
X117700000Y-78610761D01*
X117691087Y-78589243D01*
X118345283Y-77935047D01*
X118450000Y-77955877D01*
X119050000Y-77955877D01*
X119167054Y-77932593D01*
X119266288Y-77866288D01*
X119332593Y-77767054D01*
X119355877Y-77650000D01*
X119355877Y-77250000D01*
X119332593Y-77132946D01*
X119266288Y-77033712D01*
X119215834Y-77000000D01*
X119266288Y-76966288D01*
X119332593Y-76867054D01*
X119355877Y-76750000D01*
X119355877Y-76674452D01*
X119839243Y-76191087D01*
X119860761Y-76200000D01*
X120139239Y-76200000D01*
X120396518Y-76093432D01*
X120593432Y-75896518D01*
X120700000Y-75639239D01*
X120700000Y-75360761D01*
X120593432Y-75103482D01*
X120396518Y-74906568D01*
X120139239Y-74800000D01*
X119860761Y-74800000D01*
X119603482Y-74906568D01*
X119406568Y-75103482D01*
X119300000Y-75360761D01*
X119300000Y-75639239D01*
X119308913Y-75660757D01*
X118925548Y-76044123D01*
X118450000Y-76044123D01*
X118332946Y-76067407D01*
X118233712Y-76133712D01*
X118167407Y-76232946D01*
X118144123Y-76350000D01*
X118144123Y-76750000D01*
X118167407Y-76867054D01*
X118233712Y-76966288D01*
X118284166Y-77000000D01*
X118233712Y-77033712D01*
X118197396Y-77088063D01*
X118153683Y-77096758D01*
X118153681Y-77096759D01*
X118153682Y-77096759D01*
X118060949Y-77158721D01*
X118060948Y-77158722D01*
X118029641Y-77179641D01*
X118008722Y-77210948D01*
X117160757Y-78058913D01*
X117139239Y-78050000D01*
X116860761Y-78050000D01*
X116603482Y-78156568D01*
X116406568Y-78353482D01*
X116397655Y-78375000D01*
X103602345Y-78375000D01*
X103593432Y-78353482D01*
X103396518Y-78156568D01*
X103139239Y-78050000D01*
X102860761Y-78050000D01*
X102603482Y-78156568D01*
X102406568Y-78353482D01*
X102300000Y-78610761D01*
X100350000Y-78610761D01*
X100350000Y-70110761D01*
X102300000Y-70110761D01*
X102300000Y-70389239D01*
X102406568Y-70646518D01*
X102603482Y-70843432D01*
X102860761Y-70950000D01*
X103139239Y-70950000D01*
X103396518Y-70843432D01*
X103593432Y-70646518D01*
X103602345Y-70625000D01*
X110549096Y-70625000D01*
X110567407Y-70717054D01*
X110633712Y-70816288D01*
X110732946Y-70882593D01*
X110850000Y-70905877D01*
X111063794Y-70905877D01*
X111010948Y-70958723D01*
X110979642Y-70979641D01*
X110958723Y-71010948D01*
X110958721Y-71010950D01*
X110903146Y-71094123D01*
X110850000Y-71094123D01*
X110732946Y-71117407D01*
X110633712Y-71183712D01*
X110567407Y-71282946D01*
X110544123Y-71400000D01*
X110544123Y-71425000D01*
X110373056Y-71425000D01*
X110343432Y-71353482D01*
X110146518Y-71156568D01*
X109889239Y-71050000D01*
X109610761Y-71050000D01*
X109353482Y-71156568D01*
X109156568Y-71353482D01*
X109050000Y-71610761D01*
X109050000Y-71889239D01*
X109156568Y-72146518D01*
X109353482Y-72343432D01*
X109610761Y-72450000D01*
X109889239Y-72450000D01*
X110146518Y-72343432D01*
X110314950Y-72175000D01*
X110544123Y-72175000D01*
X110544123Y-72200000D01*
X110567407Y-72317054D01*
X110633712Y-72416288D01*
X110732946Y-72482593D01*
X110850000Y-72505877D01*
X111650000Y-72505877D01*
X111767054Y-72482593D01*
X111866288Y-72416288D01*
X111932593Y-72317054D01*
X111955877Y-72200000D01*
X111955877Y-72195827D01*
X112103482Y-72343432D01*
X112360761Y-72450000D01*
X112639239Y-72450000D01*
X112896518Y-72343432D01*
X113044123Y-72195827D01*
X113044123Y-72200000D01*
X113067407Y-72317054D01*
X113133712Y-72416288D01*
X113232946Y-72482593D01*
X113350000Y-72505877D01*
X114150000Y-72505877D01*
X114267054Y-72482593D01*
X114366288Y-72416288D01*
X114432593Y-72317054D01*
X114455877Y-72200000D01*
X114455877Y-72195827D01*
X114603482Y-72343432D01*
X114860761Y-72450000D01*
X115139239Y-72450000D01*
X115396518Y-72343432D01*
X115544123Y-72195827D01*
X115544123Y-72200000D01*
X115567407Y-72317054D01*
X115633712Y-72416288D01*
X115732946Y-72482593D01*
X115850000Y-72505877D01*
X116650000Y-72505877D01*
X116767054Y-72482593D01*
X116866288Y-72416288D01*
X116932593Y-72317054D01*
X116955877Y-72200000D01*
X116955877Y-72195827D01*
X117103482Y-72343432D01*
X117360761Y-72450000D01*
X117639239Y-72450000D01*
X117896518Y-72343432D01*
X118044123Y-72195827D01*
X118044123Y-72200000D01*
X118067407Y-72317054D01*
X118133712Y-72416288D01*
X118232946Y-72482593D01*
X118350000Y-72505877D01*
X118403146Y-72505877D01*
X118458721Y-72589050D01*
X118458723Y-72589052D01*
X118479642Y-72620359D01*
X118510948Y-72641277D01*
X118858722Y-72989052D01*
X118879641Y-73020359D01*
X118910948Y-73041278D01*
X118915206Y-73044123D01*
X118450000Y-73044123D01*
X118332946Y-73067407D01*
X118233712Y-73133712D01*
X118167407Y-73232946D01*
X118144123Y-73350000D01*
X118144123Y-73375000D01*
X118102345Y-73375000D01*
X118093432Y-73353482D01*
X117896518Y-73156568D01*
X117639239Y-73050000D01*
X117360761Y-73050000D01*
X117103482Y-73156568D01*
X116906568Y-73353482D01*
X116855877Y-73475861D01*
X116855877Y-73350000D01*
X116832593Y-73232946D01*
X116766288Y-73133712D01*
X116667054Y-73067407D01*
X116550000Y-73044123D01*
X115950000Y-73044123D01*
X115832946Y-73067407D01*
X115733712Y-73133712D01*
X115667407Y-73232946D01*
X115644123Y-73350000D01*
X115644123Y-73375000D01*
X115602345Y-73375000D01*
X115593432Y-73353482D01*
X115396518Y-73156568D01*
X115139239Y-73050000D01*
X114860761Y-73050000D01*
X114603482Y-73156568D01*
X114406568Y-73353482D01*
X114355877Y-73475861D01*
X114355877Y-73350000D01*
X114332593Y-73232946D01*
X114266288Y-73133712D01*
X114167054Y-73067407D01*
X114050000Y-73044123D01*
X113450000Y-73044123D01*
X113332946Y-73067407D01*
X113233712Y-73133712D01*
X113167407Y-73232946D01*
X113144123Y-73350000D01*
X113144123Y-73375000D01*
X113102345Y-73375000D01*
X113093432Y-73353482D01*
X112896518Y-73156568D01*
X112639239Y-73050000D01*
X112360761Y-73050000D01*
X112103482Y-73156568D01*
X111906568Y-73353482D01*
X111855877Y-73475861D01*
X111855877Y-73350000D01*
X111832593Y-73232946D01*
X111766288Y-73133712D01*
X111667054Y-73067407D01*
X111550000Y-73044123D01*
X110950000Y-73044123D01*
X110832946Y-73067407D01*
X110746751Y-73125000D01*
X110352345Y-73125000D01*
X110343432Y-73103482D01*
X110146518Y-72906568D01*
X109889239Y-72800000D01*
X109610761Y-72800000D01*
X109353482Y-72906568D01*
X109156568Y-73103482D01*
X109050000Y-73360761D01*
X109050000Y-73639239D01*
X109156568Y-73896518D01*
X109260050Y-74000000D01*
X109156568Y-74103482D01*
X109147655Y-74125000D01*
X108602345Y-74125000D01*
X108593432Y-74103482D01*
X108396518Y-73906568D01*
X108139239Y-73800000D01*
X107860761Y-73800000D01*
X107603482Y-73906568D01*
X107406568Y-74103482D01*
X107300000Y-74360761D01*
X107300000Y-74639239D01*
X107406568Y-74896518D01*
X107603482Y-75093432D01*
X107679694Y-75125000D01*
X107352345Y-75125000D01*
X107343432Y-75103482D01*
X107146518Y-74906568D01*
X106889239Y-74800000D01*
X106610761Y-74800000D01*
X106353482Y-74906568D01*
X106156568Y-75103482D01*
X106050000Y-75360761D01*
X106050000Y-75639239D01*
X106156568Y-75896518D01*
X106353482Y-76093432D01*
X106429694Y-76125000D01*
X106102345Y-76125000D01*
X106093432Y-76103482D01*
X105896518Y-75906568D01*
X105639239Y-75800000D01*
X105360761Y-75800000D01*
X105103482Y-75906568D01*
X104906568Y-76103482D01*
X104800000Y-76360761D01*
X104800000Y-76639239D01*
X104906568Y-76896518D01*
X105103482Y-77093432D01*
X105179694Y-77125000D01*
X104852345Y-77125000D01*
X104843432Y-77103482D01*
X104646518Y-76906568D01*
X104389239Y-76800000D01*
X104110761Y-76800000D01*
X103853482Y-76906568D01*
X103656568Y-77103482D01*
X103550000Y-77360761D01*
X103550000Y-77639239D01*
X103656568Y-77896518D01*
X103853482Y-78093432D01*
X104110761Y-78200000D01*
X104389239Y-78200000D01*
X104646518Y-78093432D01*
X104843432Y-77896518D01*
X104852345Y-77875000D01*
X114647655Y-77875000D01*
X114656568Y-77896518D01*
X114853482Y-78093432D01*
X115110761Y-78200000D01*
X115389239Y-78200000D01*
X115646518Y-78093432D01*
X115843432Y-77896518D01*
X115950000Y-77639239D01*
X115950000Y-77360761D01*
X115941087Y-77339242D01*
X118345283Y-74935047D01*
X118450000Y-74955877D01*
X119050000Y-74955877D01*
X119167054Y-74932593D01*
X119266288Y-74866288D01*
X119332593Y-74767054D01*
X119355877Y-74650000D01*
X119355877Y-74250000D01*
X119332593Y-74132946D01*
X119266288Y-74033712D01*
X119215834Y-74000000D01*
X119266288Y-73966288D01*
X119332593Y-73867054D01*
X119355877Y-73750000D01*
X119355877Y-73350000D01*
X119332593Y-73232946D01*
X119266288Y-73133712D01*
X119253249Y-73125000D01*
X120746751Y-73125000D01*
X120733712Y-73133712D01*
X120667407Y-73232946D01*
X120644123Y-73350000D01*
X120644123Y-73750000D01*
X120667407Y-73867054D01*
X120733712Y-73966288D01*
X120784166Y-74000000D01*
X120733712Y-74033712D01*
X120667407Y-74132946D01*
X120644123Y-74250000D01*
X120644123Y-74650000D01*
X120667407Y-74767054D01*
X120733712Y-74866288D01*
X120832946Y-74932593D01*
X120950000Y-74955877D01*
X121550000Y-74955877D01*
X121654718Y-74935047D01*
X125308913Y-78589243D01*
X125300000Y-78610761D01*
X125300000Y-78889239D01*
X125397655Y-79125000D01*
X125163414Y-79125000D01*
X125046316Y-79046757D01*
X124936930Y-79024999D01*
X124936925Y-79024999D01*
X124899999Y-79017654D01*
X124863073Y-79024999D01*
X124602345Y-79024999D01*
X124593432Y-79003481D01*
X124396518Y-78806567D01*
X124139239Y-78699999D01*
X123860761Y-78699999D01*
X123603482Y-78806567D01*
X123406568Y-79003481D01*
X123300000Y-79260760D01*
X123300000Y-79539238D01*
X123350993Y-79662347D01*
X123303684Y-79671757D01*
X123303683Y-79671758D01*
X123303682Y-79671758D01*
X123210949Y-79733721D01*
X123179642Y-79754640D01*
X123158723Y-79785947D01*
X123048672Y-79895998D01*
X122960002Y-79895998D01*
X123108000Y-79748000D01*
X123108000Y-79629061D01*
X123015437Y-79405595D01*
X122844404Y-79234562D01*
X122805877Y-79218604D01*
X122805877Y-78650000D01*
X122782593Y-78532946D01*
X122716288Y-78433712D01*
X122617054Y-78367407D01*
X122500000Y-78344123D01*
X122374454Y-78344123D01*
X122191087Y-78160757D01*
X122200000Y-78139239D01*
X122200000Y-77860761D01*
X122093432Y-77603482D01*
X121896518Y-77406568D01*
X121639239Y-77300000D01*
X121360761Y-77300000D01*
X121103482Y-77406568D01*
X120906568Y-77603482D01*
X120800000Y-77860761D01*
X120800000Y-78139239D01*
X120808913Y-78160758D01*
X120760948Y-78208723D01*
X120729642Y-78229641D01*
X120708723Y-78260948D01*
X120708721Y-78260950D01*
X120646759Y-78353682D01*
X120644486Y-78365112D01*
X120632946Y-78367407D01*
X120533712Y-78433712D01*
X120467407Y-78532946D01*
X120444123Y-78650000D01*
X120444123Y-79218604D01*
X120405596Y-79234562D01*
X120234563Y-79405595D01*
X120200000Y-79489037D01*
X120200000Y-79360761D01*
X120093432Y-79103482D01*
X119896518Y-78906568D01*
X119639239Y-78800000D01*
X119360761Y-78800000D01*
X119103482Y-78906568D01*
X118906568Y-79103482D01*
X118800000Y-79360761D01*
X118800000Y-79639239D01*
X118906568Y-79896518D01*
X119103482Y-80093432D01*
X119179694Y-80125000D01*
X110352345Y-80125000D01*
X110343432Y-80103482D01*
X110146518Y-79906568D01*
X109889239Y-79800000D01*
X109610761Y-79800000D01*
X109353482Y-79906568D01*
X109156568Y-80103482D01*
X109050000Y-80360761D01*
X109050000Y-80639239D01*
X109156568Y-80896518D01*
X109353482Y-81093432D01*
X109610761Y-81200000D01*
X109889239Y-81200000D01*
X110146518Y-81093432D01*
X110343432Y-80896518D01*
X110352345Y-80875000D01*
X119659671Y-80875000D01*
X120434123Y-81649453D01*
X120434123Y-81718793D01*
X120326280Y-81610951D01*
X120305360Y-81579642D01*
X120181318Y-81496759D01*
X120071932Y-81475001D01*
X120071927Y-81475001D01*
X120035001Y-81467656D01*
X119998075Y-81475001D01*
X112686925Y-81475001D01*
X112649998Y-81467656D01*
X112613072Y-81475001D01*
X112613068Y-81475001D01*
X112503682Y-81496759D01*
X112503681Y-81496760D01*
X112503680Y-81496760D01*
X112410948Y-81558722D01*
X112410947Y-81558723D01*
X112410699Y-81558889D01*
X112389239Y-81550000D01*
X112110761Y-81550000D01*
X111853482Y-81656568D01*
X111656568Y-81853482D01*
X111550000Y-82110761D01*
X111550000Y-82389239D01*
X111656568Y-82646518D01*
X111853482Y-82843432D01*
X112110761Y-82950000D01*
X112389239Y-82950000D01*
X112646518Y-82843432D01*
X112843432Y-82646518D01*
X112950000Y-82389239D01*
X112950000Y-82225001D01*
X117285049Y-82225001D01*
X117156568Y-82353482D01*
X117050000Y-82610761D01*
X117050000Y-82889239D01*
X117156568Y-83146518D01*
X117335050Y-83325000D01*
X115780331Y-83325000D01*
X115716282Y-83260951D01*
X115695361Y-83229641D01*
X115571319Y-83146758D01*
X115461933Y-83125000D01*
X115461928Y-83125000D01*
X115425002Y-83117655D01*
X115388076Y-83125000D01*
X114352345Y-83125000D01*
X114343432Y-83103482D01*
X114146518Y-82906568D01*
X113889239Y-82800000D01*
X113610761Y-82800000D01*
X113353482Y-82906568D01*
X113156568Y-83103482D01*
X113050000Y-83360761D01*
X113050000Y-83639239D01*
X113156568Y-83896518D01*
X113353482Y-84093432D01*
X113610761Y-84200000D01*
X113889239Y-84200000D01*
X114146518Y-84093432D01*
X114343432Y-83896518D01*
X114352345Y-83875000D01*
X114647655Y-83875000D01*
X114550000Y-84110761D01*
X114550000Y-84389239D01*
X114656568Y-84646518D01*
X114853482Y-84843432D01*
X115110761Y-84950000D01*
X115389239Y-84950000D01*
X115646518Y-84843432D01*
X115843432Y-84646518D01*
X115852345Y-84625000D01*
X116679694Y-84625000D01*
X116603482Y-84656568D01*
X116406568Y-84853482D01*
X116300000Y-85110761D01*
X116300000Y-85389239D01*
X116406568Y-85646518D01*
X116603482Y-85843432D01*
X116860761Y-85950000D01*
X117139239Y-85950000D01*
X117396518Y-85843432D01*
X117593432Y-85646518D01*
X117602345Y-85625000D01*
X120528074Y-85625000D01*
X120565000Y-85632345D01*
X120601926Y-85625000D01*
X120601931Y-85625000D01*
X120711317Y-85603242D01*
X120835359Y-85520359D01*
X120856279Y-85489050D01*
X120925001Y-85420329D01*
X120925000Y-86263073D01*
X120917655Y-86300000D01*
X120925000Y-86336926D01*
X120925000Y-86336930D01*
X120946758Y-86446316D01*
X121029641Y-86570359D01*
X121060950Y-86591279D01*
X121458722Y-86989052D01*
X121479641Y-87020359D01*
X121510948Y-87041278D01*
X121510949Y-87041279D01*
X121603681Y-87103241D01*
X121603682Y-87103241D01*
X121603683Y-87103242D01*
X121713069Y-87125000D01*
X121713073Y-87125000D01*
X121749999Y-87132345D01*
X121786925Y-87125000D01*
X125397655Y-87125000D01*
X125406568Y-87146518D01*
X125603482Y-87343432D01*
X125860761Y-87450000D01*
X126139239Y-87450000D01*
X126354681Y-87360761D01*
X149800000Y-87360761D01*
X149800000Y-87639239D01*
X149906568Y-87896518D01*
X150103482Y-88093432D01*
X150360761Y-88200000D01*
X150639239Y-88200000D01*
X150896518Y-88093432D01*
X151093432Y-87896518D01*
X151102345Y-87875000D01*
X154076382Y-87875000D01*
X154094123Y-87886854D01*
X154094123Y-88040000D01*
X154117407Y-88157054D01*
X154183712Y-88256288D01*
X154282946Y-88322593D01*
X154400000Y-88345877D01*
X157550000Y-88345877D01*
X157667054Y-88322593D01*
X157766288Y-88256288D01*
X157832593Y-88157054D01*
X157855877Y-88040000D01*
X157855877Y-87040000D01*
X159144123Y-87040000D01*
X159144123Y-88040000D01*
X159167407Y-88157054D01*
X159233712Y-88256288D01*
X159332946Y-88322593D01*
X159450000Y-88345877D01*
X160650000Y-88345877D01*
X160650001Y-89637299D01*
X160603482Y-89656568D01*
X160406568Y-89853482D01*
X160300000Y-90110761D01*
X160300000Y-90389239D01*
X160406568Y-90646518D01*
X160603482Y-90843432D01*
X160860761Y-90950000D01*
X161139239Y-90950000D01*
X161396518Y-90843432D01*
X161593432Y-90646518D01*
X161700000Y-90389239D01*
X161700000Y-90110761D01*
X161593432Y-89853482D01*
X161400000Y-89660050D01*
X161400000Y-88345877D01*
X162600000Y-88345877D01*
X162717054Y-88322593D01*
X162816288Y-88256288D01*
X162882593Y-88157054D01*
X162905877Y-88040000D01*
X162905877Y-87040000D01*
X162882593Y-86922946D01*
X162816288Y-86823712D01*
X162717054Y-86757407D01*
X162600000Y-86734123D01*
X159450000Y-86734123D01*
X159332946Y-86757407D01*
X159233712Y-86823712D01*
X159167407Y-86922946D01*
X159144123Y-87040000D01*
X157855877Y-87040000D01*
X157832593Y-86922946D01*
X157766288Y-86823712D01*
X157667054Y-86757407D01*
X157550000Y-86734123D01*
X154400000Y-86734123D01*
X154282946Y-86757407D01*
X154183712Y-86823712D01*
X154117407Y-86922946D01*
X154094123Y-87040000D01*
X154094123Y-87125000D01*
X151102345Y-87125000D01*
X151093432Y-87103482D01*
X150896518Y-86906568D01*
X150639239Y-86800000D01*
X150360761Y-86800000D01*
X150103482Y-86906568D01*
X149906568Y-87103482D01*
X149800000Y-87360761D01*
X126354681Y-87360761D01*
X126396518Y-87343432D01*
X126593432Y-87146518D01*
X126700000Y-86889239D01*
X126700000Y-86610761D01*
X126602345Y-86375000D01*
X126647655Y-86375000D01*
X126656568Y-86396518D01*
X126853482Y-86593432D01*
X127110761Y-86700000D01*
X127389239Y-86700000D01*
X127646518Y-86593432D01*
X127843432Y-86396518D01*
X127950000Y-86139239D01*
X127950000Y-85860761D01*
X127843432Y-85603482D01*
X127646518Y-85406568D01*
X127389239Y-85300000D01*
X127110761Y-85300000D01*
X126853482Y-85406568D01*
X126656568Y-85603482D01*
X126647655Y-85625000D01*
X123130330Y-85625000D01*
X122865267Y-85359938D01*
X122877054Y-85357593D01*
X122976288Y-85291288D01*
X123042593Y-85192054D01*
X123055931Y-85125000D01*
X127397655Y-85125000D01*
X127406568Y-85146518D01*
X127603482Y-85343432D01*
X127860761Y-85450000D01*
X128139239Y-85450000D01*
X128396518Y-85343432D01*
X128593432Y-85146518D01*
X128700000Y-84889239D01*
X128700000Y-84860761D01*
X151800000Y-84860761D01*
X151800000Y-85139239D01*
X151906568Y-85396518D01*
X152103482Y-85593432D01*
X152360761Y-85700000D01*
X152639239Y-85700000D01*
X152896518Y-85593432D01*
X153093432Y-85396518D01*
X153102345Y-85375000D01*
X154094123Y-85375000D01*
X154094123Y-85500000D01*
X154117407Y-85617054D01*
X154183712Y-85716288D01*
X154282946Y-85782593D01*
X154400000Y-85805877D01*
X157550000Y-85805877D01*
X157667054Y-85782593D01*
X157766288Y-85716288D01*
X157832593Y-85617054D01*
X157855877Y-85500000D01*
X157855877Y-84500000D01*
X157832593Y-84382946D01*
X157766288Y-84283712D01*
X157667054Y-84217407D01*
X157550000Y-84194123D01*
X154400000Y-84194123D01*
X154282946Y-84217407D01*
X154183712Y-84283712D01*
X154117407Y-84382946D01*
X154094123Y-84500000D01*
X154094123Y-84625000D01*
X153102345Y-84625000D01*
X153093432Y-84603482D01*
X152896518Y-84406568D01*
X152639239Y-84300000D01*
X152360761Y-84300000D01*
X152103482Y-84406568D01*
X151906568Y-84603482D01*
X151800000Y-84860761D01*
X128700000Y-84860761D01*
X128700000Y-84610761D01*
X128602345Y-84375000D01*
X129647655Y-84375000D01*
X129656568Y-84396518D01*
X129853482Y-84593432D01*
X130110761Y-84700000D01*
X130389239Y-84700000D01*
X130646518Y-84593432D01*
X130843432Y-84396518D01*
X130950000Y-84139239D01*
X130950000Y-83860761D01*
X130893767Y-83725001D01*
X132694672Y-83725001D01*
X132808913Y-83839243D01*
X132800000Y-83860761D01*
X132800000Y-84139239D01*
X132906568Y-84396518D01*
X133103482Y-84593432D01*
X133360761Y-84700000D01*
X133639239Y-84700000D01*
X133896518Y-84593432D01*
X134093432Y-84396518D01*
X134200000Y-84139239D01*
X134200000Y-83860761D01*
X134093432Y-83603482D01*
X133914942Y-83424992D01*
X145435042Y-83424992D01*
X145603482Y-83593432D01*
X145860761Y-83700000D01*
X146139239Y-83700000D01*
X146396518Y-83593432D01*
X146593432Y-83396518D01*
X146700000Y-83139239D01*
X146700000Y-82860761D01*
X146643766Y-82725000D01*
X153229669Y-82725000D01*
X154493720Y-83989052D01*
X154514639Y-84020359D01*
X154545946Y-84041278D01*
X154545947Y-84041279D01*
X154638679Y-84103241D01*
X154638680Y-84103241D01*
X154638681Y-84103242D01*
X154748067Y-84125000D01*
X154748071Y-84125000D01*
X154784998Y-84132345D01*
X154821924Y-84125000D01*
X157894671Y-84125000D01*
X159008722Y-85239052D01*
X159029641Y-85270359D01*
X159060948Y-85291278D01*
X159060949Y-85291279D01*
X159144123Y-85346855D01*
X159144123Y-85500000D01*
X159167407Y-85617054D01*
X159233712Y-85716288D01*
X159332946Y-85782593D01*
X159450000Y-85805877D01*
X162600000Y-85805877D01*
X162717054Y-85782593D01*
X162816288Y-85716288D01*
X162882593Y-85617054D01*
X162905877Y-85500000D01*
X162905877Y-84500000D01*
X162882593Y-84382946D01*
X162816288Y-84283712D01*
X162717054Y-84217407D01*
X162600000Y-84194123D01*
X159450000Y-84194123D01*
X159332946Y-84217407D01*
X159233712Y-84283712D01*
X159185779Y-84355450D01*
X158341280Y-83510950D01*
X158320359Y-83479641D01*
X158196317Y-83396758D01*
X158086931Y-83375000D01*
X158086926Y-83375000D01*
X158050000Y-83367655D01*
X158013074Y-83375000D01*
X154940328Y-83375000D01*
X154831205Y-83265877D01*
X157550000Y-83265877D01*
X157667054Y-83242593D01*
X157766288Y-83176288D01*
X157832593Y-83077054D01*
X157855877Y-82960000D01*
X157855877Y-82766000D01*
X158842000Y-82766000D01*
X158842000Y-83080938D01*
X158934562Y-83304404D01*
X159105595Y-83475437D01*
X159329061Y-83568000D01*
X160719000Y-83568000D01*
X160871000Y-83416000D01*
X160871000Y-82614000D01*
X161179000Y-82614000D01*
X161179000Y-83416000D01*
X161331000Y-83568000D01*
X162720939Y-83568000D01*
X162944405Y-83475437D01*
X163115438Y-83304404D01*
X163208000Y-83080938D01*
X163208000Y-82766000D01*
X163056000Y-82614000D01*
X161179000Y-82614000D01*
X160871000Y-82614000D01*
X158994000Y-82614000D01*
X158842000Y-82766000D01*
X157855877Y-82766000D01*
X157855877Y-81960000D01*
X157832593Y-81842946D01*
X157829998Y-81839062D01*
X158842000Y-81839062D01*
X158842000Y-82154000D01*
X158994000Y-82306000D01*
X160871000Y-82306000D01*
X160871000Y-81504000D01*
X161179000Y-81504000D01*
X161179000Y-82306000D01*
X163056000Y-82306000D01*
X163208000Y-82154000D01*
X163208000Y-81839062D01*
X163115438Y-81615596D01*
X162944405Y-81444563D01*
X162720939Y-81352000D01*
X161331000Y-81352000D01*
X161179000Y-81504000D01*
X160871000Y-81504000D01*
X160719000Y-81352000D01*
X159329061Y-81352000D01*
X159105595Y-81444563D01*
X158934562Y-81615596D01*
X158842000Y-81839062D01*
X157829998Y-81839062D01*
X157766288Y-81743712D01*
X157667054Y-81677407D01*
X157550000Y-81654123D01*
X154624452Y-81654123D01*
X154541279Y-81570950D01*
X154520359Y-81539641D01*
X154396317Y-81456758D01*
X154286931Y-81435000D01*
X154286926Y-81435000D01*
X154250000Y-81427655D01*
X154213074Y-81435000D01*
X152675452Y-81435000D01*
X152896518Y-81343432D01*
X153093432Y-81146518D01*
X153200000Y-80889239D01*
X153200000Y-80610761D01*
X153093432Y-80353482D01*
X152896518Y-80156568D01*
X152639239Y-80050000D01*
X152360761Y-80050000D01*
X152103482Y-80156568D01*
X151906568Y-80353482D01*
X151897655Y-80375000D01*
X151205351Y-80375000D01*
X150874391Y-80044041D01*
X150919160Y-80025497D01*
X151069657Y-79875000D01*
X154860268Y-79875000D01*
X154969654Y-79853242D01*
X155093696Y-79770359D01*
X155176579Y-79646317D01*
X155205683Y-79500000D01*
X155176579Y-79353683D01*
X155093696Y-79229641D01*
X154969654Y-79146758D01*
X154860268Y-79125000D01*
X162647655Y-79125000D01*
X162656568Y-79146518D01*
X162853482Y-79343432D01*
X163110761Y-79450000D01*
X163389239Y-79450000D01*
X163646518Y-79343432D01*
X163843432Y-79146518D01*
X163950000Y-78889239D01*
X163950000Y-78610761D01*
X163843432Y-78353482D01*
X163646518Y-78156568D01*
X163389239Y-78050000D01*
X163110761Y-78050000D01*
X162853482Y-78156568D01*
X162656568Y-78353482D01*
X162647655Y-78375000D01*
X126602345Y-78375000D01*
X126593432Y-78353482D01*
X126396518Y-78156568D01*
X126139239Y-78050000D01*
X125860761Y-78050000D01*
X125839243Y-78058913D01*
X122138100Y-74357771D01*
X122360761Y-74450000D01*
X122639239Y-74450000D01*
X122896518Y-74343432D01*
X123093432Y-74146518D01*
X123193200Y-73905656D01*
X123233712Y-73966288D01*
X123284166Y-74000000D01*
X123233712Y-74033712D01*
X123167407Y-74132946D01*
X123144123Y-74250000D01*
X123144123Y-74650000D01*
X123167407Y-74767054D01*
X123233712Y-74866288D01*
X123332946Y-74932593D01*
X123450000Y-74955877D01*
X124050000Y-74955877D01*
X124154718Y-74935047D01*
X126558913Y-77339243D01*
X126550000Y-77360761D01*
X126550000Y-77639239D01*
X126656568Y-77896518D01*
X126853482Y-78093432D01*
X127110761Y-78200000D01*
X127389239Y-78200000D01*
X127646518Y-78093432D01*
X127843432Y-77896518D01*
X127852345Y-77875000D01*
X161147655Y-77875000D01*
X161156568Y-77896518D01*
X161353482Y-78093432D01*
X161610761Y-78200000D01*
X161889239Y-78200000D01*
X162146518Y-78093432D01*
X162343432Y-77896518D01*
X162450000Y-77639239D01*
X162450000Y-77360761D01*
X162343432Y-77103482D01*
X162146518Y-76906568D01*
X161889239Y-76800000D01*
X161610761Y-76800000D01*
X161353482Y-76906568D01*
X161156568Y-77103482D01*
X161147655Y-77125000D01*
X160570306Y-77125000D01*
X160646518Y-77093432D01*
X160843432Y-76896518D01*
X160950000Y-76639239D01*
X160950000Y-76360761D01*
X160843432Y-76103482D01*
X160646518Y-75906568D01*
X160389239Y-75800000D01*
X160110761Y-75800000D01*
X159853482Y-75906568D01*
X159656568Y-76103482D01*
X159647655Y-76125000D01*
X159070306Y-76125000D01*
X159146518Y-76093432D01*
X159343432Y-75896518D01*
X159450000Y-75639239D01*
X159450000Y-75360761D01*
X159343432Y-75103482D01*
X159146518Y-74906568D01*
X158889239Y-74800000D01*
X158610761Y-74800000D01*
X158353482Y-74906568D01*
X158156568Y-75103482D01*
X158147655Y-75125000D01*
X133699595Y-75125000D01*
X133896518Y-75043432D01*
X134093432Y-74846518D01*
X134102345Y-74825000D01*
X157085050Y-74825000D01*
X157103482Y-74843432D01*
X157360761Y-74950000D01*
X157639239Y-74950000D01*
X157896518Y-74843432D01*
X158093432Y-74646518D01*
X158200000Y-74389239D01*
X158200000Y-74110761D01*
X158093432Y-73853482D01*
X157896518Y-73656568D01*
X157639239Y-73550000D01*
X157360761Y-73550000D01*
X157103482Y-73656568D01*
X156906568Y-73853482D01*
X156814813Y-74075000D01*
X134102345Y-74075000D01*
X134093432Y-74053482D01*
X133896518Y-73856568D01*
X133639239Y-73750000D01*
X133360761Y-73750000D01*
X133200000Y-73816589D01*
X133200000Y-73610761D01*
X133093432Y-73353482D01*
X132896518Y-73156568D01*
X132820306Y-73125000D01*
X141713074Y-73125000D01*
X141750000Y-73132345D01*
X141786926Y-73125000D01*
X141786931Y-73125000D01*
X141896317Y-73103242D01*
X142020359Y-73020359D01*
X142041279Y-72989050D01*
X142339243Y-72691087D01*
X142360761Y-72700000D01*
X142639239Y-72700000D01*
X142896518Y-72593432D01*
X143093432Y-72396518D01*
X143103791Y-72371508D01*
X143133712Y-72416288D01*
X143232946Y-72482593D01*
X143350000Y-72505877D01*
X144150000Y-72505877D01*
X144267054Y-72482593D01*
X144366288Y-72416288D01*
X144393875Y-72375000D01*
X144397655Y-72375000D01*
X144406568Y-72396518D01*
X144603482Y-72593432D01*
X144860761Y-72700000D01*
X145139239Y-72700000D01*
X145396518Y-72593432D01*
X145593432Y-72396518D01*
X145603791Y-72371508D01*
X145633712Y-72416288D01*
X145732946Y-72482593D01*
X145850000Y-72505877D01*
X146650000Y-72505877D01*
X146767054Y-72482593D01*
X146866288Y-72416288D01*
X146896209Y-72371508D01*
X146906568Y-72396518D01*
X147103482Y-72593432D01*
X147360761Y-72700000D01*
X147639239Y-72700000D01*
X147896518Y-72593432D01*
X148093432Y-72396518D01*
X148102345Y-72375000D01*
X148106125Y-72375000D01*
X148133712Y-72416288D01*
X148232946Y-72482593D01*
X148350000Y-72505877D01*
X149150000Y-72505877D01*
X149267054Y-72482593D01*
X149366288Y-72416288D01*
X149396209Y-72371508D01*
X149406568Y-72396518D01*
X149603482Y-72593432D01*
X149860761Y-72700000D01*
X150139239Y-72700000D01*
X150396518Y-72593432D01*
X150593432Y-72396518D01*
X150602345Y-72375000D01*
X150606125Y-72375000D01*
X150633712Y-72416288D01*
X150732946Y-72482593D01*
X150850000Y-72505877D01*
X151650000Y-72505877D01*
X151767054Y-72482593D01*
X151866288Y-72416288D01*
X151896209Y-72371508D01*
X151906568Y-72396518D01*
X152103482Y-72593432D01*
X152360761Y-72700000D01*
X152639239Y-72700000D01*
X152896518Y-72593432D01*
X153093432Y-72396518D01*
X153102345Y-72375000D01*
X153106125Y-72375000D01*
X153133712Y-72416288D01*
X153232946Y-72482593D01*
X153350000Y-72505877D01*
X154150000Y-72505877D01*
X154267054Y-72482593D01*
X154366288Y-72416288D01*
X154432593Y-72317054D01*
X154455877Y-72200000D01*
X154455877Y-71400000D01*
X154450904Y-71375000D01*
X155647655Y-71375000D01*
X155656568Y-71396518D01*
X155853482Y-71593432D01*
X156110761Y-71700000D01*
X156389239Y-71700000D01*
X156646518Y-71593432D01*
X156843432Y-71396518D01*
X156950000Y-71139239D01*
X156950000Y-70860761D01*
X156852345Y-70625000D01*
X156897655Y-70625000D01*
X156906568Y-70646518D01*
X157103482Y-70843432D01*
X157360761Y-70950000D01*
X157639239Y-70950000D01*
X157896518Y-70843432D01*
X158093432Y-70646518D01*
X158200000Y-70389239D01*
X158200000Y-70110761D01*
X158093432Y-69853482D01*
X157896518Y-69656568D01*
X157639239Y-69550000D01*
X157360761Y-69550000D01*
X157103482Y-69656568D01*
X156906568Y-69853482D01*
X156897655Y-69875000D01*
X154455877Y-69875000D01*
X154455877Y-69800000D01*
X154432593Y-69682946D01*
X154366288Y-69583712D01*
X154267054Y-69517407D01*
X154179545Y-69500000D01*
X154267054Y-69482593D01*
X154366288Y-69416288D01*
X154432593Y-69317054D01*
X154455877Y-69200000D01*
X154455877Y-69195827D01*
X154603482Y-69343432D01*
X154860761Y-69450000D01*
X155139239Y-69450000D01*
X155396518Y-69343432D01*
X155593432Y-69146518D01*
X155700000Y-68889239D01*
X155700000Y-68610761D01*
X155602345Y-68375000D01*
X155647655Y-68375000D01*
X155656568Y-68396518D01*
X155853482Y-68593432D01*
X156110761Y-68700000D01*
X156389239Y-68700000D01*
X156646518Y-68593432D01*
X156843432Y-68396518D01*
X156950000Y-68139239D01*
X156950000Y-67860761D01*
X156852345Y-67625000D01*
X158147655Y-67625000D01*
X158156568Y-67646518D01*
X158353482Y-67843432D01*
X158610761Y-67950000D01*
X158889239Y-67950000D01*
X159146518Y-67843432D01*
X159343432Y-67646518D01*
X159450000Y-67389239D01*
X159450000Y-67110761D01*
X159343432Y-66853482D01*
X159146518Y-66656568D01*
X158889239Y-66550000D01*
X158610761Y-66550000D01*
X158353482Y-66656568D01*
X158156568Y-66853482D01*
X158147655Y-66875000D01*
X154455877Y-66875000D01*
X154455877Y-66800000D01*
X154432593Y-66682946D01*
X154366288Y-66583712D01*
X154267054Y-66517407D01*
X154179545Y-66500000D01*
X154267054Y-66482593D01*
X154366288Y-66416288D01*
X154432593Y-66317054D01*
X154455877Y-66200000D01*
X154455877Y-66195847D01*
X154603462Y-66343432D01*
X154860741Y-66450000D01*
X155139219Y-66450000D01*
X155396498Y-66343432D01*
X155593412Y-66146518D01*
X155699980Y-65889239D01*
X155699980Y-65610761D01*
X155602325Y-65375000D01*
X155647655Y-65375000D01*
X155656568Y-65396518D01*
X155853482Y-65593432D01*
X156110761Y-65700000D01*
X156389239Y-65700000D01*
X156646518Y-65593432D01*
X156843432Y-65396518D01*
X156950000Y-65139239D01*
X156950000Y-64860761D01*
X156852345Y-64625000D01*
X159647655Y-64625000D01*
X159656568Y-64646518D01*
X159853482Y-64843432D01*
X160110761Y-64950000D01*
X160389239Y-64950000D01*
X160646518Y-64843432D01*
X160843432Y-64646518D01*
X160950000Y-64389239D01*
X160950000Y-64110761D01*
X160843432Y-63853482D01*
X160646518Y-63656568D01*
X160389239Y-63550000D01*
X160110761Y-63550000D01*
X159853482Y-63656568D01*
X159656568Y-63853482D01*
X159647655Y-63875000D01*
X154455877Y-63875000D01*
X154455877Y-63800000D01*
X154432593Y-63682946D01*
X154366288Y-63583712D01*
X154267054Y-63517407D01*
X154179545Y-63500000D01*
X154267054Y-63482593D01*
X154366288Y-63416288D01*
X154432593Y-63317054D01*
X154455877Y-63200000D01*
X154455877Y-63195847D01*
X154603462Y-63343432D01*
X154860741Y-63450000D01*
X155139219Y-63450000D01*
X155396498Y-63343432D01*
X155593412Y-63146518D01*
X155699980Y-62889239D01*
X155699980Y-62610761D01*
X155602325Y-62375000D01*
X155647655Y-62375000D01*
X155656568Y-62396518D01*
X155853482Y-62593432D01*
X156110761Y-62700000D01*
X156389239Y-62700000D01*
X156646518Y-62593432D01*
X156843432Y-62396518D01*
X156950000Y-62139239D01*
X156950000Y-61860761D01*
X156852345Y-61625000D01*
X161147655Y-61625000D01*
X161156568Y-61646518D01*
X161353482Y-61843432D01*
X161610761Y-61950000D01*
X161889239Y-61950000D01*
X162146518Y-61843432D01*
X162343432Y-61646518D01*
X162450000Y-61389239D01*
X162450000Y-61110761D01*
X162343432Y-60853482D01*
X162146518Y-60656568D01*
X161889239Y-60550000D01*
X161610761Y-60550000D01*
X161353482Y-60656568D01*
X161156568Y-60853482D01*
X161147655Y-60875000D01*
X154455877Y-60875000D01*
X154455877Y-60800000D01*
X154432593Y-60682946D01*
X154366288Y-60583712D01*
X154267054Y-60517407D01*
X154179545Y-60500000D01*
X154267054Y-60482593D01*
X154366288Y-60416288D01*
X154432593Y-60317054D01*
X154455877Y-60200000D01*
X154455877Y-60195827D01*
X154603482Y-60343432D01*
X154860761Y-60450000D01*
X155139239Y-60450000D01*
X155396518Y-60343432D01*
X155593432Y-60146518D01*
X155700000Y-59889239D01*
X155700000Y-59610761D01*
X155593432Y-59353482D01*
X155396518Y-59156568D01*
X155139239Y-59050000D01*
X154860761Y-59050000D01*
X154603482Y-59156568D01*
X154439978Y-59320072D01*
X154432593Y-59282946D01*
X154366288Y-59183712D01*
X154267054Y-59117407D01*
X154150000Y-59094123D01*
X153350000Y-59094123D01*
X153232946Y-59117407D01*
X153133712Y-59183712D01*
X153067407Y-59282946D01*
X153060022Y-59320072D01*
X152896518Y-59156568D01*
X152639239Y-59050000D01*
X152360761Y-59050000D01*
X152103482Y-59156568D01*
X151939978Y-59320072D01*
X151932593Y-59282946D01*
X151866288Y-59183712D01*
X151767054Y-59117407D01*
X151650000Y-59094123D01*
X150850000Y-59094123D01*
X150732946Y-59117407D01*
X150633712Y-59183712D01*
X150567407Y-59282946D01*
X150560022Y-59320072D01*
X150396518Y-59156568D01*
X150139239Y-59050000D01*
X149860761Y-59050000D01*
X149603482Y-59156568D01*
X149439978Y-59320072D01*
X149432593Y-59282946D01*
X149366288Y-59183712D01*
X149267054Y-59117407D01*
X149150000Y-59094123D01*
X148350000Y-59094123D01*
X148232946Y-59117407D01*
X148133712Y-59183712D01*
X148067407Y-59282946D01*
X148060022Y-59320072D01*
X147896518Y-59156568D01*
X147639239Y-59050000D01*
X147360761Y-59050000D01*
X147103482Y-59156568D01*
X146939978Y-59320072D01*
X146932593Y-59282946D01*
X146866288Y-59183712D01*
X146767054Y-59117407D01*
X146650000Y-59094123D01*
X145850000Y-59094123D01*
X145732946Y-59117407D01*
X145633712Y-59183712D01*
X145567407Y-59282946D01*
X145560022Y-59320072D01*
X145396518Y-59156568D01*
X145139239Y-59050000D01*
X144860761Y-59050000D01*
X144603482Y-59156568D01*
X144439978Y-59320072D01*
X144432593Y-59282946D01*
X144366288Y-59183712D01*
X144267054Y-59117407D01*
X144150000Y-59094123D01*
X143350000Y-59094123D01*
X143232946Y-59117407D01*
X143133712Y-59183712D01*
X143067407Y-59282946D01*
X143060022Y-59320072D01*
X142896518Y-59156568D01*
X142639239Y-59050000D01*
X142360761Y-59050000D01*
X142103482Y-59156568D01*
X141939978Y-59320072D01*
X141932593Y-59282946D01*
X141866288Y-59183712D01*
X141767054Y-59117407D01*
X141650000Y-59094123D01*
X140850000Y-59094123D01*
X140732946Y-59117407D01*
X140633712Y-59183712D01*
X140567407Y-59282946D01*
X140560022Y-59320072D01*
X140396518Y-59156568D01*
X140139239Y-59050000D01*
X139860761Y-59050000D01*
X139603482Y-59156568D01*
X139439978Y-59320072D01*
X139432593Y-59282946D01*
X139366288Y-59183712D01*
X139267054Y-59117407D01*
X139150000Y-59094123D01*
X138350000Y-59094123D01*
X138232946Y-59117407D01*
X138133712Y-59183712D01*
X138067407Y-59282946D01*
X138060022Y-59320072D01*
X137896518Y-59156568D01*
X137639239Y-59050000D01*
X137360761Y-59050000D01*
X137103482Y-59156568D01*
X136939978Y-59320072D01*
X136932593Y-59282946D01*
X136866288Y-59183712D01*
X136767054Y-59117407D01*
X136650000Y-59094123D01*
X136596854Y-59094123D01*
X136520359Y-58979641D01*
X136489052Y-58958723D01*
X136436207Y-58905877D01*
X136650000Y-58905877D01*
X136767054Y-58882593D01*
X136866288Y-58816288D01*
X136932593Y-58717054D01*
X136955877Y-58600000D01*
X136955877Y-58575000D01*
X138044123Y-58575000D01*
X138044123Y-58600000D01*
X138067407Y-58717054D01*
X138133712Y-58816288D01*
X138232946Y-58882593D01*
X138350000Y-58905877D01*
X139150000Y-58905877D01*
X139267054Y-58882593D01*
X139366288Y-58816288D01*
X139432593Y-58717054D01*
X139455877Y-58600000D01*
X139455877Y-58575000D01*
X140544123Y-58575000D01*
X140544123Y-58600000D01*
X140567407Y-58717054D01*
X140633712Y-58816288D01*
X140732946Y-58882593D01*
X140850000Y-58905877D01*
X141650000Y-58905877D01*
X141767054Y-58882593D01*
X141866288Y-58816288D01*
X141932593Y-58717054D01*
X141955877Y-58600000D01*
X141955877Y-58575000D01*
X143044123Y-58575000D01*
X143044123Y-58600000D01*
X143067407Y-58717054D01*
X143133712Y-58816288D01*
X143232946Y-58882593D01*
X143350000Y-58905877D01*
X144150000Y-58905877D01*
X144267054Y-58882593D01*
X144366288Y-58816288D01*
X144432593Y-58717054D01*
X144455877Y-58600000D01*
X144455877Y-58575000D01*
X145544123Y-58575000D01*
X145544123Y-58600000D01*
X145567407Y-58717054D01*
X145633712Y-58816288D01*
X145732946Y-58882593D01*
X145850000Y-58905877D01*
X146650000Y-58905877D01*
X146767054Y-58882593D01*
X146866288Y-58816288D01*
X146932593Y-58717054D01*
X146955877Y-58600000D01*
X146955877Y-58575000D01*
X148044123Y-58575000D01*
X148044123Y-58600000D01*
X148067407Y-58717054D01*
X148133712Y-58816288D01*
X148232946Y-58882593D01*
X148350000Y-58905877D01*
X149150000Y-58905877D01*
X149267054Y-58882593D01*
X149366288Y-58816288D01*
X149432593Y-58717054D01*
X149455877Y-58600000D01*
X149455877Y-58575000D01*
X150544123Y-58575000D01*
X150544123Y-58600000D01*
X150567407Y-58717054D01*
X150633712Y-58816288D01*
X150732946Y-58882593D01*
X150850000Y-58905877D01*
X151650000Y-58905877D01*
X151767054Y-58882593D01*
X151866288Y-58816288D01*
X151932593Y-58717054D01*
X151955877Y-58600000D01*
X151955877Y-58575000D01*
X153044123Y-58575000D01*
X153044123Y-58600000D01*
X153067407Y-58717054D01*
X153133712Y-58816288D01*
X153232946Y-58882593D01*
X153350000Y-58905877D01*
X154150000Y-58905877D01*
X154267054Y-58882593D01*
X154366288Y-58816288D01*
X154432593Y-58717054D01*
X154450904Y-58625000D01*
X162647655Y-58625000D01*
X162656568Y-58646518D01*
X162853482Y-58843432D01*
X163110761Y-58950000D01*
X163389239Y-58950000D01*
X163646518Y-58843432D01*
X163843432Y-58646518D01*
X163950000Y-58389239D01*
X163950000Y-58110761D01*
X163843432Y-57853482D01*
X163646518Y-57656568D01*
X163389239Y-57550000D01*
X163110761Y-57550000D01*
X162853482Y-57656568D01*
X162656568Y-57853482D01*
X162647655Y-57875000D01*
X154455877Y-57875000D01*
X154455877Y-57800000D01*
X154432593Y-57682946D01*
X154366288Y-57583712D01*
X154267054Y-57517407D01*
X154150000Y-57494123D01*
X153350000Y-57494123D01*
X153232946Y-57517407D01*
X153133712Y-57583712D01*
X153067407Y-57682946D01*
X153044123Y-57800000D01*
X153044123Y-57825000D01*
X151955877Y-57825000D01*
X151955877Y-57800000D01*
X151932593Y-57682946D01*
X151866288Y-57583712D01*
X151767054Y-57517407D01*
X151650000Y-57494123D01*
X150850000Y-57494123D01*
X150732946Y-57517407D01*
X150633712Y-57583712D01*
X150567407Y-57682946D01*
X150544123Y-57800000D01*
X150544123Y-57825000D01*
X149455877Y-57825000D01*
X149455877Y-57800000D01*
X149432593Y-57682946D01*
X149366288Y-57583712D01*
X149267054Y-57517407D01*
X149150000Y-57494123D01*
X148350000Y-57494123D01*
X148232946Y-57517407D01*
X148133712Y-57583712D01*
X148067407Y-57682946D01*
X148044123Y-57800000D01*
X148044123Y-57825000D01*
X146955877Y-57825000D01*
X146955877Y-57800000D01*
X146932593Y-57682946D01*
X146866288Y-57583712D01*
X146767054Y-57517407D01*
X146650000Y-57494123D01*
X145850000Y-57494123D01*
X145732946Y-57517407D01*
X145633712Y-57583712D01*
X145567407Y-57682946D01*
X145544123Y-57800000D01*
X145544123Y-57825000D01*
X144455877Y-57825000D01*
X144455877Y-57800000D01*
X144432593Y-57682946D01*
X144366288Y-57583712D01*
X144267054Y-57517407D01*
X144150000Y-57494123D01*
X143350000Y-57494123D01*
X143232946Y-57517407D01*
X143133712Y-57583712D01*
X143067407Y-57682946D01*
X143044123Y-57800000D01*
X143044123Y-57825000D01*
X141955877Y-57825000D01*
X141955877Y-57800000D01*
X141932593Y-57682946D01*
X141866288Y-57583712D01*
X141767054Y-57517407D01*
X141650000Y-57494123D01*
X140850000Y-57494123D01*
X140732946Y-57517407D01*
X140633712Y-57583712D01*
X140567407Y-57682946D01*
X140544123Y-57800000D01*
X140544123Y-57825000D01*
X139455877Y-57825000D01*
X139455877Y-57800000D01*
X139432593Y-57682946D01*
X139366288Y-57583712D01*
X139267054Y-57517407D01*
X139150000Y-57494123D01*
X138350000Y-57494123D01*
X138232946Y-57517407D01*
X138133712Y-57583712D01*
X138067407Y-57682946D01*
X138044123Y-57800000D01*
X138044123Y-57825000D01*
X136955877Y-57825000D01*
X136955877Y-57800000D01*
X136932593Y-57682946D01*
X136866288Y-57583712D01*
X136767054Y-57517407D01*
X136650000Y-57494123D01*
X135850000Y-57494123D01*
X135732946Y-57517407D01*
X135633712Y-57583712D01*
X135567407Y-57682946D01*
X135544123Y-57800000D01*
X135544123Y-57825000D01*
X134455877Y-57825000D01*
X134455877Y-57800000D01*
X134432593Y-57682946D01*
X134366288Y-57583712D01*
X134267054Y-57517407D01*
X134150000Y-57494123D01*
X133350000Y-57494123D01*
X133232946Y-57517407D01*
X133133712Y-57583712D01*
X133067407Y-57682946D01*
X133044123Y-57800000D01*
X133044123Y-58600000D01*
X133049096Y-58625000D01*
X131950904Y-58625000D01*
X131955877Y-58600000D01*
X131955877Y-57800000D01*
X131932593Y-57682946D01*
X131866288Y-57583712D01*
X131767054Y-57517407D01*
X131650000Y-57494123D01*
X130850000Y-57494123D01*
X130732946Y-57517407D01*
X130633712Y-57583712D01*
X130567407Y-57682946D01*
X130544123Y-57800000D01*
X130544123Y-57825000D01*
X129455877Y-57825000D01*
X129455877Y-57800000D01*
X129432593Y-57682946D01*
X129366288Y-57583712D01*
X129267054Y-57517407D01*
X129150000Y-57494123D01*
X128350000Y-57494123D01*
X128232946Y-57517407D01*
X128133712Y-57583712D01*
X128067407Y-57682946D01*
X128044123Y-57800000D01*
X128044123Y-57825000D01*
X126955877Y-57825000D01*
X126955877Y-57800000D01*
X126932593Y-57682946D01*
X126866288Y-57583712D01*
X126767054Y-57517407D01*
X126650000Y-57494123D01*
X125850000Y-57494123D01*
X125732946Y-57517407D01*
X125633712Y-57583712D01*
X125567407Y-57682946D01*
X125544123Y-57800000D01*
X125544123Y-57825000D01*
X124455877Y-57825000D01*
X124455877Y-57800000D01*
X124432593Y-57682946D01*
X124366288Y-57583712D01*
X124267054Y-57517407D01*
X124150000Y-57494123D01*
X123350000Y-57494123D01*
X123232946Y-57517407D01*
X123133712Y-57583712D01*
X123067407Y-57682946D01*
X123044123Y-57800000D01*
X123044123Y-57825000D01*
X121955877Y-57825000D01*
X121955877Y-57800000D01*
X121932593Y-57682946D01*
X121866288Y-57583712D01*
X121767054Y-57517407D01*
X121650000Y-57494123D01*
X120850000Y-57494123D01*
X120732946Y-57517407D01*
X120633712Y-57583712D01*
X120567407Y-57682946D01*
X120544123Y-57800000D01*
X120544123Y-57825000D01*
X119455877Y-57825000D01*
X119455877Y-57800000D01*
X119432593Y-57682946D01*
X119366288Y-57583712D01*
X119267054Y-57517407D01*
X119150000Y-57494123D01*
X118350000Y-57494123D01*
X118232946Y-57517407D01*
X118133712Y-57583712D01*
X118067407Y-57682946D01*
X118044123Y-57800000D01*
X118044123Y-57825000D01*
X116955877Y-57825000D01*
X116955877Y-57800000D01*
X116932593Y-57682946D01*
X116866288Y-57583712D01*
X116767054Y-57517407D01*
X116650000Y-57494123D01*
X115850000Y-57494123D01*
X115732946Y-57517407D01*
X115633712Y-57583712D01*
X115567407Y-57682946D01*
X115544123Y-57800000D01*
X115544123Y-57825000D01*
X114455877Y-57825000D01*
X114455877Y-57800000D01*
X114432593Y-57682946D01*
X114366288Y-57583712D01*
X114267054Y-57517407D01*
X114150000Y-57494123D01*
X113350000Y-57494123D01*
X113232946Y-57517407D01*
X113133712Y-57583712D01*
X113067407Y-57682946D01*
X113044123Y-57800000D01*
X113044123Y-57825000D01*
X111955877Y-57825000D01*
X111955877Y-57800000D01*
X111932593Y-57682946D01*
X111866288Y-57583712D01*
X111767054Y-57517407D01*
X111650000Y-57494123D01*
X110850000Y-57494123D01*
X110732946Y-57517407D01*
X110633712Y-57583712D01*
X110567407Y-57682946D01*
X110544123Y-57800000D01*
X110544123Y-57825000D01*
X108564950Y-57825000D01*
X108396518Y-57656568D01*
X108139239Y-57550000D01*
X107860761Y-57550000D01*
X107603482Y-57656568D01*
X107406568Y-57853482D01*
X107300000Y-58110761D01*
X107300000Y-58389239D01*
X107406568Y-58646518D01*
X107603482Y-58843432D01*
X107860761Y-58950000D01*
X108139239Y-58950000D01*
X108396518Y-58843432D01*
X108593432Y-58646518D01*
X108623056Y-58575000D01*
X110544123Y-58575000D01*
X110544123Y-58600000D01*
X110567407Y-58717054D01*
X110633712Y-58816288D01*
X110732946Y-58882593D01*
X110850000Y-58905877D01*
X111063794Y-58905877D01*
X111010948Y-58958723D01*
X110979642Y-58979641D01*
X110958723Y-59010948D01*
X110958721Y-59010950D01*
X110903146Y-59094123D01*
X110850000Y-59094123D01*
X110732946Y-59117407D01*
X110633712Y-59183712D01*
X110567407Y-59282946D01*
X110544123Y-59400000D01*
X110544123Y-60200000D01*
X110567407Y-60317054D01*
X110633712Y-60416288D01*
X110732946Y-60482593D01*
X110820455Y-60500000D01*
X110732946Y-60517407D01*
X110633712Y-60583712D01*
X110567407Y-60682946D01*
X110544123Y-60800000D01*
X110544123Y-60875000D01*
X107352345Y-60875000D01*
X107343432Y-60853482D01*
X107146518Y-60656568D01*
X106889239Y-60550000D01*
X106610761Y-60550000D01*
X106353482Y-60656568D01*
X106156568Y-60853482D01*
X106050000Y-61110761D01*
X106050000Y-61389239D01*
X106156568Y-61646518D01*
X106353482Y-61843432D01*
X106610761Y-61950000D01*
X106889239Y-61950000D01*
X107146518Y-61843432D01*
X107343432Y-61646518D01*
X107352345Y-61625000D01*
X110549096Y-61625000D01*
X110567407Y-61717054D01*
X110633712Y-61816288D01*
X110732946Y-61882593D01*
X110850000Y-61905877D01*
X111063794Y-61905877D01*
X111010948Y-61958723D01*
X110979642Y-61979641D01*
X110958723Y-62010948D01*
X110958721Y-62010950D01*
X110903146Y-62094123D01*
X110850000Y-62094123D01*
X110732946Y-62117407D01*
X110633712Y-62183712D01*
X110567407Y-62282946D01*
X110544123Y-62400000D01*
X110544123Y-62425000D01*
X110373056Y-62425000D01*
X110343432Y-62353482D01*
X110146518Y-62156568D01*
X109889239Y-62050000D01*
X109610761Y-62050000D01*
X109353482Y-62156568D01*
X109156568Y-62353482D01*
X109050000Y-62610761D01*
X109050000Y-62889239D01*
X109156568Y-63146518D01*
X109353482Y-63343432D01*
X109610761Y-63450000D01*
X109889239Y-63450000D01*
X110146518Y-63343432D01*
X110314950Y-63175000D01*
X110544123Y-63175000D01*
X110544123Y-63200000D01*
X110567407Y-63317054D01*
X110633712Y-63416288D01*
X110732946Y-63482593D01*
X110820455Y-63500000D01*
X110732946Y-63517407D01*
X110633712Y-63583712D01*
X110567407Y-63682946D01*
X110544123Y-63800000D01*
X110544123Y-63875000D01*
X106102345Y-63875000D01*
X106093432Y-63853482D01*
X105896518Y-63656568D01*
X105639239Y-63550000D01*
X105360761Y-63550000D01*
X105103482Y-63656568D01*
X104906568Y-63853482D01*
X104800000Y-64110761D01*
X104800000Y-64389239D01*
X104906568Y-64646518D01*
X105103482Y-64843432D01*
X105360761Y-64950000D01*
X105639239Y-64950000D01*
X105896518Y-64843432D01*
X106093432Y-64646518D01*
X106102345Y-64625000D01*
X110549096Y-64625000D01*
X110567407Y-64717054D01*
X110633712Y-64816288D01*
X110732946Y-64882593D01*
X110850000Y-64905877D01*
X111063794Y-64905877D01*
X111010948Y-64958723D01*
X110979642Y-64979641D01*
X110958723Y-65010948D01*
X110958721Y-65010950D01*
X110903146Y-65094123D01*
X110850000Y-65094123D01*
X110732946Y-65117407D01*
X110633712Y-65183712D01*
X110567407Y-65282946D01*
X110544123Y-65400000D01*
X110544123Y-65425000D01*
X110373056Y-65425000D01*
X110343432Y-65353482D01*
X110146518Y-65156568D01*
X109889239Y-65050000D01*
X109610761Y-65050000D01*
X109353482Y-65156568D01*
X109156568Y-65353482D01*
X109050000Y-65610761D01*
X109050000Y-65889239D01*
X109156568Y-66146518D01*
X109353482Y-66343432D01*
X109610761Y-66450000D01*
X109889239Y-66450000D01*
X110146518Y-66343432D01*
X110314950Y-66175000D01*
X110544123Y-66175000D01*
X110544123Y-66200000D01*
X110567407Y-66317054D01*
X110633712Y-66416288D01*
X110732946Y-66482593D01*
X110820455Y-66500000D01*
X110732946Y-66517407D01*
X110633712Y-66583712D01*
X110567407Y-66682946D01*
X110544123Y-66800000D01*
X110544123Y-66875000D01*
X104852345Y-66875000D01*
X104843432Y-66853482D01*
X104646518Y-66656568D01*
X104389239Y-66550000D01*
X104110761Y-66550000D01*
X103853482Y-66656568D01*
X103656568Y-66853482D01*
X103550000Y-67110761D01*
X103550000Y-67389239D01*
X103656568Y-67646518D01*
X103853482Y-67843432D01*
X104110761Y-67950000D01*
X104389239Y-67950000D01*
X104646518Y-67843432D01*
X104843432Y-67646518D01*
X104852345Y-67625000D01*
X110549096Y-67625000D01*
X110567407Y-67717054D01*
X110633712Y-67816288D01*
X110732946Y-67882593D01*
X110850000Y-67905877D01*
X111063794Y-67905877D01*
X111010948Y-67958723D01*
X110979642Y-67979641D01*
X110958723Y-68010948D01*
X110958721Y-68010950D01*
X110903146Y-68094123D01*
X110850000Y-68094123D01*
X110732946Y-68117407D01*
X110633712Y-68183712D01*
X110567407Y-68282946D01*
X110544123Y-68400000D01*
X110544123Y-68425000D01*
X110373056Y-68425000D01*
X110343432Y-68353482D01*
X110146518Y-68156568D01*
X109889239Y-68050000D01*
X109610761Y-68050000D01*
X109353482Y-68156568D01*
X109156568Y-68353482D01*
X109050000Y-68610761D01*
X109050000Y-68889239D01*
X109156568Y-69146518D01*
X109353482Y-69343432D01*
X109610761Y-69450000D01*
X109889239Y-69450000D01*
X110146518Y-69343432D01*
X110314950Y-69175000D01*
X110544123Y-69175000D01*
X110544123Y-69200000D01*
X110567407Y-69317054D01*
X110633712Y-69416288D01*
X110732946Y-69482593D01*
X110820455Y-69500000D01*
X110732946Y-69517407D01*
X110633712Y-69583712D01*
X110567407Y-69682946D01*
X110544123Y-69800000D01*
X110544123Y-69875000D01*
X103602345Y-69875000D01*
X103593432Y-69853482D01*
X103396518Y-69656568D01*
X103139239Y-69550000D01*
X102860761Y-69550000D01*
X102603482Y-69656568D01*
X102406568Y-69853482D01*
X102300000Y-70110761D01*
X100350000Y-70110761D01*
X100350000Y-55350000D01*
X129410050Y-55350000D01*
X129406568Y-55353482D01*
G36*
X121784123Y-81949000D02*
X121715877Y-81949000D01*
X121715877Y-81601000D01*
X121784123Y-81601000D01*
X121784123Y-81949000D01*
X121784123Y-81949000D01*
G37*
X121784123Y-81949000D02*
X121715877Y-81949000D01*
X121715877Y-81601000D01*
X121784123Y-81601000D01*
X121784123Y-81949000D01*
G36*
X121595998Y-80869998D02*
X121592307Y-80866307D01*
X121594404Y-80865438D01*
X121595998Y-80863844D01*
X121595998Y-80869998D01*
X121595998Y-80869998D01*
G37*
X121595998Y-80869998D02*
X121592307Y-80866307D01*
X121594404Y-80865438D01*
X121595998Y-80863844D01*
X121595998Y-80869998D01*
G36*
X122095998Y-80848673D02*
X122084694Y-80859977D01*
X122075027Y-80855973D01*
X122095998Y-80835002D01*
X122095998Y-80848673D01*
X122095998Y-80848673D01*
G37*
X122095998Y-80848673D02*
X122084694Y-80859977D01*
X122075027Y-80855973D01*
X122095998Y-80835002D01*
X122095998Y-80848673D01*
G36*
X121125000Y-79900000D02*
X122125000Y-79900000D01*
X122125000Y-79876000D01*
X122375000Y-79876000D01*
X122375000Y-79900000D01*
X122424000Y-79900000D01*
X122424000Y-80200000D01*
X122375000Y-80200000D01*
X122375000Y-80224000D01*
X122125000Y-80224000D01*
X122125000Y-80200000D01*
X121125000Y-80200000D01*
X121125000Y-80224000D01*
X120875000Y-80224000D01*
X120875000Y-80200000D01*
X120826000Y-80200000D01*
X120826000Y-79900000D01*
X120875000Y-79900000D01*
X120875000Y-79876000D01*
X121125000Y-79876000D01*
X121125000Y-79900000D01*
X121125000Y-79900000D01*
G37*
X121125000Y-79900000D02*
X122125000Y-79900000D01*
X122125000Y-79876000D01*
X122375000Y-79876000D01*
X122375000Y-79900000D01*
X122424000Y-79900000D01*
X122424000Y-80200000D01*
X122375000Y-80200000D01*
X122375000Y-80224000D01*
X122125000Y-80224000D01*
X122125000Y-80200000D01*
X121125000Y-80200000D01*
X121125000Y-80224000D01*
X120875000Y-80224000D01*
X120875000Y-80200000D01*
X120826000Y-80200000D01*
X120826000Y-79900000D01*
X120875000Y-79900000D01*
X120875000Y-79876000D01*
X121125000Y-79876000D01*
X121125000Y-79900000D01*
G04 #@! TD*
M02*
