M48
;DRILL file {KiCad (5.0.0)} date 10/16/18 17:34:41
;FORMAT={-:-/ absolute / inch / decimal}
FMAT,2
INCH,TZ
T1C0.0157
T2C0.0197
T3C0.0217
%
G90
G05
M72
T1
X4.0551Y-2.7657
X4.0551Y-3.1004
X4.1043Y-2.6476
X4.1043Y-3.0512
X4.1535Y-2.5295
X4.1535Y-3.0118
X4.2028Y-2.4114
X4.2028Y-2.9724
X4.252Y-2.2933
X4.252Y-2.9331
X4.3209Y-2.4705
X4.3209Y-2.5886
X4.3209Y-2.7067
X4.3209Y-2.8248
X4.3209Y-2.8937
X4.3209Y-2.9331
X4.3209Y-3.1693
X4.4193Y-2.9724
X4.4193Y-3.2382
X4.4291Y-2.3524
X4.4291Y-2.5886
X4.4291Y-2.7067
X4.4291Y-2.8248
X4.4291Y-2.9035
X4.4783Y-3.0118
X4.4783Y-3.2874
X4.5276Y-2.3524
X4.5276Y-2.4705
X4.5276Y-2.7067
X4.5276Y-2.8248
X4.5276Y-2.9035
X4.5276Y-3.8287
X4.5374Y-3.0512
X4.5374Y-3.3169
X4.6063Y-3.1004
X4.6063Y-3.3563
X4.626Y-2.3524
X4.626Y-2.4705
X4.626Y-2.5886
X4.626Y-2.8248
X4.626Y-2.9035
X4.6358Y-3.2579
X4.6752Y-3.6024
X4.685Y-3.2677
X4.7047Y-3.1299
X4.7244Y-2.3524
X4.7244Y-2.4705
X4.7244Y-2.5886
X4.7244Y-2.7067
X4.7244Y-2.9724
X4.7539Y-3.6024
X4.7835Y-3.0709
X4.8031Y-3.3858
X4.8228Y-2.3524
X4.8228Y-2.4705
X4.8228Y-2.5886
X4.8228Y-2.7067
X4.8228Y-2.8248
X4.8228Y-2.9035
X4.8819Y-3.126
X4.9213Y-2.2441
X4.9213Y-2.3524
X4.9213Y-2.4705
X4.9213Y-2.5886
X4.9213Y-2.7067
X4.9213Y-2.8248
X4.9213Y-2.9035
X4.9508Y-3.248
X4.9508Y-3.187
X4.9606Y-3.1004
X4.9606Y-3.4154
X5.0098Y-3.0512
X5.0098Y-3.3858
X5.0197Y-2.2195
X5.0197Y-2.3524
X5.0197Y-2.4705
X5.0197Y-2.5886
X5.0197Y-2.7067
X5.0197Y-2.8248
X5.0197Y-2.9035
X5.0374Y-3.0118
X5.0394Y-3.3366
X5.1181Y-2.1949
X5.1181Y-2.3524
X5.1181Y-2.4705
X5.1181Y-2.5886
X5.1181Y-2.7067
X5.1181Y-2.8248
X5.1181Y-2.9035
X5.128Y-2.9724
X5.128Y-3.3071
X5.2165Y-2.3524
X5.2165Y-2.4705
X5.2165Y-2.5886
X5.2165Y-2.7067
X5.2165Y-2.8248
X5.2165Y-2.9035
X5.2165Y-3.8287
X5.2559Y-2.9311
X5.2559Y-3.3071
X5.315Y-2.3524
X5.315Y-2.4705
X5.315Y-2.5886
X5.315Y-2.7067
X5.315Y-2.8346
X5.3543Y-3.5335
X5.4134Y-2.3524
X5.4134Y-2.4705
X5.4134Y-2.5886
X5.4134Y-2.7067
X5.4134Y-2.8346
X5.5118Y-2.3524
X5.5118Y-2.4705
X5.5118Y-2.5886
X5.5118Y-2.7067
X5.5118Y-2.8346
X5.6102Y-2.3524
X5.6102Y-2.4705
X5.6102Y-2.5886
X5.6102Y-2.7067
X5.6102Y-2.8346
X5.7087Y-2.3524
X5.7087Y-2.4705
X5.7087Y-2.5886
X5.7087Y-2.7067
X5.7087Y-2.8346
X5.748Y-3.2677
X5.748Y-3.5827
X5.8071Y-2.2441
X5.8071Y-2.3524
X5.8071Y-2.5886
X5.8071Y-2.7067
X5.8071Y-2.8346
X5.9055Y-2.2244
X5.9055Y-2.3524
X5.9055Y-2.4705
X5.9055Y-2.7067
X5.9055Y-2.8346
X5.9055Y-3.8287
X5.9252Y-3.4449
X5.9261Y-3.1272
X6.002Y-2.4724
X6.0039Y-2.1949
X6.0039Y-2.3524
X6.0039Y-2.5886
X6.0039Y-2.8346
X6.0039Y-3.1791
X6.0039Y-3.3465
X6.1024Y-2.4705
X6.1024Y-2.5886
X6.1024Y-2.3524
X6.1024Y-2.7067
X6.1516Y-2.4409
X6.1516Y-2.5591
X6.1516Y-2.6772
X6.1516Y-2.7953
X6.2008Y-2.7657
X6.2008Y-2.9232
X6.25Y-2.6476
X6.25Y-2.9724
X6.3091Y-2.5295
X6.3091Y-3.0118
X6.3386Y-3.5531
X6.3681Y-2.4114
X6.3681Y-3.0512
X6.4272Y-2.2933
X6.4272Y-3.1004
T2
X3.9793Y-3.3858G85X4.0049Y-3.3858
G05
X3.9793Y-3.6614G85X4.0049Y-3.6614
G05
T3
X4.0984Y-3.4193G85X4.0984Y-3.4311
G05
X4.0984Y-3.6161G85X4.0984Y-3.628
G05
T0
M30
