G04 #@! TF.GenerationSoftware,KiCad,Pcbnew,(5.0.0)*
G04 #@! TF.CreationDate,2018-10-16T17:34:37+02:00*
G04 #@! TF.ProjectId,B-timer,422D74696D65722E6B696361645F7063,rev?*
G04 #@! TF.SameCoordinates,Original*
G04 #@! TF.FileFunction,Copper,L2,Bot,Signal*
G04 #@! TF.FilePolarity,Positive*
%FSLAX46Y46*%
G04 Gerber Fmt 4.6, Leading zero omitted, Abs format (unit mm)*
G04 Created by KiCad (PCBNEW (5.0.0)) date 10/16/18 17:34:37*
%MOMM*%
%LPD*%
G01*
G04 APERTURE LIST*
G04 #@! TA.AperFunction,ComponentPad*
%ADD10O,1.550000X1.000000*%
G04 #@! TD*
G04 #@! TA.AperFunction,ComponentPad*
%ADD11O,0.950000X1.250000*%
G04 #@! TD*
G04 #@! TA.AperFunction,ViaPad*
%ADD12C,0.800000*%
G04 #@! TD*
G04 #@! TA.AperFunction,Conductor*
%ADD13C,0.150000*%
G04 #@! TD*
G04 #@! TA.AperFunction,Conductor*
%ADD14C,0.200000*%
G04 #@! TD*
G04 APERTURE END LIST*
D10*
G04 #@! TO.P,J1,6*
G04 #@! TO.N,GND*
X101400000Y-93000000D03*
X101400000Y-86000000D03*
D11*
X104100000Y-92000000D03*
X104100000Y-87000000D03*
G04 #@! TD*
D12*
G04 #@! TO.N,GND*
X122000000Y-86000000D03*
X136000000Y-89750000D03*
X115000000Y-97250000D03*
X150000000Y-97250000D03*
X132500000Y-97250000D03*
X161000000Y-90250000D03*
X121500000Y-78000000D03*
G04 #@! TO.N,Net-(BZ1-Pad1)*
X125749978Y-82500000D03*
X125750000Y-80949987D03*
G04 #@! TO.N,D0*
X108000000Y-58250000D03*
X108000000Y-74500000D03*
X109750000Y-74500000D03*
X109750000Y-80500000D03*
G04 #@! TO.N,Net-(D1-Pad2)*
X112500000Y-65750000D03*
X112500000Y-68750000D03*
X137500000Y-72000000D03*
X137500000Y-68750000D03*
X137500000Y-62750000D03*
X112500000Y-59750000D03*
X137500000Y-59750000D03*
X137500000Y-65750014D03*
X112500000Y-73750000D03*
X112500000Y-71750000D03*
G04 #@! TO.N,Net-(D11-Pad2)*
X115000000Y-59750000D03*
X115000000Y-68750000D03*
X115000000Y-62750000D03*
X140000000Y-72000000D03*
X140000000Y-68750000D03*
X140000000Y-65750000D03*
X140000000Y-62750000D03*
X140000000Y-59750000D03*
X115000000Y-73750000D03*
X115000000Y-71750000D03*
G04 #@! TO.N,Net-(D12-Pad2)*
X117500000Y-65750000D03*
X117500000Y-62750000D03*
X142500000Y-72000000D03*
X142500000Y-68750000D03*
X142500000Y-65750000D03*
X142500000Y-62750000D03*
X117500000Y-59750000D03*
X142500000Y-59750000D03*
X117500000Y-73750000D03*
X117500000Y-71750000D03*
G04 #@! TO.N,Net-(D13-Pad2)*
X120000000Y-75500000D03*
X120000000Y-62750000D03*
X120000000Y-65750000D03*
X120000000Y-68750000D03*
X145000000Y-72000000D03*
X145000000Y-68750000D03*
X145000000Y-62750000D03*
X119999990Y-59750000D03*
X145000000Y-59750000D03*
X145000000Y-65749999D03*
G04 #@! TO.N,Net-(D14-Pad2)*
X122500000Y-68750000D03*
X122500000Y-65750000D03*
X122500000Y-62750000D03*
X122500000Y-59750000D03*
X122500000Y-73750000D03*
X122500000Y-71750000D03*
X156250000Y-62000000D03*
X156250000Y-71000000D03*
X156250000Y-68000000D03*
X156250000Y-65000000D03*
G04 #@! TO.N,Net-(D15-Pad2)*
X125000000Y-62750000D03*
X125000000Y-65750000D03*
X125000000Y-68750000D03*
X147500000Y-72000000D03*
X147500000Y-68750000D03*
X147500000Y-65750000D03*
X125000000Y-59750000D03*
X147500000Y-59750000D03*
X125000000Y-57000000D03*
X147500000Y-57000000D03*
X125000000Y-73750000D03*
X125000000Y-71750000D03*
G04 #@! TO.N,Net-(D16-Pad2)*
X127500000Y-68750000D03*
X127500000Y-65750000D03*
X127500000Y-62750000D03*
X150000000Y-72000000D03*
X150000000Y-68750000D03*
X150000000Y-62750000D03*
X127500000Y-59750000D03*
X150000000Y-59750000D03*
X127500000Y-56375000D03*
X150000000Y-56500000D03*
X127500000Y-73750000D03*
X127500000Y-71750000D03*
G04 #@! TO.N,Net-(D17-Pad2)*
X130000000Y-68750000D03*
X130000000Y-65750000D03*
X130000000Y-62750000D03*
X152500000Y-72000000D03*
X152450000Y-62800000D03*
X152500000Y-65750000D03*
X130000000Y-59750000D03*
X152500000Y-59750000D03*
X130000000Y-55750000D03*
X152500000Y-55750000D03*
X130000000Y-73750000D03*
X130000000Y-71750000D03*
G04 #@! TO.N,Net-(D18-Pad2)*
X132500000Y-68750000D03*
X132500000Y-65750000D03*
X132500000Y-62750000D03*
X155000000Y-68750000D03*
X154999980Y-65750000D03*
X154999980Y-62750000D03*
X132500000Y-59750000D03*
X155000000Y-59750000D03*
X132500000Y-73750000D03*
X132500000Y-71750000D03*
G04 #@! TO.N,Net-(D10-Pad2)*
X109750000Y-62750000D03*
X109750000Y-73500000D03*
X109750000Y-71750000D03*
X109750000Y-68750000D03*
X109750000Y-65750000D03*
X135000000Y-72000000D03*
X135000000Y-68750000D03*
X135000000Y-65750000D03*
X135000000Y-62750000D03*
X135000000Y-59750000D03*
G04 #@! TO.N,D1*
X106750000Y-75500000D03*
X106750000Y-61250000D03*
X112250000Y-75500000D03*
X112250000Y-82250000D03*
G04 #@! TO.N,D2*
X105500000Y-76500000D03*
X105500000Y-64250000D03*
X113750000Y-76500000D03*
X113750000Y-83500000D03*
G04 #@! TO.N,D3*
X104250000Y-77500000D03*
X104250000Y-67250000D03*
X115250000Y-77500000D03*
X115250000Y-84250000D03*
G04 #@! TO.N,D4*
X103000000Y-78750000D03*
X103000000Y-70250000D03*
X117000000Y-78750000D03*
X117000000Y-85250000D03*
G04 #@! TO.N,D5*
X163250000Y-78750000D03*
X163250000Y-58250000D03*
X126000000Y-78750000D03*
X126000000Y-86750000D03*
G04 #@! TO.N,D6*
X161750000Y-77500000D03*
X161750000Y-61250000D03*
X127250000Y-77500000D03*
X127250000Y-86000000D03*
G04 #@! TO.N,D7*
X160250000Y-76500000D03*
X160250000Y-64250000D03*
X127950000Y-76500000D03*
X128000000Y-84750000D03*
G04 #@! TO.N,D8*
X158750000Y-75500000D03*
X158750000Y-67250000D03*
X130250000Y-75500000D03*
X130250000Y-84000000D03*
G04 #@! TO.N,D9*
X157500000Y-74250000D03*
X157500000Y-70250000D03*
X133500000Y-74450000D03*
X133500000Y-84000000D03*
G04 #@! TO.N,RESET*
X119500000Y-79500000D03*
X150500000Y-87500000D03*
X150522642Y-79432065D03*
X124000000Y-79399999D03*
G04 #@! TO.N,SCK*
X152500000Y-80750000D03*
X152500000Y-85000000D03*
G04 #@! TO.N,Net-(SW1-Pad2)*
X118750000Y-91500000D03*
X117750000Y-82750000D03*
G04 #@! TO.N,Net-(SW3-Pad2)*
X146000000Y-83000000D03*
X146000000Y-91000000D03*
G04 #@! TO.N,Net-(SW2-Pad2)*
X119000000Y-83000000D03*
X120750000Y-91500000D03*
G04 #@! TD*
D13*
G04 #@! TO.N,Net-(BZ1-Pad1)*
X125749978Y-82500000D02*
X125749978Y-80950009D01*
X125749978Y-80950009D02*
X125750000Y-80949987D01*
G04 #@! TO.N,D0*
X108000000Y-58250000D02*
X108000000Y-74500000D01*
X109750000Y-74500000D02*
X109750000Y-80500000D01*
G04 #@! TO.N,Net-(D1-Pad2)*
X112500000Y-65750000D02*
X112500000Y-68750000D01*
X137500000Y-68750000D02*
X137500000Y-72000000D01*
X112500000Y-65750000D02*
X112500000Y-59750000D01*
X137500000Y-62750000D02*
X137500000Y-59750000D01*
X137500000Y-62750000D02*
X137500000Y-65750014D01*
X137500000Y-68750000D02*
X137500000Y-65750014D01*
X112500000Y-68750000D02*
X112500000Y-71750000D01*
X112500000Y-71750000D02*
X112500000Y-73750000D01*
G04 #@! TO.N,Net-(D11-Pad2)*
X115000000Y-59750000D02*
X115000000Y-62750000D01*
X115000000Y-62750000D02*
X115000000Y-68750000D01*
X140000000Y-68750000D02*
X140000000Y-72000000D01*
X140000000Y-65750000D02*
X140000000Y-68750000D01*
X140000000Y-62750000D02*
X140000000Y-65750000D01*
X140000000Y-62750000D02*
X140000000Y-60000000D01*
X140000000Y-60000000D02*
X140000000Y-59750000D01*
X115000000Y-68750000D02*
X115000000Y-71750000D01*
X115000000Y-71750000D02*
X115000000Y-73750000D01*
G04 #@! TO.N,Net-(D12-Pad2)*
X117500000Y-62750000D02*
X117500000Y-65750000D01*
X142500000Y-65750000D02*
X142500000Y-72000000D01*
X142500000Y-62750000D02*
X142500000Y-65750000D01*
X117500000Y-62750000D02*
X117500000Y-59750000D01*
X142500000Y-60000000D02*
X142500000Y-59750000D01*
X142500000Y-62750000D02*
X142500000Y-60000000D01*
X117500000Y-65750000D02*
X117500000Y-73750000D01*
G04 #@! TO.N,Net-(D13-Pad2)*
X120000000Y-62750000D02*
X120000000Y-65750000D01*
X120000000Y-65750000D02*
X120000000Y-68750000D01*
X120000000Y-68750000D02*
X120000000Y-75500000D01*
X145000000Y-68750000D02*
X145000000Y-72000000D01*
X120000000Y-60000000D02*
X120000000Y-59750010D01*
X120000000Y-59750010D02*
X119999990Y-59750000D01*
X120000000Y-62750000D02*
X120000000Y-60000000D01*
X145000000Y-60000000D02*
X145000000Y-59750000D01*
X145000000Y-62750000D02*
X145000000Y-60000000D01*
X145000000Y-68750000D02*
X145000000Y-65749999D01*
X145000000Y-62750000D02*
X145000000Y-65749999D01*
G04 #@! TO.N,Net-(D14-Pad2)*
X122500000Y-65750000D02*
X122500000Y-68750000D01*
X122500000Y-62750000D02*
X122500000Y-65750000D01*
X122500000Y-62750000D02*
X122500000Y-59750000D01*
X122500000Y-68750000D02*
X122500000Y-71750000D01*
X122500000Y-71750000D02*
X122500000Y-73750000D01*
X156250000Y-68000000D02*
X156250000Y-71000000D01*
X156250000Y-62000000D02*
X156250000Y-65000000D01*
X156250000Y-65000000D02*
X156250000Y-68000000D01*
G04 #@! TO.N,Net-(D15-Pad2)*
X125000000Y-62750000D02*
X125000000Y-65750000D01*
X125000000Y-65750000D02*
X125000000Y-68750000D01*
X147500000Y-68750000D02*
X147500000Y-72000000D01*
X147500000Y-65750000D02*
X147500000Y-68750000D01*
X125000000Y-62750000D02*
X125000000Y-59750000D01*
X147500000Y-65750000D02*
X147500000Y-60000000D01*
X147500000Y-60000000D02*
X147500000Y-59750000D01*
X125000000Y-59750000D02*
X125000000Y-57000000D01*
X147500000Y-57000000D02*
X147500000Y-59750000D01*
X125000000Y-68750000D02*
X125000000Y-71750000D01*
X125000000Y-71750000D02*
X125000000Y-73750000D01*
G04 #@! TO.N,Net-(D16-Pad2)*
X127500000Y-65750000D02*
X127500000Y-68750000D01*
X127500000Y-62750000D02*
X127500000Y-65750000D01*
X150000000Y-68750000D02*
X150000000Y-72000000D01*
X127500000Y-62750000D02*
X127500000Y-59750000D01*
X150000000Y-60000000D02*
X150000000Y-59750000D01*
X150000000Y-68750000D02*
X150000000Y-60000000D01*
X127500000Y-59750000D02*
X127500000Y-56375000D01*
X150000000Y-57065685D02*
X150000000Y-59750000D01*
X150000000Y-56500000D02*
X150000000Y-57065685D01*
X127500000Y-68750000D02*
X127500000Y-71750000D01*
X127500000Y-71750000D02*
X127500000Y-73750000D01*
G04 #@! TO.N,Net-(D17-Pad2)*
X130000000Y-65750000D02*
X130000000Y-68750000D01*
X152500000Y-65750000D02*
X152500000Y-72000000D01*
X130000000Y-65750000D02*
X130000000Y-60000000D01*
X130000000Y-60000000D02*
X130000000Y-59750000D01*
X152500000Y-65750000D02*
X152500000Y-59750000D01*
X130000000Y-59750000D02*
X130000000Y-55750000D01*
X152500000Y-55750000D02*
X152500000Y-59750000D01*
X130000000Y-68750000D02*
X130000000Y-71750000D01*
X130000000Y-71750000D02*
X130000000Y-73750000D01*
G04 #@! TO.N,Net-(D18-Pad2)*
X132500000Y-65750000D02*
X132500000Y-68750000D01*
X132500000Y-62750000D02*
X132500000Y-63315685D01*
X154999980Y-68749980D02*
X155000000Y-68750000D01*
X154999980Y-65750000D02*
X154999980Y-68749980D01*
X154999980Y-62750000D02*
X154999980Y-65750000D01*
X132500000Y-65750000D02*
X132500000Y-59750000D01*
X154999980Y-62750000D02*
X154999980Y-59750020D01*
X154999980Y-59750020D02*
X155000000Y-59750000D01*
X132500000Y-68750000D02*
X132500000Y-73750000D01*
G04 #@! TO.N,Net-(D10-Pad2)*
X109750000Y-71750000D02*
X109750000Y-73500000D01*
X109750000Y-68750000D02*
X109750000Y-71750000D01*
X109750000Y-62750000D02*
X109750000Y-65750000D01*
X109750000Y-65750000D02*
X109750000Y-68750000D01*
X135000000Y-68750000D02*
X135000000Y-72000000D01*
X135000000Y-65750000D02*
X135000000Y-68750000D01*
X135000000Y-62750000D02*
X135000000Y-65750000D01*
X135000000Y-62750000D02*
X135000000Y-59750000D01*
G04 #@! TO.N,D1*
X106750000Y-75500000D02*
X106750000Y-61250000D01*
X112250000Y-75500000D02*
X112250000Y-82250000D01*
G04 #@! TO.N,D2*
X105500000Y-76500000D02*
X105500000Y-64250000D01*
X113750000Y-76500000D02*
X113750000Y-83500000D01*
G04 #@! TO.N,D3*
X104250000Y-77500000D02*
X104250000Y-67250000D01*
X115250000Y-77500000D02*
X115250000Y-84250000D01*
G04 #@! TO.N,D4*
X103000000Y-78750000D02*
X103000000Y-70250000D01*
X117000000Y-78750000D02*
X117000000Y-85250000D01*
G04 #@! TO.N,D5*
X163250000Y-78750000D02*
X163250000Y-58250000D01*
X126625001Y-83050001D02*
X126000000Y-83675002D01*
X126000000Y-78750000D02*
X126625001Y-79375001D01*
X126000000Y-86184315D02*
X126000000Y-86750000D01*
X126625001Y-79375001D02*
X126625001Y-83050001D01*
X126000000Y-83675002D02*
X126000000Y-86184315D01*
G04 #@! TO.N,D6*
X161750000Y-77500000D02*
X161750000Y-61250000D01*
X127250000Y-77500000D02*
X127250000Y-86000000D01*
G04 #@! TO.N,D7*
X160250000Y-76500000D02*
X160250000Y-64250000D01*
X127950000Y-76500000D02*
X127950000Y-84700000D01*
X127950000Y-84700000D02*
X128000000Y-84750000D01*
G04 #@! TO.N,D8*
X158750000Y-75500000D02*
X158750000Y-67250000D01*
X130250000Y-75500000D02*
X130250000Y-84000000D01*
G04 #@! TO.N,D9*
X157500000Y-74250000D02*
X157500000Y-70250000D01*
X133500000Y-74450000D02*
X133500000Y-84000000D01*
G04 #@! TO.N,RESET*
X150500000Y-87500000D02*
X150500000Y-79454707D01*
X150500000Y-79454707D02*
X150522642Y-79432065D01*
X119500000Y-79500000D02*
X123899999Y-79500000D01*
X123899999Y-79500000D02*
X124000000Y-79399999D01*
G04 #@! TO.N,SCK*
X152500000Y-80750000D02*
X152500000Y-85000000D01*
G04 #@! TO.N,Net-(SW1-Pad2)*
X117750000Y-90500000D02*
X118750000Y-91500000D01*
X117750000Y-82750000D02*
X117750000Y-90500000D01*
G04 #@! TO.N,Net-(SW3-Pad2)*
X146000000Y-83000000D02*
X146000000Y-91000000D01*
G04 #@! TO.N,Net-(SW2-Pad2)*
X119000000Y-83000000D02*
X119000000Y-83565685D01*
X119000000Y-83565685D02*
X119000000Y-89750000D01*
X119000000Y-89750000D02*
X120750000Y-91500000D01*
G04 #@! TD*
D14*
G04 #@! TO.N,GND*
G36*
X129406568Y-55353482D02*
X129300000Y-55610761D01*
X129300000Y-55889239D01*
X129406568Y-56146518D01*
X129603482Y-56343432D01*
X129625001Y-56352345D01*
X129625000Y-59147655D01*
X129603482Y-59156568D01*
X129406568Y-59353482D01*
X129300000Y-59610761D01*
X129300000Y-59889239D01*
X129406568Y-60146518D01*
X129603482Y-60343432D01*
X129625001Y-60352345D01*
X129625001Y-62147655D01*
X129603482Y-62156568D01*
X129406568Y-62353482D01*
X129300000Y-62610761D01*
X129300000Y-62889239D01*
X129406568Y-63146518D01*
X129603482Y-63343432D01*
X129625000Y-63352345D01*
X129625000Y-65147655D01*
X129603482Y-65156568D01*
X129406568Y-65353482D01*
X129300000Y-65610761D01*
X129300000Y-65889239D01*
X129406568Y-66146518D01*
X129603482Y-66343432D01*
X129625000Y-66352345D01*
X129625001Y-68147655D01*
X129603482Y-68156568D01*
X129406568Y-68353482D01*
X129300000Y-68610761D01*
X129300000Y-68889239D01*
X129406568Y-69146518D01*
X129603482Y-69343432D01*
X129625000Y-69352345D01*
X129625001Y-71147655D01*
X129603482Y-71156568D01*
X129406568Y-71353482D01*
X129300000Y-71610761D01*
X129300000Y-71889239D01*
X129406568Y-72146518D01*
X129603482Y-72343432D01*
X129625000Y-72352345D01*
X129625001Y-73147655D01*
X129603482Y-73156568D01*
X129406568Y-73353482D01*
X129300000Y-73610761D01*
X129300000Y-73889239D01*
X129406568Y-74146518D01*
X129603482Y-74343432D01*
X129860761Y-74450000D01*
X130139239Y-74450000D01*
X130396518Y-74343432D01*
X130593432Y-74146518D01*
X130700000Y-73889239D01*
X130700000Y-73610761D01*
X130593432Y-73353482D01*
X130396518Y-73156568D01*
X130375000Y-73147655D01*
X130375000Y-72352345D01*
X130396518Y-72343432D01*
X130593432Y-72146518D01*
X130700000Y-71889239D01*
X130700000Y-71610761D01*
X130593432Y-71353482D01*
X130396518Y-71156568D01*
X130375000Y-71147655D01*
X130375000Y-69352345D01*
X130396518Y-69343432D01*
X130593432Y-69146518D01*
X130700000Y-68889239D01*
X130700000Y-68610761D01*
X130593432Y-68353482D01*
X130396518Y-68156568D01*
X130375000Y-68147655D01*
X130375000Y-66352345D01*
X130396518Y-66343432D01*
X130593432Y-66146518D01*
X130700000Y-65889239D01*
X130700000Y-65610761D01*
X130593432Y-65353482D01*
X130396518Y-65156568D01*
X130375000Y-65147655D01*
X130375000Y-63352345D01*
X130396518Y-63343432D01*
X130593432Y-63146518D01*
X130700000Y-62889239D01*
X130700000Y-62610761D01*
X130593432Y-62353482D01*
X130396518Y-62156568D01*
X130375000Y-62147655D01*
X130375000Y-60352345D01*
X130396518Y-60343432D01*
X130593432Y-60146518D01*
X130700000Y-59889239D01*
X130700000Y-59610761D01*
X131800000Y-59610761D01*
X131800000Y-59889239D01*
X131906568Y-60146518D01*
X132103482Y-60343432D01*
X132125001Y-60352345D01*
X132125001Y-62147655D01*
X132103482Y-62156568D01*
X131906568Y-62353482D01*
X131800000Y-62610761D01*
X131800000Y-62889239D01*
X131906568Y-63146518D01*
X132103482Y-63343432D01*
X132125000Y-63352345D01*
X132125000Y-65147655D01*
X132103482Y-65156568D01*
X131906568Y-65353482D01*
X131800000Y-65610761D01*
X131800000Y-65889239D01*
X131906568Y-66146518D01*
X132103482Y-66343432D01*
X132125000Y-66352345D01*
X132125001Y-68147655D01*
X132103482Y-68156568D01*
X131906568Y-68353482D01*
X131800000Y-68610761D01*
X131800000Y-68889239D01*
X131906568Y-69146518D01*
X132103482Y-69343432D01*
X132125000Y-69352345D01*
X132125000Y-71147655D01*
X132103482Y-71156568D01*
X131906568Y-71353482D01*
X131800000Y-71610761D01*
X131800000Y-71889239D01*
X131906568Y-72146518D01*
X132103482Y-72343432D01*
X132125001Y-72352345D01*
X132125001Y-73147655D01*
X132103482Y-73156568D01*
X131906568Y-73353482D01*
X131800000Y-73610761D01*
X131800000Y-73889239D01*
X131906568Y-74146518D01*
X132103482Y-74343432D01*
X132360761Y-74450000D01*
X132639239Y-74450000D01*
X132800000Y-74383411D01*
X132800000Y-74589239D01*
X132906568Y-74846518D01*
X133103482Y-75043432D01*
X133125000Y-75052345D01*
X133125001Y-83397655D01*
X133103482Y-83406568D01*
X132906568Y-83603482D01*
X132800000Y-83860761D01*
X132800000Y-84139239D01*
X132906568Y-84396518D01*
X133103482Y-84593432D01*
X133360761Y-84700000D01*
X133639239Y-84700000D01*
X133896518Y-84593432D01*
X134093432Y-84396518D01*
X134200000Y-84139239D01*
X134200000Y-83860761D01*
X134093432Y-83603482D01*
X133896518Y-83406568D01*
X133875000Y-83397655D01*
X133875000Y-82860761D01*
X145300000Y-82860761D01*
X145300000Y-83139239D01*
X145406568Y-83396518D01*
X145603482Y-83593432D01*
X145625000Y-83602345D01*
X145625001Y-90397655D01*
X145603482Y-90406568D01*
X145406568Y-90603482D01*
X145300000Y-90860761D01*
X145300000Y-91139239D01*
X145406568Y-91396518D01*
X145603482Y-91593432D01*
X145860761Y-91700000D01*
X146139239Y-91700000D01*
X146396518Y-91593432D01*
X146593432Y-91396518D01*
X146700000Y-91139239D01*
X146700000Y-90860761D01*
X146593432Y-90603482D01*
X146396518Y-90406568D01*
X146375000Y-90397655D01*
X146375000Y-87360761D01*
X149800000Y-87360761D01*
X149800000Y-87639239D01*
X149906568Y-87896518D01*
X150103482Y-88093432D01*
X150360761Y-88200000D01*
X150639239Y-88200000D01*
X150896518Y-88093432D01*
X151093432Y-87896518D01*
X151200000Y-87639239D01*
X151200000Y-87360761D01*
X151093432Y-87103482D01*
X150896518Y-86906568D01*
X150875000Y-86897655D01*
X150875000Y-80610761D01*
X151800000Y-80610761D01*
X151800000Y-80889239D01*
X151906568Y-81146518D01*
X152103482Y-81343432D01*
X152125000Y-81352345D01*
X152125001Y-84397655D01*
X152103482Y-84406568D01*
X151906568Y-84603482D01*
X151800000Y-84860761D01*
X151800000Y-85139239D01*
X151906568Y-85396518D01*
X152103482Y-85593432D01*
X152360761Y-85700000D01*
X152639239Y-85700000D01*
X152896518Y-85593432D01*
X153093432Y-85396518D01*
X153200000Y-85139239D01*
X153200000Y-84860761D01*
X153093432Y-84603482D01*
X152896518Y-84406568D01*
X152875000Y-84397655D01*
X152875000Y-81352345D01*
X152896518Y-81343432D01*
X153093432Y-81146518D01*
X153200000Y-80889239D01*
X153200000Y-80610761D01*
X153093432Y-80353482D01*
X152896518Y-80156568D01*
X152639239Y-80050000D01*
X152360761Y-80050000D01*
X152103482Y-80156568D01*
X151906568Y-80353482D01*
X151800000Y-80610761D01*
X150875000Y-80610761D01*
X150875000Y-80043789D01*
X150919160Y-80025497D01*
X151116074Y-79828583D01*
X151222642Y-79571304D01*
X151222642Y-79292826D01*
X151116074Y-79035547D01*
X150919160Y-78838633D01*
X150661881Y-78732065D01*
X150383403Y-78732065D01*
X150126124Y-78838633D01*
X149929210Y-79035547D01*
X149822642Y-79292826D01*
X149822642Y-79571304D01*
X149929210Y-79828583D01*
X150125001Y-80024374D01*
X150125000Y-86897655D01*
X150103482Y-86906568D01*
X149906568Y-87103482D01*
X149800000Y-87360761D01*
X146375000Y-87360761D01*
X146375000Y-83602345D01*
X146396518Y-83593432D01*
X146593432Y-83396518D01*
X146700000Y-83139239D01*
X146700000Y-82860761D01*
X146593432Y-82603482D01*
X146396518Y-82406568D01*
X146139239Y-82300000D01*
X145860761Y-82300000D01*
X145603482Y-82406568D01*
X145406568Y-82603482D01*
X145300000Y-82860761D01*
X133875000Y-82860761D01*
X133875000Y-75052345D01*
X133896518Y-75043432D01*
X134093432Y-74846518D01*
X134200000Y-74589239D01*
X134200000Y-74310761D01*
X134093432Y-74053482D01*
X133896518Y-73856568D01*
X133639239Y-73750000D01*
X133360761Y-73750000D01*
X133200000Y-73816589D01*
X133200000Y-73610761D01*
X133093432Y-73353482D01*
X132896518Y-73156568D01*
X132875000Y-73147655D01*
X132875000Y-72352345D01*
X132896518Y-72343432D01*
X133093432Y-72146518D01*
X133200000Y-71889239D01*
X133200000Y-71610761D01*
X133093432Y-71353482D01*
X132896518Y-71156568D01*
X132875000Y-71147655D01*
X132875000Y-69352345D01*
X132896518Y-69343432D01*
X133093432Y-69146518D01*
X133200000Y-68889239D01*
X133200000Y-68610761D01*
X133093432Y-68353482D01*
X132896518Y-68156568D01*
X132875000Y-68147655D01*
X132875000Y-66352345D01*
X132896518Y-66343432D01*
X133093432Y-66146518D01*
X133200000Y-65889239D01*
X133200000Y-65610761D01*
X133093432Y-65353482D01*
X132896518Y-65156568D01*
X132875000Y-65147655D01*
X132875000Y-63352345D01*
X132896518Y-63343432D01*
X133093432Y-63146518D01*
X133200000Y-62889239D01*
X133200000Y-62610761D01*
X133093432Y-62353482D01*
X132896518Y-62156568D01*
X132875000Y-62147655D01*
X132875000Y-60352345D01*
X132896518Y-60343432D01*
X133093432Y-60146518D01*
X133200000Y-59889239D01*
X133200000Y-59610761D01*
X134300000Y-59610761D01*
X134300000Y-59889239D01*
X134406568Y-60146518D01*
X134603482Y-60343432D01*
X134625001Y-60352345D01*
X134625000Y-62147655D01*
X134603482Y-62156568D01*
X134406568Y-62353482D01*
X134300000Y-62610761D01*
X134300000Y-62889239D01*
X134406568Y-63146518D01*
X134603482Y-63343432D01*
X134625000Y-63352345D01*
X134625001Y-65147655D01*
X134603482Y-65156568D01*
X134406568Y-65353482D01*
X134300000Y-65610761D01*
X134300000Y-65889239D01*
X134406568Y-66146518D01*
X134603482Y-66343432D01*
X134625000Y-66352345D01*
X134625001Y-68147655D01*
X134603482Y-68156568D01*
X134406568Y-68353482D01*
X134300000Y-68610761D01*
X134300000Y-68889239D01*
X134406568Y-69146518D01*
X134603482Y-69343432D01*
X134625000Y-69352345D01*
X134625001Y-71397655D01*
X134603482Y-71406568D01*
X134406568Y-71603482D01*
X134300000Y-71860761D01*
X134300000Y-72139239D01*
X134406568Y-72396518D01*
X134603482Y-72593432D01*
X134860761Y-72700000D01*
X135139239Y-72700000D01*
X135396518Y-72593432D01*
X135593432Y-72396518D01*
X135700000Y-72139239D01*
X135700000Y-71860761D01*
X135593432Y-71603482D01*
X135396518Y-71406568D01*
X135375000Y-71397655D01*
X135375000Y-69352345D01*
X135396518Y-69343432D01*
X135593432Y-69146518D01*
X135700000Y-68889239D01*
X135700000Y-68610761D01*
X135593432Y-68353482D01*
X135396518Y-68156568D01*
X135375000Y-68147655D01*
X135375000Y-66352345D01*
X135396518Y-66343432D01*
X135593432Y-66146518D01*
X135700000Y-65889239D01*
X135700000Y-65610761D01*
X135593432Y-65353482D01*
X135396518Y-65156568D01*
X135375000Y-65147655D01*
X135375000Y-63352345D01*
X135396518Y-63343432D01*
X135593432Y-63146518D01*
X135700000Y-62889239D01*
X135700000Y-62610761D01*
X135593432Y-62353482D01*
X135396518Y-62156568D01*
X135375000Y-62147655D01*
X135375000Y-60352345D01*
X135396518Y-60343432D01*
X135593432Y-60146518D01*
X135700000Y-59889239D01*
X135700000Y-59610761D01*
X136800000Y-59610761D01*
X136800000Y-59889239D01*
X136906568Y-60146518D01*
X137103482Y-60343432D01*
X137125001Y-60352345D01*
X137125000Y-62147655D01*
X137103482Y-62156568D01*
X136906568Y-62353482D01*
X136800000Y-62610761D01*
X136800000Y-62889239D01*
X136906568Y-63146518D01*
X137103482Y-63343432D01*
X137125000Y-63352345D01*
X137125001Y-65147669D01*
X137103482Y-65156582D01*
X136906568Y-65353496D01*
X136800000Y-65610775D01*
X136800000Y-65889253D01*
X136906568Y-66146532D01*
X137103482Y-66343446D01*
X137125001Y-66352359D01*
X137125000Y-68147655D01*
X137103482Y-68156568D01*
X136906568Y-68353482D01*
X136800000Y-68610761D01*
X136800000Y-68889239D01*
X136906568Y-69146518D01*
X137103482Y-69343432D01*
X137125000Y-69352345D01*
X137125001Y-71397655D01*
X137103482Y-71406568D01*
X136906568Y-71603482D01*
X136800000Y-71860761D01*
X136800000Y-72139239D01*
X136906568Y-72396518D01*
X137103482Y-72593432D01*
X137360761Y-72700000D01*
X137639239Y-72700000D01*
X137896518Y-72593432D01*
X138093432Y-72396518D01*
X138200000Y-72139239D01*
X138200000Y-71860761D01*
X138093432Y-71603482D01*
X137896518Y-71406568D01*
X137875000Y-71397655D01*
X137875000Y-69352345D01*
X137896518Y-69343432D01*
X138093432Y-69146518D01*
X138200000Y-68889239D01*
X138200000Y-68610761D01*
X138093432Y-68353482D01*
X137896518Y-68156568D01*
X137875000Y-68147655D01*
X137875000Y-66352359D01*
X137896518Y-66343446D01*
X138093432Y-66146532D01*
X138200000Y-65889253D01*
X138200000Y-65610775D01*
X138093432Y-65353496D01*
X137896518Y-65156582D01*
X137875000Y-65147669D01*
X137875000Y-63352345D01*
X137896518Y-63343432D01*
X138093432Y-63146518D01*
X138200000Y-62889239D01*
X138200000Y-62610761D01*
X138093432Y-62353482D01*
X137896518Y-62156568D01*
X137875000Y-62147655D01*
X137875000Y-60352345D01*
X137896518Y-60343432D01*
X138093432Y-60146518D01*
X138200000Y-59889239D01*
X138200000Y-59610761D01*
X139300000Y-59610761D01*
X139300000Y-59889239D01*
X139406568Y-60146518D01*
X139603482Y-60343432D01*
X139625001Y-60352345D01*
X139625000Y-62147655D01*
X139603482Y-62156568D01*
X139406568Y-62353482D01*
X139300000Y-62610761D01*
X139300000Y-62889239D01*
X139406568Y-63146518D01*
X139603482Y-63343432D01*
X139625000Y-63352345D01*
X139625001Y-65147655D01*
X139603482Y-65156568D01*
X139406568Y-65353482D01*
X139300000Y-65610761D01*
X139300000Y-65889239D01*
X139406568Y-66146518D01*
X139603482Y-66343432D01*
X139625000Y-66352345D01*
X139625001Y-68147655D01*
X139603482Y-68156568D01*
X139406568Y-68353482D01*
X139300000Y-68610761D01*
X139300000Y-68889239D01*
X139406568Y-69146518D01*
X139603482Y-69343432D01*
X139625000Y-69352345D01*
X139625001Y-71397655D01*
X139603482Y-71406568D01*
X139406568Y-71603482D01*
X139300000Y-71860761D01*
X139300000Y-72139239D01*
X139406568Y-72396518D01*
X139603482Y-72593432D01*
X139860761Y-72700000D01*
X140139239Y-72700000D01*
X140396518Y-72593432D01*
X140593432Y-72396518D01*
X140700000Y-72139239D01*
X140700000Y-71860761D01*
X140593432Y-71603482D01*
X140396518Y-71406568D01*
X140375000Y-71397655D01*
X140375000Y-69352345D01*
X140396518Y-69343432D01*
X140593432Y-69146518D01*
X140700000Y-68889239D01*
X140700000Y-68610761D01*
X140593432Y-68353482D01*
X140396518Y-68156568D01*
X140375000Y-68147655D01*
X140375000Y-66352345D01*
X140396518Y-66343432D01*
X140593432Y-66146518D01*
X140700000Y-65889239D01*
X140700000Y-65610761D01*
X140593432Y-65353482D01*
X140396518Y-65156568D01*
X140375000Y-65147655D01*
X140375000Y-63352345D01*
X140396518Y-63343432D01*
X140593432Y-63146518D01*
X140700000Y-62889239D01*
X140700000Y-62610761D01*
X140593432Y-62353482D01*
X140396518Y-62156568D01*
X140375000Y-62147655D01*
X140375000Y-60352345D01*
X140396518Y-60343432D01*
X140593432Y-60146518D01*
X140700000Y-59889239D01*
X140700000Y-59610761D01*
X141800000Y-59610761D01*
X141800000Y-59889239D01*
X141906568Y-60146518D01*
X142103482Y-60343432D01*
X142125001Y-60352345D01*
X142125000Y-62147655D01*
X142103482Y-62156568D01*
X141906568Y-62353482D01*
X141800000Y-62610761D01*
X141800000Y-62889239D01*
X141906568Y-63146518D01*
X142103482Y-63343432D01*
X142125000Y-63352345D01*
X142125001Y-65147655D01*
X142103482Y-65156568D01*
X141906568Y-65353482D01*
X141800000Y-65610761D01*
X141800000Y-65889239D01*
X141906568Y-66146518D01*
X142103482Y-66343432D01*
X142125000Y-66352345D01*
X142125000Y-68147655D01*
X142103482Y-68156568D01*
X141906568Y-68353482D01*
X141800000Y-68610761D01*
X141800000Y-68889239D01*
X141906568Y-69146518D01*
X142103482Y-69343432D01*
X142125001Y-69352345D01*
X142125001Y-71397655D01*
X142103482Y-71406568D01*
X141906568Y-71603482D01*
X141800000Y-71860761D01*
X141800000Y-72139239D01*
X141906568Y-72396518D01*
X142103482Y-72593432D01*
X142360761Y-72700000D01*
X142639239Y-72700000D01*
X142896518Y-72593432D01*
X143093432Y-72396518D01*
X143200000Y-72139239D01*
X143200000Y-71860761D01*
X143093432Y-71603482D01*
X142896518Y-71406568D01*
X142875000Y-71397655D01*
X142875000Y-69352345D01*
X142896518Y-69343432D01*
X143093432Y-69146518D01*
X143200000Y-68889239D01*
X143200000Y-68610761D01*
X143093432Y-68353482D01*
X142896518Y-68156568D01*
X142875000Y-68147655D01*
X142875000Y-66352345D01*
X142896518Y-66343432D01*
X143093432Y-66146518D01*
X143200000Y-65889239D01*
X143200000Y-65610761D01*
X143093432Y-65353482D01*
X142896518Y-65156568D01*
X142875000Y-65147655D01*
X142875000Y-63352345D01*
X142896518Y-63343432D01*
X143093432Y-63146518D01*
X143200000Y-62889239D01*
X143200000Y-62610761D01*
X143093432Y-62353482D01*
X142896518Y-62156568D01*
X142875000Y-62147655D01*
X142875000Y-60352345D01*
X142896518Y-60343432D01*
X143093432Y-60146518D01*
X143200000Y-59889239D01*
X143200000Y-59610761D01*
X144300000Y-59610761D01*
X144300000Y-59889239D01*
X144406568Y-60146518D01*
X144603482Y-60343432D01*
X144625001Y-60352345D01*
X144625000Y-62147655D01*
X144603482Y-62156568D01*
X144406568Y-62353482D01*
X144300000Y-62610761D01*
X144300000Y-62889239D01*
X144406568Y-63146518D01*
X144603482Y-63343432D01*
X144625000Y-63352345D01*
X144625001Y-65147654D01*
X144603482Y-65156567D01*
X144406568Y-65353481D01*
X144300000Y-65610760D01*
X144300000Y-65889238D01*
X144406568Y-66146517D01*
X144603482Y-66343431D01*
X144625001Y-66352344D01*
X144625000Y-68147655D01*
X144603482Y-68156568D01*
X144406568Y-68353482D01*
X144300000Y-68610761D01*
X144300000Y-68889239D01*
X144406568Y-69146518D01*
X144603482Y-69343432D01*
X144625000Y-69352345D01*
X144625001Y-71397655D01*
X144603482Y-71406568D01*
X144406568Y-71603482D01*
X144300000Y-71860761D01*
X144300000Y-72139239D01*
X144406568Y-72396518D01*
X144603482Y-72593432D01*
X144860761Y-72700000D01*
X145139239Y-72700000D01*
X145396518Y-72593432D01*
X145593432Y-72396518D01*
X145700000Y-72139239D01*
X145700000Y-71860761D01*
X145593432Y-71603482D01*
X145396518Y-71406568D01*
X145375000Y-71397655D01*
X145375000Y-69352345D01*
X145396518Y-69343432D01*
X145593432Y-69146518D01*
X145700000Y-68889239D01*
X145700000Y-68610761D01*
X145593432Y-68353482D01*
X145396518Y-68156568D01*
X145375000Y-68147655D01*
X145375000Y-66352344D01*
X145396518Y-66343431D01*
X145593432Y-66146517D01*
X145700000Y-65889238D01*
X145700000Y-65610760D01*
X145593432Y-65353481D01*
X145396518Y-65156567D01*
X145375000Y-65147654D01*
X145375000Y-63352345D01*
X145396518Y-63343432D01*
X145593432Y-63146518D01*
X145700000Y-62889239D01*
X145700000Y-62610761D01*
X145593432Y-62353482D01*
X145396518Y-62156568D01*
X145375000Y-62147655D01*
X145375000Y-60352345D01*
X145396518Y-60343432D01*
X145593432Y-60146518D01*
X145700000Y-59889239D01*
X145700000Y-59610761D01*
X145593432Y-59353482D01*
X145396518Y-59156568D01*
X145139239Y-59050000D01*
X144860761Y-59050000D01*
X144603482Y-59156568D01*
X144406568Y-59353482D01*
X144300000Y-59610761D01*
X143200000Y-59610761D01*
X143093432Y-59353482D01*
X142896518Y-59156568D01*
X142639239Y-59050000D01*
X142360761Y-59050000D01*
X142103482Y-59156568D01*
X141906568Y-59353482D01*
X141800000Y-59610761D01*
X140700000Y-59610761D01*
X140593432Y-59353482D01*
X140396518Y-59156568D01*
X140139239Y-59050000D01*
X139860761Y-59050000D01*
X139603482Y-59156568D01*
X139406568Y-59353482D01*
X139300000Y-59610761D01*
X138200000Y-59610761D01*
X138093432Y-59353482D01*
X137896518Y-59156568D01*
X137639239Y-59050000D01*
X137360761Y-59050000D01*
X137103482Y-59156568D01*
X136906568Y-59353482D01*
X136800000Y-59610761D01*
X135700000Y-59610761D01*
X135593432Y-59353482D01*
X135396518Y-59156568D01*
X135139239Y-59050000D01*
X134860761Y-59050000D01*
X134603482Y-59156568D01*
X134406568Y-59353482D01*
X134300000Y-59610761D01*
X133200000Y-59610761D01*
X133093432Y-59353482D01*
X132896518Y-59156568D01*
X132639239Y-59050000D01*
X132360761Y-59050000D01*
X132103482Y-59156568D01*
X131906568Y-59353482D01*
X131800000Y-59610761D01*
X130700000Y-59610761D01*
X130593432Y-59353482D01*
X130396518Y-59156568D01*
X130375000Y-59147655D01*
X130375000Y-56860761D01*
X146800000Y-56860761D01*
X146800000Y-57139239D01*
X146906568Y-57396518D01*
X147103482Y-57593432D01*
X147125000Y-57602345D01*
X147125001Y-59147655D01*
X147103482Y-59156568D01*
X146906568Y-59353482D01*
X146800000Y-59610761D01*
X146800000Y-59889239D01*
X146906568Y-60146518D01*
X147103482Y-60343432D01*
X147125001Y-60352345D01*
X147125000Y-65147655D01*
X147103482Y-65156568D01*
X146906568Y-65353482D01*
X146800000Y-65610761D01*
X146800000Y-65889239D01*
X146906568Y-66146518D01*
X147103482Y-66343432D01*
X147125000Y-66352345D01*
X147125001Y-68147655D01*
X147103482Y-68156568D01*
X146906568Y-68353482D01*
X146800000Y-68610761D01*
X146800000Y-68889239D01*
X146906568Y-69146518D01*
X147103482Y-69343432D01*
X147125000Y-69352345D01*
X147125001Y-71397655D01*
X147103482Y-71406568D01*
X146906568Y-71603482D01*
X146800000Y-71860761D01*
X146800000Y-72139239D01*
X146906568Y-72396518D01*
X147103482Y-72593432D01*
X147360761Y-72700000D01*
X147639239Y-72700000D01*
X147896518Y-72593432D01*
X148093432Y-72396518D01*
X148200000Y-72139239D01*
X148200000Y-71860761D01*
X148093432Y-71603482D01*
X147896518Y-71406568D01*
X147875000Y-71397655D01*
X147875000Y-69352345D01*
X147896518Y-69343432D01*
X148093432Y-69146518D01*
X148200000Y-68889239D01*
X148200000Y-68610761D01*
X148093432Y-68353482D01*
X147896518Y-68156568D01*
X147875000Y-68147655D01*
X147875000Y-66352345D01*
X147896518Y-66343432D01*
X148093432Y-66146518D01*
X148200000Y-65889239D01*
X148200000Y-65610761D01*
X148093432Y-65353482D01*
X147896518Y-65156568D01*
X147875000Y-65147655D01*
X147875000Y-60352345D01*
X147896518Y-60343432D01*
X148093432Y-60146518D01*
X148200000Y-59889239D01*
X148200000Y-59610761D01*
X148093432Y-59353482D01*
X147896518Y-59156568D01*
X147875000Y-59147655D01*
X147875000Y-57602345D01*
X147896518Y-57593432D01*
X148093432Y-57396518D01*
X148200000Y-57139239D01*
X148200000Y-56860761D01*
X148093432Y-56603482D01*
X147896518Y-56406568D01*
X147785930Y-56360761D01*
X149300000Y-56360761D01*
X149300000Y-56639239D01*
X149406568Y-56896518D01*
X149603482Y-57093432D01*
X149625000Y-57102345D01*
X149625001Y-59147655D01*
X149603482Y-59156568D01*
X149406568Y-59353482D01*
X149300000Y-59610761D01*
X149300000Y-59889239D01*
X149406568Y-60146518D01*
X149603482Y-60343432D01*
X149625001Y-60352345D01*
X149625001Y-62147655D01*
X149603482Y-62156568D01*
X149406568Y-62353482D01*
X149300000Y-62610761D01*
X149300000Y-62889239D01*
X149406568Y-63146518D01*
X149603482Y-63343432D01*
X149625001Y-63352345D01*
X149625000Y-68147655D01*
X149603482Y-68156568D01*
X149406568Y-68353482D01*
X149300000Y-68610761D01*
X149300000Y-68889239D01*
X149406568Y-69146518D01*
X149603482Y-69343432D01*
X149625000Y-69352345D01*
X149625001Y-71397655D01*
X149603482Y-71406568D01*
X149406568Y-71603482D01*
X149300000Y-71860761D01*
X149300000Y-72139239D01*
X149406568Y-72396518D01*
X149603482Y-72593432D01*
X149860761Y-72700000D01*
X150139239Y-72700000D01*
X150396518Y-72593432D01*
X150593432Y-72396518D01*
X150700000Y-72139239D01*
X150700000Y-71860761D01*
X150593432Y-71603482D01*
X150396518Y-71406568D01*
X150375000Y-71397655D01*
X150375000Y-69352345D01*
X150396518Y-69343432D01*
X150593432Y-69146518D01*
X150700000Y-68889239D01*
X150700000Y-68610761D01*
X150593432Y-68353482D01*
X150396518Y-68156568D01*
X150375000Y-68147655D01*
X150375000Y-63352345D01*
X150396518Y-63343432D01*
X150593432Y-63146518D01*
X150700000Y-62889239D01*
X150700000Y-62610761D01*
X150593432Y-62353482D01*
X150396518Y-62156568D01*
X150375000Y-62147655D01*
X150375000Y-60352345D01*
X150396518Y-60343432D01*
X150593432Y-60146518D01*
X150700000Y-59889239D01*
X150700000Y-59610761D01*
X150593432Y-59353482D01*
X150396518Y-59156568D01*
X150375000Y-59147655D01*
X150375000Y-57102345D01*
X150396518Y-57093432D01*
X150593432Y-56896518D01*
X150700000Y-56639239D01*
X150700000Y-56360761D01*
X150593432Y-56103482D01*
X150396518Y-55906568D01*
X150139239Y-55800000D01*
X149860761Y-55800000D01*
X149603482Y-55906568D01*
X149406568Y-56103482D01*
X149300000Y-56360761D01*
X147785930Y-56360761D01*
X147639239Y-56300000D01*
X147360761Y-56300000D01*
X147103482Y-56406568D01*
X146906568Y-56603482D01*
X146800000Y-56860761D01*
X130375000Y-56860761D01*
X130375000Y-56352345D01*
X130396518Y-56343432D01*
X130593432Y-56146518D01*
X130700000Y-55889239D01*
X130700000Y-55610761D01*
X130593432Y-55353482D01*
X130589950Y-55350000D01*
X151910050Y-55350000D01*
X151906568Y-55353482D01*
X151800000Y-55610761D01*
X151800000Y-55889239D01*
X151906568Y-56146518D01*
X152103482Y-56343432D01*
X152125000Y-56352345D01*
X152125001Y-59147655D01*
X152103482Y-59156568D01*
X151906568Y-59353482D01*
X151800000Y-59610761D01*
X151800000Y-59889239D01*
X151906568Y-60146518D01*
X152103482Y-60343432D01*
X152125001Y-60352345D01*
X152125001Y-62176944D01*
X152053482Y-62206568D01*
X151856568Y-62403482D01*
X151750000Y-62660761D01*
X151750000Y-62939239D01*
X151856568Y-63196518D01*
X152053482Y-63393432D01*
X152125000Y-63423056D01*
X152125000Y-65147655D01*
X152103482Y-65156568D01*
X151906568Y-65353482D01*
X151800000Y-65610761D01*
X151800000Y-65889239D01*
X151906568Y-66146518D01*
X152103482Y-66343432D01*
X152125000Y-66352345D01*
X152125001Y-71397655D01*
X152103482Y-71406568D01*
X151906568Y-71603482D01*
X151800000Y-71860761D01*
X151800000Y-72139239D01*
X151906568Y-72396518D01*
X152103482Y-72593432D01*
X152360761Y-72700000D01*
X152639239Y-72700000D01*
X152896518Y-72593432D01*
X153093432Y-72396518D01*
X153200000Y-72139239D01*
X153200000Y-71860761D01*
X153093432Y-71603482D01*
X152896518Y-71406568D01*
X152875000Y-71397655D01*
X152875000Y-66352345D01*
X152896518Y-66343432D01*
X153093432Y-66146518D01*
X153200000Y-65889239D01*
X153200000Y-65610761D01*
X153093432Y-65353482D01*
X152896518Y-65156568D01*
X152875000Y-65147655D01*
X152875000Y-63364950D01*
X153043432Y-63196518D01*
X153150000Y-62939239D01*
X153150000Y-62660761D01*
X153129290Y-62610761D01*
X154299980Y-62610761D01*
X154299980Y-62889239D01*
X154406548Y-63146518D01*
X154603462Y-63343432D01*
X154624980Y-63352345D01*
X154624981Y-65147655D01*
X154603462Y-65156568D01*
X154406548Y-65353482D01*
X154299980Y-65610761D01*
X154299980Y-65889239D01*
X154406548Y-66146518D01*
X154603462Y-66343432D01*
X154624980Y-66352345D01*
X154624981Y-68147663D01*
X154603482Y-68156568D01*
X154406568Y-68353482D01*
X154300000Y-68610761D01*
X154300000Y-68889239D01*
X154406568Y-69146518D01*
X154603482Y-69343432D01*
X154860761Y-69450000D01*
X155139239Y-69450000D01*
X155396518Y-69343432D01*
X155593432Y-69146518D01*
X155700000Y-68889239D01*
X155700000Y-68610761D01*
X155593432Y-68353482D01*
X155396518Y-68156568D01*
X155374980Y-68147647D01*
X155374980Y-66352345D01*
X155396498Y-66343432D01*
X155593412Y-66146518D01*
X155699980Y-65889239D01*
X155699980Y-65610761D01*
X155593412Y-65353482D01*
X155396498Y-65156568D01*
X155374980Y-65147655D01*
X155374980Y-63352345D01*
X155396498Y-63343432D01*
X155593412Y-63146518D01*
X155699980Y-62889239D01*
X155699980Y-62610761D01*
X155593412Y-62353482D01*
X155396498Y-62156568D01*
X155374980Y-62147655D01*
X155374980Y-61860761D01*
X155550000Y-61860761D01*
X155550000Y-62139239D01*
X155656568Y-62396518D01*
X155853482Y-62593432D01*
X155875000Y-62602345D01*
X155875001Y-64397655D01*
X155853482Y-64406568D01*
X155656568Y-64603482D01*
X155550000Y-64860761D01*
X155550000Y-65139239D01*
X155656568Y-65396518D01*
X155853482Y-65593432D01*
X155875000Y-65602345D01*
X155875001Y-67397655D01*
X155853482Y-67406568D01*
X155656568Y-67603482D01*
X155550000Y-67860761D01*
X155550000Y-68139239D01*
X155656568Y-68396518D01*
X155853482Y-68593432D01*
X155875000Y-68602345D01*
X155875001Y-70397655D01*
X155853482Y-70406568D01*
X155656568Y-70603482D01*
X155550000Y-70860761D01*
X155550000Y-71139239D01*
X155656568Y-71396518D01*
X155853482Y-71593432D01*
X156110761Y-71700000D01*
X156389239Y-71700000D01*
X156646518Y-71593432D01*
X156843432Y-71396518D01*
X156950000Y-71139239D01*
X156950000Y-70860761D01*
X156843432Y-70603482D01*
X156646518Y-70406568D01*
X156625000Y-70397655D01*
X156625000Y-70110761D01*
X156800000Y-70110761D01*
X156800000Y-70389239D01*
X156906568Y-70646518D01*
X157103482Y-70843432D01*
X157125001Y-70852345D01*
X157125000Y-73647655D01*
X157103482Y-73656568D01*
X156906568Y-73853482D01*
X156800000Y-74110761D01*
X156800000Y-74389239D01*
X156906568Y-74646518D01*
X157103482Y-74843432D01*
X157360761Y-74950000D01*
X157639239Y-74950000D01*
X157896518Y-74843432D01*
X158093432Y-74646518D01*
X158200000Y-74389239D01*
X158200000Y-74110761D01*
X158093432Y-73853482D01*
X157896518Y-73656568D01*
X157875000Y-73647655D01*
X157875000Y-70852345D01*
X157896518Y-70843432D01*
X158093432Y-70646518D01*
X158200000Y-70389239D01*
X158200000Y-70110761D01*
X158093432Y-69853482D01*
X157896518Y-69656568D01*
X157639239Y-69550000D01*
X157360761Y-69550000D01*
X157103482Y-69656568D01*
X156906568Y-69853482D01*
X156800000Y-70110761D01*
X156625000Y-70110761D01*
X156625000Y-68602345D01*
X156646518Y-68593432D01*
X156843432Y-68396518D01*
X156950000Y-68139239D01*
X156950000Y-67860761D01*
X156843432Y-67603482D01*
X156646518Y-67406568D01*
X156625000Y-67397655D01*
X156625000Y-67110761D01*
X158050000Y-67110761D01*
X158050000Y-67389239D01*
X158156568Y-67646518D01*
X158353482Y-67843432D01*
X158375001Y-67852345D01*
X158375000Y-74897655D01*
X158353482Y-74906568D01*
X158156568Y-75103482D01*
X158050000Y-75360761D01*
X158050000Y-75639239D01*
X158156568Y-75896518D01*
X158353482Y-76093432D01*
X158610761Y-76200000D01*
X158889239Y-76200000D01*
X159146518Y-76093432D01*
X159343432Y-75896518D01*
X159450000Y-75639239D01*
X159450000Y-75360761D01*
X159343432Y-75103482D01*
X159146518Y-74906568D01*
X159125000Y-74897655D01*
X159125000Y-67852345D01*
X159146518Y-67843432D01*
X159343432Y-67646518D01*
X159450000Y-67389239D01*
X159450000Y-67110761D01*
X159343432Y-66853482D01*
X159146518Y-66656568D01*
X158889239Y-66550000D01*
X158610761Y-66550000D01*
X158353482Y-66656568D01*
X158156568Y-66853482D01*
X158050000Y-67110761D01*
X156625000Y-67110761D01*
X156625000Y-65602345D01*
X156646518Y-65593432D01*
X156843432Y-65396518D01*
X156950000Y-65139239D01*
X156950000Y-64860761D01*
X156843432Y-64603482D01*
X156646518Y-64406568D01*
X156625000Y-64397655D01*
X156625000Y-64110761D01*
X159550000Y-64110761D01*
X159550000Y-64389239D01*
X159656568Y-64646518D01*
X159853482Y-64843432D01*
X159875001Y-64852345D01*
X159875000Y-75897655D01*
X159853482Y-75906568D01*
X159656568Y-76103482D01*
X159550000Y-76360761D01*
X159550000Y-76639239D01*
X159656568Y-76896518D01*
X159853482Y-77093432D01*
X160110761Y-77200000D01*
X160389239Y-77200000D01*
X160646518Y-77093432D01*
X160843432Y-76896518D01*
X160950000Y-76639239D01*
X160950000Y-76360761D01*
X160843432Y-76103482D01*
X160646518Y-75906568D01*
X160625000Y-75897655D01*
X160625000Y-64852345D01*
X160646518Y-64843432D01*
X160843432Y-64646518D01*
X160950000Y-64389239D01*
X160950000Y-64110761D01*
X160843432Y-63853482D01*
X160646518Y-63656568D01*
X160389239Y-63550000D01*
X160110761Y-63550000D01*
X159853482Y-63656568D01*
X159656568Y-63853482D01*
X159550000Y-64110761D01*
X156625000Y-64110761D01*
X156625000Y-62602345D01*
X156646518Y-62593432D01*
X156843432Y-62396518D01*
X156950000Y-62139239D01*
X156950000Y-61860761D01*
X156843432Y-61603482D01*
X156646518Y-61406568D01*
X156389239Y-61300000D01*
X156110761Y-61300000D01*
X155853482Y-61406568D01*
X155656568Y-61603482D01*
X155550000Y-61860761D01*
X155374980Y-61860761D01*
X155374980Y-61110761D01*
X161050000Y-61110761D01*
X161050000Y-61389239D01*
X161156568Y-61646518D01*
X161353482Y-61843432D01*
X161375001Y-61852345D01*
X161375000Y-76897655D01*
X161353482Y-76906568D01*
X161156568Y-77103482D01*
X161050000Y-77360761D01*
X161050000Y-77639239D01*
X161156568Y-77896518D01*
X161353482Y-78093432D01*
X161610761Y-78200000D01*
X161889239Y-78200000D01*
X162146518Y-78093432D01*
X162343432Y-77896518D01*
X162450000Y-77639239D01*
X162450000Y-77360761D01*
X162343432Y-77103482D01*
X162146518Y-76906568D01*
X162125000Y-76897655D01*
X162125000Y-61852345D01*
X162146518Y-61843432D01*
X162343432Y-61646518D01*
X162450000Y-61389239D01*
X162450000Y-61110761D01*
X162343432Y-60853482D01*
X162146518Y-60656568D01*
X161889239Y-60550000D01*
X161610761Y-60550000D01*
X161353482Y-60656568D01*
X161156568Y-60853482D01*
X161050000Y-61110761D01*
X155374980Y-61110761D01*
X155374980Y-60352353D01*
X155396518Y-60343432D01*
X155593432Y-60146518D01*
X155700000Y-59889239D01*
X155700000Y-59610761D01*
X155593432Y-59353482D01*
X155396518Y-59156568D01*
X155139239Y-59050000D01*
X154860761Y-59050000D01*
X154603482Y-59156568D01*
X154406568Y-59353482D01*
X154300000Y-59610761D01*
X154300000Y-59889239D01*
X154406568Y-60146518D01*
X154603482Y-60343432D01*
X154624981Y-60352337D01*
X154624980Y-62147655D01*
X154603462Y-62156568D01*
X154406548Y-62353482D01*
X154299980Y-62610761D01*
X153129290Y-62610761D01*
X153043432Y-62403482D01*
X152875000Y-62235050D01*
X152875000Y-60352345D01*
X152896518Y-60343432D01*
X153093432Y-60146518D01*
X153200000Y-59889239D01*
X153200000Y-59610761D01*
X153093432Y-59353482D01*
X152896518Y-59156568D01*
X152875000Y-59147655D01*
X152875000Y-58110761D01*
X162550000Y-58110761D01*
X162550000Y-58389239D01*
X162656568Y-58646518D01*
X162853482Y-58843432D01*
X162875001Y-58852345D01*
X162875000Y-78147655D01*
X162853482Y-78156568D01*
X162656568Y-78353482D01*
X162550000Y-78610761D01*
X162550000Y-78889239D01*
X162656568Y-79146518D01*
X162853482Y-79343432D01*
X163110761Y-79450000D01*
X163389239Y-79450000D01*
X163646518Y-79343432D01*
X163843432Y-79146518D01*
X163950000Y-78889239D01*
X163950000Y-78610761D01*
X163843432Y-78353482D01*
X163646518Y-78156568D01*
X163625000Y-78147655D01*
X163625000Y-58852345D01*
X163646518Y-58843432D01*
X163843432Y-58646518D01*
X163950000Y-58389239D01*
X163950000Y-58110761D01*
X163843432Y-57853482D01*
X163646518Y-57656568D01*
X163389239Y-57550000D01*
X163110761Y-57550000D01*
X162853482Y-57656568D01*
X162656568Y-57853482D01*
X162550000Y-58110761D01*
X152875000Y-58110761D01*
X152875000Y-56352345D01*
X152896518Y-56343432D01*
X153093432Y-56146518D01*
X153200000Y-55889239D01*
X153200000Y-55610761D01*
X153093432Y-55353482D01*
X153089950Y-55350000D01*
X164650000Y-55350000D01*
X164650001Y-99650000D01*
X100350000Y-99650000D01*
X100350000Y-93796378D01*
X100644870Y-94015080D01*
X101069872Y-94121549D01*
X101246000Y-93964365D01*
X101246000Y-93154000D01*
X101554000Y-93154000D01*
X101554000Y-93964365D01*
X101730128Y-94121549D01*
X102155130Y-94015080D01*
X102507037Y-93754074D01*
X102732274Y-93378267D01*
X102734646Y-93323751D01*
X102618515Y-93154000D01*
X101554000Y-93154000D01*
X101246000Y-93154000D01*
X101226000Y-93154000D01*
X101226000Y-92846000D01*
X101246000Y-92846000D01*
X101246000Y-92035635D01*
X101554000Y-92035635D01*
X101554000Y-92846000D01*
X102618515Y-92846000D01*
X102734646Y-92676249D01*
X102732274Y-92621733D01*
X102553426Y-92323325D01*
X103031240Y-92323325D01*
X103178923Y-92719128D01*
X103466832Y-93028287D01*
X103780199Y-93184706D01*
X103946000Y-93068175D01*
X103946000Y-92154000D01*
X104254000Y-92154000D01*
X104254000Y-93068175D01*
X104419801Y-93184706D01*
X104733168Y-93028287D01*
X105021077Y-92719128D01*
X105168760Y-92323325D01*
X105030716Y-92154000D01*
X104254000Y-92154000D01*
X103946000Y-92154000D01*
X103169284Y-92154000D01*
X103031240Y-92323325D01*
X102553426Y-92323325D01*
X102507037Y-92245926D01*
X102155130Y-91984920D01*
X101730128Y-91878451D01*
X101554000Y-92035635D01*
X101246000Y-92035635D01*
X101069872Y-91878451D01*
X100644870Y-91984920D01*
X100350000Y-92203622D01*
X100350000Y-91676675D01*
X103031240Y-91676675D01*
X103169284Y-91846000D01*
X103946000Y-91846000D01*
X103946000Y-90931825D01*
X104254000Y-90931825D01*
X104254000Y-91846000D01*
X105030716Y-91846000D01*
X105168760Y-91676675D01*
X105021077Y-91280872D01*
X104733168Y-90971713D01*
X104419801Y-90815294D01*
X104254000Y-90931825D01*
X103946000Y-90931825D01*
X103780199Y-90815294D01*
X103466832Y-90971713D01*
X103178923Y-91280872D01*
X103031240Y-91676675D01*
X100350000Y-91676675D01*
X100350000Y-87323325D01*
X103031240Y-87323325D01*
X103178923Y-87719128D01*
X103466832Y-88028287D01*
X103780199Y-88184706D01*
X103946000Y-88068175D01*
X103946000Y-87154000D01*
X104254000Y-87154000D01*
X104254000Y-88068175D01*
X104419801Y-88184706D01*
X104733168Y-88028287D01*
X105021077Y-87719128D01*
X105168760Y-87323325D01*
X105030716Y-87154000D01*
X104254000Y-87154000D01*
X103946000Y-87154000D01*
X103169284Y-87154000D01*
X103031240Y-87323325D01*
X100350000Y-87323325D01*
X100350000Y-86796378D01*
X100644870Y-87015080D01*
X101069872Y-87121549D01*
X101246000Y-86964365D01*
X101246000Y-86154000D01*
X101554000Y-86154000D01*
X101554000Y-86964365D01*
X101730128Y-87121549D01*
X102155130Y-87015080D01*
X102507037Y-86754074D01*
X102553425Y-86676675D01*
X103031240Y-86676675D01*
X103169284Y-86846000D01*
X103946000Y-86846000D01*
X103946000Y-85931825D01*
X104254000Y-85931825D01*
X104254000Y-86846000D01*
X105030716Y-86846000D01*
X105168760Y-86676675D01*
X105021077Y-86280872D01*
X104733168Y-85971713D01*
X104419801Y-85815294D01*
X104254000Y-85931825D01*
X103946000Y-85931825D01*
X103780199Y-85815294D01*
X103466832Y-85971713D01*
X103178923Y-86280872D01*
X103031240Y-86676675D01*
X102553425Y-86676675D01*
X102732274Y-86378267D01*
X102734646Y-86323751D01*
X102618515Y-86154000D01*
X101554000Y-86154000D01*
X101246000Y-86154000D01*
X101226000Y-86154000D01*
X101226000Y-85846000D01*
X101246000Y-85846000D01*
X101246000Y-85035635D01*
X101554000Y-85035635D01*
X101554000Y-85846000D01*
X102618515Y-85846000D01*
X102734646Y-85676249D01*
X102732274Y-85621733D01*
X102507037Y-85245926D01*
X102155130Y-84984920D01*
X101730128Y-84878451D01*
X101554000Y-85035635D01*
X101246000Y-85035635D01*
X101069872Y-84878451D01*
X100644870Y-84984920D01*
X100350000Y-85203622D01*
X100350000Y-70110761D01*
X102300000Y-70110761D01*
X102300000Y-70389239D01*
X102406568Y-70646518D01*
X102603482Y-70843432D01*
X102625001Y-70852345D01*
X102625000Y-78147655D01*
X102603482Y-78156568D01*
X102406568Y-78353482D01*
X102300000Y-78610761D01*
X102300000Y-78889239D01*
X102406568Y-79146518D01*
X102603482Y-79343432D01*
X102860761Y-79450000D01*
X103139239Y-79450000D01*
X103396518Y-79343432D01*
X103593432Y-79146518D01*
X103700000Y-78889239D01*
X103700000Y-78610761D01*
X103593432Y-78353482D01*
X103396518Y-78156568D01*
X103375000Y-78147655D01*
X103375000Y-70852345D01*
X103396518Y-70843432D01*
X103593432Y-70646518D01*
X103700000Y-70389239D01*
X103700000Y-70110761D01*
X103593432Y-69853482D01*
X103396518Y-69656568D01*
X103139239Y-69550000D01*
X102860761Y-69550000D01*
X102603482Y-69656568D01*
X102406568Y-69853482D01*
X102300000Y-70110761D01*
X100350000Y-70110761D01*
X100350000Y-67110761D01*
X103550000Y-67110761D01*
X103550000Y-67389239D01*
X103656568Y-67646518D01*
X103853482Y-67843432D01*
X103875001Y-67852345D01*
X103875000Y-76897655D01*
X103853482Y-76906568D01*
X103656568Y-77103482D01*
X103550000Y-77360761D01*
X103550000Y-77639239D01*
X103656568Y-77896518D01*
X103853482Y-78093432D01*
X104110761Y-78200000D01*
X104389239Y-78200000D01*
X104646518Y-78093432D01*
X104843432Y-77896518D01*
X104950000Y-77639239D01*
X104950000Y-77360761D01*
X104843432Y-77103482D01*
X104646518Y-76906568D01*
X104625000Y-76897655D01*
X104625000Y-67852345D01*
X104646518Y-67843432D01*
X104843432Y-67646518D01*
X104950000Y-67389239D01*
X104950000Y-67110761D01*
X104843432Y-66853482D01*
X104646518Y-66656568D01*
X104389239Y-66550000D01*
X104110761Y-66550000D01*
X103853482Y-66656568D01*
X103656568Y-66853482D01*
X103550000Y-67110761D01*
X100350000Y-67110761D01*
X100350000Y-64110761D01*
X104800000Y-64110761D01*
X104800000Y-64389239D01*
X104906568Y-64646518D01*
X105103482Y-64843432D01*
X105125001Y-64852345D01*
X105125000Y-75897655D01*
X105103482Y-75906568D01*
X104906568Y-76103482D01*
X104800000Y-76360761D01*
X104800000Y-76639239D01*
X104906568Y-76896518D01*
X105103482Y-77093432D01*
X105360761Y-77200000D01*
X105639239Y-77200000D01*
X105896518Y-77093432D01*
X106093432Y-76896518D01*
X106200000Y-76639239D01*
X106200000Y-76360761D01*
X106093432Y-76103482D01*
X105896518Y-75906568D01*
X105875000Y-75897655D01*
X105875000Y-64852345D01*
X105896518Y-64843432D01*
X106093432Y-64646518D01*
X106200000Y-64389239D01*
X106200000Y-64110761D01*
X106093432Y-63853482D01*
X105896518Y-63656568D01*
X105639239Y-63550000D01*
X105360761Y-63550000D01*
X105103482Y-63656568D01*
X104906568Y-63853482D01*
X104800000Y-64110761D01*
X100350000Y-64110761D01*
X100350000Y-61110761D01*
X106050000Y-61110761D01*
X106050000Y-61389239D01*
X106156568Y-61646518D01*
X106353482Y-61843432D01*
X106375001Y-61852345D01*
X106375000Y-74897655D01*
X106353482Y-74906568D01*
X106156568Y-75103482D01*
X106050000Y-75360761D01*
X106050000Y-75639239D01*
X106156568Y-75896518D01*
X106353482Y-76093432D01*
X106610761Y-76200000D01*
X106889239Y-76200000D01*
X107146518Y-76093432D01*
X107343432Y-75896518D01*
X107450000Y-75639239D01*
X107450000Y-75360761D01*
X107343432Y-75103482D01*
X107146518Y-74906568D01*
X107125000Y-74897655D01*
X107125000Y-61852345D01*
X107146518Y-61843432D01*
X107343432Y-61646518D01*
X107450000Y-61389239D01*
X107450000Y-61110761D01*
X107343432Y-60853482D01*
X107146518Y-60656568D01*
X106889239Y-60550000D01*
X106610761Y-60550000D01*
X106353482Y-60656568D01*
X106156568Y-60853482D01*
X106050000Y-61110761D01*
X100350000Y-61110761D01*
X100350000Y-58110761D01*
X107300000Y-58110761D01*
X107300000Y-58389239D01*
X107406568Y-58646518D01*
X107603482Y-58843432D01*
X107625000Y-58852345D01*
X107625001Y-73897655D01*
X107603482Y-73906568D01*
X107406568Y-74103482D01*
X107300000Y-74360761D01*
X107300000Y-74639239D01*
X107406568Y-74896518D01*
X107603482Y-75093432D01*
X107860761Y-75200000D01*
X108139239Y-75200000D01*
X108396518Y-75093432D01*
X108593432Y-74896518D01*
X108700000Y-74639239D01*
X108700000Y-74360761D01*
X108593432Y-74103482D01*
X108396518Y-73906568D01*
X108375000Y-73897655D01*
X108375000Y-62610761D01*
X109050000Y-62610761D01*
X109050000Y-62889239D01*
X109156568Y-63146518D01*
X109353482Y-63343432D01*
X109375000Y-63352345D01*
X109375001Y-65147655D01*
X109353482Y-65156568D01*
X109156568Y-65353482D01*
X109050000Y-65610761D01*
X109050000Y-65889239D01*
X109156568Y-66146518D01*
X109353482Y-66343432D01*
X109375000Y-66352345D01*
X109375001Y-68147655D01*
X109353482Y-68156568D01*
X109156568Y-68353482D01*
X109050000Y-68610761D01*
X109050000Y-68889239D01*
X109156568Y-69146518D01*
X109353482Y-69343432D01*
X109375000Y-69352345D01*
X109375001Y-71147655D01*
X109353482Y-71156568D01*
X109156568Y-71353482D01*
X109050000Y-71610761D01*
X109050000Y-71889239D01*
X109156568Y-72146518D01*
X109353482Y-72343432D01*
X109375000Y-72352345D01*
X109375001Y-72897655D01*
X109353482Y-72906568D01*
X109156568Y-73103482D01*
X109050000Y-73360761D01*
X109050000Y-73639239D01*
X109156568Y-73896518D01*
X109260050Y-74000000D01*
X109156568Y-74103482D01*
X109050000Y-74360761D01*
X109050000Y-74639239D01*
X109156568Y-74896518D01*
X109353482Y-75093432D01*
X109375000Y-75102345D01*
X109375001Y-79897655D01*
X109353482Y-79906568D01*
X109156568Y-80103482D01*
X109050000Y-80360761D01*
X109050000Y-80639239D01*
X109156568Y-80896518D01*
X109353482Y-81093432D01*
X109610761Y-81200000D01*
X109889239Y-81200000D01*
X110146518Y-81093432D01*
X110343432Y-80896518D01*
X110450000Y-80639239D01*
X110450000Y-80360761D01*
X110343432Y-80103482D01*
X110146518Y-79906568D01*
X110125000Y-79897655D01*
X110125000Y-75360761D01*
X111550000Y-75360761D01*
X111550000Y-75639239D01*
X111656568Y-75896518D01*
X111853482Y-76093432D01*
X111875000Y-76102345D01*
X111875001Y-81647655D01*
X111853482Y-81656568D01*
X111656568Y-81853482D01*
X111550000Y-82110761D01*
X111550000Y-82389239D01*
X111656568Y-82646518D01*
X111853482Y-82843432D01*
X112110761Y-82950000D01*
X112389239Y-82950000D01*
X112646518Y-82843432D01*
X112843432Y-82646518D01*
X112950000Y-82389239D01*
X112950000Y-82110761D01*
X112843432Y-81853482D01*
X112646518Y-81656568D01*
X112625000Y-81647655D01*
X112625000Y-76360761D01*
X113050000Y-76360761D01*
X113050000Y-76639239D01*
X113156568Y-76896518D01*
X113353482Y-77093432D01*
X113375000Y-77102345D01*
X113375001Y-82897655D01*
X113353482Y-82906568D01*
X113156568Y-83103482D01*
X113050000Y-83360761D01*
X113050000Y-83639239D01*
X113156568Y-83896518D01*
X113353482Y-84093432D01*
X113610761Y-84200000D01*
X113889239Y-84200000D01*
X114146518Y-84093432D01*
X114343432Y-83896518D01*
X114450000Y-83639239D01*
X114450000Y-83360761D01*
X114343432Y-83103482D01*
X114146518Y-82906568D01*
X114125000Y-82897655D01*
X114125000Y-77360761D01*
X114550000Y-77360761D01*
X114550000Y-77639239D01*
X114656568Y-77896518D01*
X114853482Y-78093432D01*
X114875000Y-78102345D01*
X114875001Y-83647655D01*
X114853482Y-83656568D01*
X114656568Y-83853482D01*
X114550000Y-84110761D01*
X114550000Y-84389239D01*
X114656568Y-84646518D01*
X114853482Y-84843432D01*
X115110761Y-84950000D01*
X115389239Y-84950000D01*
X115646518Y-84843432D01*
X115843432Y-84646518D01*
X115950000Y-84389239D01*
X115950000Y-84110761D01*
X115843432Y-83853482D01*
X115646518Y-83656568D01*
X115625000Y-83647655D01*
X115625000Y-78610761D01*
X116300000Y-78610761D01*
X116300000Y-78889239D01*
X116406568Y-79146518D01*
X116603482Y-79343432D01*
X116625000Y-79352345D01*
X116625001Y-84647655D01*
X116603482Y-84656568D01*
X116406568Y-84853482D01*
X116300000Y-85110761D01*
X116300000Y-85389239D01*
X116406568Y-85646518D01*
X116603482Y-85843432D01*
X116860761Y-85950000D01*
X117139239Y-85950000D01*
X117375000Y-85852345D01*
X117375001Y-90463069D01*
X117367655Y-90500000D01*
X117396759Y-90646318D01*
X117458721Y-90739050D01*
X117458723Y-90739052D01*
X117479642Y-90770359D01*
X117510948Y-90791277D01*
X118058913Y-91339243D01*
X118050000Y-91360761D01*
X118050000Y-91639239D01*
X118156568Y-91896518D01*
X118353482Y-92093432D01*
X118610761Y-92200000D01*
X118889239Y-92200000D01*
X119146518Y-92093432D01*
X119343432Y-91896518D01*
X119450000Y-91639239D01*
X119450000Y-91360761D01*
X119343432Y-91103482D01*
X119146518Y-90906568D01*
X118889239Y-90800000D01*
X118610761Y-90800000D01*
X118589243Y-90808913D01*
X118125000Y-90344671D01*
X118125000Y-83352345D01*
X118146518Y-83343432D01*
X118314853Y-83175097D01*
X118406568Y-83396518D01*
X118603482Y-83593432D01*
X118625000Y-83602345D01*
X118625001Y-89713069D01*
X118617655Y-89750000D01*
X118646759Y-89896318D01*
X118708721Y-89989050D01*
X118708723Y-89989052D01*
X118729642Y-90020359D01*
X118760949Y-90041278D01*
X120058913Y-91339243D01*
X120050000Y-91360761D01*
X120050000Y-91639239D01*
X120156568Y-91896518D01*
X120353482Y-92093432D01*
X120610761Y-92200000D01*
X120889239Y-92200000D01*
X121146518Y-92093432D01*
X121343432Y-91896518D01*
X121450000Y-91639239D01*
X121450000Y-91360761D01*
X121343432Y-91103482D01*
X121146518Y-90906568D01*
X120889239Y-90800000D01*
X120610761Y-90800000D01*
X120589243Y-90808913D01*
X119375000Y-89594671D01*
X119375000Y-83602345D01*
X119396518Y-83593432D01*
X119593432Y-83396518D01*
X119700000Y-83139239D01*
X119700000Y-82860761D01*
X119593432Y-82603482D01*
X119396518Y-82406568D01*
X119285930Y-82360761D01*
X125049978Y-82360761D01*
X125049978Y-82639239D01*
X125156546Y-82896518D01*
X125353460Y-83093432D01*
X125610739Y-83200000D01*
X125889217Y-83200000D01*
X125983885Y-83160787D01*
X125760950Y-83383723D01*
X125729641Y-83404643D01*
X125646758Y-83528686D01*
X125625000Y-83638072D01*
X125625000Y-83638076D01*
X125617655Y-83675002D01*
X125625000Y-83711929D01*
X125625001Y-86147380D01*
X125625000Y-86147385D01*
X125625000Y-86147655D01*
X125603482Y-86156568D01*
X125406568Y-86353482D01*
X125300000Y-86610761D01*
X125300000Y-86889239D01*
X125406568Y-87146518D01*
X125603482Y-87343432D01*
X125860761Y-87450000D01*
X126139239Y-87450000D01*
X126396518Y-87343432D01*
X126593432Y-87146518D01*
X126700000Y-86889239D01*
X126700000Y-86610761D01*
X126593432Y-86353482D01*
X126396518Y-86156568D01*
X126375000Y-86147655D01*
X126375000Y-83830331D01*
X126864053Y-83341279D01*
X126875001Y-83333964D01*
X126875001Y-85397655D01*
X126853482Y-85406568D01*
X126656568Y-85603482D01*
X126550000Y-85860761D01*
X126550000Y-86139239D01*
X126656568Y-86396518D01*
X126853482Y-86593432D01*
X127110761Y-86700000D01*
X127389239Y-86700000D01*
X127646518Y-86593432D01*
X127843432Y-86396518D01*
X127950000Y-86139239D01*
X127950000Y-85860761D01*
X127843432Y-85603482D01*
X127646518Y-85406568D01*
X127625000Y-85397655D01*
X127625000Y-85352345D01*
X127860761Y-85450000D01*
X128139239Y-85450000D01*
X128396518Y-85343432D01*
X128593432Y-85146518D01*
X128700000Y-84889239D01*
X128700000Y-84610761D01*
X128593432Y-84353482D01*
X128396518Y-84156568D01*
X128325000Y-84126944D01*
X128325000Y-77102345D01*
X128346518Y-77093432D01*
X128543432Y-76896518D01*
X128650000Y-76639239D01*
X128650000Y-76360761D01*
X128543432Y-76103482D01*
X128346518Y-75906568D01*
X128089239Y-75800000D01*
X127810761Y-75800000D01*
X127553482Y-75906568D01*
X127356568Y-76103482D01*
X127250000Y-76360761D01*
X127250000Y-76639239D01*
X127316589Y-76800000D01*
X127110761Y-76800000D01*
X126853482Y-76906568D01*
X126656568Y-77103482D01*
X126550000Y-77360761D01*
X126550000Y-77639239D01*
X126656568Y-77896518D01*
X126853482Y-78093432D01*
X126875000Y-78102345D01*
X126875000Y-79091038D01*
X126864054Y-79083724D01*
X126691087Y-78910757D01*
X126700000Y-78889239D01*
X126700000Y-78610761D01*
X126593432Y-78353482D01*
X126396518Y-78156568D01*
X126139239Y-78050000D01*
X125860761Y-78050000D01*
X125603482Y-78156568D01*
X125406568Y-78353482D01*
X125300000Y-78610761D01*
X125300000Y-78889239D01*
X125406568Y-79146518D01*
X125603482Y-79343432D01*
X125860761Y-79450000D01*
X126139239Y-79450000D01*
X126160757Y-79441087D01*
X126250001Y-79530331D01*
X126250001Y-80460038D01*
X126146518Y-80356555D01*
X125889239Y-80249987D01*
X125610761Y-80249987D01*
X125353482Y-80356555D01*
X125156568Y-80553469D01*
X125050000Y-80810748D01*
X125050000Y-81089226D01*
X125156568Y-81346505D01*
X125353482Y-81543419D01*
X125374979Y-81552323D01*
X125374978Y-81897655D01*
X125353460Y-81906568D01*
X125156546Y-82103482D01*
X125049978Y-82360761D01*
X119285930Y-82360761D01*
X119139239Y-82300000D01*
X118860761Y-82300000D01*
X118603482Y-82406568D01*
X118435147Y-82574903D01*
X118343432Y-82353482D01*
X118146518Y-82156568D01*
X117889239Y-82050000D01*
X117610761Y-82050000D01*
X117375000Y-82147655D01*
X117375000Y-79360761D01*
X118800000Y-79360761D01*
X118800000Y-79639239D01*
X118906568Y-79896518D01*
X119103482Y-80093432D01*
X119360761Y-80200000D01*
X119639239Y-80200000D01*
X119896518Y-80093432D01*
X120093432Y-79896518D01*
X120102345Y-79875000D01*
X123485051Y-79875000D01*
X123603482Y-79993431D01*
X123860761Y-80099999D01*
X124139239Y-80099999D01*
X124396518Y-79993431D01*
X124593432Y-79796517D01*
X124700000Y-79539238D01*
X124700000Y-79260760D01*
X124593432Y-79003481D01*
X124396518Y-78806567D01*
X124139239Y-78699999D01*
X123860761Y-78699999D01*
X123603482Y-78806567D01*
X123406568Y-79003481D01*
X123356233Y-79125000D01*
X120102345Y-79125000D01*
X120093432Y-79103482D01*
X119896518Y-78906568D01*
X119639239Y-78800000D01*
X119360761Y-78800000D01*
X119103482Y-78906568D01*
X118906568Y-79103482D01*
X118800000Y-79360761D01*
X117375000Y-79360761D01*
X117375000Y-79352345D01*
X117396518Y-79343432D01*
X117593432Y-79146518D01*
X117700000Y-78889239D01*
X117700000Y-78610761D01*
X117593432Y-78353482D01*
X117396518Y-78156568D01*
X117139239Y-78050000D01*
X116860761Y-78050000D01*
X116603482Y-78156568D01*
X116406568Y-78353482D01*
X116300000Y-78610761D01*
X115625000Y-78610761D01*
X115625000Y-78102345D01*
X115646518Y-78093432D01*
X115843432Y-77896518D01*
X115950000Y-77639239D01*
X115950000Y-77360761D01*
X115843432Y-77103482D01*
X115646518Y-76906568D01*
X115389239Y-76800000D01*
X115110761Y-76800000D01*
X114853482Y-76906568D01*
X114656568Y-77103482D01*
X114550000Y-77360761D01*
X114125000Y-77360761D01*
X114125000Y-77102345D01*
X114146518Y-77093432D01*
X114343432Y-76896518D01*
X114450000Y-76639239D01*
X114450000Y-76360761D01*
X114343432Y-76103482D01*
X114146518Y-75906568D01*
X113889239Y-75800000D01*
X113610761Y-75800000D01*
X113353482Y-75906568D01*
X113156568Y-76103482D01*
X113050000Y-76360761D01*
X112625000Y-76360761D01*
X112625000Y-76102345D01*
X112646518Y-76093432D01*
X112843432Y-75896518D01*
X112950000Y-75639239D01*
X112950000Y-75360761D01*
X112843432Y-75103482D01*
X112646518Y-74906568D01*
X112389239Y-74800000D01*
X112110761Y-74800000D01*
X111853482Y-74906568D01*
X111656568Y-75103482D01*
X111550000Y-75360761D01*
X110125000Y-75360761D01*
X110125000Y-75102345D01*
X110146518Y-75093432D01*
X110343432Y-74896518D01*
X110450000Y-74639239D01*
X110450000Y-74360761D01*
X110343432Y-74103482D01*
X110239950Y-74000000D01*
X110343432Y-73896518D01*
X110450000Y-73639239D01*
X110450000Y-73360761D01*
X110343432Y-73103482D01*
X110146518Y-72906568D01*
X110125000Y-72897655D01*
X110125000Y-72352345D01*
X110146518Y-72343432D01*
X110343432Y-72146518D01*
X110450000Y-71889239D01*
X110450000Y-71610761D01*
X110343432Y-71353482D01*
X110146518Y-71156568D01*
X110125000Y-71147655D01*
X110125000Y-69352345D01*
X110146518Y-69343432D01*
X110343432Y-69146518D01*
X110450000Y-68889239D01*
X110450000Y-68610761D01*
X110343432Y-68353482D01*
X110146518Y-68156568D01*
X110125000Y-68147655D01*
X110125000Y-66352345D01*
X110146518Y-66343432D01*
X110343432Y-66146518D01*
X110450000Y-65889239D01*
X110450000Y-65610761D01*
X110343432Y-65353482D01*
X110146518Y-65156568D01*
X110125000Y-65147655D01*
X110125000Y-63352345D01*
X110146518Y-63343432D01*
X110343432Y-63146518D01*
X110450000Y-62889239D01*
X110450000Y-62610761D01*
X110343432Y-62353482D01*
X110146518Y-62156568D01*
X109889239Y-62050000D01*
X109610761Y-62050000D01*
X109353482Y-62156568D01*
X109156568Y-62353482D01*
X109050000Y-62610761D01*
X108375000Y-62610761D01*
X108375000Y-59610761D01*
X111800000Y-59610761D01*
X111800000Y-59889239D01*
X111906568Y-60146518D01*
X112103482Y-60343432D01*
X112125001Y-60352345D01*
X112125000Y-65147655D01*
X112103482Y-65156568D01*
X111906568Y-65353482D01*
X111800000Y-65610761D01*
X111800000Y-65889239D01*
X111906568Y-66146518D01*
X112103482Y-66343432D01*
X112125000Y-66352345D01*
X112125001Y-68147655D01*
X112103482Y-68156568D01*
X111906568Y-68353482D01*
X111800000Y-68610761D01*
X111800000Y-68889239D01*
X111906568Y-69146518D01*
X112103482Y-69343432D01*
X112125000Y-69352345D01*
X112125001Y-71147655D01*
X112103482Y-71156568D01*
X111906568Y-71353482D01*
X111800000Y-71610761D01*
X111800000Y-71889239D01*
X111906568Y-72146518D01*
X112103482Y-72343432D01*
X112125000Y-72352345D01*
X112125001Y-73147655D01*
X112103482Y-73156568D01*
X111906568Y-73353482D01*
X111800000Y-73610761D01*
X111800000Y-73889239D01*
X111906568Y-74146518D01*
X112103482Y-74343432D01*
X112360761Y-74450000D01*
X112639239Y-74450000D01*
X112896518Y-74343432D01*
X113093432Y-74146518D01*
X113200000Y-73889239D01*
X113200000Y-73610761D01*
X113093432Y-73353482D01*
X112896518Y-73156568D01*
X112875000Y-73147655D01*
X112875000Y-72352345D01*
X112896518Y-72343432D01*
X113093432Y-72146518D01*
X113200000Y-71889239D01*
X113200000Y-71610761D01*
X113093432Y-71353482D01*
X112896518Y-71156568D01*
X112875000Y-71147655D01*
X112875000Y-69352345D01*
X112896518Y-69343432D01*
X113093432Y-69146518D01*
X113200000Y-68889239D01*
X113200000Y-68610761D01*
X113093432Y-68353482D01*
X112896518Y-68156568D01*
X112875000Y-68147655D01*
X112875000Y-66352345D01*
X112896518Y-66343432D01*
X113093432Y-66146518D01*
X113200000Y-65889239D01*
X113200000Y-65610761D01*
X113093432Y-65353482D01*
X112896518Y-65156568D01*
X112875000Y-65147655D01*
X112875000Y-60352345D01*
X112896518Y-60343432D01*
X113093432Y-60146518D01*
X113200000Y-59889239D01*
X113200000Y-59610761D01*
X114300000Y-59610761D01*
X114300000Y-59889239D01*
X114406568Y-60146518D01*
X114603482Y-60343432D01*
X114625000Y-60352345D01*
X114625001Y-62147655D01*
X114603482Y-62156568D01*
X114406568Y-62353482D01*
X114300000Y-62610761D01*
X114300000Y-62889239D01*
X114406568Y-63146518D01*
X114603482Y-63343432D01*
X114625000Y-63352345D01*
X114625001Y-68147655D01*
X114603482Y-68156568D01*
X114406568Y-68353482D01*
X114300000Y-68610761D01*
X114300000Y-68889239D01*
X114406568Y-69146518D01*
X114603482Y-69343432D01*
X114625000Y-69352345D01*
X114625001Y-71147655D01*
X114603482Y-71156568D01*
X114406568Y-71353482D01*
X114300000Y-71610761D01*
X114300000Y-71889239D01*
X114406568Y-72146518D01*
X114603482Y-72343432D01*
X114625000Y-72352345D01*
X114625001Y-73147655D01*
X114603482Y-73156568D01*
X114406568Y-73353482D01*
X114300000Y-73610761D01*
X114300000Y-73889239D01*
X114406568Y-74146518D01*
X114603482Y-74343432D01*
X114860761Y-74450000D01*
X115139239Y-74450000D01*
X115396518Y-74343432D01*
X115593432Y-74146518D01*
X115700000Y-73889239D01*
X115700000Y-73610761D01*
X115593432Y-73353482D01*
X115396518Y-73156568D01*
X115375000Y-73147655D01*
X115375000Y-72352345D01*
X115396518Y-72343432D01*
X115593432Y-72146518D01*
X115700000Y-71889239D01*
X115700000Y-71610761D01*
X115593432Y-71353482D01*
X115396518Y-71156568D01*
X115375000Y-71147655D01*
X115375000Y-69352345D01*
X115396518Y-69343432D01*
X115593432Y-69146518D01*
X115700000Y-68889239D01*
X115700000Y-68610761D01*
X115593432Y-68353482D01*
X115396518Y-68156568D01*
X115375000Y-68147655D01*
X115375000Y-63352345D01*
X115396518Y-63343432D01*
X115593432Y-63146518D01*
X115700000Y-62889239D01*
X115700000Y-62610761D01*
X115593432Y-62353482D01*
X115396518Y-62156568D01*
X115375000Y-62147655D01*
X115375000Y-60352345D01*
X115396518Y-60343432D01*
X115593432Y-60146518D01*
X115700000Y-59889239D01*
X115700000Y-59610761D01*
X116800000Y-59610761D01*
X116800000Y-59889239D01*
X116906568Y-60146518D01*
X117103482Y-60343432D01*
X117125001Y-60352345D01*
X117125000Y-62147655D01*
X117103482Y-62156568D01*
X116906568Y-62353482D01*
X116800000Y-62610761D01*
X116800000Y-62889239D01*
X116906568Y-63146518D01*
X117103482Y-63343432D01*
X117125000Y-63352345D01*
X117125001Y-65147655D01*
X117103482Y-65156568D01*
X116906568Y-65353482D01*
X116800000Y-65610761D01*
X116800000Y-65889239D01*
X116906568Y-66146518D01*
X117103482Y-66343432D01*
X117125000Y-66352345D01*
X117125001Y-71147655D01*
X117103482Y-71156568D01*
X116906568Y-71353482D01*
X116800000Y-71610761D01*
X116800000Y-71889239D01*
X116906568Y-72146518D01*
X117103482Y-72343432D01*
X117125001Y-72352345D01*
X117125001Y-73147655D01*
X117103482Y-73156568D01*
X116906568Y-73353482D01*
X116800000Y-73610761D01*
X116800000Y-73889239D01*
X116906568Y-74146518D01*
X117103482Y-74343432D01*
X117360761Y-74450000D01*
X117639239Y-74450000D01*
X117896518Y-74343432D01*
X118093432Y-74146518D01*
X118200000Y-73889239D01*
X118200000Y-73610761D01*
X118093432Y-73353482D01*
X117896518Y-73156568D01*
X117875000Y-73147655D01*
X117875000Y-72352345D01*
X117896518Y-72343432D01*
X118093432Y-72146518D01*
X118200000Y-71889239D01*
X118200000Y-71610761D01*
X118093432Y-71353482D01*
X117896518Y-71156568D01*
X117875000Y-71147655D01*
X117875000Y-66352345D01*
X117896518Y-66343432D01*
X118093432Y-66146518D01*
X118200000Y-65889239D01*
X118200000Y-65610761D01*
X118093432Y-65353482D01*
X117896518Y-65156568D01*
X117875000Y-65147655D01*
X117875000Y-63352345D01*
X117896518Y-63343432D01*
X118093432Y-63146518D01*
X118200000Y-62889239D01*
X118200000Y-62610761D01*
X118093432Y-62353482D01*
X117896518Y-62156568D01*
X117875000Y-62147655D01*
X117875000Y-60352345D01*
X117896518Y-60343432D01*
X118093432Y-60146518D01*
X118200000Y-59889239D01*
X118200000Y-59610761D01*
X119299990Y-59610761D01*
X119299990Y-59889239D01*
X119406558Y-60146518D01*
X119603472Y-60343432D01*
X119625001Y-60352350D01*
X119625000Y-62147655D01*
X119603482Y-62156568D01*
X119406568Y-62353482D01*
X119300000Y-62610761D01*
X119300000Y-62889239D01*
X119406568Y-63146518D01*
X119603482Y-63343432D01*
X119625000Y-63352345D01*
X119625001Y-65147655D01*
X119603482Y-65156568D01*
X119406568Y-65353482D01*
X119300000Y-65610761D01*
X119300000Y-65889239D01*
X119406568Y-66146518D01*
X119603482Y-66343432D01*
X119625000Y-66352345D01*
X119625001Y-68147655D01*
X119603482Y-68156568D01*
X119406568Y-68353482D01*
X119300000Y-68610761D01*
X119300000Y-68889239D01*
X119406568Y-69146518D01*
X119603482Y-69343432D01*
X119625000Y-69352345D01*
X119625001Y-74897655D01*
X119603482Y-74906568D01*
X119406568Y-75103482D01*
X119300000Y-75360761D01*
X119300000Y-75639239D01*
X119406568Y-75896518D01*
X119603482Y-76093432D01*
X119860761Y-76200000D01*
X120139239Y-76200000D01*
X120396518Y-76093432D01*
X120593432Y-75896518D01*
X120700000Y-75639239D01*
X120700000Y-75360761D01*
X129550000Y-75360761D01*
X129550000Y-75639239D01*
X129656568Y-75896518D01*
X129853482Y-76093432D01*
X129875000Y-76102345D01*
X129875001Y-83397655D01*
X129853482Y-83406568D01*
X129656568Y-83603482D01*
X129550000Y-83860761D01*
X129550000Y-84139239D01*
X129656568Y-84396518D01*
X129853482Y-84593432D01*
X130110761Y-84700000D01*
X130389239Y-84700000D01*
X130646518Y-84593432D01*
X130843432Y-84396518D01*
X130950000Y-84139239D01*
X130950000Y-83860761D01*
X130843432Y-83603482D01*
X130646518Y-83406568D01*
X130625000Y-83397655D01*
X130625000Y-76102345D01*
X130646518Y-76093432D01*
X130843432Y-75896518D01*
X130950000Y-75639239D01*
X130950000Y-75360761D01*
X130843432Y-75103482D01*
X130646518Y-74906568D01*
X130389239Y-74800000D01*
X130110761Y-74800000D01*
X129853482Y-74906568D01*
X129656568Y-75103482D01*
X129550000Y-75360761D01*
X120700000Y-75360761D01*
X120593432Y-75103482D01*
X120396518Y-74906568D01*
X120375000Y-74897655D01*
X120375000Y-69352345D01*
X120396518Y-69343432D01*
X120593432Y-69146518D01*
X120700000Y-68889239D01*
X120700000Y-68610761D01*
X120593432Y-68353482D01*
X120396518Y-68156568D01*
X120375000Y-68147655D01*
X120375000Y-66352345D01*
X120396518Y-66343432D01*
X120593432Y-66146518D01*
X120700000Y-65889239D01*
X120700000Y-65610761D01*
X120593432Y-65353482D01*
X120396518Y-65156568D01*
X120375000Y-65147655D01*
X120375000Y-63352345D01*
X120396518Y-63343432D01*
X120593432Y-63146518D01*
X120700000Y-62889239D01*
X120700000Y-62610761D01*
X120593432Y-62353482D01*
X120396518Y-62156568D01*
X120375000Y-62147655D01*
X120375000Y-60352341D01*
X120396508Y-60343432D01*
X120593422Y-60146518D01*
X120699990Y-59889239D01*
X120699990Y-59610761D01*
X121800000Y-59610761D01*
X121800000Y-59889239D01*
X121906568Y-60146518D01*
X122103482Y-60343432D01*
X122125001Y-60352345D01*
X122125000Y-62147655D01*
X122103482Y-62156568D01*
X121906568Y-62353482D01*
X121800000Y-62610761D01*
X121800000Y-62889239D01*
X121906568Y-63146518D01*
X122103482Y-63343432D01*
X122125000Y-63352345D01*
X122125001Y-65147655D01*
X122103482Y-65156568D01*
X121906568Y-65353482D01*
X121800000Y-65610761D01*
X121800000Y-65889239D01*
X121906568Y-66146518D01*
X122103482Y-66343432D01*
X122125000Y-66352345D01*
X122125001Y-68147655D01*
X122103482Y-68156568D01*
X121906568Y-68353482D01*
X121800000Y-68610761D01*
X121800000Y-68889239D01*
X121906568Y-69146518D01*
X122103482Y-69343432D01*
X122125000Y-69352345D01*
X122125001Y-71147655D01*
X122103482Y-71156568D01*
X121906568Y-71353482D01*
X121800000Y-71610761D01*
X121800000Y-71889239D01*
X121906568Y-72146518D01*
X122103482Y-72343432D01*
X122125000Y-72352345D01*
X122125001Y-73147655D01*
X122103482Y-73156568D01*
X121906568Y-73353482D01*
X121800000Y-73610761D01*
X121800000Y-73889239D01*
X121906568Y-74146518D01*
X122103482Y-74343432D01*
X122360761Y-74450000D01*
X122639239Y-74450000D01*
X122896518Y-74343432D01*
X123093432Y-74146518D01*
X123200000Y-73889239D01*
X123200000Y-73610761D01*
X123093432Y-73353482D01*
X122896518Y-73156568D01*
X122875000Y-73147655D01*
X122875000Y-72352345D01*
X122896518Y-72343432D01*
X123093432Y-72146518D01*
X123200000Y-71889239D01*
X123200000Y-71610761D01*
X123093432Y-71353482D01*
X122896518Y-71156568D01*
X122875000Y-71147655D01*
X122875000Y-69352345D01*
X122896518Y-69343432D01*
X123093432Y-69146518D01*
X123200000Y-68889239D01*
X123200000Y-68610761D01*
X123093432Y-68353482D01*
X122896518Y-68156568D01*
X122875000Y-68147655D01*
X122875000Y-66352345D01*
X122896518Y-66343432D01*
X123093432Y-66146518D01*
X123200000Y-65889239D01*
X123200000Y-65610761D01*
X123093432Y-65353482D01*
X122896518Y-65156568D01*
X122875000Y-65147655D01*
X122875000Y-63352345D01*
X122896518Y-63343432D01*
X123093432Y-63146518D01*
X123200000Y-62889239D01*
X123200000Y-62610761D01*
X123093432Y-62353482D01*
X122896518Y-62156568D01*
X122875000Y-62147655D01*
X122875000Y-60352345D01*
X122896518Y-60343432D01*
X123093432Y-60146518D01*
X123200000Y-59889239D01*
X123200000Y-59610761D01*
X123093432Y-59353482D01*
X122896518Y-59156568D01*
X122639239Y-59050000D01*
X122360761Y-59050000D01*
X122103482Y-59156568D01*
X121906568Y-59353482D01*
X121800000Y-59610761D01*
X120699990Y-59610761D01*
X120593422Y-59353482D01*
X120396508Y-59156568D01*
X120139229Y-59050000D01*
X119860751Y-59050000D01*
X119603472Y-59156568D01*
X119406558Y-59353482D01*
X119299990Y-59610761D01*
X118200000Y-59610761D01*
X118093432Y-59353482D01*
X117896518Y-59156568D01*
X117639239Y-59050000D01*
X117360761Y-59050000D01*
X117103482Y-59156568D01*
X116906568Y-59353482D01*
X116800000Y-59610761D01*
X115700000Y-59610761D01*
X115593432Y-59353482D01*
X115396518Y-59156568D01*
X115139239Y-59050000D01*
X114860761Y-59050000D01*
X114603482Y-59156568D01*
X114406568Y-59353482D01*
X114300000Y-59610761D01*
X113200000Y-59610761D01*
X113093432Y-59353482D01*
X112896518Y-59156568D01*
X112639239Y-59050000D01*
X112360761Y-59050000D01*
X112103482Y-59156568D01*
X111906568Y-59353482D01*
X111800000Y-59610761D01*
X108375000Y-59610761D01*
X108375000Y-58852345D01*
X108396518Y-58843432D01*
X108593432Y-58646518D01*
X108700000Y-58389239D01*
X108700000Y-58110761D01*
X108593432Y-57853482D01*
X108396518Y-57656568D01*
X108139239Y-57550000D01*
X107860761Y-57550000D01*
X107603482Y-57656568D01*
X107406568Y-57853482D01*
X107300000Y-58110761D01*
X100350000Y-58110761D01*
X100350000Y-56860761D01*
X124300000Y-56860761D01*
X124300000Y-57139239D01*
X124406568Y-57396518D01*
X124603482Y-57593432D01*
X124625001Y-57602345D01*
X124625000Y-59147655D01*
X124603482Y-59156568D01*
X124406568Y-59353482D01*
X124300000Y-59610761D01*
X124300000Y-59889239D01*
X124406568Y-60146518D01*
X124603482Y-60343432D01*
X124625001Y-60352345D01*
X124625000Y-62147655D01*
X124603482Y-62156568D01*
X124406568Y-62353482D01*
X124300000Y-62610761D01*
X124300000Y-62889239D01*
X124406568Y-63146518D01*
X124603482Y-63343432D01*
X124625000Y-63352345D01*
X124625001Y-65147655D01*
X124603482Y-65156568D01*
X124406568Y-65353482D01*
X124300000Y-65610761D01*
X124300000Y-65889239D01*
X124406568Y-66146518D01*
X124603482Y-66343432D01*
X124625000Y-66352345D01*
X124625001Y-68147655D01*
X124603482Y-68156568D01*
X124406568Y-68353482D01*
X124300000Y-68610761D01*
X124300000Y-68889239D01*
X124406568Y-69146518D01*
X124603482Y-69343432D01*
X124625000Y-69352345D01*
X124625001Y-71147655D01*
X124603482Y-71156568D01*
X124406568Y-71353482D01*
X124300000Y-71610761D01*
X124300000Y-71889239D01*
X124406568Y-72146518D01*
X124603482Y-72343432D01*
X124625000Y-72352345D01*
X124625001Y-73147655D01*
X124603482Y-73156568D01*
X124406568Y-73353482D01*
X124300000Y-73610761D01*
X124300000Y-73889239D01*
X124406568Y-74146518D01*
X124603482Y-74343432D01*
X124860761Y-74450000D01*
X125139239Y-74450000D01*
X125396518Y-74343432D01*
X125593432Y-74146518D01*
X125700000Y-73889239D01*
X125700000Y-73610761D01*
X125593432Y-73353482D01*
X125396518Y-73156568D01*
X125375000Y-73147655D01*
X125375000Y-72352345D01*
X125396518Y-72343432D01*
X125593432Y-72146518D01*
X125700000Y-71889239D01*
X125700000Y-71610761D01*
X125593432Y-71353482D01*
X125396518Y-71156568D01*
X125375000Y-71147655D01*
X125375000Y-69352345D01*
X125396518Y-69343432D01*
X125593432Y-69146518D01*
X125700000Y-68889239D01*
X125700000Y-68610761D01*
X125593432Y-68353482D01*
X125396518Y-68156568D01*
X125375000Y-68147655D01*
X125375000Y-66352345D01*
X125396518Y-66343432D01*
X125593432Y-66146518D01*
X125700000Y-65889239D01*
X125700000Y-65610761D01*
X125593432Y-65353482D01*
X125396518Y-65156568D01*
X125375000Y-65147655D01*
X125375000Y-63352345D01*
X125396518Y-63343432D01*
X125593432Y-63146518D01*
X125700000Y-62889239D01*
X125700000Y-62610761D01*
X125593432Y-62353482D01*
X125396518Y-62156568D01*
X125375000Y-62147655D01*
X125375000Y-60352345D01*
X125396518Y-60343432D01*
X125593432Y-60146518D01*
X125700000Y-59889239D01*
X125700000Y-59610761D01*
X125593432Y-59353482D01*
X125396518Y-59156568D01*
X125375000Y-59147655D01*
X125375000Y-57602345D01*
X125396518Y-57593432D01*
X125593432Y-57396518D01*
X125700000Y-57139239D01*
X125700000Y-56860761D01*
X125593432Y-56603482D01*
X125396518Y-56406568D01*
X125139239Y-56300000D01*
X124860761Y-56300000D01*
X124603482Y-56406568D01*
X124406568Y-56603482D01*
X124300000Y-56860761D01*
X100350000Y-56860761D01*
X100350000Y-56235761D01*
X126800000Y-56235761D01*
X126800000Y-56514239D01*
X126906568Y-56771518D01*
X127103482Y-56968432D01*
X127125001Y-56977345D01*
X127125000Y-59147655D01*
X127103482Y-59156568D01*
X126906568Y-59353482D01*
X126800000Y-59610761D01*
X126800000Y-59889239D01*
X126906568Y-60146518D01*
X127103482Y-60343432D01*
X127125001Y-60352345D01*
X127125000Y-62147655D01*
X127103482Y-62156568D01*
X126906568Y-62353482D01*
X126800000Y-62610761D01*
X126800000Y-62889239D01*
X126906568Y-63146518D01*
X127103482Y-63343432D01*
X127125000Y-63352345D01*
X127125001Y-65147655D01*
X127103482Y-65156568D01*
X126906568Y-65353482D01*
X126800000Y-65610761D01*
X126800000Y-65889239D01*
X126906568Y-66146518D01*
X127103482Y-66343432D01*
X127125000Y-66352345D01*
X127125001Y-68147655D01*
X127103482Y-68156568D01*
X126906568Y-68353482D01*
X126800000Y-68610761D01*
X126800000Y-68889239D01*
X126906568Y-69146518D01*
X127103482Y-69343432D01*
X127125000Y-69352345D01*
X127125001Y-71147655D01*
X127103482Y-71156568D01*
X126906568Y-71353482D01*
X126800000Y-71610761D01*
X126800000Y-71889239D01*
X126906568Y-72146518D01*
X127103482Y-72343432D01*
X127125000Y-72352345D01*
X127125001Y-73147655D01*
X127103482Y-73156568D01*
X126906568Y-73353482D01*
X126800000Y-73610761D01*
X126800000Y-73889239D01*
X126906568Y-74146518D01*
X127103482Y-74343432D01*
X127360761Y-74450000D01*
X127639239Y-74450000D01*
X127896518Y-74343432D01*
X128093432Y-74146518D01*
X128200000Y-73889239D01*
X128200000Y-73610761D01*
X128093432Y-73353482D01*
X127896518Y-73156568D01*
X127875000Y-73147655D01*
X127875000Y-72352345D01*
X127896518Y-72343432D01*
X128093432Y-72146518D01*
X128200000Y-71889239D01*
X128200000Y-71610761D01*
X128093432Y-71353482D01*
X127896518Y-71156568D01*
X127875000Y-71147655D01*
X127875000Y-69352345D01*
X127896518Y-69343432D01*
X128093432Y-69146518D01*
X128200000Y-68889239D01*
X128200000Y-68610761D01*
X128093432Y-68353482D01*
X127896518Y-68156568D01*
X127875000Y-68147655D01*
X127875000Y-66352345D01*
X127896518Y-66343432D01*
X128093432Y-66146518D01*
X128200000Y-65889239D01*
X128200000Y-65610761D01*
X128093432Y-65353482D01*
X127896518Y-65156568D01*
X127875000Y-65147655D01*
X127875000Y-63352345D01*
X127896518Y-63343432D01*
X128093432Y-63146518D01*
X128200000Y-62889239D01*
X128200000Y-62610761D01*
X128093432Y-62353482D01*
X127896518Y-62156568D01*
X127875000Y-62147655D01*
X127875000Y-60352345D01*
X127896518Y-60343432D01*
X128093432Y-60146518D01*
X128200000Y-59889239D01*
X128200000Y-59610761D01*
X128093432Y-59353482D01*
X127896518Y-59156568D01*
X127875000Y-59147655D01*
X127875000Y-56977345D01*
X127896518Y-56968432D01*
X128093432Y-56771518D01*
X128200000Y-56514239D01*
X128200000Y-56235761D01*
X128093432Y-55978482D01*
X127896518Y-55781568D01*
X127639239Y-55675000D01*
X127360761Y-55675000D01*
X127103482Y-55781568D01*
X126906568Y-55978482D01*
X126800000Y-56235761D01*
X100350000Y-56235761D01*
X100350000Y-55350000D01*
X129410050Y-55350000D01*
X129406568Y-55353482D01*
X129406568Y-55353482D01*
G37*
X129406568Y-55353482D02*
X129300000Y-55610761D01*
X129300000Y-55889239D01*
X129406568Y-56146518D01*
X129603482Y-56343432D01*
X129625001Y-56352345D01*
X129625000Y-59147655D01*
X129603482Y-59156568D01*
X129406568Y-59353482D01*
X129300000Y-59610761D01*
X129300000Y-59889239D01*
X129406568Y-60146518D01*
X129603482Y-60343432D01*
X129625001Y-60352345D01*
X129625001Y-62147655D01*
X129603482Y-62156568D01*
X129406568Y-62353482D01*
X129300000Y-62610761D01*
X129300000Y-62889239D01*
X129406568Y-63146518D01*
X129603482Y-63343432D01*
X129625000Y-63352345D01*
X129625000Y-65147655D01*
X129603482Y-65156568D01*
X129406568Y-65353482D01*
X129300000Y-65610761D01*
X129300000Y-65889239D01*
X129406568Y-66146518D01*
X129603482Y-66343432D01*
X129625000Y-66352345D01*
X129625001Y-68147655D01*
X129603482Y-68156568D01*
X129406568Y-68353482D01*
X129300000Y-68610761D01*
X129300000Y-68889239D01*
X129406568Y-69146518D01*
X129603482Y-69343432D01*
X129625000Y-69352345D01*
X129625001Y-71147655D01*
X129603482Y-71156568D01*
X129406568Y-71353482D01*
X129300000Y-71610761D01*
X129300000Y-71889239D01*
X129406568Y-72146518D01*
X129603482Y-72343432D01*
X129625000Y-72352345D01*
X129625001Y-73147655D01*
X129603482Y-73156568D01*
X129406568Y-73353482D01*
X129300000Y-73610761D01*
X129300000Y-73889239D01*
X129406568Y-74146518D01*
X129603482Y-74343432D01*
X129860761Y-74450000D01*
X130139239Y-74450000D01*
X130396518Y-74343432D01*
X130593432Y-74146518D01*
X130700000Y-73889239D01*
X130700000Y-73610761D01*
X130593432Y-73353482D01*
X130396518Y-73156568D01*
X130375000Y-73147655D01*
X130375000Y-72352345D01*
X130396518Y-72343432D01*
X130593432Y-72146518D01*
X130700000Y-71889239D01*
X130700000Y-71610761D01*
X130593432Y-71353482D01*
X130396518Y-71156568D01*
X130375000Y-71147655D01*
X130375000Y-69352345D01*
X130396518Y-69343432D01*
X130593432Y-69146518D01*
X130700000Y-68889239D01*
X130700000Y-68610761D01*
X130593432Y-68353482D01*
X130396518Y-68156568D01*
X130375000Y-68147655D01*
X130375000Y-66352345D01*
X130396518Y-66343432D01*
X130593432Y-66146518D01*
X130700000Y-65889239D01*
X130700000Y-65610761D01*
X130593432Y-65353482D01*
X130396518Y-65156568D01*
X130375000Y-65147655D01*
X130375000Y-63352345D01*
X130396518Y-63343432D01*
X130593432Y-63146518D01*
X130700000Y-62889239D01*
X130700000Y-62610761D01*
X130593432Y-62353482D01*
X130396518Y-62156568D01*
X130375000Y-62147655D01*
X130375000Y-60352345D01*
X130396518Y-60343432D01*
X130593432Y-60146518D01*
X130700000Y-59889239D01*
X130700000Y-59610761D01*
X131800000Y-59610761D01*
X131800000Y-59889239D01*
X131906568Y-60146518D01*
X132103482Y-60343432D01*
X132125001Y-60352345D01*
X132125001Y-62147655D01*
X132103482Y-62156568D01*
X131906568Y-62353482D01*
X131800000Y-62610761D01*
X131800000Y-62889239D01*
X131906568Y-63146518D01*
X132103482Y-63343432D01*
X132125000Y-63352345D01*
X132125000Y-65147655D01*
X132103482Y-65156568D01*
X131906568Y-65353482D01*
X131800000Y-65610761D01*
X131800000Y-65889239D01*
X131906568Y-66146518D01*
X132103482Y-66343432D01*
X132125000Y-66352345D01*
X132125001Y-68147655D01*
X132103482Y-68156568D01*
X131906568Y-68353482D01*
X131800000Y-68610761D01*
X131800000Y-68889239D01*
X131906568Y-69146518D01*
X132103482Y-69343432D01*
X132125000Y-69352345D01*
X132125000Y-71147655D01*
X132103482Y-71156568D01*
X131906568Y-71353482D01*
X131800000Y-71610761D01*
X131800000Y-71889239D01*
X131906568Y-72146518D01*
X132103482Y-72343432D01*
X132125001Y-72352345D01*
X132125001Y-73147655D01*
X132103482Y-73156568D01*
X131906568Y-73353482D01*
X131800000Y-73610761D01*
X131800000Y-73889239D01*
X131906568Y-74146518D01*
X132103482Y-74343432D01*
X132360761Y-74450000D01*
X132639239Y-74450000D01*
X132800000Y-74383411D01*
X132800000Y-74589239D01*
X132906568Y-74846518D01*
X133103482Y-75043432D01*
X133125000Y-75052345D01*
X133125001Y-83397655D01*
X133103482Y-83406568D01*
X132906568Y-83603482D01*
X132800000Y-83860761D01*
X132800000Y-84139239D01*
X132906568Y-84396518D01*
X133103482Y-84593432D01*
X133360761Y-84700000D01*
X133639239Y-84700000D01*
X133896518Y-84593432D01*
X134093432Y-84396518D01*
X134200000Y-84139239D01*
X134200000Y-83860761D01*
X134093432Y-83603482D01*
X133896518Y-83406568D01*
X133875000Y-83397655D01*
X133875000Y-82860761D01*
X145300000Y-82860761D01*
X145300000Y-83139239D01*
X145406568Y-83396518D01*
X145603482Y-83593432D01*
X145625000Y-83602345D01*
X145625001Y-90397655D01*
X145603482Y-90406568D01*
X145406568Y-90603482D01*
X145300000Y-90860761D01*
X145300000Y-91139239D01*
X145406568Y-91396518D01*
X145603482Y-91593432D01*
X145860761Y-91700000D01*
X146139239Y-91700000D01*
X146396518Y-91593432D01*
X146593432Y-91396518D01*
X146700000Y-91139239D01*
X146700000Y-90860761D01*
X146593432Y-90603482D01*
X146396518Y-90406568D01*
X146375000Y-90397655D01*
X146375000Y-87360761D01*
X149800000Y-87360761D01*
X149800000Y-87639239D01*
X149906568Y-87896518D01*
X150103482Y-88093432D01*
X150360761Y-88200000D01*
X150639239Y-88200000D01*
X150896518Y-88093432D01*
X151093432Y-87896518D01*
X151200000Y-87639239D01*
X151200000Y-87360761D01*
X151093432Y-87103482D01*
X150896518Y-86906568D01*
X150875000Y-86897655D01*
X150875000Y-80610761D01*
X151800000Y-80610761D01*
X151800000Y-80889239D01*
X151906568Y-81146518D01*
X152103482Y-81343432D01*
X152125000Y-81352345D01*
X152125001Y-84397655D01*
X152103482Y-84406568D01*
X151906568Y-84603482D01*
X151800000Y-84860761D01*
X151800000Y-85139239D01*
X151906568Y-85396518D01*
X152103482Y-85593432D01*
X152360761Y-85700000D01*
X152639239Y-85700000D01*
X152896518Y-85593432D01*
X153093432Y-85396518D01*
X153200000Y-85139239D01*
X153200000Y-84860761D01*
X153093432Y-84603482D01*
X152896518Y-84406568D01*
X152875000Y-84397655D01*
X152875000Y-81352345D01*
X152896518Y-81343432D01*
X153093432Y-81146518D01*
X153200000Y-80889239D01*
X153200000Y-80610761D01*
X153093432Y-80353482D01*
X152896518Y-80156568D01*
X152639239Y-80050000D01*
X152360761Y-80050000D01*
X152103482Y-80156568D01*
X151906568Y-80353482D01*
X151800000Y-80610761D01*
X150875000Y-80610761D01*
X150875000Y-80043789D01*
X150919160Y-80025497D01*
X151116074Y-79828583D01*
X151222642Y-79571304D01*
X151222642Y-79292826D01*
X151116074Y-79035547D01*
X150919160Y-78838633D01*
X150661881Y-78732065D01*
X150383403Y-78732065D01*
X150126124Y-78838633D01*
X149929210Y-79035547D01*
X149822642Y-79292826D01*
X149822642Y-79571304D01*
X149929210Y-79828583D01*
X150125001Y-80024374D01*
X150125000Y-86897655D01*
X150103482Y-86906568D01*
X149906568Y-87103482D01*
X149800000Y-87360761D01*
X146375000Y-87360761D01*
X146375000Y-83602345D01*
X146396518Y-83593432D01*
X146593432Y-83396518D01*
X146700000Y-83139239D01*
X146700000Y-82860761D01*
X146593432Y-82603482D01*
X146396518Y-82406568D01*
X146139239Y-82300000D01*
X145860761Y-82300000D01*
X145603482Y-82406568D01*
X145406568Y-82603482D01*
X145300000Y-82860761D01*
X133875000Y-82860761D01*
X133875000Y-75052345D01*
X133896518Y-75043432D01*
X134093432Y-74846518D01*
X134200000Y-74589239D01*
X134200000Y-74310761D01*
X134093432Y-74053482D01*
X133896518Y-73856568D01*
X133639239Y-73750000D01*
X133360761Y-73750000D01*
X133200000Y-73816589D01*
X133200000Y-73610761D01*
X133093432Y-73353482D01*
X132896518Y-73156568D01*
X132875000Y-73147655D01*
X132875000Y-72352345D01*
X132896518Y-72343432D01*
X133093432Y-72146518D01*
X133200000Y-71889239D01*
X133200000Y-71610761D01*
X133093432Y-71353482D01*
X132896518Y-71156568D01*
X132875000Y-71147655D01*
X132875000Y-69352345D01*
X132896518Y-69343432D01*
X133093432Y-69146518D01*
X133200000Y-68889239D01*
X133200000Y-68610761D01*
X133093432Y-68353482D01*
X132896518Y-68156568D01*
X132875000Y-68147655D01*
X132875000Y-66352345D01*
X132896518Y-66343432D01*
X133093432Y-66146518D01*
X133200000Y-65889239D01*
X133200000Y-65610761D01*
X133093432Y-65353482D01*
X132896518Y-65156568D01*
X132875000Y-65147655D01*
X132875000Y-63352345D01*
X132896518Y-63343432D01*
X133093432Y-63146518D01*
X133200000Y-62889239D01*
X133200000Y-62610761D01*
X133093432Y-62353482D01*
X132896518Y-62156568D01*
X132875000Y-62147655D01*
X132875000Y-60352345D01*
X132896518Y-60343432D01*
X133093432Y-60146518D01*
X133200000Y-59889239D01*
X133200000Y-59610761D01*
X134300000Y-59610761D01*
X134300000Y-59889239D01*
X134406568Y-60146518D01*
X134603482Y-60343432D01*
X134625001Y-60352345D01*
X134625000Y-62147655D01*
X134603482Y-62156568D01*
X134406568Y-62353482D01*
X134300000Y-62610761D01*
X134300000Y-62889239D01*
X134406568Y-63146518D01*
X134603482Y-63343432D01*
X134625000Y-63352345D01*
X134625001Y-65147655D01*
X134603482Y-65156568D01*
X134406568Y-65353482D01*
X134300000Y-65610761D01*
X134300000Y-65889239D01*
X134406568Y-66146518D01*
X134603482Y-66343432D01*
X134625000Y-66352345D01*
X134625001Y-68147655D01*
X134603482Y-68156568D01*
X134406568Y-68353482D01*
X134300000Y-68610761D01*
X134300000Y-68889239D01*
X134406568Y-69146518D01*
X134603482Y-69343432D01*
X134625000Y-69352345D01*
X134625001Y-71397655D01*
X134603482Y-71406568D01*
X134406568Y-71603482D01*
X134300000Y-71860761D01*
X134300000Y-72139239D01*
X134406568Y-72396518D01*
X134603482Y-72593432D01*
X134860761Y-72700000D01*
X135139239Y-72700000D01*
X135396518Y-72593432D01*
X135593432Y-72396518D01*
X135700000Y-72139239D01*
X135700000Y-71860761D01*
X135593432Y-71603482D01*
X135396518Y-71406568D01*
X135375000Y-71397655D01*
X135375000Y-69352345D01*
X135396518Y-69343432D01*
X135593432Y-69146518D01*
X135700000Y-68889239D01*
X135700000Y-68610761D01*
X135593432Y-68353482D01*
X135396518Y-68156568D01*
X135375000Y-68147655D01*
X135375000Y-66352345D01*
X135396518Y-66343432D01*
X135593432Y-66146518D01*
X135700000Y-65889239D01*
X135700000Y-65610761D01*
X135593432Y-65353482D01*
X135396518Y-65156568D01*
X135375000Y-65147655D01*
X135375000Y-63352345D01*
X135396518Y-63343432D01*
X135593432Y-63146518D01*
X135700000Y-62889239D01*
X135700000Y-62610761D01*
X135593432Y-62353482D01*
X135396518Y-62156568D01*
X135375000Y-62147655D01*
X135375000Y-60352345D01*
X135396518Y-60343432D01*
X135593432Y-60146518D01*
X135700000Y-59889239D01*
X135700000Y-59610761D01*
X136800000Y-59610761D01*
X136800000Y-59889239D01*
X136906568Y-60146518D01*
X137103482Y-60343432D01*
X137125001Y-60352345D01*
X137125000Y-62147655D01*
X137103482Y-62156568D01*
X136906568Y-62353482D01*
X136800000Y-62610761D01*
X136800000Y-62889239D01*
X136906568Y-63146518D01*
X137103482Y-63343432D01*
X137125000Y-63352345D01*
X137125001Y-65147669D01*
X137103482Y-65156582D01*
X136906568Y-65353496D01*
X136800000Y-65610775D01*
X136800000Y-65889253D01*
X136906568Y-66146532D01*
X137103482Y-66343446D01*
X137125001Y-66352359D01*
X137125000Y-68147655D01*
X137103482Y-68156568D01*
X136906568Y-68353482D01*
X136800000Y-68610761D01*
X136800000Y-68889239D01*
X136906568Y-69146518D01*
X137103482Y-69343432D01*
X137125000Y-69352345D01*
X137125001Y-71397655D01*
X137103482Y-71406568D01*
X136906568Y-71603482D01*
X136800000Y-71860761D01*
X136800000Y-72139239D01*
X136906568Y-72396518D01*
X137103482Y-72593432D01*
X137360761Y-72700000D01*
X137639239Y-72700000D01*
X137896518Y-72593432D01*
X138093432Y-72396518D01*
X138200000Y-72139239D01*
X138200000Y-71860761D01*
X138093432Y-71603482D01*
X137896518Y-71406568D01*
X137875000Y-71397655D01*
X137875000Y-69352345D01*
X137896518Y-69343432D01*
X138093432Y-69146518D01*
X138200000Y-68889239D01*
X138200000Y-68610761D01*
X138093432Y-68353482D01*
X137896518Y-68156568D01*
X137875000Y-68147655D01*
X137875000Y-66352359D01*
X137896518Y-66343446D01*
X138093432Y-66146532D01*
X138200000Y-65889253D01*
X138200000Y-65610775D01*
X138093432Y-65353496D01*
X137896518Y-65156582D01*
X137875000Y-65147669D01*
X137875000Y-63352345D01*
X137896518Y-63343432D01*
X138093432Y-63146518D01*
X138200000Y-62889239D01*
X138200000Y-62610761D01*
X138093432Y-62353482D01*
X137896518Y-62156568D01*
X137875000Y-62147655D01*
X137875000Y-60352345D01*
X137896518Y-60343432D01*
X138093432Y-60146518D01*
X138200000Y-59889239D01*
X138200000Y-59610761D01*
X139300000Y-59610761D01*
X139300000Y-59889239D01*
X139406568Y-60146518D01*
X139603482Y-60343432D01*
X139625001Y-60352345D01*
X139625000Y-62147655D01*
X139603482Y-62156568D01*
X139406568Y-62353482D01*
X139300000Y-62610761D01*
X139300000Y-62889239D01*
X139406568Y-63146518D01*
X139603482Y-63343432D01*
X139625000Y-63352345D01*
X139625001Y-65147655D01*
X139603482Y-65156568D01*
X139406568Y-65353482D01*
X139300000Y-65610761D01*
X139300000Y-65889239D01*
X139406568Y-66146518D01*
X139603482Y-66343432D01*
X139625000Y-66352345D01*
X139625001Y-68147655D01*
X139603482Y-68156568D01*
X139406568Y-68353482D01*
X139300000Y-68610761D01*
X139300000Y-68889239D01*
X139406568Y-69146518D01*
X139603482Y-69343432D01*
X139625000Y-69352345D01*
X139625001Y-71397655D01*
X139603482Y-71406568D01*
X139406568Y-71603482D01*
X139300000Y-71860761D01*
X139300000Y-72139239D01*
X139406568Y-72396518D01*
X139603482Y-72593432D01*
X139860761Y-72700000D01*
X140139239Y-72700000D01*
X140396518Y-72593432D01*
X140593432Y-72396518D01*
X140700000Y-72139239D01*
X140700000Y-71860761D01*
X140593432Y-71603482D01*
X140396518Y-71406568D01*
X140375000Y-71397655D01*
X140375000Y-69352345D01*
X140396518Y-69343432D01*
X140593432Y-69146518D01*
X140700000Y-68889239D01*
X140700000Y-68610761D01*
X140593432Y-68353482D01*
X140396518Y-68156568D01*
X140375000Y-68147655D01*
X140375000Y-66352345D01*
X140396518Y-66343432D01*
X140593432Y-66146518D01*
X140700000Y-65889239D01*
X140700000Y-65610761D01*
X140593432Y-65353482D01*
X140396518Y-65156568D01*
X140375000Y-65147655D01*
X140375000Y-63352345D01*
X140396518Y-63343432D01*
X140593432Y-63146518D01*
X140700000Y-62889239D01*
X140700000Y-62610761D01*
X140593432Y-62353482D01*
X140396518Y-62156568D01*
X140375000Y-62147655D01*
X140375000Y-60352345D01*
X140396518Y-60343432D01*
X140593432Y-60146518D01*
X140700000Y-59889239D01*
X140700000Y-59610761D01*
X141800000Y-59610761D01*
X141800000Y-59889239D01*
X141906568Y-60146518D01*
X142103482Y-60343432D01*
X142125001Y-60352345D01*
X142125000Y-62147655D01*
X142103482Y-62156568D01*
X141906568Y-62353482D01*
X141800000Y-62610761D01*
X141800000Y-62889239D01*
X141906568Y-63146518D01*
X142103482Y-63343432D01*
X142125000Y-63352345D01*
X142125001Y-65147655D01*
X142103482Y-65156568D01*
X141906568Y-65353482D01*
X141800000Y-65610761D01*
X141800000Y-65889239D01*
X141906568Y-66146518D01*
X142103482Y-66343432D01*
X142125000Y-66352345D01*
X142125000Y-68147655D01*
X142103482Y-68156568D01*
X141906568Y-68353482D01*
X141800000Y-68610761D01*
X141800000Y-68889239D01*
X141906568Y-69146518D01*
X142103482Y-69343432D01*
X142125001Y-69352345D01*
X142125001Y-71397655D01*
X142103482Y-71406568D01*
X141906568Y-71603482D01*
X141800000Y-71860761D01*
X141800000Y-72139239D01*
X141906568Y-72396518D01*
X142103482Y-72593432D01*
X142360761Y-72700000D01*
X142639239Y-72700000D01*
X142896518Y-72593432D01*
X143093432Y-72396518D01*
X143200000Y-72139239D01*
X143200000Y-71860761D01*
X143093432Y-71603482D01*
X142896518Y-71406568D01*
X142875000Y-71397655D01*
X142875000Y-69352345D01*
X142896518Y-69343432D01*
X143093432Y-69146518D01*
X143200000Y-68889239D01*
X143200000Y-68610761D01*
X143093432Y-68353482D01*
X142896518Y-68156568D01*
X142875000Y-68147655D01*
X142875000Y-66352345D01*
X142896518Y-66343432D01*
X143093432Y-66146518D01*
X143200000Y-65889239D01*
X143200000Y-65610761D01*
X143093432Y-65353482D01*
X142896518Y-65156568D01*
X142875000Y-65147655D01*
X142875000Y-63352345D01*
X142896518Y-63343432D01*
X143093432Y-63146518D01*
X143200000Y-62889239D01*
X143200000Y-62610761D01*
X143093432Y-62353482D01*
X142896518Y-62156568D01*
X142875000Y-62147655D01*
X142875000Y-60352345D01*
X142896518Y-60343432D01*
X143093432Y-60146518D01*
X143200000Y-59889239D01*
X143200000Y-59610761D01*
X144300000Y-59610761D01*
X144300000Y-59889239D01*
X144406568Y-60146518D01*
X144603482Y-60343432D01*
X144625001Y-60352345D01*
X144625000Y-62147655D01*
X144603482Y-62156568D01*
X144406568Y-62353482D01*
X144300000Y-62610761D01*
X144300000Y-62889239D01*
X144406568Y-63146518D01*
X144603482Y-63343432D01*
X144625000Y-63352345D01*
X144625001Y-65147654D01*
X144603482Y-65156567D01*
X144406568Y-65353481D01*
X144300000Y-65610760D01*
X144300000Y-65889238D01*
X144406568Y-66146517D01*
X144603482Y-66343431D01*
X144625001Y-66352344D01*
X144625000Y-68147655D01*
X144603482Y-68156568D01*
X144406568Y-68353482D01*
X144300000Y-68610761D01*
X144300000Y-68889239D01*
X144406568Y-69146518D01*
X144603482Y-69343432D01*
X144625000Y-69352345D01*
X144625001Y-71397655D01*
X144603482Y-71406568D01*
X144406568Y-71603482D01*
X144300000Y-71860761D01*
X144300000Y-72139239D01*
X144406568Y-72396518D01*
X144603482Y-72593432D01*
X144860761Y-72700000D01*
X145139239Y-72700000D01*
X145396518Y-72593432D01*
X145593432Y-72396518D01*
X145700000Y-72139239D01*
X145700000Y-71860761D01*
X145593432Y-71603482D01*
X145396518Y-71406568D01*
X145375000Y-71397655D01*
X145375000Y-69352345D01*
X145396518Y-69343432D01*
X145593432Y-69146518D01*
X145700000Y-68889239D01*
X145700000Y-68610761D01*
X145593432Y-68353482D01*
X145396518Y-68156568D01*
X145375000Y-68147655D01*
X145375000Y-66352344D01*
X145396518Y-66343431D01*
X145593432Y-66146517D01*
X145700000Y-65889238D01*
X145700000Y-65610760D01*
X145593432Y-65353481D01*
X145396518Y-65156567D01*
X145375000Y-65147654D01*
X145375000Y-63352345D01*
X145396518Y-63343432D01*
X145593432Y-63146518D01*
X145700000Y-62889239D01*
X145700000Y-62610761D01*
X145593432Y-62353482D01*
X145396518Y-62156568D01*
X145375000Y-62147655D01*
X145375000Y-60352345D01*
X145396518Y-60343432D01*
X145593432Y-60146518D01*
X145700000Y-59889239D01*
X145700000Y-59610761D01*
X145593432Y-59353482D01*
X145396518Y-59156568D01*
X145139239Y-59050000D01*
X144860761Y-59050000D01*
X144603482Y-59156568D01*
X144406568Y-59353482D01*
X144300000Y-59610761D01*
X143200000Y-59610761D01*
X143093432Y-59353482D01*
X142896518Y-59156568D01*
X142639239Y-59050000D01*
X142360761Y-59050000D01*
X142103482Y-59156568D01*
X141906568Y-59353482D01*
X141800000Y-59610761D01*
X140700000Y-59610761D01*
X140593432Y-59353482D01*
X140396518Y-59156568D01*
X140139239Y-59050000D01*
X139860761Y-59050000D01*
X139603482Y-59156568D01*
X139406568Y-59353482D01*
X139300000Y-59610761D01*
X138200000Y-59610761D01*
X138093432Y-59353482D01*
X137896518Y-59156568D01*
X137639239Y-59050000D01*
X137360761Y-59050000D01*
X137103482Y-59156568D01*
X136906568Y-59353482D01*
X136800000Y-59610761D01*
X135700000Y-59610761D01*
X135593432Y-59353482D01*
X135396518Y-59156568D01*
X135139239Y-59050000D01*
X134860761Y-59050000D01*
X134603482Y-59156568D01*
X134406568Y-59353482D01*
X134300000Y-59610761D01*
X133200000Y-59610761D01*
X133093432Y-59353482D01*
X132896518Y-59156568D01*
X132639239Y-59050000D01*
X132360761Y-59050000D01*
X132103482Y-59156568D01*
X131906568Y-59353482D01*
X131800000Y-59610761D01*
X130700000Y-59610761D01*
X130593432Y-59353482D01*
X130396518Y-59156568D01*
X130375000Y-59147655D01*
X130375000Y-56860761D01*
X146800000Y-56860761D01*
X146800000Y-57139239D01*
X146906568Y-57396518D01*
X147103482Y-57593432D01*
X147125000Y-57602345D01*
X147125001Y-59147655D01*
X147103482Y-59156568D01*
X146906568Y-59353482D01*
X146800000Y-59610761D01*
X146800000Y-59889239D01*
X146906568Y-60146518D01*
X147103482Y-60343432D01*
X147125001Y-60352345D01*
X147125000Y-65147655D01*
X147103482Y-65156568D01*
X146906568Y-65353482D01*
X146800000Y-65610761D01*
X146800000Y-65889239D01*
X146906568Y-66146518D01*
X147103482Y-66343432D01*
X147125000Y-66352345D01*
X147125001Y-68147655D01*
X147103482Y-68156568D01*
X146906568Y-68353482D01*
X146800000Y-68610761D01*
X146800000Y-68889239D01*
X146906568Y-69146518D01*
X147103482Y-69343432D01*
X147125000Y-69352345D01*
X147125001Y-71397655D01*
X147103482Y-71406568D01*
X146906568Y-71603482D01*
X146800000Y-71860761D01*
X146800000Y-72139239D01*
X146906568Y-72396518D01*
X147103482Y-72593432D01*
X147360761Y-72700000D01*
X147639239Y-72700000D01*
X147896518Y-72593432D01*
X148093432Y-72396518D01*
X148200000Y-72139239D01*
X148200000Y-71860761D01*
X148093432Y-71603482D01*
X147896518Y-71406568D01*
X147875000Y-71397655D01*
X147875000Y-69352345D01*
X147896518Y-69343432D01*
X148093432Y-69146518D01*
X148200000Y-68889239D01*
X148200000Y-68610761D01*
X148093432Y-68353482D01*
X147896518Y-68156568D01*
X147875000Y-68147655D01*
X147875000Y-66352345D01*
X147896518Y-66343432D01*
X148093432Y-66146518D01*
X148200000Y-65889239D01*
X148200000Y-65610761D01*
X148093432Y-65353482D01*
X147896518Y-65156568D01*
X147875000Y-65147655D01*
X147875000Y-60352345D01*
X147896518Y-60343432D01*
X148093432Y-60146518D01*
X148200000Y-59889239D01*
X148200000Y-59610761D01*
X148093432Y-59353482D01*
X147896518Y-59156568D01*
X147875000Y-59147655D01*
X147875000Y-57602345D01*
X147896518Y-57593432D01*
X148093432Y-57396518D01*
X148200000Y-57139239D01*
X148200000Y-56860761D01*
X148093432Y-56603482D01*
X147896518Y-56406568D01*
X147785930Y-56360761D01*
X149300000Y-56360761D01*
X149300000Y-56639239D01*
X149406568Y-56896518D01*
X149603482Y-57093432D01*
X149625000Y-57102345D01*
X149625001Y-59147655D01*
X149603482Y-59156568D01*
X149406568Y-59353482D01*
X149300000Y-59610761D01*
X149300000Y-59889239D01*
X149406568Y-60146518D01*
X149603482Y-60343432D01*
X149625001Y-60352345D01*
X149625001Y-62147655D01*
X149603482Y-62156568D01*
X149406568Y-62353482D01*
X149300000Y-62610761D01*
X149300000Y-62889239D01*
X149406568Y-63146518D01*
X149603482Y-63343432D01*
X149625001Y-63352345D01*
X149625000Y-68147655D01*
X149603482Y-68156568D01*
X149406568Y-68353482D01*
X149300000Y-68610761D01*
X149300000Y-68889239D01*
X149406568Y-69146518D01*
X149603482Y-69343432D01*
X149625000Y-69352345D01*
X149625001Y-71397655D01*
X149603482Y-71406568D01*
X149406568Y-71603482D01*
X149300000Y-71860761D01*
X149300000Y-72139239D01*
X149406568Y-72396518D01*
X149603482Y-72593432D01*
X149860761Y-72700000D01*
X150139239Y-72700000D01*
X150396518Y-72593432D01*
X150593432Y-72396518D01*
X150700000Y-72139239D01*
X150700000Y-71860761D01*
X150593432Y-71603482D01*
X150396518Y-71406568D01*
X150375000Y-71397655D01*
X150375000Y-69352345D01*
X150396518Y-69343432D01*
X150593432Y-69146518D01*
X150700000Y-68889239D01*
X150700000Y-68610761D01*
X150593432Y-68353482D01*
X150396518Y-68156568D01*
X150375000Y-68147655D01*
X150375000Y-63352345D01*
X150396518Y-63343432D01*
X150593432Y-63146518D01*
X150700000Y-62889239D01*
X150700000Y-62610761D01*
X150593432Y-62353482D01*
X150396518Y-62156568D01*
X150375000Y-62147655D01*
X150375000Y-60352345D01*
X150396518Y-60343432D01*
X150593432Y-60146518D01*
X150700000Y-59889239D01*
X150700000Y-59610761D01*
X150593432Y-59353482D01*
X150396518Y-59156568D01*
X150375000Y-59147655D01*
X150375000Y-57102345D01*
X150396518Y-57093432D01*
X150593432Y-56896518D01*
X150700000Y-56639239D01*
X150700000Y-56360761D01*
X150593432Y-56103482D01*
X150396518Y-55906568D01*
X150139239Y-55800000D01*
X149860761Y-55800000D01*
X149603482Y-55906568D01*
X149406568Y-56103482D01*
X149300000Y-56360761D01*
X147785930Y-56360761D01*
X147639239Y-56300000D01*
X147360761Y-56300000D01*
X147103482Y-56406568D01*
X146906568Y-56603482D01*
X146800000Y-56860761D01*
X130375000Y-56860761D01*
X130375000Y-56352345D01*
X130396518Y-56343432D01*
X130593432Y-56146518D01*
X130700000Y-55889239D01*
X130700000Y-55610761D01*
X130593432Y-55353482D01*
X130589950Y-55350000D01*
X151910050Y-55350000D01*
X151906568Y-55353482D01*
X151800000Y-55610761D01*
X151800000Y-55889239D01*
X151906568Y-56146518D01*
X152103482Y-56343432D01*
X152125000Y-56352345D01*
X152125001Y-59147655D01*
X152103482Y-59156568D01*
X151906568Y-59353482D01*
X151800000Y-59610761D01*
X151800000Y-59889239D01*
X151906568Y-60146518D01*
X152103482Y-60343432D01*
X152125001Y-60352345D01*
X152125001Y-62176944D01*
X152053482Y-62206568D01*
X151856568Y-62403482D01*
X151750000Y-62660761D01*
X151750000Y-62939239D01*
X151856568Y-63196518D01*
X152053482Y-63393432D01*
X152125000Y-63423056D01*
X152125000Y-65147655D01*
X152103482Y-65156568D01*
X151906568Y-65353482D01*
X151800000Y-65610761D01*
X151800000Y-65889239D01*
X151906568Y-66146518D01*
X152103482Y-66343432D01*
X152125000Y-66352345D01*
X152125001Y-71397655D01*
X152103482Y-71406568D01*
X151906568Y-71603482D01*
X151800000Y-71860761D01*
X151800000Y-72139239D01*
X151906568Y-72396518D01*
X152103482Y-72593432D01*
X152360761Y-72700000D01*
X152639239Y-72700000D01*
X152896518Y-72593432D01*
X153093432Y-72396518D01*
X153200000Y-72139239D01*
X153200000Y-71860761D01*
X153093432Y-71603482D01*
X152896518Y-71406568D01*
X152875000Y-71397655D01*
X152875000Y-66352345D01*
X152896518Y-66343432D01*
X153093432Y-66146518D01*
X153200000Y-65889239D01*
X153200000Y-65610761D01*
X153093432Y-65353482D01*
X152896518Y-65156568D01*
X152875000Y-65147655D01*
X152875000Y-63364950D01*
X153043432Y-63196518D01*
X153150000Y-62939239D01*
X153150000Y-62660761D01*
X153129290Y-62610761D01*
X154299980Y-62610761D01*
X154299980Y-62889239D01*
X154406548Y-63146518D01*
X154603462Y-63343432D01*
X154624980Y-63352345D01*
X154624981Y-65147655D01*
X154603462Y-65156568D01*
X154406548Y-65353482D01*
X154299980Y-65610761D01*
X154299980Y-65889239D01*
X154406548Y-66146518D01*
X154603462Y-66343432D01*
X154624980Y-66352345D01*
X154624981Y-68147663D01*
X154603482Y-68156568D01*
X154406568Y-68353482D01*
X154300000Y-68610761D01*
X154300000Y-68889239D01*
X154406568Y-69146518D01*
X154603482Y-69343432D01*
X154860761Y-69450000D01*
X155139239Y-69450000D01*
X155396518Y-69343432D01*
X155593432Y-69146518D01*
X155700000Y-68889239D01*
X155700000Y-68610761D01*
X155593432Y-68353482D01*
X155396518Y-68156568D01*
X155374980Y-68147647D01*
X155374980Y-66352345D01*
X155396498Y-66343432D01*
X155593412Y-66146518D01*
X155699980Y-65889239D01*
X155699980Y-65610761D01*
X155593412Y-65353482D01*
X155396498Y-65156568D01*
X155374980Y-65147655D01*
X155374980Y-63352345D01*
X155396498Y-63343432D01*
X155593412Y-63146518D01*
X155699980Y-62889239D01*
X155699980Y-62610761D01*
X155593412Y-62353482D01*
X155396498Y-62156568D01*
X155374980Y-62147655D01*
X155374980Y-61860761D01*
X155550000Y-61860761D01*
X155550000Y-62139239D01*
X155656568Y-62396518D01*
X155853482Y-62593432D01*
X155875000Y-62602345D01*
X155875001Y-64397655D01*
X155853482Y-64406568D01*
X155656568Y-64603482D01*
X155550000Y-64860761D01*
X155550000Y-65139239D01*
X155656568Y-65396518D01*
X155853482Y-65593432D01*
X155875000Y-65602345D01*
X155875001Y-67397655D01*
X155853482Y-67406568D01*
X155656568Y-67603482D01*
X155550000Y-67860761D01*
X155550000Y-68139239D01*
X155656568Y-68396518D01*
X155853482Y-68593432D01*
X155875000Y-68602345D01*
X155875001Y-70397655D01*
X155853482Y-70406568D01*
X155656568Y-70603482D01*
X155550000Y-70860761D01*
X155550000Y-71139239D01*
X155656568Y-71396518D01*
X155853482Y-71593432D01*
X156110761Y-71700000D01*
X156389239Y-71700000D01*
X156646518Y-71593432D01*
X156843432Y-71396518D01*
X156950000Y-71139239D01*
X156950000Y-70860761D01*
X156843432Y-70603482D01*
X156646518Y-70406568D01*
X156625000Y-70397655D01*
X156625000Y-70110761D01*
X156800000Y-70110761D01*
X156800000Y-70389239D01*
X156906568Y-70646518D01*
X157103482Y-70843432D01*
X157125001Y-70852345D01*
X157125000Y-73647655D01*
X157103482Y-73656568D01*
X156906568Y-73853482D01*
X156800000Y-74110761D01*
X156800000Y-74389239D01*
X156906568Y-74646518D01*
X157103482Y-74843432D01*
X157360761Y-74950000D01*
X157639239Y-74950000D01*
X157896518Y-74843432D01*
X158093432Y-74646518D01*
X158200000Y-74389239D01*
X158200000Y-74110761D01*
X158093432Y-73853482D01*
X157896518Y-73656568D01*
X157875000Y-73647655D01*
X157875000Y-70852345D01*
X157896518Y-70843432D01*
X158093432Y-70646518D01*
X158200000Y-70389239D01*
X158200000Y-70110761D01*
X158093432Y-69853482D01*
X157896518Y-69656568D01*
X157639239Y-69550000D01*
X157360761Y-69550000D01*
X157103482Y-69656568D01*
X156906568Y-69853482D01*
X156800000Y-70110761D01*
X156625000Y-70110761D01*
X156625000Y-68602345D01*
X156646518Y-68593432D01*
X156843432Y-68396518D01*
X156950000Y-68139239D01*
X156950000Y-67860761D01*
X156843432Y-67603482D01*
X156646518Y-67406568D01*
X156625000Y-67397655D01*
X156625000Y-67110761D01*
X158050000Y-67110761D01*
X158050000Y-67389239D01*
X158156568Y-67646518D01*
X158353482Y-67843432D01*
X158375001Y-67852345D01*
X158375000Y-74897655D01*
X158353482Y-74906568D01*
X158156568Y-75103482D01*
X158050000Y-75360761D01*
X158050000Y-75639239D01*
X158156568Y-75896518D01*
X158353482Y-76093432D01*
X158610761Y-76200000D01*
X158889239Y-76200000D01*
X159146518Y-76093432D01*
X159343432Y-75896518D01*
X159450000Y-75639239D01*
X159450000Y-75360761D01*
X159343432Y-75103482D01*
X159146518Y-74906568D01*
X159125000Y-74897655D01*
X159125000Y-67852345D01*
X159146518Y-67843432D01*
X159343432Y-67646518D01*
X159450000Y-67389239D01*
X159450000Y-67110761D01*
X159343432Y-66853482D01*
X159146518Y-66656568D01*
X158889239Y-66550000D01*
X158610761Y-66550000D01*
X158353482Y-66656568D01*
X158156568Y-66853482D01*
X158050000Y-67110761D01*
X156625000Y-67110761D01*
X156625000Y-65602345D01*
X156646518Y-65593432D01*
X156843432Y-65396518D01*
X156950000Y-65139239D01*
X156950000Y-64860761D01*
X156843432Y-64603482D01*
X156646518Y-64406568D01*
X156625000Y-64397655D01*
X156625000Y-64110761D01*
X159550000Y-64110761D01*
X159550000Y-64389239D01*
X159656568Y-64646518D01*
X159853482Y-64843432D01*
X159875001Y-64852345D01*
X159875000Y-75897655D01*
X159853482Y-75906568D01*
X159656568Y-76103482D01*
X159550000Y-76360761D01*
X159550000Y-76639239D01*
X159656568Y-76896518D01*
X159853482Y-77093432D01*
X160110761Y-77200000D01*
X160389239Y-77200000D01*
X160646518Y-77093432D01*
X160843432Y-76896518D01*
X160950000Y-76639239D01*
X160950000Y-76360761D01*
X160843432Y-76103482D01*
X160646518Y-75906568D01*
X160625000Y-75897655D01*
X160625000Y-64852345D01*
X160646518Y-64843432D01*
X160843432Y-64646518D01*
X160950000Y-64389239D01*
X160950000Y-64110761D01*
X160843432Y-63853482D01*
X160646518Y-63656568D01*
X160389239Y-63550000D01*
X160110761Y-63550000D01*
X159853482Y-63656568D01*
X159656568Y-63853482D01*
X159550000Y-64110761D01*
X156625000Y-64110761D01*
X156625000Y-62602345D01*
X156646518Y-62593432D01*
X156843432Y-62396518D01*
X156950000Y-62139239D01*
X156950000Y-61860761D01*
X156843432Y-61603482D01*
X156646518Y-61406568D01*
X156389239Y-61300000D01*
X156110761Y-61300000D01*
X155853482Y-61406568D01*
X155656568Y-61603482D01*
X155550000Y-61860761D01*
X155374980Y-61860761D01*
X155374980Y-61110761D01*
X161050000Y-61110761D01*
X161050000Y-61389239D01*
X161156568Y-61646518D01*
X161353482Y-61843432D01*
X161375001Y-61852345D01*
X161375000Y-76897655D01*
X161353482Y-76906568D01*
X161156568Y-77103482D01*
X161050000Y-77360761D01*
X161050000Y-77639239D01*
X161156568Y-77896518D01*
X161353482Y-78093432D01*
X161610761Y-78200000D01*
X161889239Y-78200000D01*
X162146518Y-78093432D01*
X162343432Y-77896518D01*
X162450000Y-77639239D01*
X162450000Y-77360761D01*
X162343432Y-77103482D01*
X162146518Y-76906568D01*
X162125000Y-76897655D01*
X162125000Y-61852345D01*
X162146518Y-61843432D01*
X162343432Y-61646518D01*
X162450000Y-61389239D01*
X162450000Y-61110761D01*
X162343432Y-60853482D01*
X162146518Y-60656568D01*
X161889239Y-60550000D01*
X161610761Y-60550000D01*
X161353482Y-60656568D01*
X161156568Y-60853482D01*
X161050000Y-61110761D01*
X155374980Y-61110761D01*
X155374980Y-60352353D01*
X155396518Y-60343432D01*
X155593432Y-60146518D01*
X155700000Y-59889239D01*
X155700000Y-59610761D01*
X155593432Y-59353482D01*
X155396518Y-59156568D01*
X155139239Y-59050000D01*
X154860761Y-59050000D01*
X154603482Y-59156568D01*
X154406568Y-59353482D01*
X154300000Y-59610761D01*
X154300000Y-59889239D01*
X154406568Y-60146518D01*
X154603482Y-60343432D01*
X154624981Y-60352337D01*
X154624980Y-62147655D01*
X154603462Y-62156568D01*
X154406548Y-62353482D01*
X154299980Y-62610761D01*
X153129290Y-62610761D01*
X153043432Y-62403482D01*
X152875000Y-62235050D01*
X152875000Y-60352345D01*
X152896518Y-60343432D01*
X153093432Y-60146518D01*
X153200000Y-59889239D01*
X153200000Y-59610761D01*
X153093432Y-59353482D01*
X152896518Y-59156568D01*
X152875000Y-59147655D01*
X152875000Y-58110761D01*
X162550000Y-58110761D01*
X162550000Y-58389239D01*
X162656568Y-58646518D01*
X162853482Y-58843432D01*
X162875001Y-58852345D01*
X162875000Y-78147655D01*
X162853482Y-78156568D01*
X162656568Y-78353482D01*
X162550000Y-78610761D01*
X162550000Y-78889239D01*
X162656568Y-79146518D01*
X162853482Y-79343432D01*
X163110761Y-79450000D01*
X163389239Y-79450000D01*
X163646518Y-79343432D01*
X163843432Y-79146518D01*
X163950000Y-78889239D01*
X163950000Y-78610761D01*
X163843432Y-78353482D01*
X163646518Y-78156568D01*
X163625000Y-78147655D01*
X163625000Y-58852345D01*
X163646518Y-58843432D01*
X163843432Y-58646518D01*
X163950000Y-58389239D01*
X163950000Y-58110761D01*
X163843432Y-57853482D01*
X163646518Y-57656568D01*
X163389239Y-57550000D01*
X163110761Y-57550000D01*
X162853482Y-57656568D01*
X162656568Y-57853482D01*
X162550000Y-58110761D01*
X152875000Y-58110761D01*
X152875000Y-56352345D01*
X152896518Y-56343432D01*
X153093432Y-56146518D01*
X153200000Y-55889239D01*
X153200000Y-55610761D01*
X153093432Y-55353482D01*
X153089950Y-55350000D01*
X164650000Y-55350000D01*
X164650001Y-99650000D01*
X100350000Y-99650000D01*
X100350000Y-93796378D01*
X100644870Y-94015080D01*
X101069872Y-94121549D01*
X101246000Y-93964365D01*
X101246000Y-93154000D01*
X101554000Y-93154000D01*
X101554000Y-93964365D01*
X101730128Y-94121549D01*
X102155130Y-94015080D01*
X102507037Y-93754074D01*
X102732274Y-93378267D01*
X102734646Y-93323751D01*
X102618515Y-93154000D01*
X101554000Y-93154000D01*
X101246000Y-93154000D01*
X101226000Y-93154000D01*
X101226000Y-92846000D01*
X101246000Y-92846000D01*
X101246000Y-92035635D01*
X101554000Y-92035635D01*
X101554000Y-92846000D01*
X102618515Y-92846000D01*
X102734646Y-92676249D01*
X102732274Y-92621733D01*
X102553426Y-92323325D01*
X103031240Y-92323325D01*
X103178923Y-92719128D01*
X103466832Y-93028287D01*
X103780199Y-93184706D01*
X103946000Y-93068175D01*
X103946000Y-92154000D01*
X104254000Y-92154000D01*
X104254000Y-93068175D01*
X104419801Y-93184706D01*
X104733168Y-93028287D01*
X105021077Y-92719128D01*
X105168760Y-92323325D01*
X105030716Y-92154000D01*
X104254000Y-92154000D01*
X103946000Y-92154000D01*
X103169284Y-92154000D01*
X103031240Y-92323325D01*
X102553426Y-92323325D01*
X102507037Y-92245926D01*
X102155130Y-91984920D01*
X101730128Y-91878451D01*
X101554000Y-92035635D01*
X101246000Y-92035635D01*
X101069872Y-91878451D01*
X100644870Y-91984920D01*
X100350000Y-92203622D01*
X100350000Y-91676675D01*
X103031240Y-91676675D01*
X103169284Y-91846000D01*
X103946000Y-91846000D01*
X103946000Y-90931825D01*
X104254000Y-90931825D01*
X104254000Y-91846000D01*
X105030716Y-91846000D01*
X105168760Y-91676675D01*
X105021077Y-91280872D01*
X104733168Y-90971713D01*
X104419801Y-90815294D01*
X104254000Y-90931825D01*
X103946000Y-90931825D01*
X103780199Y-90815294D01*
X103466832Y-90971713D01*
X103178923Y-91280872D01*
X103031240Y-91676675D01*
X100350000Y-91676675D01*
X100350000Y-87323325D01*
X103031240Y-87323325D01*
X103178923Y-87719128D01*
X103466832Y-88028287D01*
X103780199Y-88184706D01*
X103946000Y-88068175D01*
X103946000Y-87154000D01*
X104254000Y-87154000D01*
X104254000Y-88068175D01*
X104419801Y-88184706D01*
X104733168Y-88028287D01*
X105021077Y-87719128D01*
X105168760Y-87323325D01*
X105030716Y-87154000D01*
X104254000Y-87154000D01*
X103946000Y-87154000D01*
X103169284Y-87154000D01*
X103031240Y-87323325D01*
X100350000Y-87323325D01*
X100350000Y-86796378D01*
X100644870Y-87015080D01*
X101069872Y-87121549D01*
X101246000Y-86964365D01*
X101246000Y-86154000D01*
X101554000Y-86154000D01*
X101554000Y-86964365D01*
X101730128Y-87121549D01*
X102155130Y-87015080D01*
X102507037Y-86754074D01*
X102553425Y-86676675D01*
X103031240Y-86676675D01*
X103169284Y-86846000D01*
X103946000Y-86846000D01*
X103946000Y-85931825D01*
X104254000Y-85931825D01*
X104254000Y-86846000D01*
X105030716Y-86846000D01*
X105168760Y-86676675D01*
X105021077Y-86280872D01*
X104733168Y-85971713D01*
X104419801Y-85815294D01*
X104254000Y-85931825D01*
X103946000Y-85931825D01*
X103780199Y-85815294D01*
X103466832Y-85971713D01*
X103178923Y-86280872D01*
X103031240Y-86676675D01*
X102553425Y-86676675D01*
X102732274Y-86378267D01*
X102734646Y-86323751D01*
X102618515Y-86154000D01*
X101554000Y-86154000D01*
X101246000Y-86154000D01*
X101226000Y-86154000D01*
X101226000Y-85846000D01*
X101246000Y-85846000D01*
X101246000Y-85035635D01*
X101554000Y-85035635D01*
X101554000Y-85846000D01*
X102618515Y-85846000D01*
X102734646Y-85676249D01*
X102732274Y-85621733D01*
X102507037Y-85245926D01*
X102155130Y-84984920D01*
X101730128Y-84878451D01*
X101554000Y-85035635D01*
X101246000Y-85035635D01*
X101069872Y-84878451D01*
X100644870Y-84984920D01*
X100350000Y-85203622D01*
X100350000Y-70110761D01*
X102300000Y-70110761D01*
X102300000Y-70389239D01*
X102406568Y-70646518D01*
X102603482Y-70843432D01*
X102625001Y-70852345D01*
X102625000Y-78147655D01*
X102603482Y-78156568D01*
X102406568Y-78353482D01*
X102300000Y-78610761D01*
X102300000Y-78889239D01*
X102406568Y-79146518D01*
X102603482Y-79343432D01*
X102860761Y-79450000D01*
X103139239Y-79450000D01*
X103396518Y-79343432D01*
X103593432Y-79146518D01*
X103700000Y-78889239D01*
X103700000Y-78610761D01*
X103593432Y-78353482D01*
X103396518Y-78156568D01*
X103375000Y-78147655D01*
X103375000Y-70852345D01*
X103396518Y-70843432D01*
X103593432Y-70646518D01*
X103700000Y-70389239D01*
X103700000Y-70110761D01*
X103593432Y-69853482D01*
X103396518Y-69656568D01*
X103139239Y-69550000D01*
X102860761Y-69550000D01*
X102603482Y-69656568D01*
X102406568Y-69853482D01*
X102300000Y-70110761D01*
X100350000Y-70110761D01*
X100350000Y-67110761D01*
X103550000Y-67110761D01*
X103550000Y-67389239D01*
X103656568Y-67646518D01*
X103853482Y-67843432D01*
X103875001Y-67852345D01*
X103875000Y-76897655D01*
X103853482Y-76906568D01*
X103656568Y-77103482D01*
X103550000Y-77360761D01*
X103550000Y-77639239D01*
X103656568Y-77896518D01*
X103853482Y-78093432D01*
X104110761Y-78200000D01*
X104389239Y-78200000D01*
X104646518Y-78093432D01*
X104843432Y-77896518D01*
X104950000Y-77639239D01*
X104950000Y-77360761D01*
X104843432Y-77103482D01*
X104646518Y-76906568D01*
X104625000Y-76897655D01*
X104625000Y-67852345D01*
X104646518Y-67843432D01*
X104843432Y-67646518D01*
X104950000Y-67389239D01*
X104950000Y-67110761D01*
X104843432Y-66853482D01*
X104646518Y-66656568D01*
X104389239Y-66550000D01*
X104110761Y-66550000D01*
X103853482Y-66656568D01*
X103656568Y-66853482D01*
X103550000Y-67110761D01*
X100350000Y-67110761D01*
X100350000Y-64110761D01*
X104800000Y-64110761D01*
X104800000Y-64389239D01*
X104906568Y-64646518D01*
X105103482Y-64843432D01*
X105125001Y-64852345D01*
X105125000Y-75897655D01*
X105103482Y-75906568D01*
X104906568Y-76103482D01*
X104800000Y-76360761D01*
X104800000Y-76639239D01*
X104906568Y-76896518D01*
X105103482Y-77093432D01*
X105360761Y-77200000D01*
X105639239Y-77200000D01*
X105896518Y-77093432D01*
X106093432Y-76896518D01*
X106200000Y-76639239D01*
X106200000Y-76360761D01*
X106093432Y-76103482D01*
X105896518Y-75906568D01*
X105875000Y-75897655D01*
X105875000Y-64852345D01*
X105896518Y-64843432D01*
X106093432Y-64646518D01*
X106200000Y-64389239D01*
X106200000Y-64110761D01*
X106093432Y-63853482D01*
X105896518Y-63656568D01*
X105639239Y-63550000D01*
X105360761Y-63550000D01*
X105103482Y-63656568D01*
X104906568Y-63853482D01*
X104800000Y-64110761D01*
X100350000Y-64110761D01*
X100350000Y-61110761D01*
X106050000Y-61110761D01*
X106050000Y-61389239D01*
X106156568Y-61646518D01*
X106353482Y-61843432D01*
X106375001Y-61852345D01*
X106375000Y-74897655D01*
X106353482Y-74906568D01*
X106156568Y-75103482D01*
X106050000Y-75360761D01*
X106050000Y-75639239D01*
X106156568Y-75896518D01*
X106353482Y-76093432D01*
X106610761Y-76200000D01*
X106889239Y-76200000D01*
X107146518Y-76093432D01*
X107343432Y-75896518D01*
X107450000Y-75639239D01*
X107450000Y-75360761D01*
X107343432Y-75103482D01*
X107146518Y-74906568D01*
X107125000Y-74897655D01*
X107125000Y-61852345D01*
X107146518Y-61843432D01*
X107343432Y-61646518D01*
X107450000Y-61389239D01*
X107450000Y-61110761D01*
X107343432Y-60853482D01*
X107146518Y-60656568D01*
X106889239Y-60550000D01*
X106610761Y-60550000D01*
X106353482Y-60656568D01*
X106156568Y-60853482D01*
X106050000Y-61110761D01*
X100350000Y-61110761D01*
X100350000Y-58110761D01*
X107300000Y-58110761D01*
X107300000Y-58389239D01*
X107406568Y-58646518D01*
X107603482Y-58843432D01*
X107625000Y-58852345D01*
X107625001Y-73897655D01*
X107603482Y-73906568D01*
X107406568Y-74103482D01*
X107300000Y-74360761D01*
X107300000Y-74639239D01*
X107406568Y-74896518D01*
X107603482Y-75093432D01*
X107860761Y-75200000D01*
X108139239Y-75200000D01*
X108396518Y-75093432D01*
X108593432Y-74896518D01*
X108700000Y-74639239D01*
X108700000Y-74360761D01*
X108593432Y-74103482D01*
X108396518Y-73906568D01*
X108375000Y-73897655D01*
X108375000Y-62610761D01*
X109050000Y-62610761D01*
X109050000Y-62889239D01*
X109156568Y-63146518D01*
X109353482Y-63343432D01*
X109375000Y-63352345D01*
X109375001Y-65147655D01*
X109353482Y-65156568D01*
X109156568Y-65353482D01*
X109050000Y-65610761D01*
X109050000Y-65889239D01*
X109156568Y-66146518D01*
X109353482Y-66343432D01*
X109375000Y-66352345D01*
X109375001Y-68147655D01*
X109353482Y-68156568D01*
X109156568Y-68353482D01*
X109050000Y-68610761D01*
X109050000Y-68889239D01*
X109156568Y-69146518D01*
X109353482Y-69343432D01*
X109375000Y-69352345D01*
X109375001Y-71147655D01*
X109353482Y-71156568D01*
X109156568Y-71353482D01*
X109050000Y-71610761D01*
X109050000Y-71889239D01*
X109156568Y-72146518D01*
X109353482Y-72343432D01*
X109375000Y-72352345D01*
X109375001Y-72897655D01*
X109353482Y-72906568D01*
X109156568Y-73103482D01*
X109050000Y-73360761D01*
X109050000Y-73639239D01*
X109156568Y-73896518D01*
X109260050Y-74000000D01*
X109156568Y-74103482D01*
X109050000Y-74360761D01*
X109050000Y-74639239D01*
X109156568Y-74896518D01*
X109353482Y-75093432D01*
X109375000Y-75102345D01*
X109375001Y-79897655D01*
X109353482Y-79906568D01*
X109156568Y-80103482D01*
X109050000Y-80360761D01*
X109050000Y-80639239D01*
X109156568Y-80896518D01*
X109353482Y-81093432D01*
X109610761Y-81200000D01*
X109889239Y-81200000D01*
X110146518Y-81093432D01*
X110343432Y-80896518D01*
X110450000Y-80639239D01*
X110450000Y-80360761D01*
X110343432Y-80103482D01*
X110146518Y-79906568D01*
X110125000Y-79897655D01*
X110125000Y-75360761D01*
X111550000Y-75360761D01*
X111550000Y-75639239D01*
X111656568Y-75896518D01*
X111853482Y-76093432D01*
X111875000Y-76102345D01*
X111875001Y-81647655D01*
X111853482Y-81656568D01*
X111656568Y-81853482D01*
X111550000Y-82110761D01*
X111550000Y-82389239D01*
X111656568Y-82646518D01*
X111853482Y-82843432D01*
X112110761Y-82950000D01*
X112389239Y-82950000D01*
X112646518Y-82843432D01*
X112843432Y-82646518D01*
X112950000Y-82389239D01*
X112950000Y-82110761D01*
X112843432Y-81853482D01*
X112646518Y-81656568D01*
X112625000Y-81647655D01*
X112625000Y-76360761D01*
X113050000Y-76360761D01*
X113050000Y-76639239D01*
X113156568Y-76896518D01*
X113353482Y-77093432D01*
X113375000Y-77102345D01*
X113375001Y-82897655D01*
X113353482Y-82906568D01*
X113156568Y-83103482D01*
X113050000Y-83360761D01*
X113050000Y-83639239D01*
X113156568Y-83896518D01*
X113353482Y-84093432D01*
X113610761Y-84200000D01*
X113889239Y-84200000D01*
X114146518Y-84093432D01*
X114343432Y-83896518D01*
X114450000Y-83639239D01*
X114450000Y-83360761D01*
X114343432Y-83103482D01*
X114146518Y-82906568D01*
X114125000Y-82897655D01*
X114125000Y-77360761D01*
X114550000Y-77360761D01*
X114550000Y-77639239D01*
X114656568Y-77896518D01*
X114853482Y-78093432D01*
X114875000Y-78102345D01*
X114875001Y-83647655D01*
X114853482Y-83656568D01*
X114656568Y-83853482D01*
X114550000Y-84110761D01*
X114550000Y-84389239D01*
X114656568Y-84646518D01*
X114853482Y-84843432D01*
X115110761Y-84950000D01*
X115389239Y-84950000D01*
X115646518Y-84843432D01*
X115843432Y-84646518D01*
X115950000Y-84389239D01*
X115950000Y-84110761D01*
X115843432Y-83853482D01*
X115646518Y-83656568D01*
X115625000Y-83647655D01*
X115625000Y-78610761D01*
X116300000Y-78610761D01*
X116300000Y-78889239D01*
X116406568Y-79146518D01*
X116603482Y-79343432D01*
X116625000Y-79352345D01*
X116625001Y-84647655D01*
X116603482Y-84656568D01*
X116406568Y-84853482D01*
X116300000Y-85110761D01*
X116300000Y-85389239D01*
X116406568Y-85646518D01*
X116603482Y-85843432D01*
X116860761Y-85950000D01*
X117139239Y-85950000D01*
X117375000Y-85852345D01*
X117375001Y-90463069D01*
X117367655Y-90500000D01*
X117396759Y-90646318D01*
X117458721Y-90739050D01*
X117458723Y-90739052D01*
X117479642Y-90770359D01*
X117510948Y-90791277D01*
X118058913Y-91339243D01*
X118050000Y-91360761D01*
X118050000Y-91639239D01*
X118156568Y-91896518D01*
X118353482Y-92093432D01*
X118610761Y-92200000D01*
X118889239Y-92200000D01*
X119146518Y-92093432D01*
X119343432Y-91896518D01*
X119450000Y-91639239D01*
X119450000Y-91360761D01*
X119343432Y-91103482D01*
X119146518Y-90906568D01*
X118889239Y-90800000D01*
X118610761Y-90800000D01*
X118589243Y-90808913D01*
X118125000Y-90344671D01*
X118125000Y-83352345D01*
X118146518Y-83343432D01*
X118314853Y-83175097D01*
X118406568Y-83396518D01*
X118603482Y-83593432D01*
X118625000Y-83602345D01*
X118625001Y-89713069D01*
X118617655Y-89750000D01*
X118646759Y-89896318D01*
X118708721Y-89989050D01*
X118708723Y-89989052D01*
X118729642Y-90020359D01*
X118760949Y-90041278D01*
X120058913Y-91339243D01*
X120050000Y-91360761D01*
X120050000Y-91639239D01*
X120156568Y-91896518D01*
X120353482Y-92093432D01*
X120610761Y-92200000D01*
X120889239Y-92200000D01*
X121146518Y-92093432D01*
X121343432Y-91896518D01*
X121450000Y-91639239D01*
X121450000Y-91360761D01*
X121343432Y-91103482D01*
X121146518Y-90906568D01*
X120889239Y-90800000D01*
X120610761Y-90800000D01*
X120589243Y-90808913D01*
X119375000Y-89594671D01*
X119375000Y-83602345D01*
X119396518Y-83593432D01*
X119593432Y-83396518D01*
X119700000Y-83139239D01*
X119700000Y-82860761D01*
X119593432Y-82603482D01*
X119396518Y-82406568D01*
X119285930Y-82360761D01*
X125049978Y-82360761D01*
X125049978Y-82639239D01*
X125156546Y-82896518D01*
X125353460Y-83093432D01*
X125610739Y-83200000D01*
X125889217Y-83200000D01*
X125983885Y-83160787D01*
X125760950Y-83383723D01*
X125729641Y-83404643D01*
X125646758Y-83528686D01*
X125625000Y-83638072D01*
X125625000Y-83638076D01*
X125617655Y-83675002D01*
X125625000Y-83711929D01*
X125625001Y-86147380D01*
X125625000Y-86147385D01*
X125625000Y-86147655D01*
X125603482Y-86156568D01*
X125406568Y-86353482D01*
X125300000Y-86610761D01*
X125300000Y-86889239D01*
X125406568Y-87146518D01*
X125603482Y-87343432D01*
X125860761Y-87450000D01*
X126139239Y-87450000D01*
X126396518Y-87343432D01*
X126593432Y-87146518D01*
X126700000Y-86889239D01*
X126700000Y-86610761D01*
X126593432Y-86353482D01*
X126396518Y-86156568D01*
X126375000Y-86147655D01*
X126375000Y-83830331D01*
X126864053Y-83341279D01*
X126875001Y-83333964D01*
X126875001Y-85397655D01*
X126853482Y-85406568D01*
X126656568Y-85603482D01*
X126550000Y-85860761D01*
X126550000Y-86139239D01*
X126656568Y-86396518D01*
X126853482Y-86593432D01*
X127110761Y-86700000D01*
X127389239Y-86700000D01*
X127646518Y-86593432D01*
X127843432Y-86396518D01*
X127950000Y-86139239D01*
X127950000Y-85860761D01*
X127843432Y-85603482D01*
X127646518Y-85406568D01*
X127625000Y-85397655D01*
X127625000Y-85352345D01*
X127860761Y-85450000D01*
X128139239Y-85450000D01*
X128396518Y-85343432D01*
X128593432Y-85146518D01*
X128700000Y-84889239D01*
X128700000Y-84610761D01*
X128593432Y-84353482D01*
X128396518Y-84156568D01*
X128325000Y-84126944D01*
X128325000Y-77102345D01*
X128346518Y-77093432D01*
X128543432Y-76896518D01*
X128650000Y-76639239D01*
X128650000Y-76360761D01*
X128543432Y-76103482D01*
X128346518Y-75906568D01*
X128089239Y-75800000D01*
X127810761Y-75800000D01*
X127553482Y-75906568D01*
X127356568Y-76103482D01*
X127250000Y-76360761D01*
X127250000Y-76639239D01*
X127316589Y-76800000D01*
X127110761Y-76800000D01*
X126853482Y-76906568D01*
X126656568Y-77103482D01*
X126550000Y-77360761D01*
X126550000Y-77639239D01*
X126656568Y-77896518D01*
X126853482Y-78093432D01*
X126875000Y-78102345D01*
X126875000Y-79091038D01*
X126864054Y-79083724D01*
X126691087Y-78910757D01*
X126700000Y-78889239D01*
X126700000Y-78610761D01*
X126593432Y-78353482D01*
X126396518Y-78156568D01*
X126139239Y-78050000D01*
X125860761Y-78050000D01*
X125603482Y-78156568D01*
X125406568Y-78353482D01*
X125300000Y-78610761D01*
X125300000Y-78889239D01*
X125406568Y-79146518D01*
X125603482Y-79343432D01*
X125860761Y-79450000D01*
X126139239Y-79450000D01*
X126160757Y-79441087D01*
X126250001Y-79530331D01*
X126250001Y-80460038D01*
X126146518Y-80356555D01*
X125889239Y-80249987D01*
X125610761Y-80249987D01*
X125353482Y-80356555D01*
X125156568Y-80553469D01*
X125050000Y-80810748D01*
X125050000Y-81089226D01*
X125156568Y-81346505D01*
X125353482Y-81543419D01*
X125374979Y-81552323D01*
X125374978Y-81897655D01*
X125353460Y-81906568D01*
X125156546Y-82103482D01*
X125049978Y-82360761D01*
X119285930Y-82360761D01*
X119139239Y-82300000D01*
X118860761Y-82300000D01*
X118603482Y-82406568D01*
X118435147Y-82574903D01*
X118343432Y-82353482D01*
X118146518Y-82156568D01*
X117889239Y-82050000D01*
X117610761Y-82050000D01*
X117375000Y-82147655D01*
X117375000Y-79360761D01*
X118800000Y-79360761D01*
X118800000Y-79639239D01*
X118906568Y-79896518D01*
X119103482Y-80093432D01*
X119360761Y-80200000D01*
X119639239Y-80200000D01*
X119896518Y-80093432D01*
X120093432Y-79896518D01*
X120102345Y-79875000D01*
X123485051Y-79875000D01*
X123603482Y-79993431D01*
X123860761Y-80099999D01*
X124139239Y-80099999D01*
X124396518Y-79993431D01*
X124593432Y-79796517D01*
X124700000Y-79539238D01*
X124700000Y-79260760D01*
X124593432Y-79003481D01*
X124396518Y-78806567D01*
X124139239Y-78699999D01*
X123860761Y-78699999D01*
X123603482Y-78806567D01*
X123406568Y-79003481D01*
X123356233Y-79125000D01*
X120102345Y-79125000D01*
X120093432Y-79103482D01*
X119896518Y-78906568D01*
X119639239Y-78800000D01*
X119360761Y-78800000D01*
X119103482Y-78906568D01*
X118906568Y-79103482D01*
X118800000Y-79360761D01*
X117375000Y-79360761D01*
X117375000Y-79352345D01*
X117396518Y-79343432D01*
X117593432Y-79146518D01*
X117700000Y-78889239D01*
X117700000Y-78610761D01*
X117593432Y-78353482D01*
X117396518Y-78156568D01*
X117139239Y-78050000D01*
X116860761Y-78050000D01*
X116603482Y-78156568D01*
X116406568Y-78353482D01*
X116300000Y-78610761D01*
X115625000Y-78610761D01*
X115625000Y-78102345D01*
X115646518Y-78093432D01*
X115843432Y-77896518D01*
X115950000Y-77639239D01*
X115950000Y-77360761D01*
X115843432Y-77103482D01*
X115646518Y-76906568D01*
X115389239Y-76800000D01*
X115110761Y-76800000D01*
X114853482Y-76906568D01*
X114656568Y-77103482D01*
X114550000Y-77360761D01*
X114125000Y-77360761D01*
X114125000Y-77102345D01*
X114146518Y-77093432D01*
X114343432Y-76896518D01*
X114450000Y-76639239D01*
X114450000Y-76360761D01*
X114343432Y-76103482D01*
X114146518Y-75906568D01*
X113889239Y-75800000D01*
X113610761Y-75800000D01*
X113353482Y-75906568D01*
X113156568Y-76103482D01*
X113050000Y-76360761D01*
X112625000Y-76360761D01*
X112625000Y-76102345D01*
X112646518Y-76093432D01*
X112843432Y-75896518D01*
X112950000Y-75639239D01*
X112950000Y-75360761D01*
X112843432Y-75103482D01*
X112646518Y-74906568D01*
X112389239Y-74800000D01*
X112110761Y-74800000D01*
X111853482Y-74906568D01*
X111656568Y-75103482D01*
X111550000Y-75360761D01*
X110125000Y-75360761D01*
X110125000Y-75102345D01*
X110146518Y-75093432D01*
X110343432Y-74896518D01*
X110450000Y-74639239D01*
X110450000Y-74360761D01*
X110343432Y-74103482D01*
X110239950Y-74000000D01*
X110343432Y-73896518D01*
X110450000Y-73639239D01*
X110450000Y-73360761D01*
X110343432Y-73103482D01*
X110146518Y-72906568D01*
X110125000Y-72897655D01*
X110125000Y-72352345D01*
X110146518Y-72343432D01*
X110343432Y-72146518D01*
X110450000Y-71889239D01*
X110450000Y-71610761D01*
X110343432Y-71353482D01*
X110146518Y-71156568D01*
X110125000Y-71147655D01*
X110125000Y-69352345D01*
X110146518Y-69343432D01*
X110343432Y-69146518D01*
X110450000Y-68889239D01*
X110450000Y-68610761D01*
X110343432Y-68353482D01*
X110146518Y-68156568D01*
X110125000Y-68147655D01*
X110125000Y-66352345D01*
X110146518Y-66343432D01*
X110343432Y-66146518D01*
X110450000Y-65889239D01*
X110450000Y-65610761D01*
X110343432Y-65353482D01*
X110146518Y-65156568D01*
X110125000Y-65147655D01*
X110125000Y-63352345D01*
X110146518Y-63343432D01*
X110343432Y-63146518D01*
X110450000Y-62889239D01*
X110450000Y-62610761D01*
X110343432Y-62353482D01*
X110146518Y-62156568D01*
X109889239Y-62050000D01*
X109610761Y-62050000D01*
X109353482Y-62156568D01*
X109156568Y-62353482D01*
X109050000Y-62610761D01*
X108375000Y-62610761D01*
X108375000Y-59610761D01*
X111800000Y-59610761D01*
X111800000Y-59889239D01*
X111906568Y-60146518D01*
X112103482Y-60343432D01*
X112125001Y-60352345D01*
X112125000Y-65147655D01*
X112103482Y-65156568D01*
X111906568Y-65353482D01*
X111800000Y-65610761D01*
X111800000Y-65889239D01*
X111906568Y-66146518D01*
X112103482Y-66343432D01*
X112125000Y-66352345D01*
X112125001Y-68147655D01*
X112103482Y-68156568D01*
X111906568Y-68353482D01*
X111800000Y-68610761D01*
X111800000Y-68889239D01*
X111906568Y-69146518D01*
X112103482Y-69343432D01*
X112125000Y-69352345D01*
X112125001Y-71147655D01*
X112103482Y-71156568D01*
X111906568Y-71353482D01*
X111800000Y-71610761D01*
X111800000Y-71889239D01*
X111906568Y-72146518D01*
X112103482Y-72343432D01*
X112125000Y-72352345D01*
X112125001Y-73147655D01*
X112103482Y-73156568D01*
X111906568Y-73353482D01*
X111800000Y-73610761D01*
X111800000Y-73889239D01*
X111906568Y-74146518D01*
X112103482Y-74343432D01*
X112360761Y-74450000D01*
X112639239Y-74450000D01*
X112896518Y-74343432D01*
X113093432Y-74146518D01*
X113200000Y-73889239D01*
X113200000Y-73610761D01*
X113093432Y-73353482D01*
X112896518Y-73156568D01*
X112875000Y-73147655D01*
X112875000Y-72352345D01*
X112896518Y-72343432D01*
X113093432Y-72146518D01*
X113200000Y-71889239D01*
X113200000Y-71610761D01*
X113093432Y-71353482D01*
X112896518Y-71156568D01*
X112875000Y-71147655D01*
X112875000Y-69352345D01*
X112896518Y-69343432D01*
X113093432Y-69146518D01*
X113200000Y-68889239D01*
X113200000Y-68610761D01*
X113093432Y-68353482D01*
X112896518Y-68156568D01*
X112875000Y-68147655D01*
X112875000Y-66352345D01*
X112896518Y-66343432D01*
X113093432Y-66146518D01*
X113200000Y-65889239D01*
X113200000Y-65610761D01*
X113093432Y-65353482D01*
X112896518Y-65156568D01*
X112875000Y-65147655D01*
X112875000Y-60352345D01*
X112896518Y-60343432D01*
X113093432Y-60146518D01*
X113200000Y-59889239D01*
X113200000Y-59610761D01*
X114300000Y-59610761D01*
X114300000Y-59889239D01*
X114406568Y-60146518D01*
X114603482Y-60343432D01*
X114625000Y-60352345D01*
X114625001Y-62147655D01*
X114603482Y-62156568D01*
X114406568Y-62353482D01*
X114300000Y-62610761D01*
X114300000Y-62889239D01*
X114406568Y-63146518D01*
X114603482Y-63343432D01*
X114625000Y-63352345D01*
X114625001Y-68147655D01*
X114603482Y-68156568D01*
X114406568Y-68353482D01*
X114300000Y-68610761D01*
X114300000Y-68889239D01*
X114406568Y-69146518D01*
X114603482Y-69343432D01*
X114625000Y-69352345D01*
X114625001Y-71147655D01*
X114603482Y-71156568D01*
X114406568Y-71353482D01*
X114300000Y-71610761D01*
X114300000Y-71889239D01*
X114406568Y-72146518D01*
X114603482Y-72343432D01*
X114625000Y-72352345D01*
X114625001Y-73147655D01*
X114603482Y-73156568D01*
X114406568Y-73353482D01*
X114300000Y-73610761D01*
X114300000Y-73889239D01*
X114406568Y-74146518D01*
X114603482Y-74343432D01*
X114860761Y-74450000D01*
X115139239Y-74450000D01*
X115396518Y-74343432D01*
X115593432Y-74146518D01*
X115700000Y-73889239D01*
X115700000Y-73610761D01*
X115593432Y-73353482D01*
X115396518Y-73156568D01*
X115375000Y-73147655D01*
X115375000Y-72352345D01*
X115396518Y-72343432D01*
X115593432Y-72146518D01*
X115700000Y-71889239D01*
X115700000Y-71610761D01*
X115593432Y-71353482D01*
X115396518Y-71156568D01*
X115375000Y-71147655D01*
X115375000Y-69352345D01*
X115396518Y-69343432D01*
X115593432Y-69146518D01*
X115700000Y-68889239D01*
X115700000Y-68610761D01*
X115593432Y-68353482D01*
X115396518Y-68156568D01*
X115375000Y-68147655D01*
X115375000Y-63352345D01*
X115396518Y-63343432D01*
X115593432Y-63146518D01*
X115700000Y-62889239D01*
X115700000Y-62610761D01*
X115593432Y-62353482D01*
X115396518Y-62156568D01*
X115375000Y-62147655D01*
X115375000Y-60352345D01*
X115396518Y-60343432D01*
X115593432Y-60146518D01*
X115700000Y-59889239D01*
X115700000Y-59610761D01*
X116800000Y-59610761D01*
X116800000Y-59889239D01*
X116906568Y-60146518D01*
X117103482Y-60343432D01*
X117125001Y-60352345D01*
X117125000Y-62147655D01*
X117103482Y-62156568D01*
X116906568Y-62353482D01*
X116800000Y-62610761D01*
X116800000Y-62889239D01*
X116906568Y-63146518D01*
X117103482Y-63343432D01*
X117125000Y-63352345D01*
X117125001Y-65147655D01*
X117103482Y-65156568D01*
X116906568Y-65353482D01*
X116800000Y-65610761D01*
X116800000Y-65889239D01*
X116906568Y-66146518D01*
X117103482Y-66343432D01*
X117125000Y-66352345D01*
X117125001Y-71147655D01*
X117103482Y-71156568D01*
X116906568Y-71353482D01*
X116800000Y-71610761D01*
X116800000Y-71889239D01*
X116906568Y-72146518D01*
X117103482Y-72343432D01*
X117125001Y-72352345D01*
X117125001Y-73147655D01*
X117103482Y-73156568D01*
X116906568Y-73353482D01*
X116800000Y-73610761D01*
X116800000Y-73889239D01*
X116906568Y-74146518D01*
X117103482Y-74343432D01*
X117360761Y-74450000D01*
X117639239Y-74450000D01*
X117896518Y-74343432D01*
X118093432Y-74146518D01*
X118200000Y-73889239D01*
X118200000Y-73610761D01*
X118093432Y-73353482D01*
X117896518Y-73156568D01*
X117875000Y-73147655D01*
X117875000Y-72352345D01*
X117896518Y-72343432D01*
X118093432Y-72146518D01*
X118200000Y-71889239D01*
X118200000Y-71610761D01*
X118093432Y-71353482D01*
X117896518Y-71156568D01*
X117875000Y-71147655D01*
X117875000Y-66352345D01*
X117896518Y-66343432D01*
X118093432Y-66146518D01*
X118200000Y-65889239D01*
X118200000Y-65610761D01*
X118093432Y-65353482D01*
X117896518Y-65156568D01*
X117875000Y-65147655D01*
X117875000Y-63352345D01*
X117896518Y-63343432D01*
X118093432Y-63146518D01*
X118200000Y-62889239D01*
X118200000Y-62610761D01*
X118093432Y-62353482D01*
X117896518Y-62156568D01*
X117875000Y-62147655D01*
X117875000Y-60352345D01*
X117896518Y-60343432D01*
X118093432Y-60146518D01*
X118200000Y-59889239D01*
X118200000Y-59610761D01*
X119299990Y-59610761D01*
X119299990Y-59889239D01*
X119406558Y-60146518D01*
X119603472Y-60343432D01*
X119625001Y-60352350D01*
X119625000Y-62147655D01*
X119603482Y-62156568D01*
X119406568Y-62353482D01*
X119300000Y-62610761D01*
X119300000Y-62889239D01*
X119406568Y-63146518D01*
X119603482Y-63343432D01*
X119625000Y-63352345D01*
X119625001Y-65147655D01*
X119603482Y-65156568D01*
X119406568Y-65353482D01*
X119300000Y-65610761D01*
X119300000Y-65889239D01*
X119406568Y-66146518D01*
X119603482Y-66343432D01*
X119625000Y-66352345D01*
X119625001Y-68147655D01*
X119603482Y-68156568D01*
X119406568Y-68353482D01*
X119300000Y-68610761D01*
X119300000Y-68889239D01*
X119406568Y-69146518D01*
X119603482Y-69343432D01*
X119625000Y-69352345D01*
X119625001Y-74897655D01*
X119603482Y-74906568D01*
X119406568Y-75103482D01*
X119300000Y-75360761D01*
X119300000Y-75639239D01*
X119406568Y-75896518D01*
X119603482Y-76093432D01*
X119860761Y-76200000D01*
X120139239Y-76200000D01*
X120396518Y-76093432D01*
X120593432Y-75896518D01*
X120700000Y-75639239D01*
X120700000Y-75360761D01*
X129550000Y-75360761D01*
X129550000Y-75639239D01*
X129656568Y-75896518D01*
X129853482Y-76093432D01*
X129875000Y-76102345D01*
X129875001Y-83397655D01*
X129853482Y-83406568D01*
X129656568Y-83603482D01*
X129550000Y-83860761D01*
X129550000Y-84139239D01*
X129656568Y-84396518D01*
X129853482Y-84593432D01*
X130110761Y-84700000D01*
X130389239Y-84700000D01*
X130646518Y-84593432D01*
X130843432Y-84396518D01*
X130950000Y-84139239D01*
X130950000Y-83860761D01*
X130843432Y-83603482D01*
X130646518Y-83406568D01*
X130625000Y-83397655D01*
X130625000Y-76102345D01*
X130646518Y-76093432D01*
X130843432Y-75896518D01*
X130950000Y-75639239D01*
X130950000Y-75360761D01*
X130843432Y-75103482D01*
X130646518Y-74906568D01*
X130389239Y-74800000D01*
X130110761Y-74800000D01*
X129853482Y-74906568D01*
X129656568Y-75103482D01*
X129550000Y-75360761D01*
X120700000Y-75360761D01*
X120593432Y-75103482D01*
X120396518Y-74906568D01*
X120375000Y-74897655D01*
X120375000Y-69352345D01*
X120396518Y-69343432D01*
X120593432Y-69146518D01*
X120700000Y-68889239D01*
X120700000Y-68610761D01*
X120593432Y-68353482D01*
X120396518Y-68156568D01*
X120375000Y-68147655D01*
X120375000Y-66352345D01*
X120396518Y-66343432D01*
X120593432Y-66146518D01*
X120700000Y-65889239D01*
X120700000Y-65610761D01*
X120593432Y-65353482D01*
X120396518Y-65156568D01*
X120375000Y-65147655D01*
X120375000Y-63352345D01*
X120396518Y-63343432D01*
X120593432Y-63146518D01*
X120700000Y-62889239D01*
X120700000Y-62610761D01*
X120593432Y-62353482D01*
X120396518Y-62156568D01*
X120375000Y-62147655D01*
X120375000Y-60352341D01*
X120396508Y-60343432D01*
X120593422Y-60146518D01*
X120699990Y-59889239D01*
X120699990Y-59610761D01*
X121800000Y-59610761D01*
X121800000Y-59889239D01*
X121906568Y-60146518D01*
X122103482Y-60343432D01*
X122125001Y-60352345D01*
X122125000Y-62147655D01*
X122103482Y-62156568D01*
X121906568Y-62353482D01*
X121800000Y-62610761D01*
X121800000Y-62889239D01*
X121906568Y-63146518D01*
X122103482Y-63343432D01*
X122125000Y-63352345D01*
X122125001Y-65147655D01*
X122103482Y-65156568D01*
X121906568Y-65353482D01*
X121800000Y-65610761D01*
X121800000Y-65889239D01*
X121906568Y-66146518D01*
X122103482Y-66343432D01*
X122125000Y-66352345D01*
X122125001Y-68147655D01*
X122103482Y-68156568D01*
X121906568Y-68353482D01*
X121800000Y-68610761D01*
X121800000Y-68889239D01*
X121906568Y-69146518D01*
X122103482Y-69343432D01*
X122125000Y-69352345D01*
X122125001Y-71147655D01*
X122103482Y-71156568D01*
X121906568Y-71353482D01*
X121800000Y-71610761D01*
X121800000Y-71889239D01*
X121906568Y-72146518D01*
X122103482Y-72343432D01*
X122125000Y-72352345D01*
X122125001Y-73147655D01*
X122103482Y-73156568D01*
X121906568Y-73353482D01*
X121800000Y-73610761D01*
X121800000Y-73889239D01*
X121906568Y-74146518D01*
X122103482Y-74343432D01*
X122360761Y-74450000D01*
X122639239Y-74450000D01*
X122896518Y-74343432D01*
X123093432Y-74146518D01*
X123200000Y-73889239D01*
X123200000Y-73610761D01*
X123093432Y-73353482D01*
X122896518Y-73156568D01*
X122875000Y-73147655D01*
X122875000Y-72352345D01*
X122896518Y-72343432D01*
X123093432Y-72146518D01*
X123200000Y-71889239D01*
X123200000Y-71610761D01*
X123093432Y-71353482D01*
X122896518Y-71156568D01*
X122875000Y-71147655D01*
X122875000Y-69352345D01*
X122896518Y-69343432D01*
X123093432Y-69146518D01*
X123200000Y-68889239D01*
X123200000Y-68610761D01*
X123093432Y-68353482D01*
X122896518Y-68156568D01*
X122875000Y-68147655D01*
X122875000Y-66352345D01*
X122896518Y-66343432D01*
X123093432Y-66146518D01*
X123200000Y-65889239D01*
X123200000Y-65610761D01*
X123093432Y-65353482D01*
X122896518Y-65156568D01*
X122875000Y-65147655D01*
X122875000Y-63352345D01*
X122896518Y-63343432D01*
X123093432Y-63146518D01*
X123200000Y-62889239D01*
X123200000Y-62610761D01*
X123093432Y-62353482D01*
X122896518Y-62156568D01*
X122875000Y-62147655D01*
X122875000Y-60352345D01*
X122896518Y-60343432D01*
X123093432Y-60146518D01*
X123200000Y-59889239D01*
X123200000Y-59610761D01*
X123093432Y-59353482D01*
X122896518Y-59156568D01*
X122639239Y-59050000D01*
X122360761Y-59050000D01*
X122103482Y-59156568D01*
X121906568Y-59353482D01*
X121800000Y-59610761D01*
X120699990Y-59610761D01*
X120593422Y-59353482D01*
X120396508Y-59156568D01*
X120139229Y-59050000D01*
X119860751Y-59050000D01*
X119603472Y-59156568D01*
X119406558Y-59353482D01*
X119299990Y-59610761D01*
X118200000Y-59610761D01*
X118093432Y-59353482D01*
X117896518Y-59156568D01*
X117639239Y-59050000D01*
X117360761Y-59050000D01*
X117103482Y-59156568D01*
X116906568Y-59353482D01*
X116800000Y-59610761D01*
X115700000Y-59610761D01*
X115593432Y-59353482D01*
X115396518Y-59156568D01*
X115139239Y-59050000D01*
X114860761Y-59050000D01*
X114603482Y-59156568D01*
X114406568Y-59353482D01*
X114300000Y-59610761D01*
X113200000Y-59610761D01*
X113093432Y-59353482D01*
X112896518Y-59156568D01*
X112639239Y-59050000D01*
X112360761Y-59050000D01*
X112103482Y-59156568D01*
X111906568Y-59353482D01*
X111800000Y-59610761D01*
X108375000Y-59610761D01*
X108375000Y-58852345D01*
X108396518Y-58843432D01*
X108593432Y-58646518D01*
X108700000Y-58389239D01*
X108700000Y-58110761D01*
X108593432Y-57853482D01*
X108396518Y-57656568D01*
X108139239Y-57550000D01*
X107860761Y-57550000D01*
X107603482Y-57656568D01*
X107406568Y-57853482D01*
X107300000Y-58110761D01*
X100350000Y-58110761D01*
X100350000Y-56860761D01*
X124300000Y-56860761D01*
X124300000Y-57139239D01*
X124406568Y-57396518D01*
X124603482Y-57593432D01*
X124625001Y-57602345D01*
X124625000Y-59147655D01*
X124603482Y-59156568D01*
X124406568Y-59353482D01*
X124300000Y-59610761D01*
X124300000Y-59889239D01*
X124406568Y-60146518D01*
X124603482Y-60343432D01*
X124625001Y-60352345D01*
X124625000Y-62147655D01*
X124603482Y-62156568D01*
X124406568Y-62353482D01*
X124300000Y-62610761D01*
X124300000Y-62889239D01*
X124406568Y-63146518D01*
X124603482Y-63343432D01*
X124625000Y-63352345D01*
X124625001Y-65147655D01*
X124603482Y-65156568D01*
X124406568Y-65353482D01*
X124300000Y-65610761D01*
X124300000Y-65889239D01*
X124406568Y-66146518D01*
X124603482Y-66343432D01*
X124625000Y-66352345D01*
X124625001Y-68147655D01*
X124603482Y-68156568D01*
X124406568Y-68353482D01*
X124300000Y-68610761D01*
X124300000Y-68889239D01*
X124406568Y-69146518D01*
X124603482Y-69343432D01*
X124625000Y-69352345D01*
X124625001Y-71147655D01*
X124603482Y-71156568D01*
X124406568Y-71353482D01*
X124300000Y-71610761D01*
X124300000Y-71889239D01*
X124406568Y-72146518D01*
X124603482Y-72343432D01*
X124625000Y-72352345D01*
X124625001Y-73147655D01*
X124603482Y-73156568D01*
X124406568Y-73353482D01*
X124300000Y-73610761D01*
X124300000Y-73889239D01*
X124406568Y-74146518D01*
X124603482Y-74343432D01*
X124860761Y-74450000D01*
X125139239Y-74450000D01*
X125396518Y-74343432D01*
X125593432Y-74146518D01*
X125700000Y-73889239D01*
X125700000Y-73610761D01*
X125593432Y-73353482D01*
X125396518Y-73156568D01*
X125375000Y-73147655D01*
X125375000Y-72352345D01*
X125396518Y-72343432D01*
X125593432Y-72146518D01*
X125700000Y-71889239D01*
X125700000Y-71610761D01*
X125593432Y-71353482D01*
X125396518Y-71156568D01*
X125375000Y-71147655D01*
X125375000Y-69352345D01*
X125396518Y-69343432D01*
X125593432Y-69146518D01*
X125700000Y-68889239D01*
X125700000Y-68610761D01*
X125593432Y-68353482D01*
X125396518Y-68156568D01*
X125375000Y-68147655D01*
X125375000Y-66352345D01*
X125396518Y-66343432D01*
X125593432Y-66146518D01*
X125700000Y-65889239D01*
X125700000Y-65610761D01*
X125593432Y-65353482D01*
X125396518Y-65156568D01*
X125375000Y-65147655D01*
X125375000Y-63352345D01*
X125396518Y-63343432D01*
X125593432Y-63146518D01*
X125700000Y-62889239D01*
X125700000Y-62610761D01*
X125593432Y-62353482D01*
X125396518Y-62156568D01*
X125375000Y-62147655D01*
X125375000Y-60352345D01*
X125396518Y-60343432D01*
X125593432Y-60146518D01*
X125700000Y-59889239D01*
X125700000Y-59610761D01*
X125593432Y-59353482D01*
X125396518Y-59156568D01*
X125375000Y-59147655D01*
X125375000Y-57602345D01*
X125396518Y-57593432D01*
X125593432Y-57396518D01*
X125700000Y-57139239D01*
X125700000Y-56860761D01*
X125593432Y-56603482D01*
X125396518Y-56406568D01*
X125139239Y-56300000D01*
X124860761Y-56300000D01*
X124603482Y-56406568D01*
X124406568Y-56603482D01*
X124300000Y-56860761D01*
X100350000Y-56860761D01*
X100350000Y-56235761D01*
X126800000Y-56235761D01*
X126800000Y-56514239D01*
X126906568Y-56771518D01*
X127103482Y-56968432D01*
X127125001Y-56977345D01*
X127125000Y-59147655D01*
X127103482Y-59156568D01*
X126906568Y-59353482D01*
X126800000Y-59610761D01*
X126800000Y-59889239D01*
X126906568Y-60146518D01*
X127103482Y-60343432D01*
X127125001Y-60352345D01*
X127125000Y-62147655D01*
X127103482Y-62156568D01*
X126906568Y-62353482D01*
X126800000Y-62610761D01*
X126800000Y-62889239D01*
X126906568Y-63146518D01*
X127103482Y-63343432D01*
X127125000Y-63352345D01*
X127125001Y-65147655D01*
X127103482Y-65156568D01*
X126906568Y-65353482D01*
X126800000Y-65610761D01*
X126800000Y-65889239D01*
X126906568Y-66146518D01*
X127103482Y-66343432D01*
X127125000Y-66352345D01*
X127125001Y-68147655D01*
X127103482Y-68156568D01*
X126906568Y-68353482D01*
X126800000Y-68610761D01*
X126800000Y-68889239D01*
X126906568Y-69146518D01*
X127103482Y-69343432D01*
X127125000Y-69352345D01*
X127125001Y-71147655D01*
X127103482Y-71156568D01*
X126906568Y-71353482D01*
X126800000Y-71610761D01*
X126800000Y-71889239D01*
X126906568Y-72146518D01*
X127103482Y-72343432D01*
X127125000Y-72352345D01*
X127125001Y-73147655D01*
X127103482Y-73156568D01*
X126906568Y-73353482D01*
X126800000Y-73610761D01*
X126800000Y-73889239D01*
X126906568Y-74146518D01*
X127103482Y-74343432D01*
X127360761Y-74450000D01*
X127639239Y-74450000D01*
X127896518Y-74343432D01*
X128093432Y-74146518D01*
X128200000Y-73889239D01*
X128200000Y-73610761D01*
X128093432Y-73353482D01*
X127896518Y-73156568D01*
X127875000Y-73147655D01*
X127875000Y-72352345D01*
X127896518Y-72343432D01*
X128093432Y-72146518D01*
X128200000Y-71889239D01*
X128200000Y-71610761D01*
X128093432Y-71353482D01*
X127896518Y-71156568D01*
X127875000Y-71147655D01*
X127875000Y-69352345D01*
X127896518Y-69343432D01*
X128093432Y-69146518D01*
X128200000Y-68889239D01*
X128200000Y-68610761D01*
X128093432Y-68353482D01*
X127896518Y-68156568D01*
X127875000Y-68147655D01*
X127875000Y-66352345D01*
X127896518Y-66343432D01*
X128093432Y-66146518D01*
X128200000Y-65889239D01*
X128200000Y-65610761D01*
X128093432Y-65353482D01*
X127896518Y-65156568D01*
X127875000Y-65147655D01*
X127875000Y-63352345D01*
X127896518Y-63343432D01*
X128093432Y-63146518D01*
X128200000Y-62889239D01*
X128200000Y-62610761D01*
X128093432Y-62353482D01*
X127896518Y-62156568D01*
X127875000Y-62147655D01*
X127875000Y-60352345D01*
X127896518Y-60343432D01*
X128093432Y-60146518D01*
X128200000Y-59889239D01*
X128200000Y-59610761D01*
X128093432Y-59353482D01*
X127896518Y-59156568D01*
X127875000Y-59147655D01*
X127875000Y-56977345D01*
X127896518Y-56968432D01*
X128093432Y-56771518D01*
X128200000Y-56514239D01*
X128200000Y-56235761D01*
X128093432Y-55978482D01*
X127896518Y-55781568D01*
X127639239Y-55675000D01*
X127360761Y-55675000D01*
X127103482Y-55781568D01*
X126906568Y-55978482D01*
X126800000Y-56235761D01*
X100350000Y-56235761D01*
X100350000Y-55350000D01*
X129410050Y-55350000D01*
X129406568Y-55353482D01*
G04 #@! TD*
M02*
