G04 #@! TF.GenerationSoftware,KiCad,Pcbnew,5.0.2+dfsg1-1*
G04 #@! TF.CreationDate,2019-02-23T22:45:36+01:00*
G04 #@! TF.ProjectId,B-timer,422d7469-6d65-4722-9e6b-696361645f70,rev?*
G04 #@! TF.SameCoordinates,Original*
G04 #@! TF.FileFunction,Soldermask,Bot*
G04 #@! TF.FilePolarity,Negative*
%FSLAX46Y46*%
G04 Gerber Fmt 4.6, Leading zero omitted, Abs format (unit mm)*
G04 Created by KiCad (PCBNEW 5.0.2+dfsg1-1) date Sat 23 Feb 2019 10:45:36 PM CET*
%MOMM*%
%LPD*%
G01*
G04 APERTURE LIST*
%ADD10C,0.100000*%
G04 APERTURE END LIST*
D10*
G36*
X101773015Y-92507234D02*
X101867268Y-92535825D01*
X101887912Y-92546860D01*
X101954129Y-92582254D01*
X101997841Y-92618127D01*
X102030264Y-92644736D01*
X102092745Y-92720870D01*
X102139175Y-92807732D01*
X102167766Y-92901985D01*
X102177419Y-93000000D01*
X102167766Y-93098015D01*
X102139175Y-93192268D01*
X102114357Y-93238697D01*
X102092746Y-93279129D01*
X102030264Y-93355264D01*
X101954129Y-93417746D01*
X101913697Y-93439357D01*
X101867268Y-93464175D01*
X101773015Y-93492766D01*
X101699564Y-93500000D01*
X101100436Y-93500000D01*
X101026985Y-93492766D01*
X100932732Y-93464175D01*
X100886303Y-93439357D01*
X100845871Y-93417746D01*
X100769736Y-93355264D01*
X100707254Y-93279129D01*
X100685643Y-93238697D01*
X100660825Y-93192268D01*
X100632234Y-93098015D01*
X100622581Y-93000000D01*
X100632234Y-92901985D01*
X100660825Y-92807732D01*
X100707255Y-92720870D01*
X100769736Y-92644736D01*
X100802159Y-92618127D01*
X100845871Y-92582254D01*
X100912088Y-92546860D01*
X100932732Y-92535825D01*
X101026985Y-92507234D01*
X101100436Y-92500000D01*
X101699564Y-92500000D01*
X101773015Y-92507234D01*
X101773015Y-92507234D01*
G37*
G36*
X104193115Y-91381873D02*
X104245680Y-91397818D01*
X104282657Y-91409035D01*
X104365168Y-91453138D01*
X104365169Y-91453139D01*
X104365173Y-91453141D01*
X104437501Y-91512499D01*
X104437502Y-91512501D01*
X104437504Y-91512502D01*
X104496860Y-91584827D01*
X104540965Y-91667342D01*
X104568127Y-91756885D01*
X104575000Y-91826667D01*
X104575000Y-92173332D01*
X104568127Y-92243115D01*
X104540965Y-92332658D01*
X104496860Y-92415173D01*
X104437501Y-92487501D01*
X104365173Y-92546860D01*
X104282658Y-92590965D01*
X104245681Y-92602182D01*
X104193116Y-92618127D01*
X104100000Y-92627298D01*
X104006885Y-92618127D01*
X103954320Y-92602182D01*
X103917343Y-92590965D01*
X103834828Y-92546860D01*
X103762500Y-92487501D01*
X103703142Y-92415174D01*
X103659034Y-92332655D01*
X103631873Y-92243115D01*
X103625000Y-92173333D01*
X103625000Y-91826668D01*
X103631873Y-91756886D01*
X103631874Y-91756884D01*
X103659034Y-91667347D01*
X103659035Y-91667343D01*
X103703138Y-91584832D01*
X103703139Y-91584831D01*
X103703141Y-91584827D01*
X103762499Y-91512499D01*
X103762501Y-91512498D01*
X103762502Y-91512496D01*
X103834827Y-91453140D01*
X103917342Y-91409035D01*
X103954319Y-91397818D01*
X104006884Y-91381873D01*
X104100000Y-91372702D01*
X104193115Y-91381873D01*
X104193115Y-91381873D01*
G37*
G36*
X104193115Y-86381873D02*
X104245680Y-86397818D01*
X104282657Y-86409035D01*
X104365168Y-86453138D01*
X104365169Y-86453139D01*
X104365173Y-86453141D01*
X104437501Y-86512499D01*
X104437502Y-86512501D01*
X104437504Y-86512502D01*
X104496860Y-86584827D01*
X104540965Y-86667342D01*
X104568127Y-86756885D01*
X104575000Y-86826667D01*
X104575000Y-87173332D01*
X104568127Y-87243115D01*
X104540965Y-87332658D01*
X104496860Y-87415173D01*
X104437501Y-87487501D01*
X104365173Y-87546860D01*
X104282658Y-87590965D01*
X104245681Y-87602182D01*
X104193116Y-87618127D01*
X104100000Y-87627298D01*
X104006885Y-87618127D01*
X103954320Y-87602182D01*
X103917343Y-87590965D01*
X103834828Y-87546860D01*
X103762500Y-87487501D01*
X103703142Y-87415174D01*
X103659034Y-87332655D01*
X103631873Y-87243115D01*
X103625000Y-87173333D01*
X103625000Y-86826668D01*
X103631873Y-86756886D01*
X103631874Y-86756884D01*
X103659034Y-86667347D01*
X103659035Y-86667343D01*
X103703138Y-86584832D01*
X103703139Y-86584831D01*
X103703141Y-86584827D01*
X103762499Y-86512499D01*
X103762501Y-86512498D01*
X103762502Y-86512496D01*
X103834827Y-86453140D01*
X103917342Y-86409035D01*
X103954319Y-86397818D01*
X104006884Y-86381873D01*
X104100000Y-86372702D01*
X104193115Y-86381873D01*
X104193115Y-86381873D01*
G37*
G36*
X101773015Y-85507234D02*
X101867268Y-85535825D01*
X101913697Y-85560643D01*
X101954129Y-85582254D01*
X101954131Y-85582255D01*
X101954130Y-85582255D01*
X102030264Y-85644736D01*
X102092745Y-85720870D01*
X102139175Y-85807732D01*
X102167766Y-85901985D01*
X102177419Y-86000000D01*
X102167766Y-86098015D01*
X102139175Y-86192268D01*
X102114357Y-86238697D01*
X102092746Y-86279129D01*
X102030264Y-86355264D01*
X101954129Y-86417746D01*
X101913697Y-86439357D01*
X101867268Y-86464175D01*
X101773015Y-86492766D01*
X101699564Y-86500000D01*
X101100436Y-86500000D01*
X101026985Y-86492766D01*
X100932732Y-86464175D01*
X100886303Y-86439357D01*
X100845871Y-86417746D01*
X100769736Y-86355264D01*
X100707254Y-86279129D01*
X100685643Y-86238697D01*
X100660825Y-86192268D01*
X100632234Y-86098015D01*
X100622581Y-86000000D01*
X100632234Y-85901985D01*
X100660825Y-85807732D01*
X100707255Y-85720870D01*
X100769736Y-85644736D01*
X100845870Y-85582255D01*
X100845869Y-85582255D01*
X100845871Y-85582254D01*
X100886303Y-85560643D01*
X100932732Y-85535825D01*
X101026985Y-85507234D01*
X101100436Y-85500000D01*
X101699564Y-85500000D01*
X101773015Y-85507234D01*
X101773015Y-85507234D01*
G37*
M02*
