G04 #@! TF.GenerationSoftware,KiCad,Pcbnew,5.0.2+dfsg1-1*
G04 #@! TF.CreationDate,2019-02-23T22:45:36+01:00*
G04 #@! TF.ProjectId,B-timer,422d7469-6d65-4722-9e6b-696361645f70,rev?*
G04 #@! TF.SameCoordinates,Original*
G04 #@! TF.FileFunction,Copper,L2,Bot*
G04 #@! TF.FilePolarity,Positive*
%FSLAX46Y46*%
G04 Gerber Fmt 4.6, Leading zero omitted, Abs format (unit mm)*
G04 Created by KiCad (PCBNEW 5.0.2+dfsg1-1) date Sat 23 Feb 2019 10:45:36 PM CET*
%MOMM*%
%LPD*%
G01*
G04 APERTURE LIST*
G04 #@! TA.AperFunction,ComponentPad*
%ADD10O,1.550000X1.000000*%
G04 #@! TD*
G04 #@! TA.AperFunction,ComponentPad*
%ADD11O,0.950000X1.250000*%
G04 #@! TD*
G04 #@! TA.AperFunction,ViaPad*
%ADD12C,0.800000*%
G04 #@! TD*
G04 #@! TA.AperFunction,ViaPad*
%ADD13C,5.000000*%
G04 #@! TD*
G04 #@! TA.AperFunction,Conductor*
%ADD14C,0.150000*%
G04 #@! TD*
G04 #@! TA.AperFunction,Conductor*
%ADD15C,0.250000*%
G04 #@! TD*
G04 #@! TA.AperFunction,Conductor*
%ADD16C,0.200000*%
G04 #@! TD*
G04 APERTURE END LIST*
D10*
G04 #@! TO.P,J1,6*
G04 #@! TO.N,GND*
X101400000Y-93000000D03*
X101400000Y-86000000D03*
D11*
X104100000Y-92000000D03*
X104100000Y-87000000D03*
G04 #@! TD*
D12*
G04 #@! TO.N,GND*
X115000000Y-97250000D03*
X150000000Y-97250000D03*
X132500000Y-97250000D03*
X102600000Y-81200000D03*
X106500000Y-83900000D03*
X107800000Y-82500000D03*
X126000000Y-90374990D03*
X123800000Y-76500000D03*
X163060000Y-80760000D03*
X152200000Y-80600000D03*
X145400000Y-79700000D03*
X131300000Y-79700000D03*
X117035292Y-85829190D03*
X116361043Y-81349989D03*
D13*
X103400000Y-96700000D03*
X103400000Y-58300000D03*
X161800000Y-96800000D03*
X161400000Y-58400000D03*
D12*
G04 #@! TO.N,D0*
X108000000Y-58250000D03*
X108000000Y-74500000D03*
X109750000Y-74500000D03*
X116473190Y-88157088D03*
G04 #@! TO.N,Net-(D1-Pad2)*
X112500000Y-65750000D03*
X112500000Y-68750000D03*
X137500000Y-72000000D03*
X137500000Y-68750000D03*
X137500000Y-62750000D03*
X112500000Y-59750000D03*
X137500000Y-59750000D03*
X137500000Y-65750014D03*
X112500000Y-73750000D03*
X112500000Y-71750000D03*
G04 #@! TO.N,Net-(D11-Pad2)*
X115000000Y-59750000D03*
X115000000Y-68750000D03*
X115000000Y-62750000D03*
X140000000Y-72000000D03*
X140000000Y-68750000D03*
X140000000Y-65750000D03*
X140000000Y-62750000D03*
X140000000Y-59750000D03*
X115000000Y-73750000D03*
X115000000Y-71750000D03*
G04 #@! TO.N,Net-(D12-Pad2)*
X117500000Y-65750000D03*
X117500000Y-62750000D03*
X142500000Y-72000000D03*
X142500000Y-68750000D03*
X142500000Y-65750000D03*
X142500000Y-62750000D03*
X117500000Y-59750000D03*
X142500000Y-59750000D03*
X117500000Y-73750000D03*
X117500000Y-71750000D03*
G04 #@! TO.N,Net-(D13-Pad2)*
X120000000Y-75500000D03*
X120000000Y-62750000D03*
X120000000Y-65750000D03*
X120000000Y-68750000D03*
X145000000Y-72000000D03*
X145000000Y-68750000D03*
X145000000Y-62750000D03*
X119999990Y-59750000D03*
X145000000Y-59750000D03*
X145000000Y-65749999D03*
G04 #@! TO.N,Net-(D14-Pad2)*
X122500000Y-68750000D03*
X122500000Y-65750000D03*
X122500000Y-62750000D03*
X122500000Y-59750000D03*
X122500000Y-73750000D03*
X122500000Y-71750000D03*
X156250000Y-62000000D03*
X156250000Y-71000000D03*
X156250000Y-68000000D03*
X156250000Y-65000000D03*
G04 #@! TO.N,Net-(D15-Pad2)*
X125000000Y-62750000D03*
X125000000Y-65750000D03*
X125000000Y-68750000D03*
X147500000Y-72000000D03*
X147500000Y-68750000D03*
X147500000Y-65750000D03*
X125000000Y-59750000D03*
X147500000Y-59750000D03*
X125000000Y-57000000D03*
X147500000Y-57000000D03*
X125000000Y-73750000D03*
X125000000Y-71750000D03*
G04 #@! TO.N,Net-(D16-Pad2)*
X127500000Y-68750000D03*
X127500000Y-65750000D03*
X127500000Y-62750000D03*
X150000000Y-72000000D03*
X150000000Y-68750000D03*
X150000000Y-62750000D03*
X127500000Y-59750000D03*
X150000000Y-59750000D03*
X127500000Y-56375000D03*
X150000000Y-56500000D03*
X127500000Y-73750000D03*
X127500000Y-71750000D03*
G04 #@! TO.N,Net-(D17-Pad2)*
X130000000Y-68750000D03*
X130000000Y-65750000D03*
X130000000Y-62750000D03*
X152500000Y-72000000D03*
X152450000Y-62800000D03*
X152500000Y-65750000D03*
X130000000Y-59750000D03*
X152500000Y-59750000D03*
X130000000Y-55750000D03*
X152500000Y-55750000D03*
X130000000Y-73750000D03*
X130000000Y-71750000D03*
G04 #@! TO.N,Net-(D18-Pad2)*
X132500000Y-68750000D03*
X132500000Y-65750000D03*
X132500000Y-62750000D03*
X155000000Y-68750000D03*
X154999980Y-65750000D03*
X154999980Y-62750000D03*
X132500000Y-59750000D03*
X155000000Y-59750000D03*
X132500000Y-73750000D03*
X132500000Y-71750000D03*
G04 #@! TO.N,Net-(D10-Pad2)*
X109750000Y-62750000D03*
X109750000Y-73500000D03*
X109750000Y-71750000D03*
X109750000Y-68750000D03*
X109750000Y-65750000D03*
X135000000Y-72000000D03*
X135000000Y-68750000D03*
X135000000Y-65750000D03*
X135000000Y-62750000D03*
X135000000Y-59750000D03*
G04 #@! TO.N,D1*
X106750000Y-75500000D03*
X106750000Y-61250000D03*
X112250000Y-75500000D03*
X118624866Y-85968582D03*
X116500000Y-82600000D03*
X112200000Y-83000000D03*
G04 #@! TO.N,D2*
X105500000Y-64250000D03*
X113750000Y-83500000D03*
X119300000Y-87000000D03*
X116500000Y-83750011D03*
X105500000Y-75974979D03*
X113750000Y-75974979D03*
G04 #@! TO.N,D3*
X104250000Y-67250000D03*
X118000000Y-88800000D03*
X115323260Y-76862744D03*
X104238915Y-76627186D03*
G04 #@! TO.N,D4*
X103000000Y-78750000D03*
X103000000Y-70250000D03*
X116509838Y-78933221D03*
X119208999Y-88791001D03*
G04 #@! TO.N,D5*
X122100000Y-75200000D03*
X121134960Y-89553387D03*
X163100000Y-77200000D03*
X163000000Y-62100000D03*
G04 #@! TO.N,D6*
X127250000Y-77500000D03*
X122146196Y-89658951D03*
X161800000Y-76300000D03*
X161700000Y-63000000D03*
G04 #@! TO.N,D7*
X160250000Y-64250000D03*
X127950000Y-76500000D03*
X123400675Y-90891792D03*
X160246961Y-76374979D03*
G04 #@! TO.N,D8*
X158750000Y-75500000D03*
X158750000Y-67250000D03*
X130250000Y-75500000D03*
X130282471Y-84441010D03*
G04 #@! TO.N,D9*
X157500000Y-74250000D03*
X157500000Y-70250000D03*
X133500000Y-74450000D03*
X133500000Y-84000000D03*
G04 #@! TO.N,Net-(SW1-Pad2)*
X124600000Y-91600000D03*
X118820075Y-91584983D03*
G04 #@! TO.N,Net-(SW3-Pad2)*
X146000000Y-91000000D03*
G04 #@! TO.N,+3V3*
X121684000Y-84816000D03*
X122100000Y-81000000D03*
G04 #@! TO.N,/SWDIO*
X157900000Y-82100000D03*
X157900000Y-78200000D03*
G04 #@! TO.N,/NRST*
X150500000Y-87500000D03*
X128034031Y-90273733D03*
X127300000Y-84000000D03*
X150659026Y-78825010D03*
G04 #@! TO.N,/D-*
X126000000Y-82800000D03*
X122450818Y-90908945D03*
G04 #@! TO.N,/D+*
X125200000Y-81900000D03*
X121498000Y-90802990D03*
G04 #@! TD*
D14*
G04 #@! TO.N,D0*
X108000000Y-58250000D02*
X108000000Y-74500000D01*
X109750000Y-74500000D02*
X109750000Y-80500000D01*
X109750000Y-80500000D02*
X109750000Y-81433898D01*
X116073191Y-87757089D02*
X116473190Y-88157088D01*
X109750000Y-81433898D02*
X116073191Y-87757089D01*
G04 #@! TO.N,Net-(D1-Pad2)*
X112500000Y-65750000D02*
X112500000Y-68750000D01*
X137500000Y-68750000D02*
X137500000Y-72000000D01*
X112500000Y-65750000D02*
X112500000Y-59750000D01*
X137500000Y-62750000D02*
X137500000Y-59750000D01*
X137500000Y-62750000D02*
X137500000Y-65750014D01*
X137500000Y-68750000D02*
X137500000Y-65750014D01*
X112500000Y-68750000D02*
X112500000Y-71750000D01*
X112500000Y-71750000D02*
X112500000Y-73750000D01*
G04 #@! TO.N,Net-(D11-Pad2)*
X115000000Y-59750000D02*
X115000000Y-62750000D01*
X115000000Y-62750000D02*
X115000000Y-68750000D01*
X140000000Y-68750000D02*
X140000000Y-72000000D01*
X140000000Y-65750000D02*
X140000000Y-68750000D01*
X140000000Y-62750000D02*
X140000000Y-65750000D01*
X140000000Y-62750000D02*
X140000000Y-60000000D01*
X140000000Y-60000000D02*
X140000000Y-59750000D01*
X115000000Y-68750000D02*
X115000000Y-71750000D01*
X115000000Y-71750000D02*
X115000000Y-73750000D01*
G04 #@! TO.N,Net-(D12-Pad2)*
X117500000Y-62750000D02*
X117500000Y-65750000D01*
X142500000Y-65750000D02*
X142500000Y-72000000D01*
X142500000Y-62750000D02*
X142500000Y-65750000D01*
X117500000Y-62750000D02*
X117500000Y-59750000D01*
X142500000Y-60000000D02*
X142500000Y-59750000D01*
X142500000Y-62750000D02*
X142500000Y-60000000D01*
X117500000Y-65750000D02*
X117500000Y-73750000D01*
G04 #@! TO.N,Net-(D13-Pad2)*
X120000000Y-62750000D02*
X120000000Y-65750000D01*
X120000000Y-65750000D02*
X120000000Y-68750000D01*
X120000000Y-68750000D02*
X120000000Y-75500000D01*
X145000000Y-68750000D02*
X145000000Y-72000000D01*
X120000000Y-60000000D02*
X120000000Y-59750010D01*
X120000000Y-59750010D02*
X119999990Y-59750000D01*
X120000000Y-62750000D02*
X120000000Y-60000000D01*
X145000000Y-60000000D02*
X145000000Y-59750000D01*
X145000000Y-62750000D02*
X145000000Y-60000000D01*
X145000000Y-68750000D02*
X145000000Y-65749999D01*
X145000000Y-62750000D02*
X145000000Y-65749999D01*
G04 #@! TO.N,Net-(D14-Pad2)*
X122500000Y-65750000D02*
X122500000Y-68750000D01*
X122500000Y-62750000D02*
X122500000Y-65750000D01*
X122500000Y-62750000D02*
X122500000Y-59750000D01*
X122500000Y-68750000D02*
X122500000Y-71750000D01*
X122500000Y-71750000D02*
X122500000Y-73750000D01*
X156250000Y-68000000D02*
X156250000Y-71000000D01*
X156250000Y-62000000D02*
X156250000Y-65000000D01*
X156250000Y-65000000D02*
X156250000Y-68000000D01*
G04 #@! TO.N,Net-(D15-Pad2)*
X125000000Y-62750000D02*
X125000000Y-65750000D01*
X125000000Y-65750000D02*
X125000000Y-68750000D01*
X147500000Y-68750000D02*
X147500000Y-72000000D01*
X147500000Y-65750000D02*
X147500000Y-68750000D01*
X125000000Y-62750000D02*
X125000000Y-59750000D01*
X147500000Y-65750000D02*
X147500000Y-60000000D01*
X147500000Y-60000000D02*
X147500000Y-59750000D01*
X125000000Y-59750000D02*
X125000000Y-57000000D01*
X147500000Y-57000000D02*
X147500000Y-59750000D01*
X125000000Y-68750000D02*
X125000000Y-71750000D01*
X125000000Y-71750000D02*
X125000000Y-73750000D01*
G04 #@! TO.N,Net-(D16-Pad2)*
X127500000Y-65750000D02*
X127500000Y-68750000D01*
X127500000Y-62750000D02*
X127500000Y-65750000D01*
X150000000Y-68750000D02*
X150000000Y-72000000D01*
X127500000Y-62750000D02*
X127500000Y-59750000D01*
X150000000Y-60000000D02*
X150000000Y-59750000D01*
X150000000Y-68750000D02*
X150000000Y-60000000D01*
X127500000Y-59750000D02*
X127500000Y-56375000D01*
X150000000Y-57065685D02*
X150000000Y-59750000D01*
X150000000Y-56500000D02*
X150000000Y-57065685D01*
X127500000Y-68750000D02*
X127500000Y-71750000D01*
X127500000Y-71750000D02*
X127500000Y-73750000D01*
G04 #@! TO.N,Net-(D17-Pad2)*
X130000000Y-65750000D02*
X130000000Y-68750000D01*
X152500000Y-65750000D02*
X152500000Y-72000000D01*
X130000000Y-65750000D02*
X130000000Y-60000000D01*
X130000000Y-60000000D02*
X130000000Y-59750000D01*
X152500000Y-65750000D02*
X152500000Y-59750000D01*
X130000000Y-59750000D02*
X130000000Y-55750000D01*
X152500000Y-55750000D02*
X152500000Y-59750000D01*
X130000000Y-68750000D02*
X130000000Y-71750000D01*
X130000000Y-71750000D02*
X130000000Y-73750000D01*
G04 #@! TO.N,Net-(D18-Pad2)*
X132500000Y-65750000D02*
X132500000Y-68750000D01*
X132500000Y-62750000D02*
X132500000Y-63315685D01*
X154999980Y-68749980D02*
X155000000Y-68750000D01*
X154999980Y-65750000D02*
X154999980Y-68749980D01*
X154999980Y-62750000D02*
X154999980Y-65750000D01*
X132500000Y-65750000D02*
X132500000Y-59750000D01*
X154999980Y-62750000D02*
X154999980Y-59750020D01*
X154999980Y-59750020D02*
X155000000Y-59750000D01*
X132500000Y-68750000D02*
X132500000Y-73750000D01*
G04 #@! TO.N,Net-(D10-Pad2)*
X109750000Y-71750000D02*
X109750000Y-73500000D01*
X109750000Y-68750000D02*
X109750000Y-71750000D01*
X109750000Y-62750000D02*
X109750000Y-65750000D01*
X109750000Y-65750000D02*
X109750000Y-68750000D01*
X135000000Y-68750000D02*
X135000000Y-72000000D01*
X135000000Y-65750000D02*
X135000000Y-68750000D01*
X135000000Y-62750000D02*
X135000000Y-65750000D01*
X135000000Y-62750000D02*
X135000000Y-59750000D01*
G04 #@! TO.N,D1*
X106750000Y-75500000D02*
X106750000Y-61250000D01*
X118624866Y-85402897D02*
X117200000Y-83978031D01*
X118624866Y-85968582D02*
X118624866Y-85402897D01*
X117200000Y-83978031D02*
X117200000Y-83300000D01*
X117200000Y-83300000D02*
X116500000Y-82600000D01*
X112250000Y-82950000D02*
X112200000Y-83000000D01*
X112250000Y-75500000D02*
X112250000Y-82950000D01*
G04 #@! TO.N,D2*
X117887185Y-85797184D02*
X116500000Y-84409999D01*
X116500000Y-84315696D02*
X116500000Y-83750011D01*
X116500000Y-84409999D02*
X116500000Y-84315696D01*
X119300000Y-87000000D02*
X118589278Y-87000000D01*
X118589278Y-87000000D02*
X117887185Y-86297907D01*
X117887185Y-86297907D02*
X117887185Y-85797184D01*
X113750000Y-83500000D02*
X113750000Y-75974979D01*
X105500000Y-64250000D02*
X105500000Y-75974979D01*
G04 #@! TO.N,D3*
X104250000Y-76616101D02*
X104238915Y-76627186D01*
X104250000Y-67250000D02*
X104250000Y-76616101D01*
X118000000Y-88800000D02*
X115323260Y-86123260D01*
X115323260Y-77428429D02*
X115323260Y-76862744D01*
X115323260Y-86123260D02*
X115323260Y-77428429D01*
G04 #@! TO.N,D4*
X103000000Y-78750000D02*
X103000000Y-70250000D01*
X116109839Y-79333220D02*
X116509838Y-78933221D01*
X118706387Y-88391002D02*
X115647899Y-85332514D01*
X115647899Y-79795160D02*
X116109839Y-79333220D01*
X119208999Y-88791001D02*
X118809000Y-88391002D01*
X115647899Y-85332514D02*
X115647899Y-79795160D01*
X118809000Y-88391002D02*
X118706387Y-88391002D01*
G04 #@! TO.N,D5*
X121134960Y-85191962D02*
X121134960Y-88987702D01*
X121058999Y-76241001D02*
X121058999Y-85116001D01*
X121134960Y-88987702D02*
X121134960Y-89553387D01*
X122100000Y-75200000D02*
X121058999Y-76241001D01*
X121058999Y-85116001D02*
X121134960Y-85191962D01*
X163100000Y-62200000D02*
X163000000Y-62100000D01*
X163100000Y-77200000D02*
X163100000Y-62200000D01*
G04 #@! TO.N,D6*
X122309001Y-85116001D02*
X122146196Y-85278806D01*
X122146196Y-89093266D02*
X122146196Y-89658951D01*
X127250000Y-77500000D02*
X122309001Y-82440999D01*
X122146196Y-85278806D02*
X122146196Y-89093266D01*
X122309001Y-82440999D02*
X122309001Y-85116001D01*
X161800000Y-76300000D02*
X161800000Y-63100000D01*
X161800000Y-63100000D02*
X161700000Y-63000000D01*
G04 #@! TO.N,D7*
X127950000Y-76500000D02*
X128659033Y-77209033D01*
X123800674Y-90491793D02*
X123400675Y-90891792D01*
X128334033Y-90898735D02*
X127734029Y-90898735D01*
X127734029Y-90898735D02*
X125935303Y-89100009D01*
X128659033Y-90573735D02*
X128334033Y-90898735D01*
X125192458Y-89100009D02*
X123800674Y-90491793D01*
X125935303Y-89100009D02*
X125192458Y-89100009D01*
X128659033Y-77209033D02*
X128659033Y-90573735D01*
X160250000Y-64250000D02*
X160250000Y-76371940D01*
X160250000Y-76371940D02*
X160246961Y-76374979D01*
G04 #@! TO.N,D8*
X158750000Y-75500000D02*
X158750000Y-67250000D01*
X130250000Y-75500000D02*
X130250000Y-84408539D01*
X130250000Y-84408539D02*
X130282471Y-84441010D01*
G04 #@! TO.N,D9*
X157500000Y-74250000D02*
X157500000Y-70250000D01*
X133500000Y-75015685D02*
X133500000Y-84000000D01*
X133500000Y-74450000D02*
X133500000Y-75015685D01*
G04 #@! TO.N,Net-(SW1-Pad2)*
X124600000Y-91600000D02*
X118835092Y-91600000D01*
X118835092Y-91600000D02*
X118820075Y-91584983D01*
D15*
G04 #@! TO.N,+3V3*
X121684000Y-84816000D02*
X121684000Y-81416000D01*
X121684000Y-81416000D02*
X122100000Y-81000000D01*
D14*
G04 #@! TO.N,/SWDIO*
X157900000Y-82100000D02*
X157900000Y-78200000D01*
G04 #@! TO.N,/NRST*
X150500000Y-87500000D02*
X150500000Y-79454707D01*
X150500000Y-79454707D02*
X150522642Y-79432065D01*
X127300000Y-89500000D02*
X128034031Y-90234031D01*
X128034031Y-90234031D02*
X128034031Y-90273733D01*
X127300000Y-84000000D02*
X127300000Y-89500000D01*
X150595014Y-79454707D02*
X150659026Y-79390695D01*
X150500000Y-79454707D02*
X150595014Y-79454707D01*
X150659026Y-79390695D02*
X150659026Y-78825010D01*
G04 #@! TO.N,/D-*
X122850817Y-90508946D02*
X122450818Y-90908945D01*
X126000000Y-82800000D02*
X126000000Y-87359763D01*
X126000000Y-87359763D02*
X122850817Y-90508946D01*
G04 #@! TO.N,/D+*
X121897999Y-90402991D02*
X121498000Y-90802990D01*
X125200000Y-87530149D02*
X122446197Y-90283952D01*
X122446197Y-90283952D02*
X122017038Y-90283952D01*
X122017038Y-90283952D02*
X121897999Y-90402991D01*
X125200000Y-81900000D02*
X125200000Y-87530149D01*
G04 #@! TD*
D16*
G04 #@! TO.N,GND*
G36*
X129406568Y-55353482D02*
X129300000Y-55610761D01*
X129300000Y-55889239D01*
X129406568Y-56146518D01*
X129603482Y-56343432D01*
X129625001Y-56352345D01*
X129625000Y-59147655D01*
X129603482Y-59156568D01*
X129406568Y-59353482D01*
X129300000Y-59610761D01*
X129300000Y-59889239D01*
X129406568Y-60146518D01*
X129603482Y-60343432D01*
X129625001Y-60352345D01*
X129625001Y-62147655D01*
X129603482Y-62156568D01*
X129406568Y-62353482D01*
X129300000Y-62610761D01*
X129300000Y-62889239D01*
X129406568Y-63146518D01*
X129603482Y-63343432D01*
X129625000Y-63352345D01*
X129625000Y-65147655D01*
X129603482Y-65156568D01*
X129406568Y-65353482D01*
X129300000Y-65610761D01*
X129300000Y-65889239D01*
X129406568Y-66146518D01*
X129603482Y-66343432D01*
X129625000Y-66352345D01*
X129625001Y-68147655D01*
X129603482Y-68156568D01*
X129406568Y-68353482D01*
X129300000Y-68610761D01*
X129300000Y-68889239D01*
X129406568Y-69146518D01*
X129603482Y-69343432D01*
X129625000Y-69352345D01*
X129625001Y-71147655D01*
X129603482Y-71156568D01*
X129406568Y-71353482D01*
X129300000Y-71610761D01*
X129300000Y-71889239D01*
X129406568Y-72146518D01*
X129603482Y-72343432D01*
X129625000Y-72352345D01*
X129625001Y-73147655D01*
X129603482Y-73156568D01*
X129406568Y-73353482D01*
X129300000Y-73610761D01*
X129300000Y-73889239D01*
X129406568Y-74146518D01*
X129603482Y-74343432D01*
X129860761Y-74450000D01*
X130139239Y-74450000D01*
X130396518Y-74343432D01*
X130593432Y-74146518D01*
X130700000Y-73889239D01*
X130700000Y-73610761D01*
X130593432Y-73353482D01*
X130396518Y-73156568D01*
X130375000Y-73147655D01*
X130375000Y-72352345D01*
X130396518Y-72343432D01*
X130593432Y-72146518D01*
X130700000Y-71889239D01*
X130700000Y-71610761D01*
X130593432Y-71353482D01*
X130396518Y-71156568D01*
X130375000Y-71147655D01*
X130375000Y-69352345D01*
X130396518Y-69343432D01*
X130593432Y-69146518D01*
X130700000Y-68889239D01*
X130700000Y-68610761D01*
X130593432Y-68353482D01*
X130396518Y-68156568D01*
X130375000Y-68147655D01*
X130375000Y-66352345D01*
X130396518Y-66343432D01*
X130593432Y-66146518D01*
X130700000Y-65889239D01*
X130700000Y-65610761D01*
X130593432Y-65353482D01*
X130396518Y-65156568D01*
X130375000Y-65147655D01*
X130375000Y-63352345D01*
X130396518Y-63343432D01*
X130593432Y-63146518D01*
X130700000Y-62889239D01*
X130700000Y-62610761D01*
X130593432Y-62353482D01*
X130396518Y-62156568D01*
X130375000Y-62147655D01*
X130375000Y-60352345D01*
X130396518Y-60343432D01*
X130593432Y-60146518D01*
X130700000Y-59889239D01*
X130700000Y-59610761D01*
X131800000Y-59610761D01*
X131800000Y-59889239D01*
X131906568Y-60146518D01*
X132103482Y-60343432D01*
X132125001Y-60352345D01*
X132125001Y-62147655D01*
X132103482Y-62156568D01*
X131906568Y-62353482D01*
X131800000Y-62610761D01*
X131800000Y-62889239D01*
X131906568Y-63146518D01*
X132103482Y-63343432D01*
X132125000Y-63352345D01*
X132125000Y-65147655D01*
X132103482Y-65156568D01*
X131906568Y-65353482D01*
X131800000Y-65610761D01*
X131800000Y-65889239D01*
X131906568Y-66146518D01*
X132103482Y-66343432D01*
X132125000Y-66352345D01*
X132125001Y-68147655D01*
X132103482Y-68156568D01*
X131906568Y-68353482D01*
X131800000Y-68610761D01*
X131800000Y-68889239D01*
X131906568Y-69146518D01*
X132103482Y-69343432D01*
X132125000Y-69352345D01*
X132125000Y-71147655D01*
X132103482Y-71156568D01*
X131906568Y-71353482D01*
X131800000Y-71610761D01*
X131800000Y-71889239D01*
X131906568Y-72146518D01*
X132103482Y-72343432D01*
X132125001Y-72352345D01*
X132125001Y-73147655D01*
X132103482Y-73156568D01*
X131906568Y-73353482D01*
X131800000Y-73610761D01*
X131800000Y-73889239D01*
X131906568Y-74146518D01*
X132103482Y-74343432D01*
X132360761Y-74450000D01*
X132639239Y-74450000D01*
X132800000Y-74383411D01*
X132800000Y-74589239D01*
X132906568Y-74846518D01*
X133103482Y-75043432D01*
X133125000Y-75052345D01*
X133125001Y-83397655D01*
X133103482Y-83406568D01*
X132906568Y-83603482D01*
X132800000Y-83860761D01*
X132800000Y-84139239D01*
X132906568Y-84396518D01*
X133103482Y-84593432D01*
X133360761Y-84700000D01*
X133639239Y-84700000D01*
X133896518Y-84593432D01*
X134093432Y-84396518D01*
X134200000Y-84139239D01*
X134200000Y-83860761D01*
X134093432Y-83603482D01*
X133896518Y-83406568D01*
X133875000Y-83397655D01*
X133875000Y-78060761D01*
X157200000Y-78060761D01*
X157200000Y-78339239D01*
X157306568Y-78596518D01*
X157503482Y-78793432D01*
X157525001Y-78802345D01*
X157525000Y-81497655D01*
X157503482Y-81506568D01*
X157306568Y-81703482D01*
X157200000Y-81960761D01*
X157200000Y-82239239D01*
X157306568Y-82496518D01*
X157503482Y-82693432D01*
X157760761Y-82800000D01*
X158039239Y-82800000D01*
X158296518Y-82693432D01*
X158493432Y-82496518D01*
X158600000Y-82239239D01*
X158600000Y-81960761D01*
X158493432Y-81703482D01*
X158296518Y-81506568D01*
X158275000Y-81497655D01*
X158275000Y-78802345D01*
X158296518Y-78793432D01*
X158493432Y-78596518D01*
X158600000Y-78339239D01*
X158600000Y-78060761D01*
X158493432Y-77803482D01*
X158296518Y-77606568D01*
X158039239Y-77500000D01*
X157760761Y-77500000D01*
X157503482Y-77606568D01*
X157306568Y-77803482D01*
X157200000Y-78060761D01*
X133875000Y-78060761D01*
X133875000Y-76235740D01*
X159546961Y-76235740D01*
X159546961Y-76514218D01*
X159653529Y-76771497D01*
X159850443Y-76968411D01*
X160107722Y-77074979D01*
X160386200Y-77074979D01*
X160643479Y-76968411D01*
X160840393Y-76771497D01*
X160946961Y-76514218D01*
X160946961Y-76235740D01*
X160840393Y-75978461D01*
X160643479Y-75781547D01*
X160625000Y-75773893D01*
X160625000Y-64852345D01*
X160646518Y-64843432D01*
X160843432Y-64646518D01*
X160950000Y-64389239D01*
X160950000Y-64110761D01*
X160843432Y-63853482D01*
X160646518Y-63656568D01*
X160389239Y-63550000D01*
X160110761Y-63550000D01*
X159853482Y-63656568D01*
X159656568Y-63853482D01*
X159550000Y-64110761D01*
X159550000Y-64389239D01*
X159656568Y-64646518D01*
X159853482Y-64843432D01*
X159875000Y-64852345D01*
X159875001Y-75771375D01*
X159850443Y-75781547D01*
X159653529Y-75978461D01*
X159546961Y-76235740D01*
X133875000Y-76235740D01*
X133875000Y-75052345D01*
X133896518Y-75043432D01*
X134093432Y-74846518D01*
X134200000Y-74589239D01*
X134200000Y-74310761D01*
X134093432Y-74053482D01*
X133896518Y-73856568D01*
X133639239Y-73750000D01*
X133360761Y-73750000D01*
X133200000Y-73816589D01*
X133200000Y-73610761D01*
X133093432Y-73353482D01*
X132896518Y-73156568D01*
X132875000Y-73147655D01*
X132875000Y-72352345D01*
X132896518Y-72343432D01*
X133093432Y-72146518D01*
X133200000Y-71889239D01*
X133200000Y-71610761D01*
X133093432Y-71353482D01*
X132896518Y-71156568D01*
X132875000Y-71147655D01*
X132875000Y-69352345D01*
X132896518Y-69343432D01*
X133093432Y-69146518D01*
X133200000Y-68889239D01*
X133200000Y-68610761D01*
X133093432Y-68353482D01*
X132896518Y-68156568D01*
X132875000Y-68147655D01*
X132875000Y-66352345D01*
X132896518Y-66343432D01*
X133093432Y-66146518D01*
X133200000Y-65889239D01*
X133200000Y-65610761D01*
X133093432Y-65353482D01*
X132896518Y-65156568D01*
X132875000Y-65147655D01*
X132875000Y-63352345D01*
X132896518Y-63343432D01*
X133093432Y-63146518D01*
X133200000Y-62889239D01*
X133200000Y-62610761D01*
X133093432Y-62353482D01*
X132896518Y-62156568D01*
X132875000Y-62147655D01*
X132875000Y-60352345D01*
X132896518Y-60343432D01*
X133093432Y-60146518D01*
X133200000Y-59889239D01*
X133200000Y-59610761D01*
X134300000Y-59610761D01*
X134300000Y-59889239D01*
X134406568Y-60146518D01*
X134603482Y-60343432D01*
X134625001Y-60352345D01*
X134625000Y-62147655D01*
X134603482Y-62156568D01*
X134406568Y-62353482D01*
X134300000Y-62610761D01*
X134300000Y-62889239D01*
X134406568Y-63146518D01*
X134603482Y-63343432D01*
X134625000Y-63352345D01*
X134625001Y-65147655D01*
X134603482Y-65156568D01*
X134406568Y-65353482D01*
X134300000Y-65610761D01*
X134300000Y-65889239D01*
X134406568Y-66146518D01*
X134603482Y-66343432D01*
X134625000Y-66352345D01*
X134625001Y-68147655D01*
X134603482Y-68156568D01*
X134406568Y-68353482D01*
X134300000Y-68610761D01*
X134300000Y-68889239D01*
X134406568Y-69146518D01*
X134603482Y-69343432D01*
X134625000Y-69352345D01*
X134625001Y-71397655D01*
X134603482Y-71406568D01*
X134406568Y-71603482D01*
X134300000Y-71860761D01*
X134300000Y-72139239D01*
X134406568Y-72396518D01*
X134603482Y-72593432D01*
X134860761Y-72700000D01*
X135139239Y-72700000D01*
X135396518Y-72593432D01*
X135593432Y-72396518D01*
X135700000Y-72139239D01*
X135700000Y-71860761D01*
X135593432Y-71603482D01*
X135396518Y-71406568D01*
X135375000Y-71397655D01*
X135375000Y-69352345D01*
X135396518Y-69343432D01*
X135593432Y-69146518D01*
X135700000Y-68889239D01*
X135700000Y-68610761D01*
X135593432Y-68353482D01*
X135396518Y-68156568D01*
X135375000Y-68147655D01*
X135375000Y-66352345D01*
X135396518Y-66343432D01*
X135593432Y-66146518D01*
X135700000Y-65889239D01*
X135700000Y-65610761D01*
X135593432Y-65353482D01*
X135396518Y-65156568D01*
X135375000Y-65147655D01*
X135375000Y-63352345D01*
X135396518Y-63343432D01*
X135593432Y-63146518D01*
X135700000Y-62889239D01*
X135700000Y-62610761D01*
X135593432Y-62353482D01*
X135396518Y-62156568D01*
X135375000Y-62147655D01*
X135375000Y-60352345D01*
X135396518Y-60343432D01*
X135593432Y-60146518D01*
X135700000Y-59889239D01*
X135700000Y-59610761D01*
X136800000Y-59610761D01*
X136800000Y-59889239D01*
X136906568Y-60146518D01*
X137103482Y-60343432D01*
X137125001Y-60352345D01*
X137125000Y-62147655D01*
X137103482Y-62156568D01*
X136906568Y-62353482D01*
X136800000Y-62610761D01*
X136800000Y-62889239D01*
X136906568Y-63146518D01*
X137103482Y-63343432D01*
X137125000Y-63352345D01*
X137125001Y-65147669D01*
X137103482Y-65156582D01*
X136906568Y-65353496D01*
X136800000Y-65610775D01*
X136800000Y-65889253D01*
X136906568Y-66146532D01*
X137103482Y-66343446D01*
X137125001Y-66352359D01*
X137125000Y-68147655D01*
X137103482Y-68156568D01*
X136906568Y-68353482D01*
X136800000Y-68610761D01*
X136800000Y-68889239D01*
X136906568Y-69146518D01*
X137103482Y-69343432D01*
X137125000Y-69352345D01*
X137125001Y-71397655D01*
X137103482Y-71406568D01*
X136906568Y-71603482D01*
X136800000Y-71860761D01*
X136800000Y-72139239D01*
X136906568Y-72396518D01*
X137103482Y-72593432D01*
X137360761Y-72700000D01*
X137639239Y-72700000D01*
X137896518Y-72593432D01*
X138093432Y-72396518D01*
X138200000Y-72139239D01*
X138200000Y-71860761D01*
X138093432Y-71603482D01*
X137896518Y-71406568D01*
X137875000Y-71397655D01*
X137875000Y-69352345D01*
X137896518Y-69343432D01*
X138093432Y-69146518D01*
X138200000Y-68889239D01*
X138200000Y-68610761D01*
X138093432Y-68353482D01*
X137896518Y-68156568D01*
X137875000Y-68147655D01*
X137875000Y-66352359D01*
X137896518Y-66343446D01*
X138093432Y-66146532D01*
X138200000Y-65889253D01*
X138200000Y-65610775D01*
X138093432Y-65353496D01*
X137896518Y-65156582D01*
X137875000Y-65147669D01*
X137875000Y-63352345D01*
X137896518Y-63343432D01*
X138093432Y-63146518D01*
X138200000Y-62889239D01*
X138200000Y-62610761D01*
X138093432Y-62353482D01*
X137896518Y-62156568D01*
X137875000Y-62147655D01*
X137875000Y-60352345D01*
X137896518Y-60343432D01*
X138093432Y-60146518D01*
X138200000Y-59889239D01*
X138200000Y-59610761D01*
X139300000Y-59610761D01*
X139300000Y-59889239D01*
X139406568Y-60146518D01*
X139603482Y-60343432D01*
X139625001Y-60352345D01*
X139625000Y-62147655D01*
X139603482Y-62156568D01*
X139406568Y-62353482D01*
X139300000Y-62610761D01*
X139300000Y-62889239D01*
X139406568Y-63146518D01*
X139603482Y-63343432D01*
X139625000Y-63352345D01*
X139625001Y-65147655D01*
X139603482Y-65156568D01*
X139406568Y-65353482D01*
X139300000Y-65610761D01*
X139300000Y-65889239D01*
X139406568Y-66146518D01*
X139603482Y-66343432D01*
X139625000Y-66352345D01*
X139625001Y-68147655D01*
X139603482Y-68156568D01*
X139406568Y-68353482D01*
X139300000Y-68610761D01*
X139300000Y-68889239D01*
X139406568Y-69146518D01*
X139603482Y-69343432D01*
X139625000Y-69352345D01*
X139625001Y-71397655D01*
X139603482Y-71406568D01*
X139406568Y-71603482D01*
X139300000Y-71860761D01*
X139300000Y-72139239D01*
X139406568Y-72396518D01*
X139603482Y-72593432D01*
X139860761Y-72700000D01*
X140139239Y-72700000D01*
X140396518Y-72593432D01*
X140593432Y-72396518D01*
X140700000Y-72139239D01*
X140700000Y-71860761D01*
X140593432Y-71603482D01*
X140396518Y-71406568D01*
X140375000Y-71397655D01*
X140375000Y-69352345D01*
X140396518Y-69343432D01*
X140593432Y-69146518D01*
X140700000Y-68889239D01*
X140700000Y-68610761D01*
X140593432Y-68353482D01*
X140396518Y-68156568D01*
X140375000Y-68147655D01*
X140375000Y-66352345D01*
X140396518Y-66343432D01*
X140593432Y-66146518D01*
X140700000Y-65889239D01*
X140700000Y-65610761D01*
X140593432Y-65353482D01*
X140396518Y-65156568D01*
X140375000Y-65147655D01*
X140375000Y-63352345D01*
X140396518Y-63343432D01*
X140593432Y-63146518D01*
X140700000Y-62889239D01*
X140700000Y-62610761D01*
X140593432Y-62353482D01*
X140396518Y-62156568D01*
X140375000Y-62147655D01*
X140375000Y-60352345D01*
X140396518Y-60343432D01*
X140593432Y-60146518D01*
X140700000Y-59889239D01*
X140700000Y-59610761D01*
X141800000Y-59610761D01*
X141800000Y-59889239D01*
X141906568Y-60146518D01*
X142103482Y-60343432D01*
X142125001Y-60352345D01*
X142125000Y-62147655D01*
X142103482Y-62156568D01*
X141906568Y-62353482D01*
X141800000Y-62610761D01*
X141800000Y-62889239D01*
X141906568Y-63146518D01*
X142103482Y-63343432D01*
X142125000Y-63352345D01*
X142125001Y-65147655D01*
X142103482Y-65156568D01*
X141906568Y-65353482D01*
X141800000Y-65610761D01*
X141800000Y-65889239D01*
X141906568Y-66146518D01*
X142103482Y-66343432D01*
X142125000Y-66352345D01*
X142125000Y-68147655D01*
X142103482Y-68156568D01*
X141906568Y-68353482D01*
X141800000Y-68610761D01*
X141800000Y-68889239D01*
X141906568Y-69146518D01*
X142103482Y-69343432D01*
X142125001Y-69352345D01*
X142125001Y-71397655D01*
X142103482Y-71406568D01*
X141906568Y-71603482D01*
X141800000Y-71860761D01*
X141800000Y-72139239D01*
X141906568Y-72396518D01*
X142103482Y-72593432D01*
X142360761Y-72700000D01*
X142639239Y-72700000D01*
X142896518Y-72593432D01*
X143093432Y-72396518D01*
X143200000Y-72139239D01*
X143200000Y-71860761D01*
X143093432Y-71603482D01*
X142896518Y-71406568D01*
X142875000Y-71397655D01*
X142875000Y-69352345D01*
X142896518Y-69343432D01*
X143093432Y-69146518D01*
X143200000Y-68889239D01*
X143200000Y-68610761D01*
X143093432Y-68353482D01*
X142896518Y-68156568D01*
X142875000Y-68147655D01*
X142875000Y-66352345D01*
X142896518Y-66343432D01*
X143093432Y-66146518D01*
X143200000Y-65889239D01*
X143200000Y-65610761D01*
X143093432Y-65353482D01*
X142896518Y-65156568D01*
X142875000Y-65147655D01*
X142875000Y-63352345D01*
X142896518Y-63343432D01*
X143093432Y-63146518D01*
X143200000Y-62889239D01*
X143200000Y-62610761D01*
X143093432Y-62353482D01*
X142896518Y-62156568D01*
X142875000Y-62147655D01*
X142875000Y-60352345D01*
X142896518Y-60343432D01*
X143093432Y-60146518D01*
X143200000Y-59889239D01*
X143200000Y-59610761D01*
X144300000Y-59610761D01*
X144300000Y-59889239D01*
X144406568Y-60146518D01*
X144603482Y-60343432D01*
X144625001Y-60352345D01*
X144625000Y-62147655D01*
X144603482Y-62156568D01*
X144406568Y-62353482D01*
X144300000Y-62610761D01*
X144300000Y-62889239D01*
X144406568Y-63146518D01*
X144603482Y-63343432D01*
X144625000Y-63352345D01*
X144625001Y-65147654D01*
X144603482Y-65156567D01*
X144406568Y-65353481D01*
X144300000Y-65610760D01*
X144300000Y-65889238D01*
X144406568Y-66146517D01*
X144603482Y-66343431D01*
X144625001Y-66352344D01*
X144625000Y-68147655D01*
X144603482Y-68156568D01*
X144406568Y-68353482D01*
X144300000Y-68610761D01*
X144300000Y-68889239D01*
X144406568Y-69146518D01*
X144603482Y-69343432D01*
X144625000Y-69352345D01*
X144625001Y-71397655D01*
X144603482Y-71406568D01*
X144406568Y-71603482D01*
X144300000Y-71860761D01*
X144300000Y-72139239D01*
X144406568Y-72396518D01*
X144603482Y-72593432D01*
X144860761Y-72700000D01*
X145139239Y-72700000D01*
X145396518Y-72593432D01*
X145593432Y-72396518D01*
X145700000Y-72139239D01*
X145700000Y-71860761D01*
X145593432Y-71603482D01*
X145396518Y-71406568D01*
X145375000Y-71397655D01*
X145375000Y-69352345D01*
X145396518Y-69343432D01*
X145593432Y-69146518D01*
X145700000Y-68889239D01*
X145700000Y-68610761D01*
X145593432Y-68353482D01*
X145396518Y-68156568D01*
X145375000Y-68147655D01*
X145375000Y-66352344D01*
X145396518Y-66343431D01*
X145593432Y-66146517D01*
X145700000Y-65889238D01*
X145700000Y-65610760D01*
X145593432Y-65353481D01*
X145396518Y-65156567D01*
X145375000Y-65147654D01*
X145375000Y-63352345D01*
X145396518Y-63343432D01*
X145593432Y-63146518D01*
X145700000Y-62889239D01*
X145700000Y-62610761D01*
X145593432Y-62353482D01*
X145396518Y-62156568D01*
X145375000Y-62147655D01*
X145375000Y-60352345D01*
X145396518Y-60343432D01*
X145593432Y-60146518D01*
X145700000Y-59889239D01*
X145700000Y-59610761D01*
X145593432Y-59353482D01*
X145396518Y-59156568D01*
X145139239Y-59050000D01*
X144860761Y-59050000D01*
X144603482Y-59156568D01*
X144406568Y-59353482D01*
X144300000Y-59610761D01*
X143200000Y-59610761D01*
X143093432Y-59353482D01*
X142896518Y-59156568D01*
X142639239Y-59050000D01*
X142360761Y-59050000D01*
X142103482Y-59156568D01*
X141906568Y-59353482D01*
X141800000Y-59610761D01*
X140700000Y-59610761D01*
X140593432Y-59353482D01*
X140396518Y-59156568D01*
X140139239Y-59050000D01*
X139860761Y-59050000D01*
X139603482Y-59156568D01*
X139406568Y-59353482D01*
X139300000Y-59610761D01*
X138200000Y-59610761D01*
X138093432Y-59353482D01*
X137896518Y-59156568D01*
X137639239Y-59050000D01*
X137360761Y-59050000D01*
X137103482Y-59156568D01*
X136906568Y-59353482D01*
X136800000Y-59610761D01*
X135700000Y-59610761D01*
X135593432Y-59353482D01*
X135396518Y-59156568D01*
X135139239Y-59050000D01*
X134860761Y-59050000D01*
X134603482Y-59156568D01*
X134406568Y-59353482D01*
X134300000Y-59610761D01*
X133200000Y-59610761D01*
X133093432Y-59353482D01*
X132896518Y-59156568D01*
X132639239Y-59050000D01*
X132360761Y-59050000D01*
X132103482Y-59156568D01*
X131906568Y-59353482D01*
X131800000Y-59610761D01*
X130700000Y-59610761D01*
X130593432Y-59353482D01*
X130396518Y-59156568D01*
X130375000Y-59147655D01*
X130375000Y-56860761D01*
X146800000Y-56860761D01*
X146800000Y-57139239D01*
X146906568Y-57396518D01*
X147103482Y-57593432D01*
X147125000Y-57602345D01*
X147125001Y-59147655D01*
X147103482Y-59156568D01*
X146906568Y-59353482D01*
X146800000Y-59610761D01*
X146800000Y-59889239D01*
X146906568Y-60146518D01*
X147103482Y-60343432D01*
X147125001Y-60352345D01*
X147125000Y-65147655D01*
X147103482Y-65156568D01*
X146906568Y-65353482D01*
X146800000Y-65610761D01*
X146800000Y-65889239D01*
X146906568Y-66146518D01*
X147103482Y-66343432D01*
X147125000Y-66352345D01*
X147125001Y-68147655D01*
X147103482Y-68156568D01*
X146906568Y-68353482D01*
X146800000Y-68610761D01*
X146800000Y-68889239D01*
X146906568Y-69146518D01*
X147103482Y-69343432D01*
X147125000Y-69352345D01*
X147125001Y-71397655D01*
X147103482Y-71406568D01*
X146906568Y-71603482D01*
X146800000Y-71860761D01*
X146800000Y-72139239D01*
X146906568Y-72396518D01*
X147103482Y-72593432D01*
X147360761Y-72700000D01*
X147639239Y-72700000D01*
X147896518Y-72593432D01*
X148093432Y-72396518D01*
X148200000Y-72139239D01*
X148200000Y-71860761D01*
X148093432Y-71603482D01*
X147896518Y-71406568D01*
X147875000Y-71397655D01*
X147875000Y-69352345D01*
X147896518Y-69343432D01*
X148093432Y-69146518D01*
X148200000Y-68889239D01*
X148200000Y-68610761D01*
X148093432Y-68353482D01*
X147896518Y-68156568D01*
X147875000Y-68147655D01*
X147875000Y-66352345D01*
X147896518Y-66343432D01*
X148093432Y-66146518D01*
X148200000Y-65889239D01*
X148200000Y-65610761D01*
X148093432Y-65353482D01*
X147896518Y-65156568D01*
X147875000Y-65147655D01*
X147875000Y-60352345D01*
X147896518Y-60343432D01*
X148093432Y-60146518D01*
X148200000Y-59889239D01*
X148200000Y-59610761D01*
X148093432Y-59353482D01*
X147896518Y-59156568D01*
X147875000Y-59147655D01*
X147875000Y-57602345D01*
X147896518Y-57593432D01*
X148093432Y-57396518D01*
X148200000Y-57139239D01*
X148200000Y-56860761D01*
X148093432Y-56603482D01*
X147896518Y-56406568D01*
X147785930Y-56360761D01*
X149300000Y-56360761D01*
X149300000Y-56639239D01*
X149406568Y-56896518D01*
X149603482Y-57093432D01*
X149625000Y-57102345D01*
X149625001Y-59147655D01*
X149603482Y-59156568D01*
X149406568Y-59353482D01*
X149300000Y-59610761D01*
X149300000Y-59889239D01*
X149406568Y-60146518D01*
X149603482Y-60343432D01*
X149625001Y-60352345D01*
X149625001Y-62147655D01*
X149603482Y-62156568D01*
X149406568Y-62353482D01*
X149300000Y-62610761D01*
X149300000Y-62889239D01*
X149406568Y-63146518D01*
X149603482Y-63343432D01*
X149625001Y-63352345D01*
X149625000Y-68147655D01*
X149603482Y-68156568D01*
X149406568Y-68353482D01*
X149300000Y-68610761D01*
X149300000Y-68889239D01*
X149406568Y-69146518D01*
X149603482Y-69343432D01*
X149625000Y-69352345D01*
X149625001Y-71397655D01*
X149603482Y-71406568D01*
X149406568Y-71603482D01*
X149300000Y-71860761D01*
X149300000Y-72139239D01*
X149406568Y-72396518D01*
X149603482Y-72593432D01*
X149860761Y-72700000D01*
X150139239Y-72700000D01*
X150396518Y-72593432D01*
X150593432Y-72396518D01*
X150700000Y-72139239D01*
X150700000Y-71860761D01*
X150593432Y-71603482D01*
X150396518Y-71406568D01*
X150375000Y-71397655D01*
X150375000Y-69352345D01*
X150396518Y-69343432D01*
X150593432Y-69146518D01*
X150700000Y-68889239D01*
X150700000Y-68610761D01*
X150593432Y-68353482D01*
X150396518Y-68156568D01*
X150375000Y-68147655D01*
X150375000Y-63352345D01*
X150396518Y-63343432D01*
X150593432Y-63146518D01*
X150700000Y-62889239D01*
X150700000Y-62610761D01*
X150593432Y-62353482D01*
X150396518Y-62156568D01*
X150375000Y-62147655D01*
X150375000Y-60352345D01*
X150396518Y-60343432D01*
X150593432Y-60146518D01*
X150700000Y-59889239D01*
X150700000Y-59610761D01*
X150593432Y-59353482D01*
X150396518Y-59156568D01*
X150375000Y-59147655D01*
X150375000Y-57102345D01*
X150396518Y-57093432D01*
X150593432Y-56896518D01*
X150700000Y-56639239D01*
X150700000Y-56360761D01*
X150593432Y-56103482D01*
X150396518Y-55906568D01*
X150139239Y-55800000D01*
X149860761Y-55800000D01*
X149603482Y-55906568D01*
X149406568Y-56103482D01*
X149300000Y-56360761D01*
X147785930Y-56360761D01*
X147639239Y-56300000D01*
X147360761Y-56300000D01*
X147103482Y-56406568D01*
X146906568Y-56603482D01*
X146800000Y-56860761D01*
X130375000Y-56860761D01*
X130375000Y-56352345D01*
X130396518Y-56343432D01*
X130593432Y-56146518D01*
X130700000Y-55889239D01*
X130700000Y-55610761D01*
X130593432Y-55353482D01*
X130589950Y-55350000D01*
X151910050Y-55350000D01*
X151906568Y-55353482D01*
X151800000Y-55610761D01*
X151800000Y-55889239D01*
X151906568Y-56146518D01*
X152103482Y-56343432D01*
X152125000Y-56352345D01*
X152125001Y-59147655D01*
X152103482Y-59156568D01*
X151906568Y-59353482D01*
X151800000Y-59610761D01*
X151800000Y-59889239D01*
X151906568Y-60146518D01*
X152103482Y-60343432D01*
X152125001Y-60352345D01*
X152125001Y-62176944D01*
X152053482Y-62206568D01*
X151856568Y-62403482D01*
X151750000Y-62660761D01*
X151750000Y-62939239D01*
X151856568Y-63196518D01*
X152053482Y-63393432D01*
X152125000Y-63423056D01*
X152125000Y-65147655D01*
X152103482Y-65156568D01*
X151906568Y-65353482D01*
X151800000Y-65610761D01*
X151800000Y-65889239D01*
X151906568Y-66146518D01*
X152103482Y-66343432D01*
X152125000Y-66352345D01*
X152125001Y-71397655D01*
X152103482Y-71406568D01*
X151906568Y-71603482D01*
X151800000Y-71860761D01*
X151800000Y-72139239D01*
X151906568Y-72396518D01*
X152103482Y-72593432D01*
X152360761Y-72700000D01*
X152639239Y-72700000D01*
X152896518Y-72593432D01*
X153093432Y-72396518D01*
X153200000Y-72139239D01*
X153200000Y-71860761D01*
X153093432Y-71603482D01*
X152896518Y-71406568D01*
X152875000Y-71397655D01*
X152875000Y-66352345D01*
X152896518Y-66343432D01*
X153093432Y-66146518D01*
X153200000Y-65889239D01*
X153200000Y-65610761D01*
X153093432Y-65353482D01*
X152896518Y-65156568D01*
X152875000Y-65147655D01*
X152875000Y-63364950D01*
X153043432Y-63196518D01*
X153150000Y-62939239D01*
X153150000Y-62660761D01*
X153129290Y-62610761D01*
X154299980Y-62610761D01*
X154299980Y-62889239D01*
X154406548Y-63146518D01*
X154603462Y-63343432D01*
X154624980Y-63352345D01*
X154624981Y-65147655D01*
X154603462Y-65156568D01*
X154406548Y-65353482D01*
X154299980Y-65610761D01*
X154299980Y-65889239D01*
X154406548Y-66146518D01*
X154603462Y-66343432D01*
X154624980Y-66352345D01*
X154624981Y-68147663D01*
X154603482Y-68156568D01*
X154406568Y-68353482D01*
X154300000Y-68610761D01*
X154300000Y-68889239D01*
X154406568Y-69146518D01*
X154603482Y-69343432D01*
X154860761Y-69450000D01*
X155139239Y-69450000D01*
X155396518Y-69343432D01*
X155593432Y-69146518D01*
X155700000Y-68889239D01*
X155700000Y-68610761D01*
X155593432Y-68353482D01*
X155396518Y-68156568D01*
X155374980Y-68147647D01*
X155374980Y-66352345D01*
X155396498Y-66343432D01*
X155593412Y-66146518D01*
X155699980Y-65889239D01*
X155699980Y-65610761D01*
X155593412Y-65353482D01*
X155396498Y-65156568D01*
X155374980Y-65147655D01*
X155374980Y-63352345D01*
X155396498Y-63343432D01*
X155593412Y-63146518D01*
X155699980Y-62889239D01*
X155699980Y-62610761D01*
X155593412Y-62353482D01*
X155396498Y-62156568D01*
X155374980Y-62147655D01*
X155374980Y-61860761D01*
X155550000Y-61860761D01*
X155550000Y-62139239D01*
X155656568Y-62396518D01*
X155853482Y-62593432D01*
X155875000Y-62602345D01*
X155875001Y-64397655D01*
X155853482Y-64406568D01*
X155656568Y-64603482D01*
X155550000Y-64860761D01*
X155550000Y-65139239D01*
X155656568Y-65396518D01*
X155853482Y-65593432D01*
X155875000Y-65602345D01*
X155875001Y-67397655D01*
X155853482Y-67406568D01*
X155656568Y-67603482D01*
X155550000Y-67860761D01*
X155550000Y-68139239D01*
X155656568Y-68396518D01*
X155853482Y-68593432D01*
X155875000Y-68602345D01*
X155875001Y-70397655D01*
X155853482Y-70406568D01*
X155656568Y-70603482D01*
X155550000Y-70860761D01*
X155550000Y-71139239D01*
X155656568Y-71396518D01*
X155853482Y-71593432D01*
X156110761Y-71700000D01*
X156389239Y-71700000D01*
X156646518Y-71593432D01*
X156843432Y-71396518D01*
X156950000Y-71139239D01*
X156950000Y-70860761D01*
X156843432Y-70603482D01*
X156646518Y-70406568D01*
X156625000Y-70397655D01*
X156625000Y-70110761D01*
X156800000Y-70110761D01*
X156800000Y-70389239D01*
X156906568Y-70646518D01*
X157103482Y-70843432D01*
X157125001Y-70852345D01*
X157125000Y-73647655D01*
X157103482Y-73656568D01*
X156906568Y-73853482D01*
X156800000Y-74110761D01*
X156800000Y-74389239D01*
X156906568Y-74646518D01*
X157103482Y-74843432D01*
X157360761Y-74950000D01*
X157639239Y-74950000D01*
X157896518Y-74843432D01*
X158093432Y-74646518D01*
X158200000Y-74389239D01*
X158200000Y-74110761D01*
X158093432Y-73853482D01*
X157896518Y-73656568D01*
X157875000Y-73647655D01*
X157875000Y-70852345D01*
X157896518Y-70843432D01*
X158093432Y-70646518D01*
X158200000Y-70389239D01*
X158200000Y-70110761D01*
X158093432Y-69853482D01*
X157896518Y-69656568D01*
X157639239Y-69550000D01*
X157360761Y-69550000D01*
X157103482Y-69656568D01*
X156906568Y-69853482D01*
X156800000Y-70110761D01*
X156625000Y-70110761D01*
X156625000Y-68602345D01*
X156646518Y-68593432D01*
X156843432Y-68396518D01*
X156950000Y-68139239D01*
X156950000Y-67860761D01*
X156843432Y-67603482D01*
X156646518Y-67406568D01*
X156625000Y-67397655D01*
X156625000Y-67110761D01*
X158050000Y-67110761D01*
X158050000Y-67389239D01*
X158156568Y-67646518D01*
X158353482Y-67843432D01*
X158375001Y-67852345D01*
X158375000Y-74897655D01*
X158353482Y-74906568D01*
X158156568Y-75103482D01*
X158050000Y-75360761D01*
X158050000Y-75639239D01*
X158156568Y-75896518D01*
X158353482Y-76093432D01*
X158610761Y-76200000D01*
X158889239Y-76200000D01*
X159146518Y-76093432D01*
X159343432Y-75896518D01*
X159450000Y-75639239D01*
X159450000Y-75360761D01*
X159343432Y-75103482D01*
X159146518Y-74906568D01*
X159125000Y-74897655D01*
X159125000Y-67852345D01*
X159146518Y-67843432D01*
X159343432Y-67646518D01*
X159450000Y-67389239D01*
X159450000Y-67110761D01*
X159343432Y-66853482D01*
X159146518Y-66656568D01*
X158889239Y-66550000D01*
X158610761Y-66550000D01*
X158353482Y-66656568D01*
X158156568Y-66853482D01*
X158050000Y-67110761D01*
X156625000Y-67110761D01*
X156625000Y-65602345D01*
X156646518Y-65593432D01*
X156843432Y-65396518D01*
X156950000Y-65139239D01*
X156950000Y-64860761D01*
X156843432Y-64603482D01*
X156646518Y-64406568D01*
X156625000Y-64397655D01*
X156625000Y-62860761D01*
X161000000Y-62860761D01*
X161000000Y-63139239D01*
X161106568Y-63396518D01*
X161303482Y-63593432D01*
X161425001Y-63643767D01*
X161425000Y-75697655D01*
X161403482Y-75706568D01*
X161206568Y-75903482D01*
X161100000Y-76160761D01*
X161100000Y-76439239D01*
X161206568Y-76696518D01*
X161403482Y-76893432D01*
X161660761Y-77000000D01*
X161939239Y-77000000D01*
X162196518Y-76893432D01*
X162393432Y-76696518D01*
X162500000Y-76439239D01*
X162500000Y-76160761D01*
X162393432Y-75903482D01*
X162196518Y-75706568D01*
X162175000Y-75697655D01*
X162175000Y-63514950D01*
X162293432Y-63396518D01*
X162400000Y-63139239D01*
X162400000Y-62860761D01*
X162293432Y-62603482D01*
X162096518Y-62406568D01*
X161839239Y-62300000D01*
X161560761Y-62300000D01*
X161303482Y-62406568D01*
X161106568Y-62603482D01*
X161000000Y-62860761D01*
X156625000Y-62860761D01*
X156625000Y-62602345D01*
X156646518Y-62593432D01*
X156843432Y-62396518D01*
X156950000Y-62139239D01*
X156950000Y-61960761D01*
X162300000Y-61960761D01*
X162300000Y-62239239D01*
X162406568Y-62496518D01*
X162603482Y-62693432D01*
X162725001Y-62743767D01*
X162725000Y-76597655D01*
X162703482Y-76606568D01*
X162506568Y-76803482D01*
X162400000Y-77060761D01*
X162400000Y-77339239D01*
X162506568Y-77596518D01*
X162703482Y-77793432D01*
X162960761Y-77900000D01*
X163239239Y-77900000D01*
X163496518Y-77793432D01*
X163693432Y-77596518D01*
X163800000Y-77339239D01*
X163800000Y-77060761D01*
X163693432Y-76803482D01*
X163496518Y-76606568D01*
X163475000Y-76597655D01*
X163475000Y-62614950D01*
X163593432Y-62496518D01*
X163700000Y-62239239D01*
X163700000Y-61960761D01*
X163593432Y-61703482D01*
X163396518Y-61506568D01*
X163139239Y-61400000D01*
X162860761Y-61400000D01*
X162603482Y-61506568D01*
X162406568Y-61703482D01*
X162300000Y-61960761D01*
X156950000Y-61960761D01*
X156950000Y-61860761D01*
X156843432Y-61603482D01*
X156646518Y-61406568D01*
X156389239Y-61300000D01*
X156110761Y-61300000D01*
X155853482Y-61406568D01*
X155656568Y-61603482D01*
X155550000Y-61860761D01*
X155374980Y-61860761D01*
X155374980Y-60352353D01*
X155396518Y-60343432D01*
X155593432Y-60146518D01*
X155700000Y-59889239D01*
X155700000Y-59610761D01*
X155593432Y-59353482D01*
X155396518Y-59156568D01*
X155139239Y-59050000D01*
X154860761Y-59050000D01*
X154603482Y-59156568D01*
X154406568Y-59353482D01*
X154300000Y-59610761D01*
X154300000Y-59889239D01*
X154406568Y-60146518D01*
X154603482Y-60343432D01*
X154624981Y-60352337D01*
X154624980Y-62147655D01*
X154603462Y-62156568D01*
X154406548Y-62353482D01*
X154299980Y-62610761D01*
X153129290Y-62610761D01*
X153043432Y-62403482D01*
X152875000Y-62235050D01*
X152875000Y-60352345D01*
X152896518Y-60343432D01*
X153093432Y-60146518D01*
X153200000Y-59889239D01*
X153200000Y-59610761D01*
X153093432Y-59353482D01*
X152896518Y-59156568D01*
X152875000Y-59147655D01*
X152875000Y-56352345D01*
X152896518Y-56343432D01*
X153093432Y-56146518D01*
X153200000Y-55889239D01*
X153200000Y-55610761D01*
X153093432Y-55353482D01*
X153089950Y-55350000D01*
X161730088Y-55350000D01*
X161756133Y-55356301D01*
X161760986Y-55356880D01*
X162428920Y-55431801D01*
X163026581Y-55639929D01*
X163563280Y-55975295D01*
X164012342Y-56421232D01*
X164351447Y-56955576D01*
X164563741Y-57551769D01*
X164640622Y-58196510D01*
X164639528Y-58291638D01*
X164647334Y-58369275D01*
X164650000Y-58377224D01*
X164650001Y-96815916D01*
X164647036Y-96847074D01*
X164626217Y-97479180D01*
X164471229Y-98050171D01*
X164189044Y-98570187D01*
X163794800Y-99011337D01*
X163309640Y-99349962D01*
X162759593Y-99567892D01*
X162162427Y-99655155D01*
X161937907Y-99650684D01*
X161934468Y-99650000D01*
X103219727Y-99650000D01*
X103195661Y-99647110D01*
X102542342Y-99609467D01*
X101954308Y-99434193D01*
X101422370Y-99128345D01*
X100975058Y-98708326D01*
X100636369Y-98196669D01*
X100424471Y-97620822D01*
X100348668Y-96994636D01*
X100349502Y-96936974D01*
X100350000Y-96934468D01*
X100350000Y-93796378D01*
X100644870Y-94015080D01*
X101069872Y-94121549D01*
X101246000Y-93964365D01*
X101246000Y-93154000D01*
X101554000Y-93154000D01*
X101554000Y-93964365D01*
X101730128Y-94121549D01*
X102155130Y-94015080D01*
X102507037Y-93754074D01*
X102732274Y-93378267D01*
X102734646Y-93323751D01*
X102618515Y-93154000D01*
X101554000Y-93154000D01*
X101246000Y-93154000D01*
X101226000Y-93154000D01*
X101226000Y-92846000D01*
X101246000Y-92846000D01*
X101246000Y-92035635D01*
X101554000Y-92035635D01*
X101554000Y-92846000D01*
X102618515Y-92846000D01*
X102734646Y-92676249D01*
X102732274Y-92621733D01*
X102553426Y-92323325D01*
X103031240Y-92323325D01*
X103178923Y-92719128D01*
X103466832Y-93028287D01*
X103780199Y-93184706D01*
X103946000Y-93068175D01*
X103946000Y-92154000D01*
X104254000Y-92154000D01*
X104254000Y-93068175D01*
X104419801Y-93184706D01*
X104733168Y-93028287D01*
X105021077Y-92719128D01*
X105168760Y-92323325D01*
X105030716Y-92154000D01*
X104254000Y-92154000D01*
X103946000Y-92154000D01*
X103169284Y-92154000D01*
X103031240Y-92323325D01*
X102553426Y-92323325D01*
X102507037Y-92245926D01*
X102155130Y-91984920D01*
X101730128Y-91878451D01*
X101554000Y-92035635D01*
X101246000Y-92035635D01*
X101069872Y-91878451D01*
X100644870Y-91984920D01*
X100350000Y-92203622D01*
X100350000Y-91676675D01*
X103031240Y-91676675D01*
X103169284Y-91846000D01*
X103946000Y-91846000D01*
X103946000Y-90931825D01*
X104254000Y-90931825D01*
X104254000Y-91846000D01*
X105030716Y-91846000D01*
X105168760Y-91676675D01*
X105082595Y-91445744D01*
X118120075Y-91445744D01*
X118120075Y-91724222D01*
X118226643Y-91981501D01*
X118423557Y-92178415D01*
X118680836Y-92284983D01*
X118959314Y-92284983D01*
X119216593Y-92178415D01*
X119413507Y-91981501D01*
X119416200Y-91975000D01*
X123997655Y-91975000D01*
X124006568Y-91996518D01*
X124203482Y-92193432D01*
X124460761Y-92300000D01*
X124739239Y-92300000D01*
X124996518Y-92193432D01*
X125193432Y-91996518D01*
X125300000Y-91739239D01*
X125300000Y-91460761D01*
X125193432Y-91203482D01*
X124996518Y-91006568D01*
X124739239Y-90900000D01*
X124460761Y-90900000D01*
X124203482Y-91006568D01*
X124045278Y-91164772D01*
X124100675Y-91031031D01*
X124100675Y-90752553D01*
X124091762Y-90731035D01*
X124091953Y-90730844D01*
X124091955Y-90730841D01*
X125347788Y-89475009D01*
X125779974Y-89475009D01*
X127442751Y-91137787D01*
X127463670Y-91169094D01*
X127494977Y-91190013D01*
X127494978Y-91190014D01*
X127547338Y-91225000D01*
X127587712Y-91251977D01*
X127697098Y-91273735D01*
X127697103Y-91273735D01*
X127734029Y-91281080D01*
X127770955Y-91273735D01*
X128297107Y-91273735D01*
X128334033Y-91281080D01*
X128370959Y-91273735D01*
X128370964Y-91273735D01*
X128480350Y-91251977D01*
X128604392Y-91169094D01*
X128625312Y-91137785D01*
X128898085Y-90865013D01*
X128904448Y-90860761D01*
X145300000Y-90860761D01*
X145300000Y-91139239D01*
X145406568Y-91396518D01*
X145603482Y-91593432D01*
X145860761Y-91700000D01*
X146139239Y-91700000D01*
X146396518Y-91593432D01*
X146593432Y-91396518D01*
X146700000Y-91139239D01*
X146700000Y-90860761D01*
X146593432Y-90603482D01*
X146396518Y-90406568D01*
X146139239Y-90300000D01*
X145860761Y-90300000D01*
X145603482Y-90406568D01*
X145406568Y-90603482D01*
X145300000Y-90860761D01*
X128904448Y-90860761D01*
X128929392Y-90844094D01*
X128983827Y-90762627D01*
X129012274Y-90720054D01*
X129012274Y-90720053D01*
X129012275Y-90720052D01*
X129034033Y-90610666D01*
X129034033Y-90610662D01*
X129041378Y-90573736D01*
X129034033Y-90536810D01*
X129034033Y-87360761D01*
X149800000Y-87360761D01*
X149800000Y-87639239D01*
X149906568Y-87896518D01*
X150103482Y-88093432D01*
X150360761Y-88200000D01*
X150639239Y-88200000D01*
X150896518Y-88093432D01*
X151093432Y-87896518D01*
X151200000Y-87639239D01*
X151200000Y-87360761D01*
X151093432Y-87103482D01*
X150896518Y-86906568D01*
X150875000Y-86897655D01*
X150875000Y-79710658D01*
X150886294Y-79693756D01*
X150898076Y-79681974D01*
X150929385Y-79661054D01*
X151012268Y-79537012D01*
X151034026Y-79427626D01*
X151034026Y-79427621D01*
X151034084Y-79427331D01*
X151055544Y-79418442D01*
X151252458Y-79221528D01*
X151359026Y-78964249D01*
X151359026Y-78685771D01*
X151252458Y-78428492D01*
X151055544Y-78231578D01*
X150798265Y-78125010D01*
X150519787Y-78125010D01*
X150262508Y-78231578D01*
X150065594Y-78428492D01*
X149959026Y-78685771D01*
X149959026Y-78964249D01*
X150065594Y-79221528D01*
X150149040Y-79304974D01*
X150146758Y-79308390D01*
X150117654Y-79454707D01*
X150125001Y-79491643D01*
X150125000Y-86897655D01*
X150103482Y-86906568D01*
X149906568Y-87103482D01*
X149800000Y-87360761D01*
X129034033Y-87360761D01*
X129034033Y-77245959D01*
X129041378Y-77209032D01*
X129034033Y-77172106D01*
X129034033Y-77172102D01*
X129012275Y-77062716D01*
X128976738Y-77009531D01*
X128950312Y-76969982D01*
X128950311Y-76969981D01*
X128929392Y-76938674D01*
X128898086Y-76917756D01*
X128641087Y-76660757D01*
X128650000Y-76639239D01*
X128650000Y-76360761D01*
X128543432Y-76103482D01*
X128346518Y-75906568D01*
X128089239Y-75800000D01*
X127810761Y-75800000D01*
X127553482Y-75906568D01*
X127356568Y-76103482D01*
X127250000Y-76360761D01*
X127250000Y-76639239D01*
X127316589Y-76800000D01*
X127110761Y-76800000D01*
X126853482Y-76906568D01*
X126656568Y-77103482D01*
X126550000Y-77360761D01*
X126550000Y-77639239D01*
X126558913Y-77660757D01*
X122109000Y-82110671D01*
X122109000Y-81700000D01*
X122239239Y-81700000D01*
X122496518Y-81593432D01*
X122693432Y-81396518D01*
X122800000Y-81139239D01*
X122800000Y-80860761D01*
X122693432Y-80603482D01*
X122496518Y-80406568D01*
X122239239Y-80300000D01*
X121960761Y-80300000D01*
X121703482Y-80406568D01*
X121506568Y-80603482D01*
X121433999Y-80778680D01*
X121433999Y-76396330D01*
X121939243Y-75891087D01*
X121960761Y-75900000D01*
X122239239Y-75900000D01*
X122496518Y-75793432D01*
X122693432Y-75596518D01*
X122791085Y-75360761D01*
X129550000Y-75360761D01*
X129550000Y-75639239D01*
X129656568Y-75896518D01*
X129853482Y-76093432D01*
X129875000Y-76102345D01*
X129875001Y-83858530D01*
X129689039Y-84044492D01*
X129582471Y-84301771D01*
X129582471Y-84580249D01*
X129689039Y-84837528D01*
X129885953Y-85034442D01*
X130143232Y-85141010D01*
X130421710Y-85141010D01*
X130678989Y-85034442D01*
X130875903Y-84837528D01*
X130982471Y-84580249D01*
X130982471Y-84301771D01*
X130875903Y-84044492D01*
X130678989Y-83847578D01*
X130625000Y-83825215D01*
X130625000Y-76102345D01*
X130646518Y-76093432D01*
X130843432Y-75896518D01*
X130950000Y-75639239D01*
X130950000Y-75360761D01*
X130843432Y-75103482D01*
X130646518Y-74906568D01*
X130389239Y-74800000D01*
X130110761Y-74800000D01*
X129853482Y-74906568D01*
X129656568Y-75103482D01*
X129550000Y-75360761D01*
X122791085Y-75360761D01*
X122800000Y-75339239D01*
X122800000Y-75060761D01*
X122693432Y-74803482D01*
X122496518Y-74606568D01*
X122239239Y-74500000D01*
X121960761Y-74500000D01*
X121703482Y-74606568D01*
X121506568Y-74803482D01*
X121400000Y-75060761D01*
X121400000Y-75339239D01*
X121408913Y-75360757D01*
X120819949Y-75949721D01*
X120788640Y-75970642D01*
X120767720Y-76001951D01*
X120715128Y-76080661D01*
X120705757Y-76094685D01*
X120683999Y-76204071D01*
X120683999Y-76204075D01*
X120676654Y-76241001D01*
X120683999Y-76277927D01*
X120684000Y-85079070D01*
X120676654Y-85116001D01*
X120705758Y-85262319D01*
X120759960Y-85343437D01*
X120759961Y-88950767D01*
X120759960Y-88950772D01*
X120759960Y-88951042D01*
X120738442Y-88959955D01*
X120541528Y-89156869D01*
X120434960Y-89414148D01*
X120434960Y-89692626D01*
X120541528Y-89949905D01*
X120738442Y-90146819D01*
X120995721Y-90253387D01*
X121057653Y-90253387D01*
X120904568Y-90406472D01*
X120798000Y-90663751D01*
X120798000Y-90942229D01*
X120904568Y-91199508D01*
X120930060Y-91225000D01*
X119428640Y-91225000D01*
X119413507Y-91188465D01*
X119216593Y-90991551D01*
X118959314Y-90884983D01*
X118680836Y-90884983D01*
X118423557Y-90991551D01*
X118226643Y-91188465D01*
X118120075Y-91445744D01*
X105082595Y-91445744D01*
X105021077Y-91280872D01*
X104733168Y-90971713D01*
X104419801Y-90815294D01*
X104254000Y-90931825D01*
X103946000Y-90931825D01*
X103780199Y-90815294D01*
X103466832Y-90971713D01*
X103178923Y-91280872D01*
X103031240Y-91676675D01*
X100350000Y-91676675D01*
X100350000Y-87323325D01*
X103031240Y-87323325D01*
X103178923Y-87719128D01*
X103466832Y-88028287D01*
X103780199Y-88184706D01*
X103946000Y-88068175D01*
X103946000Y-87154000D01*
X104254000Y-87154000D01*
X104254000Y-88068175D01*
X104419801Y-88184706D01*
X104733168Y-88028287D01*
X105021077Y-87719128D01*
X105168760Y-87323325D01*
X105030716Y-87154000D01*
X104254000Y-87154000D01*
X103946000Y-87154000D01*
X103169284Y-87154000D01*
X103031240Y-87323325D01*
X100350000Y-87323325D01*
X100350000Y-86796378D01*
X100644870Y-87015080D01*
X101069872Y-87121549D01*
X101246000Y-86964365D01*
X101246000Y-86154000D01*
X101554000Y-86154000D01*
X101554000Y-86964365D01*
X101730128Y-87121549D01*
X102155130Y-87015080D01*
X102507037Y-86754074D01*
X102553425Y-86676675D01*
X103031240Y-86676675D01*
X103169284Y-86846000D01*
X103946000Y-86846000D01*
X103946000Y-85931825D01*
X104254000Y-85931825D01*
X104254000Y-86846000D01*
X105030716Y-86846000D01*
X105168760Y-86676675D01*
X105021077Y-86280872D01*
X104733168Y-85971713D01*
X104419801Y-85815294D01*
X104254000Y-85931825D01*
X103946000Y-85931825D01*
X103780199Y-85815294D01*
X103466832Y-85971713D01*
X103178923Y-86280872D01*
X103031240Y-86676675D01*
X102553425Y-86676675D01*
X102732274Y-86378267D01*
X102734646Y-86323751D01*
X102618515Y-86154000D01*
X101554000Y-86154000D01*
X101246000Y-86154000D01*
X101226000Y-86154000D01*
X101226000Y-85846000D01*
X101246000Y-85846000D01*
X101246000Y-85035635D01*
X101554000Y-85035635D01*
X101554000Y-85846000D01*
X102618515Y-85846000D01*
X102734646Y-85676249D01*
X102732274Y-85621733D01*
X102507037Y-85245926D01*
X102155130Y-84984920D01*
X101730128Y-84878451D01*
X101554000Y-85035635D01*
X101246000Y-85035635D01*
X101069872Y-84878451D01*
X100644870Y-84984920D01*
X100350000Y-85203622D01*
X100350000Y-70110761D01*
X102300000Y-70110761D01*
X102300000Y-70389239D01*
X102406568Y-70646518D01*
X102603482Y-70843432D01*
X102625001Y-70852345D01*
X102625000Y-78147655D01*
X102603482Y-78156568D01*
X102406568Y-78353482D01*
X102300000Y-78610761D01*
X102300000Y-78889239D01*
X102406568Y-79146518D01*
X102603482Y-79343432D01*
X102860761Y-79450000D01*
X103139239Y-79450000D01*
X103396518Y-79343432D01*
X103593432Y-79146518D01*
X103700000Y-78889239D01*
X103700000Y-78610761D01*
X103593432Y-78353482D01*
X103396518Y-78156568D01*
X103375000Y-78147655D01*
X103375000Y-76487947D01*
X103538915Y-76487947D01*
X103538915Y-76766425D01*
X103645483Y-77023704D01*
X103842397Y-77220618D01*
X104099676Y-77327186D01*
X104378154Y-77327186D01*
X104635433Y-77220618D01*
X104832347Y-77023704D01*
X104938915Y-76766425D01*
X104938915Y-76487947D01*
X104832347Y-76230668D01*
X104635433Y-76033754D01*
X104625000Y-76029433D01*
X104625000Y-67852345D01*
X104646518Y-67843432D01*
X104843432Y-67646518D01*
X104950000Y-67389239D01*
X104950000Y-67110761D01*
X104843432Y-66853482D01*
X104646518Y-66656568D01*
X104389239Y-66550000D01*
X104110761Y-66550000D01*
X103853482Y-66656568D01*
X103656568Y-66853482D01*
X103550000Y-67110761D01*
X103550000Y-67389239D01*
X103656568Y-67646518D01*
X103853482Y-67843432D01*
X103875000Y-67852345D01*
X103875001Y-76020249D01*
X103842397Y-76033754D01*
X103645483Y-76230668D01*
X103538915Y-76487947D01*
X103375000Y-76487947D01*
X103375000Y-70852345D01*
X103396518Y-70843432D01*
X103593432Y-70646518D01*
X103700000Y-70389239D01*
X103700000Y-70110761D01*
X103593432Y-69853482D01*
X103396518Y-69656568D01*
X103139239Y-69550000D01*
X102860761Y-69550000D01*
X102603482Y-69656568D01*
X102406568Y-69853482D01*
X102300000Y-70110761D01*
X100350000Y-70110761D01*
X100350000Y-64110761D01*
X104800000Y-64110761D01*
X104800000Y-64389239D01*
X104906568Y-64646518D01*
X105103482Y-64843432D01*
X105125000Y-64852345D01*
X105125001Y-75372634D01*
X105103482Y-75381547D01*
X104906568Y-75578461D01*
X104800000Y-75835740D01*
X104800000Y-76114218D01*
X104906568Y-76371497D01*
X105103482Y-76568411D01*
X105360761Y-76674979D01*
X105639239Y-76674979D01*
X105896518Y-76568411D01*
X106093432Y-76371497D01*
X106200000Y-76114218D01*
X106200000Y-75939950D01*
X106353482Y-76093432D01*
X106610761Y-76200000D01*
X106889239Y-76200000D01*
X107146518Y-76093432D01*
X107343432Y-75896518D01*
X107450000Y-75639239D01*
X107450000Y-75360761D01*
X107343432Y-75103482D01*
X107146518Y-74906568D01*
X107125000Y-74897655D01*
X107125000Y-61852345D01*
X107146518Y-61843432D01*
X107343432Y-61646518D01*
X107450000Y-61389239D01*
X107450000Y-61110761D01*
X107343432Y-60853482D01*
X107146518Y-60656568D01*
X106889239Y-60550000D01*
X106610761Y-60550000D01*
X106353482Y-60656568D01*
X106156568Y-60853482D01*
X106050000Y-61110761D01*
X106050000Y-61389239D01*
X106156568Y-61646518D01*
X106353482Y-61843432D01*
X106375001Y-61852345D01*
X106375000Y-74897655D01*
X106353482Y-74906568D01*
X106156568Y-75103482D01*
X106050000Y-75360761D01*
X106050000Y-75535029D01*
X105896518Y-75381547D01*
X105875000Y-75372634D01*
X105875000Y-64852345D01*
X105896518Y-64843432D01*
X106093432Y-64646518D01*
X106200000Y-64389239D01*
X106200000Y-64110761D01*
X106093432Y-63853482D01*
X105896518Y-63656568D01*
X105639239Y-63550000D01*
X105360761Y-63550000D01*
X105103482Y-63656568D01*
X104906568Y-63853482D01*
X104800000Y-64110761D01*
X100350000Y-64110761D01*
X100350000Y-58405426D01*
X100382011Y-58110761D01*
X107300000Y-58110761D01*
X107300000Y-58389239D01*
X107406568Y-58646518D01*
X107603482Y-58843432D01*
X107625000Y-58852345D01*
X107625001Y-73897655D01*
X107603482Y-73906568D01*
X107406568Y-74103482D01*
X107300000Y-74360761D01*
X107300000Y-74639239D01*
X107406568Y-74896518D01*
X107603482Y-75093432D01*
X107860761Y-75200000D01*
X108139239Y-75200000D01*
X108396518Y-75093432D01*
X108593432Y-74896518D01*
X108700000Y-74639239D01*
X108700000Y-74360761D01*
X108593432Y-74103482D01*
X108396518Y-73906568D01*
X108375000Y-73897655D01*
X108375000Y-62610761D01*
X109050000Y-62610761D01*
X109050000Y-62889239D01*
X109156568Y-63146518D01*
X109353482Y-63343432D01*
X109375000Y-63352345D01*
X109375001Y-65147655D01*
X109353482Y-65156568D01*
X109156568Y-65353482D01*
X109050000Y-65610761D01*
X109050000Y-65889239D01*
X109156568Y-66146518D01*
X109353482Y-66343432D01*
X109375000Y-66352345D01*
X109375001Y-68147655D01*
X109353482Y-68156568D01*
X109156568Y-68353482D01*
X109050000Y-68610761D01*
X109050000Y-68889239D01*
X109156568Y-69146518D01*
X109353482Y-69343432D01*
X109375000Y-69352345D01*
X109375001Y-71147655D01*
X109353482Y-71156568D01*
X109156568Y-71353482D01*
X109050000Y-71610761D01*
X109050000Y-71889239D01*
X109156568Y-72146518D01*
X109353482Y-72343432D01*
X109375000Y-72352345D01*
X109375001Y-72897655D01*
X109353482Y-72906568D01*
X109156568Y-73103482D01*
X109050000Y-73360761D01*
X109050000Y-73639239D01*
X109156568Y-73896518D01*
X109260050Y-74000000D01*
X109156568Y-74103482D01*
X109050000Y-74360761D01*
X109050000Y-74639239D01*
X109156568Y-74896518D01*
X109353482Y-75093432D01*
X109375000Y-75102345D01*
X109375001Y-80463065D01*
X109375000Y-80463070D01*
X109375001Y-81396967D01*
X109367655Y-81433898D01*
X109396759Y-81580216D01*
X109458721Y-81672948D01*
X109458723Y-81672950D01*
X109479642Y-81704257D01*
X109510949Y-81725176D01*
X115782103Y-87996331D01*
X115773190Y-88017849D01*
X115773190Y-88296327D01*
X115879758Y-88553606D01*
X116076672Y-88750520D01*
X116333951Y-88857088D01*
X116612429Y-88857088D01*
X116869708Y-88750520D01*
X117066622Y-88553606D01*
X117112505Y-88442835D01*
X117308913Y-88639243D01*
X117300000Y-88660761D01*
X117300000Y-88939239D01*
X117406568Y-89196518D01*
X117603482Y-89393432D01*
X117860761Y-89500000D01*
X118139239Y-89500000D01*
X118396518Y-89393432D01*
X118593432Y-89196518D01*
X118606363Y-89165299D01*
X118615567Y-89187519D01*
X118812481Y-89384433D01*
X119069760Y-89491001D01*
X119348238Y-89491001D01*
X119605517Y-89384433D01*
X119802431Y-89187519D01*
X119908999Y-88930240D01*
X119908999Y-88651762D01*
X119802431Y-88394483D01*
X119605517Y-88197569D01*
X119348238Y-88091001D01*
X119069760Y-88091001D01*
X119048300Y-88099890D01*
X118955317Y-88037760D01*
X118865638Y-88019922D01*
X116022899Y-85177185D01*
X116022899Y-84262860D01*
X116103482Y-84343443D01*
X116125000Y-84352356D01*
X116125000Y-84373073D01*
X116117655Y-84409999D01*
X116125000Y-84446925D01*
X116125000Y-84446929D01*
X116146758Y-84556315D01*
X116146759Y-84556316D01*
X116146759Y-84556317D01*
X116167480Y-84587328D01*
X116229641Y-84680358D01*
X116260951Y-84701279D01*
X117512186Y-85952515D01*
X117512185Y-86260980D01*
X117504840Y-86297907D01*
X117512185Y-86334833D01*
X117512185Y-86334837D01*
X117533943Y-86444223D01*
X117616826Y-86568266D01*
X117648135Y-86589186D01*
X118298000Y-87239052D01*
X118318919Y-87270359D01*
X118350226Y-87291278D01*
X118442959Y-87353241D01*
X118442960Y-87353241D01*
X118442961Y-87353242D01*
X118552347Y-87375000D01*
X118552351Y-87375000D01*
X118589277Y-87382345D01*
X118626203Y-87375000D01*
X118697655Y-87375000D01*
X118706568Y-87396518D01*
X118903482Y-87593432D01*
X119160761Y-87700000D01*
X119439239Y-87700000D01*
X119696518Y-87593432D01*
X119893432Y-87396518D01*
X120000000Y-87139239D01*
X120000000Y-86860761D01*
X119893432Y-86603482D01*
X119696518Y-86406568D01*
X119439239Y-86300000D01*
X119245263Y-86300000D01*
X119324866Y-86107821D01*
X119324866Y-85829343D01*
X119218298Y-85572064D01*
X119021384Y-85375150D01*
X118999924Y-85366261D01*
X118999866Y-85365971D01*
X118999866Y-85365966D01*
X118978108Y-85256580D01*
X118934931Y-85191961D01*
X118916145Y-85163846D01*
X118916144Y-85163845D01*
X118895225Y-85132538D01*
X118863918Y-85111619D01*
X117575000Y-83822702D01*
X117575000Y-83336925D01*
X117582345Y-83299999D01*
X117575000Y-83263073D01*
X117575000Y-83263069D01*
X117553242Y-83153683D01*
X117519699Y-83103482D01*
X117491278Y-83060948D01*
X117470359Y-83029641D01*
X117439052Y-83008722D01*
X117191087Y-82760757D01*
X117200000Y-82739239D01*
X117200000Y-82460761D01*
X117093432Y-82203482D01*
X116896518Y-82006568D01*
X116639239Y-81900000D01*
X116360761Y-81900000D01*
X116103482Y-82006568D01*
X116022899Y-82087151D01*
X116022899Y-79950489D01*
X116349081Y-79624308D01*
X116370599Y-79633221D01*
X116649077Y-79633221D01*
X116906356Y-79526653D01*
X117103270Y-79329739D01*
X117209838Y-79072460D01*
X117209838Y-78793982D01*
X117103270Y-78536703D01*
X116906356Y-78339789D01*
X116649077Y-78233221D01*
X116370599Y-78233221D01*
X116113320Y-78339789D01*
X115916406Y-78536703D01*
X115809838Y-78793982D01*
X115809838Y-79072460D01*
X115818751Y-79093978D01*
X115698260Y-79214469D01*
X115698260Y-77465089D01*
X115719778Y-77456176D01*
X115916692Y-77259262D01*
X116023260Y-77001983D01*
X116023260Y-76723505D01*
X115916692Y-76466226D01*
X115719778Y-76269312D01*
X115462499Y-76162744D01*
X115184021Y-76162744D01*
X114926742Y-76269312D01*
X114729828Y-76466226D01*
X114623260Y-76723505D01*
X114623260Y-77001983D01*
X114729828Y-77259262D01*
X114926742Y-77456176D01*
X114948260Y-77465089D01*
X114948260Y-77465359D01*
X114948261Y-77465364D01*
X114948260Y-86086334D01*
X114945689Y-86099258D01*
X112485746Y-83639315D01*
X112596518Y-83593432D01*
X112793432Y-83396518D01*
X112900000Y-83139239D01*
X112900000Y-82860761D01*
X112793432Y-82603482D01*
X112625000Y-82435050D01*
X112625000Y-76102345D01*
X112646518Y-76093432D01*
X112843432Y-75896518D01*
X112868606Y-75835740D01*
X113050000Y-75835740D01*
X113050000Y-76114218D01*
X113156568Y-76371497D01*
X113353482Y-76568411D01*
X113375001Y-76577324D01*
X113375000Y-82897655D01*
X113353482Y-82906568D01*
X113156568Y-83103482D01*
X113050000Y-83360761D01*
X113050000Y-83639239D01*
X113156568Y-83896518D01*
X113353482Y-84093432D01*
X113610761Y-84200000D01*
X113889239Y-84200000D01*
X114146518Y-84093432D01*
X114343432Y-83896518D01*
X114450000Y-83639239D01*
X114450000Y-83360761D01*
X114343432Y-83103482D01*
X114146518Y-82906568D01*
X114125000Y-82897655D01*
X114125000Y-76577324D01*
X114146518Y-76568411D01*
X114343432Y-76371497D01*
X114450000Y-76114218D01*
X114450000Y-75835740D01*
X114343432Y-75578461D01*
X114146518Y-75381547D01*
X113889239Y-75274979D01*
X113610761Y-75274979D01*
X113353482Y-75381547D01*
X113156568Y-75578461D01*
X113050000Y-75835740D01*
X112868606Y-75835740D01*
X112950000Y-75639239D01*
X112950000Y-75360761D01*
X112843432Y-75103482D01*
X112646518Y-74906568D01*
X112389239Y-74800000D01*
X112110761Y-74800000D01*
X111853482Y-74906568D01*
X111656568Y-75103482D01*
X111550000Y-75360761D01*
X111550000Y-75639239D01*
X111656568Y-75896518D01*
X111853482Y-76093432D01*
X111875000Y-76102345D01*
X111875001Y-82376944D01*
X111803482Y-82406568D01*
X111606568Y-82603482D01*
X111560685Y-82714254D01*
X110125000Y-81278569D01*
X110125000Y-75102345D01*
X110146518Y-75093432D01*
X110343432Y-74896518D01*
X110450000Y-74639239D01*
X110450000Y-74360761D01*
X110343432Y-74103482D01*
X110239950Y-74000000D01*
X110343432Y-73896518D01*
X110450000Y-73639239D01*
X110450000Y-73360761D01*
X110343432Y-73103482D01*
X110146518Y-72906568D01*
X110125000Y-72897655D01*
X110125000Y-72352345D01*
X110146518Y-72343432D01*
X110343432Y-72146518D01*
X110450000Y-71889239D01*
X110450000Y-71610761D01*
X110343432Y-71353482D01*
X110146518Y-71156568D01*
X110125000Y-71147655D01*
X110125000Y-69352345D01*
X110146518Y-69343432D01*
X110343432Y-69146518D01*
X110450000Y-68889239D01*
X110450000Y-68610761D01*
X110343432Y-68353482D01*
X110146518Y-68156568D01*
X110125000Y-68147655D01*
X110125000Y-66352345D01*
X110146518Y-66343432D01*
X110343432Y-66146518D01*
X110450000Y-65889239D01*
X110450000Y-65610761D01*
X110343432Y-65353482D01*
X110146518Y-65156568D01*
X110125000Y-65147655D01*
X110125000Y-63352345D01*
X110146518Y-63343432D01*
X110343432Y-63146518D01*
X110450000Y-62889239D01*
X110450000Y-62610761D01*
X110343432Y-62353482D01*
X110146518Y-62156568D01*
X109889239Y-62050000D01*
X109610761Y-62050000D01*
X109353482Y-62156568D01*
X109156568Y-62353482D01*
X109050000Y-62610761D01*
X108375000Y-62610761D01*
X108375000Y-59610761D01*
X111800000Y-59610761D01*
X111800000Y-59889239D01*
X111906568Y-60146518D01*
X112103482Y-60343432D01*
X112125001Y-60352345D01*
X112125000Y-65147655D01*
X112103482Y-65156568D01*
X111906568Y-65353482D01*
X111800000Y-65610761D01*
X111800000Y-65889239D01*
X111906568Y-66146518D01*
X112103482Y-66343432D01*
X112125000Y-66352345D01*
X112125001Y-68147655D01*
X112103482Y-68156568D01*
X111906568Y-68353482D01*
X111800000Y-68610761D01*
X111800000Y-68889239D01*
X111906568Y-69146518D01*
X112103482Y-69343432D01*
X112125000Y-69352345D01*
X112125001Y-71147655D01*
X112103482Y-71156568D01*
X111906568Y-71353482D01*
X111800000Y-71610761D01*
X111800000Y-71889239D01*
X111906568Y-72146518D01*
X112103482Y-72343432D01*
X112125000Y-72352345D01*
X112125001Y-73147655D01*
X112103482Y-73156568D01*
X111906568Y-73353482D01*
X111800000Y-73610761D01*
X111800000Y-73889239D01*
X111906568Y-74146518D01*
X112103482Y-74343432D01*
X112360761Y-74450000D01*
X112639239Y-74450000D01*
X112896518Y-74343432D01*
X113093432Y-74146518D01*
X113200000Y-73889239D01*
X113200000Y-73610761D01*
X113093432Y-73353482D01*
X112896518Y-73156568D01*
X112875000Y-73147655D01*
X112875000Y-72352345D01*
X112896518Y-72343432D01*
X113093432Y-72146518D01*
X113200000Y-71889239D01*
X113200000Y-71610761D01*
X113093432Y-71353482D01*
X112896518Y-71156568D01*
X112875000Y-71147655D01*
X112875000Y-69352345D01*
X112896518Y-69343432D01*
X113093432Y-69146518D01*
X113200000Y-68889239D01*
X113200000Y-68610761D01*
X113093432Y-68353482D01*
X112896518Y-68156568D01*
X112875000Y-68147655D01*
X112875000Y-66352345D01*
X112896518Y-66343432D01*
X113093432Y-66146518D01*
X113200000Y-65889239D01*
X113200000Y-65610761D01*
X113093432Y-65353482D01*
X112896518Y-65156568D01*
X112875000Y-65147655D01*
X112875000Y-60352345D01*
X112896518Y-60343432D01*
X113093432Y-60146518D01*
X113200000Y-59889239D01*
X113200000Y-59610761D01*
X114300000Y-59610761D01*
X114300000Y-59889239D01*
X114406568Y-60146518D01*
X114603482Y-60343432D01*
X114625000Y-60352345D01*
X114625001Y-62147655D01*
X114603482Y-62156568D01*
X114406568Y-62353482D01*
X114300000Y-62610761D01*
X114300000Y-62889239D01*
X114406568Y-63146518D01*
X114603482Y-63343432D01*
X114625000Y-63352345D01*
X114625001Y-68147655D01*
X114603482Y-68156568D01*
X114406568Y-68353482D01*
X114300000Y-68610761D01*
X114300000Y-68889239D01*
X114406568Y-69146518D01*
X114603482Y-69343432D01*
X114625000Y-69352345D01*
X114625001Y-71147655D01*
X114603482Y-71156568D01*
X114406568Y-71353482D01*
X114300000Y-71610761D01*
X114300000Y-71889239D01*
X114406568Y-72146518D01*
X114603482Y-72343432D01*
X114625000Y-72352345D01*
X114625001Y-73147655D01*
X114603482Y-73156568D01*
X114406568Y-73353482D01*
X114300000Y-73610761D01*
X114300000Y-73889239D01*
X114406568Y-74146518D01*
X114603482Y-74343432D01*
X114860761Y-74450000D01*
X115139239Y-74450000D01*
X115396518Y-74343432D01*
X115593432Y-74146518D01*
X115700000Y-73889239D01*
X115700000Y-73610761D01*
X115593432Y-73353482D01*
X115396518Y-73156568D01*
X115375000Y-73147655D01*
X115375000Y-72352345D01*
X115396518Y-72343432D01*
X115593432Y-72146518D01*
X115700000Y-71889239D01*
X115700000Y-71610761D01*
X115593432Y-71353482D01*
X115396518Y-71156568D01*
X115375000Y-71147655D01*
X115375000Y-69352345D01*
X115396518Y-69343432D01*
X115593432Y-69146518D01*
X115700000Y-68889239D01*
X115700000Y-68610761D01*
X115593432Y-68353482D01*
X115396518Y-68156568D01*
X115375000Y-68147655D01*
X115375000Y-63352345D01*
X115396518Y-63343432D01*
X115593432Y-63146518D01*
X115700000Y-62889239D01*
X115700000Y-62610761D01*
X115593432Y-62353482D01*
X115396518Y-62156568D01*
X115375000Y-62147655D01*
X115375000Y-60352345D01*
X115396518Y-60343432D01*
X115593432Y-60146518D01*
X115700000Y-59889239D01*
X115700000Y-59610761D01*
X116800000Y-59610761D01*
X116800000Y-59889239D01*
X116906568Y-60146518D01*
X117103482Y-60343432D01*
X117125001Y-60352345D01*
X117125000Y-62147655D01*
X117103482Y-62156568D01*
X116906568Y-62353482D01*
X116800000Y-62610761D01*
X116800000Y-62889239D01*
X116906568Y-63146518D01*
X117103482Y-63343432D01*
X117125000Y-63352345D01*
X117125001Y-65147655D01*
X117103482Y-65156568D01*
X116906568Y-65353482D01*
X116800000Y-65610761D01*
X116800000Y-65889239D01*
X116906568Y-66146518D01*
X117103482Y-66343432D01*
X117125000Y-66352345D01*
X117125001Y-71147655D01*
X117103482Y-71156568D01*
X116906568Y-71353482D01*
X116800000Y-71610761D01*
X116800000Y-71889239D01*
X116906568Y-72146518D01*
X117103482Y-72343432D01*
X117125001Y-72352345D01*
X117125001Y-73147655D01*
X117103482Y-73156568D01*
X116906568Y-73353482D01*
X116800000Y-73610761D01*
X116800000Y-73889239D01*
X116906568Y-74146518D01*
X117103482Y-74343432D01*
X117360761Y-74450000D01*
X117639239Y-74450000D01*
X117896518Y-74343432D01*
X118093432Y-74146518D01*
X118200000Y-73889239D01*
X118200000Y-73610761D01*
X118093432Y-73353482D01*
X117896518Y-73156568D01*
X117875000Y-73147655D01*
X117875000Y-72352345D01*
X117896518Y-72343432D01*
X118093432Y-72146518D01*
X118200000Y-71889239D01*
X118200000Y-71610761D01*
X118093432Y-71353482D01*
X117896518Y-71156568D01*
X117875000Y-71147655D01*
X117875000Y-66352345D01*
X117896518Y-66343432D01*
X118093432Y-66146518D01*
X118200000Y-65889239D01*
X118200000Y-65610761D01*
X118093432Y-65353482D01*
X117896518Y-65156568D01*
X117875000Y-65147655D01*
X117875000Y-63352345D01*
X117896518Y-63343432D01*
X118093432Y-63146518D01*
X118200000Y-62889239D01*
X118200000Y-62610761D01*
X118093432Y-62353482D01*
X117896518Y-62156568D01*
X117875000Y-62147655D01*
X117875000Y-60352345D01*
X117896518Y-60343432D01*
X118093432Y-60146518D01*
X118200000Y-59889239D01*
X118200000Y-59610761D01*
X119299990Y-59610761D01*
X119299990Y-59889239D01*
X119406558Y-60146518D01*
X119603472Y-60343432D01*
X119625001Y-60352350D01*
X119625000Y-62147655D01*
X119603482Y-62156568D01*
X119406568Y-62353482D01*
X119300000Y-62610761D01*
X119300000Y-62889239D01*
X119406568Y-63146518D01*
X119603482Y-63343432D01*
X119625000Y-63352345D01*
X119625001Y-65147655D01*
X119603482Y-65156568D01*
X119406568Y-65353482D01*
X119300000Y-65610761D01*
X119300000Y-65889239D01*
X119406568Y-66146518D01*
X119603482Y-66343432D01*
X119625000Y-66352345D01*
X119625001Y-68147655D01*
X119603482Y-68156568D01*
X119406568Y-68353482D01*
X119300000Y-68610761D01*
X119300000Y-68889239D01*
X119406568Y-69146518D01*
X119603482Y-69343432D01*
X119625000Y-69352345D01*
X119625001Y-74897655D01*
X119603482Y-74906568D01*
X119406568Y-75103482D01*
X119300000Y-75360761D01*
X119300000Y-75639239D01*
X119406568Y-75896518D01*
X119603482Y-76093432D01*
X119860761Y-76200000D01*
X120139239Y-76200000D01*
X120396518Y-76093432D01*
X120593432Y-75896518D01*
X120700000Y-75639239D01*
X120700000Y-75360761D01*
X120593432Y-75103482D01*
X120396518Y-74906568D01*
X120375000Y-74897655D01*
X120375000Y-69352345D01*
X120396518Y-69343432D01*
X120593432Y-69146518D01*
X120700000Y-68889239D01*
X120700000Y-68610761D01*
X120593432Y-68353482D01*
X120396518Y-68156568D01*
X120375000Y-68147655D01*
X120375000Y-66352345D01*
X120396518Y-66343432D01*
X120593432Y-66146518D01*
X120700000Y-65889239D01*
X120700000Y-65610761D01*
X120593432Y-65353482D01*
X120396518Y-65156568D01*
X120375000Y-65147655D01*
X120375000Y-63352345D01*
X120396518Y-63343432D01*
X120593432Y-63146518D01*
X120700000Y-62889239D01*
X120700000Y-62610761D01*
X120593432Y-62353482D01*
X120396518Y-62156568D01*
X120375000Y-62147655D01*
X120375000Y-60352341D01*
X120396508Y-60343432D01*
X120593422Y-60146518D01*
X120699990Y-59889239D01*
X120699990Y-59610761D01*
X121800000Y-59610761D01*
X121800000Y-59889239D01*
X121906568Y-60146518D01*
X122103482Y-60343432D01*
X122125001Y-60352345D01*
X122125000Y-62147655D01*
X122103482Y-62156568D01*
X121906568Y-62353482D01*
X121800000Y-62610761D01*
X121800000Y-62889239D01*
X121906568Y-63146518D01*
X122103482Y-63343432D01*
X122125000Y-63352345D01*
X122125001Y-65147655D01*
X122103482Y-65156568D01*
X121906568Y-65353482D01*
X121800000Y-65610761D01*
X121800000Y-65889239D01*
X121906568Y-66146518D01*
X122103482Y-66343432D01*
X122125000Y-66352345D01*
X122125001Y-68147655D01*
X122103482Y-68156568D01*
X121906568Y-68353482D01*
X121800000Y-68610761D01*
X121800000Y-68889239D01*
X121906568Y-69146518D01*
X122103482Y-69343432D01*
X122125000Y-69352345D01*
X122125001Y-71147655D01*
X122103482Y-71156568D01*
X121906568Y-71353482D01*
X121800000Y-71610761D01*
X121800000Y-71889239D01*
X121906568Y-72146518D01*
X122103482Y-72343432D01*
X122125000Y-72352345D01*
X122125001Y-73147655D01*
X122103482Y-73156568D01*
X121906568Y-73353482D01*
X121800000Y-73610761D01*
X121800000Y-73889239D01*
X121906568Y-74146518D01*
X122103482Y-74343432D01*
X122360761Y-74450000D01*
X122639239Y-74450000D01*
X122896518Y-74343432D01*
X123093432Y-74146518D01*
X123200000Y-73889239D01*
X123200000Y-73610761D01*
X123093432Y-73353482D01*
X122896518Y-73156568D01*
X122875000Y-73147655D01*
X122875000Y-72352345D01*
X122896518Y-72343432D01*
X123093432Y-72146518D01*
X123200000Y-71889239D01*
X123200000Y-71610761D01*
X123093432Y-71353482D01*
X122896518Y-71156568D01*
X122875000Y-71147655D01*
X122875000Y-69352345D01*
X122896518Y-69343432D01*
X123093432Y-69146518D01*
X123200000Y-68889239D01*
X123200000Y-68610761D01*
X123093432Y-68353482D01*
X122896518Y-68156568D01*
X122875000Y-68147655D01*
X122875000Y-66352345D01*
X122896518Y-66343432D01*
X123093432Y-66146518D01*
X123200000Y-65889239D01*
X123200000Y-65610761D01*
X123093432Y-65353482D01*
X122896518Y-65156568D01*
X122875000Y-65147655D01*
X122875000Y-63352345D01*
X122896518Y-63343432D01*
X123093432Y-63146518D01*
X123200000Y-62889239D01*
X123200000Y-62610761D01*
X123093432Y-62353482D01*
X122896518Y-62156568D01*
X122875000Y-62147655D01*
X122875000Y-60352345D01*
X122896518Y-60343432D01*
X123093432Y-60146518D01*
X123200000Y-59889239D01*
X123200000Y-59610761D01*
X123093432Y-59353482D01*
X122896518Y-59156568D01*
X122639239Y-59050000D01*
X122360761Y-59050000D01*
X122103482Y-59156568D01*
X121906568Y-59353482D01*
X121800000Y-59610761D01*
X120699990Y-59610761D01*
X120593422Y-59353482D01*
X120396508Y-59156568D01*
X120139229Y-59050000D01*
X119860751Y-59050000D01*
X119603472Y-59156568D01*
X119406558Y-59353482D01*
X119299990Y-59610761D01*
X118200000Y-59610761D01*
X118093432Y-59353482D01*
X117896518Y-59156568D01*
X117639239Y-59050000D01*
X117360761Y-59050000D01*
X117103482Y-59156568D01*
X116906568Y-59353482D01*
X116800000Y-59610761D01*
X115700000Y-59610761D01*
X115593432Y-59353482D01*
X115396518Y-59156568D01*
X115139239Y-59050000D01*
X114860761Y-59050000D01*
X114603482Y-59156568D01*
X114406568Y-59353482D01*
X114300000Y-59610761D01*
X113200000Y-59610761D01*
X113093432Y-59353482D01*
X112896518Y-59156568D01*
X112639239Y-59050000D01*
X112360761Y-59050000D01*
X112103482Y-59156568D01*
X111906568Y-59353482D01*
X111800000Y-59610761D01*
X108375000Y-59610761D01*
X108375000Y-58852345D01*
X108396518Y-58843432D01*
X108593432Y-58646518D01*
X108700000Y-58389239D01*
X108700000Y-58110761D01*
X108593432Y-57853482D01*
X108396518Y-57656568D01*
X108139239Y-57550000D01*
X107860761Y-57550000D01*
X107603482Y-57656568D01*
X107406568Y-57853482D01*
X107300000Y-58110761D01*
X100382011Y-58110761D01*
X100421726Y-57745182D01*
X100631813Y-57120918D01*
X100788131Y-56860761D01*
X124300000Y-56860761D01*
X124300000Y-57139239D01*
X124406568Y-57396518D01*
X124603482Y-57593432D01*
X124625001Y-57602345D01*
X124625000Y-59147655D01*
X124603482Y-59156568D01*
X124406568Y-59353482D01*
X124300000Y-59610761D01*
X124300000Y-59889239D01*
X124406568Y-60146518D01*
X124603482Y-60343432D01*
X124625001Y-60352345D01*
X124625000Y-62147655D01*
X124603482Y-62156568D01*
X124406568Y-62353482D01*
X124300000Y-62610761D01*
X124300000Y-62889239D01*
X124406568Y-63146518D01*
X124603482Y-63343432D01*
X124625000Y-63352345D01*
X124625001Y-65147655D01*
X124603482Y-65156568D01*
X124406568Y-65353482D01*
X124300000Y-65610761D01*
X124300000Y-65889239D01*
X124406568Y-66146518D01*
X124603482Y-66343432D01*
X124625000Y-66352345D01*
X124625001Y-68147655D01*
X124603482Y-68156568D01*
X124406568Y-68353482D01*
X124300000Y-68610761D01*
X124300000Y-68889239D01*
X124406568Y-69146518D01*
X124603482Y-69343432D01*
X124625000Y-69352345D01*
X124625001Y-71147655D01*
X124603482Y-71156568D01*
X124406568Y-71353482D01*
X124300000Y-71610761D01*
X124300000Y-71889239D01*
X124406568Y-72146518D01*
X124603482Y-72343432D01*
X124625000Y-72352345D01*
X124625001Y-73147655D01*
X124603482Y-73156568D01*
X124406568Y-73353482D01*
X124300000Y-73610761D01*
X124300000Y-73889239D01*
X124406568Y-74146518D01*
X124603482Y-74343432D01*
X124860761Y-74450000D01*
X125139239Y-74450000D01*
X125396518Y-74343432D01*
X125593432Y-74146518D01*
X125700000Y-73889239D01*
X125700000Y-73610761D01*
X125593432Y-73353482D01*
X125396518Y-73156568D01*
X125375000Y-73147655D01*
X125375000Y-72352345D01*
X125396518Y-72343432D01*
X125593432Y-72146518D01*
X125700000Y-71889239D01*
X125700000Y-71610761D01*
X125593432Y-71353482D01*
X125396518Y-71156568D01*
X125375000Y-71147655D01*
X125375000Y-69352345D01*
X125396518Y-69343432D01*
X125593432Y-69146518D01*
X125700000Y-68889239D01*
X125700000Y-68610761D01*
X125593432Y-68353482D01*
X125396518Y-68156568D01*
X125375000Y-68147655D01*
X125375000Y-66352345D01*
X125396518Y-66343432D01*
X125593432Y-66146518D01*
X125700000Y-65889239D01*
X125700000Y-65610761D01*
X125593432Y-65353482D01*
X125396518Y-65156568D01*
X125375000Y-65147655D01*
X125375000Y-63352345D01*
X125396518Y-63343432D01*
X125593432Y-63146518D01*
X125700000Y-62889239D01*
X125700000Y-62610761D01*
X125593432Y-62353482D01*
X125396518Y-62156568D01*
X125375000Y-62147655D01*
X125375000Y-60352345D01*
X125396518Y-60343432D01*
X125593432Y-60146518D01*
X125700000Y-59889239D01*
X125700000Y-59610761D01*
X125593432Y-59353482D01*
X125396518Y-59156568D01*
X125375000Y-59147655D01*
X125375000Y-57602345D01*
X125396518Y-57593432D01*
X125593432Y-57396518D01*
X125700000Y-57139239D01*
X125700000Y-56860761D01*
X125593432Y-56603482D01*
X125396518Y-56406568D01*
X125139239Y-56300000D01*
X124860761Y-56300000D01*
X124603482Y-56406568D01*
X124406568Y-56603482D01*
X124300000Y-56860761D01*
X100788131Y-56860761D01*
X100971053Y-56556329D01*
X101274199Y-56235761D01*
X126800000Y-56235761D01*
X126800000Y-56514239D01*
X126906568Y-56771518D01*
X127103482Y-56968432D01*
X127125001Y-56977345D01*
X127125000Y-59147655D01*
X127103482Y-59156568D01*
X126906568Y-59353482D01*
X126800000Y-59610761D01*
X126800000Y-59889239D01*
X126906568Y-60146518D01*
X127103482Y-60343432D01*
X127125001Y-60352345D01*
X127125000Y-62147655D01*
X127103482Y-62156568D01*
X126906568Y-62353482D01*
X126800000Y-62610761D01*
X126800000Y-62889239D01*
X126906568Y-63146518D01*
X127103482Y-63343432D01*
X127125000Y-63352345D01*
X127125001Y-65147655D01*
X127103482Y-65156568D01*
X126906568Y-65353482D01*
X126800000Y-65610761D01*
X126800000Y-65889239D01*
X126906568Y-66146518D01*
X127103482Y-66343432D01*
X127125000Y-66352345D01*
X127125001Y-68147655D01*
X127103482Y-68156568D01*
X126906568Y-68353482D01*
X126800000Y-68610761D01*
X126800000Y-68889239D01*
X126906568Y-69146518D01*
X127103482Y-69343432D01*
X127125000Y-69352345D01*
X127125001Y-71147655D01*
X127103482Y-71156568D01*
X126906568Y-71353482D01*
X126800000Y-71610761D01*
X126800000Y-71889239D01*
X126906568Y-72146518D01*
X127103482Y-72343432D01*
X127125000Y-72352345D01*
X127125001Y-73147655D01*
X127103482Y-73156568D01*
X126906568Y-73353482D01*
X126800000Y-73610761D01*
X126800000Y-73889239D01*
X126906568Y-74146518D01*
X127103482Y-74343432D01*
X127360761Y-74450000D01*
X127639239Y-74450000D01*
X127896518Y-74343432D01*
X128093432Y-74146518D01*
X128200000Y-73889239D01*
X128200000Y-73610761D01*
X128093432Y-73353482D01*
X127896518Y-73156568D01*
X127875000Y-73147655D01*
X127875000Y-72352345D01*
X127896518Y-72343432D01*
X128093432Y-72146518D01*
X128200000Y-71889239D01*
X128200000Y-71610761D01*
X128093432Y-71353482D01*
X127896518Y-71156568D01*
X127875000Y-71147655D01*
X127875000Y-69352345D01*
X127896518Y-69343432D01*
X128093432Y-69146518D01*
X128200000Y-68889239D01*
X128200000Y-68610761D01*
X128093432Y-68353482D01*
X127896518Y-68156568D01*
X127875000Y-68147655D01*
X127875000Y-66352345D01*
X127896518Y-66343432D01*
X128093432Y-66146518D01*
X128200000Y-65889239D01*
X128200000Y-65610761D01*
X128093432Y-65353482D01*
X127896518Y-65156568D01*
X127875000Y-65147655D01*
X127875000Y-63352345D01*
X127896518Y-63343432D01*
X128093432Y-63146518D01*
X128200000Y-62889239D01*
X128200000Y-62610761D01*
X128093432Y-62353482D01*
X127896518Y-62156568D01*
X127875000Y-62147655D01*
X127875000Y-60352345D01*
X127896518Y-60343432D01*
X128093432Y-60146518D01*
X128200000Y-59889239D01*
X128200000Y-59610761D01*
X128093432Y-59353482D01*
X127896518Y-59156568D01*
X127875000Y-59147655D01*
X127875000Y-56977345D01*
X127896518Y-56968432D01*
X128093432Y-56771518D01*
X128200000Y-56514239D01*
X128200000Y-56235761D01*
X128093432Y-55978482D01*
X127896518Y-55781568D01*
X127639239Y-55675000D01*
X127360761Y-55675000D01*
X127103482Y-55781568D01*
X126906568Y-55978482D01*
X126800000Y-56235761D01*
X101274199Y-56235761D01*
X101423618Y-56077755D01*
X101968387Y-55707530D01*
X102579954Y-55462921D01*
X103246295Y-55352609D01*
X103307463Y-55350000D01*
X129410050Y-55350000D01*
X129406568Y-55353482D01*
X129406568Y-55353482D01*
G37*
X129406568Y-55353482D02*
X129300000Y-55610761D01*
X129300000Y-55889239D01*
X129406568Y-56146518D01*
X129603482Y-56343432D01*
X129625001Y-56352345D01*
X129625000Y-59147655D01*
X129603482Y-59156568D01*
X129406568Y-59353482D01*
X129300000Y-59610761D01*
X129300000Y-59889239D01*
X129406568Y-60146518D01*
X129603482Y-60343432D01*
X129625001Y-60352345D01*
X129625001Y-62147655D01*
X129603482Y-62156568D01*
X129406568Y-62353482D01*
X129300000Y-62610761D01*
X129300000Y-62889239D01*
X129406568Y-63146518D01*
X129603482Y-63343432D01*
X129625000Y-63352345D01*
X129625000Y-65147655D01*
X129603482Y-65156568D01*
X129406568Y-65353482D01*
X129300000Y-65610761D01*
X129300000Y-65889239D01*
X129406568Y-66146518D01*
X129603482Y-66343432D01*
X129625000Y-66352345D01*
X129625001Y-68147655D01*
X129603482Y-68156568D01*
X129406568Y-68353482D01*
X129300000Y-68610761D01*
X129300000Y-68889239D01*
X129406568Y-69146518D01*
X129603482Y-69343432D01*
X129625000Y-69352345D01*
X129625001Y-71147655D01*
X129603482Y-71156568D01*
X129406568Y-71353482D01*
X129300000Y-71610761D01*
X129300000Y-71889239D01*
X129406568Y-72146518D01*
X129603482Y-72343432D01*
X129625000Y-72352345D01*
X129625001Y-73147655D01*
X129603482Y-73156568D01*
X129406568Y-73353482D01*
X129300000Y-73610761D01*
X129300000Y-73889239D01*
X129406568Y-74146518D01*
X129603482Y-74343432D01*
X129860761Y-74450000D01*
X130139239Y-74450000D01*
X130396518Y-74343432D01*
X130593432Y-74146518D01*
X130700000Y-73889239D01*
X130700000Y-73610761D01*
X130593432Y-73353482D01*
X130396518Y-73156568D01*
X130375000Y-73147655D01*
X130375000Y-72352345D01*
X130396518Y-72343432D01*
X130593432Y-72146518D01*
X130700000Y-71889239D01*
X130700000Y-71610761D01*
X130593432Y-71353482D01*
X130396518Y-71156568D01*
X130375000Y-71147655D01*
X130375000Y-69352345D01*
X130396518Y-69343432D01*
X130593432Y-69146518D01*
X130700000Y-68889239D01*
X130700000Y-68610761D01*
X130593432Y-68353482D01*
X130396518Y-68156568D01*
X130375000Y-68147655D01*
X130375000Y-66352345D01*
X130396518Y-66343432D01*
X130593432Y-66146518D01*
X130700000Y-65889239D01*
X130700000Y-65610761D01*
X130593432Y-65353482D01*
X130396518Y-65156568D01*
X130375000Y-65147655D01*
X130375000Y-63352345D01*
X130396518Y-63343432D01*
X130593432Y-63146518D01*
X130700000Y-62889239D01*
X130700000Y-62610761D01*
X130593432Y-62353482D01*
X130396518Y-62156568D01*
X130375000Y-62147655D01*
X130375000Y-60352345D01*
X130396518Y-60343432D01*
X130593432Y-60146518D01*
X130700000Y-59889239D01*
X130700000Y-59610761D01*
X131800000Y-59610761D01*
X131800000Y-59889239D01*
X131906568Y-60146518D01*
X132103482Y-60343432D01*
X132125001Y-60352345D01*
X132125001Y-62147655D01*
X132103482Y-62156568D01*
X131906568Y-62353482D01*
X131800000Y-62610761D01*
X131800000Y-62889239D01*
X131906568Y-63146518D01*
X132103482Y-63343432D01*
X132125000Y-63352345D01*
X132125000Y-65147655D01*
X132103482Y-65156568D01*
X131906568Y-65353482D01*
X131800000Y-65610761D01*
X131800000Y-65889239D01*
X131906568Y-66146518D01*
X132103482Y-66343432D01*
X132125000Y-66352345D01*
X132125001Y-68147655D01*
X132103482Y-68156568D01*
X131906568Y-68353482D01*
X131800000Y-68610761D01*
X131800000Y-68889239D01*
X131906568Y-69146518D01*
X132103482Y-69343432D01*
X132125000Y-69352345D01*
X132125000Y-71147655D01*
X132103482Y-71156568D01*
X131906568Y-71353482D01*
X131800000Y-71610761D01*
X131800000Y-71889239D01*
X131906568Y-72146518D01*
X132103482Y-72343432D01*
X132125001Y-72352345D01*
X132125001Y-73147655D01*
X132103482Y-73156568D01*
X131906568Y-73353482D01*
X131800000Y-73610761D01*
X131800000Y-73889239D01*
X131906568Y-74146518D01*
X132103482Y-74343432D01*
X132360761Y-74450000D01*
X132639239Y-74450000D01*
X132800000Y-74383411D01*
X132800000Y-74589239D01*
X132906568Y-74846518D01*
X133103482Y-75043432D01*
X133125000Y-75052345D01*
X133125001Y-83397655D01*
X133103482Y-83406568D01*
X132906568Y-83603482D01*
X132800000Y-83860761D01*
X132800000Y-84139239D01*
X132906568Y-84396518D01*
X133103482Y-84593432D01*
X133360761Y-84700000D01*
X133639239Y-84700000D01*
X133896518Y-84593432D01*
X134093432Y-84396518D01*
X134200000Y-84139239D01*
X134200000Y-83860761D01*
X134093432Y-83603482D01*
X133896518Y-83406568D01*
X133875000Y-83397655D01*
X133875000Y-78060761D01*
X157200000Y-78060761D01*
X157200000Y-78339239D01*
X157306568Y-78596518D01*
X157503482Y-78793432D01*
X157525001Y-78802345D01*
X157525000Y-81497655D01*
X157503482Y-81506568D01*
X157306568Y-81703482D01*
X157200000Y-81960761D01*
X157200000Y-82239239D01*
X157306568Y-82496518D01*
X157503482Y-82693432D01*
X157760761Y-82800000D01*
X158039239Y-82800000D01*
X158296518Y-82693432D01*
X158493432Y-82496518D01*
X158600000Y-82239239D01*
X158600000Y-81960761D01*
X158493432Y-81703482D01*
X158296518Y-81506568D01*
X158275000Y-81497655D01*
X158275000Y-78802345D01*
X158296518Y-78793432D01*
X158493432Y-78596518D01*
X158600000Y-78339239D01*
X158600000Y-78060761D01*
X158493432Y-77803482D01*
X158296518Y-77606568D01*
X158039239Y-77500000D01*
X157760761Y-77500000D01*
X157503482Y-77606568D01*
X157306568Y-77803482D01*
X157200000Y-78060761D01*
X133875000Y-78060761D01*
X133875000Y-76235740D01*
X159546961Y-76235740D01*
X159546961Y-76514218D01*
X159653529Y-76771497D01*
X159850443Y-76968411D01*
X160107722Y-77074979D01*
X160386200Y-77074979D01*
X160643479Y-76968411D01*
X160840393Y-76771497D01*
X160946961Y-76514218D01*
X160946961Y-76235740D01*
X160840393Y-75978461D01*
X160643479Y-75781547D01*
X160625000Y-75773893D01*
X160625000Y-64852345D01*
X160646518Y-64843432D01*
X160843432Y-64646518D01*
X160950000Y-64389239D01*
X160950000Y-64110761D01*
X160843432Y-63853482D01*
X160646518Y-63656568D01*
X160389239Y-63550000D01*
X160110761Y-63550000D01*
X159853482Y-63656568D01*
X159656568Y-63853482D01*
X159550000Y-64110761D01*
X159550000Y-64389239D01*
X159656568Y-64646518D01*
X159853482Y-64843432D01*
X159875000Y-64852345D01*
X159875001Y-75771375D01*
X159850443Y-75781547D01*
X159653529Y-75978461D01*
X159546961Y-76235740D01*
X133875000Y-76235740D01*
X133875000Y-75052345D01*
X133896518Y-75043432D01*
X134093432Y-74846518D01*
X134200000Y-74589239D01*
X134200000Y-74310761D01*
X134093432Y-74053482D01*
X133896518Y-73856568D01*
X133639239Y-73750000D01*
X133360761Y-73750000D01*
X133200000Y-73816589D01*
X133200000Y-73610761D01*
X133093432Y-73353482D01*
X132896518Y-73156568D01*
X132875000Y-73147655D01*
X132875000Y-72352345D01*
X132896518Y-72343432D01*
X133093432Y-72146518D01*
X133200000Y-71889239D01*
X133200000Y-71610761D01*
X133093432Y-71353482D01*
X132896518Y-71156568D01*
X132875000Y-71147655D01*
X132875000Y-69352345D01*
X132896518Y-69343432D01*
X133093432Y-69146518D01*
X133200000Y-68889239D01*
X133200000Y-68610761D01*
X133093432Y-68353482D01*
X132896518Y-68156568D01*
X132875000Y-68147655D01*
X132875000Y-66352345D01*
X132896518Y-66343432D01*
X133093432Y-66146518D01*
X133200000Y-65889239D01*
X133200000Y-65610761D01*
X133093432Y-65353482D01*
X132896518Y-65156568D01*
X132875000Y-65147655D01*
X132875000Y-63352345D01*
X132896518Y-63343432D01*
X133093432Y-63146518D01*
X133200000Y-62889239D01*
X133200000Y-62610761D01*
X133093432Y-62353482D01*
X132896518Y-62156568D01*
X132875000Y-62147655D01*
X132875000Y-60352345D01*
X132896518Y-60343432D01*
X133093432Y-60146518D01*
X133200000Y-59889239D01*
X133200000Y-59610761D01*
X134300000Y-59610761D01*
X134300000Y-59889239D01*
X134406568Y-60146518D01*
X134603482Y-60343432D01*
X134625001Y-60352345D01*
X134625000Y-62147655D01*
X134603482Y-62156568D01*
X134406568Y-62353482D01*
X134300000Y-62610761D01*
X134300000Y-62889239D01*
X134406568Y-63146518D01*
X134603482Y-63343432D01*
X134625000Y-63352345D01*
X134625001Y-65147655D01*
X134603482Y-65156568D01*
X134406568Y-65353482D01*
X134300000Y-65610761D01*
X134300000Y-65889239D01*
X134406568Y-66146518D01*
X134603482Y-66343432D01*
X134625000Y-66352345D01*
X134625001Y-68147655D01*
X134603482Y-68156568D01*
X134406568Y-68353482D01*
X134300000Y-68610761D01*
X134300000Y-68889239D01*
X134406568Y-69146518D01*
X134603482Y-69343432D01*
X134625000Y-69352345D01*
X134625001Y-71397655D01*
X134603482Y-71406568D01*
X134406568Y-71603482D01*
X134300000Y-71860761D01*
X134300000Y-72139239D01*
X134406568Y-72396518D01*
X134603482Y-72593432D01*
X134860761Y-72700000D01*
X135139239Y-72700000D01*
X135396518Y-72593432D01*
X135593432Y-72396518D01*
X135700000Y-72139239D01*
X135700000Y-71860761D01*
X135593432Y-71603482D01*
X135396518Y-71406568D01*
X135375000Y-71397655D01*
X135375000Y-69352345D01*
X135396518Y-69343432D01*
X135593432Y-69146518D01*
X135700000Y-68889239D01*
X135700000Y-68610761D01*
X135593432Y-68353482D01*
X135396518Y-68156568D01*
X135375000Y-68147655D01*
X135375000Y-66352345D01*
X135396518Y-66343432D01*
X135593432Y-66146518D01*
X135700000Y-65889239D01*
X135700000Y-65610761D01*
X135593432Y-65353482D01*
X135396518Y-65156568D01*
X135375000Y-65147655D01*
X135375000Y-63352345D01*
X135396518Y-63343432D01*
X135593432Y-63146518D01*
X135700000Y-62889239D01*
X135700000Y-62610761D01*
X135593432Y-62353482D01*
X135396518Y-62156568D01*
X135375000Y-62147655D01*
X135375000Y-60352345D01*
X135396518Y-60343432D01*
X135593432Y-60146518D01*
X135700000Y-59889239D01*
X135700000Y-59610761D01*
X136800000Y-59610761D01*
X136800000Y-59889239D01*
X136906568Y-60146518D01*
X137103482Y-60343432D01*
X137125001Y-60352345D01*
X137125000Y-62147655D01*
X137103482Y-62156568D01*
X136906568Y-62353482D01*
X136800000Y-62610761D01*
X136800000Y-62889239D01*
X136906568Y-63146518D01*
X137103482Y-63343432D01*
X137125000Y-63352345D01*
X137125001Y-65147669D01*
X137103482Y-65156582D01*
X136906568Y-65353496D01*
X136800000Y-65610775D01*
X136800000Y-65889253D01*
X136906568Y-66146532D01*
X137103482Y-66343446D01*
X137125001Y-66352359D01*
X137125000Y-68147655D01*
X137103482Y-68156568D01*
X136906568Y-68353482D01*
X136800000Y-68610761D01*
X136800000Y-68889239D01*
X136906568Y-69146518D01*
X137103482Y-69343432D01*
X137125000Y-69352345D01*
X137125001Y-71397655D01*
X137103482Y-71406568D01*
X136906568Y-71603482D01*
X136800000Y-71860761D01*
X136800000Y-72139239D01*
X136906568Y-72396518D01*
X137103482Y-72593432D01*
X137360761Y-72700000D01*
X137639239Y-72700000D01*
X137896518Y-72593432D01*
X138093432Y-72396518D01*
X138200000Y-72139239D01*
X138200000Y-71860761D01*
X138093432Y-71603482D01*
X137896518Y-71406568D01*
X137875000Y-71397655D01*
X137875000Y-69352345D01*
X137896518Y-69343432D01*
X138093432Y-69146518D01*
X138200000Y-68889239D01*
X138200000Y-68610761D01*
X138093432Y-68353482D01*
X137896518Y-68156568D01*
X137875000Y-68147655D01*
X137875000Y-66352359D01*
X137896518Y-66343446D01*
X138093432Y-66146532D01*
X138200000Y-65889253D01*
X138200000Y-65610775D01*
X138093432Y-65353496D01*
X137896518Y-65156582D01*
X137875000Y-65147669D01*
X137875000Y-63352345D01*
X137896518Y-63343432D01*
X138093432Y-63146518D01*
X138200000Y-62889239D01*
X138200000Y-62610761D01*
X138093432Y-62353482D01*
X137896518Y-62156568D01*
X137875000Y-62147655D01*
X137875000Y-60352345D01*
X137896518Y-60343432D01*
X138093432Y-60146518D01*
X138200000Y-59889239D01*
X138200000Y-59610761D01*
X139300000Y-59610761D01*
X139300000Y-59889239D01*
X139406568Y-60146518D01*
X139603482Y-60343432D01*
X139625001Y-60352345D01*
X139625000Y-62147655D01*
X139603482Y-62156568D01*
X139406568Y-62353482D01*
X139300000Y-62610761D01*
X139300000Y-62889239D01*
X139406568Y-63146518D01*
X139603482Y-63343432D01*
X139625000Y-63352345D01*
X139625001Y-65147655D01*
X139603482Y-65156568D01*
X139406568Y-65353482D01*
X139300000Y-65610761D01*
X139300000Y-65889239D01*
X139406568Y-66146518D01*
X139603482Y-66343432D01*
X139625000Y-66352345D01*
X139625001Y-68147655D01*
X139603482Y-68156568D01*
X139406568Y-68353482D01*
X139300000Y-68610761D01*
X139300000Y-68889239D01*
X139406568Y-69146518D01*
X139603482Y-69343432D01*
X139625000Y-69352345D01*
X139625001Y-71397655D01*
X139603482Y-71406568D01*
X139406568Y-71603482D01*
X139300000Y-71860761D01*
X139300000Y-72139239D01*
X139406568Y-72396518D01*
X139603482Y-72593432D01*
X139860761Y-72700000D01*
X140139239Y-72700000D01*
X140396518Y-72593432D01*
X140593432Y-72396518D01*
X140700000Y-72139239D01*
X140700000Y-71860761D01*
X140593432Y-71603482D01*
X140396518Y-71406568D01*
X140375000Y-71397655D01*
X140375000Y-69352345D01*
X140396518Y-69343432D01*
X140593432Y-69146518D01*
X140700000Y-68889239D01*
X140700000Y-68610761D01*
X140593432Y-68353482D01*
X140396518Y-68156568D01*
X140375000Y-68147655D01*
X140375000Y-66352345D01*
X140396518Y-66343432D01*
X140593432Y-66146518D01*
X140700000Y-65889239D01*
X140700000Y-65610761D01*
X140593432Y-65353482D01*
X140396518Y-65156568D01*
X140375000Y-65147655D01*
X140375000Y-63352345D01*
X140396518Y-63343432D01*
X140593432Y-63146518D01*
X140700000Y-62889239D01*
X140700000Y-62610761D01*
X140593432Y-62353482D01*
X140396518Y-62156568D01*
X140375000Y-62147655D01*
X140375000Y-60352345D01*
X140396518Y-60343432D01*
X140593432Y-60146518D01*
X140700000Y-59889239D01*
X140700000Y-59610761D01*
X141800000Y-59610761D01*
X141800000Y-59889239D01*
X141906568Y-60146518D01*
X142103482Y-60343432D01*
X142125001Y-60352345D01*
X142125000Y-62147655D01*
X142103482Y-62156568D01*
X141906568Y-62353482D01*
X141800000Y-62610761D01*
X141800000Y-62889239D01*
X141906568Y-63146518D01*
X142103482Y-63343432D01*
X142125000Y-63352345D01*
X142125001Y-65147655D01*
X142103482Y-65156568D01*
X141906568Y-65353482D01*
X141800000Y-65610761D01*
X141800000Y-65889239D01*
X141906568Y-66146518D01*
X142103482Y-66343432D01*
X142125000Y-66352345D01*
X142125000Y-68147655D01*
X142103482Y-68156568D01*
X141906568Y-68353482D01*
X141800000Y-68610761D01*
X141800000Y-68889239D01*
X141906568Y-69146518D01*
X142103482Y-69343432D01*
X142125001Y-69352345D01*
X142125001Y-71397655D01*
X142103482Y-71406568D01*
X141906568Y-71603482D01*
X141800000Y-71860761D01*
X141800000Y-72139239D01*
X141906568Y-72396518D01*
X142103482Y-72593432D01*
X142360761Y-72700000D01*
X142639239Y-72700000D01*
X142896518Y-72593432D01*
X143093432Y-72396518D01*
X143200000Y-72139239D01*
X143200000Y-71860761D01*
X143093432Y-71603482D01*
X142896518Y-71406568D01*
X142875000Y-71397655D01*
X142875000Y-69352345D01*
X142896518Y-69343432D01*
X143093432Y-69146518D01*
X143200000Y-68889239D01*
X143200000Y-68610761D01*
X143093432Y-68353482D01*
X142896518Y-68156568D01*
X142875000Y-68147655D01*
X142875000Y-66352345D01*
X142896518Y-66343432D01*
X143093432Y-66146518D01*
X143200000Y-65889239D01*
X143200000Y-65610761D01*
X143093432Y-65353482D01*
X142896518Y-65156568D01*
X142875000Y-65147655D01*
X142875000Y-63352345D01*
X142896518Y-63343432D01*
X143093432Y-63146518D01*
X143200000Y-62889239D01*
X143200000Y-62610761D01*
X143093432Y-62353482D01*
X142896518Y-62156568D01*
X142875000Y-62147655D01*
X142875000Y-60352345D01*
X142896518Y-60343432D01*
X143093432Y-60146518D01*
X143200000Y-59889239D01*
X143200000Y-59610761D01*
X144300000Y-59610761D01*
X144300000Y-59889239D01*
X144406568Y-60146518D01*
X144603482Y-60343432D01*
X144625001Y-60352345D01*
X144625000Y-62147655D01*
X144603482Y-62156568D01*
X144406568Y-62353482D01*
X144300000Y-62610761D01*
X144300000Y-62889239D01*
X144406568Y-63146518D01*
X144603482Y-63343432D01*
X144625000Y-63352345D01*
X144625001Y-65147654D01*
X144603482Y-65156567D01*
X144406568Y-65353481D01*
X144300000Y-65610760D01*
X144300000Y-65889238D01*
X144406568Y-66146517D01*
X144603482Y-66343431D01*
X144625001Y-66352344D01*
X144625000Y-68147655D01*
X144603482Y-68156568D01*
X144406568Y-68353482D01*
X144300000Y-68610761D01*
X144300000Y-68889239D01*
X144406568Y-69146518D01*
X144603482Y-69343432D01*
X144625000Y-69352345D01*
X144625001Y-71397655D01*
X144603482Y-71406568D01*
X144406568Y-71603482D01*
X144300000Y-71860761D01*
X144300000Y-72139239D01*
X144406568Y-72396518D01*
X144603482Y-72593432D01*
X144860761Y-72700000D01*
X145139239Y-72700000D01*
X145396518Y-72593432D01*
X145593432Y-72396518D01*
X145700000Y-72139239D01*
X145700000Y-71860761D01*
X145593432Y-71603482D01*
X145396518Y-71406568D01*
X145375000Y-71397655D01*
X145375000Y-69352345D01*
X145396518Y-69343432D01*
X145593432Y-69146518D01*
X145700000Y-68889239D01*
X145700000Y-68610761D01*
X145593432Y-68353482D01*
X145396518Y-68156568D01*
X145375000Y-68147655D01*
X145375000Y-66352344D01*
X145396518Y-66343431D01*
X145593432Y-66146517D01*
X145700000Y-65889238D01*
X145700000Y-65610760D01*
X145593432Y-65353481D01*
X145396518Y-65156567D01*
X145375000Y-65147654D01*
X145375000Y-63352345D01*
X145396518Y-63343432D01*
X145593432Y-63146518D01*
X145700000Y-62889239D01*
X145700000Y-62610761D01*
X145593432Y-62353482D01*
X145396518Y-62156568D01*
X145375000Y-62147655D01*
X145375000Y-60352345D01*
X145396518Y-60343432D01*
X145593432Y-60146518D01*
X145700000Y-59889239D01*
X145700000Y-59610761D01*
X145593432Y-59353482D01*
X145396518Y-59156568D01*
X145139239Y-59050000D01*
X144860761Y-59050000D01*
X144603482Y-59156568D01*
X144406568Y-59353482D01*
X144300000Y-59610761D01*
X143200000Y-59610761D01*
X143093432Y-59353482D01*
X142896518Y-59156568D01*
X142639239Y-59050000D01*
X142360761Y-59050000D01*
X142103482Y-59156568D01*
X141906568Y-59353482D01*
X141800000Y-59610761D01*
X140700000Y-59610761D01*
X140593432Y-59353482D01*
X140396518Y-59156568D01*
X140139239Y-59050000D01*
X139860761Y-59050000D01*
X139603482Y-59156568D01*
X139406568Y-59353482D01*
X139300000Y-59610761D01*
X138200000Y-59610761D01*
X138093432Y-59353482D01*
X137896518Y-59156568D01*
X137639239Y-59050000D01*
X137360761Y-59050000D01*
X137103482Y-59156568D01*
X136906568Y-59353482D01*
X136800000Y-59610761D01*
X135700000Y-59610761D01*
X135593432Y-59353482D01*
X135396518Y-59156568D01*
X135139239Y-59050000D01*
X134860761Y-59050000D01*
X134603482Y-59156568D01*
X134406568Y-59353482D01*
X134300000Y-59610761D01*
X133200000Y-59610761D01*
X133093432Y-59353482D01*
X132896518Y-59156568D01*
X132639239Y-59050000D01*
X132360761Y-59050000D01*
X132103482Y-59156568D01*
X131906568Y-59353482D01*
X131800000Y-59610761D01*
X130700000Y-59610761D01*
X130593432Y-59353482D01*
X130396518Y-59156568D01*
X130375000Y-59147655D01*
X130375000Y-56860761D01*
X146800000Y-56860761D01*
X146800000Y-57139239D01*
X146906568Y-57396518D01*
X147103482Y-57593432D01*
X147125000Y-57602345D01*
X147125001Y-59147655D01*
X147103482Y-59156568D01*
X146906568Y-59353482D01*
X146800000Y-59610761D01*
X146800000Y-59889239D01*
X146906568Y-60146518D01*
X147103482Y-60343432D01*
X147125001Y-60352345D01*
X147125000Y-65147655D01*
X147103482Y-65156568D01*
X146906568Y-65353482D01*
X146800000Y-65610761D01*
X146800000Y-65889239D01*
X146906568Y-66146518D01*
X147103482Y-66343432D01*
X147125000Y-66352345D01*
X147125001Y-68147655D01*
X147103482Y-68156568D01*
X146906568Y-68353482D01*
X146800000Y-68610761D01*
X146800000Y-68889239D01*
X146906568Y-69146518D01*
X147103482Y-69343432D01*
X147125000Y-69352345D01*
X147125001Y-71397655D01*
X147103482Y-71406568D01*
X146906568Y-71603482D01*
X146800000Y-71860761D01*
X146800000Y-72139239D01*
X146906568Y-72396518D01*
X147103482Y-72593432D01*
X147360761Y-72700000D01*
X147639239Y-72700000D01*
X147896518Y-72593432D01*
X148093432Y-72396518D01*
X148200000Y-72139239D01*
X148200000Y-71860761D01*
X148093432Y-71603482D01*
X147896518Y-71406568D01*
X147875000Y-71397655D01*
X147875000Y-69352345D01*
X147896518Y-69343432D01*
X148093432Y-69146518D01*
X148200000Y-68889239D01*
X148200000Y-68610761D01*
X148093432Y-68353482D01*
X147896518Y-68156568D01*
X147875000Y-68147655D01*
X147875000Y-66352345D01*
X147896518Y-66343432D01*
X148093432Y-66146518D01*
X148200000Y-65889239D01*
X148200000Y-65610761D01*
X148093432Y-65353482D01*
X147896518Y-65156568D01*
X147875000Y-65147655D01*
X147875000Y-60352345D01*
X147896518Y-60343432D01*
X148093432Y-60146518D01*
X148200000Y-59889239D01*
X148200000Y-59610761D01*
X148093432Y-59353482D01*
X147896518Y-59156568D01*
X147875000Y-59147655D01*
X147875000Y-57602345D01*
X147896518Y-57593432D01*
X148093432Y-57396518D01*
X148200000Y-57139239D01*
X148200000Y-56860761D01*
X148093432Y-56603482D01*
X147896518Y-56406568D01*
X147785930Y-56360761D01*
X149300000Y-56360761D01*
X149300000Y-56639239D01*
X149406568Y-56896518D01*
X149603482Y-57093432D01*
X149625000Y-57102345D01*
X149625001Y-59147655D01*
X149603482Y-59156568D01*
X149406568Y-59353482D01*
X149300000Y-59610761D01*
X149300000Y-59889239D01*
X149406568Y-60146518D01*
X149603482Y-60343432D01*
X149625001Y-60352345D01*
X149625001Y-62147655D01*
X149603482Y-62156568D01*
X149406568Y-62353482D01*
X149300000Y-62610761D01*
X149300000Y-62889239D01*
X149406568Y-63146518D01*
X149603482Y-63343432D01*
X149625001Y-63352345D01*
X149625000Y-68147655D01*
X149603482Y-68156568D01*
X149406568Y-68353482D01*
X149300000Y-68610761D01*
X149300000Y-68889239D01*
X149406568Y-69146518D01*
X149603482Y-69343432D01*
X149625000Y-69352345D01*
X149625001Y-71397655D01*
X149603482Y-71406568D01*
X149406568Y-71603482D01*
X149300000Y-71860761D01*
X149300000Y-72139239D01*
X149406568Y-72396518D01*
X149603482Y-72593432D01*
X149860761Y-72700000D01*
X150139239Y-72700000D01*
X150396518Y-72593432D01*
X150593432Y-72396518D01*
X150700000Y-72139239D01*
X150700000Y-71860761D01*
X150593432Y-71603482D01*
X150396518Y-71406568D01*
X150375000Y-71397655D01*
X150375000Y-69352345D01*
X150396518Y-69343432D01*
X150593432Y-69146518D01*
X150700000Y-68889239D01*
X150700000Y-68610761D01*
X150593432Y-68353482D01*
X150396518Y-68156568D01*
X150375000Y-68147655D01*
X150375000Y-63352345D01*
X150396518Y-63343432D01*
X150593432Y-63146518D01*
X150700000Y-62889239D01*
X150700000Y-62610761D01*
X150593432Y-62353482D01*
X150396518Y-62156568D01*
X150375000Y-62147655D01*
X150375000Y-60352345D01*
X150396518Y-60343432D01*
X150593432Y-60146518D01*
X150700000Y-59889239D01*
X150700000Y-59610761D01*
X150593432Y-59353482D01*
X150396518Y-59156568D01*
X150375000Y-59147655D01*
X150375000Y-57102345D01*
X150396518Y-57093432D01*
X150593432Y-56896518D01*
X150700000Y-56639239D01*
X150700000Y-56360761D01*
X150593432Y-56103482D01*
X150396518Y-55906568D01*
X150139239Y-55800000D01*
X149860761Y-55800000D01*
X149603482Y-55906568D01*
X149406568Y-56103482D01*
X149300000Y-56360761D01*
X147785930Y-56360761D01*
X147639239Y-56300000D01*
X147360761Y-56300000D01*
X147103482Y-56406568D01*
X146906568Y-56603482D01*
X146800000Y-56860761D01*
X130375000Y-56860761D01*
X130375000Y-56352345D01*
X130396518Y-56343432D01*
X130593432Y-56146518D01*
X130700000Y-55889239D01*
X130700000Y-55610761D01*
X130593432Y-55353482D01*
X130589950Y-55350000D01*
X151910050Y-55350000D01*
X151906568Y-55353482D01*
X151800000Y-55610761D01*
X151800000Y-55889239D01*
X151906568Y-56146518D01*
X152103482Y-56343432D01*
X152125000Y-56352345D01*
X152125001Y-59147655D01*
X152103482Y-59156568D01*
X151906568Y-59353482D01*
X151800000Y-59610761D01*
X151800000Y-59889239D01*
X151906568Y-60146518D01*
X152103482Y-60343432D01*
X152125001Y-60352345D01*
X152125001Y-62176944D01*
X152053482Y-62206568D01*
X151856568Y-62403482D01*
X151750000Y-62660761D01*
X151750000Y-62939239D01*
X151856568Y-63196518D01*
X152053482Y-63393432D01*
X152125000Y-63423056D01*
X152125000Y-65147655D01*
X152103482Y-65156568D01*
X151906568Y-65353482D01*
X151800000Y-65610761D01*
X151800000Y-65889239D01*
X151906568Y-66146518D01*
X152103482Y-66343432D01*
X152125000Y-66352345D01*
X152125001Y-71397655D01*
X152103482Y-71406568D01*
X151906568Y-71603482D01*
X151800000Y-71860761D01*
X151800000Y-72139239D01*
X151906568Y-72396518D01*
X152103482Y-72593432D01*
X152360761Y-72700000D01*
X152639239Y-72700000D01*
X152896518Y-72593432D01*
X153093432Y-72396518D01*
X153200000Y-72139239D01*
X153200000Y-71860761D01*
X153093432Y-71603482D01*
X152896518Y-71406568D01*
X152875000Y-71397655D01*
X152875000Y-66352345D01*
X152896518Y-66343432D01*
X153093432Y-66146518D01*
X153200000Y-65889239D01*
X153200000Y-65610761D01*
X153093432Y-65353482D01*
X152896518Y-65156568D01*
X152875000Y-65147655D01*
X152875000Y-63364950D01*
X153043432Y-63196518D01*
X153150000Y-62939239D01*
X153150000Y-62660761D01*
X153129290Y-62610761D01*
X154299980Y-62610761D01*
X154299980Y-62889239D01*
X154406548Y-63146518D01*
X154603462Y-63343432D01*
X154624980Y-63352345D01*
X154624981Y-65147655D01*
X154603462Y-65156568D01*
X154406548Y-65353482D01*
X154299980Y-65610761D01*
X154299980Y-65889239D01*
X154406548Y-66146518D01*
X154603462Y-66343432D01*
X154624980Y-66352345D01*
X154624981Y-68147663D01*
X154603482Y-68156568D01*
X154406568Y-68353482D01*
X154300000Y-68610761D01*
X154300000Y-68889239D01*
X154406568Y-69146518D01*
X154603482Y-69343432D01*
X154860761Y-69450000D01*
X155139239Y-69450000D01*
X155396518Y-69343432D01*
X155593432Y-69146518D01*
X155700000Y-68889239D01*
X155700000Y-68610761D01*
X155593432Y-68353482D01*
X155396518Y-68156568D01*
X155374980Y-68147647D01*
X155374980Y-66352345D01*
X155396498Y-66343432D01*
X155593412Y-66146518D01*
X155699980Y-65889239D01*
X155699980Y-65610761D01*
X155593412Y-65353482D01*
X155396498Y-65156568D01*
X155374980Y-65147655D01*
X155374980Y-63352345D01*
X155396498Y-63343432D01*
X155593412Y-63146518D01*
X155699980Y-62889239D01*
X155699980Y-62610761D01*
X155593412Y-62353482D01*
X155396498Y-62156568D01*
X155374980Y-62147655D01*
X155374980Y-61860761D01*
X155550000Y-61860761D01*
X155550000Y-62139239D01*
X155656568Y-62396518D01*
X155853482Y-62593432D01*
X155875000Y-62602345D01*
X155875001Y-64397655D01*
X155853482Y-64406568D01*
X155656568Y-64603482D01*
X155550000Y-64860761D01*
X155550000Y-65139239D01*
X155656568Y-65396518D01*
X155853482Y-65593432D01*
X155875000Y-65602345D01*
X155875001Y-67397655D01*
X155853482Y-67406568D01*
X155656568Y-67603482D01*
X155550000Y-67860761D01*
X155550000Y-68139239D01*
X155656568Y-68396518D01*
X155853482Y-68593432D01*
X155875000Y-68602345D01*
X155875001Y-70397655D01*
X155853482Y-70406568D01*
X155656568Y-70603482D01*
X155550000Y-70860761D01*
X155550000Y-71139239D01*
X155656568Y-71396518D01*
X155853482Y-71593432D01*
X156110761Y-71700000D01*
X156389239Y-71700000D01*
X156646518Y-71593432D01*
X156843432Y-71396518D01*
X156950000Y-71139239D01*
X156950000Y-70860761D01*
X156843432Y-70603482D01*
X156646518Y-70406568D01*
X156625000Y-70397655D01*
X156625000Y-70110761D01*
X156800000Y-70110761D01*
X156800000Y-70389239D01*
X156906568Y-70646518D01*
X157103482Y-70843432D01*
X157125001Y-70852345D01*
X157125000Y-73647655D01*
X157103482Y-73656568D01*
X156906568Y-73853482D01*
X156800000Y-74110761D01*
X156800000Y-74389239D01*
X156906568Y-74646518D01*
X157103482Y-74843432D01*
X157360761Y-74950000D01*
X157639239Y-74950000D01*
X157896518Y-74843432D01*
X158093432Y-74646518D01*
X158200000Y-74389239D01*
X158200000Y-74110761D01*
X158093432Y-73853482D01*
X157896518Y-73656568D01*
X157875000Y-73647655D01*
X157875000Y-70852345D01*
X157896518Y-70843432D01*
X158093432Y-70646518D01*
X158200000Y-70389239D01*
X158200000Y-70110761D01*
X158093432Y-69853482D01*
X157896518Y-69656568D01*
X157639239Y-69550000D01*
X157360761Y-69550000D01*
X157103482Y-69656568D01*
X156906568Y-69853482D01*
X156800000Y-70110761D01*
X156625000Y-70110761D01*
X156625000Y-68602345D01*
X156646518Y-68593432D01*
X156843432Y-68396518D01*
X156950000Y-68139239D01*
X156950000Y-67860761D01*
X156843432Y-67603482D01*
X156646518Y-67406568D01*
X156625000Y-67397655D01*
X156625000Y-67110761D01*
X158050000Y-67110761D01*
X158050000Y-67389239D01*
X158156568Y-67646518D01*
X158353482Y-67843432D01*
X158375001Y-67852345D01*
X158375000Y-74897655D01*
X158353482Y-74906568D01*
X158156568Y-75103482D01*
X158050000Y-75360761D01*
X158050000Y-75639239D01*
X158156568Y-75896518D01*
X158353482Y-76093432D01*
X158610761Y-76200000D01*
X158889239Y-76200000D01*
X159146518Y-76093432D01*
X159343432Y-75896518D01*
X159450000Y-75639239D01*
X159450000Y-75360761D01*
X159343432Y-75103482D01*
X159146518Y-74906568D01*
X159125000Y-74897655D01*
X159125000Y-67852345D01*
X159146518Y-67843432D01*
X159343432Y-67646518D01*
X159450000Y-67389239D01*
X159450000Y-67110761D01*
X159343432Y-66853482D01*
X159146518Y-66656568D01*
X158889239Y-66550000D01*
X158610761Y-66550000D01*
X158353482Y-66656568D01*
X158156568Y-66853482D01*
X158050000Y-67110761D01*
X156625000Y-67110761D01*
X156625000Y-65602345D01*
X156646518Y-65593432D01*
X156843432Y-65396518D01*
X156950000Y-65139239D01*
X156950000Y-64860761D01*
X156843432Y-64603482D01*
X156646518Y-64406568D01*
X156625000Y-64397655D01*
X156625000Y-62860761D01*
X161000000Y-62860761D01*
X161000000Y-63139239D01*
X161106568Y-63396518D01*
X161303482Y-63593432D01*
X161425001Y-63643767D01*
X161425000Y-75697655D01*
X161403482Y-75706568D01*
X161206568Y-75903482D01*
X161100000Y-76160761D01*
X161100000Y-76439239D01*
X161206568Y-76696518D01*
X161403482Y-76893432D01*
X161660761Y-77000000D01*
X161939239Y-77000000D01*
X162196518Y-76893432D01*
X162393432Y-76696518D01*
X162500000Y-76439239D01*
X162500000Y-76160761D01*
X162393432Y-75903482D01*
X162196518Y-75706568D01*
X162175000Y-75697655D01*
X162175000Y-63514950D01*
X162293432Y-63396518D01*
X162400000Y-63139239D01*
X162400000Y-62860761D01*
X162293432Y-62603482D01*
X162096518Y-62406568D01*
X161839239Y-62300000D01*
X161560761Y-62300000D01*
X161303482Y-62406568D01*
X161106568Y-62603482D01*
X161000000Y-62860761D01*
X156625000Y-62860761D01*
X156625000Y-62602345D01*
X156646518Y-62593432D01*
X156843432Y-62396518D01*
X156950000Y-62139239D01*
X156950000Y-61960761D01*
X162300000Y-61960761D01*
X162300000Y-62239239D01*
X162406568Y-62496518D01*
X162603482Y-62693432D01*
X162725001Y-62743767D01*
X162725000Y-76597655D01*
X162703482Y-76606568D01*
X162506568Y-76803482D01*
X162400000Y-77060761D01*
X162400000Y-77339239D01*
X162506568Y-77596518D01*
X162703482Y-77793432D01*
X162960761Y-77900000D01*
X163239239Y-77900000D01*
X163496518Y-77793432D01*
X163693432Y-77596518D01*
X163800000Y-77339239D01*
X163800000Y-77060761D01*
X163693432Y-76803482D01*
X163496518Y-76606568D01*
X163475000Y-76597655D01*
X163475000Y-62614950D01*
X163593432Y-62496518D01*
X163700000Y-62239239D01*
X163700000Y-61960761D01*
X163593432Y-61703482D01*
X163396518Y-61506568D01*
X163139239Y-61400000D01*
X162860761Y-61400000D01*
X162603482Y-61506568D01*
X162406568Y-61703482D01*
X162300000Y-61960761D01*
X156950000Y-61960761D01*
X156950000Y-61860761D01*
X156843432Y-61603482D01*
X156646518Y-61406568D01*
X156389239Y-61300000D01*
X156110761Y-61300000D01*
X155853482Y-61406568D01*
X155656568Y-61603482D01*
X155550000Y-61860761D01*
X155374980Y-61860761D01*
X155374980Y-60352353D01*
X155396518Y-60343432D01*
X155593432Y-60146518D01*
X155700000Y-59889239D01*
X155700000Y-59610761D01*
X155593432Y-59353482D01*
X155396518Y-59156568D01*
X155139239Y-59050000D01*
X154860761Y-59050000D01*
X154603482Y-59156568D01*
X154406568Y-59353482D01*
X154300000Y-59610761D01*
X154300000Y-59889239D01*
X154406568Y-60146518D01*
X154603482Y-60343432D01*
X154624981Y-60352337D01*
X154624980Y-62147655D01*
X154603462Y-62156568D01*
X154406548Y-62353482D01*
X154299980Y-62610761D01*
X153129290Y-62610761D01*
X153043432Y-62403482D01*
X152875000Y-62235050D01*
X152875000Y-60352345D01*
X152896518Y-60343432D01*
X153093432Y-60146518D01*
X153200000Y-59889239D01*
X153200000Y-59610761D01*
X153093432Y-59353482D01*
X152896518Y-59156568D01*
X152875000Y-59147655D01*
X152875000Y-56352345D01*
X152896518Y-56343432D01*
X153093432Y-56146518D01*
X153200000Y-55889239D01*
X153200000Y-55610761D01*
X153093432Y-55353482D01*
X153089950Y-55350000D01*
X161730088Y-55350000D01*
X161756133Y-55356301D01*
X161760986Y-55356880D01*
X162428920Y-55431801D01*
X163026581Y-55639929D01*
X163563280Y-55975295D01*
X164012342Y-56421232D01*
X164351447Y-56955576D01*
X164563741Y-57551769D01*
X164640622Y-58196510D01*
X164639528Y-58291638D01*
X164647334Y-58369275D01*
X164650000Y-58377224D01*
X164650001Y-96815916D01*
X164647036Y-96847074D01*
X164626217Y-97479180D01*
X164471229Y-98050171D01*
X164189044Y-98570187D01*
X163794800Y-99011337D01*
X163309640Y-99349962D01*
X162759593Y-99567892D01*
X162162427Y-99655155D01*
X161937907Y-99650684D01*
X161934468Y-99650000D01*
X103219727Y-99650000D01*
X103195661Y-99647110D01*
X102542342Y-99609467D01*
X101954308Y-99434193D01*
X101422370Y-99128345D01*
X100975058Y-98708326D01*
X100636369Y-98196669D01*
X100424471Y-97620822D01*
X100348668Y-96994636D01*
X100349502Y-96936974D01*
X100350000Y-96934468D01*
X100350000Y-93796378D01*
X100644870Y-94015080D01*
X101069872Y-94121549D01*
X101246000Y-93964365D01*
X101246000Y-93154000D01*
X101554000Y-93154000D01*
X101554000Y-93964365D01*
X101730128Y-94121549D01*
X102155130Y-94015080D01*
X102507037Y-93754074D01*
X102732274Y-93378267D01*
X102734646Y-93323751D01*
X102618515Y-93154000D01*
X101554000Y-93154000D01*
X101246000Y-93154000D01*
X101226000Y-93154000D01*
X101226000Y-92846000D01*
X101246000Y-92846000D01*
X101246000Y-92035635D01*
X101554000Y-92035635D01*
X101554000Y-92846000D01*
X102618515Y-92846000D01*
X102734646Y-92676249D01*
X102732274Y-92621733D01*
X102553426Y-92323325D01*
X103031240Y-92323325D01*
X103178923Y-92719128D01*
X103466832Y-93028287D01*
X103780199Y-93184706D01*
X103946000Y-93068175D01*
X103946000Y-92154000D01*
X104254000Y-92154000D01*
X104254000Y-93068175D01*
X104419801Y-93184706D01*
X104733168Y-93028287D01*
X105021077Y-92719128D01*
X105168760Y-92323325D01*
X105030716Y-92154000D01*
X104254000Y-92154000D01*
X103946000Y-92154000D01*
X103169284Y-92154000D01*
X103031240Y-92323325D01*
X102553426Y-92323325D01*
X102507037Y-92245926D01*
X102155130Y-91984920D01*
X101730128Y-91878451D01*
X101554000Y-92035635D01*
X101246000Y-92035635D01*
X101069872Y-91878451D01*
X100644870Y-91984920D01*
X100350000Y-92203622D01*
X100350000Y-91676675D01*
X103031240Y-91676675D01*
X103169284Y-91846000D01*
X103946000Y-91846000D01*
X103946000Y-90931825D01*
X104254000Y-90931825D01*
X104254000Y-91846000D01*
X105030716Y-91846000D01*
X105168760Y-91676675D01*
X105082595Y-91445744D01*
X118120075Y-91445744D01*
X118120075Y-91724222D01*
X118226643Y-91981501D01*
X118423557Y-92178415D01*
X118680836Y-92284983D01*
X118959314Y-92284983D01*
X119216593Y-92178415D01*
X119413507Y-91981501D01*
X119416200Y-91975000D01*
X123997655Y-91975000D01*
X124006568Y-91996518D01*
X124203482Y-92193432D01*
X124460761Y-92300000D01*
X124739239Y-92300000D01*
X124996518Y-92193432D01*
X125193432Y-91996518D01*
X125300000Y-91739239D01*
X125300000Y-91460761D01*
X125193432Y-91203482D01*
X124996518Y-91006568D01*
X124739239Y-90900000D01*
X124460761Y-90900000D01*
X124203482Y-91006568D01*
X124045278Y-91164772D01*
X124100675Y-91031031D01*
X124100675Y-90752553D01*
X124091762Y-90731035D01*
X124091953Y-90730844D01*
X124091955Y-90730841D01*
X125347788Y-89475009D01*
X125779974Y-89475009D01*
X127442751Y-91137787D01*
X127463670Y-91169094D01*
X127494977Y-91190013D01*
X127494978Y-91190014D01*
X127547338Y-91225000D01*
X127587712Y-91251977D01*
X127697098Y-91273735D01*
X127697103Y-91273735D01*
X127734029Y-91281080D01*
X127770955Y-91273735D01*
X128297107Y-91273735D01*
X128334033Y-91281080D01*
X128370959Y-91273735D01*
X128370964Y-91273735D01*
X128480350Y-91251977D01*
X128604392Y-91169094D01*
X128625312Y-91137785D01*
X128898085Y-90865013D01*
X128904448Y-90860761D01*
X145300000Y-90860761D01*
X145300000Y-91139239D01*
X145406568Y-91396518D01*
X145603482Y-91593432D01*
X145860761Y-91700000D01*
X146139239Y-91700000D01*
X146396518Y-91593432D01*
X146593432Y-91396518D01*
X146700000Y-91139239D01*
X146700000Y-90860761D01*
X146593432Y-90603482D01*
X146396518Y-90406568D01*
X146139239Y-90300000D01*
X145860761Y-90300000D01*
X145603482Y-90406568D01*
X145406568Y-90603482D01*
X145300000Y-90860761D01*
X128904448Y-90860761D01*
X128929392Y-90844094D01*
X128983827Y-90762627D01*
X129012274Y-90720054D01*
X129012274Y-90720053D01*
X129012275Y-90720052D01*
X129034033Y-90610666D01*
X129034033Y-90610662D01*
X129041378Y-90573736D01*
X129034033Y-90536810D01*
X129034033Y-87360761D01*
X149800000Y-87360761D01*
X149800000Y-87639239D01*
X149906568Y-87896518D01*
X150103482Y-88093432D01*
X150360761Y-88200000D01*
X150639239Y-88200000D01*
X150896518Y-88093432D01*
X151093432Y-87896518D01*
X151200000Y-87639239D01*
X151200000Y-87360761D01*
X151093432Y-87103482D01*
X150896518Y-86906568D01*
X150875000Y-86897655D01*
X150875000Y-79710658D01*
X150886294Y-79693756D01*
X150898076Y-79681974D01*
X150929385Y-79661054D01*
X151012268Y-79537012D01*
X151034026Y-79427626D01*
X151034026Y-79427621D01*
X151034084Y-79427331D01*
X151055544Y-79418442D01*
X151252458Y-79221528D01*
X151359026Y-78964249D01*
X151359026Y-78685771D01*
X151252458Y-78428492D01*
X151055544Y-78231578D01*
X150798265Y-78125010D01*
X150519787Y-78125010D01*
X150262508Y-78231578D01*
X150065594Y-78428492D01*
X149959026Y-78685771D01*
X149959026Y-78964249D01*
X150065594Y-79221528D01*
X150149040Y-79304974D01*
X150146758Y-79308390D01*
X150117654Y-79454707D01*
X150125001Y-79491643D01*
X150125000Y-86897655D01*
X150103482Y-86906568D01*
X149906568Y-87103482D01*
X149800000Y-87360761D01*
X129034033Y-87360761D01*
X129034033Y-77245959D01*
X129041378Y-77209032D01*
X129034033Y-77172106D01*
X129034033Y-77172102D01*
X129012275Y-77062716D01*
X128976738Y-77009531D01*
X128950312Y-76969982D01*
X128950311Y-76969981D01*
X128929392Y-76938674D01*
X128898086Y-76917756D01*
X128641087Y-76660757D01*
X128650000Y-76639239D01*
X128650000Y-76360761D01*
X128543432Y-76103482D01*
X128346518Y-75906568D01*
X128089239Y-75800000D01*
X127810761Y-75800000D01*
X127553482Y-75906568D01*
X127356568Y-76103482D01*
X127250000Y-76360761D01*
X127250000Y-76639239D01*
X127316589Y-76800000D01*
X127110761Y-76800000D01*
X126853482Y-76906568D01*
X126656568Y-77103482D01*
X126550000Y-77360761D01*
X126550000Y-77639239D01*
X126558913Y-77660757D01*
X122109000Y-82110671D01*
X122109000Y-81700000D01*
X122239239Y-81700000D01*
X122496518Y-81593432D01*
X122693432Y-81396518D01*
X122800000Y-81139239D01*
X122800000Y-80860761D01*
X122693432Y-80603482D01*
X122496518Y-80406568D01*
X122239239Y-80300000D01*
X121960761Y-80300000D01*
X121703482Y-80406568D01*
X121506568Y-80603482D01*
X121433999Y-80778680D01*
X121433999Y-76396330D01*
X121939243Y-75891087D01*
X121960761Y-75900000D01*
X122239239Y-75900000D01*
X122496518Y-75793432D01*
X122693432Y-75596518D01*
X122791085Y-75360761D01*
X129550000Y-75360761D01*
X129550000Y-75639239D01*
X129656568Y-75896518D01*
X129853482Y-76093432D01*
X129875000Y-76102345D01*
X129875001Y-83858530D01*
X129689039Y-84044492D01*
X129582471Y-84301771D01*
X129582471Y-84580249D01*
X129689039Y-84837528D01*
X129885953Y-85034442D01*
X130143232Y-85141010D01*
X130421710Y-85141010D01*
X130678989Y-85034442D01*
X130875903Y-84837528D01*
X130982471Y-84580249D01*
X130982471Y-84301771D01*
X130875903Y-84044492D01*
X130678989Y-83847578D01*
X130625000Y-83825215D01*
X130625000Y-76102345D01*
X130646518Y-76093432D01*
X130843432Y-75896518D01*
X130950000Y-75639239D01*
X130950000Y-75360761D01*
X130843432Y-75103482D01*
X130646518Y-74906568D01*
X130389239Y-74800000D01*
X130110761Y-74800000D01*
X129853482Y-74906568D01*
X129656568Y-75103482D01*
X129550000Y-75360761D01*
X122791085Y-75360761D01*
X122800000Y-75339239D01*
X122800000Y-75060761D01*
X122693432Y-74803482D01*
X122496518Y-74606568D01*
X122239239Y-74500000D01*
X121960761Y-74500000D01*
X121703482Y-74606568D01*
X121506568Y-74803482D01*
X121400000Y-75060761D01*
X121400000Y-75339239D01*
X121408913Y-75360757D01*
X120819949Y-75949721D01*
X120788640Y-75970642D01*
X120767720Y-76001951D01*
X120715128Y-76080661D01*
X120705757Y-76094685D01*
X120683999Y-76204071D01*
X120683999Y-76204075D01*
X120676654Y-76241001D01*
X120683999Y-76277927D01*
X120684000Y-85079070D01*
X120676654Y-85116001D01*
X120705758Y-85262319D01*
X120759960Y-85343437D01*
X120759961Y-88950767D01*
X120759960Y-88950772D01*
X120759960Y-88951042D01*
X120738442Y-88959955D01*
X120541528Y-89156869D01*
X120434960Y-89414148D01*
X120434960Y-89692626D01*
X120541528Y-89949905D01*
X120738442Y-90146819D01*
X120995721Y-90253387D01*
X121057653Y-90253387D01*
X120904568Y-90406472D01*
X120798000Y-90663751D01*
X120798000Y-90942229D01*
X120904568Y-91199508D01*
X120930060Y-91225000D01*
X119428640Y-91225000D01*
X119413507Y-91188465D01*
X119216593Y-90991551D01*
X118959314Y-90884983D01*
X118680836Y-90884983D01*
X118423557Y-90991551D01*
X118226643Y-91188465D01*
X118120075Y-91445744D01*
X105082595Y-91445744D01*
X105021077Y-91280872D01*
X104733168Y-90971713D01*
X104419801Y-90815294D01*
X104254000Y-90931825D01*
X103946000Y-90931825D01*
X103780199Y-90815294D01*
X103466832Y-90971713D01*
X103178923Y-91280872D01*
X103031240Y-91676675D01*
X100350000Y-91676675D01*
X100350000Y-87323325D01*
X103031240Y-87323325D01*
X103178923Y-87719128D01*
X103466832Y-88028287D01*
X103780199Y-88184706D01*
X103946000Y-88068175D01*
X103946000Y-87154000D01*
X104254000Y-87154000D01*
X104254000Y-88068175D01*
X104419801Y-88184706D01*
X104733168Y-88028287D01*
X105021077Y-87719128D01*
X105168760Y-87323325D01*
X105030716Y-87154000D01*
X104254000Y-87154000D01*
X103946000Y-87154000D01*
X103169284Y-87154000D01*
X103031240Y-87323325D01*
X100350000Y-87323325D01*
X100350000Y-86796378D01*
X100644870Y-87015080D01*
X101069872Y-87121549D01*
X101246000Y-86964365D01*
X101246000Y-86154000D01*
X101554000Y-86154000D01*
X101554000Y-86964365D01*
X101730128Y-87121549D01*
X102155130Y-87015080D01*
X102507037Y-86754074D01*
X102553425Y-86676675D01*
X103031240Y-86676675D01*
X103169284Y-86846000D01*
X103946000Y-86846000D01*
X103946000Y-85931825D01*
X104254000Y-85931825D01*
X104254000Y-86846000D01*
X105030716Y-86846000D01*
X105168760Y-86676675D01*
X105021077Y-86280872D01*
X104733168Y-85971713D01*
X104419801Y-85815294D01*
X104254000Y-85931825D01*
X103946000Y-85931825D01*
X103780199Y-85815294D01*
X103466832Y-85971713D01*
X103178923Y-86280872D01*
X103031240Y-86676675D01*
X102553425Y-86676675D01*
X102732274Y-86378267D01*
X102734646Y-86323751D01*
X102618515Y-86154000D01*
X101554000Y-86154000D01*
X101246000Y-86154000D01*
X101226000Y-86154000D01*
X101226000Y-85846000D01*
X101246000Y-85846000D01*
X101246000Y-85035635D01*
X101554000Y-85035635D01*
X101554000Y-85846000D01*
X102618515Y-85846000D01*
X102734646Y-85676249D01*
X102732274Y-85621733D01*
X102507037Y-85245926D01*
X102155130Y-84984920D01*
X101730128Y-84878451D01*
X101554000Y-85035635D01*
X101246000Y-85035635D01*
X101069872Y-84878451D01*
X100644870Y-84984920D01*
X100350000Y-85203622D01*
X100350000Y-70110761D01*
X102300000Y-70110761D01*
X102300000Y-70389239D01*
X102406568Y-70646518D01*
X102603482Y-70843432D01*
X102625001Y-70852345D01*
X102625000Y-78147655D01*
X102603482Y-78156568D01*
X102406568Y-78353482D01*
X102300000Y-78610761D01*
X102300000Y-78889239D01*
X102406568Y-79146518D01*
X102603482Y-79343432D01*
X102860761Y-79450000D01*
X103139239Y-79450000D01*
X103396518Y-79343432D01*
X103593432Y-79146518D01*
X103700000Y-78889239D01*
X103700000Y-78610761D01*
X103593432Y-78353482D01*
X103396518Y-78156568D01*
X103375000Y-78147655D01*
X103375000Y-76487947D01*
X103538915Y-76487947D01*
X103538915Y-76766425D01*
X103645483Y-77023704D01*
X103842397Y-77220618D01*
X104099676Y-77327186D01*
X104378154Y-77327186D01*
X104635433Y-77220618D01*
X104832347Y-77023704D01*
X104938915Y-76766425D01*
X104938915Y-76487947D01*
X104832347Y-76230668D01*
X104635433Y-76033754D01*
X104625000Y-76029433D01*
X104625000Y-67852345D01*
X104646518Y-67843432D01*
X104843432Y-67646518D01*
X104950000Y-67389239D01*
X104950000Y-67110761D01*
X104843432Y-66853482D01*
X104646518Y-66656568D01*
X104389239Y-66550000D01*
X104110761Y-66550000D01*
X103853482Y-66656568D01*
X103656568Y-66853482D01*
X103550000Y-67110761D01*
X103550000Y-67389239D01*
X103656568Y-67646518D01*
X103853482Y-67843432D01*
X103875000Y-67852345D01*
X103875001Y-76020249D01*
X103842397Y-76033754D01*
X103645483Y-76230668D01*
X103538915Y-76487947D01*
X103375000Y-76487947D01*
X103375000Y-70852345D01*
X103396518Y-70843432D01*
X103593432Y-70646518D01*
X103700000Y-70389239D01*
X103700000Y-70110761D01*
X103593432Y-69853482D01*
X103396518Y-69656568D01*
X103139239Y-69550000D01*
X102860761Y-69550000D01*
X102603482Y-69656568D01*
X102406568Y-69853482D01*
X102300000Y-70110761D01*
X100350000Y-70110761D01*
X100350000Y-64110761D01*
X104800000Y-64110761D01*
X104800000Y-64389239D01*
X104906568Y-64646518D01*
X105103482Y-64843432D01*
X105125000Y-64852345D01*
X105125001Y-75372634D01*
X105103482Y-75381547D01*
X104906568Y-75578461D01*
X104800000Y-75835740D01*
X104800000Y-76114218D01*
X104906568Y-76371497D01*
X105103482Y-76568411D01*
X105360761Y-76674979D01*
X105639239Y-76674979D01*
X105896518Y-76568411D01*
X106093432Y-76371497D01*
X106200000Y-76114218D01*
X106200000Y-75939950D01*
X106353482Y-76093432D01*
X106610761Y-76200000D01*
X106889239Y-76200000D01*
X107146518Y-76093432D01*
X107343432Y-75896518D01*
X107450000Y-75639239D01*
X107450000Y-75360761D01*
X107343432Y-75103482D01*
X107146518Y-74906568D01*
X107125000Y-74897655D01*
X107125000Y-61852345D01*
X107146518Y-61843432D01*
X107343432Y-61646518D01*
X107450000Y-61389239D01*
X107450000Y-61110761D01*
X107343432Y-60853482D01*
X107146518Y-60656568D01*
X106889239Y-60550000D01*
X106610761Y-60550000D01*
X106353482Y-60656568D01*
X106156568Y-60853482D01*
X106050000Y-61110761D01*
X106050000Y-61389239D01*
X106156568Y-61646518D01*
X106353482Y-61843432D01*
X106375001Y-61852345D01*
X106375000Y-74897655D01*
X106353482Y-74906568D01*
X106156568Y-75103482D01*
X106050000Y-75360761D01*
X106050000Y-75535029D01*
X105896518Y-75381547D01*
X105875000Y-75372634D01*
X105875000Y-64852345D01*
X105896518Y-64843432D01*
X106093432Y-64646518D01*
X106200000Y-64389239D01*
X106200000Y-64110761D01*
X106093432Y-63853482D01*
X105896518Y-63656568D01*
X105639239Y-63550000D01*
X105360761Y-63550000D01*
X105103482Y-63656568D01*
X104906568Y-63853482D01*
X104800000Y-64110761D01*
X100350000Y-64110761D01*
X100350000Y-58405426D01*
X100382011Y-58110761D01*
X107300000Y-58110761D01*
X107300000Y-58389239D01*
X107406568Y-58646518D01*
X107603482Y-58843432D01*
X107625000Y-58852345D01*
X107625001Y-73897655D01*
X107603482Y-73906568D01*
X107406568Y-74103482D01*
X107300000Y-74360761D01*
X107300000Y-74639239D01*
X107406568Y-74896518D01*
X107603482Y-75093432D01*
X107860761Y-75200000D01*
X108139239Y-75200000D01*
X108396518Y-75093432D01*
X108593432Y-74896518D01*
X108700000Y-74639239D01*
X108700000Y-74360761D01*
X108593432Y-74103482D01*
X108396518Y-73906568D01*
X108375000Y-73897655D01*
X108375000Y-62610761D01*
X109050000Y-62610761D01*
X109050000Y-62889239D01*
X109156568Y-63146518D01*
X109353482Y-63343432D01*
X109375000Y-63352345D01*
X109375001Y-65147655D01*
X109353482Y-65156568D01*
X109156568Y-65353482D01*
X109050000Y-65610761D01*
X109050000Y-65889239D01*
X109156568Y-66146518D01*
X109353482Y-66343432D01*
X109375000Y-66352345D01*
X109375001Y-68147655D01*
X109353482Y-68156568D01*
X109156568Y-68353482D01*
X109050000Y-68610761D01*
X109050000Y-68889239D01*
X109156568Y-69146518D01*
X109353482Y-69343432D01*
X109375000Y-69352345D01*
X109375001Y-71147655D01*
X109353482Y-71156568D01*
X109156568Y-71353482D01*
X109050000Y-71610761D01*
X109050000Y-71889239D01*
X109156568Y-72146518D01*
X109353482Y-72343432D01*
X109375000Y-72352345D01*
X109375001Y-72897655D01*
X109353482Y-72906568D01*
X109156568Y-73103482D01*
X109050000Y-73360761D01*
X109050000Y-73639239D01*
X109156568Y-73896518D01*
X109260050Y-74000000D01*
X109156568Y-74103482D01*
X109050000Y-74360761D01*
X109050000Y-74639239D01*
X109156568Y-74896518D01*
X109353482Y-75093432D01*
X109375000Y-75102345D01*
X109375001Y-80463065D01*
X109375000Y-80463070D01*
X109375001Y-81396967D01*
X109367655Y-81433898D01*
X109396759Y-81580216D01*
X109458721Y-81672948D01*
X109458723Y-81672950D01*
X109479642Y-81704257D01*
X109510949Y-81725176D01*
X115782103Y-87996331D01*
X115773190Y-88017849D01*
X115773190Y-88296327D01*
X115879758Y-88553606D01*
X116076672Y-88750520D01*
X116333951Y-88857088D01*
X116612429Y-88857088D01*
X116869708Y-88750520D01*
X117066622Y-88553606D01*
X117112505Y-88442835D01*
X117308913Y-88639243D01*
X117300000Y-88660761D01*
X117300000Y-88939239D01*
X117406568Y-89196518D01*
X117603482Y-89393432D01*
X117860761Y-89500000D01*
X118139239Y-89500000D01*
X118396518Y-89393432D01*
X118593432Y-89196518D01*
X118606363Y-89165299D01*
X118615567Y-89187519D01*
X118812481Y-89384433D01*
X119069760Y-89491001D01*
X119348238Y-89491001D01*
X119605517Y-89384433D01*
X119802431Y-89187519D01*
X119908999Y-88930240D01*
X119908999Y-88651762D01*
X119802431Y-88394483D01*
X119605517Y-88197569D01*
X119348238Y-88091001D01*
X119069760Y-88091001D01*
X119048300Y-88099890D01*
X118955317Y-88037760D01*
X118865638Y-88019922D01*
X116022899Y-85177185D01*
X116022899Y-84262860D01*
X116103482Y-84343443D01*
X116125000Y-84352356D01*
X116125000Y-84373073D01*
X116117655Y-84409999D01*
X116125000Y-84446925D01*
X116125000Y-84446929D01*
X116146758Y-84556315D01*
X116146759Y-84556316D01*
X116146759Y-84556317D01*
X116167480Y-84587328D01*
X116229641Y-84680358D01*
X116260951Y-84701279D01*
X117512186Y-85952515D01*
X117512185Y-86260980D01*
X117504840Y-86297907D01*
X117512185Y-86334833D01*
X117512185Y-86334837D01*
X117533943Y-86444223D01*
X117616826Y-86568266D01*
X117648135Y-86589186D01*
X118298000Y-87239052D01*
X118318919Y-87270359D01*
X118350226Y-87291278D01*
X118442959Y-87353241D01*
X118442960Y-87353241D01*
X118442961Y-87353242D01*
X118552347Y-87375000D01*
X118552351Y-87375000D01*
X118589277Y-87382345D01*
X118626203Y-87375000D01*
X118697655Y-87375000D01*
X118706568Y-87396518D01*
X118903482Y-87593432D01*
X119160761Y-87700000D01*
X119439239Y-87700000D01*
X119696518Y-87593432D01*
X119893432Y-87396518D01*
X120000000Y-87139239D01*
X120000000Y-86860761D01*
X119893432Y-86603482D01*
X119696518Y-86406568D01*
X119439239Y-86300000D01*
X119245263Y-86300000D01*
X119324866Y-86107821D01*
X119324866Y-85829343D01*
X119218298Y-85572064D01*
X119021384Y-85375150D01*
X118999924Y-85366261D01*
X118999866Y-85365971D01*
X118999866Y-85365966D01*
X118978108Y-85256580D01*
X118934931Y-85191961D01*
X118916145Y-85163846D01*
X118916144Y-85163845D01*
X118895225Y-85132538D01*
X118863918Y-85111619D01*
X117575000Y-83822702D01*
X117575000Y-83336925D01*
X117582345Y-83299999D01*
X117575000Y-83263073D01*
X117575000Y-83263069D01*
X117553242Y-83153683D01*
X117519699Y-83103482D01*
X117491278Y-83060948D01*
X117470359Y-83029641D01*
X117439052Y-83008722D01*
X117191087Y-82760757D01*
X117200000Y-82739239D01*
X117200000Y-82460761D01*
X117093432Y-82203482D01*
X116896518Y-82006568D01*
X116639239Y-81900000D01*
X116360761Y-81900000D01*
X116103482Y-82006568D01*
X116022899Y-82087151D01*
X116022899Y-79950489D01*
X116349081Y-79624308D01*
X116370599Y-79633221D01*
X116649077Y-79633221D01*
X116906356Y-79526653D01*
X117103270Y-79329739D01*
X117209838Y-79072460D01*
X117209838Y-78793982D01*
X117103270Y-78536703D01*
X116906356Y-78339789D01*
X116649077Y-78233221D01*
X116370599Y-78233221D01*
X116113320Y-78339789D01*
X115916406Y-78536703D01*
X115809838Y-78793982D01*
X115809838Y-79072460D01*
X115818751Y-79093978D01*
X115698260Y-79214469D01*
X115698260Y-77465089D01*
X115719778Y-77456176D01*
X115916692Y-77259262D01*
X116023260Y-77001983D01*
X116023260Y-76723505D01*
X115916692Y-76466226D01*
X115719778Y-76269312D01*
X115462499Y-76162744D01*
X115184021Y-76162744D01*
X114926742Y-76269312D01*
X114729828Y-76466226D01*
X114623260Y-76723505D01*
X114623260Y-77001983D01*
X114729828Y-77259262D01*
X114926742Y-77456176D01*
X114948260Y-77465089D01*
X114948260Y-77465359D01*
X114948261Y-77465364D01*
X114948260Y-86086334D01*
X114945689Y-86099258D01*
X112485746Y-83639315D01*
X112596518Y-83593432D01*
X112793432Y-83396518D01*
X112900000Y-83139239D01*
X112900000Y-82860761D01*
X112793432Y-82603482D01*
X112625000Y-82435050D01*
X112625000Y-76102345D01*
X112646518Y-76093432D01*
X112843432Y-75896518D01*
X112868606Y-75835740D01*
X113050000Y-75835740D01*
X113050000Y-76114218D01*
X113156568Y-76371497D01*
X113353482Y-76568411D01*
X113375001Y-76577324D01*
X113375000Y-82897655D01*
X113353482Y-82906568D01*
X113156568Y-83103482D01*
X113050000Y-83360761D01*
X113050000Y-83639239D01*
X113156568Y-83896518D01*
X113353482Y-84093432D01*
X113610761Y-84200000D01*
X113889239Y-84200000D01*
X114146518Y-84093432D01*
X114343432Y-83896518D01*
X114450000Y-83639239D01*
X114450000Y-83360761D01*
X114343432Y-83103482D01*
X114146518Y-82906568D01*
X114125000Y-82897655D01*
X114125000Y-76577324D01*
X114146518Y-76568411D01*
X114343432Y-76371497D01*
X114450000Y-76114218D01*
X114450000Y-75835740D01*
X114343432Y-75578461D01*
X114146518Y-75381547D01*
X113889239Y-75274979D01*
X113610761Y-75274979D01*
X113353482Y-75381547D01*
X113156568Y-75578461D01*
X113050000Y-75835740D01*
X112868606Y-75835740D01*
X112950000Y-75639239D01*
X112950000Y-75360761D01*
X112843432Y-75103482D01*
X112646518Y-74906568D01*
X112389239Y-74800000D01*
X112110761Y-74800000D01*
X111853482Y-74906568D01*
X111656568Y-75103482D01*
X111550000Y-75360761D01*
X111550000Y-75639239D01*
X111656568Y-75896518D01*
X111853482Y-76093432D01*
X111875000Y-76102345D01*
X111875001Y-82376944D01*
X111803482Y-82406568D01*
X111606568Y-82603482D01*
X111560685Y-82714254D01*
X110125000Y-81278569D01*
X110125000Y-75102345D01*
X110146518Y-75093432D01*
X110343432Y-74896518D01*
X110450000Y-74639239D01*
X110450000Y-74360761D01*
X110343432Y-74103482D01*
X110239950Y-74000000D01*
X110343432Y-73896518D01*
X110450000Y-73639239D01*
X110450000Y-73360761D01*
X110343432Y-73103482D01*
X110146518Y-72906568D01*
X110125000Y-72897655D01*
X110125000Y-72352345D01*
X110146518Y-72343432D01*
X110343432Y-72146518D01*
X110450000Y-71889239D01*
X110450000Y-71610761D01*
X110343432Y-71353482D01*
X110146518Y-71156568D01*
X110125000Y-71147655D01*
X110125000Y-69352345D01*
X110146518Y-69343432D01*
X110343432Y-69146518D01*
X110450000Y-68889239D01*
X110450000Y-68610761D01*
X110343432Y-68353482D01*
X110146518Y-68156568D01*
X110125000Y-68147655D01*
X110125000Y-66352345D01*
X110146518Y-66343432D01*
X110343432Y-66146518D01*
X110450000Y-65889239D01*
X110450000Y-65610761D01*
X110343432Y-65353482D01*
X110146518Y-65156568D01*
X110125000Y-65147655D01*
X110125000Y-63352345D01*
X110146518Y-63343432D01*
X110343432Y-63146518D01*
X110450000Y-62889239D01*
X110450000Y-62610761D01*
X110343432Y-62353482D01*
X110146518Y-62156568D01*
X109889239Y-62050000D01*
X109610761Y-62050000D01*
X109353482Y-62156568D01*
X109156568Y-62353482D01*
X109050000Y-62610761D01*
X108375000Y-62610761D01*
X108375000Y-59610761D01*
X111800000Y-59610761D01*
X111800000Y-59889239D01*
X111906568Y-60146518D01*
X112103482Y-60343432D01*
X112125001Y-60352345D01*
X112125000Y-65147655D01*
X112103482Y-65156568D01*
X111906568Y-65353482D01*
X111800000Y-65610761D01*
X111800000Y-65889239D01*
X111906568Y-66146518D01*
X112103482Y-66343432D01*
X112125000Y-66352345D01*
X112125001Y-68147655D01*
X112103482Y-68156568D01*
X111906568Y-68353482D01*
X111800000Y-68610761D01*
X111800000Y-68889239D01*
X111906568Y-69146518D01*
X112103482Y-69343432D01*
X112125000Y-69352345D01*
X112125001Y-71147655D01*
X112103482Y-71156568D01*
X111906568Y-71353482D01*
X111800000Y-71610761D01*
X111800000Y-71889239D01*
X111906568Y-72146518D01*
X112103482Y-72343432D01*
X112125000Y-72352345D01*
X112125001Y-73147655D01*
X112103482Y-73156568D01*
X111906568Y-73353482D01*
X111800000Y-73610761D01*
X111800000Y-73889239D01*
X111906568Y-74146518D01*
X112103482Y-74343432D01*
X112360761Y-74450000D01*
X112639239Y-74450000D01*
X112896518Y-74343432D01*
X113093432Y-74146518D01*
X113200000Y-73889239D01*
X113200000Y-73610761D01*
X113093432Y-73353482D01*
X112896518Y-73156568D01*
X112875000Y-73147655D01*
X112875000Y-72352345D01*
X112896518Y-72343432D01*
X113093432Y-72146518D01*
X113200000Y-71889239D01*
X113200000Y-71610761D01*
X113093432Y-71353482D01*
X112896518Y-71156568D01*
X112875000Y-71147655D01*
X112875000Y-69352345D01*
X112896518Y-69343432D01*
X113093432Y-69146518D01*
X113200000Y-68889239D01*
X113200000Y-68610761D01*
X113093432Y-68353482D01*
X112896518Y-68156568D01*
X112875000Y-68147655D01*
X112875000Y-66352345D01*
X112896518Y-66343432D01*
X113093432Y-66146518D01*
X113200000Y-65889239D01*
X113200000Y-65610761D01*
X113093432Y-65353482D01*
X112896518Y-65156568D01*
X112875000Y-65147655D01*
X112875000Y-60352345D01*
X112896518Y-60343432D01*
X113093432Y-60146518D01*
X113200000Y-59889239D01*
X113200000Y-59610761D01*
X114300000Y-59610761D01*
X114300000Y-59889239D01*
X114406568Y-60146518D01*
X114603482Y-60343432D01*
X114625000Y-60352345D01*
X114625001Y-62147655D01*
X114603482Y-62156568D01*
X114406568Y-62353482D01*
X114300000Y-62610761D01*
X114300000Y-62889239D01*
X114406568Y-63146518D01*
X114603482Y-63343432D01*
X114625000Y-63352345D01*
X114625001Y-68147655D01*
X114603482Y-68156568D01*
X114406568Y-68353482D01*
X114300000Y-68610761D01*
X114300000Y-68889239D01*
X114406568Y-69146518D01*
X114603482Y-69343432D01*
X114625000Y-69352345D01*
X114625001Y-71147655D01*
X114603482Y-71156568D01*
X114406568Y-71353482D01*
X114300000Y-71610761D01*
X114300000Y-71889239D01*
X114406568Y-72146518D01*
X114603482Y-72343432D01*
X114625000Y-72352345D01*
X114625001Y-73147655D01*
X114603482Y-73156568D01*
X114406568Y-73353482D01*
X114300000Y-73610761D01*
X114300000Y-73889239D01*
X114406568Y-74146518D01*
X114603482Y-74343432D01*
X114860761Y-74450000D01*
X115139239Y-74450000D01*
X115396518Y-74343432D01*
X115593432Y-74146518D01*
X115700000Y-73889239D01*
X115700000Y-73610761D01*
X115593432Y-73353482D01*
X115396518Y-73156568D01*
X115375000Y-73147655D01*
X115375000Y-72352345D01*
X115396518Y-72343432D01*
X115593432Y-72146518D01*
X115700000Y-71889239D01*
X115700000Y-71610761D01*
X115593432Y-71353482D01*
X115396518Y-71156568D01*
X115375000Y-71147655D01*
X115375000Y-69352345D01*
X115396518Y-69343432D01*
X115593432Y-69146518D01*
X115700000Y-68889239D01*
X115700000Y-68610761D01*
X115593432Y-68353482D01*
X115396518Y-68156568D01*
X115375000Y-68147655D01*
X115375000Y-63352345D01*
X115396518Y-63343432D01*
X115593432Y-63146518D01*
X115700000Y-62889239D01*
X115700000Y-62610761D01*
X115593432Y-62353482D01*
X115396518Y-62156568D01*
X115375000Y-62147655D01*
X115375000Y-60352345D01*
X115396518Y-60343432D01*
X115593432Y-60146518D01*
X115700000Y-59889239D01*
X115700000Y-59610761D01*
X116800000Y-59610761D01*
X116800000Y-59889239D01*
X116906568Y-60146518D01*
X117103482Y-60343432D01*
X117125001Y-60352345D01*
X117125000Y-62147655D01*
X117103482Y-62156568D01*
X116906568Y-62353482D01*
X116800000Y-62610761D01*
X116800000Y-62889239D01*
X116906568Y-63146518D01*
X117103482Y-63343432D01*
X117125000Y-63352345D01*
X117125001Y-65147655D01*
X117103482Y-65156568D01*
X116906568Y-65353482D01*
X116800000Y-65610761D01*
X116800000Y-65889239D01*
X116906568Y-66146518D01*
X117103482Y-66343432D01*
X117125000Y-66352345D01*
X117125001Y-71147655D01*
X117103482Y-71156568D01*
X116906568Y-71353482D01*
X116800000Y-71610761D01*
X116800000Y-71889239D01*
X116906568Y-72146518D01*
X117103482Y-72343432D01*
X117125001Y-72352345D01*
X117125001Y-73147655D01*
X117103482Y-73156568D01*
X116906568Y-73353482D01*
X116800000Y-73610761D01*
X116800000Y-73889239D01*
X116906568Y-74146518D01*
X117103482Y-74343432D01*
X117360761Y-74450000D01*
X117639239Y-74450000D01*
X117896518Y-74343432D01*
X118093432Y-74146518D01*
X118200000Y-73889239D01*
X118200000Y-73610761D01*
X118093432Y-73353482D01*
X117896518Y-73156568D01*
X117875000Y-73147655D01*
X117875000Y-72352345D01*
X117896518Y-72343432D01*
X118093432Y-72146518D01*
X118200000Y-71889239D01*
X118200000Y-71610761D01*
X118093432Y-71353482D01*
X117896518Y-71156568D01*
X117875000Y-71147655D01*
X117875000Y-66352345D01*
X117896518Y-66343432D01*
X118093432Y-66146518D01*
X118200000Y-65889239D01*
X118200000Y-65610761D01*
X118093432Y-65353482D01*
X117896518Y-65156568D01*
X117875000Y-65147655D01*
X117875000Y-63352345D01*
X117896518Y-63343432D01*
X118093432Y-63146518D01*
X118200000Y-62889239D01*
X118200000Y-62610761D01*
X118093432Y-62353482D01*
X117896518Y-62156568D01*
X117875000Y-62147655D01*
X117875000Y-60352345D01*
X117896518Y-60343432D01*
X118093432Y-60146518D01*
X118200000Y-59889239D01*
X118200000Y-59610761D01*
X119299990Y-59610761D01*
X119299990Y-59889239D01*
X119406558Y-60146518D01*
X119603472Y-60343432D01*
X119625001Y-60352350D01*
X119625000Y-62147655D01*
X119603482Y-62156568D01*
X119406568Y-62353482D01*
X119300000Y-62610761D01*
X119300000Y-62889239D01*
X119406568Y-63146518D01*
X119603482Y-63343432D01*
X119625000Y-63352345D01*
X119625001Y-65147655D01*
X119603482Y-65156568D01*
X119406568Y-65353482D01*
X119300000Y-65610761D01*
X119300000Y-65889239D01*
X119406568Y-66146518D01*
X119603482Y-66343432D01*
X119625000Y-66352345D01*
X119625001Y-68147655D01*
X119603482Y-68156568D01*
X119406568Y-68353482D01*
X119300000Y-68610761D01*
X119300000Y-68889239D01*
X119406568Y-69146518D01*
X119603482Y-69343432D01*
X119625000Y-69352345D01*
X119625001Y-74897655D01*
X119603482Y-74906568D01*
X119406568Y-75103482D01*
X119300000Y-75360761D01*
X119300000Y-75639239D01*
X119406568Y-75896518D01*
X119603482Y-76093432D01*
X119860761Y-76200000D01*
X120139239Y-76200000D01*
X120396518Y-76093432D01*
X120593432Y-75896518D01*
X120700000Y-75639239D01*
X120700000Y-75360761D01*
X120593432Y-75103482D01*
X120396518Y-74906568D01*
X120375000Y-74897655D01*
X120375000Y-69352345D01*
X120396518Y-69343432D01*
X120593432Y-69146518D01*
X120700000Y-68889239D01*
X120700000Y-68610761D01*
X120593432Y-68353482D01*
X120396518Y-68156568D01*
X120375000Y-68147655D01*
X120375000Y-66352345D01*
X120396518Y-66343432D01*
X120593432Y-66146518D01*
X120700000Y-65889239D01*
X120700000Y-65610761D01*
X120593432Y-65353482D01*
X120396518Y-65156568D01*
X120375000Y-65147655D01*
X120375000Y-63352345D01*
X120396518Y-63343432D01*
X120593432Y-63146518D01*
X120700000Y-62889239D01*
X120700000Y-62610761D01*
X120593432Y-62353482D01*
X120396518Y-62156568D01*
X120375000Y-62147655D01*
X120375000Y-60352341D01*
X120396508Y-60343432D01*
X120593422Y-60146518D01*
X120699990Y-59889239D01*
X120699990Y-59610761D01*
X121800000Y-59610761D01*
X121800000Y-59889239D01*
X121906568Y-60146518D01*
X122103482Y-60343432D01*
X122125001Y-60352345D01*
X122125000Y-62147655D01*
X122103482Y-62156568D01*
X121906568Y-62353482D01*
X121800000Y-62610761D01*
X121800000Y-62889239D01*
X121906568Y-63146518D01*
X122103482Y-63343432D01*
X122125000Y-63352345D01*
X122125001Y-65147655D01*
X122103482Y-65156568D01*
X121906568Y-65353482D01*
X121800000Y-65610761D01*
X121800000Y-65889239D01*
X121906568Y-66146518D01*
X122103482Y-66343432D01*
X122125000Y-66352345D01*
X122125001Y-68147655D01*
X122103482Y-68156568D01*
X121906568Y-68353482D01*
X121800000Y-68610761D01*
X121800000Y-68889239D01*
X121906568Y-69146518D01*
X122103482Y-69343432D01*
X122125000Y-69352345D01*
X122125001Y-71147655D01*
X122103482Y-71156568D01*
X121906568Y-71353482D01*
X121800000Y-71610761D01*
X121800000Y-71889239D01*
X121906568Y-72146518D01*
X122103482Y-72343432D01*
X122125000Y-72352345D01*
X122125001Y-73147655D01*
X122103482Y-73156568D01*
X121906568Y-73353482D01*
X121800000Y-73610761D01*
X121800000Y-73889239D01*
X121906568Y-74146518D01*
X122103482Y-74343432D01*
X122360761Y-74450000D01*
X122639239Y-74450000D01*
X122896518Y-74343432D01*
X123093432Y-74146518D01*
X123200000Y-73889239D01*
X123200000Y-73610761D01*
X123093432Y-73353482D01*
X122896518Y-73156568D01*
X122875000Y-73147655D01*
X122875000Y-72352345D01*
X122896518Y-72343432D01*
X123093432Y-72146518D01*
X123200000Y-71889239D01*
X123200000Y-71610761D01*
X123093432Y-71353482D01*
X122896518Y-71156568D01*
X122875000Y-71147655D01*
X122875000Y-69352345D01*
X122896518Y-69343432D01*
X123093432Y-69146518D01*
X123200000Y-68889239D01*
X123200000Y-68610761D01*
X123093432Y-68353482D01*
X122896518Y-68156568D01*
X122875000Y-68147655D01*
X122875000Y-66352345D01*
X122896518Y-66343432D01*
X123093432Y-66146518D01*
X123200000Y-65889239D01*
X123200000Y-65610761D01*
X123093432Y-65353482D01*
X122896518Y-65156568D01*
X122875000Y-65147655D01*
X122875000Y-63352345D01*
X122896518Y-63343432D01*
X123093432Y-63146518D01*
X123200000Y-62889239D01*
X123200000Y-62610761D01*
X123093432Y-62353482D01*
X122896518Y-62156568D01*
X122875000Y-62147655D01*
X122875000Y-60352345D01*
X122896518Y-60343432D01*
X123093432Y-60146518D01*
X123200000Y-59889239D01*
X123200000Y-59610761D01*
X123093432Y-59353482D01*
X122896518Y-59156568D01*
X122639239Y-59050000D01*
X122360761Y-59050000D01*
X122103482Y-59156568D01*
X121906568Y-59353482D01*
X121800000Y-59610761D01*
X120699990Y-59610761D01*
X120593422Y-59353482D01*
X120396508Y-59156568D01*
X120139229Y-59050000D01*
X119860751Y-59050000D01*
X119603472Y-59156568D01*
X119406558Y-59353482D01*
X119299990Y-59610761D01*
X118200000Y-59610761D01*
X118093432Y-59353482D01*
X117896518Y-59156568D01*
X117639239Y-59050000D01*
X117360761Y-59050000D01*
X117103482Y-59156568D01*
X116906568Y-59353482D01*
X116800000Y-59610761D01*
X115700000Y-59610761D01*
X115593432Y-59353482D01*
X115396518Y-59156568D01*
X115139239Y-59050000D01*
X114860761Y-59050000D01*
X114603482Y-59156568D01*
X114406568Y-59353482D01*
X114300000Y-59610761D01*
X113200000Y-59610761D01*
X113093432Y-59353482D01*
X112896518Y-59156568D01*
X112639239Y-59050000D01*
X112360761Y-59050000D01*
X112103482Y-59156568D01*
X111906568Y-59353482D01*
X111800000Y-59610761D01*
X108375000Y-59610761D01*
X108375000Y-58852345D01*
X108396518Y-58843432D01*
X108593432Y-58646518D01*
X108700000Y-58389239D01*
X108700000Y-58110761D01*
X108593432Y-57853482D01*
X108396518Y-57656568D01*
X108139239Y-57550000D01*
X107860761Y-57550000D01*
X107603482Y-57656568D01*
X107406568Y-57853482D01*
X107300000Y-58110761D01*
X100382011Y-58110761D01*
X100421726Y-57745182D01*
X100631813Y-57120918D01*
X100788131Y-56860761D01*
X124300000Y-56860761D01*
X124300000Y-57139239D01*
X124406568Y-57396518D01*
X124603482Y-57593432D01*
X124625001Y-57602345D01*
X124625000Y-59147655D01*
X124603482Y-59156568D01*
X124406568Y-59353482D01*
X124300000Y-59610761D01*
X124300000Y-59889239D01*
X124406568Y-60146518D01*
X124603482Y-60343432D01*
X124625001Y-60352345D01*
X124625000Y-62147655D01*
X124603482Y-62156568D01*
X124406568Y-62353482D01*
X124300000Y-62610761D01*
X124300000Y-62889239D01*
X124406568Y-63146518D01*
X124603482Y-63343432D01*
X124625000Y-63352345D01*
X124625001Y-65147655D01*
X124603482Y-65156568D01*
X124406568Y-65353482D01*
X124300000Y-65610761D01*
X124300000Y-65889239D01*
X124406568Y-66146518D01*
X124603482Y-66343432D01*
X124625000Y-66352345D01*
X124625001Y-68147655D01*
X124603482Y-68156568D01*
X124406568Y-68353482D01*
X124300000Y-68610761D01*
X124300000Y-68889239D01*
X124406568Y-69146518D01*
X124603482Y-69343432D01*
X124625000Y-69352345D01*
X124625001Y-71147655D01*
X124603482Y-71156568D01*
X124406568Y-71353482D01*
X124300000Y-71610761D01*
X124300000Y-71889239D01*
X124406568Y-72146518D01*
X124603482Y-72343432D01*
X124625000Y-72352345D01*
X124625001Y-73147655D01*
X124603482Y-73156568D01*
X124406568Y-73353482D01*
X124300000Y-73610761D01*
X124300000Y-73889239D01*
X124406568Y-74146518D01*
X124603482Y-74343432D01*
X124860761Y-74450000D01*
X125139239Y-74450000D01*
X125396518Y-74343432D01*
X125593432Y-74146518D01*
X125700000Y-73889239D01*
X125700000Y-73610761D01*
X125593432Y-73353482D01*
X125396518Y-73156568D01*
X125375000Y-73147655D01*
X125375000Y-72352345D01*
X125396518Y-72343432D01*
X125593432Y-72146518D01*
X125700000Y-71889239D01*
X125700000Y-71610761D01*
X125593432Y-71353482D01*
X125396518Y-71156568D01*
X125375000Y-71147655D01*
X125375000Y-69352345D01*
X125396518Y-69343432D01*
X125593432Y-69146518D01*
X125700000Y-68889239D01*
X125700000Y-68610761D01*
X125593432Y-68353482D01*
X125396518Y-68156568D01*
X125375000Y-68147655D01*
X125375000Y-66352345D01*
X125396518Y-66343432D01*
X125593432Y-66146518D01*
X125700000Y-65889239D01*
X125700000Y-65610761D01*
X125593432Y-65353482D01*
X125396518Y-65156568D01*
X125375000Y-65147655D01*
X125375000Y-63352345D01*
X125396518Y-63343432D01*
X125593432Y-63146518D01*
X125700000Y-62889239D01*
X125700000Y-62610761D01*
X125593432Y-62353482D01*
X125396518Y-62156568D01*
X125375000Y-62147655D01*
X125375000Y-60352345D01*
X125396518Y-60343432D01*
X125593432Y-60146518D01*
X125700000Y-59889239D01*
X125700000Y-59610761D01*
X125593432Y-59353482D01*
X125396518Y-59156568D01*
X125375000Y-59147655D01*
X125375000Y-57602345D01*
X125396518Y-57593432D01*
X125593432Y-57396518D01*
X125700000Y-57139239D01*
X125700000Y-56860761D01*
X125593432Y-56603482D01*
X125396518Y-56406568D01*
X125139239Y-56300000D01*
X124860761Y-56300000D01*
X124603482Y-56406568D01*
X124406568Y-56603482D01*
X124300000Y-56860761D01*
X100788131Y-56860761D01*
X100971053Y-56556329D01*
X101274199Y-56235761D01*
X126800000Y-56235761D01*
X126800000Y-56514239D01*
X126906568Y-56771518D01*
X127103482Y-56968432D01*
X127125001Y-56977345D01*
X127125000Y-59147655D01*
X127103482Y-59156568D01*
X126906568Y-59353482D01*
X126800000Y-59610761D01*
X126800000Y-59889239D01*
X126906568Y-60146518D01*
X127103482Y-60343432D01*
X127125001Y-60352345D01*
X127125000Y-62147655D01*
X127103482Y-62156568D01*
X126906568Y-62353482D01*
X126800000Y-62610761D01*
X126800000Y-62889239D01*
X126906568Y-63146518D01*
X127103482Y-63343432D01*
X127125000Y-63352345D01*
X127125001Y-65147655D01*
X127103482Y-65156568D01*
X126906568Y-65353482D01*
X126800000Y-65610761D01*
X126800000Y-65889239D01*
X126906568Y-66146518D01*
X127103482Y-66343432D01*
X127125000Y-66352345D01*
X127125001Y-68147655D01*
X127103482Y-68156568D01*
X126906568Y-68353482D01*
X126800000Y-68610761D01*
X126800000Y-68889239D01*
X126906568Y-69146518D01*
X127103482Y-69343432D01*
X127125000Y-69352345D01*
X127125001Y-71147655D01*
X127103482Y-71156568D01*
X126906568Y-71353482D01*
X126800000Y-71610761D01*
X126800000Y-71889239D01*
X126906568Y-72146518D01*
X127103482Y-72343432D01*
X127125000Y-72352345D01*
X127125001Y-73147655D01*
X127103482Y-73156568D01*
X126906568Y-73353482D01*
X126800000Y-73610761D01*
X126800000Y-73889239D01*
X126906568Y-74146518D01*
X127103482Y-74343432D01*
X127360761Y-74450000D01*
X127639239Y-74450000D01*
X127896518Y-74343432D01*
X128093432Y-74146518D01*
X128200000Y-73889239D01*
X128200000Y-73610761D01*
X128093432Y-73353482D01*
X127896518Y-73156568D01*
X127875000Y-73147655D01*
X127875000Y-72352345D01*
X127896518Y-72343432D01*
X128093432Y-72146518D01*
X128200000Y-71889239D01*
X128200000Y-71610761D01*
X128093432Y-71353482D01*
X127896518Y-71156568D01*
X127875000Y-71147655D01*
X127875000Y-69352345D01*
X127896518Y-69343432D01*
X128093432Y-69146518D01*
X128200000Y-68889239D01*
X128200000Y-68610761D01*
X128093432Y-68353482D01*
X127896518Y-68156568D01*
X127875000Y-68147655D01*
X127875000Y-66352345D01*
X127896518Y-66343432D01*
X128093432Y-66146518D01*
X128200000Y-65889239D01*
X128200000Y-65610761D01*
X128093432Y-65353482D01*
X127896518Y-65156568D01*
X127875000Y-65147655D01*
X127875000Y-63352345D01*
X127896518Y-63343432D01*
X128093432Y-63146518D01*
X128200000Y-62889239D01*
X128200000Y-62610761D01*
X128093432Y-62353482D01*
X127896518Y-62156568D01*
X127875000Y-62147655D01*
X127875000Y-60352345D01*
X127896518Y-60343432D01*
X128093432Y-60146518D01*
X128200000Y-59889239D01*
X128200000Y-59610761D01*
X128093432Y-59353482D01*
X127896518Y-59156568D01*
X127875000Y-59147655D01*
X127875000Y-56977345D01*
X127896518Y-56968432D01*
X128093432Y-56771518D01*
X128200000Y-56514239D01*
X128200000Y-56235761D01*
X128093432Y-55978482D01*
X127896518Y-55781568D01*
X127639239Y-55675000D01*
X127360761Y-55675000D01*
X127103482Y-55781568D01*
X126906568Y-55978482D01*
X126800000Y-56235761D01*
X101274199Y-56235761D01*
X101423618Y-56077755D01*
X101968387Y-55707530D01*
X102579954Y-55462921D01*
X103246295Y-55352609D01*
X103307463Y-55350000D01*
X129410050Y-55350000D01*
X129406568Y-55353482D01*
G04 #@! TD*
M02*
