G04 #@! TF.GenerationSoftware,KiCad,Pcbnew,5.0.2+dfsg1-1*
G04 #@! TF.CreationDate,2019-02-23T22:45:36+01:00*
G04 #@! TF.ProjectId,B-timer,422d7469-6d65-4722-9e6b-696361645f70,rev?*
G04 #@! TF.SameCoordinates,Original*
G04 #@! TF.FileFunction,Legend,Top*
G04 #@! TF.FilePolarity,Positive*
%FSLAX46Y46*%
G04 Gerber Fmt 4.6, Leading zero omitted, Abs format (unit mm)*
G04 Created by KiCad (PCBNEW 5.0.2+dfsg1-1) date Sat 23 Feb 2019 10:45:36 PM CET*
%MOMM*%
%LPD*%
G01*
G04 APERTURE LIST*
%ADD10C,0.120000*%
%ADD11C,0.150000*%
G04 APERTURE END LIST*
D10*
G04 #@! TO.C,R7*
X123220000Y-73750000D02*
X123220000Y-74250000D01*
X124280000Y-74250000D02*
X124280000Y-73750000D01*
G04 #@! TO.C,J1*
X98720000Y-85150000D02*
X105130000Y-85150000D01*
X99950000Y-93850000D02*
X99950000Y-85150000D01*
X105130000Y-93850000D02*
X98720000Y-93850000D01*
X105130000Y-85150000D02*
X105130000Y-93850000D01*
X98720000Y-85150000D02*
X98720000Y-93850000D01*
G04 #@! TO.C,BZ1*
X143184000Y-79210000D02*
X145834000Y-79210000D01*
X145834000Y-79210000D02*
X145834000Y-88430000D01*
X145834000Y-88430000D02*
X143184000Y-88430000D01*
X139264000Y-88430000D02*
X136614000Y-88430000D01*
X136614000Y-88430000D02*
X136614000Y-79210000D01*
X136614000Y-79210000D02*
X139264000Y-79210000D01*
X143184000Y-79210000D02*
X143184000Y-78880000D01*
G04 #@! TO.C,D1*
X111750000Y-57700000D02*
X111750000Y-59800000D01*
X110750000Y-57700000D02*
X110750000Y-59800000D01*
X111750000Y-57700000D02*
X110750000Y-57700000D01*
G04 #@! TO.C,D2*
X114250000Y-57700000D02*
X114250000Y-59800000D01*
X113250000Y-57700000D02*
X113250000Y-59800000D01*
X114250000Y-57700000D02*
X113250000Y-57700000D01*
G04 #@! TO.C,D3*
X116750000Y-57700000D02*
X115750000Y-57700000D01*
X115750000Y-57700000D02*
X115750000Y-59800000D01*
X116750000Y-57700000D02*
X116750000Y-59800000D01*
G04 #@! TO.C,D4*
X119250000Y-57700000D02*
X118250000Y-57700000D01*
X118250000Y-57700000D02*
X118250000Y-59800000D01*
X119250000Y-57700000D02*
X119250000Y-59800000D01*
G04 #@! TO.C,D5*
X121750000Y-57700000D02*
X121750000Y-59800000D01*
X120750000Y-57700000D02*
X120750000Y-59800000D01*
X121750000Y-57700000D02*
X120750000Y-57700000D01*
G04 #@! TO.C,D6*
X124250000Y-57700000D02*
X123250000Y-57700000D01*
X123250000Y-57700000D02*
X123250000Y-59800000D01*
X124250000Y-57700000D02*
X124250000Y-59800000D01*
G04 #@! TO.C,D7*
X126750000Y-57700000D02*
X126750000Y-59800000D01*
X125750000Y-57700000D02*
X125750000Y-59800000D01*
X126750000Y-57700000D02*
X125750000Y-57700000D01*
G04 #@! TO.C,D8*
X129250000Y-57700000D02*
X128250000Y-57700000D01*
X128250000Y-57700000D02*
X128250000Y-59800000D01*
X129250000Y-57700000D02*
X129250000Y-59800000D01*
G04 #@! TO.C,D9*
X131750000Y-57700000D02*
X131750000Y-59800000D01*
X130750000Y-57700000D02*
X130750000Y-59800000D01*
X131750000Y-57700000D02*
X130750000Y-57700000D01*
G04 #@! TO.C,D10*
X111750000Y-60700000D02*
X110750000Y-60700000D01*
X110750000Y-60700000D02*
X110750000Y-62800000D01*
X111750000Y-60700000D02*
X111750000Y-62800000D01*
G04 #@! TO.C,D11*
X114250000Y-60700000D02*
X114250000Y-62800000D01*
X113250000Y-60700000D02*
X113250000Y-62800000D01*
X114250000Y-60700000D02*
X113250000Y-60700000D01*
G04 #@! TO.C,D12*
X116750000Y-60700000D02*
X115750000Y-60700000D01*
X115750000Y-60700000D02*
X115750000Y-62800000D01*
X116750000Y-60700000D02*
X116750000Y-62800000D01*
G04 #@! TO.C,D13*
X119250000Y-60700000D02*
X119250000Y-62800000D01*
X118250000Y-60700000D02*
X118250000Y-62800000D01*
X119250000Y-60700000D02*
X118250000Y-60700000D01*
G04 #@! TO.C,D14*
X121750000Y-60700000D02*
X120750000Y-60700000D01*
X120750000Y-60700000D02*
X120750000Y-62800000D01*
X121750000Y-60700000D02*
X121750000Y-62800000D01*
G04 #@! TO.C,D15*
X124250000Y-60700000D02*
X124250000Y-62800000D01*
X123250000Y-60700000D02*
X123250000Y-62800000D01*
X124250000Y-60700000D02*
X123250000Y-60700000D01*
G04 #@! TO.C,D16*
X126750000Y-60700000D02*
X125750000Y-60700000D01*
X125750000Y-60700000D02*
X125750000Y-62800000D01*
X126750000Y-60700000D02*
X126750000Y-62800000D01*
G04 #@! TO.C,D17*
X129250000Y-60700000D02*
X128250000Y-60700000D01*
X128250000Y-60700000D02*
X128250000Y-62800000D01*
X129250000Y-60700000D02*
X129250000Y-62800000D01*
G04 #@! TO.C,D18*
X131750000Y-60700000D02*
X131750000Y-62800000D01*
X130750000Y-60700000D02*
X130750000Y-62800000D01*
X131750000Y-60700000D02*
X130750000Y-60700000D01*
G04 #@! TO.C,D19*
X111750000Y-63700000D02*
X111750000Y-65800000D01*
X110750000Y-63700000D02*
X110750000Y-65800000D01*
X111750000Y-63700000D02*
X110750000Y-63700000D01*
G04 #@! TO.C,D20*
X114250000Y-63700000D02*
X113250000Y-63700000D01*
X113250000Y-63700000D02*
X113250000Y-65800000D01*
X114250000Y-63700000D02*
X114250000Y-65800000D01*
G04 #@! TO.C,D21*
X116750000Y-63700000D02*
X116750000Y-65800000D01*
X115750000Y-63700000D02*
X115750000Y-65800000D01*
X116750000Y-63700000D02*
X115750000Y-63700000D01*
G04 #@! TO.C,D22*
X119250000Y-63700000D02*
X118250000Y-63700000D01*
X118250000Y-63700000D02*
X118250000Y-65800000D01*
X119250000Y-63700000D02*
X119250000Y-65800000D01*
G04 #@! TO.C,D23*
X121750000Y-63700000D02*
X121750000Y-65800000D01*
X120750000Y-63700000D02*
X120750000Y-65800000D01*
X121750000Y-63700000D02*
X120750000Y-63700000D01*
G04 #@! TO.C,D24*
X124250000Y-63700000D02*
X123250000Y-63700000D01*
X123250000Y-63700000D02*
X123250000Y-65800000D01*
X124250000Y-63700000D02*
X124250000Y-65800000D01*
G04 #@! TO.C,D25*
X126750000Y-63700000D02*
X126750000Y-65800000D01*
X125750000Y-63700000D02*
X125750000Y-65800000D01*
X126750000Y-63700000D02*
X125750000Y-63700000D01*
G04 #@! TO.C,D26*
X129250000Y-63700000D02*
X128250000Y-63700000D01*
X128250000Y-63700000D02*
X128250000Y-65800000D01*
X129250000Y-63700000D02*
X129250000Y-65800000D01*
G04 #@! TO.C,D27*
X131750000Y-63700000D02*
X131750000Y-65800000D01*
X130750000Y-63700000D02*
X130750000Y-65800000D01*
X131750000Y-63700000D02*
X130750000Y-63700000D01*
G04 #@! TO.C,D28*
X111750000Y-66700000D02*
X110750000Y-66700000D01*
X110750000Y-66700000D02*
X110750000Y-68800000D01*
X111750000Y-66700000D02*
X111750000Y-68800000D01*
G04 #@! TO.C,D29*
X114250000Y-66700000D02*
X114250000Y-68800000D01*
X113250000Y-66700000D02*
X113250000Y-68800000D01*
X114250000Y-66700000D02*
X113250000Y-66700000D01*
G04 #@! TO.C,D30*
X116750000Y-66700000D02*
X115750000Y-66700000D01*
X115750000Y-66700000D02*
X115750000Y-68800000D01*
X116750000Y-66700000D02*
X116750000Y-68800000D01*
G04 #@! TO.C,D31*
X119250000Y-66700000D02*
X119250000Y-68800000D01*
X118250000Y-66700000D02*
X118250000Y-68800000D01*
X119250000Y-66700000D02*
X118250000Y-66700000D01*
G04 #@! TO.C,D32*
X121750000Y-66700000D02*
X120750000Y-66700000D01*
X120750000Y-66700000D02*
X120750000Y-68800000D01*
X121750000Y-66700000D02*
X121750000Y-68800000D01*
G04 #@! TO.C,D33*
X124250000Y-66700000D02*
X123250000Y-66700000D01*
X123250000Y-66700000D02*
X123250000Y-68800000D01*
X124250000Y-66700000D02*
X124250000Y-68800000D01*
G04 #@! TO.C,D34*
X126750000Y-66700000D02*
X125750000Y-66700000D01*
X125750000Y-66700000D02*
X125750000Y-68800000D01*
X126750000Y-66700000D02*
X126750000Y-68800000D01*
G04 #@! TO.C,D35*
X129250000Y-66700000D02*
X128250000Y-66700000D01*
X128250000Y-66700000D02*
X128250000Y-68800000D01*
X129250000Y-66700000D02*
X129250000Y-68800000D01*
G04 #@! TO.C,D36*
X131750000Y-66700000D02*
X131750000Y-68800000D01*
X130750000Y-66700000D02*
X130750000Y-68800000D01*
X131750000Y-66700000D02*
X130750000Y-66700000D01*
G04 #@! TO.C,D37*
X111750000Y-69700000D02*
X111750000Y-71800000D01*
X110750000Y-69700000D02*
X110750000Y-71800000D01*
X111750000Y-69700000D02*
X110750000Y-69700000D01*
G04 #@! TO.C,D38*
X114250000Y-69700000D02*
X113250000Y-69700000D01*
X113250000Y-69700000D02*
X113250000Y-71800000D01*
X114250000Y-69700000D02*
X114250000Y-71800000D01*
G04 #@! TO.C,D39*
X116750000Y-69700000D02*
X116750000Y-71800000D01*
X115750000Y-69700000D02*
X115750000Y-71800000D01*
X116750000Y-69700000D02*
X115750000Y-69700000D01*
G04 #@! TO.C,D40*
X119250000Y-69700000D02*
X118250000Y-69700000D01*
X118250000Y-69700000D02*
X118250000Y-71800000D01*
X119250000Y-69700000D02*
X119250000Y-71800000D01*
G04 #@! TO.C,D41*
X121750000Y-69700000D02*
X121750000Y-71800000D01*
X120750000Y-69700000D02*
X120750000Y-71800000D01*
X121750000Y-69700000D02*
X120750000Y-69700000D01*
G04 #@! TO.C,D42*
X124250000Y-69700000D02*
X124250000Y-71800000D01*
X123250000Y-69700000D02*
X123250000Y-71800000D01*
X124250000Y-69700000D02*
X123250000Y-69700000D01*
G04 #@! TO.C,D43*
X126750000Y-69700000D02*
X126750000Y-71800000D01*
X125750000Y-69700000D02*
X125750000Y-71800000D01*
X126750000Y-69700000D02*
X125750000Y-69700000D01*
G04 #@! TO.C,D44*
X129250000Y-69700000D02*
X128250000Y-69700000D01*
X128250000Y-69700000D02*
X128250000Y-71800000D01*
X129250000Y-69700000D02*
X129250000Y-71800000D01*
G04 #@! TO.C,D45*
X131750000Y-69700000D02*
X131750000Y-71800000D01*
X130750000Y-69700000D02*
X130750000Y-71800000D01*
X131750000Y-69700000D02*
X130750000Y-69700000D01*
G04 #@! TO.C,D46*
X134250000Y-57700000D02*
X133250000Y-57700000D01*
X133250000Y-57700000D02*
X133250000Y-59800000D01*
X134250000Y-57700000D02*
X134250000Y-59800000D01*
G04 #@! TO.C,D47*
X136750000Y-57700000D02*
X136750000Y-59800000D01*
X135750000Y-57700000D02*
X135750000Y-59800000D01*
X136750000Y-57700000D02*
X135750000Y-57700000D01*
G04 #@! TO.C,D48*
X139250000Y-57700000D02*
X138250000Y-57700000D01*
X138250000Y-57700000D02*
X138250000Y-59800000D01*
X139250000Y-57700000D02*
X139250000Y-59800000D01*
G04 #@! TO.C,D49*
X141750000Y-57700000D02*
X141750000Y-59800000D01*
X140750000Y-57700000D02*
X140750000Y-59800000D01*
X141750000Y-57700000D02*
X140750000Y-57700000D01*
G04 #@! TO.C,D50*
X144250000Y-57700000D02*
X143250000Y-57700000D01*
X143250000Y-57700000D02*
X143250000Y-59800000D01*
X144250000Y-57700000D02*
X144250000Y-59800000D01*
G04 #@! TO.C,D51*
X146750000Y-57700000D02*
X145750000Y-57700000D01*
X145750000Y-57700000D02*
X145750000Y-59800000D01*
X146750000Y-57700000D02*
X146750000Y-59800000D01*
G04 #@! TO.C,D52*
X149250000Y-57700000D02*
X149250000Y-59800000D01*
X148250000Y-57700000D02*
X148250000Y-59800000D01*
X149250000Y-57700000D02*
X148250000Y-57700000D01*
G04 #@! TO.C,D53*
X151750000Y-57700000D02*
X150750000Y-57700000D01*
X150750000Y-57700000D02*
X150750000Y-59800000D01*
X151750000Y-57700000D02*
X151750000Y-59800000D01*
G04 #@! TO.C,D54*
X154250000Y-57700000D02*
X154250000Y-59800000D01*
X153250000Y-57700000D02*
X153250000Y-59800000D01*
X154250000Y-57700000D02*
X153250000Y-57700000D01*
G04 #@! TO.C,D55*
X134250000Y-60700000D02*
X134250000Y-62800000D01*
X133250000Y-60700000D02*
X133250000Y-62800000D01*
X134250000Y-60700000D02*
X133250000Y-60700000D01*
G04 #@! TO.C,D56*
X136750000Y-60700000D02*
X135750000Y-60700000D01*
X135750000Y-60700000D02*
X135750000Y-62800000D01*
X136750000Y-60700000D02*
X136750000Y-62800000D01*
G04 #@! TO.C,D57*
X139250000Y-60700000D02*
X139250000Y-62800000D01*
X138250000Y-60700000D02*
X138250000Y-62800000D01*
X139250000Y-60700000D02*
X138250000Y-60700000D01*
G04 #@! TO.C,D58*
X141750000Y-60700000D02*
X140750000Y-60700000D01*
X140750000Y-60700000D02*
X140750000Y-62800000D01*
X141750000Y-60700000D02*
X141750000Y-62800000D01*
G04 #@! TO.C,D59*
X144250000Y-60700000D02*
X144250000Y-62800000D01*
X143250000Y-60700000D02*
X143250000Y-62800000D01*
X144250000Y-60700000D02*
X143250000Y-60700000D01*
G04 #@! TO.C,D60*
X146750000Y-60700000D02*
X145750000Y-60700000D01*
X145750000Y-60700000D02*
X145750000Y-62800000D01*
X146750000Y-60700000D02*
X146750000Y-62800000D01*
G04 #@! TO.C,D61*
X149250000Y-60700000D02*
X149250000Y-62800000D01*
X148250000Y-60700000D02*
X148250000Y-62800000D01*
X149250000Y-60700000D02*
X148250000Y-60700000D01*
G04 #@! TO.C,D62*
X151750000Y-60700000D02*
X150750000Y-60700000D01*
X150750000Y-60700000D02*
X150750000Y-62800000D01*
X151750000Y-60700000D02*
X151750000Y-62800000D01*
G04 #@! TO.C,D63*
X154250000Y-60700000D02*
X154250000Y-62800000D01*
X153250000Y-60700000D02*
X153250000Y-62800000D01*
X154250000Y-60700000D02*
X153250000Y-60700000D01*
G04 #@! TO.C,D64*
X134250000Y-63700000D02*
X133250000Y-63700000D01*
X133250000Y-63700000D02*
X133250000Y-65800000D01*
X134250000Y-63700000D02*
X134250000Y-65800000D01*
G04 #@! TO.C,D65*
X136750000Y-63700000D02*
X136750000Y-65800000D01*
X135750000Y-63700000D02*
X135750000Y-65800000D01*
X136750000Y-63700000D02*
X135750000Y-63700000D01*
G04 #@! TO.C,D66*
X139250000Y-63700000D02*
X138250000Y-63700000D01*
X138250000Y-63700000D02*
X138250000Y-65800000D01*
X139250000Y-63700000D02*
X139250000Y-65800000D01*
G04 #@! TO.C,D67*
X141750000Y-63700000D02*
X141750000Y-65800000D01*
X140750000Y-63700000D02*
X140750000Y-65800000D01*
X141750000Y-63700000D02*
X140750000Y-63700000D01*
G04 #@! TO.C,D68*
X144250000Y-63700000D02*
X143250000Y-63700000D01*
X143250000Y-63700000D02*
X143250000Y-65800000D01*
X144250000Y-63700000D02*
X144250000Y-65800000D01*
G04 #@! TO.C,D69*
X146750000Y-63700000D02*
X146750000Y-65800000D01*
X145750000Y-63700000D02*
X145750000Y-65800000D01*
X146750000Y-63700000D02*
X145750000Y-63700000D01*
G04 #@! TO.C,D70*
X149250000Y-63700000D02*
X148250000Y-63700000D01*
X148250000Y-63700000D02*
X148250000Y-65800000D01*
X149250000Y-63700000D02*
X149250000Y-65800000D01*
G04 #@! TO.C,D71*
X151750000Y-63700000D02*
X150750000Y-63700000D01*
X150750000Y-63700000D02*
X150750000Y-65800000D01*
X151750000Y-63700000D02*
X151750000Y-65800000D01*
G04 #@! TO.C,D72*
X154250000Y-63700000D02*
X154250000Y-65800000D01*
X153250000Y-63700000D02*
X153250000Y-65800000D01*
X154250000Y-63700000D02*
X153250000Y-63700000D01*
G04 #@! TO.C,D73*
X134250000Y-66700000D02*
X134250000Y-68800000D01*
X133250000Y-66700000D02*
X133250000Y-68800000D01*
X134250000Y-66700000D02*
X133250000Y-66700000D01*
G04 #@! TO.C,D74*
X136750000Y-66700000D02*
X135750000Y-66700000D01*
X135750000Y-66700000D02*
X135750000Y-68800000D01*
X136750000Y-66700000D02*
X136750000Y-68800000D01*
G04 #@! TO.C,D75*
X139250000Y-66700000D02*
X139250000Y-68800000D01*
X138250000Y-66700000D02*
X138250000Y-68800000D01*
X139250000Y-66700000D02*
X138250000Y-66700000D01*
G04 #@! TO.C,D76*
X141750000Y-66700000D02*
X140750000Y-66700000D01*
X140750000Y-66700000D02*
X140750000Y-68800000D01*
X141750000Y-66700000D02*
X141750000Y-68800000D01*
G04 #@! TO.C,D77*
X144250000Y-66700000D02*
X144250000Y-68800000D01*
X143250000Y-66700000D02*
X143250000Y-68800000D01*
X144250000Y-66700000D02*
X143250000Y-66700000D01*
G04 #@! TO.C,D78*
X146750000Y-66700000D02*
X146750000Y-68800000D01*
X145750000Y-66700000D02*
X145750000Y-68800000D01*
X146750000Y-66700000D02*
X145750000Y-66700000D01*
G04 #@! TO.C,D79*
X149250000Y-66700000D02*
X148250000Y-66700000D01*
X148250000Y-66700000D02*
X148250000Y-68800000D01*
X149250000Y-66700000D02*
X149250000Y-68800000D01*
G04 #@! TO.C,D80*
X151750000Y-66700000D02*
X150750000Y-66700000D01*
X150750000Y-66700000D02*
X150750000Y-68800000D01*
X151750000Y-66700000D02*
X151750000Y-68800000D01*
G04 #@! TO.C,D81*
X154250000Y-66700000D02*
X153250000Y-66700000D01*
X153250000Y-66700000D02*
X153250000Y-68800000D01*
X154250000Y-66700000D02*
X154250000Y-68800000D01*
G04 #@! TO.C,D82*
X134250000Y-69700000D02*
X134250000Y-71800000D01*
X133250000Y-69700000D02*
X133250000Y-71800000D01*
X134250000Y-69700000D02*
X133250000Y-69700000D01*
G04 #@! TO.C,D83*
X136750000Y-69700000D02*
X135750000Y-69700000D01*
X135750000Y-69700000D02*
X135750000Y-71800000D01*
X136750000Y-69700000D02*
X136750000Y-71800000D01*
G04 #@! TO.C,D84*
X139250000Y-69700000D02*
X139250000Y-71800000D01*
X138250000Y-69700000D02*
X138250000Y-71800000D01*
X139250000Y-69700000D02*
X138250000Y-69700000D01*
G04 #@! TO.C,D85*
X141750000Y-69700000D02*
X140750000Y-69700000D01*
X140750000Y-69700000D02*
X140750000Y-71800000D01*
X141750000Y-69700000D02*
X141750000Y-71800000D01*
G04 #@! TO.C,D86*
X144250000Y-69700000D02*
X144250000Y-71800000D01*
X143250000Y-69700000D02*
X143250000Y-71800000D01*
X144250000Y-69700000D02*
X143250000Y-69700000D01*
G04 #@! TO.C,D87*
X146750000Y-69700000D02*
X145750000Y-69700000D01*
X145750000Y-69700000D02*
X145750000Y-71800000D01*
X146750000Y-69700000D02*
X146750000Y-71800000D01*
G04 #@! TO.C,D88*
X149250000Y-69700000D02*
X149250000Y-71800000D01*
X148250000Y-69700000D02*
X148250000Y-71800000D01*
X149250000Y-69700000D02*
X148250000Y-69700000D01*
G04 #@! TO.C,D89*
X151750000Y-69700000D02*
X150750000Y-69700000D01*
X150750000Y-69700000D02*
X150750000Y-71800000D01*
X151750000Y-69700000D02*
X151750000Y-71800000D01*
G04 #@! TO.C,D90*
X154250000Y-69700000D02*
X154250000Y-71800000D01*
X153250000Y-69700000D02*
X153250000Y-71800000D01*
X154250000Y-69700000D02*
X153250000Y-69700000D01*
G04 #@! TO.C,R1*
X111780000Y-74250000D02*
X111780000Y-73750000D01*
X110720000Y-73750000D02*
X110720000Y-74250000D01*
G04 #@! TO.C,R2*
X113220000Y-73750000D02*
X113220000Y-74250000D01*
X114280000Y-74250000D02*
X114280000Y-73750000D01*
G04 #@! TO.C,R3*
X116780000Y-74250000D02*
X116780000Y-73750000D01*
X115720000Y-73750000D02*
X115720000Y-74250000D01*
G04 #@! TO.C,R4*
X118220000Y-73750000D02*
X118220000Y-74250000D01*
X119280000Y-74250000D02*
X119280000Y-73750000D01*
G04 #@! TO.C,R5*
X119280000Y-77250000D02*
X119280000Y-76750000D01*
X118220000Y-76750000D02*
X118220000Y-77250000D01*
G04 #@! TO.C,R6*
X120720000Y-73750000D02*
X120720000Y-74250000D01*
X121780000Y-74250000D02*
X121780000Y-73750000D01*
G04 #@! TO.C,R8*
X126780000Y-74250000D02*
X126780000Y-73750000D01*
X125720000Y-73750000D02*
X125720000Y-74250000D01*
G04 #@! TO.C,R9*
X128220000Y-73750000D02*
X128220000Y-74250000D01*
X129280000Y-74250000D02*
X129280000Y-73750000D01*
G04 #@! TO.C,R10*
X131780000Y-74250000D02*
X131780000Y-73750000D01*
X130720000Y-73750000D02*
X130720000Y-74250000D01*
G04 #@! TO.C,SW1*
X118150000Y-98200000D02*
X118150000Y-98450000D01*
X118150000Y-98450000D02*
X111850000Y-98450000D01*
X111850000Y-98450000D02*
X111850000Y-98200000D01*
X118150000Y-93700000D02*
X118150000Y-96300000D01*
X111850000Y-91800000D02*
X111850000Y-91550000D01*
X111850000Y-91550000D02*
X118150000Y-91550000D01*
X118150000Y-91550000D02*
X118150000Y-91800000D01*
X111850000Y-96300000D02*
X111850000Y-93700000D01*
G04 #@! TO.C,SW2*
X129350000Y-96300000D02*
X129350000Y-93700000D01*
X135650000Y-91550000D02*
X135650000Y-91800000D01*
X129350000Y-91550000D02*
X135650000Y-91550000D01*
X129350000Y-91800000D02*
X129350000Y-91550000D01*
X135650000Y-93700000D02*
X135650000Y-96300000D01*
X129350000Y-98450000D02*
X129350000Y-98200000D01*
X135650000Y-98450000D02*
X129350000Y-98450000D01*
X135650000Y-98200000D02*
X135650000Y-98450000D01*
G04 #@! TO.C,SW3*
X146850000Y-96300000D02*
X146850000Y-93700000D01*
X153150000Y-91550000D02*
X153150000Y-91800000D01*
X146850000Y-91550000D02*
X153150000Y-91550000D01*
X146850000Y-91800000D02*
X146850000Y-91550000D01*
X153150000Y-93700000D02*
X153150000Y-96300000D01*
X146850000Y-98450000D02*
X146850000Y-98200000D01*
X153150000Y-98450000D02*
X146850000Y-98450000D01*
X153150000Y-98200000D02*
X153150000Y-98450000D01*
G04 #@! TO.C,U1*
X127766000Y-80006000D02*
X127766000Y-80426000D01*
X127766000Y-87126000D02*
X127766000Y-86706000D01*
X120646000Y-87126000D02*
X120646000Y-86706000D01*
X120646000Y-80006000D02*
X121066000Y-80006000D01*
X127766000Y-87126000D02*
X127346000Y-87126000D01*
X127766000Y-80006000D02*
X127346000Y-80006000D01*
X120646000Y-80426000D02*
X119266000Y-80426000D01*
X120646000Y-80006000D02*
X120646000Y-80426000D01*
X120646000Y-87126000D02*
X121066000Y-87126000D01*
G04 #@! TO.C,U2*
X104200000Y-82810000D02*
X106000000Y-82810000D01*
X106000000Y-79590000D02*
X103550000Y-79590000D01*
G04 #@! TO.C,8MHz1*
X114150000Y-89600000D02*
X114150000Y-77000000D01*
X114150000Y-77000000D02*
X109050000Y-77000000D01*
X109050000Y-77000000D02*
X109050000Y-89600000D01*
G04 #@! TO.C,J2*
X155300000Y-76890000D02*
X160500000Y-76890000D01*
X155300000Y-89710000D02*
X160500000Y-89710000D01*
X153860000Y-77460000D02*
X155300000Y-77460000D01*
X155300000Y-76890000D02*
X155300000Y-77460000D01*
X160500000Y-76890000D02*
X160500000Y-77460000D01*
X155300000Y-89140000D02*
X155300000Y-89710000D01*
X160500000Y-89140000D02*
X160500000Y-89710000D01*
X155300000Y-78980000D02*
X155300000Y-80000000D01*
X160500000Y-78980000D02*
X160500000Y-80000000D01*
X155300000Y-81520000D02*
X155300000Y-82540000D01*
X160500000Y-81520000D02*
X160500000Y-82540000D01*
X155300000Y-84060000D02*
X155300000Y-85080000D01*
X160500000Y-84060000D02*
X160500000Y-85080000D01*
X155300000Y-86600000D02*
X155300000Y-87620000D01*
X160500000Y-86600000D02*
X160500000Y-87620000D01*
G04 #@! TO.C,R7*
D11*
X125552380Y-74166666D02*
X125076190Y-74500000D01*
X125552380Y-74738095D02*
X124552380Y-74738095D01*
X124552380Y-74357142D01*
X124600000Y-74261904D01*
X124647619Y-74214285D01*
X124742857Y-74166666D01*
X124885714Y-74166666D01*
X124980952Y-74214285D01*
X125028571Y-74261904D01*
X125076190Y-74357142D01*
X125076190Y-74738095D01*
X124552380Y-73833333D02*
X124552380Y-73166666D01*
X125552380Y-73595238D01*
G04 #@! TO.C,J1*
X105442380Y-89833333D02*
X106156666Y-89833333D01*
X106299523Y-89880952D01*
X106394761Y-89976190D01*
X106442380Y-90119047D01*
X106442380Y-90214285D01*
X106442380Y-88833333D02*
X106442380Y-89404761D01*
X106442380Y-89119047D02*
X105442380Y-89119047D01*
X105585238Y-89214285D01*
X105680476Y-89309523D01*
X105728095Y-89404761D01*
G04 #@! TO.C,BZ1*
X146652571Y-84700952D02*
X146700190Y-84558095D01*
X146747809Y-84510476D01*
X146843047Y-84462857D01*
X146985904Y-84462857D01*
X147081142Y-84510476D01*
X147128761Y-84558095D01*
X147176380Y-84653333D01*
X147176380Y-85034285D01*
X146176380Y-85034285D01*
X146176380Y-84700952D01*
X146224000Y-84605714D01*
X146271619Y-84558095D01*
X146366857Y-84510476D01*
X146462095Y-84510476D01*
X146557333Y-84558095D01*
X146604952Y-84605714D01*
X146652571Y-84700952D01*
X146652571Y-85034285D01*
X146176380Y-84129523D02*
X146176380Y-83462857D01*
X147176380Y-84129523D01*
X147176380Y-83462857D01*
X147176380Y-82558095D02*
X147176380Y-83129523D01*
X147176380Y-82843809D02*
X146176380Y-82843809D01*
X146319238Y-82939047D01*
X146414476Y-83034285D01*
X146462095Y-83129523D01*
G04 #@! TO.C,D1*
X112952380Y-59738095D02*
X111952380Y-59738095D01*
X111952380Y-59500000D01*
X112000000Y-59357142D01*
X112095238Y-59261904D01*
X112190476Y-59214285D01*
X112380952Y-59166666D01*
X112523809Y-59166666D01*
X112714285Y-59214285D01*
X112809523Y-59261904D01*
X112904761Y-59357142D01*
X112952380Y-59500000D01*
X112952380Y-59738095D01*
X112952380Y-58214285D02*
X112952380Y-58785714D01*
X112952380Y-58500000D02*
X111952380Y-58500000D01*
X112095238Y-58595238D01*
X112190476Y-58690476D01*
X112238095Y-58785714D01*
G04 #@! TO.C,D2*
X115452380Y-59738095D02*
X114452380Y-59738095D01*
X114452380Y-59500000D01*
X114500000Y-59357142D01*
X114595238Y-59261904D01*
X114690476Y-59214285D01*
X114880952Y-59166666D01*
X115023809Y-59166666D01*
X115214285Y-59214285D01*
X115309523Y-59261904D01*
X115404761Y-59357142D01*
X115452380Y-59500000D01*
X115452380Y-59738095D01*
X114547619Y-58785714D02*
X114500000Y-58738095D01*
X114452380Y-58642857D01*
X114452380Y-58404761D01*
X114500000Y-58309523D01*
X114547619Y-58261904D01*
X114642857Y-58214285D01*
X114738095Y-58214285D01*
X114880952Y-58261904D01*
X115452380Y-58833333D01*
X115452380Y-58214285D01*
G04 #@! TO.C,D3*
X117952380Y-59738095D02*
X116952380Y-59738095D01*
X116952380Y-59500000D01*
X117000000Y-59357142D01*
X117095238Y-59261904D01*
X117190476Y-59214285D01*
X117380952Y-59166666D01*
X117523809Y-59166666D01*
X117714285Y-59214285D01*
X117809523Y-59261904D01*
X117904761Y-59357142D01*
X117952380Y-59500000D01*
X117952380Y-59738095D01*
X116952380Y-58833333D02*
X116952380Y-58214285D01*
X117333333Y-58547619D01*
X117333333Y-58404761D01*
X117380952Y-58309523D01*
X117428571Y-58261904D01*
X117523809Y-58214285D01*
X117761904Y-58214285D01*
X117857142Y-58261904D01*
X117904761Y-58309523D01*
X117952380Y-58404761D01*
X117952380Y-58690476D01*
X117904761Y-58785714D01*
X117857142Y-58833333D01*
G04 #@! TO.C,D4*
X120452380Y-59738095D02*
X119452380Y-59738095D01*
X119452380Y-59500000D01*
X119500000Y-59357142D01*
X119595238Y-59261904D01*
X119690476Y-59214285D01*
X119880952Y-59166666D01*
X120023809Y-59166666D01*
X120214285Y-59214285D01*
X120309523Y-59261904D01*
X120404761Y-59357142D01*
X120452380Y-59500000D01*
X120452380Y-59738095D01*
X119785714Y-58309523D02*
X120452380Y-58309523D01*
X119404761Y-58547619D02*
X120119047Y-58785714D01*
X120119047Y-58166666D01*
G04 #@! TO.C,D5*
X122952380Y-59738095D02*
X121952380Y-59738095D01*
X121952380Y-59500000D01*
X122000000Y-59357142D01*
X122095238Y-59261904D01*
X122190476Y-59214285D01*
X122380952Y-59166666D01*
X122523809Y-59166666D01*
X122714285Y-59214285D01*
X122809523Y-59261904D01*
X122904761Y-59357142D01*
X122952380Y-59500000D01*
X122952380Y-59738095D01*
X121952380Y-58261904D02*
X121952380Y-58738095D01*
X122428571Y-58785714D01*
X122380952Y-58738095D01*
X122333333Y-58642857D01*
X122333333Y-58404761D01*
X122380952Y-58309523D01*
X122428571Y-58261904D01*
X122523809Y-58214285D01*
X122761904Y-58214285D01*
X122857142Y-58261904D01*
X122904761Y-58309523D01*
X122952380Y-58404761D01*
X122952380Y-58642857D01*
X122904761Y-58738095D01*
X122857142Y-58785714D01*
G04 #@! TO.C,D6*
X125452380Y-59738095D02*
X124452380Y-59738095D01*
X124452380Y-59500000D01*
X124500000Y-59357142D01*
X124595238Y-59261904D01*
X124690476Y-59214285D01*
X124880952Y-59166666D01*
X125023809Y-59166666D01*
X125214285Y-59214285D01*
X125309523Y-59261904D01*
X125404761Y-59357142D01*
X125452380Y-59500000D01*
X125452380Y-59738095D01*
X124452380Y-58309523D02*
X124452380Y-58500000D01*
X124500000Y-58595238D01*
X124547619Y-58642857D01*
X124690476Y-58738095D01*
X124880952Y-58785714D01*
X125261904Y-58785714D01*
X125357142Y-58738095D01*
X125404761Y-58690476D01*
X125452380Y-58595238D01*
X125452380Y-58404761D01*
X125404761Y-58309523D01*
X125357142Y-58261904D01*
X125261904Y-58214285D01*
X125023809Y-58214285D01*
X124928571Y-58261904D01*
X124880952Y-58309523D01*
X124833333Y-58404761D01*
X124833333Y-58595238D01*
X124880952Y-58690476D01*
X124928571Y-58738095D01*
X125023809Y-58785714D01*
G04 #@! TO.C,D7*
X127952380Y-59738095D02*
X126952380Y-59738095D01*
X126952380Y-59500000D01*
X127000000Y-59357142D01*
X127095238Y-59261904D01*
X127190476Y-59214285D01*
X127380952Y-59166666D01*
X127523809Y-59166666D01*
X127714285Y-59214285D01*
X127809523Y-59261904D01*
X127904761Y-59357142D01*
X127952380Y-59500000D01*
X127952380Y-59738095D01*
X126952380Y-58833333D02*
X126952380Y-58166666D01*
X127952380Y-58595238D01*
G04 #@! TO.C,D8*
X130452380Y-59738095D02*
X129452380Y-59738095D01*
X129452380Y-59500000D01*
X129500000Y-59357142D01*
X129595238Y-59261904D01*
X129690476Y-59214285D01*
X129880952Y-59166666D01*
X130023809Y-59166666D01*
X130214285Y-59214285D01*
X130309523Y-59261904D01*
X130404761Y-59357142D01*
X130452380Y-59500000D01*
X130452380Y-59738095D01*
X129880952Y-58595238D02*
X129833333Y-58690476D01*
X129785714Y-58738095D01*
X129690476Y-58785714D01*
X129642857Y-58785714D01*
X129547619Y-58738095D01*
X129500000Y-58690476D01*
X129452380Y-58595238D01*
X129452380Y-58404761D01*
X129500000Y-58309523D01*
X129547619Y-58261904D01*
X129642857Y-58214285D01*
X129690476Y-58214285D01*
X129785714Y-58261904D01*
X129833333Y-58309523D01*
X129880952Y-58404761D01*
X129880952Y-58595238D01*
X129928571Y-58690476D01*
X129976190Y-58738095D01*
X130071428Y-58785714D01*
X130261904Y-58785714D01*
X130357142Y-58738095D01*
X130404761Y-58690476D01*
X130452380Y-58595238D01*
X130452380Y-58404761D01*
X130404761Y-58309523D01*
X130357142Y-58261904D01*
X130261904Y-58214285D01*
X130071428Y-58214285D01*
X129976190Y-58261904D01*
X129928571Y-58309523D01*
X129880952Y-58404761D01*
G04 #@! TO.C,D9*
X132952380Y-59738095D02*
X131952380Y-59738095D01*
X131952380Y-59500000D01*
X132000000Y-59357142D01*
X132095238Y-59261904D01*
X132190476Y-59214285D01*
X132380952Y-59166666D01*
X132523809Y-59166666D01*
X132714285Y-59214285D01*
X132809523Y-59261904D01*
X132904761Y-59357142D01*
X132952380Y-59500000D01*
X132952380Y-59738095D01*
X132952380Y-58690476D02*
X132952380Y-58500000D01*
X132904761Y-58404761D01*
X132857142Y-58357142D01*
X132714285Y-58261904D01*
X132523809Y-58214285D01*
X132142857Y-58214285D01*
X132047619Y-58261904D01*
X132000000Y-58309523D01*
X131952380Y-58404761D01*
X131952380Y-58595238D01*
X132000000Y-58690476D01*
X132047619Y-58738095D01*
X132142857Y-58785714D01*
X132380952Y-58785714D01*
X132476190Y-58738095D01*
X132523809Y-58690476D01*
X132571428Y-58595238D01*
X132571428Y-58404761D01*
X132523809Y-58309523D01*
X132476190Y-58261904D01*
X132380952Y-58214285D01*
G04 #@! TO.C,D10*
X112952380Y-63214285D02*
X111952380Y-63214285D01*
X111952380Y-62976190D01*
X112000000Y-62833333D01*
X112095238Y-62738095D01*
X112190476Y-62690476D01*
X112380952Y-62642857D01*
X112523809Y-62642857D01*
X112714285Y-62690476D01*
X112809523Y-62738095D01*
X112904761Y-62833333D01*
X112952380Y-62976190D01*
X112952380Y-63214285D01*
X112952380Y-61690476D02*
X112952380Y-62261904D01*
X112952380Y-61976190D02*
X111952380Y-61976190D01*
X112095238Y-62071428D01*
X112190476Y-62166666D01*
X112238095Y-62261904D01*
X111952380Y-61071428D02*
X111952380Y-60976190D01*
X112000000Y-60880952D01*
X112047619Y-60833333D01*
X112142857Y-60785714D01*
X112333333Y-60738095D01*
X112571428Y-60738095D01*
X112761904Y-60785714D01*
X112857142Y-60833333D01*
X112904761Y-60880952D01*
X112952380Y-60976190D01*
X112952380Y-61071428D01*
X112904761Y-61166666D01*
X112857142Y-61214285D01*
X112761904Y-61261904D01*
X112571428Y-61309523D01*
X112333333Y-61309523D01*
X112142857Y-61261904D01*
X112047619Y-61214285D01*
X112000000Y-61166666D01*
X111952380Y-61071428D01*
G04 #@! TO.C,D11*
X115452380Y-63214285D02*
X114452380Y-63214285D01*
X114452380Y-62976190D01*
X114500000Y-62833333D01*
X114595238Y-62738095D01*
X114690476Y-62690476D01*
X114880952Y-62642857D01*
X115023809Y-62642857D01*
X115214285Y-62690476D01*
X115309523Y-62738095D01*
X115404761Y-62833333D01*
X115452380Y-62976190D01*
X115452380Y-63214285D01*
X115452380Y-61690476D02*
X115452380Y-62261904D01*
X115452380Y-61976190D02*
X114452380Y-61976190D01*
X114595238Y-62071428D01*
X114690476Y-62166666D01*
X114738095Y-62261904D01*
X115452380Y-60738095D02*
X115452380Y-61309523D01*
X115452380Y-61023809D02*
X114452380Y-61023809D01*
X114595238Y-61119047D01*
X114690476Y-61214285D01*
X114738095Y-61309523D01*
G04 #@! TO.C,D12*
X117952380Y-63214285D02*
X116952380Y-63214285D01*
X116952380Y-62976190D01*
X117000000Y-62833333D01*
X117095238Y-62738095D01*
X117190476Y-62690476D01*
X117380952Y-62642857D01*
X117523809Y-62642857D01*
X117714285Y-62690476D01*
X117809523Y-62738095D01*
X117904761Y-62833333D01*
X117952380Y-62976190D01*
X117952380Y-63214285D01*
X117952380Y-61690476D02*
X117952380Y-62261904D01*
X117952380Y-61976190D02*
X116952380Y-61976190D01*
X117095238Y-62071428D01*
X117190476Y-62166666D01*
X117238095Y-62261904D01*
X117047619Y-61309523D02*
X117000000Y-61261904D01*
X116952380Y-61166666D01*
X116952380Y-60928571D01*
X117000000Y-60833333D01*
X117047619Y-60785714D01*
X117142857Y-60738095D01*
X117238095Y-60738095D01*
X117380952Y-60785714D01*
X117952380Y-61357142D01*
X117952380Y-60738095D01*
G04 #@! TO.C,D13*
X120452380Y-63214285D02*
X119452380Y-63214285D01*
X119452380Y-62976190D01*
X119500000Y-62833333D01*
X119595238Y-62738095D01*
X119690476Y-62690476D01*
X119880952Y-62642857D01*
X120023809Y-62642857D01*
X120214285Y-62690476D01*
X120309523Y-62738095D01*
X120404761Y-62833333D01*
X120452380Y-62976190D01*
X120452380Y-63214285D01*
X120452380Y-61690476D02*
X120452380Y-62261904D01*
X120452380Y-61976190D02*
X119452380Y-61976190D01*
X119595238Y-62071428D01*
X119690476Y-62166666D01*
X119738095Y-62261904D01*
X119452380Y-61357142D02*
X119452380Y-60738095D01*
X119833333Y-61071428D01*
X119833333Y-60928571D01*
X119880952Y-60833333D01*
X119928571Y-60785714D01*
X120023809Y-60738095D01*
X120261904Y-60738095D01*
X120357142Y-60785714D01*
X120404761Y-60833333D01*
X120452380Y-60928571D01*
X120452380Y-61214285D01*
X120404761Y-61309523D01*
X120357142Y-61357142D01*
G04 #@! TO.C,D14*
X122952380Y-63214285D02*
X121952380Y-63214285D01*
X121952380Y-62976190D01*
X122000000Y-62833333D01*
X122095238Y-62738095D01*
X122190476Y-62690476D01*
X122380952Y-62642857D01*
X122523809Y-62642857D01*
X122714285Y-62690476D01*
X122809523Y-62738095D01*
X122904761Y-62833333D01*
X122952380Y-62976190D01*
X122952380Y-63214285D01*
X122952380Y-61690476D02*
X122952380Y-62261904D01*
X122952380Y-61976190D02*
X121952380Y-61976190D01*
X122095238Y-62071428D01*
X122190476Y-62166666D01*
X122238095Y-62261904D01*
X122285714Y-60833333D02*
X122952380Y-60833333D01*
X121904761Y-61071428D02*
X122619047Y-61309523D01*
X122619047Y-60690476D01*
G04 #@! TO.C,D15*
X125452380Y-63214285D02*
X124452380Y-63214285D01*
X124452380Y-62976190D01*
X124500000Y-62833333D01*
X124595238Y-62738095D01*
X124690476Y-62690476D01*
X124880952Y-62642857D01*
X125023809Y-62642857D01*
X125214285Y-62690476D01*
X125309523Y-62738095D01*
X125404761Y-62833333D01*
X125452380Y-62976190D01*
X125452380Y-63214285D01*
X125452380Y-61690476D02*
X125452380Y-62261904D01*
X125452380Y-61976190D02*
X124452380Y-61976190D01*
X124595238Y-62071428D01*
X124690476Y-62166666D01*
X124738095Y-62261904D01*
X124452380Y-60785714D02*
X124452380Y-61261904D01*
X124928571Y-61309523D01*
X124880952Y-61261904D01*
X124833333Y-61166666D01*
X124833333Y-60928571D01*
X124880952Y-60833333D01*
X124928571Y-60785714D01*
X125023809Y-60738095D01*
X125261904Y-60738095D01*
X125357142Y-60785714D01*
X125404761Y-60833333D01*
X125452380Y-60928571D01*
X125452380Y-61166666D01*
X125404761Y-61261904D01*
X125357142Y-61309523D01*
G04 #@! TO.C,D16*
X127952380Y-63214285D02*
X126952380Y-63214285D01*
X126952380Y-62976190D01*
X127000000Y-62833333D01*
X127095238Y-62738095D01*
X127190476Y-62690476D01*
X127380952Y-62642857D01*
X127523809Y-62642857D01*
X127714285Y-62690476D01*
X127809523Y-62738095D01*
X127904761Y-62833333D01*
X127952380Y-62976190D01*
X127952380Y-63214285D01*
X127952380Y-61690476D02*
X127952380Y-62261904D01*
X127952380Y-61976190D02*
X126952380Y-61976190D01*
X127095238Y-62071428D01*
X127190476Y-62166666D01*
X127238095Y-62261904D01*
X126952380Y-60833333D02*
X126952380Y-61023809D01*
X127000000Y-61119047D01*
X127047619Y-61166666D01*
X127190476Y-61261904D01*
X127380952Y-61309523D01*
X127761904Y-61309523D01*
X127857142Y-61261904D01*
X127904761Y-61214285D01*
X127952380Y-61119047D01*
X127952380Y-60928571D01*
X127904761Y-60833333D01*
X127857142Y-60785714D01*
X127761904Y-60738095D01*
X127523809Y-60738095D01*
X127428571Y-60785714D01*
X127380952Y-60833333D01*
X127333333Y-60928571D01*
X127333333Y-61119047D01*
X127380952Y-61214285D01*
X127428571Y-61261904D01*
X127523809Y-61309523D01*
G04 #@! TO.C,D17*
X130452380Y-63214285D02*
X129452380Y-63214285D01*
X129452380Y-62976190D01*
X129500000Y-62833333D01*
X129595238Y-62738095D01*
X129690476Y-62690476D01*
X129880952Y-62642857D01*
X130023809Y-62642857D01*
X130214285Y-62690476D01*
X130309523Y-62738095D01*
X130404761Y-62833333D01*
X130452380Y-62976190D01*
X130452380Y-63214285D01*
X130452380Y-61690476D02*
X130452380Y-62261904D01*
X130452380Y-61976190D02*
X129452380Y-61976190D01*
X129595238Y-62071428D01*
X129690476Y-62166666D01*
X129738095Y-62261904D01*
X129452380Y-61357142D02*
X129452380Y-60690476D01*
X130452380Y-61119047D01*
G04 #@! TO.C,D18*
X132952380Y-63214285D02*
X131952380Y-63214285D01*
X131952380Y-62976190D01*
X132000000Y-62833333D01*
X132095238Y-62738095D01*
X132190476Y-62690476D01*
X132380952Y-62642857D01*
X132523809Y-62642857D01*
X132714285Y-62690476D01*
X132809523Y-62738095D01*
X132904761Y-62833333D01*
X132952380Y-62976190D01*
X132952380Y-63214285D01*
X132952380Y-61690476D02*
X132952380Y-62261904D01*
X132952380Y-61976190D02*
X131952380Y-61976190D01*
X132095238Y-62071428D01*
X132190476Y-62166666D01*
X132238095Y-62261904D01*
X132380952Y-61119047D02*
X132333333Y-61214285D01*
X132285714Y-61261904D01*
X132190476Y-61309523D01*
X132142857Y-61309523D01*
X132047619Y-61261904D01*
X132000000Y-61214285D01*
X131952380Y-61119047D01*
X131952380Y-60928571D01*
X132000000Y-60833333D01*
X132047619Y-60785714D01*
X132142857Y-60738095D01*
X132190476Y-60738095D01*
X132285714Y-60785714D01*
X132333333Y-60833333D01*
X132380952Y-60928571D01*
X132380952Y-61119047D01*
X132428571Y-61214285D01*
X132476190Y-61261904D01*
X132571428Y-61309523D01*
X132761904Y-61309523D01*
X132857142Y-61261904D01*
X132904761Y-61214285D01*
X132952380Y-61119047D01*
X132952380Y-60928571D01*
X132904761Y-60833333D01*
X132857142Y-60785714D01*
X132761904Y-60738095D01*
X132571428Y-60738095D01*
X132476190Y-60785714D01*
X132428571Y-60833333D01*
X132380952Y-60928571D01*
G04 #@! TO.C,D19*
X112952380Y-66214285D02*
X111952380Y-66214285D01*
X111952380Y-65976190D01*
X112000000Y-65833333D01*
X112095238Y-65738095D01*
X112190476Y-65690476D01*
X112380952Y-65642857D01*
X112523809Y-65642857D01*
X112714285Y-65690476D01*
X112809523Y-65738095D01*
X112904761Y-65833333D01*
X112952380Y-65976190D01*
X112952380Y-66214285D01*
X112952380Y-64690476D02*
X112952380Y-65261904D01*
X112952380Y-64976190D02*
X111952380Y-64976190D01*
X112095238Y-65071428D01*
X112190476Y-65166666D01*
X112238095Y-65261904D01*
X112952380Y-64214285D02*
X112952380Y-64023809D01*
X112904761Y-63928571D01*
X112857142Y-63880952D01*
X112714285Y-63785714D01*
X112523809Y-63738095D01*
X112142857Y-63738095D01*
X112047619Y-63785714D01*
X112000000Y-63833333D01*
X111952380Y-63928571D01*
X111952380Y-64119047D01*
X112000000Y-64214285D01*
X112047619Y-64261904D01*
X112142857Y-64309523D01*
X112380952Y-64309523D01*
X112476190Y-64261904D01*
X112523809Y-64214285D01*
X112571428Y-64119047D01*
X112571428Y-63928571D01*
X112523809Y-63833333D01*
X112476190Y-63785714D01*
X112380952Y-63738095D01*
G04 #@! TO.C,D20*
X115452380Y-66214285D02*
X114452380Y-66214285D01*
X114452380Y-65976190D01*
X114500000Y-65833333D01*
X114595238Y-65738095D01*
X114690476Y-65690476D01*
X114880952Y-65642857D01*
X115023809Y-65642857D01*
X115214285Y-65690476D01*
X115309523Y-65738095D01*
X115404761Y-65833333D01*
X115452380Y-65976190D01*
X115452380Y-66214285D01*
X114547619Y-65261904D02*
X114500000Y-65214285D01*
X114452380Y-65119047D01*
X114452380Y-64880952D01*
X114500000Y-64785714D01*
X114547619Y-64738095D01*
X114642857Y-64690476D01*
X114738095Y-64690476D01*
X114880952Y-64738095D01*
X115452380Y-65309523D01*
X115452380Y-64690476D01*
X114452380Y-64071428D02*
X114452380Y-63976190D01*
X114500000Y-63880952D01*
X114547619Y-63833333D01*
X114642857Y-63785714D01*
X114833333Y-63738095D01*
X115071428Y-63738095D01*
X115261904Y-63785714D01*
X115357142Y-63833333D01*
X115404761Y-63880952D01*
X115452380Y-63976190D01*
X115452380Y-64071428D01*
X115404761Y-64166666D01*
X115357142Y-64214285D01*
X115261904Y-64261904D01*
X115071428Y-64309523D01*
X114833333Y-64309523D01*
X114642857Y-64261904D01*
X114547619Y-64214285D01*
X114500000Y-64166666D01*
X114452380Y-64071428D01*
G04 #@! TO.C,D21*
X117952380Y-66214285D02*
X116952380Y-66214285D01*
X116952380Y-65976190D01*
X117000000Y-65833333D01*
X117095238Y-65738095D01*
X117190476Y-65690476D01*
X117380952Y-65642857D01*
X117523809Y-65642857D01*
X117714285Y-65690476D01*
X117809523Y-65738095D01*
X117904761Y-65833333D01*
X117952380Y-65976190D01*
X117952380Y-66214285D01*
X117047619Y-65261904D02*
X117000000Y-65214285D01*
X116952380Y-65119047D01*
X116952380Y-64880952D01*
X117000000Y-64785714D01*
X117047619Y-64738095D01*
X117142857Y-64690476D01*
X117238095Y-64690476D01*
X117380952Y-64738095D01*
X117952380Y-65309523D01*
X117952380Y-64690476D01*
X117952380Y-63738095D02*
X117952380Y-64309523D01*
X117952380Y-64023809D02*
X116952380Y-64023809D01*
X117095238Y-64119047D01*
X117190476Y-64214285D01*
X117238095Y-64309523D01*
G04 #@! TO.C,D22*
X120452380Y-66214285D02*
X119452380Y-66214285D01*
X119452380Y-65976190D01*
X119500000Y-65833333D01*
X119595238Y-65738095D01*
X119690476Y-65690476D01*
X119880952Y-65642857D01*
X120023809Y-65642857D01*
X120214285Y-65690476D01*
X120309523Y-65738095D01*
X120404761Y-65833333D01*
X120452380Y-65976190D01*
X120452380Y-66214285D01*
X119547619Y-65261904D02*
X119500000Y-65214285D01*
X119452380Y-65119047D01*
X119452380Y-64880952D01*
X119500000Y-64785714D01*
X119547619Y-64738095D01*
X119642857Y-64690476D01*
X119738095Y-64690476D01*
X119880952Y-64738095D01*
X120452380Y-65309523D01*
X120452380Y-64690476D01*
X119547619Y-64309523D02*
X119500000Y-64261904D01*
X119452380Y-64166666D01*
X119452380Y-63928571D01*
X119500000Y-63833333D01*
X119547619Y-63785714D01*
X119642857Y-63738095D01*
X119738095Y-63738095D01*
X119880952Y-63785714D01*
X120452380Y-64357142D01*
X120452380Y-63738095D01*
G04 #@! TO.C,D23*
X122952380Y-66214285D02*
X121952380Y-66214285D01*
X121952380Y-65976190D01*
X122000000Y-65833333D01*
X122095238Y-65738095D01*
X122190476Y-65690476D01*
X122380952Y-65642857D01*
X122523809Y-65642857D01*
X122714285Y-65690476D01*
X122809523Y-65738095D01*
X122904761Y-65833333D01*
X122952380Y-65976190D01*
X122952380Y-66214285D01*
X122047619Y-65261904D02*
X122000000Y-65214285D01*
X121952380Y-65119047D01*
X121952380Y-64880952D01*
X122000000Y-64785714D01*
X122047619Y-64738095D01*
X122142857Y-64690476D01*
X122238095Y-64690476D01*
X122380952Y-64738095D01*
X122952380Y-65309523D01*
X122952380Y-64690476D01*
X121952380Y-64357142D02*
X121952380Y-63738095D01*
X122333333Y-64071428D01*
X122333333Y-63928571D01*
X122380952Y-63833333D01*
X122428571Y-63785714D01*
X122523809Y-63738095D01*
X122761904Y-63738095D01*
X122857142Y-63785714D01*
X122904761Y-63833333D01*
X122952380Y-63928571D01*
X122952380Y-64214285D01*
X122904761Y-64309523D01*
X122857142Y-64357142D01*
G04 #@! TO.C,D24*
X125452380Y-66214285D02*
X124452380Y-66214285D01*
X124452380Y-65976190D01*
X124500000Y-65833333D01*
X124595238Y-65738095D01*
X124690476Y-65690476D01*
X124880952Y-65642857D01*
X125023809Y-65642857D01*
X125214285Y-65690476D01*
X125309523Y-65738095D01*
X125404761Y-65833333D01*
X125452380Y-65976190D01*
X125452380Y-66214285D01*
X124547619Y-65261904D02*
X124500000Y-65214285D01*
X124452380Y-65119047D01*
X124452380Y-64880952D01*
X124500000Y-64785714D01*
X124547619Y-64738095D01*
X124642857Y-64690476D01*
X124738095Y-64690476D01*
X124880952Y-64738095D01*
X125452380Y-65309523D01*
X125452380Y-64690476D01*
X124785714Y-63833333D02*
X125452380Y-63833333D01*
X124404761Y-64071428D02*
X125119047Y-64309523D01*
X125119047Y-63690476D01*
G04 #@! TO.C,D25*
X127952380Y-66214285D02*
X126952380Y-66214285D01*
X126952380Y-65976190D01*
X127000000Y-65833333D01*
X127095238Y-65738095D01*
X127190476Y-65690476D01*
X127380952Y-65642857D01*
X127523809Y-65642857D01*
X127714285Y-65690476D01*
X127809523Y-65738095D01*
X127904761Y-65833333D01*
X127952380Y-65976190D01*
X127952380Y-66214285D01*
X127047619Y-65261904D02*
X127000000Y-65214285D01*
X126952380Y-65119047D01*
X126952380Y-64880952D01*
X127000000Y-64785714D01*
X127047619Y-64738095D01*
X127142857Y-64690476D01*
X127238095Y-64690476D01*
X127380952Y-64738095D01*
X127952380Y-65309523D01*
X127952380Y-64690476D01*
X126952380Y-63785714D02*
X126952380Y-64261904D01*
X127428571Y-64309523D01*
X127380952Y-64261904D01*
X127333333Y-64166666D01*
X127333333Y-63928571D01*
X127380952Y-63833333D01*
X127428571Y-63785714D01*
X127523809Y-63738095D01*
X127761904Y-63738095D01*
X127857142Y-63785714D01*
X127904761Y-63833333D01*
X127952380Y-63928571D01*
X127952380Y-64166666D01*
X127904761Y-64261904D01*
X127857142Y-64309523D01*
G04 #@! TO.C,D26*
X130452380Y-66214285D02*
X129452380Y-66214285D01*
X129452380Y-65976190D01*
X129500000Y-65833333D01*
X129595238Y-65738095D01*
X129690476Y-65690476D01*
X129880952Y-65642857D01*
X130023809Y-65642857D01*
X130214285Y-65690476D01*
X130309523Y-65738095D01*
X130404761Y-65833333D01*
X130452380Y-65976190D01*
X130452380Y-66214285D01*
X129547619Y-65261904D02*
X129500000Y-65214285D01*
X129452380Y-65119047D01*
X129452380Y-64880952D01*
X129500000Y-64785714D01*
X129547619Y-64738095D01*
X129642857Y-64690476D01*
X129738095Y-64690476D01*
X129880952Y-64738095D01*
X130452380Y-65309523D01*
X130452380Y-64690476D01*
X129452380Y-63833333D02*
X129452380Y-64023809D01*
X129500000Y-64119047D01*
X129547619Y-64166666D01*
X129690476Y-64261904D01*
X129880952Y-64309523D01*
X130261904Y-64309523D01*
X130357142Y-64261904D01*
X130404761Y-64214285D01*
X130452380Y-64119047D01*
X130452380Y-63928571D01*
X130404761Y-63833333D01*
X130357142Y-63785714D01*
X130261904Y-63738095D01*
X130023809Y-63738095D01*
X129928571Y-63785714D01*
X129880952Y-63833333D01*
X129833333Y-63928571D01*
X129833333Y-64119047D01*
X129880952Y-64214285D01*
X129928571Y-64261904D01*
X130023809Y-64309523D01*
G04 #@! TO.C,D27*
X132952380Y-66214285D02*
X131952380Y-66214285D01*
X131952380Y-65976190D01*
X132000000Y-65833333D01*
X132095238Y-65738095D01*
X132190476Y-65690476D01*
X132380952Y-65642857D01*
X132523809Y-65642857D01*
X132714285Y-65690476D01*
X132809523Y-65738095D01*
X132904761Y-65833333D01*
X132952380Y-65976190D01*
X132952380Y-66214285D01*
X132047619Y-65261904D02*
X132000000Y-65214285D01*
X131952380Y-65119047D01*
X131952380Y-64880952D01*
X132000000Y-64785714D01*
X132047619Y-64738095D01*
X132142857Y-64690476D01*
X132238095Y-64690476D01*
X132380952Y-64738095D01*
X132952380Y-65309523D01*
X132952380Y-64690476D01*
X131952380Y-64357142D02*
X131952380Y-63690476D01*
X132952380Y-64119047D01*
G04 #@! TO.C,D28*
X112952380Y-69214285D02*
X111952380Y-69214285D01*
X111952380Y-68976190D01*
X112000000Y-68833333D01*
X112095238Y-68738095D01*
X112190476Y-68690476D01*
X112380952Y-68642857D01*
X112523809Y-68642857D01*
X112714285Y-68690476D01*
X112809523Y-68738095D01*
X112904761Y-68833333D01*
X112952380Y-68976190D01*
X112952380Y-69214285D01*
X112047619Y-68261904D02*
X112000000Y-68214285D01*
X111952380Y-68119047D01*
X111952380Y-67880952D01*
X112000000Y-67785714D01*
X112047619Y-67738095D01*
X112142857Y-67690476D01*
X112238095Y-67690476D01*
X112380952Y-67738095D01*
X112952380Y-68309523D01*
X112952380Y-67690476D01*
X112380952Y-67119047D02*
X112333333Y-67214285D01*
X112285714Y-67261904D01*
X112190476Y-67309523D01*
X112142857Y-67309523D01*
X112047619Y-67261904D01*
X112000000Y-67214285D01*
X111952380Y-67119047D01*
X111952380Y-66928571D01*
X112000000Y-66833333D01*
X112047619Y-66785714D01*
X112142857Y-66738095D01*
X112190476Y-66738095D01*
X112285714Y-66785714D01*
X112333333Y-66833333D01*
X112380952Y-66928571D01*
X112380952Y-67119047D01*
X112428571Y-67214285D01*
X112476190Y-67261904D01*
X112571428Y-67309523D01*
X112761904Y-67309523D01*
X112857142Y-67261904D01*
X112904761Y-67214285D01*
X112952380Y-67119047D01*
X112952380Y-66928571D01*
X112904761Y-66833333D01*
X112857142Y-66785714D01*
X112761904Y-66738095D01*
X112571428Y-66738095D01*
X112476190Y-66785714D01*
X112428571Y-66833333D01*
X112380952Y-66928571D01*
G04 #@! TO.C,D29*
X115452380Y-69214285D02*
X114452380Y-69214285D01*
X114452380Y-68976190D01*
X114500000Y-68833333D01*
X114595238Y-68738095D01*
X114690476Y-68690476D01*
X114880952Y-68642857D01*
X115023809Y-68642857D01*
X115214285Y-68690476D01*
X115309523Y-68738095D01*
X115404761Y-68833333D01*
X115452380Y-68976190D01*
X115452380Y-69214285D01*
X114547619Y-68261904D02*
X114500000Y-68214285D01*
X114452380Y-68119047D01*
X114452380Y-67880952D01*
X114500000Y-67785714D01*
X114547619Y-67738095D01*
X114642857Y-67690476D01*
X114738095Y-67690476D01*
X114880952Y-67738095D01*
X115452380Y-68309523D01*
X115452380Y-67690476D01*
X115452380Y-67214285D02*
X115452380Y-67023809D01*
X115404761Y-66928571D01*
X115357142Y-66880952D01*
X115214285Y-66785714D01*
X115023809Y-66738095D01*
X114642857Y-66738095D01*
X114547619Y-66785714D01*
X114500000Y-66833333D01*
X114452380Y-66928571D01*
X114452380Y-67119047D01*
X114500000Y-67214285D01*
X114547619Y-67261904D01*
X114642857Y-67309523D01*
X114880952Y-67309523D01*
X114976190Y-67261904D01*
X115023809Y-67214285D01*
X115071428Y-67119047D01*
X115071428Y-66928571D01*
X115023809Y-66833333D01*
X114976190Y-66785714D01*
X114880952Y-66738095D01*
G04 #@! TO.C,D30*
X117952380Y-69214285D02*
X116952380Y-69214285D01*
X116952380Y-68976190D01*
X117000000Y-68833333D01*
X117095238Y-68738095D01*
X117190476Y-68690476D01*
X117380952Y-68642857D01*
X117523809Y-68642857D01*
X117714285Y-68690476D01*
X117809523Y-68738095D01*
X117904761Y-68833333D01*
X117952380Y-68976190D01*
X117952380Y-69214285D01*
X116952380Y-68309523D02*
X116952380Y-67690476D01*
X117333333Y-68023809D01*
X117333333Y-67880952D01*
X117380952Y-67785714D01*
X117428571Y-67738095D01*
X117523809Y-67690476D01*
X117761904Y-67690476D01*
X117857142Y-67738095D01*
X117904761Y-67785714D01*
X117952380Y-67880952D01*
X117952380Y-68166666D01*
X117904761Y-68261904D01*
X117857142Y-68309523D01*
X116952380Y-67071428D02*
X116952380Y-66976190D01*
X117000000Y-66880952D01*
X117047619Y-66833333D01*
X117142857Y-66785714D01*
X117333333Y-66738095D01*
X117571428Y-66738095D01*
X117761904Y-66785714D01*
X117857142Y-66833333D01*
X117904761Y-66880952D01*
X117952380Y-66976190D01*
X117952380Y-67071428D01*
X117904761Y-67166666D01*
X117857142Y-67214285D01*
X117761904Y-67261904D01*
X117571428Y-67309523D01*
X117333333Y-67309523D01*
X117142857Y-67261904D01*
X117047619Y-67214285D01*
X117000000Y-67166666D01*
X116952380Y-67071428D01*
G04 #@! TO.C,D31*
X120452380Y-69214285D02*
X119452380Y-69214285D01*
X119452380Y-68976190D01*
X119500000Y-68833333D01*
X119595238Y-68738095D01*
X119690476Y-68690476D01*
X119880952Y-68642857D01*
X120023809Y-68642857D01*
X120214285Y-68690476D01*
X120309523Y-68738095D01*
X120404761Y-68833333D01*
X120452380Y-68976190D01*
X120452380Y-69214285D01*
X119452380Y-68309523D02*
X119452380Y-67690476D01*
X119833333Y-68023809D01*
X119833333Y-67880952D01*
X119880952Y-67785714D01*
X119928571Y-67738095D01*
X120023809Y-67690476D01*
X120261904Y-67690476D01*
X120357142Y-67738095D01*
X120404761Y-67785714D01*
X120452380Y-67880952D01*
X120452380Y-68166666D01*
X120404761Y-68261904D01*
X120357142Y-68309523D01*
X120452380Y-66738095D02*
X120452380Y-67309523D01*
X120452380Y-67023809D02*
X119452380Y-67023809D01*
X119595238Y-67119047D01*
X119690476Y-67214285D01*
X119738095Y-67309523D01*
G04 #@! TO.C,D32*
X122952380Y-69214285D02*
X121952380Y-69214285D01*
X121952380Y-68976190D01*
X122000000Y-68833333D01*
X122095238Y-68738095D01*
X122190476Y-68690476D01*
X122380952Y-68642857D01*
X122523809Y-68642857D01*
X122714285Y-68690476D01*
X122809523Y-68738095D01*
X122904761Y-68833333D01*
X122952380Y-68976190D01*
X122952380Y-69214285D01*
X121952380Y-68309523D02*
X121952380Y-67690476D01*
X122333333Y-68023809D01*
X122333333Y-67880952D01*
X122380952Y-67785714D01*
X122428571Y-67738095D01*
X122523809Y-67690476D01*
X122761904Y-67690476D01*
X122857142Y-67738095D01*
X122904761Y-67785714D01*
X122952380Y-67880952D01*
X122952380Y-68166666D01*
X122904761Y-68261904D01*
X122857142Y-68309523D01*
X122047619Y-67309523D02*
X122000000Y-67261904D01*
X121952380Y-67166666D01*
X121952380Y-66928571D01*
X122000000Y-66833333D01*
X122047619Y-66785714D01*
X122142857Y-66738095D01*
X122238095Y-66738095D01*
X122380952Y-66785714D01*
X122952380Y-67357142D01*
X122952380Y-66738095D01*
G04 #@! TO.C,D33*
X125452380Y-69214285D02*
X124452380Y-69214285D01*
X124452380Y-68976190D01*
X124500000Y-68833333D01*
X124595238Y-68738095D01*
X124690476Y-68690476D01*
X124880952Y-68642857D01*
X125023809Y-68642857D01*
X125214285Y-68690476D01*
X125309523Y-68738095D01*
X125404761Y-68833333D01*
X125452380Y-68976190D01*
X125452380Y-69214285D01*
X124452380Y-68309523D02*
X124452380Y-67690476D01*
X124833333Y-68023809D01*
X124833333Y-67880952D01*
X124880952Y-67785714D01*
X124928571Y-67738095D01*
X125023809Y-67690476D01*
X125261904Y-67690476D01*
X125357142Y-67738095D01*
X125404761Y-67785714D01*
X125452380Y-67880952D01*
X125452380Y-68166666D01*
X125404761Y-68261904D01*
X125357142Y-68309523D01*
X124452380Y-67357142D02*
X124452380Y-66738095D01*
X124833333Y-67071428D01*
X124833333Y-66928571D01*
X124880952Y-66833333D01*
X124928571Y-66785714D01*
X125023809Y-66738095D01*
X125261904Y-66738095D01*
X125357142Y-66785714D01*
X125404761Y-66833333D01*
X125452380Y-66928571D01*
X125452380Y-67214285D01*
X125404761Y-67309523D01*
X125357142Y-67357142D01*
G04 #@! TO.C,D34*
X127952380Y-69214285D02*
X126952380Y-69214285D01*
X126952380Y-68976190D01*
X127000000Y-68833333D01*
X127095238Y-68738095D01*
X127190476Y-68690476D01*
X127380952Y-68642857D01*
X127523809Y-68642857D01*
X127714285Y-68690476D01*
X127809523Y-68738095D01*
X127904761Y-68833333D01*
X127952380Y-68976190D01*
X127952380Y-69214285D01*
X126952380Y-68309523D02*
X126952380Y-67690476D01*
X127333333Y-68023809D01*
X127333333Y-67880952D01*
X127380952Y-67785714D01*
X127428571Y-67738095D01*
X127523809Y-67690476D01*
X127761904Y-67690476D01*
X127857142Y-67738095D01*
X127904761Y-67785714D01*
X127952380Y-67880952D01*
X127952380Y-68166666D01*
X127904761Y-68261904D01*
X127857142Y-68309523D01*
X127285714Y-66833333D02*
X127952380Y-66833333D01*
X126904761Y-67071428D02*
X127619047Y-67309523D01*
X127619047Y-66690476D01*
G04 #@! TO.C,D35*
X130452380Y-69214285D02*
X129452380Y-69214285D01*
X129452380Y-68976190D01*
X129500000Y-68833333D01*
X129595238Y-68738095D01*
X129690476Y-68690476D01*
X129880952Y-68642857D01*
X130023809Y-68642857D01*
X130214285Y-68690476D01*
X130309523Y-68738095D01*
X130404761Y-68833333D01*
X130452380Y-68976190D01*
X130452380Y-69214285D01*
X129452380Y-68309523D02*
X129452380Y-67690476D01*
X129833333Y-68023809D01*
X129833333Y-67880952D01*
X129880952Y-67785714D01*
X129928571Y-67738095D01*
X130023809Y-67690476D01*
X130261904Y-67690476D01*
X130357142Y-67738095D01*
X130404761Y-67785714D01*
X130452380Y-67880952D01*
X130452380Y-68166666D01*
X130404761Y-68261904D01*
X130357142Y-68309523D01*
X129452380Y-66785714D02*
X129452380Y-67261904D01*
X129928571Y-67309523D01*
X129880952Y-67261904D01*
X129833333Y-67166666D01*
X129833333Y-66928571D01*
X129880952Y-66833333D01*
X129928571Y-66785714D01*
X130023809Y-66738095D01*
X130261904Y-66738095D01*
X130357142Y-66785714D01*
X130404761Y-66833333D01*
X130452380Y-66928571D01*
X130452380Y-67166666D01*
X130404761Y-67261904D01*
X130357142Y-67309523D01*
G04 #@! TO.C,D36*
X132952380Y-69214285D02*
X131952380Y-69214285D01*
X131952380Y-68976190D01*
X132000000Y-68833333D01*
X132095238Y-68738095D01*
X132190476Y-68690476D01*
X132380952Y-68642857D01*
X132523809Y-68642857D01*
X132714285Y-68690476D01*
X132809523Y-68738095D01*
X132904761Y-68833333D01*
X132952380Y-68976190D01*
X132952380Y-69214285D01*
X131952380Y-68309523D02*
X131952380Y-67690476D01*
X132333333Y-68023809D01*
X132333333Y-67880952D01*
X132380952Y-67785714D01*
X132428571Y-67738095D01*
X132523809Y-67690476D01*
X132761904Y-67690476D01*
X132857142Y-67738095D01*
X132904761Y-67785714D01*
X132952380Y-67880952D01*
X132952380Y-68166666D01*
X132904761Y-68261904D01*
X132857142Y-68309523D01*
X131952380Y-66833333D02*
X131952380Y-67023809D01*
X132000000Y-67119047D01*
X132047619Y-67166666D01*
X132190476Y-67261904D01*
X132380952Y-67309523D01*
X132761904Y-67309523D01*
X132857142Y-67261904D01*
X132904761Y-67214285D01*
X132952380Y-67119047D01*
X132952380Y-66928571D01*
X132904761Y-66833333D01*
X132857142Y-66785714D01*
X132761904Y-66738095D01*
X132523809Y-66738095D01*
X132428571Y-66785714D01*
X132380952Y-66833333D01*
X132333333Y-66928571D01*
X132333333Y-67119047D01*
X132380952Y-67214285D01*
X132428571Y-67261904D01*
X132523809Y-67309523D01*
G04 #@! TO.C,D37*
X112952380Y-72214285D02*
X111952380Y-72214285D01*
X111952380Y-71976190D01*
X112000000Y-71833333D01*
X112095238Y-71738095D01*
X112190476Y-71690476D01*
X112380952Y-71642857D01*
X112523809Y-71642857D01*
X112714285Y-71690476D01*
X112809523Y-71738095D01*
X112904761Y-71833333D01*
X112952380Y-71976190D01*
X112952380Y-72214285D01*
X111952380Y-71309523D02*
X111952380Y-70690476D01*
X112333333Y-71023809D01*
X112333333Y-70880952D01*
X112380952Y-70785714D01*
X112428571Y-70738095D01*
X112523809Y-70690476D01*
X112761904Y-70690476D01*
X112857142Y-70738095D01*
X112904761Y-70785714D01*
X112952380Y-70880952D01*
X112952380Y-71166666D01*
X112904761Y-71261904D01*
X112857142Y-71309523D01*
X111952380Y-70357142D02*
X111952380Y-69690476D01*
X112952380Y-70119047D01*
G04 #@! TO.C,D38*
X115452380Y-72214285D02*
X114452380Y-72214285D01*
X114452380Y-71976190D01*
X114500000Y-71833333D01*
X114595238Y-71738095D01*
X114690476Y-71690476D01*
X114880952Y-71642857D01*
X115023809Y-71642857D01*
X115214285Y-71690476D01*
X115309523Y-71738095D01*
X115404761Y-71833333D01*
X115452380Y-71976190D01*
X115452380Y-72214285D01*
X114452380Y-71309523D02*
X114452380Y-70690476D01*
X114833333Y-71023809D01*
X114833333Y-70880952D01*
X114880952Y-70785714D01*
X114928571Y-70738095D01*
X115023809Y-70690476D01*
X115261904Y-70690476D01*
X115357142Y-70738095D01*
X115404761Y-70785714D01*
X115452380Y-70880952D01*
X115452380Y-71166666D01*
X115404761Y-71261904D01*
X115357142Y-71309523D01*
X114880952Y-70119047D02*
X114833333Y-70214285D01*
X114785714Y-70261904D01*
X114690476Y-70309523D01*
X114642857Y-70309523D01*
X114547619Y-70261904D01*
X114500000Y-70214285D01*
X114452380Y-70119047D01*
X114452380Y-69928571D01*
X114500000Y-69833333D01*
X114547619Y-69785714D01*
X114642857Y-69738095D01*
X114690476Y-69738095D01*
X114785714Y-69785714D01*
X114833333Y-69833333D01*
X114880952Y-69928571D01*
X114880952Y-70119047D01*
X114928571Y-70214285D01*
X114976190Y-70261904D01*
X115071428Y-70309523D01*
X115261904Y-70309523D01*
X115357142Y-70261904D01*
X115404761Y-70214285D01*
X115452380Y-70119047D01*
X115452380Y-69928571D01*
X115404761Y-69833333D01*
X115357142Y-69785714D01*
X115261904Y-69738095D01*
X115071428Y-69738095D01*
X114976190Y-69785714D01*
X114928571Y-69833333D01*
X114880952Y-69928571D01*
G04 #@! TO.C,D39*
X117952380Y-72214285D02*
X116952380Y-72214285D01*
X116952380Y-71976190D01*
X117000000Y-71833333D01*
X117095238Y-71738095D01*
X117190476Y-71690476D01*
X117380952Y-71642857D01*
X117523809Y-71642857D01*
X117714285Y-71690476D01*
X117809523Y-71738095D01*
X117904761Y-71833333D01*
X117952380Y-71976190D01*
X117952380Y-72214285D01*
X116952380Y-71309523D02*
X116952380Y-70690476D01*
X117333333Y-71023809D01*
X117333333Y-70880952D01*
X117380952Y-70785714D01*
X117428571Y-70738095D01*
X117523809Y-70690476D01*
X117761904Y-70690476D01*
X117857142Y-70738095D01*
X117904761Y-70785714D01*
X117952380Y-70880952D01*
X117952380Y-71166666D01*
X117904761Y-71261904D01*
X117857142Y-71309523D01*
X117952380Y-70214285D02*
X117952380Y-70023809D01*
X117904761Y-69928571D01*
X117857142Y-69880952D01*
X117714285Y-69785714D01*
X117523809Y-69738095D01*
X117142857Y-69738095D01*
X117047619Y-69785714D01*
X117000000Y-69833333D01*
X116952380Y-69928571D01*
X116952380Y-70119047D01*
X117000000Y-70214285D01*
X117047619Y-70261904D01*
X117142857Y-70309523D01*
X117380952Y-70309523D01*
X117476190Y-70261904D01*
X117523809Y-70214285D01*
X117571428Y-70119047D01*
X117571428Y-69928571D01*
X117523809Y-69833333D01*
X117476190Y-69785714D01*
X117380952Y-69738095D01*
G04 #@! TO.C,D40*
X120452380Y-72214285D02*
X119452380Y-72214285D01*
X119452380Y-71976190D01*
X119500000Y-71833333D01*
X119595238Y-71738095D01*
X119690476Y-71690476D01*
X119880952Y-71642857D01*
X120023809Y-71642857D01*
X120214285Y-71690476D01*
X120309523Y-71738095D01*
X120404761Y-71833333D01*
X120452380Y-71976190D01*
X120452380Y-72214285D01*
X119785714Y-70785714D02*
X120452380Y-70785714D01*
X119404761Y-71023809D02*
X120119047Y-71261904D01*
X120119047Y-70642857D01*
X119452380Y-70071428D02*
X119452380Y-69976190D01*
X119500000Y-69880952D01*
X119547619Y-69833333D01*
X119642857Y-69785714D01*
X119833333Y-69738095D01*
X120071428Y-69738095D01*
X120261904Y-69785714D01*
X120357142Y-69833333D01*
X120404761Y-69880952D01*
X120452380Y-69976190D01*
X120452380Y-70071428D01*
X120404761Y-70166666D01*
X120357142Y-70214285D01*
X120261904Y-70261904D01*
X120071428Y-70309523D01*
X119833333Y-70309523D01*
X119642857Y-70261904D01*
X119547619Y-70214285D01*
X119500000Y-70166666D01*
X119452380Y-70071428D01*
G04 #@! TO.C,D41*
X122952380Y-72214285D02*
X121952380Y-72214285D01*
X121952380Y-71976190D01*
X122000000Y-71833333D01*
X122095238Y-71738095D01*
X122190476Y-71690476D01*
X122380952Y-71642857D01*
X122523809Y-71642857D01*
X122714285Y-71690476D01*
X122809523Y-71738095D01*
X122904761Y-71833333D01*
X122952380Y-71976190D01*
X122952380Y-72214285D01*
X122285714Y-70785714D02*
X122952380Y-70785714D01*
X121904761Y-71023809D02*
X122619047Y-71261904D01*
X122619047Y-70642857D01*
X122952380Y-69738095D02*
X122952380Y-70309523D01*
X122952380Y-70023809D02*
X121952380Y-70023809D01*
X122095238Y-70119047D01*
X122190476Y-70214285D01*
X122238095Y-70309523D01*
G04 #@! TO.C,D42*
X125452380Y-72214285D02*
X124452380Y-72214285D01*
X124452380Y-71976190D01*
X124500000Y-71833333D01*
X124595238Y-71738095D01*
X124690476Y-71690476D01*
X124880952Y-71642857D01*
X125023809Y-71642857D01*
X125214285Y-71690476D01*
X125309523Y-71738095D01*
X125404761Y-71833333D01*
X125452380Y-71976190D01*
X125452380Y-72214285D01*
X124785714Y-70785714D02*
X125452380Y-70785714D01*
X124404761Y-71023809D02*
X125119047Y-71261904D01*
X125119047Y-70642857D01*
X124547619Y-70309523D02*
X124500000Y-70261904D01*
X124452380Y-70166666D01*
X124452380Y-69928571D01*
X124500000Y-69833333D01*
X124547619Y-69785714D01*
X124642857Y-69738095D01*
X124738095Y-69738095D01*
X124880952Y-69785714D01*
X125452380Y-70357142D01*
X125452380Y-69738095D01*
G04 #@! TO.C,D43*
X127952380Y-72214285D02*
X126952380Y-72214285D01*
X126952380Y-71976190D01*
X127000000Y-71833333D01*
X127095238Y-71738095D01*
X127190476Y-71690476D01*
X127380952Y-71642857D01*
X127523809Y-71642857D01*
X127714285Y-71690476D01*
X127809523Y-71738095D01*
X127904761Y-71833333D01*
X127952380Y-71976190D01*
X127952380Y-72214285D01*
X127285714Y-70785714D02*
X127952380Y-70785714D01*
X126904761Y-71023809D02*
X127619047Y-71261904D01*
X127619047Y-70642857D01*
X126952380Y-70357142D02*
X126952380Y-69738095D01*
X127333333Y-70071428D01*
X127333333Y-69928571D01*
X127380952Y-69833333D01*
X127428571Y-69785714D01*
X127523809Y-69738095D01*
X127761904Y-69738095D01*
X127857142Y-69785714D01*
X127904761Y-69833333D01*
X127952380Y-69928571D01*
X127952380Y-70214285D01*
X127904761Y-70309523D01*
X127857142Y-70357142D01*
G04 #@! TO.C,D44*
X130452380Y-72214285D02*
X129452380Y-72214285D01*
X129452380Y-71976190D01*
X129500000Y-71833333D01*
X129595238Y-71738095D01*
X129690476Y-71690476D01*
X129880952Y-71642857D01*
X130023809Y-71642857D01*
X130214285Y-71690476D01*
X130309523Y-71738095D01*
X130404761Y-71833333D01*
X130452380Y-71976190D01*
X130452380Y-72214285D01*
X129785714Y-70785714D02*
X130452380Y-70785714D01*
X129404761Y-71023809D02*
X130119047Y-71261904D01*
X130119047Y-70642857D01*
X129785714Y-69833333D02*
X130452380Y-69833333D01*
X129404761Y-70071428D02*
X130119047Y-70309523D01*
X130119047Y-69690476D01*
G04 #@! TO.C,D45*
X132952380Y-72214285D02*
X131952380Y-72214285D01*
X131952380Y-71976190D01*
X132000000Y-71833333D01*
X132095238Y-71738095D01*
X132190476Y-71690476D01*
X132380952Y-71642857D01*
X132523809Y-71642857D01*
X132714285Y-71690476D01*
X132809523Y-71738095D01*
X132904761Y-71833333D01*
X132952380Y-71976190D01*
X132952380Y-72214285D01*
X132285714Y-70785714D02*
X132952380Y-70785714D01*
X131904761Y-71023809D02*
X132619047Y-71261904D01*
X132619047Y-70642857D01*
X131952380Y-69785714D02*
X131952380Y-70261904D01*
X132428571Y-70309523D01*
X132380952Y-70261904D01*
X132333333Y-70166666D01*
X132333333Y-69928571D01*
X132380952Y-69833333D01*
X132428571Y-69785714D01*
X132523809Y-69738095D01*
X132761904Y-69738095D01*
X132857142Y-69785714D01*
X132904761Y-69833333D01*
X132952380Y-69928571D01*
X132952380Y-70166666D01*
X132904761Y-70261904D01*
X132857142Y-70309523D01*
G04 #@! TO.C,D46*
X135452380Y-60214285D02*
X134452380Y-60214285D01*
X134452380Y-59976190D01*
X134500000Y-59833333D01*
X134595238Y-59738095D01*
X134690476Y-59690476D01*
X134880952Y-59642857D01*
X135023809Y-59642857D01*
X135214285Y-59690476D01*
X135309523Y-59738095D01*
X135404761Y-59833333D01*
X135452380Y-59976190D01*
X135452380Y-60214285D01*
X134785714Y-58785714D02*
X135452380Y-58785714D01*
X134404761Y-59023809D02*
X135119047Y-59261904D01*
X135119047Y-58642857D01*
X134452380Y-57833333D02*
X134452380Y-58023809D01*
X134500000Y-58119047D01*
X134547619Y-58166666D01*
X134690476Y-58261904D01*
X134880952Y-58309523D01*
X135261904Y-58309523D01*
X135357142Y-58261904D01*
X135404761Y-58214285D01*
X135452380Y-58119047D01*
X135452380Y-57928571D01*
X135404761Y-57833333D01*
X135357142Y-57785714D01*
X135261904Y-57738095D01*
X135023809Y-57738095D01*
X134928571Y-57785714D01*
X134880952Y-57833333D01*
X134833333Y-57928571D01*
X134833333Y-58119047D01*
X134880952Y-58214285D01*
X134928571Y-58261904D01*
X135023809Y-58309523D01*
G04 #@! TO.C,D47*
X137952380Y-60214285D02*
X136952380Y-60214285D01*
X136952380Y-59976190D01*
X137000000Y-59833333D01*
X137095238Y-59738095D01*
X137190476Y-59690476D01*
X137380952Y-59642857D01*
X137523809Y-59642857D01*
X137714285Y-59690476D01*
X137809523Y-59738095D01*
X137904761Y-59833333D01*
X137952380Y-59976190D01*
X137952380Y-60214285D01*
X137285714Y-58785714D02*
X137952380Y-58785714D01*
X136904761Y-59023809D02*
X137619047Y-59261904D01*
X137619047Y-58642857D01*
X136952380Y-58357142D02*
X136952380Y-57690476D01*
X137952380Y-58119047D01*
G04 #@! TO.C,D48*
X140452380Y-60214285D02*
X139452380Y-60214285D01*
X139452380Y-59976190D01*
X139500000Y-59833333D01*
X139595238Y-59738095D01*
X139690476Y-59690476D01*
X139880952Y-59642857D01*
X140023809Y-59642857D01*
X140214285Y-59690476D01*
X140309523Y-59738095D01*
X140404761Y-59833333D01*
X140452380Y-59976190D01*
X140452380Y-60214285D01*
X139785714Y-58785714D02*
X140452380Y-58785714D01*
X139404761Y-59023809D02*
X140119047Y-59261904D01*
X140119047Y-58642857D01*
X139880952Y-58119047D02*
X139833333Y-58214285D01*
X139785714Y-58261904D01*
X139690476Y-58309523D01*
X139642857Y-58309523D01*
X139547619Y-58261904D01*
X139500000Y-58214285D01*
X139452380Y-58119047D01*
X139452380Y-57928571D01*
X139500000Y-57833333D01*
X139547619Y-57785714D01*
X139642857Y-57738095D01*
X139690476Y-57738095D01*
X139785714Y-57785714D01*
X139833333Y-57833333D01*
X139880952Y-57928571D01*
X139880952Y-58119047D01*
X139928571Y-58214285D01*
X139976190Y-58261904D01*
X140071428Y-58309523D01*
X140261904Y-58309523D01*
X140357142Y-58261904D01*
X140404761Y-58214285D01*
X140452380Y-58119047D01*
X140452380Y-57928571D01*
X140404761Y-57833333D01*
X140357142Y-57785714D01*
X140261904Y-57738095D01*
X140071428Y-57738095D01*
X139976190Y-57785714D01*
X139928571Y-57833333D01*
X139880952Y-57928571D01*
G04 #@! TO.C,D49*
X142952380Y-60214285D02*
X141952380Y-60214285D01*
X141952380Y-59976190D01*
X142000000Y-59833333D01*
X142095238Y-59738095D01*
X142190476Y-59690476D01*
X142380952Y-59642857D01*
X142523809Y-59642857D01*
X142714285Y-59690476D01*
X142809523Y-59738095D01*
X142904761Y-59833333D01*
X142952380Y-59976190D01*
X142952380Y-60214285D01*
X142285714Y-58785714D02*
X142952380Y-58785714D01*
X141904761Y-59023809D02*
X142619047Y-59261904D01*
X142619047Y-58642857D01*
X142952380Y-58214285D02*
X142952380Y-58023809D01*
X142904761Y-57928571D01*
X142857142Y-57880952D01*
X142714285Y-57785714D01*
X142523809Y-57738095D01*
X142142857Y-57738095D01*
X142047619Y-57785714D01*
X142000000Y-57833333D01*
X141952380Y-57928571D01*
X141952380Y-58119047D01*
X142000000Y-58214285D01*
X142047619Y-58261904D01*
X142142857Y-58309523D01*
X142380952Y-58309523D01*
X142476190Y-58261904D01*
X142523809Y-58214285D01*
X142571428Y-58119047D01*
X142571428Y-57928571D01*
X142523809Y-57833333D01*
X142476190Y-57785714D01*
X142380952Y-57738095D01*
G04 #@! TO.C,D50*
X145452380Y-60214285D02*
X144452380Y-60214285D01*
X144452380Y-59976190D01*
X144500000Y-59833333D01*
X144595238Y-59738095D01*
X144690476Y-59690476D01*
X144880952Y-59642857D01*
X145023809Y-59642857D01*
X145214285Y-59690476D01*
X145309523Y-59738095D01*
X145404761Y-59833333D01*
X145452380Y-59976190D01*
X145452380Y-60214285D01*
X144452380Y-58738095D02*
X144452380Y-59214285D01*
X144928571Y-59261904D01*
X144880952Y-59214285D01*
X144833333Y-59119047D01*
X144833333Y-58880952D01*
X144880952Y-58785714D01*
X144928571Y-58738095D01*
X145023809Y-58690476D01*
X145261904Y-58690476D01*
X145357142Y-58738095D01*
X145404761Y-58785714D01*
X145452380Y-58880952D01*
X145452380Y-59119047D01*
X145404761Y-59214285D01*
X145357142Y-59261904D01*
X144452380Y-58071428D02*
X144452380Y-57976190D01*
X144500000Y-57880952D01*
X144547619Y-57833333D01*
X144642857Y-57785714D01*
X144833333Y-57738095D01*
X145071428Y-57738095D01*
X145261904Y-57785714D01*
X145357142Y-57833333D01*
X145404761Y-57880952D01*
X145452380Y-57976190D01*
X145452380Y-58071428D01*
X145404761Y-58166666D01*
X145357142Y-58214285D01*
X145261904Y-58261904D01*
X145071428Y-58309523D01*
X144833333Y-58309523D01*
X144642857Y-58261904D01*
X144547619Y-58214285D01*
X144500000Y-58166666D01*
X144452380Y-58071428D01*
G04 #@! TO.C,D51*
X147952380Y-60214285D02*
X146952380Y-60214285D01*
X146952380Y-59976190D01*
X147000000Y-59833333D01*
X147095238Y-59738095D01*
X147190476Y-59690476D01*
X147380952Y-59642857D01*
X147523809Y-59642857D01*
X147714285Y-59690476D01*
X147809523Y-59738095D01*
X147904761Y-59833333D01*
X147952380Y-59976190D01*
X147952380Y-60214285D01*
X146952380Y-58738095D02*
X146952380Y-59214285D01*
X147428571Y-59261904D01*
X147380952Y-59214285D01*
X147333333Y-59119047D01*
X147333333Y-58880952D01*
X147380952Y-58785714D01*
X147428571Y-58738095D01*
X147523809Y-58690476D01*
X147761904Y-58690476D01*
X147857142Y-58738095D01*
X147904761Y-58785714D01*
X147952380Y-58880952D01*
X147952380Y-59119047D01*
X147904761Y-59214285D01*
X147857142Y-59261904D01*
X147952380Y-57738095D02*
X147952380Y-58309523D01*
X147952380Y-58023809D02*
X146952380Y-58023809D01*
X147095238Y-58119047D01*
X147190476Y-58214285D01*
X147238095Y-58309523D01*
G04 #@! TO.C,D52*
X150452380Y-60214285D02*
X149452380Y-60214285D01*
X149452380Y-59976190D01*
X149500000Y-59833333D01*
X149595238Y-59738095D01*
X149690476Y-59690476D01*
X149880952Y-59642857D01*
X150023809Y-59642857D01*
X150214285Y-59690476D01*
X150309523Y-59738095D01*
X150404761Y-59833333D01*
X150452380Y-59976190D01*
X150452380Y-60214285D01*
X149452380Y-58738095D02*
X149452380Y-59214285D01*
X149928571Y-59261904D01*
X149880952Y-59214285D01*
X149833333Y-59119047D01*
X149833333Y-58880952D01*
X149880952Y-58785714D01*
X149928571Y-58738095D01*
X150023809Y-58690476D01*
X150261904Y-58690476D01*
X150357142Y-58738095D01*
X150404761Y-58785714D01*
X150452380Y-58880952D01*
X150452380Y-59119047D01*
X150404761Y-59214285D01*
X150357142Y-59261904D01*
X149547619Y-58309523D02*
X149500000Y-58261904D01*
X149452380Y-58166666D01*
X149452380Y-57928571D01*
X149500000Y-57833333D01*
X149547619Y-57785714D01*
X149642857Y-57738095D01*
X149738095Y-57738095D01*
X149880952Y-57785714D01*
X150452380Y-58357142D01*
X150452380Y-57738095D01*
G04 #@! TO.C,D53*
X152952380Y-60214285D02*
X151952380Y-60214285D01*
X151952380Y-59976190D01*
X152000000Y-59833333D01*
X152095238Y-59738095D01*
X152190476Y-59690476D01*
X152380952Y-59642857D01*
X152523809Y-59642857D01*
X152714285Y-59690476D01*
X152809523Y-59738095D01*
X152904761Y-59833333D01*
X152952380Y-59976190D01*
X152952380Y-60214285D01*
X151952380Y-58738095D02*
X151952380Y-59214285D01*
X152428571Y-59261904D01*
X152380952Y-59214285D01*
X152333333Y-59119047D01*
X152333333Y-58880952D01*
X152380952Y-58785714D01*
X152428571Y-58738095D01*
X152523809Y-58690476D01*
X152761904Y-58690476D01*
X152857142Y-58738095D01*
X152904761Y-58785714D01*
X152952380Y-58880952D01*
X152952380Y-59119047D01*
X152904761Y-59214285D01*
X152857142Y-59261904D01*
X151952380Y-58357142D02*
X151952380Y-57738095D01*
X152333333Y-58071428D01*
X152333333Y-57928571D01*
X152380952Y-57833333D01*
X152428571Y-57785714D01*
X152523809Y-57738095D01*
X152761904Y-57738095D01*
X152857142Y-57785714D01*
X152904761Y-57833333D01*
X152952380Y-57928571D01*
X152952380Y-58214285D01*
X152904761Y-58309523D01*
X152857142Y-58357142D01*
G04 #@! TO.C,D54*
X155452380Y-60214285D02*
X154452380Y-60214285D01*
X154452380Y-59976190D01*
X154500000Y-59833333D01*
X154595238Y-59738095D01*
X154690476Y-59690476D01*
X154880952Y-59642857D01*
X155023809Y-59642857D01*
X155214285Y-59690476D01*
X155309523Y-59738095D01*
X155404761Y-59833333D01*
X155452380Y-59976190D01*
X155452380Y-60214285D01*
X154452380Y-58738095D02*
X154452380Y-59214285D01*
X154928571Y-59261904D01*
X154880952Y-59214285D01*
X154833333Y-59119047D01*
X154833333Y-58880952D01*
X154880952Y-58785714D01*
X154928571Y-58738095D01*
X155023809Y-58690476D01*
X155261904Y-58690476D01*
X155357142Y-58738095D01*
X155404761Y-58785714D01*
X155452380Y-58880952D01*
X155452380Y-59119047D01*
X155404761Y-59214285D01*
X155357142Y-59261904D01*
X154785714Y-57833333D02*
X155452380Y-57833333D01*
X154404761Y-58071428D02*
X155119047Y-58309523D01*
X155119047Y-57690476D01*
G04 #@! TO.C,D55*
X135452380Y-63214285D02*
X134452380Y-63214285D01*
X134452380Y-62976190D01*
X134500000Y-62833333D01*
X134595238Y-62738095D01*
X134690476Y-62690476D01*
X134880952Y-62642857D01*
X135023809Y-62642857D01*
X135214285Y-62690476D01*
X135309523Y-62738095D01*
X135404761Y-62833333D01*
X135452380Y-62976190D01*
X135452380Y-63214285D01*
X134452380Y-61738095D02*
X134452380Y-62214285D01*
X134928571Y-62261904D01*
X134880952Y-62214285D01*
X134833333Y-62119047D01*
X134833333Y-61880952D01*
X134880952Y-61785714D01*
X134928571Y-61738095D01*
X135023809Y-61690476D01*
X135261904Y-61690476D01*
X135357142Y-61738095D01*
X135404761Y-61785714D01*
X135452380Y-61880952D01*
X135452380Y-62119047D01*
X135404761Y-62214285D01*
X135357142Y-62261904D01*
X134452380Y-60785714D02*
X134452380Y-61261904D01*
X134928571Y-61309523D01*
X134880952Y-61261904D01*
X134833333Y-61166666D01*
X134833333Y-60928571D01*
X134880952Y-60833333D01*
X134928571Y-60785714D01*
X135023809Y-60738095D01*
X135261904Y-60738095D01*
X135357142Y-60785714D01*
X135404761Y-60833333D01*
X135452380Y-60928571D01*
X135452380Y-61166666D01*
X135404761Y-61261904D01*
X135357142Y-61309523D01*
G04 #@! TO.C,D56*
X137952380Y-63214285D02*
X136952380Y-63214285D01*
X136952380Y-62976190D01*
X137000000Y-62833333D01*
X137095238Y-62738095D01*
X137190476Y-62690476D01*
X137380952Y-62642857D01*
X137523809Y-62642857D01*
X137714285Y-62690476D01*
X137809523Y-62738095D01*
X137904761Y-62833333D01*
X137952380Y-62976190D01*
X137952380Y-63214285D01*
X136952380Y-61738095D02*
X136952380Y-62214285D01*
X137428571Y-62261904D01*
X137380952Y-62214285D01*
X137333333Y-62119047D01*
X137333333Y-61880952D01*
X137380952Y-61785714D01*
X137428571Y-61738095D01*
X137523809Y-61690476D01*
X137761904Y-61690476D01*
X137857142Y-61738095D01*
X137904761Y-61785714D01*
X137952380Y-61880952D01*
X137952380Y-62119047D01*
X137904761Y-62214285D01*
X137857142Y-62261904D01*
X136952380Y-60833333D02*
X136952380Y-61023809D01*
X137000000Y-61119047D01*
X137047619Y-61166666D01*
X137190476Y-61261904D01*
X137380952Y-61309523D01*
X137761904Y-61309523D01*
X137857142Y-61261904D01*
X137904761Y-61214285D01*
X137952380Y-61119047D01*
X137952380Y-60928571D01*
X137904761Y-60833333D01*
X137857142Y-60785714D01*
X137761904Y-60738095D01*
X137523809Y-60738095D01*
X137428571Y-60785714D01*
X137380952Y-60833333D01*
X137333333Y-60928571D01*
X137333333Y-61119047D01*
X137380952Y-61214285D01*
X137428571Y-61261904D01*
X137523809Y-61309523D01*
G04 #@! TO.C,D57*
X140452380Y-63214285D02*
X139452380Y-63214285D01*
X139452380Y-62976190D01*
X139500000Y-62833333D01*
X139595238Y-62738095D01*
X139690476Y-62690476D01*
X139880952Y-62642857D01*
X140023809Y-62642857D01*
X140214285Y-62690476D01*
X140309523Y-62738095D01*
X140404761Y-62833333D01*
X140452380Y-62976190D01*
X140452380Y-63214285D01*
X139452380Y-61738095D02*
X139452380Y-62214285D01*
X139928571Y-62261904D01*
X139880952Y-62214285D01*
X139833333Y-62119047D01*
X139833333Y-61880952D01*
X139880952Y-61785714D01*
X139928571Y-61738095D01*
X140023809Y-61690476D01*
X140261904Y-61690476D01*
X140357142Y-61738095D01*
X140404761Y-61785714D01*
X140452380Y-61880952D01*
X140452380Y-62119047D01*
X140404761Y-62214285D01*
X140357142Y-62261904D01*
X139452380Y-61357142D02*
X139452380Y-60690476D01*
X140452380Y-61119047D01*
G04 #@! TO.C,D58*
X142952380Y-63214285D02*
X141952380Y-63214285D01*
X141952380Y-62976190D01*
X142000000Y-62833333D01*
X142095238Y-62738095D01*
X142190476Y-62690476D01*
X142380952Y-62642857D01*
X142523809Y-62642857D01*
X142714285Y-62690476D01*
X142809523Y-62738095D01*
X142904761Y-62833333D01*
X142952380Y-62976190D01*
X142952380Y-63214285D01*
X141952380Y-61738095D02*
X141952380Y-62214285D01*
X142428571Y-62261904D01*
X142380952Y-62214285D01*
X142333333Y-62119047D01*
X142333333Y-61880952D01*
X142380952Y-61785714D01*
X142428571Y-61738095D01*
X142523809Y-61690476D01*
X142761904Y-61690476D01*
X142857142Y-61738095D01*
X142904761Y-61785714D01*
X142952380Y-61880952D01*
X142952380Y-62119047D01*
X142904761Y-62214285D01*
X142857142Y-62261904D01*
X142380952Y-61119047D02*
X142333333Y-61214285D01*
X142285714Y-61261904D01*
X142190476Y-61309523D01*
X142142857Y-61309523D01*
X142047619Y-61261904D01*
X142000000Y-61214285D01*
X141952380Y-61119047D01*
X141952380Y-60928571D01*
X142000000Y-60833333D01*
X142047619Y-60785714D01*
X142142857Y-60738095D01*
X142190476Y-60738095D01*
X142285714Y-60785714D01*
X142333333Y-60833333D01*
X142380952Y-60928571D01*
X142380952Y-61119047D01*
X142428571Y-61214285D01*
X142476190Y-61261904D01*
X142571428Y-61309523D01*
X142761904Y-61309523D01*
X142857142Y-61261904D01*
X142904761Y-61214285D01*
X142952380Y-61119047D01*
X142952380Y-60928571D01*
X142904761Y-60833333D01*
X142857142Y-60785714D01*
X142761904Y-60738095D01*
X142571428Y-60738095D01*
X142476190Y-60785714D01*
X142428571Y-60833333D01*
X142380952Y-60928571D01*
G04 #@! TO.C,D59*
X145452380Y-63214285D02*
X144452380Y-63214285D01*
X144452380Y-62976190D01*
X144500000Y-62833333D01*
X144595238Y-62738095D01*
X144690476Y-62690476D01*
X144880952Y-62642857D01*
X145023809Y-62642857D01*
X145214285Y-62690476D01*
X145309523Y-62738095D01*
X145404761Y-62833333D01*
X145452380Y-62976190D01*
X145452380Y-63214285D01*
X144452380Y-61738095D02*
X144452380Y-62214285D01*
X144928571Y-62261904D01*
X144880952Y-62214285D01*
X144833333Y-62119047D01*
X144833333Y-61880952D01*
X144880952Y-61785714D01*
X144928571Y-61738095D01*
X145023809Y-61690476D01*
X145261904Y-61690476D01*
X145357142Y-61738095D01*
X145404761Y-61785714D01*
X145452380Y-61880952D01*
X145452380Y-62119047D01*
X145404761Y-62214285D01*
X145357142Y-62261904D01*
X145452380Y-61214285D02*
X145452380Y-61023809D01*
X145404761Y-60928571D01*
X145357142Y-60880952D01*
X145214285Y-60785714D01*
X145023809Y-60738095D01*
X144642857Y-60738095D01*
X144547619Y-60785714D01*
X144500000Y-60833333D01*
X144452380Y-60928571D01*
X144452380Y-61119047D01*
X144500000Y-61214285D01*
X144547619Y-61261904D01*
X144642857Y-61309523D01*
X144880952Y-61309523D01*
X144976190Y-61261904D01*
X145023809Y-61214285D01*
X145071428Y-61119047D01*
X145071428Y-60928571D01*
X145023809Y-60833333D01*
X144976190Y-60785714D01*
X144880952Y-60738095D01*
G04 #@! TO.C,D60*
X147952380Y-63214285D02*
X146952380Y-63214285D01*
X146952380Y-62976190D01*
X147000000Y-62833333D01*
X147095238Y-62738095D01*
X147190476Y-62690476D01*
X147380952Y-62642857D01*
X147523809Y-62642857D01*
X147714285Y-62690476D01*
X147809523Y-62738095D01*
X147904761Y-62833333D01*
X147952380Y-62976190D01*
X147952380Y-63214285D01*
X146952380Y-61785714D02*
X146952380Y-61976190D01*
X147000000Y-62071428D01*
X147047619Y-62119047D01*
X147190476Y-62214285D01*
X147380952Y-62261904D01*
X147761904Y-62261904D01*
X147857142Y-62214285D01*
X147904761Y-62166666D01*
X147952380Y-62071428D01*
X147952380Y-61880952D01*
X147904761Y-61785714D01*
X147857142Y-61738095D01*
X147761904Y-61690476D01*
X147523809Y-61690476D01*
X147428571Y-61738095D01*
X147380952Y-61785714D01*
X147333333Y-61880952D01*
X147333333Y-62071428D01*
X147380952Y-62166666D01*
X147428571Y-62214285D01*
X147523809Y-62261904D01*
X146952380Y-61071428D02*
X146952380Y-60976190D01*
X147000000Y-60880952D01*
X147047619Y-60833333D01*
X147142857Y-60785714D01*
X147333333Y-60738095D01*
X147571428Y-60738095D01*
X147761904Y-60785714D01*
X147857142Y-60833333D01*
X147904761Y-60880952D01*
X147952380Y-60976190D01*
X147952380Y-61071428D01*
X147904761Y-61166666D01*
X147857142Y-61214285D01*
X147761904Y-61261904D01*
X147571428Y-61309523D01*
X147333333Y-61309523D01*
X147142857Y-61261904D01*
X147047619Y-61214285D01*
X147000000Y-61166666D01*
X146952380Y-61071428D01*
G04 #@! TO.C,D61*
X150452380Y-63214285D02*
X149452380Y-63214285D01*
X149452380Y-62976190D01*
X149500000Y-62833333D01*
X149595238Y-62738095D01*
X149690476Y-62690476D01*
X149880952Y-62642857D01*
X150023809Y-62642857D01*
X150214285Y-62690476D01*
X150309523Y-62738095D01*
X150404761Y-62833333D01*
X150452380Y-62976190D01*
X150452380Y-63214285D01*
X149452380Y-61785714D02*
X149452380Y-61976190D01*
X149500000Y-62071428D01*
X149547619Y-62119047D01*
X149690476Y-62214285D01*
X149880952Y-62261904D01*
X150261904Y-62261904D01*
X150357142Y-62214285D01*
X150404761Y-62166666D01*
X150452380Y-62071428D01*
X150452380Y-61880952D01*
X150404761Y-61785714D01*
X150357142Y-61738095D01*
X150261904Y-61690476D01*
X150023809Y-61690476D01*
X149928571Y-61738095D01*
X149880952Y-61785714D01*
X149833333Y-61880952D01*
X149833333Y-62071428D01*
X149880952Y-62166666D01*
X149928571Y-62214285D01*
X150023809Y-62261904D01*
X150452380Y-60738095D02*
X150452380Y-61309523D01*
X150452380Y-61023809D02*
X149452380Y-61023809D01*
X149595238Y-61119047D01*
X149690476Y-61214285D01*
X149738095Y-61309523D01*
G04 #@! TO.C,D62*
X152952380Y-63214285D02*
X151952380Y-63214285D01*
X151952380Y-62976190D01*
X152000000Y-62833333D01*
X152095238Y-62738095D01*
X152190476Y-62690476D01*
X152380952Y-62642857D01*
X152523809Y-62642857D01*
X152714285Y-62690476D01*
X152809523Y-62738095D01*
X152904761Y-62833333D01*
X152952380Y-62976190D01*
X152952380Y-63214285D01*
X151952380Y-61785714D02*
X151952380Y-61976190D01*
X152000000Y-62071428D01*
X152047619Y-62119047D01*
X152190476Y-62214285D01*
X152380952Y-62261904D01*
X152761904Y-62261904D01*
X152857142Y-62214285D01*
X152904761Y-62166666D01*
X152952380Y-62071428D01*
X152952380Y-61880952D01*
X152904761Y-61785714D01*
X152857142Y-61738095D01*
X152761904Y-61690476D01*
X152523809Y-61690476D01*
X152428571Y-61738095D01*
X152380952Y-61785714D01*
X152333333Y-61880952D01*
X152333333Y-62071428D01*
X152380952Y-62166666D01*
X152428571Y-62214285D01*
X152523809Y-62261904D01*
X152047619Y-61309523D02*
X152000000Y-61261904D01*
X151952380Y-61166666D01*
X151952380Y-60928571D01*
X152000000Y-60833333D01*
X152047619Y-60785714D01*
X152142857Y-60738095D01*
X152238095Y-60738095D01*
X152380952Y-60785714D01*
X152952380Y-61357142D01*
X152952380Y-60738095D01*
G04 #@! TO.C,D63*
X155452380Y-63214285D02*
X154452380Y-63214285D01*
X154452380Y-62976190D01*
X154500000Y-62833333D01*
X154595238Y-62738095D01*
X154690476Y-62690476D01*
X154880952Y-62642857D01*
X155023809Y-62642857D01*
X155214285Y-62690476D01*
X155309523Y-62738095D01*
X155404761Y-62833333D01*
X155452380Y-62976190D01*
X155452380Y-63214285D01*
X154452380Y-61785714D02*
X154452380Y-61976190D01*
X154500000Y-62071428D01*
X154547619Y-62119047D01*
X154690476Y-62214285D01*
X154880952Y-62261904D01*
X155261904Y-62261904D01*
X155357142Y-62214285D01*
X155404761Y-62166666D01*
X155452380Y-62071428D01*
X155452380Y-61880952D01*
X155404761Y-61785714D01*
X155357142Y-61738095D01*
X155261904Y-61690476D01*
X155023809Y-61690476D01*
X154928571Y-61738095D01*
X154880952Y-61785714D01*
X154833333Y-61880952D01*
X154833333Y-62071428D01*
X154880952Y-62166666D01*
X154928571Y-62214285D01*
X155023809Y-62261904D01*
X154452380Y-61357142D02*
X154452380Y-60738095D01*
X154833333Y-61071428D01*
X154833333Y-60928571D01*
X154880952Y-60833333D01*
X154928571Y-60785714D01*
X155023809Y-60738095D01*
X155261904Y-60738095D01*
X155357142Y-60785714D01*
X155404761Y-60833333D01*
X155452380Y-60928571D01*
X155452380Y-61214285D01*
X155404761Y-61309523D01*
X155357142Y-61357142D01*
G04 #@! TO.C,D64*
X135452380Y-66214285D02*
X134452380Y-66214285D01*
X134452380Y-65976190D01*
X134500000Y-65833333D01*
X134595238Y-65738095D01*
X134690476Y-65690476D01*
X134880952Y-65642857D01*
X135023809Y-65642857D01*
X135214285Y-65690476D01*
X135309523Y-65738095D01*
X135404761Y-65833333D01*
X135452380Y-65976190D01*
X135452380Y-66214285D01*
X134452380Y-64785714D02*
X134452380Y-64976190D01*
X134500000Y-65071428D01*
X134547619Y-65119047D01*
X134690476Y-65214285D01*
X134880952Y-65261904D01*
X135261904Y-65261904D01*
X135357142Y-65214285D01*
X135404761Y-65166666D01*
X135452380Y-65071428D01*
X135452380Y-64880952D01*
X135404761Y-64785714D01*
X135357142Y-64738095D01*
X135261904Y-64690476D01*
X135023809Y-64690476D01*
X134928571Y-64738095D01*
X134880952Y-64785714D01*
X134833333Y-64880952D01*
X134833333Y-65071428D01*
X134880952Y-65166666D01*
X134928571Y-65214285D01*
X135023809Y-65261904D01*
X134785714Y-63833333D02*
X135452380Y-63833333D01*
X134404761Y-64071428D02*
X135119047Y-64309523D01*
X135119047Y-63690476D01*
G04 #@! TO.C,D65*
X137952380Y-66214285D02*
X136952380Y-66214285D01*
X136952380Y-65976190D01*
X137000000Y-65833333D01*
X137095238Y-65738095D01*
X137190476Y-65690476D01*
X137380952Y-65642857D01*
X137523809Y-65642857D01*
X137714285Y-65690476D01*
X137809523Y-65738095D01*
X137904761Y-65833333D01*
X137952380Y-65976190D01*
X137952380Y-66214285D01*
X136952380Y-64785714D02*
X136952380Y-64976190D01*
X137000000Y-65071428D01*
X137047619Y-65119047D01*
X137190476Y-65214285D01*
X137380952Y-65261904D01*
X137761904Y-65261904D01*
X137857142Y-65214285D01*
X137904761Y-65166666D01*
X137952380Y-65071428D01*
X137952380Y-64880952D01*
X137904761Y-64785714D01*
X137857142Y-64738095D01*
X137761904Y-64690476D01*
X137523809Y-64690476D01*
X137428571Y-64738095D01*
X137380952Y-64785714D01*
X137333333Y-64880952D01*
X137333333Y-65071428D01*
X137380952Y-65166666D01*
X137428571Y-65214285D01*
X137523809Y-65261904D01*
X136952380Y-63785714D02*
X136952380Y-64261904D01*
X137428571Y-64309523D01*
X137380952Y-64261904D01*
X137333333Y-64166666D01*
X137333333Y-63928571D01*
X137380952Y-63833333D01*
X137428571Y-63785714D01*
X137523809Y-63738095D01*
X137761904Y-63738095D01*
X137857142Y-63785714D01*
X137904761Y-63833333D01*
X137952380Y-63928571D01*
X137952380Y-64166666D01*
X137904761Y-64261904D01*
X137857142Y-64309523D01*
G04 #@! TO.C,D66*
X140452380Y-66214285D02*
X139452380Y-66214285D01*
X139452380Y-65976190D01*
X139500000Y-65833333D01*
X139595238Y-65738095D01*
X139690476Y-65690476D01*
X139880952Y-65642857D01*
X140023809Y-65642857D01*
X140214285Y-65690476D01*
X140309523Y-65738095D01*
X140404761Y-65833333D01*
X140452380Y-65976190D01*
X140452380Y-66214285D01*
X139452380Y-64785714D02*
X139452380Y-64976190D01*
X139500000Y-65071428D01*
X139547619Y-65119047D01*
X139690476Y-65214285D01*
X139880952Y-65261904D01*
X140261904Y-65261904D01*
X140357142Y-65214285D01*
X140404761Y-65166666D01*
X140452380Y-65071428D01*
X140452380Y-64880952D01*
X140404761Y-64785714D01*
X140357142Y-64738095D01*
X140261904Y-64690476D01*
X140023809Y-64690476D01*
X139928571Y-64738095D01*
X139880952Y-64785714D01*
X139833333Y-64880952D01*
X139833333Y-65071428D01*
X139880952Y-65166666D01*
X139928571Y-65214285D01*
X140023809Y-65261904D01*
X139452380Y-63833333D02*
X139452380Y-64023809D01*
X139500000Y-64119047D01*
X139547619Y-64166666D01*
X139690476Y-64261904D01*
X139880952Y-64309523D01*
X140261904Y-64309523D01*
X140357142Y-64261904D01*
X140404761Y-64214285D01*
X140452380Y-64119047D01*
X140452380Y-63928571D01*
X140404761Y-63833333D01*
X140357142Y-63785714D01*
X140261904Y-63738095D01*
X140023809Y-63738095D01*
X139928571Y-63785714D01*
X139880952Y-63833333D01*
X139833333Y-63928571D01*
X139833333Y-64119047D01*
X139880952Y-64214285D01*
X139928571Y-64261904D01*
X140023809Y-64309523D01*
G04 #@! TO.C,D67*
X142952380Y-66214285D02*
X141952380Y-66214285D01*
X141952380Y-65976190D01*
X142000000Y-65833333D01*
X142095238Y-65738095D01*
X142190476Y-65690476D01*
X142380952Y-65642857D01*
X142523809Y-65642857D01*
X142714285Y-65690476D01*
X142809523Y-65738095D01*
X142904761Y-65833333D01*
X142952380Y-65976190D01*
X142952380Y-66214285D01*
X141952380Y-64785714D02*
X141952380Y-64976190D01*
X142000000Y-65071428D01*
X142047619Y-65119047D01*
X142190476Y-65214285D01*
X142380952Y-65261904D01*
X142761904Y-65261904D01*
X142857142Y-65214285D01*
X142904761Y-65166666D01*
X142952380Y-65071428D01*
X142952380Y-64880952D01*
X142904761Y-64785714D01*
X142857142Y-64738095D01*
X142761904Y-64690476D01*
X142523809Y-64690476D01*
X142428571Y-64738095D01*
X142380952Y-64785714D01*
X142333333Y-64880952D01*
X142333333Y-65071428D01*
X142380952Y-65166666D01*
X142428571Y-65214285D01*
X142523809Y-65261904D01*
X141952380Y-64357142D02*
X141952380Y-63690476D01*
X142952380Y-64119047D01*
G04 #@! TO.C,D68*
X145452380Y-66214285D02*
X144452380Y-66214285D01*
X144452380Y-65976190D01*
X144500000Y-65833333D01*
X144595238Y-65738095D01*
X144690476Y-65690476D01*
X144880952Y-65642857D01*
X145023809Y-65642857D01*
X145214285Y-65690476D01*
X145309523Y-65738095D01*
X145404761Y-65833333D01*
X145452380Y-65976190D01*
X145452380Y-66214285D01*
X144452380Y-64785714D02*
X144452380Y-64976190D01*
X144500000Y-65071428D01*
X144547619Y-65119047D01*
X144690476Y-65214285D01*
X144880952Y-65261904D01*
X145261904Y-65261904D01*
X145357142Y-65214285D01*
X145404761Y-65166666D01*
X145452380Y-65071428D01*
X145452380Y-64880952D01*
X145404761Y-64785714D01*
X145357142Y-64738095D01*
X145261904Y-64690476D01*
X145023809Y-64690476D01*
X144928571Y-64738095D01*
X144880952Y-64785714D01*
X144833333Y-64880952D01*
X144833333Y-65071428D01*
X144880952Y-65166666D01*
X144928571Y-65214285D01*
X145023809Y-65261904D01*
X144880952Y-64119047D02*
X144833333Y-64214285D01*
X144785714Y-64261904D01*
X144690476Y-64309523D01*
X144642857Y-64309523D01*
X144547619Y-64261904D01*
X144500000Y-64214285D01*
X144452380Y-64119047D01*
X144452380Y-63928571D01*
X144500000Y-63833333D01*
X144547619Y-63785714D01*
X144642857Y-63738095D01*
X144690476Y-63738095D01*
X144785714Y-63785714D01*
X144833333Y-63833333D01*
X144880952Y-63928571D01*
X144880952Y-64119047D01*
X144928571Y-64214285D01*
X144976190Y-64261904D01*
X145071428Y-64309523D01*
X145261904Y-64309523D01*
X145357142Y-64261904D01*
X145404761Y-64214285D01*
X145452380Y-64119047D01*
X145452380Y-63928571D01*
X145404761Y-63833333D01*
X145357142Y-63785714D01*
X145261904Y-63738095D01*
X145071428Y-63738095D01*
X144976190Y-63785714D01*
X144928571Y-63833333D01*
X144880952Y-63928571D01*
G04 #@! TO.C,D69*
X147952380Y-66214285D02*
X146952380Y-66214285D01*
X146952380Y-65976190D01*
X147000000Y-65833333D01*
X147095238Y-65738095D01*
X147190476Y-65690476D01*
X147380952Y-65642857D01*
X147523809Y-65642857D01*
X147714285Y-65690476D01*
X147809523Y-65738095D01*
X147904761Y-65833333D01*
X147952380Y-65976190D01*
X147952380Y-66214285D01*
X146952380Y-64785714D02*
X146952380Y-64976190D01*
X147000000Y-65071428D01*
X147047619Y-65119047D01*
X147190476Y-65214285D01*
X147380952Y-65261904D01*
X147761904Y-65261904D01*
X147857142Y-65214285D01*
X147904761Y-65166666D01*
X147952380Y-65071428D01*
X147952380Y-64880952D01*
X147904761Y-64785714D01*
X147857142Y-64738095D01*
X147761904Y-64690476D01*
X147523809Y-64690476D01*
X147428571Y-64738095D01*
X147380952Y-64785714D01*
X147333333Y-64880952D01*
X147333333Y-65071428D01*
X147380952Y-65166666D01*
X147428571Y-65214285D01*
X147523809Y-65261904D01*
X147952380Y-64214285D02*
X147952380Y-64023809D01*
X147904761Y-63928571D01*
X147857142Y-63880952D01*
X147714285Y-63785714D01*
X147523809Y-63738095D01*
X147142857Y-63738095D01*
X147047619Y-63785714D01*
X147000000Y-63833333D01*
X146952380Y-63928571D01*
X146952380Y-64119047D01*
X147000000Y-64214285D01*
X147047619Y-64261904D01*
X147142857Y-64309523D01*
X147380952Y-64309523D01*
X147476190Y-64261904D01*
X147523809Y-64214285D01*
X147571428Y-64119047D01*
X147571428Y-63928571D01*
X147523809Y-63833333D01*
X147476190Y-63785714D01*
X147380952Y-63738095D01*
G04 #@! TO.C,D70*
X150452380Y-66214285D02*
X149452380Y-66214285D01*
X149452380Y-65976190D01*
X149500000Y-65833333D01*
X149595238Y-65738095D01*
X149690476Y-65690476D01*
X149880952Y-65642857D01*
X150023809Y-65642857D01*
X150214285Y-65690476D01*
X150309523Y-65738095D01*
X150404761Y-65833333D01*
X150452380Y-65976190D01*
X150452380Y-66214285D01*
X149452380Y-65309523D02*
X149452380Y-64642857D01*
X150452380Y-65071428D01*
X149452380Y-64071428D02*
X149452380Y-63976190D01*
X149500000Y-63880952D01*
X149547619Y-63833333D01*
X149642857Y-63785714D01*
X149833333Y-63738095D01*
X150071428Y-63738095D01*
X150261904Y-63785714D01*
X150357142Y-63833333D01*
X150404761Y-63880952D01*
X150452380Y-63976190D01*
X150452380Y-64071428D01*
X150404761Y-64166666D01*
X150357142Y-64214285D01*
X150261904Y-64261904D01*
X150071428Y-64309523D01*
X149833333Y-64309523D01*
X149642857Y-64261904D01*
X149547619Y-64214285D01*
X149500000Y-64166666D01*
X149452380Y-64071428D01*
G04 #@! TO.C,D71*
X152952380Y-66214285D02*
X151952380Y-66214285D01*
X151952380Y-65976190D01*
X152000000Y-65833333D01*
X152095238Y-65738095D01*
X152190476Y-65690476D01*
X152380952Y-65642857D01*
X152523809Y-65642857D01*
X152714285Y-65690476D01*
X152809523Y-65738095D01*
X152904761Y-65833333D01*
X152952380Y-65976190D01*
X152952380Y-66214285D01*
X151952380Y-65309523D02*
X151952380Y-64642857D01*
X152952380Y-65071428D01*
X152952380Y-63738095D02*
X152952380Y-64309523D01*
X152952380Y-64023809D02*
X151952380Y-64023809D01*
X152095238Y-64119047D01*
X152190476Y-64214285D01*
X152238095Y-64309523D01*
G04 #@! TO.C,D72*
X155452380Y-66214285D02*
X154452380Y-66214285D01*
X154452380Y-65976190D01*
X154500000Y-65833333D01*
X154595238Y-65738095D01*
X154690476Y-65690476D01*
X154880952Y-65642857D01*
X155023809Y-65642857D01*
X155214285Y-65690476D01*
X155309523Y-65738095D01*
X155404761Y-65833333D01*
X155452380Y-65976190D01*
X155452380Y-66214285D01*
X154452380Y-65309523D02*
X154452380Y-64642857D01*
X155452380Y-65071428D01*
X154547619Y-64309523D02*
X154500000Y-64261904D01*
X154452380Y-64166666D01*
X154452380Y-63928571D01*
X154500000Y-63833333D01*
X154547619Y-63785714D01*
X154642857Y-63738095D01*
X154738095Y-63738095D01*
X154880952Y-63785714D01*
X155452380Y-64357142D01*
X155452380Y-63738095D01*
G04 #@! TO.C,D73*
X135452380Y-69214285D02*
X134452380Y-69214285D01*
X134452380Y-68976190D01*
X134500000Y-68833333D01*
X134595238Y-68738095D01*
X134690476Y-68690476D01*
X134880952Y-68642857D01*
X135023809Y-68642857D01*
X135214285Y-68690476D01*
X135309523Y-68738095D01*
X135404761Y-68833333D01*
X135452380Y-68976190D01*
X135452380Y-69214285D01*
X134452380Y-68309523D02*
X134452380Y-67642857D01*
X135452380Y-68071428D01*
X134452380Y-67357142D02*
X134452380Y-66738095D01*
X134833333Y-67071428D01*
X134833333Y-66928571D01*
X134880952Y-66833333D01*
X134928571Y-66785714D01*
X135023809Y-66738095D01*
X135261904Y-66738095D01*
X135357142Y-66785714D01*
X135404761Y-66833333D01*
X135452380Y-66928571D01*
X135452380Y-67214285D01*
X135404761Y-67309523D01*
X135357142Y-67357142D01*
G04 #@! TO.C,D74*
X137952380Y-69214285D02*
X136952380Y-69214285D01*
X136952380Y-68976190D01*
X137000000Y-68833333D01*
X137095238Y-68738095D01*
X137190476Y-68690476D01*
X137380952Y-68642857D01*
X137523809Y-68642857D01*
X137714285Y-68690476D01*
X137809523Y-68738095D01*
X137904761Y-68833333D01*
X137952380Y-68976190D01*
X137952380Y-69214285D01*
X136952380Y-68309523D02*
X136952380Y-67642857D01*
X137952380Y-68071428D01*
X137285714Y-66833333D02*
X137952380Y-66833333D01*
X136904761Y-67071428D02*
X137619047Y-67309523D01*
X137619047Y-66690476D01*
G04 #@! TO.C,D75*
X140452380Y-69214285D02*
X139452380Y-69214285D01*
X139452380Y-68976190D01*
X139500000Y-68833333D01*
X139595238Y-68738095D01*
X139690476Y-68690476D01*
X139880952Y-68642857D01*
X140023809Y-68642857D01*
X140214285Y-68690476D01*
X140309523Y-68738095D01*
X140404761Y-68833333D01*
X140452380Y-68976190D01*
X140452380Y-69214285D01*
X139452380Y-68309523D02*
X139452380Y-67642857D01*
X140452380Y-68071428D01*
X139452380Y-66785714D02*
X139452380Y-67261904D01*
X139928571Y-67309523D01*
X139880952Y-67261904D01*
X139833333Y-67166666D01*
X139833333Y-66928571D01*
X139880952Y-66833333D01*
X139928571Y-66785714D01*
X140023809Y-66738095D01*
X140261904Y-66738095D01*
X140357142Y-66785714D01*
X140404761Y-66833333D01*
X140452380Y-66928571D01*
X140452380Y-67166666D01*
X140404761Y-67261904D01*
X140357142Y-67309523D01*
G04 #@! TO.C,D76*
X142952380Y-69214285D02*
X141952380Y-69214285D01*
X141952380Y-68976190D01*
X142000000Y-68833333D01*
X142095238Y-68738095D01*
X142190476Y-68690476D01*
X142380952Y-68642857D01*
X142523809Y-68642857D01*
X142714285Y-68690476D01*
X142809523Y-68738095D01*
X142904761Y-68833333D01*
X142952380Y-68976190D01*
X142952380Y-69214285D01*
X141952380Y-68309523D02*
X141952380Y-67642857D01*
X142952380Y-68071428D01*
X141952380Y-66833333D02*
X141952380Y-67023809D01*
X142000000Y-67119047D01*
X142047619Y-67166666D01*
X142190476Y-67261904D01*
X142380952Y-67309523D01*
X142761904Y-67309523D01*
X142857142Y-67261904D01*
X142904761Y-67214285D01*
X142952380Y-67119047D01*
X142952380Y-66928571D01*
X142904761Y-66833333D01*
X142857142Y-66785714D01*
X142761904Y-66738095D01*
X142523809Y-66738095D01*
X142428571Y-66785714D01*
X142380952Y-66833333D01*
X142333333Y-66928571D01*
X142333333Y-67119047D01*
X142380952Y-67214285D01*
X142428571Y-67261904D01*
X142523809Y-67309523D01*
G04 #@! TO.C,D77*
X145452380Y-69214285D02*
X144452380Y-69214285D01*
X144452380Y-68976190D01*
X144500000Y-68833333D01*
X144595238Y-68738095D01*
X144690476Y-68690476D01*
X144880952Y-68642857D01*
X145023809Y-68642857D01*
X145214285Y-68690476D01*
X145309523Y-68738095D01*
X145404761Y-68833333D01*
X145452380Y-68976190D01*
X145452380Y-69214285D01*
X144452380Y-68309523D02*
X144452380Y-67642857D01*
X145452380Y-68071428D01*
X144452380Y-67357142D02*
X144452380Y-66690476D01*
X145452380Y-67119047D01*
G04 #@! TO.C,D78*
X147952380Y-69214285D02*
X146952380Y-69214285D01*
X146952380Y-68976190D01*
X147000000Y-68833333D01*
X147095238Y-68738095D01*
X147190476Y-68690476D01*
X147380952Y-68642857D01*
X147523809Y-68642857D01*
X147714285Y-68690476D01*
X147809523Y-68738095D01*
X147904761Y-68833333D01*
X147952380Y-68976190D01*
X147952380Y-69214285D01*
X146952380Y-68309523D02*
X146952380Y-67642857D01*
X147952380Y-68071428D01*
X147380952Y-67119047D02*
X147333333Y-67214285D01*
X147285714Y-67261904D01*
X147190476Y-67309523D01*
X147142857Y-67309523D01*
X147047619Y-67261904D01*
X147000000Y-67214285D01*
X146952380Y-67119047D01*
X146952380Y-66928571D01*
X147000000Y-66833333D01*
X147047619Y-66785714D01*
X147142857Y-66738095D01*
X147190476Y-66738095D01*
X147285714Y-66785714D01*
X147333333Y-66833333D01*
X147380952Y-66928571D01*
X147380952Y-67119047D01*
X147428571Y-67214285D01*
X147476190Y-67261904D01*
X147571428Y-67309523D01*
X147761904Y-67309523D01*
X147857142Y-67261904D01*
X147904761Y-67214285D01*
X147952380Y-67119047D01*
X147952380Y-66928571D01*
X147904761Y-66833333D01*
X147857142Y-66785714D01*
X147761904Y-66738095D01*
X147571428Y-66738095D01*
X147476190Y-66785714D01*
X147428571Y-66833333D01*
X147380952Y-66928571D01*
G04 #@! TO.C,D79*
X150452380Y-69214285D02*
X149452380Y-69214285D01*
X149452380Y-68976190D01*
X149500000Y-68833333D01*
X149595238Y-68738095D01*
X149690476Y-68690476D01*
X149880952Y-68642857D01*
X150023809Y-68642857D01*
X150214285Y-68690476D01*
X150309523Y-68738095D01*
X150404761Y-68833333D01*
X150452380Y-68976190D01*
X150452380Y-69214285D01*
X149452380Y-68309523D02*
X149452380Y-67642857D01*
X150452380Y-68071428D01*
X150452380Y-67214285D02*
X150452380Y-67023809D01*
X150404761Y-66928571D01*
X150357142Y-66880952D01*
X150214285Y-66785714D01*
X150023809Y-66738095D01*
X149642857Y-66738095D01*
X149547619Y-66785714D01*
X149500000Y-66833333D01*
X149452380Y-66928571D01*
X149452380Y-67119047D01*
X149500000Y-67214285D01*
X149547619Y-67261904D01*
X149642857Y-67309523D01*
X149880952Y-67309523D01*
X149976190Y-67261904D01*
X150023809Y-67214285D01*
X150071428Y-67119047D01*
X150071428Y-66928571D01*
X150023809Y-66833333D01*
X149976190Y-66785714D01*
X149880952Y-66738095D01*
G04 #@! TO.C,D80*
X152952380Y-69214285D02*
X151952380Y-69214285D01*
X151952380Y-68976190D01*
X152000000Y-68833333D01*
X152095238Y-68738095D01*
X152190476Y-68690476D01*
X152380952Y-68642857D01*
X152523809Y-68642857D01*
X152714285Y-68690476D01*
X152809523Y-68738095D01*
X152904761Y-68833333D01*
X152952380Y-68976190D01*
X152952380Y-69214285D01*
X152380952Y-68071428D02*
X152333333Y-68166666D01*
X152285714Y-68214285D01*
X152190476Y-68261904D01*
X152142857Y-68261904D01*
X152047619Y-68214285D01*
X152000000Y-68166666D01*
X151952380Y-68071428D01*
X151952380Y-67880952D01*
X152000000Y-67785714D01*
X152047619Y-67738095D01*
X152142857Y-67690476D01*
X152190476Y-67690476D01*
X152285714Y-67738095D01*
X152333333Y-67785714D01*
X152380952Y-67880952D01*
X152380952Y-68071428D01*
X152428571Y-68166666D01*
X152476190Y-68214285D01*
X152571428Y-68261904D01*
X152761904Y-68261904D01*
X152857142Y-68214285D01*
X152904761Y-68166666D01*
X152952380Y-68071428D01*
X152952380Y-67880952D01*
X152904761Y-67785714D01*
X152857142Y-67738095D01*
X152761904Y-67690476D01*
X152571428Y-67690476D01*
X152476190Y-67738095D01*
X152428571Y-67785714D01*
X152380952Y-67880952D01*
X151952380Y-67071428D02*
X151952380Y-66976190D01*
X152000000Y-66880952D01*
X152047619Y-66833333D01*
X152142857Y-66785714D01*
X152333333Y-66738095D01*
X152571428Y-66738095D01*
X152761904Y-66785714D01*
X152857142Y-66833333D01*
X152904761Y-66880952D01*
X152952380Y-66976190D01*
X152952380Y-67071428D01*
X152904761Y-67166666D01*
X152857142Y-67214285D01*
X152761904Y-67261904D01*
X152571428Y-67309523D01*
X152333333Y-67309523D01*
X152142857Y-67261904D01*
X152047619Y-67214285D01*
X152000000Y-67166666D01*
X151952380Y-67071428D01*
G04 #@! TO.C,D81*
X155452380Y-69214285D02*
X154452380Y-69214285D01*
X154452380Y-68976190D01*
X154500000Y-68833333D01*
X154595238Y-68738095D01*
X154690476Y-68690476D01*
X154880952Y-68642857D01*
X155023809Y-68642857D01*
X155214285Y-68690476D01*
X155309523Y-68738095D01*
X155404761Y-68833333D01*
X155452380Y-68976190D01*
X155452380Y-69214285D01*
X154880952Y-68071428D02*
X154833333Y-68166666D01*
X154785714Y-68214285D01*
X154690476Y-68261904D01*
X154642857Y-68261904D01*
X154547619Y-68214285D01*
X154500000Y-68166666D01*
X154452380Y-68071428D01*
X154452380Y-67880952D01*
X154500000Y-67785714D01*
X154547619Y-67738095D01*
X154642857Y-67690476D01*
X154690476Y-67690476D01*
X154785714Y-67738095D01*
X154833333Y-67785714D01*
X154880952Y-67880952D01*
X154880952Y-68071428D01*
X154928571Y-68166666D01*
X154976190Y-68214285D01*
X155071428Y-68261904D01*
X155261904Y-68261904D01*
X155357142Y-68214285D01*
X155404761Y-68166666D01*
X155452380Y-68071428D01*
X155452380Y-67880952D01*
X155404761Y-67785714D01*
X155357142Y-67738095D01*
X155261904Y-67690476D01*
X155071428Y-67690476D01*
X154976190Y-67738095D01*
X154928571Y-67785714D01*
X154880952Y-67880952D01*
X155452380Y-66738095D02*
X155452380Y-67309523D01*
X155452380Y-67023809D02*
X154452380Y-67023809D01*
X154595238Y-67119047D01*
X154690476Y-67214285D01*
X154738095Y-67309523D01*
G04 #@! TO.C,D82*
X135452380Y-72214285D02*
X134452380Y-72214285D01*
X134452380Y-71976190D01*
X134500000Y-71833333D01*
X134595238Y-71738095D01*
X134690476Y-71690476D01*
X134880952Y-71642857D01*
X135023809Y-71642857D01*
X135214285Y-71690476D01*
X135309523Y-71738095D01*
X135404761Y-71833333D01*
X135452380Y-71976190D01*
X135452380Y-72214285D01*
X134880952Y-71071428D02*
X134833333Y-71166666D01*
X134785714Y-71214285D01*
X134690476Y-71261904D01*
X134642857Y-71261904D01*
X134547619Y-71214285D01*
X134500000Y-71166666D01*
X134452380Y-71071428D01*
X134452380Y-70880952D01*
X134500000Y-70785714D01*
X134547619Y-70738095D01*
X134642857Y-70690476D01*
X134690476Y-70690476D01*
X134785714Y-70738095D01*
X134833333Y-70785714D01*
X134880952Y-70880952D01*
X134880952Y-71071428D01*
X134928571Y-71166666D01*
X134976190Y-71214285D01*
X135071428Y-71261904D01*
X135261904Y-71261904D01*
X135357142Y-71214285D01*
X135404761Y-71166666D01*
X135452380Y-71071428D01*
X135452380Y-70880952D01*
X135404761Y-70785714D01*
X135357142Y-70738095D01*
X135261904Y-70690476D01*
X135071428Y-70690476D01*
X134976190Y-70738095D01*
X134928571Y-70785714D01*
X134880952Y-70880952D01*
X134547619Y-70309523D02*
X134500000Y-70261904D01*
X134452380Y-70166666D01*
X134452380Y-69928571D01*
X134500000Y-69833333D01*
X134547619Y-69785714D01*
X134642857Y-69738095D01*
X134738095Y-69738095D01*
X134880952Y-69785714D01*
X135452380Y-70357142D01*
X135452380Y-69738095D01*
G04 #@! TO.C,D83*
X137952380Y-72214285D02*
X136952380Y-72214285D01*
X136952380Y-71976190D01*
X137000000Y-71833333D01*
X137095238Y-71738095D01*
X137190476Y-71690476D01*
X137380952Y-71642857D01*
X137523809Y-71642857D01*
X137714285Y-71690476D01*
X137809523Y-71738095D01*
X137904761Y-71833333D01*
X137952380Y-71976190D01*
X137952380Y-72214285D01*
X137380952Y-71071428D02*
X137333333Y-71166666D01*
X137285714Y-71214285D01*
X137190476Y-71261904D01*
X137142857Y-71261904D01*
X137047619Y-71214285D01*
X137000000Y-71166666D01*
X136952380Y-71071428D01*
X136952380Y-70880952D01*
X137000000Y-70785714D01*
X137047619Y-70738095D01*
X137142857Y-70690476D01*
X137190476Y-70690476D01*
X137285714Y-70738095D01*
X137333333Y-70785714D01*
X137380952Y-70880952D01*
X137380952Y-71071428D01*
X137428571Y-71166666D01*
X137476190Y-71214285D01*
X137571428Y-71261904D01*
X137761904Y-71261904D01*
X137857142Y-71214285D01*
X137904761Y-71166666D01*
X137952380Y-71071428D01*
X137952380Y-70880952D01*
X137904761Y-70785714D01*
X137857142Y-70738095D01*
X137761904Y-70690476D01*
X137571428Y-70690476D01*
X137476190Y-70738095D01*
X137428571Y-70785714D01*
X137380952Y-70880952D01*
X136952380Y-70357142D02*
X136952380Y-69738095D01*
X137333333Y-70071428D01*
X137333333Y-69928571D01*
X137380952Y-69833333D01*
X137428571Y-69785714D01*
X137523809Y-69738095D01*
X137761904Y-69738095D01*
X137857142Y-69785714D01*
X137904761Y-69833333D01*
X137952380Y-69928571D01*
X137952380Y-70214285D01*
X137904761Y-70309523D01*
X137857142Y-70357142D01*
G04 #@! TO.C,D84*
X140452380Y-72214285D02*
X139452380Y-72214285D01*
X139452380Y-71976190D01*
X139500000Y-71833333D01*
X139595238Y-71738095D01*
X139690476Y-71690476D01*
X139880952Y-71642857D01*
X140023809Y-71642857D01*
X140214285Y-71690476D01*
X140309523Y-71738095D01*
X140404761Y-71833333D01*
X140452380Y-71976190D01*
X140452380Y-72214285D01*
X139880952Y-71071428D02*
X139833333Y-71166666D01*
X139785714Y-71214285D01*
X139690476Y-71261904D01*
X139642857Y-71261904D01*
X139547619Y-71214285D01*
X139500000Y-71166666D01*
X139452380Y-71071428D01*
X139452380Y-70880952D01*
X139500000Y-70785714D01*
X139547619Y-70738095D01*
X139642857Y-70690476D01*
X139690476Y-70690476D01*
X139785714Y-70738095D01*
X139833333Y-70785714D01*
X139880952Y-70880952D01*
X139880952Y-71071428D01*
X139928571Y-71166666D01*
X139976190Y-71214285D01*
X140071428Y-71261904D01*
X140261904Y-71261904D01*
X140357142Y-71214285D01*
X140404761Y-71166666D01*
X140452380Y-71071428D01*
X140452380Y-70880952D01*
X140404761Y-70785714D01*
X140357142Y-70738095D01*
X140261904Y-70690476D01*
X140071428Y-70690476D01*
X139976190Y-70738095D01*
X139928571Y-70785714D01*
X139880952Y-70880952D01*
X139785714Y-69833333D02*
X140452380Y-69833333D01*
X139404761Y-70071428D02*
X140119047Y-70309523D01*
X140119047Y-69690476D01*
G04 #@! TO.C,D85*
X142952380Y-72214285D02*
X141952380Y-72214285D01*
X141952380Y-71976190D01*
X142000000Y-71833333D01*
X142095238Y-71738095D01*
X142190476Y-71690476D01*
X142380952Y-71642857D01*
X142523809Y-71642857D01*
X142714285Y-71690476D01*
X142809523Y-71738095D01*
X142904761Y-71833333D01*
X142952380Y-71976190D01*
X142952380Y-72214285D01*
X142380952Y-71071428D02*
X142333333Y-71166666D01*
X142285714Y-71214285D01*
X142190476Y-71261904D01*
X142142857Y-71261904D01*
X142047619Y-71214285D01*
X142000000Y-71166666D01*
X141952380Y-71071428D01*
X141952380Y-70880952D01*
X142000000Y-70785714D01*
X142047619Y-70738095D01*
X142142857Y-70690476D01*
X142190476Y-70690476D01*
X142285714Y-70738095D01*
X142333333Y-70785714D01*
X142380952Y-70880952D01*
X142380952Y-71071428D01*
X142428571Y-71166666D01*
X142476190Y-71214285D01*
X142571428Y-71261904D01*
X142761904Y-71261904D01*
X142857142Y-71214285D01*
X142904761Y-71166666D01*
X142952380Y-71071428D01*
X142952380Y-70880952D01*
X142904761Y-70785714D01*
X142857142Y-70738095D01*
X142761904Y-70690476D01*
X142571428Y-70690476D01*
X142476190Y-70738095D01*
X142428571Y-70785714D01*
X142380952Y-70880952D01*
X141952380Y-69785714D02*
X141952380Y-70261904D01*
X142428571Y-70309523D01*
X142380952Y-70261904D01*
X142333333Y-70166666D01*
X142333333Y-69928571D01*
X142380952Y-69833333D01*
X142428571Y-69785714D01*
X142523809Y-69738095D01*
X142761904Y-69738095D01*
X142857142Y-69785714D01*
X142904761Y-69833333D01*
X142952380Y-69928571D01*
X142952380Y-70166666D01*
X142904761Y-70261904D01*
X142857142Y-70309523D01*
G04 #@! TO.C,D86*
X145452380Y-72214285D02*
X144452380Y-72214285D01*
X144452380Y-71976190D01*
X144500000Y-71833333D01*
X144595238Y-71738095D01*
X144690476Y-71690476D01*
X144880952Y-71642857D01*
X145023809Y-71642857D01*
X145214285Y-71690476D01*
X145309523Y-71738095D01*
X145404761Y-71833333D01*
X145452380Y-71976190D01*
X145452380Y-72214285D01*
X144880952Y-71071428D02*
X144833333Y-71166666D01*
X144785714Y-71214285D01*
X144690476Y-71261904D01*
X144642857Y-71261904D01*
X144547619Y-71214285D01*
X144500000Y-71166666D01*
X144452380Y-71071428D01*
X144452380Y-70880952D01*
X144500000Y-70785714D01*
X144547619Y-70738095D01*
X144642857Y-70690476D01*
X144690476Y-70690476D01*
X144785714Y-70738095D01*
X144833333Y-70785714D01*
X144880952Y-70880952D01*
X144880952Y-71071428D01*
X144928571Y-71166666D01*
X144976190Y-71214285D01*
X145071428Y-71261904D01*
X145261904Y-71261904D01*
X145357142Y-71214285D01*
X145404761Y-71166666D01*
X145452380Y-71071428D01*
X145452380Y-70880952D01*
X145404761Y-70785714D01*
X145357142Y-70738095D01*
X145261904Y-70690476D01*
X145071428Y-70690476D01*
X144976190Y-70738095D01*
X144928571Y-70785714D01*
X144880952Y-70880952D01*
X144452380Y-69833333D02*
X144452380Y-70023809D01*
X144500000Y-70119047D01*
X144547619Y-70166666D01*
X144690476Y-70261904D01*
X144880952Y-70309523D01*
X145261904Y-70309523D01*
X145357142Y-70261904D01*
X145404761Y-70214285D01*
X145452380Y-70119047D01*
X145452380Y-69928571D01*
X145404761Y-69833333D01*
X145357142Y-69785714D01*
X145261904Y-69738095D01*
X145023809Y-69738095D01*
X144928571Y-69785714D01*
X144880952Y-69833333D01*
X144833333Y-69928571D01*
X144833333Y-70119047D01*
X144880952Y-70214285D01*
X144928571Y-70261904D01*
X145023809Y-70309523D01*
G04 #@! TO.C,D87*
X147952380Y-72214285D02*
X146952380Y-72214285D01*
X146952380Y-71976190D01*
X147000000Y-71833333D01*
X147095238Y-71738095D01*
X147190476Y-71690476D01*
X147380952Y-71642857D01*
X147523809Y-71642857D01*
X147714285Y-71690476D01*
X147809523Y-71738095D01*
X147904761Y-71833333D01*
X147952380Y-71976190D01*
X147952380Y-72214285D01*
X147380952Y-71071428D02*
X147333333Y-71166666D01*
X147285714Y-71214285D01*
X147190476Y-71261904D01*
X147142857Y-71261904D01*
X147047619Y-71214285D01*
X147000000Y-71166666D01*
X146952380Y-71071428D01*
X146952380Y-70880952D01*
X147000000Y-70785714D01*
X147047619Y-70738095D01*
X147142857Y-70690476D01*
X147190476Y-70690476D01*
X147285714Y-70738095D01*
X147333333Y-70785714D01*
X147380952Y-70880952D01*
X147380952Y-71071428D01*
X147428571Y-71166666D01*
X147476190Y-71214285D01*
X147571428Y-71261904D01*
X147761904Y-71261904D01*
X147857142Y-71214285D01*
X147904761Y-71166666D01*
X147952380Y-71071428D01*
X147952380Y-70880952D01*
X147904761Y-70785714D01*
X147857142Y-70738095D01*
X147761904Y-70690476D01*
X147571428Y-70690476D01*
X147476190Y-70738095D01*
X147428571Y-70785714D01*
X147380952Y-70880952D01*
X146952380Y-70357142D02*
X146952380Y-69690476D01*
X147952380Y-70119047D01*
G04 #@! TO.C,D88*
X150452380Y-72214285D02*
X149452380Y-72214285D01*
X149452380Y-71976190D01*
X149500000Y-71833333D01*
X149595238Y-71738095D01*
X149690476Y-71690476D01*
X149880952Y-71642857D01*
X150023809Y-71642857D01*
X150214285Y-71690476D01*
X150309523Y-71738095D01*
X150404761Y-71833333D01*
X150452380Y-71976190D01*
X150452380Y-72214285D01*
X149880952Y-71071428D02*
X149833333Y-71166666D01*
X149785714Y-71214285D01*
X149690476Y-71261904D01*
X149642857Y-71261904D01*
X149547619Y-71214285D01*
X149500000Y-71166666D01*
X149452380Y-71071428D01*
X149452380Y-70880952D01*
X149500000Y-70785714D01*
X149547619Y-70738095D01*
X149642857Y-70690476D01*
X149690476Y-70690476D01*
X149785714Y-70738095D01*
X149833333Y-70785714D01*
X149880952Y-70880952D01*
X149880952Y-71071428D01*
X149928571Y-71166666D01*
X149976190Y-71214285D01*
X150071428Y-71261904D01*
X150261904Y-71261904D01*
X150357142Y-71214285D01*
X150404761Y-71166666D01*
X150452380Y-71071428D01*
X150452380Y-70880952D01*
X150404761Y-70785714D01*
X150357142Y-70738095D01*
X150261904Y-70690476D01*
X150071428Y-70690476D01*
X149976190Y-70738095D01*
X149928571Y-70785714D01*
X149880952Y-70880952D01*
X149880952Y-70119047D02*
X149833333Y-70214285D01*
X149785714Y-70261904D01*
X149690476Y-70309523D01*
X149642857Y-70309523D01*
X149547619Y-70261904D01*
X149500000Y-70214285D01*
X149452380Y-70119047D01*
X149452380Y-69928571D01*
X149500000Y-69833333D01*
X149547619Y-69785714D01*
X149642857Y-69738095D01*
X149690476Y-69738095D01*
X149785714Y-69785714D01*
X149833333Y-69833333D01*
X149880952Y-69928571D01*
X149880952Y-70119047D01*
X149928571Y-70214285D01*
X149976190Y-70261904D01*
X150071428Y-70309523D01*
X150261904Y-70309523D01*
X150357142Y-70261904D01*
X150404761Y-70214285D01*
X150452380Y-70119047D01*
X150452380Y-69928571D01*
X150404761Y-69833333D01*
X150357142Y-69785714D01*
X150261904Y-69738095D01*
X150071428Y-69738095D01*
X149976190Y-69785714D01*
X149928571Y-69833333D01*
X149880952Y-69928571D01*
G04 #@! TO.C,D89*
X152952380Y-72214285D02*
X151952380Y-72214285D01*
X151952380Y-71976190D01*
X152000000Y-71833333D01*
X152095238Y-71738095D01*
X152190476Y-71690476D01*
X152380952Y-71642857D01*
X152523809Y-71642857D01*
X152714285Y-71690476D01*
X152809523Y-71738095D01*
X152904761Y-71833333D01*
X152952380Y-71976190D01*
X152952380Y-72214285D01*
X152380952Y-71071428D02*
X152333333Y-71166666D01*
X152285714Y-71214285D01*
X152190476Y-71261904D01*
X152142857Y-71261904D01*
X152047619Y-71214285D01*
X152000000Y-71166666D01*
X151952380Y-71071428D01*
X151952380Y-70880952D01*
X152000000Y-70785714D01*
X152047619Y-70738095D01*
X152142857Y-70690476D01*
X152190476Y-70690476D01*
X152285714Y-70738095D01*
X152333333Y-70785714D01*
X152380952Y-70880952D01*
X152380952Y-71071428D01*
X152428571Y-71166666D01*
X152476190Y-71214285D01*
X152571428Y-71261904D01*
X152761904Y-71261904D01*
X152857142Y-71214285D01*
X152904761Y-71166666D01*
X152952380Y-71071428D01*
X152952380Y-70880952D01*
X152904761Y-70785714D01*
X152857142Y-70738095D01*
X152761904Y-70690476D01*
X152571428Y-70690476D01*
X152476190Y-70738095D01*
X152428571Y-70785714D01*
X152380952Y-70880952D01*
X152952380Y-70214285D02*
X152952380Y-70023809D01*
X152904761Y-69928571D01*
X152857142Y-69880952D01*
X152714285Y-69785714D01*
X152523809Y-69738095D01*
X152142857Y-69738095D01*
X152047619Y-69785714D01*
X152000000Y-69833333D01*
X151952380Y-69928571D01*
X151952380Y-70119047D01*
X152000000Y-70214285D01*
X152047619Y-70261904D01*
X152142857Y-70309523D01*
X152380952Y-70309523D01*
X152476190Y-70261904D01*
X152523809Y-70214285D01*
X152571428Y-70119047D01*
X152571428Y-69928571D01*
X152523809Y-69833333D01*
X152476190Y-69785714D01*
X152380952Y-69738095D01*
G04 #@! TO.C,D90*
X155452380Y-72214285D02*
X154452380Y-72214285D01*
X154452380Y-71976190D01*
X154500000Y-71833333D01*
X154595238Y-71738095D01*
X154690476Y-71690476D01*
X154880952Y-71642857D01*
X155023809Y-71642857D01*
X155214285Y-71690476D01*
X155309523Y-71738095D01*
X155404761Y-71833333D01*
X155452380Y-71976190D01*
X155452380Y-72214285D01*
X155452380Y-71166666D02*
X155452380Y-70976190D01*
X155404761Y-70880952D01*
X155357142Y-70833333D01*
X155214285Y-70738095D01*
X155023809Y-70690476D01*
X154642857Y-70690476D01*
X154547619Y-70738095D01*
X154500000Y-70785714D01*
X154452380Y-70880952D01*
X154452380Y-71071428D01*
X154500000Y-71166666D01*
X154547619Y-71214285D01*
X154642857Y-71261904D01*
X154880952Y-71261904D01*
X154976190Y-71214285D01*
X155023809Y-71166666D01*
X155071428Y-71071428D01*
X155071428Y-70880952D01*
X155023809Y-70785714D01*
X154976190Y-70738095D01*
X154880952Y-70690476D01*
X154452380Y-70071428D02*
X154452380Y-69976190D01*
X154500000Y-69880952D01*
X154547619Y-69833333D01*
X154642857Y-69785714D01*
X154833333Y-69738095D01*
X155071428Y-69738095D01*
X155261904Y-69785714D01*
X155357142Y-69833333D01*
X155404761Y-69880952D01*
X155452380Y-69976190D01*
X155452380Y-70071428D01*
X155404761Y-70166666D01*
X155357142Y-70214285D01*
X155261904Y-70261904D01*
X155071428Y-70309523D01*
X154833333Y-70309523D01*
X154642857Y-70261904D01*
X154547619Y-70214285D01*
X154500000Y-70166666D01*
X154452380Y-70071428D01*
G04 #@! TO.C,R1*
X113052380Y-74166666D02*
X112576190Y-74500000D01*
X113052380Y-74738095D02*
X112052380Y-74738095D01*
X112052380Y-74357142D01*
X112100000Y-74261904D01*
X112147619Y-74214285D01*
X112242857Y-74166666D01*
X112385714Y-74166666D01*
X112480952Y-74214285D01*
X112528571Y-74261904D01*
X112576190Y-74357142D01*
X112576190Y-74738095D01*
X113052380Y-73214285D02*
X113052380Y-73785714D01*
X113052380Y-73500000D02*
X112052380Y-73500000D01*
X112195238Y-73595238D01*
X112290476Y-73690476D01*
X112338095Y-73785714D01*
G04 #@! TO.C,R2*
X115552380Y-74166666D02*
X115076190Y-74500000D01*
X115552380Y-74738095D02*
X114552380Y-74738095D01*
X114552380Y-74357142D01*
X114600000Y-74261904D01*
X114647619Y-74214285D01*
X114742857Y-74166666D01*
X114885714Y-74166666D01*
X114980952Y-74214285D01*
X115028571Y-74261904D01*
X115076190Y-74357142D01*
X115076190Y-74738095D01*
X114647619Y-73785714D02*
X114600000Y-73738095D01*
X114552380Y-73642857D01*
X114552380Y-73404761D01*
X114600000Y-73309523D01*
X114647619Y-73261904D01*
X114742857Y-73214285D01*
X114838095Y-73214285D01*
X114980952Y-73261904D01*
X115552380Y-73833333D01*
X115552380Y-73214285D01*
G04 #@! TO.C,R3*
X118052380Y-74166666D02*
X117576190Y-74500000D01*
X118052380Y-74738095D02*
X117052380Y-74738095D01*
X117052380Y-74357142D01*
X117100000Y-74261904D01*
X117147619Y-74214285D01*
X117242857Y-74166666D01*
X117385714Y-74166666D01*
X117480952Y-74214285D01*
X117528571Y-74261904D01*
X117576190Y-74357142D01*
X117576190Y-74738095D01*
X117052380Y-73833333D02*
X117052380Y-73214285D01*
X117433333Y-73547619D01*
X117433333Y-73404761D01*
X117480952Y-73309523D01*
X117528571Y-73261904D01*
X117623809Y-73214285D01*
X117861904Y-73214285D01*
X117957142Y-73261904D01*
X118004761Y-73309523D01*
X118052380Y-73404761D01*
X118052380Y-73690476D01*
X118004761Y-73785714D01*
X117957142Y-73833333D01*
G04 #@! TO.C,R4*
X120552380Y-74166666D02*
X120076190Y-74500000D01*
X120552380Y-74738095D02*
X119552380Y-74738095D01*
X119552380Y-74357142D01*
X119600000Y-74261904D01*
X119647619Y-74214285D01*
X119742857Y-74166666D01*
X119885714Y-74166666D01*
X119980952Y-74214285D01*
X120028571Y-74261904D01*
X120076190Y-74357142D01*
X120076190Y-74738095D01*
X119885714Y-73309523D02*
X120552380Y-73309523D01*
X119504761Y-73547619D02*
X120219047Y-73785714D01*
X120219047Y-73166666D01*
G04 #@! TO.C,R5*
X120552380Y-77166666D02*
X120076190Y-77500000D01*
X120552380Y-77738095D02*
X119552380Y-77738095D01*
X119552380Y-77357142D01*
X119600000Y-77261904D01*
X119647619Y-77214285D01*
X119742857Y-77166666D01*
X119885714Y-77166666D01*
X119980952Y-77214285D01*
X120028571Y-77261904D01*
X120076190Y-77357142D01*
X120076190Y-77738095D01*
X119552380Y-76261904D02*
X119552380Y-76738095D01*
X120028571Y-76785714D01*
X119980952Y-76738095D01*
X119933333Y-76642857D01*
X119933333Y-76404761D01*
X119980952Y-76309523D01*
X120028571Y-76261904D01*
X120123809Y-76214285D01*
X120361904Y-76214285D01*
X120457142Y-76261904D01*
X120504761Y-76309523D01*
X120552380Y-76404761D01*
X120552380Y-76642857D01*
X120504761Y-76738095D01*
X120457142Y-76785714D01*
G04 #@! TO.C,R6*
X123052380Y-74166666D02*
X122576190Y-74500000D01*
X123052380Y-74738095D02*
X122052380Y-74738095D01*
X122052380Y-74357142D01*
X122100000Y-74261904D01*
X122147619Y-74214285D01*
X122242857Y-74166666D01*
X122385714Y-74166666D01*
X122480952Y-74214285D01*
X122528571Y-74261904D01*
X122576190Y-74357142D01*
X122576190Y-74738095D01*
X122052380Y-73309523D02*
X122052380Y-73500000D01*
X122100000Y-73595238D01*
X122147619Y-73642857D01*
X122290476Y-73738095D01*
X122480952Y-73785714D01*
X122861904Y-73785714D01*
X122957142Y-73738095D01*
X123004761Y-73690476D01*
X123052380Y-73595238D01*
X123052380Y-73404761D01*
X123004761Y-73309523D01*
X122957142Y-73261904D01*
X122861904Y-73214285D01*
X122623809Y-73214285D01*
X122528571Y-73261904D01*
X122480952Y-73309523D01*
X122433333Y-73404761D01*
X122433333Y-73595238D01*
X122480952Y-73690476D01*
X122528571Y-73738095D01*
X122623809Y-73785714D01*
G04 #@! TO.C,R8*
X128052380Y-74166666D02*
X127576190Y-74500000D01*
X128052380Y-74738095D02*
X127052380Y-74738095D01*
X127052380Y-74357142D01*
X127100000Y-74261904D01*
X127147619Y-74214285D01*
X127242857Y-74166666D01*
X127385714Y-74166666D01*
X127480952Y-74214285D01*
X127528571Y-74261904D01*
X127576190Y-74357142D01*
X127576190Y-74738095D01*
X127480952Y-73595238D02*
X127433333Y-73690476D01*
X127385714Y-73738095D01*
X127290476Y-73785714D01*
X127242857Y-73785714D01*
X127147619Y-73738095D01*
X127100000Y-73690476D01*
X127052380Y-73595238D01*
X127052380Y-73404761D01*
X127100000Y-73309523D01*
X127147619Y-73261904D01*
X127242857Y-73214285D01*
X127290476Y-73214285D01*
X127385714Y-73261904D01*
X127433333Y-73309523D01*
X127480952Y-73404761D01*
X127480952Y-73595238D01*
X127528571Y-73690476D01*
X127576190Y-73738095D01*
X127671428Y-73785714D01*
X127861904Y-73785714D01*
X127957142Y-73738095D01*
X128004761Y-73690476D01*
X128052380Y-73595238D01*
X128052380Y-73404761D01*
X128004761Y-73309523D01*
X127957142Y-73261904D01*
X127861904Y-73214285D01*
X127671428Y-73214285D01*
X127576190Y-73261904D01*
X127528571Y-73309523D01*
X127480952Y-73404761D01*
G04 #@! TO.C,R9*
X130552380Y-74166666D02*
X130076190Y-74500000D01*
X130552380Y-74738095D02*
X129552380Y-74738095D01*
X129552380Y-74357142D01*
X129600000Y-74261904D01*
X129647619Y-74214285D01*
X129742857Y-74166666D01*
X129885714Y-74166666D01*
X129980952Y-74214285D01*
X130028571Y-74261904D01*
X130076190Y-74357142D01*
X130076190Y-74738095D01*
X130552380Y-73690476D02*
X130552380Y-73500000D01*
X130504761Y-73404761D01*
X130457142Y-73357142D01*
X130314285Y-73261904D01*
X130123809Y-73214285D01*
X129742857Y-73214285D01*
X129647619Y-73261904D01*
X129600000Y-73309523D01*
X129552380Y-73404761D01*
X129552380Y-73595238D01*
X129600000Y-73690476D01*
X129647619Y-73738095D01*
X129742857Y-73785714D01*
X129980952Y-73785714D01*
X130076190Y-73738095D01*
X130123809Y-73690476D01*
X130171428Y-73595238D01*
X130171428Y-73404761D01*
X130123809Y-73309523D01*
X130076190Y-73261904D01*
X129980952Y-73214285D01*
G04 #@! TO.C,R10*
X133052380Y-74642857D02*
X132576190Y-74976190D01*
X133052380Y-75214285D02*
X132052380Y-75214285D01*
X132052380Y-74833333D01*
X132100000Y-74738095D01*
X132147619Y-74690476D01*
X132242857Y-74642857D01*
X132385714Y-74642857D01*
X132480952Y-74690476D01*
X132528571Y-74738095D01*
X132576190Y-74833333D01*
X132576190Y-75214285D01*
X133052380Y-73690476D02*
X133052380Y-74261904D01*
X133052380Y-73976190D02*
X132052380Y-73976190D01*
X132195238Y-74071428D01*
X132290476Y-74166666D01*
X132338095Y-74261904D01*
X132052380Y-73071428D02*
X132052380Y-72976190D01*
X132100000Y-72880952D01*
X132147619Y-72833333D01*
X132242857Y-72785714D01*
X132433333Y-72738095D01*
X132671428Y-72738095D01*
X132861904Y-72785714D01*
X132957142Y-72833333D01*
X133004761Y-72880952D01*
X133052380Y-72976190D01*
X133052380Y-73071428D01*
X133004761Y-73166666D01*
X132957142Y-73214285D01*
X132861904Y-73261904D01*
X132671428Y-73309523D01*
X132433333Y-73309523D01*
X132242857Y-73261904D01*
X132147619Y-73214285D01*
X132100000Y-73166666D01*
X132052380Y-73071428D01*
G04 #@! TO.C,SW1*
X113666666Y-99904761D02*
X113809523Y-99952380D01*
X114047619Y-99952380D01*
X114142857Y-99904761D01*
X114190476Y-99857142D01*
X114238095Y-99761904D01*
X114238095Y-99666666D01*
X114190476Y-99571428D01*
X114142857Y-99523809D01*
X114047619Y-99476190D01*
X113857142Y-99428571D01*
X113761904Y-99380952D01*
X113714285Y-99333333D01*
X113666666Y-99238095D01*
X113666666Y-99142857D01*
X113714285Y-99047619D01*
X113761904Y-99000000D01*
X113857142Y-98952380D01*
X114095238Y-98952380D01*
X114238095Y-99000000D01*
X114571428Y-98952380D02*
X114809523Y-99952380D01*
X115000000Y-99238095D01*
X115190476Y-99952380D01*
X115428571Y-98952380D01*
X116333333Y-99952380D02*
X115761904Y-99952380D01*
X116047619Y-99952380D02*
X116047619Y-98952380D01*
X115952380Y-99095238D01*
X115857142Y-99190476D01*
X115761904Y-99238095D01*
G04 #@! TO.C,SW2*
X131166666Y-99904761D02*
X131309523Y-99952380D01*
X131547619Y-99952380D01*
X131642857Y-99904761D01*
X131690476Y-99857142D01*
X131738095Y-99761904D01*
X131738095Y-99666666D01*
X131690476Y-99571428D01*
X131642857Y-99523809D01*
X131547619Y-99476190D01*
X131357142Y-99428571D01*
X131261904Y-99380952D01*
X131214285Y-99333333D01*
X131166666Y-99238095D01*
X131166666Y-99142857D01*
X131214285Y-99047619D01*
X131261904Y-99000000D01*
X131357142Y-98952380D01*
X131595238Y-98952380D01*
X131738095Y-99000000D01*
X132071428Y-98952380D02*
X132309523Y-99952380D01*
X132500000Y-99238095D01*
X132690476Y-99952380D01*
X132928571Y-98952380D01*
X133261904Y-99047619D02*
X133309523Y-99000000D01*
X133404761Y-98952380D01*
X133642857Y-98952380D01*
X133738095Y-99000000D01*
X133785714Y-99047619D01*
X133833333Y-99142857D01*
X133833333Y-99238095D01*
X133785714Y-99380952D01*
X133214285Y-99952380D01*
X133833333Y-99952380D01*
G04 #@! TO.C,SW3*
X148666666Y-99904761D02*
X148809523Y-99952380D01*
X149047619Y-99952380D01*
X149142857Y-99904761D01*
X149190476Y-99857142D01*
X149238095Y-99761904D01*
X149238095Y-99666666D01*
X149190476Y-99571428D01*
X149142857Y-99523809D01*
X149047619Y-99476190D01*
X148857142Y-99428571D01*
X148761904Y-99380952D01*
X148714285Y-99333333D01*
X148666666Y-99238095D01*
X148666666Y-99142857D01*
X148714285Y-99047619D01*
X148761904Y-99000000D01*
X148857142Y-98952380D01*
X149095238Y-98952380D01*
X149238095Y-99000000D01*
X149571428Y-98952380D02*
X149809523Y-99952380D01*
X150000000Y-99238095D01*
X150190476Y-99952380D01*
X150428571Y-98952380D01*
X150714285Y-98952380D02*
X151333333Y-98952380D01*
X151000000Y-99333333D01*
X151142857Y-99333333D01*
X151238095Y-99380952D01*
X151285714Y-99428571D01*
X151333333Y-99523809D01*
X151333333Y-99761904D01*
X151285714Y-99857142D01*
X151238095Y-99904761D01*
X151142857Y-99952380D01*
X150857142Y-99952380D01*
X150761904Y-99904761D01*
X150714285Y-99857142D01*
G04 #@! TO.C,U1*
X123444095Y-77018380D02*
X123444095Y-77827904D01*
X123491714Y-77923142D01*
X123539333Y-77970761D01*
X123634571Y-78018380D01*
X123825047Y-78018380D01*
X123920285Y-77970761D01*
X123967904Y-77923142D01*
X124015523Y-77827904D01*
X124015523Y-77018380D01*
X125015523Y-78018380D02*
X124444095Y-78018380D01*
X124729809Y-78018380D02*
X124729809Y-77018380D01*
X124634571Y-77161238D01*
X124539333Y-77256476D01*
X124444095Y-77304095D01*
G04 #@! TO.C,U2*
X104338095Y-77752380D02*
X104338095Y-78561904D01*
X104385714Y-78657142D01*
X104433333Y-78704761D01*
X104528571Y-78752380D01*
X104719047Y-78752380D01*
X104814285Y-78704761D01*
X104861904Y-78657142D01*
X104909523Y-78561904D01*
X104909523Y-77752380D01*
X105338095Y-77847619D02*
X105385714Y-77800000D01*
X105480952Y-77752380D01*
X105719047Y-77752380D01*
X105814285Y-77800000D01*
X105861904Y-77847619D01*
X105909523Y-77942857D01*
X105909523Y-78038095D01*
X105861904Y-78180952D01*
X105290476Y-78752380D01*
X105909523Y-78752380D01*
G04 #@! TO.C,8MHz1*
X115030952Y-85771428D02*
X114983333Y-85866666D01*
X114935714Y-85914285D01*
X114840476Y-85961904D01*
X114792857Y-85961904D01*
X114697619Y-85914285D01*
X114650000Y-85866666D01*
X114602380Y-85771428D01*
X114602380Y-85580952D01*
X114650000Y-85485714D01*
X114697619Y-85438095D01*
X114792857Y-85390476D01*
X114840476Y-85390476D01*
X114935714Y-85438095D01*
X114983333Y-85485714D01*
X115030952Y-85580952D01*
X115030952Y-85771428D01*
X115078571Y-85866666D01*
X115126190Y-85914285D01*
X115221428Y-85961904D01*
X115411904Y-85961904D01*
X115507142Y-85914285D01*
X115554761Y-85866666D01*
X115602380Y-85771428D01*
X115602380Y-85580952D01*
X115554761Y-85485714D01*
X115507142Y-85438095D01*
X115411904Y-85390476D01*
X115221428Y-85390476D01*
X115126190Y-85438095D01*
X115078571Y-85485714D01*
X115030952Y-85580952D01*
X115602380Y-84961904D02*
X114602380Y-84961904D01*
X115316666Y-84628571D01*
X114602380Y-84295238D01*
X115602380Y-84295238D01*
X115602380Y-83819047D02*
X114602380Y-83819047D01*
X115078571Y-83819047D02*
X115078571Y-83247619D01*
X115602380Y-83247619D02*
X114602380Y-83247619D01*
X114935714Y-82866666D02*
X114935714Y-82342857D01*
X115602380Y-82866666D01*
X115602380Y-82342857D01*
X115602380Y-81438095D02*
X115602380Y-82009523D01*
X115602380Y-81723809D02*
X114602380Y-81723809D01*
X114745238Y-81819047D01*
X114840476Y-81914285D01*
X114888095Y-82009523D01*
G04 #@! TO.C,J2*
X157566666Y-75342380D02*
X157566666Y-76056666D01*
X157519047Y-76199523D01*
X157423809Y-76294761D01*
X157280952Y-76342380D01*
X157185714Y-76342380D01*
X157995238Y-75437619D02*
X158042857Y-75390000D01*
X158138095Y-75342380D01*
X158376190Y-75342380D01*
X158471428Y-75390000D01*
X158519047Y-75437619D01*
X158566666Y-75532857D01*
X158566666Y-75628095D01*
X158519047Y-75770952D01*
X157947619Y-76342380D01*
X158566666Y-76342380D01*
G04 #@! TO.C,R11*
X106842142Y-89382380D02*
X106508809Y-88906190D01*
X106270714Y-89382380D02*
X106270714Y-88382380D01*
X106651666Y-88382380D01*
X106746904Y-88430000D01*
X106794523Y-88477619D01*
X106842142Y-88572857D01*
X106842142Y-88715714D01*
X106794523Y-88810952D01*
X106746904Y-88858571D01*
X106651666Y-88906190D01*
X106270714Y-88906190D01*
X107794523Y-89382380D02*
X107223095Y-89382380D01*
X107508809Y-89382380D02*
X107508809Y-88382380D01*
X107413571Y-88525238D01*
X107318333Y-88620476D01*
X107223095Y-88668095D01*
X108746904Y-89382380D02*
X108175476Y-89382380D01*
X108461190Y-89382380D02*
X108461190Y-88382380D01*
X108365952Y-88525238D01*
X108270714Y-88620476D01*
X108175476Y-88668095D01*
G04 #@! TO.C,R12*
X106857142Y-88182380D02*
X106523809Y-87706190D01*
X106285714Y-88182380D02*
X106285714Y-87182380D01*
X106666666Y-87182380D01*
X106761904Y-87230000D01*
X106809523Y-87277619D01*
X106857142Y-87372857D01*
X106857142Y-87515714D01*
X106809523Y-87610952D01*
X106761904Y-87658571D01*
X106666666Y-87706190D01*
X106285714Y-87706190D01*
X107809523Y-88182380D02*
X107238095Y-88182380D01*
X107523809Y-88182380D02*
X107523809Y-87182380D01*
X107428571Y-87325238D01*
X107333333Y-87420476D01*
X107238095Y-87468095D01*
X108190476Y-87277619D02*
X108238095Y-87230000D01*
X108333333Y-87182380D01*
X108571428Y-87182380D01*
X108666666Y-87230000D01*
X108714285Y-87277619D01*
X108761904Y-87372857D01*
X108761904Y-87468095D01*
X108714285Y-87610952D01*
X108142857Y-88182380D01*
X108761904Y-88182380D01*
G04 #@! TO.C,C1*
X123027142Y-77081666D02*
X123074761Y-77129285D01*
X123122380Y-77272142D01*
X123122380Y-77367380D01*
X123074761Y-77510238D01*
X122979523Y-77605476D01*
X122884285Y-77653095D01*
X122693809Y-77700714D01*
X122550952Y-77700714D01*
X122360476Y-77653095D01*
X122265238Y-77605476D01*
X122170000Y-77510238D01*
X122122380Y-77367380D01*
X122122380Y-77272142D01*
X122170000Y-77129285D01*
X122217619Y-77081666D01*
X123122380Y-76129285D02*
X123122380Y-76700714D01*
X123122380Y-76415000D02*
X122122380Y-76415000D01*
X122265238Y-76510238D01*
X122360476Y-76605476D01*
X122408095Y-76700714D01*
G04 #@! TO.C,C2*
X121787142Y-77081666D02*
X121834761Y-77129285D01*
X121882380Y-77272142D01*
X121882380Y-77367380D01*
X121834761Y-77510238D01*
X121739523Y-77605476D01*
X121644285Y-77653095D01*
X121453809Y-77700714D01*
X121310952Y-77700714D01*
X121120476Y-77653095D01*
X121025238Y-77605476D01*
X120930000Y-77510238D01*
X120882380Y-77367380D01*
X120882380Y-77272142D01*
X120930000Y-77129285D01*
X120977619Y-77081666D01*
X120977619Y-76700714D02*
X120930000Y-76653095D01*
X120882380Y-76557857D01*
X120882380Y-76319761D01*
X120930000Y-76224523D01*
X120977619Y-76176904D01*
X121072857Y-76129285D01*
X121168095Y-76129285D01*
X121310952Y-76176904D01*
X121882380Y-76748333D01*
X121882380Y-76129285D01*
G04 #@! TO.C,C3*
X130620333Y-79959142D02*
X130572714Y-80006761D01*
X130429857Y-80054380D01*
X130334619Y-80054380D01*
X130191761Y-80006761D01*
X130096523Y-79911523D01*
X130048904Y-79816285D01*
X130001285Y-79625809D01*
X130001285Y-79482952D01*
X130048904Y-79292476D01*
X130096523Y-79197238D01*
X130191761Y-79102000D01*
X130334619Y-79054380D01*
X130429857Y-79054380D01*
X130572714Y-79102000D01*
X130620333Y-79149619D01*
X130953666Y-79054380D02*
X131572714Y-79054380D01*
X131239380Y-79435333D01*
X131382238Y-79435333D01*
X131477476Y-79482952D01*
X131525095Y-79530571D01*
X131572714Y-79625809D01*
X131572714Y-79863904D01*
X131525095Y-79959142D01*
X131477476Y-80006761D01*
X131382238Y-80054380D01*
X131096523Y-80054380D01*
X131001285Y-80006761D01*
X130953666Y-79959142D01*
G04 #@! TO.C,C4*
X117458333Y-86363142D02*
X117410714Y-86410761D01*
X117267857Y-86458380D01*
X117172619Y-86458380D01*
X117029761Y-86410761D01*
X116934523Y-86315523D01*
X116886904Y-86220285D01*
X116839285Y-86029809D01*
X116839285Y-85886952D01*
X116886904Y-85696476D01*
X116934523Y-85601238D01*
X117029761Y-85506000D01*
X117172619Y-85458380D01*
X117267857Y-85458380D01*
X117410714Y-85506000D01*
X117458333Y-85553619D01*
X118315476Y-85791714D02*
X118315476Y-86458380D01*
X118077380Y-85410761D02*
X117839285Y-86125047D01*
X118458333Y-86125047D01*
G04 #@! TO.C,C5*
X126187142Y-90105666D02*
X126234761Y-90153285D01*
X126282380Y-90296142D01*
X126282380Y-90391380D01*
X126234761Y-90534238D01*
X126139523Y-90629476D01*
X126044285Y-90677095D01*
X125853809Y-90724714D01*
X125710952Y-90724714D01*
X125520476Y-90677095D01*
X125425238Y-90629476D01*
X125330000Y-90534238D01*
X125282380Y-90391380D01*
X125282380Y-90296142D01*
X125330000Y-90153285D01*
X125377619Y-90105666D01*
X125282380Y-89200904D02*
X125282380Y-89677095D01*
X125758571Y-89724714D01*
X125710952Y-89677095D01*
X125663333Y-89581857D01*
X125663333Y-89343761D01*
X125710952Y-89248523D01*
X125758571Y-89200904D01*
X125853809Y-89153285D01*
X126091904Y-89153285D01*
X126187142Y-89200904D01*
X126234761Y-89248523D01*
X126282380Y-89343761D01*
X126282380Y-89581857D01*
X126234761Y-89677095D01*
X126187142Y-89724714D01*
G04 #@! TO.C,C6*
X117412333Y-79959142D02*
X117364714Y-80006761D01*
X117221857Y-80054380D01*
X117126619Y-80054380D01*
X116983761Y-80006761D01*
X116888523Y-79911523D01*
X116840904Y-79816285D01*
X116793285Y-79625809D01*
X116793285Y-79482952D01*
X116840904Y-79292476D01*
X116888523Y-79197238D01*
X116983761Y-79102000D01*
X117126619Y-79054380D01*
X117221857Y-79054380D01*
X117364714Y-79102000D01*
X117412333Y-79149619D01*
X118269476Y-79054380D02*
X118079000Y-79054380D01*
X117983761Y-79102000D01*
X117936142Y-79149619D01*
X117840904Y-79292476D01*
X117793285Y-79482952D01*
X117793285Y-79863904D01*
X117840904Y-79959142D01*
X117888523Y-80006761D01*
X117983761Y-80054380D01*
X118174238Y-80054380D01*
X118269476Y-80006761D01*
X118317095Y-79959142D01*
X118364714Y-79863904D01*
X118364714Y-79625809D01*
X118317095Y-79530571D01*
X118269476Y-79482952D01*
X118174238Y-79435333D01*
X117983761Y-79435333D01*
X117888523Y-79482952D01*
X117840904Y-79530571D01*
X117793285Y-79625809D01*
G04 #@! TO.C,C7*
X117027142Y-80551666D02*
X117074761Y-80599285D01*
X117122380Y-80742142D01*
X117122380Y-80837380D01*
X117074761Y-80980238D01*
X116979523Y-81075476D01*
X116884285Y-81123095D01*
X116693809Y-81170714D01*
X116550952Y-81170714D01*
X116360476Y-81123095D01*
X116265238Y-81075476D01*
X116170000Y-80980238D01*
X116122380Y-80837380D01*
X116122380Y-80742142D01*
X116170000Y-80599285D01*
X116217619Y-80551666D01*
X116122380Y-80218333D02*
X116122380Y-79551666D01*
X117122380Y-79980238D01*
G04 #@! TO.C,C8*
X114687142Y-87566666D02*
X114734761Y-87614285D01*
X114782380Y-87757142D01*
X114782380Y-87852380D01*
X114734761Y-87995238D01*
X114639523Y-88090476D01*
X114544285Y-88138095D01*
X114353809Y-88185714D01*
X114210952Y-88185714D01*
X114020476Y-88138095D01*
X113925238Y-88090476D01*
X113830000Y-87995238D01*
X113782380Y-87852380D01*
X113782380Y-87757142D01*
X113830000Y-87614285D01*
X113877619Y-87566666D01*
X114210952Y-86995238D02*
X114163333Y-87090476D01*
X114115714Y-87138095D01*
X114020476Y-87185714D01*
X113972857Y-87185714D01*
X113877619Y-87138095D01*
X113830000Y-87090476D01*
X113782380Y-86995238D01*
X113782380Y-86804761D01*
X113830000Y-86709523D01*
X113877619Y-86661904D01*
X113972857Y-86614285D01*
X114020476Y-86614285D01*
X114115714Y-86661904D01*
X114163333Y-86709523D01*
X114210952Y-86804761D01*
X114210952Y-86995238D01*
X114258571Y-87090476D01*
X114306190Y-87138095D01*
X114401428Y-87185714D01*
X114591904Y-87185714D01*
X114687142Y-87138095D01*
X114734761Y-87090476D01*
X114782380Y-86995238D01*
X114782380Y-86804761D01*
X114734761Y-86709523D01*
X114687142Y-86661904D01*
X114591904Y-86614285D01*
X114401428Y-86614285D01*
X114306190Y-86661904D01*
X114258571Y-86709523D01*
X114210952Y-86804761D01*
G04 #@! TO.C,C9*
X104633333Y-85427142D02*
X104585714Y-85474761D01*
X104442857Y-85522380D01*
X104347619Y-85522380D01*
X104204761Y-85474761D01*
X104109523Y-85379523D01*
X104061904Y-85284285D01*
X104014285Y-85093809D01*
X104014285Y-84950952D01*
X104061904Y-84760476D01*
X104109523Y-84665238D01*
X104204761Y-84570000D01*
X104347619Y-84522380D01*
X104442857Y-84522380D01*
X104585714Y-84570000D01*
X104633333Y-84617619D01*
X105109523Y-85522380D02*
X105300000Y-85522380D01*
X105395238Y-85474761D01*
X105442857Y-85427142D01*
X105538095Y-85284285D01*
X105585714Y-85093809D01*
X105585714Y-84712857D01*
X105538095Y-84617619D01*
X105490476Y-84570000D01*
X105395238Y-84522380D01*
X105204761Y-84522380D01*
X105109523Y-84570000D01*
X105061904Y-84617619D01*
X105014285Y-84712857D01*
X105014285Y-84950952D01*
X105061904Y-85046190D01*
X105109523Y-85093809D01*
X105204761Y-85141428D01*
X105395238Y-85141428D01*
X105490476Y-85093809D01*
X105538095Y-85046190D01*
X105585714Y-84950952D01*
G04 #@! TO.C,C10*
X106987142Y-81327857D02*
X107034761Y-81375476D01*
X107082380Y-81518333D01*
X107082380Y-81613571D01*
X107034761Y-81756428D01*
X106939523Y-81851666D01*
X106844285Y-81899285D01*
X106653809Y-81946904D01*
X106510952Y-81946904D01*
X106320476Y-81899285D01*
X106225238Y-81851666D01*
X106130000Y-81756428D01*
X106082380Y-81613571D01*
X106082380Y-81518333D01*
X106130000Y-81375476D01*
X106177619Y-81327857D01*
X107082380Y-80375476D02*
X107082380Y-80946904D01*
X107082380Y-80661190D02*
X106082380Y-80661190D01*
X106225238Y-80756428D01*
X106320476Y-80851666D01*
X106368095Y-80946904D01*
X106082380Y-79756428D02*
X106082380Y-79661190D01*
X106130000Y-79565952D01*
X106177619Y-79518333D01*
X106272857Y-79470714D01*
X106463333Y-79423095D01*
X106701428Y-79423095D01*
X106891904Y-79470714D01*
X106987142Y-79518333D01*
X107034761Y-79565952D01*
X107082380Y-79661190D01*
X107082380Y-79756428D01*
X107034761Y-79851666D01*
X106987142Y-79899285D01*
X106891904Y-79946904D01*
X106701428Y-79994523D01*
X106463333Y-79994523D01*
X106272857Y-79946904D01*
X106177619Y-79899285D01*
X106130000Y-79851666D01*
X106082380Y-79756428D01*
G04 #@! TD*
M02*
