G04 #@! TF.GenerationSoftware,KiCad,Pcbnew,5.0.2+dfsg1-1*
G04 #@! TF.CreationDate,2019-02-23T22:45:36+01:00*
G04 #@! TF.ProjectId,B-timer,422d7469-6d65-4722-9e6b-696361645f70,rev?*
G04 #@! TF.SameCoordinates,Original*
G04 #@! TF.FileFunction,Soldermask,Top*
G04 #@! TF.FilePolarity,Negative*
%FSLAX46Y46*%
G04 Gerber Fmt 4.6, Leading zero omitted, Abs format (unit mm)*
G04 Created by KiCad (PCBNEW 5.0.2+dfsg1-1) date Sat 23 Feb 2019 10:45:36 PM CET*
%MOMM*%
%LPD*%
G01*
G04 APERTURE LIST*
%ADD10C,0.100000*%
G04 APERTURE END LIST*
D10*
G36*
X137250000Y-97900000D02*
X135700000Y-97900000D01*
X135700000Y-96600000D01*
X137250000Y-96600000D01*
X137250000Y-97900000D01*
X137250000Y-97900000D01*
G37*
G36*
X146800000Y-97900000D02*
X145250000Y-97900000D01*
X145250000Y-96600000D01*
X146800000Y-96600000D01*
X146800000Y-97900000D01*
X146800000Y-97900000D01*
G37*
G36*
X154750000Y-97900000D02*
X153200000Y-97900000D01*
X153200000Y-96600000D01*
X154750000Y-96600000D01*
X154750000Y-97900000D01*
X154750000Y-97900000D01*
G37*
G36*
X111800000Y-97900000D02*
X110250000Y-97900000D01*
X110250000Y-96600000D01*
X111800000Y-96600000D01*
X111800000Y-97900000D01*
X111800000Y-97900000D01*
G37*
G36*
X129300000Y-97900000D02*
X127750000Y-97900000D01*
X127750000Y-96600000D01*
X129300000Y-96600000D01*
X129300000Y-97900000D01*
X129300000Y-97900000D01*
G37*
G36*
X119750000Y-97900000D02*
X118200000Y-97900000D01*
X118200000Y-96600000D01*
X119750000Y-96600000D01*
X119750000Y-97900000D01*
X119750000Y-97900000D01*
G37*
G36*
X101773015Y-92507234D02*
X101867268Y-92535825D01*
X101887912Y-92546860D01*
X101954129Y-92582254D01*
X101997841Y-92618127D01*
X102030264Y-92644736D01*
X102092745Y-92720870D01*
X102139175Y-92807732D01*
X102167766Y-92901985D01*
X102177419Y-93000000D01*
X102167766Y-93098015D01*
X102139175Y-93192268D01*
X102114357Y-93238697D01*
X102092746Y-93279129D01*
X102030264Y-93355264D01*
X101954129Y-93417746D01*
X101913697Y-93439357D01*
X101867268Y-93464175D01*
X101773015Y-93492766D01*
X101699564Y-93500000D01*
X101100436Y-93500000D01*
X101026985Y-93492766D01*
X100932732Y-93464175D01*
X100886303Y-93439357D01*
X100845871Y-93417746D01*
X100769736Y-93355264D01*
X100707254Y-93279129D01*
X100685643Y-93238697D01*
X100660825Y-93192268D01*
X100632234Y-93098015D01*
X100622581Y-93000000D01*
X100632234Y-92901985D01*
X100660825Y-92807732D01*
X100707255Y-92720870D01*
X100769736Y-92644736D01*
X100802159Y-92618127D01*
X100845871Y-92582254D01*
X100912088Y-92546860D01*
X100932732Y-92535825D01*
X101026985Y-92507234D01*
X101100436Y-92500000D01*
X101699564Y-92500000D01*
X101773015Y-92507234D01*
X101773015Y-92507234D01*
G37*
G36*
X129300000Y-93400000D02*
X127750000Y-93400000D01*
X127750000Y-92100000D01*
X129300000Y-92100000D01*
X129300000Y-93400000D01*
X129300000Y-93400000D01*
G37*
G36*
X119750000Y-93400000D02*
X118200000Y-93400000D01*
X118200000Y-92100000D01*
X119750000Y-92100000D01*
X119750000Y-93400000D01*
X119750000Y-93400000D01*
G37*
G36*
X154750000Y-93400000D02*
X153200000Y-93400000D01*
X153200000Y-92100000D01*
X154750000Y-92100000D01*
X154750000Y-93400000D01*
X154750000Y-93400000D01*
G37*
G36*
X146800000Y-93400000D02*
X145250000Y-93400000D01*
X145250000Y-92100000D01*
X146800000Y-92100000D01*
X146800000Y-93400000D01*
X146800000Y-93400000D01*
G37*
G36*
X137250000Y-93400000D02*
X135700000Y-93400000D01*
X135700000Y-92100000D01*
X137250000Y-92100000D01*
X137250000Y-93400000D01*
X137250000Y-93400000D01*
G37*
G36*
X111800000Y-93400000D02*
X110250000Y-93400000D01*
X110250000Y-92100000D01*
X111800000Y-92100000D01*
X111800000Y-93400000D01*
X111800000Y-93400000D01*
G37*
G36*
X104193115Y-91381873D02*
X104245680Y-91397818D01*
X104282657Y-91409035D01*
X104365168Y-91453138D01*
X104365169Y-91453139D01*
X104365173Y-91453141D01*
X104437501Y-91512499D01*
X104437502Y-91512501D01*
X104437504Y-91512502D01*
X104496860Y-91584827D01*
X104540965Y-91667342D01*
X104568127Y-91756885D01*
X104575000Y-91826667D01*
X104575000Y-92173332D01*
X104568127Y-92243115D01*
X104540965Y-92332658D01*
X104496860Y-92415173D01*
X104437501Y-92487501D01*
X104365173Y-92546860D01*
X104282658Y-92590965D01*
X104245681Y-92602182D01*
X104193116Y-92618127D01*
X104100000Y-92627298D01*
X104006885Y-92618127D01*
X103954320Y-92602182D01*
X103917343Y-92590965D01*
X103834828Y-92546860D01*
X103762500Y-92487501D01*
X103703142Y-92415174D01*
X103659034Y-92332655D01*
X103631873Y-92243115D01*
X103625000Y-92173333D01*
X103625000Y-91826668D01*
X103631873Y-91756886D01*
X103631874Y-91756884D01*
X103659034Y-91667347D01*
X103659035Y-91667343D01*
X103703138Y-91584832D01*
X103703139Y-91584831D01*
X103703141Y-91584827D01*
X103762499Y-91512499D01*
X103762501Y-91512498D01*
X103762502Y-91512496D01*
X103834827Y-91453140D01*
X103917342Y-91409035D01*
X103954319Y-91397818D01*
X104006884Y-91381873D01*
X104100000Y-91372702D01*
X104193115Y-91381873D01*
X104193115Y-91381873D01*
G37*
G36*
X104775000Y-91000000D02*
X103425000Y-91000000D01*
X103425000Y-88000000D01*
X104775000Y-88000000D01*
X104775000Y-91000000D01*
X104775000Y-91000000D01*
G37*
G36*
X127251463Y-90131226D02*
X127267298Y-90136030D01*
X127281886Y-90143827D01*
X127294676Y-90154324D01*
X127305173Y-90167114D01*
X127312970Y-90181702D01*
X127317774Y-90197537D01*
X127320000Y-90220140D01*
X127320000Y-90627860D01*
X127317774Y-90650463D01*
X127312970Y-90666298D01*
X127305173Y-90680886D01*
X127294676Y-90693676D01*
X127281886Y-90704173D01*
X127267298Y-90711970D01*
X127251463Y-90716774D01*
X127228860Y-90719000D01*
X126771140Y-90719000D01*
X126748537Y-90716774D01*
X126732702Y-90711970D01*
X126718114Y-90704173D01*
X126705324Y-90693676D01*
X126694827Y-90680886D01*
X126687030Y-90666298D01*
X126682226Y-90650463D01*
X126680000Y-90627860D01*
X126680000Y-90220140D01*
X126682226Y-90197537D01*
X126687030Y-90181702D01*
X126694827Y-90167114D01*
X126705324Y-90154324D01*
X126718114Y-90143827D01*
X126732702Y-90136030D01*
X126748537Y-90131226D01*
X126771140Y-90129000D01*
X127228860Y-90129000D01*
X127251463Y-90131226D01*
X127251463Y-90131226D01*
G37*
G36*
X107226463Y-89782226D02*
X107242298Y-89787030D01*
X107256886Y-89794827D01*
X107269676Y-89805324D01*
X107280173Y-89818114D01*
X107287970Y-89832702D01*
X107292774Y-89848537D01*
X107295000Y-89871140D01*
X107295000Y-90328860D01*
X107292774Y-90351463D01*
X107287970Y-90367298D01*
X107280173Y-90381886D01*
X107269676Y-90394676D01*
X107256886Y-90405173D01*
X107242298Y-90412970D01*
X107226463Y-90417774D01*
X107203860Y-90420000D01*
X106796140Y-90420000D01*
X106773537Y-90417774D01*
X106757702Y-90412970D01*
X106743114Y-90405173D01*
X106730324Y-90394676D01*
X106719827Y-90381886D01*
X106712030Y-90367298D01*
X106707226Y-90351463D01*
X106705000Y-90328860D01*
X106705000Y-89871140D01*
X106707226Y-89848537D01*
X106712030Y-89832702D01*
X106719827Y-89818114D01*
X106730324Y-89805324D01*
X106743114Y-89794827D01*
X106757702Y-89787030D01*
X106773537Y-89782226D01*
X106796140Y-89780000D01*
X107203860Y-89780000D01*
X107226463Y-89782226D01*
X107226463Y-89782226D01*
G37*
G36*
X108196463Y-89782226D02*
X108212298Y-89787030D01*
X108226886Y-89794827D01*
X108239676Y-89805324D01*
X108250173Y-89818114D01*
X108257970Y-89832702D01*
X108262774Y-89848537D01*
X108265000Y-89871140D01*
X108265000Y-90328860D01*
X108262774Y-90351463D01*
X108257970Y-90367298D01*
X108250173Y-90381886D01*
X108239676Y-90394676D01*
X108226886Y-90405173D01*
X108212298Y-90412970D01*
X108196463Y-90417774D01*
X108173860Y-90420000D01*
X107766140Y-90420000D01*
X107743537Y-90417774D01*
X107727702Y-90412970D01*
X107713114Y-90405173D01*
X107700324Y-90394676D01*
X107689827Y-90381886D01*
X107682030Y-90367298D01*
X107677226Y-90351463D01*
X107675000Y-90328860D01*
X107675000Y-89871140D01*
X107677226Y-89848537D01*
X107682030Y-89832702D01*
X107689827Y-89818114D01*
X107700324Y-89805324D01*
X107713114Y-89794827D01*
X107727702Y-89787030D01*
X107743537Y-89782226D01*
X107766140Y-89780000D01*
X108173860Y-89780000D01*
X108196463Y-89782226D01*
X108196463Y-89782226D01*
G37*
G36*
X112600000Y-90200000D02*
X110600000Y-90200000D01*
X110600000Y-85700000D01*
X112600000Y-85700000D01*
X112600000Y-90200000D01*
X112600000Y-90200000D01*
G37*
G36*
X127251463Y-89161226D02*
X127267298Y-89166030D01*
X127281886Y-89173827D01*
X127294676Y-89184324D01*
X127305173Y-89197114D01*
X127312970Y-89211702D01*
X127317774Y-89227537D01*
X127320000Y-89250140D01*
X127320000Y-89657860D01*
X127317774Y-89680463D01*
X127312970Y-89696298D01*
X127305173Y-89710886D01*
X127294676Y-89723676D01*
X127281886Y-89734173D01*
X127267298Y-89741970D01*
X127251463Y-89746774D01*
X127228860Y-89749000D01*
X126771140Y-89749000D01*
X126748537Y-89746774D01*
X126732702Y-89741970D01*
X126718114Y-89734173D01*
X126705324Y-89723676D01*
X126694827Y-89710886D01*
X126687030Y-89696298D01*
X126682226Y-89680463D01*
X126680000Y-89657860D01*
X126680000Y-89250140D01*
X126682226Y-89227537D01*
X126687030Y-89211702D01*
X126694827Y-89197114D01*
X126705324Y-89184324D01*
X126718114Y-89173827D01*
X126732702Y-89166030D01*
X126748537Y-89161226D01*
X126771140Y-89159000D01*
X127228860Y-89159000D01*
X127251463Y-89161226D01*
X127251463Y-89161226D01*
G37*
G36*
X107241463Y-88582226D02*
X107257298Y-88587030D01*
X107271886Y-88594827D01*
X107284676Y-88605324D01*
X107295173Y-88618114D01*
X107302970Y-88632702D01*
X107307774Y-88648537D01*
X107310000Y-88671140D01*
X107310000Y-89128860D01*
X107307774Y-89151463D01*
X107302970Y-89167298D01*
X107295173Y-89181886D01*
X107284676Y-89194676D01*
X107271886Y-89205173D01*
X107257298Y-89212970D01*
X107241463Y-89217774D01*
X107218860Y-89220000D01*
X106811140Y-89220000D01*
X106788537Y-89217774D01*
X106772702Y-89212970D01*
X106758114Y-89205173D01*
X106745324Y-89194676D01*
X106734827Y-89181886D01*
X106727030Y-89167298D01*
X106722226Y-89151463D01*
X106720000Y-89128860D01*
X106720000Y-88671140D01*
X106722226Y-88648537D01*
X106727030Y-88632702D01*
X106734827Y-88618114D01*
X106745324Y-88605324D01*
X106758114Y-88594827D01*
X106772702Y-88587030D01*
X106788537Y-88582226D01*
X106811140Y-88580000D01*
X107218860Y-88580000D01*
X107241463Y-88582226D01*
X107241463Y-88582226D01*
G37*
G36*
X108211463Y-88582226D02*
X108227298Y-88587030D01*
X108241886Y-88594827D01*
X108254676Y-88605324D01*
X108265173Y-88618114D01*
X108272970Y-88632702D01*
X108277774Y-88648537D01*
X108280000Y-88671140D01*
X108280000Y-89128860D01*
X108277774Y-89151463D01*
X108272970Y-89167298D01*
X108265173Y-89181886D01*
X108254676Y-89194676D01*
X108241886Y-89205173D01*
X108227298Y-89212970D01*
X108211463Y-89217774D01*
X108188860Y-89220000D01*
X107781140Y-89220000D01*
X107758537Y-89217774D01*
X107742702Y-89212970D01*
X107728114Y-89205173D01*
X107715324Y-89194676D01*
X107704827Y-89181886D01*
X107697030Y-89167298D01*
X107692226Y-89151463D01*
X107690000Y-89128860D01*
X107690000Y-88671140D01*
X107692226Y-88648537D01*
X107697030Y-88632702D01*
X107704827Y-88618114D01*
X107715324Y-88605324D01*
X107728114Y-88594827D01*
X107742702Y-88587030D01*
X107758537Y-88582226D01*
X107781140Y-88580000D01*
X108188860Y-88580000D01*
X108211463Y-88582226D01*
X108211463Y-88582226D01*
G37*
G36*
X162000000Y-88880000D02*
X158850000Y-88880000D01*
X158850000Y-87880000D01*
X162000000Y-87880000D01*
X162000000Y-88880000D01*
X162000000Y-88880000D01*
G37*
G36*
X156950000Y-88880000D02*
X153800000Y-88880000D01*
X153800000Y-87880000D01*
X156950000Y-87880000D01*
X156950000Y-88880000D01*
X156950000Y-88880000D01*
G37*
G36*
X142924000Y-88820000D02*
X139524000Y-88820000D01*
X139524000Y-87520000D01*
X142924000Y-87520000D01*
X142924000Y-88820000D01*
X142924000Y-88820000D01*
G37*
G36*
X127081000Y-88566000D02*
X121331000Y-88566000D01*
X121331000Y-87266000D01*
X127081000Y-87266000D01*
X127081000Y-88566000D01*
X127081000Y-88566000D01*
G37*
G36*
X115751463Y-87592226D02*
X115767298Y-87597030D01*
X115781886Y-87604827D01*
X115794676Y-87615324D01*
X115805173Y-87628114D01*
X115812970Y-87642702D01*
X115817774Y-87658537D01*
X115820000Y-87681140D01*
X115820000Y-88088860D01*
X115817774Y-88111463D01*
X115812970Y-88127298D01*
X115805173Y-88141886D01*
X115794676Y-88154676D01*
X115781886Y-88165173D01*
X115767298Y-88172970D01*
X115751463Y-88177774D01*
X115728860Y-88180000D01*
X115271140Y-88180000D01*
X115248537Y-88177774D01*
X115232702Y-88172970D01*
X115218114Y-88165173D01*
X115205324Y-88154676D01*
X115194827Y-88141886D01*
X115187030Y-88127298D01*
X115182226Y-88111463D01*
X115180000Y-88088860D01*
X115180000Y-87681140D01*
X115182226Y-87658537D01*
X115187030Y-87642702D01*
X115194827Y-87628114D01*
X115205324Y-87615324D01*
X115218114Y-87604827D01*
X115232702Y-87597030D01*
X115248537Y-87592226D01*
X115271140Y-87590000D01*
X115728860Y-87590000D01*
X115751463Y-87592226D01*
X115751463Y-87592226D01*
G37*
G36*
X104193115Y-86381873D02*
X104245680Y-86397818D01*
X104282657Y-86409035D01*
X104365168Y-86453138D01*
X104365169Y-86453139D01*
X104365173Y-86453141D01*
X104437501Y-86512499D01*
X104437502Y-86512501D01*
X104437504Y-86512502D01*
X104496860Y-86584827D01*
X104540965Y-86667342D01*
X104542591Y-86672702D01*
X104568127Y-86756884D01*
X104571564Y-86791776D01*
X104575000Y-86826667D01*
X104575000Y-87173332D01*
X104568127Y-87243115D01*
X104540965Y-87332658D01*
X104496860Y-87415173D01*
X104437501Y-87487501D01*
X104365173Y-87546860D01*
X104282658Y-87590965D01*
X104262664Y-87597030D01*
X104193116Y-87618127D01*
X104100000Y-87627298D01*
X104006885Y-87618127D01*
X103937337Y-87597030D01*
X103917343Y-87590965D01*
X103834828Y-87546860D01*
X103762500Y-87487501D01*
X103703142Y-87415174D01*
X103659034Y-87332655D01*
X103631873Y-87243115D01*
X103625000Y-87173333D01*
X103625000Y-86826668D01*
X103631873Y-86756886D01*
X103631874Y-86756884D01*
X103653511Y-86685553D01*
X103659035Y-86667343D01*
X103703138Y-86584832D01*
X103703139Y-86584831D01*
X103703141Y-86584827D01*
X103762499Y-86512499D01*
X103762501Y-86512498D01*
X103762502Y-86512496D01*
X103834827Y-86453140D01*
X103917342Y-86409035D01*
X103954319Y-86397818D01*
X104006884Y-86381873D01*
X104100000Y-86372702D01*
X104193115Y-86381873D01*
X104193115Y-86381873D01*
G37*
G36*
X115751463Y-86622226D02*
X115767298Y-86627030D01*
X115781886Y-86634827D01*
X115794676Y-86645324D01*
X115805173Y-86658114D01*
X115812970Y-86672702D01*
X115817774Y-86688537D01*
X115820000Y-86711140D01*
X115820000Y-87118860D01*
X115817774Y-87141463D01*
X115812970Y-87157298D01*
X115805173Y-87171886D01*
X115794676Y-87184676D01*
X115781886Y-87195173D01*
X115767298Y-87202970D01*
X115751463Y-87207774D01*
X115728860Y-87210000D01*
X115271140Y-87210000D01*
X115248537Y-87207774D01*
X115232702Y-87202970D01*
X115218114Y-87195173D01*
X115205324Y-87184676D01*
X115194827Y-87171886D01*
X115187030Y-87157298D01*
X115182226Y-87141463D01*
X115180000Y-87118860D01*
X115180000Y-86711140D01*
X115182226Y-86688537D01*
X115187030Y-86672702D01*
X115194827Y-86658114D01*
X115205324Y-86645324D01*
X115218114Y-86634827D01*
X115232702Y-86627030D01*
X115248537Y-86622226D01*
X115271140Y-86620000D01*
X115728860Y-86620000D01*
X115751463Y-86622226D01*
X115751463Y-86622226D01*
G37*
G36*
X101773015Y-85507234D02*
X101867268Y-85535825D01*
X101913697Y-85560643D01*
X101954129Y-85582254D01*
X101954131Y-85582255D01*
X101954130Y-85582255D01*
X102030264Y-85644736D01*
X102092745Y-85720870D01*
X102139175Y-85807732D01*
X102167766Y-85901985D01*
X102177419Y-86000000D01*
X102167766Y-86098015D01*
X102139175Y-86192268D01*
X102114357Y-86238697D01*
X102092746Y-86279129D01*
X102030264Y-86355264D01*
X101954129Y-86417746D01*
X101913697Y-86439357D01*
X101867268Y-86464175D01*
X101773015Y-86492766D01*
X101699564Y-86500000D01*
X101100436Y-86500000D01*
X101026985Y-86492766D01*
X100932732Y-86464175D01*
X100886303Y-86439357D01*
X100845871Y-86417746D01*
X100769736Y-86355264D01*
X100707254Y-86279129D01*
X100685643Y-86238697D01*
X100660825Y-86192268D01*
X100632234Y-86098015D01*
X100622581Y-86000000D01*
X100632234Y-85901985D01*
X100660825Y-85807732D01*
X100707255Y-85720870D01*
X100769736Y-85644736D01*
X100845870Y-85582255D01*
X100845869Y-85582255D01*
X100845871Y-85582254D01*
X100886303Y-85560643D01*
X100932732Y-85535825D01*
X101026985Y-85507234D01*
X101100436Y-85500000D01*
X101699564Y-85500000D01*
X101773015Y-85507234D01*
X101773015Y-85507234D01*
G37*
G36*
X129206000Y-86441000D02*
X127906000Y-86441000D01*
X127906000Y-80691000D01*
X129206000Y-80691000D01*
X129206000Y-86441000D01*
X129206000Y-86441000D01*
G37*
G36*
X120506000Y-86441000D02*
X119206000Y-86441000D01*
X119206000Y-80691000D01*
X120506000Y-80691000D01*
X120506000Y-86441000D01*
X120506000Y-86441000D01*
G37*
G36*
X162000000Y-86340000D02*
X158850000Y-86340000D01*
X158850000Y-85340000D01*
X162000000Y-85340000D01*
X162000000Y-86340000D01*
X162000000Y-86340000D01*
G37*
G36*
X156950000Y-86340000D02*
X153800000Y-86340000D01*
X153800000Y-85340000D01*
X156950000Y-85340000D01*
X156950000Y-86340000D01*
X156950000Y-86340000D01*
G37*
G36*
X118336463Y-84518226D02*
X118352298Y-84523030D01*
X118366886Y-84530827D01*
X118379676Y-84541324D01*
X118390173Y-84554114D01*
X118397970Y-84568702D01*
X118402774Y-84584537D01*
X118405000Y-84607140D01*
X118405000Y-85064860D01*
X118402774Y-85087463D01*
X118397970Y-85103298D01*
X118390173Y-85117886D01*
X118379676Y-85130676D01*
X118366886Y-85141173D01*
X118352298Y-85148970D01*
X118336463Y-85153774D01*
X118313860Y-85156000D01*
X117906140Y-85156000D01*
X117883537Y-85153774D01*
X117867702Y-85148970D01*
X117853114Y-85141173D01*
X117840324Y-85130676D01*
X117829827Y-85117886D01*
X117822030Y-85103298D01*
X117817226Y-85087463D01*
X117815000Y-85064860D01*
X117815000Y-84607140D01*
X117817226Y-84584537D01*
X117822030Y-84568702D01*
X117829827Y-84554114D01*
X117840324Y-84541324D01*
X117853114Y-84530827D01*
X117867702Y-84523030D01*
X117883537Y-84518226D01*
X117906140Y-84516000D01*
X118313860Y-84516000D01*
X118336463Y-84518226D01*
X118336463Y-84518226D01*
G37*
G36*
X117366463Y-84518226D02*
X117382298Y-84523030D01*
X117396886Y-84530827D01*
X117409676Y-84541324D01*
X117420173Y-84554114D01*
X117427970Y-84568702D01*
X117432774Y-84584537D01*
X117435000Y-84607140D01*
X117435000Y-85064860D01*
X117432774Y-85087463D01*
X117427970Y-85103298D01*
X117420173Y-85117886D01*
X117409676Y-85130676D01*
X117396886Y-85141173D01*
X117382298Y-85148970D01*
X117366463Y-85153774D01*
X117343860Y-85156000D01*
X116936140Y-85156000D01*
X116913537Y-85153774D01*
X116897702Y-85148970D01*
X116883114Y-85141173D01*
X116870324Y-85130676D01*
X116859827Y-85117886D01*
X116852030Y-85103298D01*
X116847226Y-85087463D01*
X116845000Y-85064860D01*
X116845000Y-84607140D01*
X116847226Y-84584537D01*
X116852030Y-84568702D01*
X116859827Y-84554114D01*
X116870324Y-84541324D01*
X116883114Y-84530827D01*
X116897702Y-84523030D01*
X116913537Y-84518226D01*
X116936140Y-84516000D01*
X117343860Y-84516000D01*
X117366463Y-84518226D01*
X117366463Y-84518226D01*
G37*
G36*
X104541463Y-83582226D02*
X104557298Y-83587030D01*
X104571886Y-83594827D01*
X104584676Y-83605324D01*
X104595173Y-83618114D01*
X104602970Y-83632702D01*
X104607774Y-83648537D01*
X104610000Y-83671140D01*
X104610000Y-84128860D01*
X104607774Y-84151463D01*
X104602970Y-84167298D01*
X104595173Y-84181886D01*
X104584676Y-84194676D01*
X104571886Y-84205173D01*
X104557298Y-84212970D01*
X104541463Y-84217774D01*
X104518860Y-84220000D01*
X104111140Y-84220000D01*
X104088537Y-84217774D01*
X104072702Y-84212970D01*
X104058114Y-84205173D01*
X104045324Y-84194676D01*
X104034827Y-84181886D01*
X104027030Y-84167298D01*
X104022226Y-84151463D01*
X104020000Y-84128860D01*
X104020000Y-83671140D01*
X104022226Y-83648537D01*
X104027030Y-83632702D01*
X104034827Y-83618114D01*
X104045324Y-83605324D01*
X104058114Y-83594827D01*
X104072702Y-83587030D01*
X104088537Y-83582226D01*
X104111140Y-83580000D01*
X104518860Y-83580000D01*
X104541463Y-83582226D01*
X104541463Y-83582226D01*
G37*
G36*
X105511463Y-83582226D02*
X105527298Y-83587030D01*
X105541886Y-83594827D01*
X105554676Y-83605324D01*
X105565173Y-83618114D01*
X105572970Y-83632702D01*
X105577774Y-83648537D01*
X105580000Y-83671140D01*
X105580000Y-84128860D01*
X105577774Y-84151463D01*
X105572970Y-84167298D01*
X105565173Y-84181886D01*
X105554676Y-84194676D01*
X105541886Y-84205173D01*
X105527298Y-84212970D01*
X105511463Y-84217774D01*
X105488860Y-84220000D01*
X105081140Y-84220000D01*
X105058537Y-84217774D01*
X105042702Y-84212970D01*
X105028114Y-84205173D01*
X105015324Y-84194676D01*
X105004827Y-84181886D01*
X104997030Y-84167298D01*
X104992226Y-84151463D01*
X104990000Y-84128860D01*
X104990000Y-83671140D01*
X104992226Y-83648537D01*
X104997030Y-83632702D01*
X105004827Y-83618114D01*
X105015324Y-83605324D01*
X105028114Y-83594827D01*
X105042702Y-83587030D01*
X105058537Y-83582226D01*
X105081140Y-83580000D01*
X105488860Y-83580000D01*
X105511463Y-83582226D01*
X105511463Y-83582226D01*
G37*
G36*
X156950000Y-83800000D02*
X153800000Y-83800000D01*
X153800000Y-82800000D01*
X156950000Y-82800000D01*
X156950000Y-83800000D01*
X156950000Y-83800000D01*
G37*
G36*
X162000000Y-83800000D02*
X158850000Y-83800000D01*
X158850000Y-82800000D01*
X162000000Y-82800000D01*
X162000000Y-83800000D01*
X162000000Y-83800000D01*
G37*
G36*
X104530000Y-82475000D02*
X103470000Y-82475000D01*
X103470000Y-81825000D01*
X104530000Y-81825000D01*
X104530000Y-82475000D01*
X104530000Y-82475000D01*
G37*
G36*
X106730000Y-82475000D02*
X105670000Y-82475000D01*
X105670000Y-81825000D01*
X106730000Y-81825000D01*
X106730000Y-82475000D01*
X106730000Y-82475000D01*
G37*
G36*
X112600000Y-81700000D02*
X110600000Y-81700000D01*
X110600000Y-77200000D01*
X112600000Y-77200000D01*
X112600000Y-81700000D01*
X112600000Y-81700000D01*
G37*
G36*
X104530000Y-81525000D02*
X103470000Y-81525000D01*
X103470000Y-80875000D01*
X104530000Y-80875000D01*
X104530000Y-81525000D01*
X104530000Y-81525000D01*
G37*
G36*
X108051463Y-80877226D02*
X108067298Y-80882030D01*
X108081886Y-80889827D01*
X108094676Y-80900324D01*
X108105173Y-80913114D01*
X108112970Y-80927702D01*
X108117774Y-80943537D01*
X108120000Y-80966140D01*
X108120000Y-81373860D01*
X108117774Y-81396463D01*
X108112970Y-81412298D01*
X108105173Y-81426886D01*
X108094676Y-81439676D01*
X108081886Y-81450173D01*
X108067298Y-81457970D01*
X108051463Y-81462774D01*
X108028860Y-81465000D01*
X107571140Y-81465000D01*
X107548537Y-81462774D01*
X107532702Y-81457970D01*
X107518114Y-81450173D01*
X107505324Y-81439676D01*
X107494827Y-81426886D01*
X107487030Y-81412298D01*
X107482226Y-81396463D01*
X107480000Y-81373860D01*
X107480000Y-80966140D01*
X107482226Y-80943537D01*
X107487030Y-80927702D01*
X107494827Y-80913114D01*
X107505324Y-80900324D01*
X107518114Y-80889827D01*
X107532702Y-80882030D01*
X107548537Y-80877226D01*
X107571140Y-80875000D01*
X108028860Y-80875000D01*
X108051463Y-80877226D01*
X108051463Y-80877226D01*
G37*
G36*
X162000000Y-81260000D02*
X158850000Y-81260000D01*
X158850000Y-80260000D01*
X162000000Y-80260000D01*
X162000000Y-81260000D01*
X162000000Y-81260000D01*
G37*
G36*
X156950000Y-81260000D02*
X153800000Y-81260000D01*
X153800000Y-80260000D01*
X156950000Y-80260000D01*
X156950000Y-81260000D01*
X156950000Y-81260000D01*
G37*
G36*
X115751463Y-80577226D02*
X115767298Y-80582030D01*
X115781886Y-80589827D01*
X115794676Y-80600324D01*
X115805173Y-80613114D01*
X115812970Y-80627702D01*
X115817774Y-80643537D01*
X115820000Y-80666140D01*
X115820000Y-81073860D01*
X115817774Y-81096463D01*
X115812970Y-81112298D01*
X115805173Y-81126886D01*
X115794676Y-81139676D01*
X115781886Y-81150173D01*
X115767298Y-81157970D01*
X115751463Y-81162774D01*
X115728860Y-81165000D01*
X115271140Y-81165000D01*
X115248537Y-81162774D01*
X115232702Y-81157970D01*
X115218114Y-81150173D01*
X115205324Y-81139676D01*
X115194827Y-81126886D01*
X115187030Y-81112298D01*
X115182226Y-81096463D01*
X115180000Y-81073860D01*
X115180000Y-80666140D01*
X115182226Y-80643537D01*
X115187030Y-80627702D01*
X115194827Y-80613114D01*
X115205324Y-80600324D01*
X115218114Y-80589827D01*
X115232702Y-80582030D01*
X115248537Y-80577226D01*
X115271140Y-80575000D01*
X115728860Y-80575000D01*
X115751463Y-80577226D01*
X115751463Y-80577226D01*
G37*
G36*
X117320463Y-80454226D02*
X117336298Y-80459030D01*
X117350886Y-80466827D01*
X117363676Y-80477324D01*
X117374173Y-80490114D01*
X117381970Y-80504702D01*
X117386774Y-80520537D01*
X117389000Y-80543140D01*
X117389000Y-81000860D01*
X117386774Y-81023463D01*
X117381970Y-81039298D01*
X117374173Y-81053886D01*
X117363676Y-81066676D01*
X117350886Y-81077173D01*
X117336298Y-81084970D01*
X117320463Y-81089774D01*
X117297860Y-81092000D01*
X116890140Y-81092000D01*
X116867537Y-81089774D01*
X116851702Y-81084970D01*
X116837114Y-81077173D01*
X116824324Y-81066676D01*
X116813827Y-81053886D01*
X116806030Y-81039298D01*
X116801226Y-81023463D01*
X116799000Y-81000860D01*
X116799000Y-80543140D01*
X116801226Y-80520537D01*
X116806030Y-80504702D01*
X116813827Y-80490114D01*
X116824324Y-80477324D01*
X116837114Y-80466827D01*
X116851702Y-80459030D01*
X116867537Y-80454226D01*
X116890140Y-80452000D01*
X117297860Y-80452000D01*
X117320463Y-80454226D01*
X117320463Y-80454226D01*
G37*
G36*
X118290463Y-80454226D02*
X118306298Y-80459030D01*
X118320886Y-80466827D01*
X118333676Y-80477324D01*
X118344173Y-80490114D01*
X118351970Y-80504702D01*
X118356774Y-80520537D01*
X118359000Y-80543140D01*
X118359000Y-81000860D01*
X118356774Y-81023463D01*
X118351970Y-81039298D01*
X118344173Y-81053886D01*
X118333676Y-81066676D01*
X118320886Y-81077173D01*
X118306298Y-81084970D01*
X118290463Y-81089774D01*
X118267860Y-81092000D01*
X117860140Y-81092000D01*
X117837537Y-81089774D01*
X117821702Y-81084970D01*
X117807114Y-81077173D01*
X117794324Y-81066676D01*
X117783827Y-81053886D01*
X117776030Y-81039298D01*
X117771226Y-81023463D01*
X117769000Y-81000860D01*
X117769000Y-80543140D01*
X117771226Y-80520537D01*
X117776030Y-80504702D01*
X117783827Y-80490114D01*
X117794324Y-80477324D01*
X117807114Y-80466827D01*
X117821702Y-80459030D01*
X117837537Y-80454226D01*
X117860140Y-80452000D01*
X118267860Y-80452000D01*
X118290463Y-80454226D01*
X118290463Y-80454226D01*
G37*
G36*
X130528463Y-80454226D02*
X130544298Y-80459030D01*
X130558886Y-80466827D01*
X130571676Y-80477324D01*
X130582173Y-80490114D01*
X130589970Y-80504702D01*
X130594774Y-80520537D01*
X130597000Y-80543140D01*
X130597000Y-81000860D01*
X130594774Y-81023463D01*
X130589970Y-81039298D01*
X130582173Y-81053886D01*
X130571676Y-81066676D01*
X130558886Y-81077173D01*
X130544298Y-81084970D01*
X130528463Y-81089774D01*
X130505860Y-81092000D01*
X130098140Y-81092000D01*
X130075537Y-81089774D01*
X130059702Y-81084970D01*
X130045114Y-81077173D01*
X130032324Y-81066676D01*
X130021827Y-81053886D01*
X130014030Y-81039298D01*
X130009226Y-81023463D01*
X130007000Y-81000860D01*
X130007000Y-80543140D01*
X130009226Y-80520537D01*
X130014030Y-80504702D01*
X130021827Y-80490114D01*
X130032324Y-80477324D01*
X130045114Y-80466827D01*
X130059702Y-80459030D01*
X130075537Y-80454226D01*
X130098140Y-80452000D01*
X130505860Y-80452000D01*
X130528463Y-80454226D01*
X130528463Y-80454226D01*
G37*
G36*
X131498463Y-80454226D02*
X131514298Y-80459030D01*
X131528886Y-80466827D01*
X131541676Y-80477324D01*
X131552173Y-80490114D01*
X131559970Y-80504702D01*
X131564774Y-80520537D01*
X131567000Y-80543140D01*
X131567000Y-81000860D01*
X131564774Y-81023463D01*
X131559970Y-81039298D01*
X131552173Y-81053886D01*
X131541676Y-81066676D01*
X131528886Y-81077173D01*
X131514298Y-81084970D01*
X131498463Y-81089774D01*
X131475860Y-81092000D01*
X131068140Y-81092000D01*
X131045537Y-81089774D01*
X131029702Y-81084970D01*
X131015114Y-81077173D01*
X131002324Y-81066676D01*
X130991827Y-81053886D01*
X130984030Y-81039298D01*
X130979226Y-81023463D01*
X130977000Y-81000860D01*
X130977000Y-80543140D01*
X130979226Y-80520537D01*
X130984030Y-80504702D01*
X130991827Y-80490114D01*
X131002324Y-80477324D01*
X131015114Y-80466827D01*
X131029702Y-80459030D01*
X131045537Y-80454226D01*
X131068140Y-80452000D01*
X131475860Y-80452000D01*
X131498463Y-80454226D01*
X131498463Y-80454226D01*
G37*
G36*
X104530000Y-80575000D02*
X103470000Y-80575000D01*
X103470000Y-79925000D01*
X104530000Y-79925000D01*
X104530000Y-80575000D01*
X104530000Y-80575000D01*
G37*
G36*
X106730000Y-80575000D02*
X105670000Y-80575000D01*
X105670000Y-79925000D01*
X106730000Y-79925000D01*
X106730000Y-80575000D01*
X106730000Y-80575000D01*
G37*
G36*
X108051463Y-79907226D02*
X108067298Y-79912030D01*
X108081886Y-79919827D01*
X108094676Y-79930324D01*
X108105173Y-79943114D01*
X108112970Y-79957702D01*
X108117774Y-79973537D01*
X108120000Y-79996140D01*
X108120000Y-80403860D01*
X108117774Y-80426463D01*
X108112970Y-80442298D01*
X108105173Y-80456886D01*
X108094676Y-80469676D01*
X108081886Y-80480173D01*
X108067298Y-80487970D01*
X108051463Y-80492774D01*
X108028860Y-80495000D01*
X107571140Y-80495000D01*
X107548537Y-80492774D01*
X107532702Y-80487970D01*
X107518114Y-80480173D01*
X107505324Y-80469676D01*
X107494827Y-80456886D01*
X107487030Y-80442298D01*
X107482226Y-80426463D01*
X107480000Y-80403860D01*
X107480000Y-79996140D01*
X107482226Y-79973537D01*
X107487030Y-79957702D01*
X107494827Y-79943114D01*
X107505324Y-79930324D01*
X107518114Y-79919827D01*
X107532702Y-79912030D01*
X107548537Y-79907226D01*
X107571140Y-79905000D01*
X108028860Y-79905000D01*
X108051463Y-79907226D01*
X108051463Y-79907226D01*
G37*
G36*
X115751463Y-79607226D02*
X115767298Y-79612030D01*
X115781886Y-79619827D01*
X115794676Y-79630324D01*
X115805173Y-79643114D01*
X115812970Y-79657702D01*
X115817774Y-79673537D01*
X115820000Y-79696140D01*
X115820000Y-80103860D01*
X115817774Y-80126463D01*
X115812970Y-80142298D01*
X115805173Y-80156886D01*
X115794676Y-80169676D01*
X115781886Y-80180173D01*
X115767298Y-80187970D01*
X115751463Y-80192774D01*
X115728860Y-80195000D01*
X115271140Y-80195000D01*
X115248537Y-80192774D01*
X115232702Y-80187970D01*
X115218114Y-80180173D01*
X115205324Y-80169676D01*
X115194827Y-80156886D01*
X115187030Y-80142298D01*
X115182226Y-80126463D01*
X115180000Y-80103860D01*
X115180000Y-79696140D01*
X115182226Y-79673537D01*
X115187030Y-79657702D01*
X115194827Y-79643114D01*
X115205324Y-79630324D01*
X115218114Y-79619827D01*
X115232702Y-79612030D01*
X115248537Y-79607226D01*
X115271140Y-79605000D01*
X115728860Y-79605000D01*
X115751463Y-79607226D01*
X115751463Y-79607226D01*
G37*
G36*
X142924000Y-80120000D02*
X139524000Y-80120000D01*
X139524000Y-78820000D01*
X142924000Y-78820000D01*
X142924000Y-80120000D01*
X142924000Y-80120000D01*
G37*
G36*
X127081000Y-79866000D02*
X121331000Y-79866000D01*
X121331000Y-78566000D01*
X127081000Y-78566000D01*
X127081000Y-79866000D01*
X127081000Y-79866000D01*
G37*
G36*
X162000000Y-78720000D02*
X158850000Y-78720000D01*
X158850000Y-77720000D01*
X162000000Y-77720000D01*
X162000000Y-78720000D01*
X162000000Y-78720000D01*
G37*
G36*
X156950000Y-78720000D02*
X153800000Y-78720000D01*
X153800000Y-77720000D01*
X156950000Y-77720000D01*
X156950000Y-78720000D01*
X156950000Y-78720000D01*
G37*
G36*
X122851463Y-77107226D02*
X122867298Y-77112030D01*
X122881886Y-77119827D01*
X122894676Y-77130324D01*
X122905173Y-77143114D01*
X122912970Y-77157702D01*
X122917774Y-77173537D01*
X122920000Y-77196140D01*
X122920000Y-77603860D01*
X122917774Y-77626463D01*
X122912970Y-77642298D01*
X122905173Y-77656886D01*
X122894676Y-77669676D01*
X122881886Y-77680173D01*
X122867298Y-77687970D01*
X122851463Y-77692774D01*
X122828860Y-77695000D01*
X122371140Y-77695000D01*
X122348537Y-77692774D01*
X122332702Y-77687970D01*
X122318114Y-77680173D01*
X122305324Y-77669676D01*
X122294827Y-77656886D01*
X122287030Y-77642298D01*
X122282226Y-77626463D01*
X122280000Y-77603860D01*
X122280000Y-77196140D01*
X122282226Y-77173537D01*
X122287030Y-77157702D01*
X122294827Y-77143114D01*
X122305324Y-77130324D01*
X122318114Y-77119827D01*
X122332702Y-77112030D01*
X122348537Y-77107226D01*
X122371140Y-77105000D01*
X122828860Y-77105000D01*
X122851463Y-77107226D01*
X122851463Y-77107226D01*
G37*
G36*
X121751463Y-77107226D02*
X121767298Y-77112030D01*
X121781886Y-77119827D01*
X121794676Y-77130324D01*
X121805173Y-77143114D01*
X121812970Y-77157702D01*
X121817774Y-77173537D01*
X121820000Y-77196140D01*
X121820000Y-77603860D01*
X121817774Y-77626463D01*
X121812970Y-77642298D01*
X121805173Y-77656886D01*
X121794676Y-77669676D01*
X121781886Y-77680173D01*
X121767298Y-77687970D01*
X121751463Y-77692774D01*
X121728860Y-77695000D01*
X121271140Y-77695000D01*
X121248537Y-77692774D01*
X121232702Y-77687970D01*
X121218114Y-77680173D01*
X121205324Y-77669676D01*
X121194827Y-77656886D01*
X121187030Y-77642298D01*
X121182226Y-77626463D01*
X121180000Y-77603860D01*
X121180000Y-77196140D01*
X121182226Y-77173537D01*
X121187030Y-77157702D01*
X121194827Y-77143114D01*
X121205324Y-77130324D01*
X121218114Y-77119827D01*
X121232702Y-77112030D01*
X121248537Y-77107226D01*
X121271140Y-77105000D01*
X121728860Y-77105000D01*
X121751463Y-77107226D01*
X121751463Y-77107226D01*
G37*
G36*
X119050000Y-77650000D02*
X118450000Y-77650000D01*
X118450000Y-77250000D01*
X119050000Y-77250000D01*
X119050000Y-77650000D01*
X119050000Y-77650000D01*
G37*
G36*
X119050000Y-76750000D02*
X118450000Y-76750000D01*
X118450000Y-76350000D01*
X119050000Y-76350000D01*
X119050000Y-76750000D01*
X119050000Y-76750000D01*
G37*
G36*
X121751463Y-76137226D02*
X121767298Y-76142030D01*
X121781886Y-76149827D01*
X121794676Y-76160324D01*
X121805173Y-76173114D01*
X121812970Y-76187702D01*
X121817774Y-76203537D01*
X121820000Y-76226140D01*
X121820000Y-76633860D01*
X121817774Y-76656463D01*
X121812970Y-76672298D01*
X121805173Y-76686886D01*
X121794676Y-76699676D01*
X121781886Y-76710173D01*
X121767298Y-76717970D01*
X121751463Y-76722774D01*
X121728860Y-76725000D01*
X121271140Y-76725000D01*
X121248537Y-76722774D01*
X121232702Y-76717970D01*
X121218114Y-76710173D01*
X121205324Y-76699676D01*
X121194827Y-76686886D01*
X121187030Y-76672298D01*
X121182226Y-76656463D01*
X121180000Y-76633860D01*
X121180000Y-76226140D01*
X121182226Y-76203537D01*
X121187030Y-76187702D01*
X121194827Y-76173114D01*
X121205324Y-76160324D01*
X121218114Y-76149827D01*
X121232702Y-76142030D01*
X121248537Y-76137226D01*
X121271140Y-76135000D01*
X121728860Y-76135000D01*
X121751463Y-76137226D01*
X121751463Y-76137226D01*
G37*
G36*
X122851463Y-76137226D02*
X122867298Y-76142030D01*
X122881886Y-76149827D01*
X122894676Y-76160324D01*
X122905173Y-76173114D01*
X122912970Y-76187702D01*
X122917774Y-76203537D01*
X122920000Y-76226140D01*
X122920000Y-76633860D01*
X122917774Y-76656463D01*
X122912970Y-76672298D01*
X122905173Y-76686886D01*
X122894676Y-76699676D01*
X122881886Y-76710173D01*
X122867298Y-76717970D01*
X122851463Y-76722774D01*
X122828860Y-76725000D01*
X122371140Y-76725000D01*
X122348537Y-76722774D01*
X122332702Y-76717970D01*
X122318114Y-76710173D01*
X122305324Y-76699676D01*
X122294827Y-76686886D01*
X122287030Y-76672298D01*
X122282226Y-76656463D01*
X122280000Y-76633860D01*
X122280000Y-76226140D01*
X122282226Y-76203537D01*
X122287030Y-76187702D01*
X122294827Y-76173114D01*
X122305324Y-76160324D01*
X122318114Y-76149827D01*
X122332702Y-76142030D01*
X122348537Y-76137226D01*
X122371140Y-76135000D01*
X122828860Y-76135000D01*
X122851463Y-76137226D01*
X122851463Y-76137226D01*
G37*
G36*
X119050000Y-74650000D02*
X118450000Y-74650000D01*
X118450000Y-74250000D01*
X119050000Y-74250000D01*
X119050000Y-74650000D01*
X119050000Y-74650000D01*
G37*
G36*
X116550000Y-74650000D02*
X115950000Y-74650000D01*
X115950000Y-74250000D01*
X116550000Y-74250000D01*
X116550000Y-74650000D01*
X116550000Y-74650000D01*
G37*
G36*
X114050000Y-74650000D02*
X113450000Y-74650000D01*
X113450000Y-74250000D01*
X114050000Y-74250000D01*
X114050000Y-74650000D01*
X114050000Y-74650000D01*
G37*
G36*
X124050000Y-74650000D02*
X123450000Y-74650000D01*
X123450000Y-74250000D01*
X124050000Y-74250000D01*
X124050000Y-74650000D01*
X124050000Y-74650000D01*
G37*
G36*
X111550000Y-74650000D02*
X110950000Y-74650000D01*
X110950000Y-74250000D01*
X111550000Y-74250000D01*
X111550000Y-74650000D01*
X111550000Y-74650000D01*
G37*
G36*
X121550000Y-74650000D02*
X120950000Y-74650000D01*
X120950000Y-74250000D01*
X121550000Y-74250000D01*
X121550000Y-74650000D01*
X121550000Y-74650000D01*
G37*
G36*
X131550000Y-74650000D02*
X130950000Y-74650000D01*
X130950000Y-74250000D01*
X131550000Y-74250000D01*
X131550000Y-74650000D01*
X131550000Y-74650000D01*
G37*
G36*
X126550000Y-74650000D02*
X125950000Y-74650000D01*
X125950000Y-74250000D01*
X126550000Y-74250000D01*
X126550000Y-74650000D01*
X126550000Y-74650000D01*
G37*
G36*
X129050000Y-74650000D02*
X128450000Y-74650000D01*
X128450000Y-74250000D01*
X129050000Y-74250000D01*
X129050000Y-74650000D01*
X129050000Y-74650000D01*
G37*
G36*
X129050000Y-73750000D02*
X128450000Y-73750000D01*
X128450000Y-73350000D01*
X129050000Y-73350000D01*
X129050000Y-73750000D01*
X129050000Y-73750000D01*
G37*
G36*
X111550000Y-73750000D02*
X110950000Y-73750000D01*
X110950000Y-73350000D01*
X111550000Y-73350000D01*
X111550000Y-73750000D01*
X111550000Y-73750000D01*
G37*
G36*
X121550000Y-73750000D02*
X120950000Y-73750000D01*
X120950000Y-73350000D01*
X121550000Y-73350000D01*
X121550000Y-73750000D01*
X121550000Y-73750000D01*
G37*
G36*
X119050000Y-73750000D02*
X118450000Y-73750000D01*
X118450000Y-73350000D01*
X119050000Y-73350000D01*
X119050000Y-73750000D01*
X119050000Y-73750000D01*
G37*
G36*
X126550000Y-73750000D02*
X125950000Y-73750000D01*
X125950000Y-73350000D01*
X126550000Y-73350000D01*
X126550000Y-73750000D01*
X126550000Y-73750000D01*
G37*
G36*
X131550000Y-73750000D02*
X130950000Y-73750000D01*
X130950000Y-73350000D01*
X131550000Y-73350000D01*
X131550000Y-73750000D01*
X131550000Y-73750000D01*
G37*
G36*
X116550000Y-73750000D02*
X115950000Y-73750000D01*
X115950000Y-73350000D01*
X116550000Y-73350000D01*
X116550000Y-73750000D01*
X116550000Y-73750000D01*
G37*
G36*
X114050000Y-73750000D02*
X113450000Y-73750000D01*
X113450000Y-73350000D01*
X114050000Y-73350000D01*
X114050000Y-73750000D01*
X114050000Y-73750000D01*
G37*
G36*
X124050000Y-73750000D02*
X123450000Y-73750000D01*
X123450000Y-73350000D01*
X124050000Y-73350000D01*
X124050000Y-73750000D01*
X124050000Y-73750000D01*
G37*
G36*
X121650000Y-72200000D02*
X120850000Y-72200000D01*
X120850000Y-71400000D01*
X121650000Y-71400000D01*
X121650000Y-72200000D01*
X121650000Y-72200000D01*
G37*
G36*
X114150000Y-72200000D02*
X113350000Y-72200000D01*
X113350000Y-71400000D01*
X114150000Y-71400000D01*
X114150000Y-72200000D01*
X114150000Y-72200000D01*
G37*
G36*
X111650000Y-72200000D02*
X110850000Y-72200000D01*
X110850000Y-71400000D01*
X111650000Y-71400000D01*
X111650000Y-72200000D01*
X111650000Y-72200000D01*
G37*
G36*
X126650000Y-72200000D02*
X125850000Y-72200000D01*
X125850000Y-71400000D01*
X126650000Y-71400000D01*
X126650000Y-72200000D01*
X126650000Y-72200000D01*
G37*
G36*
X124150000Y-72200000D02*
X123350000Y-72200000D01*
X123350000Y-71400000D01*
X124150000Y-71400000D01*
X124150000Y-72200000D01*
X124150000Y-72200000D01*
G37*
G36*
X119150000Y-72200000D02*
X118350000Y-72200000D01*
X118350000Y-71400000D01*
X119150000Y-71400000D01*
X119150000Y-72200000D01*
X119150000Y-72200000D01*
G37*
G36*
X116650000Y-72200000D02*
X115850000Y-72200000D01*
X115850000Y-71400000D01*
X116650000Y-71400000D01*
X116650000Y-72200000D01*
X116650000Y-72200000D01*
G37*
G36*
X154150000Y-72200000D02*
X153350000Y-72200000D01*
X153350000Y-71400000D01*
X154150000Y-71400000D01*
X154150000Y-72200000D01*
X154150000Y-72200000D01*
G37*
G36*
X134150000Y-72200000D02*
X133350000Y-72200000D01*
X133350000Y-71400000D01*
X134150000Y-71400000D01*
X134150000Y-72200000D01*
X134150000Y-72200000D01*
G37*
G36*
X149150000Y-72200000D02*
X148350000Y-72200000D01*
X148350000Y-71400000D01*
X149150000Y-71400000D01*
X149150000Y-72200000D01*
X149150000Y-72200000D01*
G37*
G36*
X151650000Y-72200000D02*
X150850000Y-72200000D01*
X150850000Y-71400000D01*
X151650000Y-71400000D01*
X151650000Y-72200000D01*
X151650000Y-72200000D01*
G37*
G36*
X129150000Y-72200000D02*
X128350000Y-72200000D01*
X128350000Y-71400000D01*
X129150000Y-71400000D01*
X129150000Y-72200000D01*
X129150000Y-72200000D01*
G37*
G36*
X131650000Y-72200000D02*
X130850000Y-72200000D01*
X130850000Y-71400000D01*
X131650000Y-71400000D01*
X131650000Y-72200000D01*
X131650000Y-72200000D01*
G37*
G36*
X141650000Y-72200000D02*
X140850000Y-72200000D01*
X140850000Y-71400000D01*
X141650000Y-71400000D01*
X141650000Y-72200000D01*
X141650000Y-72200000D01*
G37*
G36*
X139150000Y-72200000D02*
X138350000Y-72200000D01*
X138350000Y-71400000D01*
X139150000Y-71400000D01*
X139150000Y-72200000D01*
X139150000Y-72200000D01*
G37*
G36*
X144150000Y-72200000D02*
X143350000Y-72200000D01*
X143350000Y-71400000D01*
X144150000Y-71400000D01*
X144150000Y-72200000D01*
X144150000Y-72200000D01*
G37*
G36*
X146650000Y-72200000D02*
X145850000Y-72200000D01*
X145850000Y-71400000D01*
X146650000Y-71400000D01*
X146650000Y-72200000D01*
X146650000Y-72200000D01*
G37*
G36*
X136650000Y-72200000D02*
X135850000Y-72200000D01*
X135850000Y-71400000D01*
X136650000Y-71400000D01*
X136650000Y-72200000D01*
X136650000Y-72200000D01*
G37*
G36*
X139150000Y-70600000D02*
X138350000Y-70600000D01*
X138350000Y-69800000D01*
X139150000Y-69800000D01*
X139150000Y-70600000D01*
X139150000Y-70600000D01*
G37*
G36*
X141650000Y-70600000D02*
X140850000Y-70600000D01*
X140850000Y-69800000D01*
X141650000Y-69800000D01*
X141650000Y-70600000D01*
X141650000Y-70600000D01*
G37*
G36*
X144150000Y-70600000D02*
X143350000Y-70600000D01*
X143350000Y-69800000D01*
X144150000Y-69800000D01*
X144150000Y-70600000D01*
X144150000Y-70600000D01*
G37*
G36*
X146650000Y-70600000D02*
X145850000Y-70600000D01*
X145850000Y-69800000D01*
X146650000Y-69800000D01*
X146650000Y-70600000D01*
X146650000Y-70600000D01*
G37*
G36*
X149150000Y-70600000D02*
X148350000Y-70600000D01*
X148350000Y-69800000D01*
X149150000Y-69800000D01*
X149150000Y-70600000D01*
X149150000Y-70600000D01*
G37*
G36*
X151650000Y-70600000D02*
X150850000Y-70600000D01*
X150850000Y-69800000D01*
X151650000Y-69800000D01*
X151650000Y-70600000D01*
X151650000Y-70600000D01*
G37*
G36*
X154150000Y-70600000D02*
X153350000Y-70600000D01*
X153350000Y-69800000D01*
X154150000Y-69800000D01*
X154150000Y-70600000D01*
X154150000Y-70600000D01*
G37*
G36*
X111650000Y-70600000D02*
X110850000Y-70600000D01*
X110850000Y-69800000D01*
X111650000Y-69800000D01*
X111650000Y-70600000D01*
X111650000Y-70600000D01*
G37*
G36*
X129150000Y-70600000D02*
X128350000Y-70600000D01*
X128350000Y-69800000D01*
X129150000Y-69800000D01*
X129150000Y-70600000D01*
X129150000Y-70600000D01*
G37*
G36*
X124150000Y-70600000D02*
X123350000Y-70600000D01*
X123350000Y-69800000D01*
X124150000Y-69800000D01*
X124150000Y-70600000D01*
X124150000Y-70600000D01*
G37*
G36*
X126650000Y-70600000D02*
X125850000Y-70600000D01*
X125850000Y-69800000D01*
X126650000Y-69800000D01*
X126650000Y-70600000D01*
X126650000Y-70600000D01*
G37*
G36*
X136650000Y-70600000D02*
X135850000Y-70600000D01*
X135850000Y-69800000D01*
X136650000Y-69800000D01*
X136650000Y-70600000D01*
X136650000Y-70600000D01*
G37*
G36*
X121650000Y-70600000D02*
X120850000Y-70600000D01*
X120850000Y-69800000D01*
X121650000Y-69800000D01*
X121650000Y-70600000D01*
X121650000Y-70600000D01*
G37*
G36*
X119150000Y-70600000D02*
X118350000Y-70600000D01*
X118350000Y-69800000D01*
X119150000Y-69800000D01*
X119150000Y-70600000D01*
X119150000Y-70600000D01*
G37*
G36*
X134150000Y-70600000D02*
X133350000Y-70600000D01*
X133350000Y-69800000D01*
X134150000Y-69800000D01*
X134150000Y-70600000D01*
X134150000Y-70600000D01*
G37*
G36*
X116650000Y-70600000D02*
X115850000Y-70600000D01*
X115850000Y-69800000D01*
X116650000Y-69800000D01*
X116650000Y-70600000D01*
X116650000Y-70600000D01*
G37*
G36*
X114150000Y-70600000D02*
X113350000Y-70600000D01*
X113350000Y-69800000D01*
X114150000Y-69800000D01*
X114150000Y-70600000D01*
X114150000Y-70600000D01*
G37*
G36*
X131650000Y-70600000D02*
X130850000Y-70600000D01*
X130850000Y-69800000D01*
X131650000Y-69800000D01*
X131650000Y-70600000D01*
X131650000Y-70600000D01*
G37*
G36*
X146650000Y-69200000D02*
X145850000Y-69200000D01*
X145850000Y-68400000D01*
X146650000Y-68400000D01*
X146650000Y-69200000D01*
X146650000Y-69200000D01*
G37*
G36*
X144150000Y-69200000D02*
X143350000Y-69200000D01*
X143350000Y-68400000D01*
X144150000Y-68400000D01*
X144150000Y-69200000D01*
X144150000Y-69200000D01*
G37*
G36*
X114150000Y-69200000D02*
X113350000Y-69200000D01*
X113350000Y-68400000D01*
X114150000Y-68400000D01*
X114150000Y-69200000D01*
X114150000Y-69200000D01*
G37*
G36*
X136650000Y-69200000D02*
X135850000Y-69200000D01*
X135850000Y-68400000D01*
X136650000Y-68400000D01*
X136650000Y-69200000D01*
X136650000Y-69200000D01*
G37*
G36*
X141650000Y-69200000D02*
X140850000Y-69200000D01*
X140850000Y-68400000D01*
X141650000Y-68400000D01*
X141650000Y-69200000D01*
X141650000Y-69200000D01*
G37*
G36*
X139150000Y-69200000D02*
X138350000Y-69200000D01*
X138350000Y-68400000D01*
X139150000Y-68400000D01*
X139150000Y-69200000D01*
X139150000Y-69200000D01*
G37*
G36*
X111650000Y-69200000D02*
X110850000Y-69200000D01*
X110850000Y-68400000D01*
X111650000Y-68400000D01*
X111650000Y-69200000D01*
X111650000Y-69200000D01*
G37*
G36*
X131650000Y-69200000D02*
X130850000Y-69200000D01*
X130850000Y-68400000D01*
X131650000Y-68400000D01*
X131650000Y-69200000D01*
X131650000Y-69200000D01*
G37*
G36*
X129150000Y-69200000D02*
X128350000Y-69200000D01*
X128350000Y-68400000D01*
X129150000Y-68400000D01*
X129150000Y-69200000D01*
X129150000Y-69200000D01*
G37*
G36*
X151650000Y-69200000D02*
X150850000Y-69200000D01*
X150850000Y-68400000D01*
X151650000Y-68400000D01*
X151650000Y-69200000D01*
X151650000Y-69200000D01*
G37*
G36*
X149150000Y-69200000D02*
X148350000Y-69200000D01*
X148350000Y-68400000D01*
X149150000Y-68400000D01*
X149150000Y-69200000D01*
X149150000Y-69200000D01*
G37*
G36*
X134150000Y-69200000D02*
X133350000Y-69200000D01*
X133350000Y-68400000D01*
X134150000Y-68400000D01*
X134150000Y-69200000D01*
X134150000Y-69200000D01*
G37*
G36*
X126650000Y-69200000D02*
X125850000Y-69200000D01*
X125850000Y-68400000D01*
X126650000Y-68400000D01*
X126650000Y-69200000D01*
X126650000Y-69200000D01*
G37*
G36*
X124150000Y-69200000D02*
X123350000Y-69200000D01*
X123350000Y-68400000D01*
X124150000Y-68400000D01*
X124150000Y-69200000D01*
X124150000Y-69200000D01*
G37*
G36*
X119150000Y-69200000D02*
X118350000Y-69200000D01*
X118350000Y-68400000D01*
X119150000Y-68400000D01*
X119150000Y-69200000D01*
X119150000Y-69200000D01*
G37*
G36*
X116650000Y-69200000D02*
X115850000Y-69200000D01*
X115850000Y-68400000D01*
X116650000Y-68400000D01*
X116650000Y-69200000D01*
X116650000Y-69200000D01*
G37*
G36*
X121650000Y-69200000D02*
X120850000Y-69200000D01*
X120850000Y-68400000D01*
X121650000Y-68400000D01*
X121650000Y-69200000D01*
X121650000Y-69200000D01*
G37*
G36*
X154150000Y-69200000D02*
X153350000Y-69200000D01*
X153350000Y-68400000D01*
X154150000Y-68400000D01*
X154150000Y-69200000D01*
X154150000Y-69200000D01*
G37*
G36*
X124150000Y-67600000D02*
X123350000Y-67600000D01*
X123350000Y-66800000D01*
X124150000Y-66800000D01*
X124150000Y-67600000D01*
X124150000Y-67600000D01*
G37*
G36*
X131650000Y-67600000D02*
X130850000Y-67600000D01*
X130850000Y-66800000D01*
X131650000Y-66800000D01*
X131650000Y-67600000D01*
X131650000Y-67600000D01*
G37*
G36*
X144150000Y-67600000D02*
X143350000Y-67600000D01*
X143350000Y-66800000D01*
X144150000Y-66800000D01*
X144150000Y-67600000D01*
X144150000Y-67600000D01*
G37*
G36*
X141650000Y-67600000D02*
X140850000Y-67600000D01*
X140850000Y-66800000D01*
X141650000Y-66800000D01*
X141650000Y-67600000D01*
X141650000Y-67600000D01*
G37*
G36*
X111650000Y-67600000D02*
X110850000Y-67600000D01*
X110850000Y-66800000D01*
X111650000Y-66800000D01*
X111650000Y-67600000D01*
X111650000Y-67600000D01*
G37*
G36*
X114150000Y-67600000D02*
X113350000Y-67600000D01*
X113350000Y-66800000D01*
X114150000Y-66800000D01*
X114150000Y-67600000D01*
X114150000Y-67600000D01*
G37*
G36*
X116650000Y-67600000D02*
X115850000Y-67600000D01*
X115850000Y-66800000D01*
X116650000Y-66800000D01*
X116650000Y-67600000D01*
X116650000Y-67600000D01*
G37*
G36*
X119150000Y-67600000D02*
X118350000Y-67600000D01*
X118350000Y-66800000D01*
X119150000Y-66800000D01*
X119150000Y-67600000D01*
X119150000Y-67600000D01*
G37*
G36*
X121650000Y-67600000D02*
X120850000Y-67600000D01*
X120850000Y-66800000D01*
X121650000Y-66800000D01*
X121650000Y-67600000D01*
X121650000Y-67600000D01*
G37*
G36*
X126650000Y-67600000D02*
X125850000Y-67600000D01*
X125850000Y-66800000D01*
X126650000Y-66800000D01*
X126650000Y-67600000D01*
X126650000Y-67600000D01*
G37*
G36*
X134150000Y-67600000D02*
X133350000Y-67600000D01*
X133350000Y-66800000D01*
X134150000Y-66800000D01*
X134150000Y-67600000D01*
X134150000Y-67600000D01*
G37*
G36*
X146650000Y-67600000D02*
X145850000Y-67600000D01*
X145850000Y-66800000D01*
X146650000Y-66800000D01*
X146650000Y-67600000D01*
X146650000Y-67600000D01*
G37*
G36*
X149150000Y-67600000D02*
X148350000Y-67600000D01*
X148350000Y-66800000D01*
X149150000Y-66800000D01*
X149150000Y-67600000D01*
X149150000Y-67600000D01*
G37*
G36*
X151650000Y-67600000D02*
X150850000Y-67600000D01*
X150850000Y-66800000D01*
X151650000Y-66800000D01*
X151650000Y-67600000D01*
X151650000Y-67600000D01*
G37*
G36*
X154150000Y-67600000D02*
X153350000Y-67600000D01*
X153350000Y-66800000D01*
X154150000Y-66800000D01*
X154150000Y-67600000D01*
X154150000Y-67600000D01*
G37*
G36*
X136650000Y-67600000D02*
X135850000Y-67600000D01*
X135850000Y-66800000D01*
X136650000Y-66800000D01*
X136650000Y-67600000D01*
X136650000Y-67600000D01*
G37*
G36*
X139150000Y-67600000D02*
X138350000Y-67600000D01*
X138350000Y-66800000D01*
X139150000Y-66800000D01*
X139150000Y-67600000D01*
X139150000Y-67600000D01*
G37*
G36*
X129150000Y-67600000D02*
X128350000Y-67600000D01*
X128350000Y-66800000D01*
X129150000Y-66800000D01*
X129150000Y-67600000D01*
X129150000Y-67600000D01*
G37*
G36*
X116650000Y-66200000D02*
X115850000Y-66200000D01*
X115850000Y-65400000D01*
X116650000Y-65400000D01*
X116650000Y-66200000D01*
X116650000Y-66200000D01*
G37*
G36*
X154150000Y-66200000D02*
X153350000Y-66200000D01*
X153350000Y-65400000D01*
X154150000Y-65400000D01*
X154150000Y-66200000D01*
X154150000Y-66200000D01*
G37*
G36*
X151650000Y-66200000D02*
X150850000Y-66200000D01*
X150850000Y-65400000D01*
X151650000Y-65400000D01*
X151650000Y-66200000D01*
X151650000Y-66200000D01*
G37*
G36*
X149150000Y-66200000D02*
X148350000Y-66200000D01*
X148350000Y-65400000D01*
X149150000Y-65400000D01*
X149150000Y-66200000D01*
X149150000Y-66200000D01*
G37*
G36*
X146650000Y-66200000D02*
X145850000Y-66200000D01*
X145850000Y-65400000D01*
X146650000Y-65400000D01*
X146650000Y-66200000D01*
X146650000Y-66200000D01*
G37*
G36*
X126650000Y-66200000D02*
X125850000Y-66200000D01*
X125850000Y-65400000D01*
X126650000Y-65400000D01*
X126650000Y-66200000D01*
X126650000Y-66200000D01*
G37*
G36*
X124150000Y-66200000D02*
X123350000Y-66200000D01*
X123350000Y-65400000D01*
X124150000Y-65400000D01*
X124150000Y-66200000D01*
X124150000Y-66200000D01*
G37*
G36*
X121650000Y-66200000D02*
X120850000Y-66200000D01*
X120850000Y-65400000D01*
X121650000Y-65400000D01*
X121650000Y-66200000D01*
X121650000Y-66200000D01*
G37*
G36*
X119150000Y-66200000D02*
X118350000Y-66200000D01*
X118350000Y-65400000D01*
X119150000Y-65400000D01*
X119150000Y-66200000D01*
X119150000Y-66200000D01*
G37*
G36*
X114150000Y-66200000D02*
X113350000Y-66200000D01*
X113350000Y-65400000D01*
X114150000Y-65400000D01*
X114150000Y-66200000D01*
X114150000Y-66200000D01*
G37*
G36*
X131650000Y-66200000D02*
X130850000Y-66200000D01*
X130850000Y-65400000D01*
X131650000Y-65400000D01*
X131650000Y-66200000D01*
X131650000Y-66200000D01*
G37*
G36*
X136650000Y-66200000D02*
X135850000Y-66200000D01*
X135850000Y-65400000D01*
X136650000Y-65400000D01*
X136650000Y-66200000D01*
X136650000Y-66200000D01*
G37*
G36*
X139150000Y-66200000D02*
X138350000Y-66200000D01*
X138350000Y-65400000D01*
X139150000Y-65400000D01*
X139150000Y-66200000D01*
X139150000Y-66200000D01*
G37*
G36*
X141650000Y-66200000D02*
X140850000Y-66200000D01*
X140850000Y-65400000D01*
X141650000Y-65400000D01*
X141650000Y-66200000D01*
X141650000Y-66200000D01*
G37*
G36*
X144150000Y-66200000D02*
X143350000Y-66200000D01*
X143350000Y-65400000D01*
X144150000Y-65400000D01*
X144150000Y-66200000D01*
X144150000Y-66200000D01*
G37*
G36*
X134150000Y-66200000D02*
X133350000Y-66200000D01*
X133350000Y-65400000D01*
X134150000Y-65400000D01*
X134150000Y-66200000D01*
X134150000Y-66200000D01*
G37*
G36*
X129150000Y-66200000D02*
X128350000Y-66200000D01*
X128350000Y-65400000D01*
X129150000Y-65400000D01*
X129150000Y-66200000D01*
X129150000Y-66200000D01*
G37*
G36*
X111650000Y-66200000D02*
X110850000Y-66200000D01*
X110850000Y-65400000D01*
X111650000Y-65400000D01*
X111650000Y-66200000D01*
X111650000Y-66200000D01*
G37*
G36*
X136650000Y-64600000D02*
X135850000Y-64600000D01*
X135850000Y-63800000D01*
X136650000Y-63800000D01*
X136650000Y-64600000D01*
X136650000Y-64600000D01*
G37*
G36*
X144150000Y-64600000D02*
X143350000Y-64600000D01*
X143350000Y-63800000D01*
X144150000Y-63800000D01*
X144150000Y-64600000D01*
X144150000Y-64600000D01*
G37*
G36*
X154150000Y-64600000D02*
X153350000Y-64600000D01*
X153350000Y-63800000D01*
X154150000Y-63800000D01*
X154150000Y-64600000D01*
X154150000Y-64600000D01*
G37*
G36*
X151650000Y-64600000D02*
X150850000Y-64600000D01*
X150850000Y-63800000D01*
X151650000Y-63800000D01*
X151650000Y-64600000D01*
X151650000Y-64600000D01*
G37*
G36*
X149150000Y-64600000D02*
X148350000Y-64600000D01*
X148350000Y-63800000D01*
X149150000Y-63800000D01*
X149150000Y-64600000D01*
X149150000Y-64600000D01*
G37*
G36*
X146650000Y-64600000D02*
X145850000Y-64600000D01*
X145850000Y-63800000D01*
X146650000Y-63800000D01*
X146650000Y-64600000D01*
X146650000Y-64600000D01*
G37*
G36*
X111650000Y-64600000D02*
X110850000Y-64600000D01*
X110850000Y-63800000D01*
X111650000Y-63800000D01*
X111650000Y-64600000D01*
X111650000Y-64600000D01*
G37*
G36*
X114150000Y-64600000D02*
X113350000Y-64600000D01*
X113350000Y-63800000D01*
X114150000Y-63800000D01*
X114150000Y-64600000D01*
X114150000Y-64600000D01*
G37*
G36*
X139150000Y-64600000D02*
X138350000Y-64600000D01*
X138350000Y-63800000D01*
X139150000Y-63800000D01*
X139150000Y-64600000D01*
X139150000Y-64600000D01*
G37*
G36*
X134150000Y-64600000D02*
X133350000Y-64600000D01*
X133350000Y-63800000D01*
X134150000Y-63800000D01*
X134150000Y-64600000D01*
X134150000Y-64600000D01*
G37*
G36*
X141650000Y-64600000D02*
X140850000Y-64600000D01*
X140850000Y-63800000D01*
X141650000Y-63800000D01*
X141650000Y-64600000D01*
X141650000Y-64600000D01*
G37*
G36*
X126650000Y-64600000D02*
X125850000Y-64600000D01*
X125850000Y-63800000D01*
X126650000Y-63800000D01*
X126650000Y-64600000D01*
X126650000Y-64600000D01*
G37*
G36*
X124150000Y-64600000D02*
X123350000Y-64600000D01*
X123350000Y-63800000D01*
X124150000Y-63800000D01*
X124150000Y-64600000D01*
X124150000Y-64600000D01*
G37*
G36*
X121650000Y-64600000D02*
X120850000Y-64600000D01*
X120850000Y-63800000D01*
X121650000Y-63800000D01*
X121650000Y-64600000D01*
X121650000Y-64600000D01*
G37*
G36*
X131650000Y-64600000D02*
X130850000Y-64600000D01*
X130850000Y-63800000D01*
X131650000Y-63800000D01*
X131650000Y-64600000D01*
X131650000Y-64600000D01*
G37*
G36*
X119150000Y-64600000D02*
X118350000Y-64600000D01*
X118350000Y-63800000D01*
X119150000Y-63800000D01*
X119150000Y-64600000D01*
X119150000Y-64600000D01*
G37*
G36*
X116650000Y-64600000D02*
X115850000Y-64600000D01*
X115850000Y-63800000D01*
X116650000Y-63800000D01*
X116650000Y-64600000D01*
X116650000Y-64600000D01*
G37*
G36*
X129150000Y-64600000D02*
X128350000Y-64600000D01*
X128350000Y-63800000D01*
X129150000Y-63800000D01*
X129150000Y-64600000D01*
X129150000Y-64600000D01*
G37*
G36*
X136650000Y-63200000D02*
X135850000Y-63200000D01*
X135850000Y-62400000D01*
X136650000Y-62400000D01*
X136650000Y-63200000D01*
X136650000Y-63200000D01*
G37*
G36*
X114150000Y-63200000D02*
X113350000Y-63200000D01*
X113350000Y-62400000D01*
X114150000Y-62400000D01*
X114150000Y-63200000D01*
X114150000Y-63200000D01*
G37*
G36*
X139150000Y-63200000D02*
X138350000Y-63200000D01*
X138350000Y-62400000D01*
X139150000Y-62400000D01*
X139150000Y-63200000D01*
X139150000Y-63200000D01*
G37*
G36*
X141650000Y-63200000D02*
X140850000Y-63200000D01*
X140850000Y-62400000D01*
X141650000Y-62400000D01*
X141650000Y-63200000D01*
X141650000Y-63200000D01*
G37*
G36*
X144150000Y-63200000D02*
X143350000Y-63200000D01*
X143350000Y-62400000D01*
X144150000Y-62400000D01*
X144150000Y-63200000D01*
X144150000Y-63200000D01*
G37*
G36*
X146650000Y-63200000D02*
X145850000Y-63200000D01*
X145850000Y-62400000D01*
X146650000Y-62400000D01*
X146650000Y-63200000D01*
X146650000Y-63200000D01*
G37*
G36*
X149150000Y-63200000D02*
X148350000Y-63200000D01*
X148350000Y-62400000D01*
X149150000Y-62400000D01*
X149150000Y-63200000D01*
X149150000Y-63200000D01*
G37*
G36*
X151650000Y-63200000D02*
X150850000Y-63200000D01*
X150850000Y-62400000D01*
X151650000Y-62400000D01*
X151650000Y-63200000D01*
X151650000Y-63200000D01*
G37*
G36*
X154150000Y-63200000D02*
X153350000Y-63200000D01*
X153350000Y-62400000D01*
X154150000Y-62400000D01*
X154150000Y-63200000D01*
X154150000Y-63200000D01*
G37*
G36*
X129150000Y-63200000D02*
X128350000Y-63200000D01*
X128350000Y-62400000D01*
X129150000Y-62400000D01*
X129150000Y-63200000D01*
X129150000Y-63200000D01*
G37*
G36*
X134150000Y-63200000D02*
X133350000Y-63200000D01*
X133350000Y-62400000D01*
X134150000Y-62400000D01*
X134150000Y-63200000D01*
X134150000Y-63200000D01*
G37*
G36*
X121650000Y-63200000D02*
X120850000Y-63200000D01*
X120850000Y-62400000D01*
X121650000Y-62400000D01*
X121650000Y-63200000D01*
X121650000Y-63200000D01*
G37*
G36*
X131650000Y-63200000D02*
X130850000Y-63200000D01*
X130850000Y-62400000D01*
X131650000Y-62400000D01*
X131650000Y-63200000D01*
X131650000Y-63200000D01*
G37*
G36*
X119150000Y-63200000D02*
X118350000Y-63200000D01*
X118350000Y-62400000D01*
X119150000Y-62400000D01*
X119150000Y-63200000D01*
X119150000Y-63200000D01*
G37*
G36*
X116650000Y-63200000D02*
X115850000Y-63200000D01*
X115850000Y-62400000D01*
X116650000Y-62400000D01*
X116650000Y-63200000D01*
X116650000Y-63200000D01*
G37*
G36*
X111650000Y-63200000D02*
X110850000Y-63200000D01*
X110850000Y-62400000D01*
X111650000Y-62400000D01*
X111650000Y-63200000D01*
X111650000Y-63200000D01*
G37*
G36*
X124150000Y-63200000D02*
X123350000Y-63200000D01*
X123350000Y-62400000D01*
X124150000Y-62400000D01*
X124150000Y-63200000D01*
X124150000Y-63200000D01*
G37*
G36*
X126650000Y-63200000D02*
X125850000Y-63200000D01*
X125850000Y-62400000D01*
X126650000Y-62400000D01*
X126650000Y-63200000D01*
X126650000Y-63200000D01*
G37*
G36*
X129150000Y-61600000D02*
X128350000Y-61600000D01*
X128350000Y-60800000D01*
X129150000Y-60800000D01*
X129150000Y-61600000D01*
X129150000Y-61600000D01*
G37*
G36*
X154150000Y-61600000D02*
X153350000Y-61600000D01*
X153350000Y-60800000D01*
X154150000Y-60800000D01*
X154150000Y-61600000D01*
X154150000Y-61600000D01*
G37*
G36*
X151650000Y-61600000D02*
X150850000Y-61600000D01*
X150850000Y-60800000D01*
X151650000Y-60800000D01*
X151650000Y-61600000D01*
X151650000Y-61600000D01*
G37*
G36*
X149150000Y-61600000D02*
X148350000Y-61600000D01*
X148350000Y-60800000D01*
X149150000Y-60800000D01*
X149150000Y-61600000D01*
X149150000Y-61600000D01*
G37*
G36*
X146650000Y-61600000D02*
X145850000Y-61600000D01*
X145850000Y-60800000D01*
X146650000Y-60800000D01*
X146650000Y-61600000D01*
X146650000Y-61600000D01*
G37*
G36*
X144150000Y-61600000D02*
X143350000Y-61600000D01*
X143350000Y-60800000D01*
X144150000Y-60800000D01*
X144150000Y-61600000D01*
X144150000Y-61600000D01*
G37*
G36*
X141650000Y-61600000D02*
X140850000Y-61600000D01*
X140850000Y-60800000D01*
X141650000Y-60800000D01*
X141650000Y-61600000D01*
X141650000Y-61600000D01*
G37*
G36*
X134150000Y-61600000D02*
X133350000Y-61600000D01*
X133350000Y-60800000D01*
X134150000Y-60800000D01*
X134150000Y-61600000D01*
X134150000Y-61600000D01*
G37*
G36*
X131650000Y-61600000D02*
X130850000Y-61600000D01*
X130850000Y-60800000D01*
X131650000Y-60800000D01*
X131650000Y-61600000D01*
X131650000Y-61600000D01*
G37*
G36*
X124150000Y-61600000D02*
X123350000Y-61600000D01*
X123350000Y-60800000D01*
X124150000Y-60800000D01*
X124150000Y-61600000D01*
X124150000Y-61600000D01*
G37*
G36*
X126650000Y-61600000D02*
X125850000Y-61600000D01*
X125850000Y-60800000D01*
X126650000Y-60800000D01*
X126650000Y-61600000D01*
X126650000Y-61600000D01*
G37*
G36*
X121650000Y-61600000D02*
X120850000Y-61600000D01*
X120850000Y-60800000D01*
X121650000Y-60800000D01*
X121650000Y-61600000D01*
X121650000Y-61600000D01*
G37*
G36*
X139150000Y-61600000D02*
X138350000Y-61600000D01*
X138350000Y-60800000D01*
X139150000Y-60800000D01*
X139150000Y-61600000D01*
X139150000Y-61600000D01*
G37*
G36*
X136650000Y-61600000D02*
X135850000Y-61600000D01*
X135850000Y-60800000D01*
X136650000Y-60800000D01*
X136650000Y-61600000D01*
X136650000Y-61600000D01*
G37*
G36*
X119150000Y-61600000D02*
X118350000Y-61600000D01*
X118350000Y-60800000D01*
X119150000Y-60800000D01*
X119150000Y-61600000D01*
X119150000Y-61600000D01*
G37*
G36*
X116650000Y-61600000D02*
X115850000Y-61600000D01*
X115850000Y-60800000D01*
X116650000Y-60800000D01*
X116650000Y-61600000D01*
X116650000Y-61600000D01*
G37*
G36*
X114150000Y-61600000D02*
X113350000Y-61600000D01*
X113350000Y-60800000D01*
X114150000Y-60800000D01*
X114150000Y-61600000D01*
X114150000Y-61600000D01*
G37*
G36*
X111650000Y-61600000D02*
X110850000Y-61600000D01*
X110850000Y-60800000D01*
X111650000Y-60800000D01*
X111650000Y-61600000D01*
X111650000Y-61600000D01*
G37*
G36*
X151650000Y-60200000D02*
X150850000Y-60200000D01*
X150850000Y-59400000D01*
X151650000Y-59400000D01*
X151650000Y-60200000D01*
X151650000Y-60200000D01*
G37*
G36*
X129150000Y-60200000D02*
X128350000Y-60200000D01*
X128350000Y-59400000D01*
X129150000Y-59400000D01*
X129150000Y-60200000D01*
X129150000Y-60200000D01*
G37*
G36*
X131650000Y-60200000D02*
X130850000Y-60200000D01*
X130850000Y-59400000D01*
X131650000Y-59400000D01*
X131650000Y-60200000D01*
X131650000Y-60200000D01*
G37*
G36*
X136650000Y-60200000D02*
X135850000Y-60200000D01*
X135850000Y-59400000D01*
X136650000Y-59400000D01*
X136650000Y-60200000D01*
X136650000Y-60200000D01*
G37*
G36*
X154150000Y-60200000D02*
X153350000Y-60200000D01*
X153350000Y-59400000D01*
X154150000Y-59400000D01*
X154150000Y-60200000D01*
X154150000Y-60200000D01*
G37*
G36*
X149150000Y-60200000D02*
X148350000Y-60200000D01*
X148350000Y-59400000D01*
X149150000Y-59400000D01*
X149150000Y-60200000D01*
X149150000Y-60200000D01*
G37*
G36*
X146650000Y-60200000D02*
X145850000Y-60200000D01*
X145850000Y-59400000D01*
X146650000Y-59400000D01*
X146650000Y-60200000D01*
X146650000Y-60200000D01*
G37*
G36*
X144150000Y-60200000D02*
X143350000Y-60200000D01*
X143350000Y-59400000D01*
X144150000Y-59400000D01*
X144150000Y-60200000D01*
X144150000Y-60200000D01*
G37*
G36*
X141650000Y-60200000D02*
X140850000Y-60200000D01*
X140850000Y-59400000D01*
X141650000Y-59400000D01*
X141650000Y-60200000D01*
X141650000Y-60200000D01*
G37*
G36*
X116650000Y-60200000D02*
X115850000Y-60200000D01*
X115850000Y-59400000D01*
X116650000Y-59400000D01*
X116650000Y-60200000D01*
X116650000Y-60200000D01*
G37*
G36*
X119150000Y-60200000D02*
X118350000Y-60200000D01*
X118350000Y-59400000D01*
X119150000Y-59400000D01*
X119150000Y-60200000D01*
X119150000Y-60200000D01*
G37*
G36*
X139150000Y-60200000D02*
X138350000Y-60200000D01*
X138350000Y-59400000D01*
X139150000Y-59400000D01*
X139150000Y-60200000D01*
X139150000Y-60200000D01*
G37*
G36*
X134150000Y-60200000D02*
X133350000Y-60200000D01*
X133350000Y-59400000D01*
X134150000Y-59400000D01*
X134150000Y-60200000D01*
X134150000Y-60200000D01*
G37*
G36*
X124150000Y-60200000D02*
X123350000Y-60200000D01*
X123350000Y-59400000D01*
X124150000Y-59400000D01*
X124150000Y-60200000D01*
X124150000Y-60200000D01*
G37*
G36*
X121650000Y-60200000D02*
X120850000Y-60200000D01*
X120850000Y-59400000D01*
X121650000Y-59400000D01*
X121650000Y-60200000D01*
X121650000Y-60200000D01*
G37*
G36*
X111650000Y-60200000D02*
X110850000Y-60200000D01*
X110850000Y-59400000D01*
X111650000Y-59400000D01*
X111650000Y-60200000D01*
X111650000Y-60200000D01*
G37*
G36*
X126650000Y-60200000D02*
X125850000Y-60200000D01*
X125850000Y-59400000D01*
X126650000Y-59400000D01*
X126650000Y-60200000D01*
X126650000Y-60200000D01*
G37*
G36*
X114150000Y-60200000D02*
X113350000Y-60200000D01*
X113350000Y-59400000D01*
X114150000Y-59400000D01*
X114150000Y-60200000D01*
X114150000Y-60200000D01*
G37*
G36*
X154150000Y-58600000D02*
X153350000Y-58600000D01*
X153350000Y-57800000D01*
X154150000Y-57800000D01*
X154150000Y-58600000D01*
X154150000Y-58600000D01*
G37*
G36*
X151650000Y-58600000D02*
X150850000Y-58600000D01*
X150850000Y-57800000D01*
X151650000Y-57800000D01*
X151650000Y-58600000D01*
X151650000Y-58600000D01*
G37*
G36*
X149150000Y-58600000D02*
X148350000Y-58600000D01*
X148350000Y-57800000D01*
X149150000Y-57800000D01*
X149150000Y-58600000D01*
X149150000Y-58600000D01*
G37*
G36*
X146650000Y-58600000D02*
X145850000Y-58600000D01*
X145850000Y-57800000D01*
X146650000Y-57800000D01*
X146650000Y-58600000D01*
X146650000Y-58600000D01*
G37*
G36*
X144150000Y-58600000D02*
X143350000Y-58600000D01*
X143350000Y-57800000D01*
X144150000Y-57800000D01*
X144150000Y-58600000D01*
X144150000Y-58600000D01*
G37*
G36*
X141650000Y-58600000D02*
X140850000Y-58600000D01*
X140850000Y-57800000D01*
X141650000Y-57800000D01*
X141650000Y-58600000D01*
X141650000Y-58600000D01*
G37*
G36*
X139150000Y-58600000D02*
X138350000Y-58600000D01*
X138350000Y-57800000D01*
X139150000Y-57800000D01*
X139150000Y-58600000D01*
X139150000Y-58600000D01*
G37*
G36*
X136650000Y-58600000D02*
X135850000Y-58600000D01*
X135850000Y-57800000D01*
X136650000Y-57800000D01*
X136650000Y-58600000D01*
X136650000Y-58600000D01*
G37*
G36*
X134150000Y-58600000D02*
X133350000Y-58600000D01*
X133350000Y-57800000D01*
X134150000Y-57800000D01*
X134150000Y-58600000D01*
X134150000Y-58600000D01*
G37*
G36*
X111650000Y-58600000D02*
X110850000Y-58600000D01*
X110850000Y-57800000D01*
X111650000Y-57800000D01*
X111650000Y-58600000D01*
X111650000Y-58600000D01*
G37*
G36*
X114150000Y-58600000D02*
X113350000Y-58600000D01*
X113350000Y-57800000D01*
X114150000Y-57800000D01*
X114150000Y-58600000D01*
X114150000Y-58600000D01*
G37*
G36*
X119150000Y-58600000D02*
X118350000Y-58600000D01*
X118350000Y-57800000D01*
X119150000Y-57800000D01*
X119150000Y-58600000D01*
X119150000Y-58600000D01*
G37*
G36*
X116650000Y-58600000D02*
X115850000Y-58600000D01*
X115850000Y-57800000D01*
X116650000Y-57800000D01*
X116650000Y-58600000D01*
X116650000Y-58600000D01*
G37*
G36*
X124150000Y-58600000D02*
X123350000Y-58600000D01*
X123350000Y-57800000D01*
X124150000Y-57800000D01*
X124150000Y-58600000D01*
X124150000Y-58600000D01*
G37*
G36*
X121650000Y-58600000D02*
X120850000Y-58600000D01*
X120850000Y-57800000D01*
X121650000Y-57800000D01*
X121650000Y-58600000D01*
X121650000Y-58600000D01*
G37*
G36*
X126650000Y-58600000D02*
X125850000Y-58600000D01*
X125850000Y-57800000D01*
X126650000Y-57800000D01*
X126650000Y-58600000D01*
X126650000Y-58600000D01*
G37*
G36*
X131650000Y-58600000D02*
X130850000Y-58600000D01*
X130850000Y-57800000D01*
X131650000Y-57800000D01*
X131650000Y-58600000D01*
X131650000Y-58600000D01*
G37*
G36*
X129150000Y-58600000D02*
X128350000Y-58600000D01*
X128350000Y-57800000D01*
X129150000Y-57800000D01*
X129150000Y-58600000D01*
X129150000Y-58600000D01*
G37*
M02*
